<?xml version="1.0" standalone="no"?>
<!DOCTYPE svg PUBLIC "-//W3C//DTD SVG 1.1//EN" "http://www.w3.org/Graphics/SVG/1.1/DTD/svg11.dtd" >
<svg xmlns="http://www.w3.org/2000/svg" xmlns:xlink="http://www.w3.org/1999/xlink" version="1.1">
<metadata></metadata>
<defs>
<font id="cormorant_infant_lightregular" horiz-adv-x="1280" >
<font-face units-per-em="2048" ascent="1638" descent="-410" />
<missing-glyph horiz-adv-x="479" />
<glyph horiz-adv-x="0" />
<glyph horiz-adv-x="682" />
<glyph unicode=" "  horiz-adv-x="479" />
<glyph unicode="&#x09;" horiz-adv-x="479" />
<glyph unicode="&#xa0;" horiz-adv-x="479" />
<glyph unicode="!" horiz-adv-x="497" d="M160 57q0 35 22.5 55.5t59.5 20.5q39 0 59.5 -20.5t20.5 -55.5q0 -37 -20.5 -58.5t-59.5 -21.5q-37 0 -59.5 21.5t-22.5 58.5zM168 1272q0 6 25.5 11t56.5 5t56.5 -5t23.5 -11q-31 -178 -45.5 -381t-28.5 -504q0 -4 -10 -4t-10 4q-10 295 -23.5 501t-44.5 384z" />
<glyph unicode="&#x22;" horiz-adv-x="569" d="M96 1247q0 18 34 37t71 25t35 -4l-103 -555q-2 -4 -11 -6.5t-9 4.5zM383 1247q0 18 34 37t70.5 25t34.5 -4l-102 -555q-2 -4 -11.5 -6.5t-9.5 4.5z" />
<glyph unicode="#" horiz-adv-x="1077" d="M119 199q0 14 3 25.5t5 11.5h158l57 329h-141q-4 0 -7.5 13.5t-3.5 27.5q0 12 2.5 23.5t6.5 11.5h157l62 346q0 4 14 4q16 0 34.5 -5t16.5 -11l-59 -334h315l62 346q0 4 14 4q16 0 34.5 -5t16.5 -11l-59 -334h141q4 0 7 -11.5t3 -25.5t-3 -26.5t-7 -12.5h-153l-60 -329 h142q4 0 7 -12.5t3 -26.5t-3 -26.5t-7 -12.5h-156l-55 -318q0 -6 -21 -6q-16 0 -32.5 4t-14.5 8l55 312h-315l-55 -318q0 -6 -21 -6q-16 0 -32.5 4t-14.5 8l55 312h-141q-4 0 -7 13t-3 28zM352 236h316l57 329h-313z" />
<glyph unicode="$" horiz-adv-x="1005" d="M137 350v2q0 8 10.5 9t12.5 -7q20 -139 106 -243.5t238 -106.5v598l-35 21q-98 57 -154.5 100t-96.5 107.5t-40 154.5q0 139 94.5 221t231.5 94v173q0 8 6 12t14 4q6 0 12.5 -4t6.5 -12v-170h4q113 0 233 -50q31 -12 31 -34l18 -218q0 -8 -11 -8t-13 8 q-8 102 -73.5 184.5t-188.5 90.5v-565l30 -19q106 -63 165 -105t101 -107.5t42 -157.5q0 -134 -87 -229t-251 -113v-201q0 -14 -19 -15q-20 0 -20 15v198q-12 -2 -39 -2q-72 0 -136.5 15.5t-142.5 54.5q-10 6 -13 14.5t-5 24.5zM283 1032q0 -100 57 -166.5t164 -132.5v543 q-115 -6 -168 -77t-53 -167zM543 6q98 8 161.5 67.5t63.5 176.5q0 113 -59.5 187.5t-165.5 140.5v-572z" />
<glyph unicode="%" horiz-adv-x="1175" d="M59 887q0 109 71 184.5t177 75.5t174 -77t68 -189q0 -111 -68.5 -185.5t-173.5 -74.5q-106 0 -177 76.5t-71 189.5zM168 893q0 -252 154 -252q71 0 94.5 56.5t23.5 168.5q0 127 -36.5 193.5t-108.5 66.5q-74 0 -100.5 -61t-26.5 -172zM170 12l760 1114q0 2 4 2 q10 0 26.5 -11t14.5 -15l-760 -1112l-4 -2q-8 0 -25.5 10t-15.5 14zM627 256q0 109 70.5 185.5t176.5 76.5t174 -78t68 -188q0 -113 -68.5 -187.5t-173.5 -74.5q-106 0 -176.5 76.5t-70.5 189.5zM735 264q0 -252 154 -252q72 0 95.5 56.5t23.5 169.5q0 258 -146 258 q-72 0 -99.5 -61.5t-27.5 -170.5z" />
<glyph unicode="&#x26;" horiz-adv-x="1417" d="M131 285q0 121 74 211t211 188q-37 57 -60 104q-57 131 -57 224q0 82 42 153.5t115.5 114.5t168.5 43q92 0 161.5 -45t69.5 -158q0 -80 -40 -144.5t-98.5 -111.5t-160.5 -116l-43 -29q152 -238 442 -459q88 143 88 303q0 63 -27.5 95t-113.5 32q-6 0 -7 12.5t7 12.5 l414 2q8 0 8 -12.5t-8 -12.5q-72 0 -107.5 -12t-50 -34.5t-26.5 -65.5q-55 -197 -150 -338q121 -88 233.5 -144.5t196.5 -72.5q8 -2 7 -13.5t-7 -11.5h-192q-102 0 -303 160q-166 -184 -418 -185q-123 0 -206 43t-123 114t-40 153zM242 344q0 -88 44 -160.5t119.5 -114.5 t169.5 -42q93 0 174.5 39.5t145.5 111.5l-23 19q-127 100 -242.5 221t-197.5 241q-90 -68 -140 -142.5t-50 -172.5zM397 1075q1 -154 103 -332q125 88 191.5 166t66.5 181q0 92 -49.5 143t-135.5 51q-84 0 -130 -51t-46 -158z" />
<glyph unicode="'" horiz-adv-x="282" d="M96 1247q0 18 34 37t71 25t35 -4l-103 -555q-2 -4 -11 -6.5t-9 4.5z" />
<glyph unicode="(" horiz-adv-x="632" d="M143 623q0 290 111 521.5t307 340.5q4 2 8 -3t0 -9q-158 -145 -231.5 -356.5t-73.5 -493.5q0 -283 74 -494t231 -356q4 -2 0 -8.5t-8 -4.5q-199 111 -308.5 341.5t-109.5 521.5z" />
<glyph unicode=")" horiz-adv-x="632" d="M63 -227q158 145 232 356t74 494t-74 493.5t-232 356.5q-4 2 0.5 8t8.5 4q199 -111 308 -341.5t109 -520.5q0 -291 -110.5 -522.5t-306.5 -340.5q-4 -2 -8.5 3.5t-0.5 9.5z" />
<glyph unicode="*" horiz-adv-x="917" d="M123 827l299 179l4 2q4 0 9 -6.5t3 -8.5l-170 -200q-7 -11 -30 -11t-53.5 9.5t-50 20.5t-11.5 15zM145 1235q0 29 4.5 48.5t10.5 12.5l264 -231q6 -2 2 -11.5t-8 -6.5l-246 98q-27 10 -27 90zM463 1083l18 263q0 18 36 36.5t72 24.5t32 -4l-138 -320q-2 -6 -11 -6t-9 6z M477 985q-2 4 6.5 11.5t10.5 2.5l141 -225q10 -16 -8.5 -51t-44 -61.5t-27.5 -16.5zM507 1039.5q-3 9.5 1 11.5l258 63q18 4 46 -23.5t45 -59.5t5 -32l-348 31q-4 0 -7 9.5z" />
<glyph unicode="+" horiz-adv-x="815" d="M59 391q0 12 2 23.5t7 11.5h301v299q0 4 12 7t27 3q14 0 26 -3t12 -7v-299h299q5 0 8 -11.5t3 -25.5t-3 -26.5t-8 -12.5h-299v-299q0 -4 -14 -7t-31 -3q-33 0 -32 6v303h-299q-4 0 -7.5 13.5t-3.5 27.5z" />
<glyph unicode="," horiz-adv-x="454" d="M125 55q0 72 84 72q59 0 93 -44t34 -126q0 -80 -36 -147.5t-105 -135.5q-2 -2 -7 -2q-6 0 -10 6.5t0 10.5q100 102 101 241q0 53 -21 84q-14 -31 -59 -30q-35 0 -54.5 19.5t-19.5 51.5z" />
<glyph unicode="-" horiz-adv-x="661" d="M55 389q0 35 6 35l535 96q4 2 7 -11t3 -28q0 -14 -3 -26.5t-7 -14.5l-530 -96q-5 -2 -8 13.5t-3 31.5z" />
<glyph unicode="." horiz-adv-x="399" d="M119 57q0 35 22.5 55.5t59.5 20.5q39 0 59.5 -20.5t20.5 -55.5q0 -37 -20.5 -58.5t-59.5 -21.5q-37 0 -59.5 21.5t-22.5 58.5z" />
<glyph unicode="/" horiz-adv-x="694" d="M53 -311l516 1806q4 10 40 -2t32 -23l-514 -1804q-2 -8 -39 3.5t-35 19.5z" />
<glyph unicode="0" horiz-adv-x="1026" d="M100 641q0 190 53.5 342t148.5 237t216 85q119 0 211 -86t143.5 -238t51.5 -346q0 -193 -52.5 -343.5t-145.5 -234.5t-212 -84t-213 85t-147.5 236.5t-53.5 346.5zM221 655q0 -190 39 -339.5t110.5 -233.5t168.5 -84q131 0 197.5 165t66.5 447q0 219 -42 371 t-111.5 226.5t-153.5 74.5q-129 0 -202 -174t-73 -453z" />
<glyph unicode="1" horiz-adv-x="800" d="M133 1040.5q-4 10.5 4 14.5l324 239q10 6 14 6t7 -4t3 -8v-1122q0 -63 16.5 -92t63.5 -39t152 -10q4 0 4 -12.5t-4 -12.5q-74 0 -117 2l-162 2l-159 -2q-43 -2 -119 -2q-4 0 -4 12.5t4 12.5q98 0 146 11t66.5 39.5t18.5 90.5v874q0 98 -49 99q-27 0 -73 -26t-119 -81 l-5 -2q-8 0 -12 10.5z" />
<glyph unicode="2" horiz-adv-x="919" d="M66.5 7q-5.5 7 1.5 11q45 55 122 150q145 176 236.5 299t155 255t63.5 249q0 115 -64.5 186.5t-183.5 71.5q-106 0 -180 -61.5t-113 -176.5q0 -2 -8 -2q-16 0 -14 8q33 147 127 226.5t233 79.5q145 0 231.5 -84t86.5 -215q0 -121 -71 -256.5t-163 -249t-223 -258.5 q-84 -90 -123 -142q-10 -14 8 -14q281 0 391.5 7t157.5 35t51 97q0 4 11.5 4t11.5 -4l-4 -200q0 -8 -5 -15.5t-14 -7.5h-706q-10 0 -15.5 7z" />
<glyph unicode="3" horiz-adv-x="890" d="M74 133q0 8 9 13.5t13 -1.5q53 -59 132 -89.5t159 -30.5q139 0 209 89t70 230q0 150 -88.5 237t-298.5 87q-4 0 -6.5 5t-2.5 13q0 6 3 11t6 5q186 0 265 72t79 199q0 121 -63.5 188.5t-178.5 67.5q-90 0 -168 -42t-115 -124q0 -2 -4 -2q-6 0 -13 4t-5 8q47 111 138 170.5 t212 59.5q145 0 225 -82t80 -201q0 -104 -62.5 -194.5t-168.5 -129.5q135 -8 210.5 -103t75.5 -235q0 -113 -49 -199.5t-135 -135t-196 -48.5q-188 0 -330 154z" />
<glyph unicode="4" horiz-adv-x="958" d="M30 384q-5 7 1 15l610 891q4 4 12 4q20 0 21 -12v-840l182 7q8 0 8 -43t-8 -44l-57 3q-82 4 -125 4v-203q0 -63 11 -92t43 -39t103 -10q4 0 4.5 -12.5t-4.5 -12.5q-53 0 -83 2l-125 2l-150 -2q-39 -2 -106 -2q-6 0 -6.5 12.5t6.5 12.5q100 0 140 8t53 35.5t13 97.5v207 q-283 4 -528 4q-10 0 -15 7zM129 451q-8 -14 10 -15q184 0 434 4v674z" />
<glyph unicode="5" horiz-adv-x="909" d="M98 133q0 8 8.5 13.5t12.5 -1.5q51 -61 122.5 -90.5t153.5 -29.5q147 0 221 93t74 244q0 160 -83 253.5t-255 93.5q-121 0 -188 -27q-10 0 -16.5 7t-4.5 18l66 548q2 14 6 19.5t21 5.5q276 0 366 3t118 13.5t44 42.5q0 4 8 4q6 0 11 -3t3 -7l-24 -112q-6 -23 -17.5 -29 t-39.5 -6l-420 10q-27 0 -31 -29l-51 -432q123 31 223 31q178 0 280.5 -98.5t102.5 -282.5q0 -195 -111.5 -302.5t-283.5 -107.5q-96 0 -172 38t-142 116z" />
<glyph unicode="6" horiz-adv-x="1001" d="M125 463q0 203 78 392t225 313t344 135q6 0 9 -9.5t-5 -11.5q-172 -31 -294 -150.5t-183 -288.5t-61 -345q0 -201 80.5 -344.5t246.5 -143.5q113 0 168 76t55 211q0 152 -65.5 246t-173.5 94q-106 0 -197 -96l-4 -2q-8 0 -15 6t-3 10q49 70 119.5 105.5t148.5 35.5 q94 0 162.5 -48t104.5 -126t36 -168q0 -106 -50 -193t-140 -137.5t-203 -50.5q-190 0 -286.5 134.5t-96.5 355.5z" />
<glyph unicode="7" horiz-adv-x="878" d="M53 1061l66 272q2 6 14 5t10 -7q-2 -8 -2 -20q0 -18 19.5 -24.5t79.5 -6.5h542q8 0 15.5 -10t3.5 -17l-461 -1208q-12 -29 -19.5 -37t-23.5 -8h-68q-6 0 -11 5t-3 13l516 1164q8 14 -10 14q-307 0 -426 -8t-159 -35t-60 -96q0 -6 -10 -6q-4 0 -9.5 3t-3.5 7z" />
<glyph unicode="8" horiz-adv-x="1001" d="M100 319q0 127 87 243t208 177q-86 61 -132 126t-46 157q0 86 47 149.5t122 97.5t155 34q84 0 151.5 -35t104.5 -94.5t37 -129.5q0 -94 -54.5 -176t-148.5 -147q92 -55 151.5 -105.5t98.5 -121t39 -166.5q0 -109 -55.5 -190t-151 -123t-209.5 -42q-123 0 -215 45 t-140.5 124t-48.5 177zM215 367q0 -98 43 -180.5t120 -130.5t177 -48q125 0 199.5 71t74.5 202q0 94 -45 162.5t-107.5 114.5t-172.5 112q-47 29 -86 55q-98 -59 -150.5 -154.5t-52.5 -203.5zM305 1083q0 -82 39 -141t93.5 -98t160.5 -105l10 -6q123 121 123 287 q0 119 -69.5 184.5t-167.5 65.5q-82 0 -135.5 -53.5t-53.5 -133.5z" />
<glyph unicode="9" horiz-adv-x="1001" d="M100 936q0 109 50.5 191.5t139.5 129t202 46.5q193 0 289 -133.5t96 -354.5q0 -203 -78 -392.5t-225.5 -312t-344.5 -135.5q-6 -2 -9 9.5t5 13.5q172 31 294 149.5t183.5 286.5t61.5 344q0 203 -81 346.5t-247 143.5q-113 0 -168 -71t-55 -200q0 -160 74.5 -258 t191.5 -98q43 0 81 17.5t89 64.5q2 2 6 2q6 0 11.5 -6t3.5 -10q-45 -57 -108.5 -87t-141.5 -30q-101 0 -173.5 48t-109.5 126t-37 170z" />
<glyph unicode=":" horiz-adv-x="399" d="M119 57q0 35 22.5 55.5t59.5 20.5q39 0 59.5 -20.5t20.5 -55.5q0 -37 -20.5 -58.5t-59.5 -21.5q-37 0 -59.5 21.5t-22.5 58.5zM119 633q0 35 22.5 55.5t59.5 20.5q39 0 59.5 -20.5t20.5 -55.5q0 -37 -20.5 -58.5t-59.5 -21.5q-37 0 -59.5 21.5t-22.5 58.5z" />
<glyph unicode=";" horiz-adv-x="454" d="M123 633q0 35 22.5 55.5t59.5 20.5q39 0 59.5 -20.5t20.5 -55.5q0 -37 -20.5 -58.5t-59.5 -21.5q-37 0 -59.5 21.5t-22.5 58.5zM125 55q0 72 84 72q59 0 93 -44t34 -126q0 -80 -36 -147.5t-105 -135.5q-2 -2 -7 -2q-6 0 -10 6.5t0 10.5q100 102 101 241q0 53 -21 84 q-14 -31 -59 -30q-35 0 -54.5 19.5t-19.5 51.5z" />
<glyph unicode="&#x3c;" horiz-adv-x="833" d="M63 389q0 31 11 35l684 301q6 4 10 -5t4 -26q0 -39 -14 -47l-602 -258l602 -258q14 -6 14 -47q0 -39 -14 -33l-684 303q-10 6 -11 35z" />
<glyph unicode="=" horiz-adv-x="958" d="M59 248q0 12 2 23.5t7 11.5h821q4 0 7 -11.5t3 -25.5t-3 -26.5t-7 -12.5h-819q-4 0 -7.5 13t-3.5 28zM59 535q0 12 2 23t7 11h821q4 0 7 -11t3 -26q0 -14 -3 -26t-7 -12h-819q-4 0 -7.5 13t-3.5 28z" />
<glyph unicode="&#x3e;" horiz-adv-x="833" d="M61 82q0 16 4.5 30.5t10.5 16.5l602 258l-602 258q-6 2 -10.5 16.5t-4.5 30.5t4.5 26.5t10.5 6.5l684 -303q10 -4 10 -35q0 -29 -10 -35l-684 -301q-6 -2 -10.5 7.5t-4.5 23.5z" />
<glyph unicode="?" horiz-adv-x="669" d="M94 1143q0 55 69.5 96t166.5 41q117 0 192.5 -63.5t75.5 -182.5q0 -86 -36 -142t-109 -130q-74 -74 -102.5 -129t-28.5 -125q0 -47 12 -113q2 -6 -9.5 -8t-13.5 4q-23 53 -38 126t-15 118q0 63 26.5 105t80.5 94q57 55 86.5 102t29.5 123q0 88 -45 142t-114 54 q-54 0 -72.5 -26.5t-24.5 -71.5q-8 -37 -22.5 -57.5t-46.5 -20.5q-29 0 -45.5 19.5t-16.5 44.5zM217 57q0 35 22.5 55.5t59.5 20.5q39 0 59.5 -20.5t20.5 -55.5q0 -37 -20.5 -58.5t-59.5 -21.5q-37 0 -59.5 21.5t-22.5 58.5z" />
<glyph unicode="@" horiz-adv-x="1468" d="M156 354q0 184 92 334t243.5 234t319.5 84q147 0 262 -62.5t177.5 -169t62.5 -233.5q0 -113 -49.5 -214.5t-132 -163t-175.5 -61.5q-55 0 -81.5 33t-26.5 92q0 14 4 52l25 129q-72 -139 -162 -224.5t-168 -85.5q-45 0 -74 30t-29 91q0 25 2 37q16 111 84 220.5t157 179 t169 69.5q61 0 94 -39q23 23 29 53q4 4 16 4q25 0 21 -6l-84 -458q-8 -49 -8 -66q0 -37 16 -55.5t59 -18.5q59 0 117 42t94.5 120t36.5 182q0 129 -66.5 238.5t-181 173t-254.5 63.5q-154 0 -270.5 -75.5t-177.5 -202.5t-61 -274q0 -160 71.5 -282t199.5 -189.5t294 -67.5 q98 0 170.5 19.5t169.5 72.5h2q4 0 9 -7t1 -9q-176 -137 -416 -138q-164 0 -296 67t-208.5 190.5t-76.5 291.5zM528 250q0 -84 62 -84q57 0 122.5 57.5t118 147.5t72.5 180q4 20 4 33q0 41 -24.5 67.5t-71.5 26.5q-51 0 -110.5 -50t-105.5 -134t-60 -181q-6 -37 -7 -63z" />
<glyph unicode="A" horiz-adv-x="1429" d="M-6 12.5q0 12.5 10 12.5q57 0 97 20.5t76 73.5t77 151l428 1030q4 6 13.5 6.5t11.5 -6.5l475 -1019q47 -104 84 -158.5t72.5 -76t82.5 -21.5q9 0 9 -12.5t-9 -12.5q-37 0 -118 4q-78 4 -115 4q-43 0 -113 -4q-66 -4 -98 -4q-8 0 -8 12.5t8 12.5q84 0 121 15t37 52 q0 29 -23 80l-244 522h-391l-184 -442q-29 -70 -29 -115q0 -59 49 -85.5t154 -26.5q10 0 10 -12.5t-10 -12.5q-37 0 -107 4q-78 4 -135 4q-51 0 -121 -4q-61 -4 -100 -4q-10 0 -10 12.5zM494 733h358l-190 406z" />
<glyph unicode="B" horiz-adv-x="1124" d="M86 12.5q0 12.5 4 12.5q82 0 120 10t52 39.5t14 91.5v948q0 61 -13 90t-51 40t-118 11q-6 0 -6 12.5t6 12.5l99 -2q82 -4 135 -4q37 0 69.5 2t57.5 4q63 6 112 6q170 0 251 -76.5t81 -195.5q0 -100 -63.5 -175t-169.5 -116q159 -10 257.5 -106.5t98.5 -237.5 q0 -111 -51 -199t-141.5 -138t-198.5 -50q-70 0 -148 6q-29 2 -67.5 4t-87.5 2l-135 -2q-37 -2 -103 -2q-4 0 -4 12.5zM383 166q0 -55 17.5 -85t64.5 -43t137 -13q152 0 226.5 78.5t74.5 224.5q0 156 -95 253t-257 99h-39q-60 0 -129 -4v-510zM383 721l96 -3q162 0 235.5 77 t73.5 204q0 115 -64.5 188t-203.5 73q-57 0 -83.5 -8.5t-40 -39t-13.5 -102.5v-389z" />
<glyph unicode="C" horiz-adv-x="1370" d="M100 653q0 186 104.5 335t276.5 232t365 83q100 0 201.5 -20.5t162.5 -55.5q16 -10 21.5 -19.5t7.5 -29.5l23 -215q0 -6 -10.5 -7.5t-12.5 5.5q-74 299 -473 299q-160 0 -282 -69t-189.5 -194t-67.5 -288q0 -193 84 -356t223.5 -258t301.5 -95q152 0 261 80t160 244 q0 6 9 6q6 0 11 -2t5 -6l-29 -220q-4 -25 -9 -32t-23 -15q-182 -80 -392 -80q-246 0 -409.5 99.5t-241.5 254t-78 324.5z" />
<glyph unicode="D" horiz-adv-x="1409" d="M70 12.5q0 12.5 4 12.5q80 0 117.5 10t52 39.5t14.5 91.5v948q0 61 -13.5 90t-51 40t-117.5 11q-4 0 -4 12.5t4 12.5l100 -2q86 -4 135 -4q72 0 146 6q90 4 123 4q215 0 380.5 -82t257 -223t91.5 -317q0 -199 -95.5 -351.5t-255 -235.5t-350.5 -83q-59 0 -133 6 q-29 2 -71 4t-93 2l-135 -2q-37 -2 -102 -2q-4 0 -4 12.5zM367 188q0 -61 18 -98t65.5 -54.5t137.5 -17.5q172 0 305 70t208 205t75 323q0 180 -71 325.5t-203 230.5t-304 85q-90 0 -138 -10t-70.5 -41.5t-22.5 -95.5v-922z" />
<glyph unicode="E" horiz-adv-x="1091" d="M86 12.5q0 12.5 4 12.5q80 0 118 10t51 39.5t13 91.5v948q0 61 -13 90t-51 40t-118 11q-4 0 -4 12.5t4 12.5h811q18 0 19 -18l4 -248q0 -6 -11.5 -6t-11.5 6q0 104 -55 165.5t-146 61.5h-141q-78 0 -114.5 -10t-50 -39t-13.5 -90v-416h270q94 0 131 32t37 109q0 4 12.5 4 t12.5 -4l-2 -161q0 -59 2 -88l2 -97q0 -4 -12.5 -4t-12.5 4q0 92 -39 129t-137 37h-264v-473q0 -59 13.5 -87t49 -38t115.5 -10h189q82 0 140 71.5t75 188.5q0 6 12 5t12 -7q-18 -129 -18 -266q0 -16 -7.5 -23.5t-25.5 -7.5h-846q-4 0 -4 12.5z" />
<glyph unicode="F" horiz-adv-x="1036" d="M86 12.5q0 12.5 4 12.5q80 0 118 10t51 39.5t13 91.5v948q0 61 -13 90t-51 40t-118 11q-4 0 -4 12.5t4 12.5h811q18 0 19 -18l4 -248q0 -6 -11.5 -6t-11.5 6q0 104 -55 165.5t-146 61.5h-141q-76 0 -112.5 -10t-51 -37t-14.5 -82v-450h223q104 0 147.5 31.5t43.5 109.5 q0 4 12 4t12 -4l-2 -162q0 -59 2 -88l2 -96q0 -4 -12 -4t-12 4q0 92 -44 129t-157 37h-215v-449q0 -66 18.5 -95.5t70.5 -41.5t167 -12q6 0 6 -12.5t-6 -12.5q-84 0 -131 2l-178 2l-135 -2q-37 -2 -103 -2q-4 0 -4 12.5z" />
<glyph unicode="G" horiz-adv-x="1460" d="M100 625q0 199 101.5 352t278.5 239.5t401 86.5q100 0 189 -20.5t149 -57.5q14 -10 17 -17.5t4 -16.5t1 -13l25 -215q0 -6 -11.5 -7.5t-13.5 5.5q-39 145 -153.5 222t-290.5 77q-270 0 -420 -149.5t-150 -414.5q0 -197 84 -353.5t232.5 -244.5t333.5 -88q111 0 171 18.5 t87.5 72t27.5 157.5q0 106 -14 148.5t-61.5 56.5t-163.5 14q-12 0 -13 17q0 6 3.5 11t7.5 5q158 -10 254 -10q92 0 196 6q4 0 7 -5t3 -9q0 -14 -10 -15h-12q-44 0 -64 -13q-22 -15 -28 -62.5t-6 -163.5q0 -92 7 -131t7 -50q0 -12 -4 -16t-19 -8q-240 -57 -426 -58 q-223 0 -388 86t-252 233.5t-87 330.5z" />
<glyph unicode="H" horiz-adv-x="1552" d="M70 12.5q0 12.5 4 12.5q80 0 117.5 10t52 39.5t14.5 91.5v948q0 61 -13.5 90t-51 40t-117.5 11q-4 0 -4 12.5t4 12.5l100 -2q86 -4 135 -4q55 0 142 4l96 2q4 0 4 -12.5t-4 -12.5q-80 0 -118 -12t-51 -42t-13 -91v-424h817v424q0 61 -13.5 91t-51.5 42t-118 12 q-6 0 -6 12.5t6 12.5l97 -2q86 -4 141 -4q51 0 137 4l99 2q6 0 6 -12.5t-6 -12.5q-80 0 -118 -11t-52.5 -39.5t-14.5 -90.5v-948q0 -61 14.5 -91t52.5 -40t118 -10q6 0 6 -12.5t-6 -12.5q-63 0 -99 2l-137 2l-141 -2q-35 -2 -97 -2q-6 0 -6 12.5t6 12.5q82 0 119 10 t50.5 38.5t13.5 92.5v481h-817v-481q0 -63 13 -92t50 -39t119 -10q4 0 4 -12.5t-4 -12.5q-61 0 -98 2l-140 2l-135 -2q-37 -2 -102 -2q-4 0 -4 12.5z" />
<glyph unicode="I" horiz-adv-x="675" d="M92 12.5q0 12.5 6 12.5q80 0 118 10t52.5 39.5t14.5 91.5v948q0 61 -14.5 90t-52.5 40t-118 11q-6 0 -6 12.5t6 12.5l101 -2q86 -4 137 -4q57 0 143 4l96 2q4 0 4.5 -12.5t-4.5 -12.5q-80 0 -117.5 -12t-51 -42t-13.5 -91v-944q0 -64 13.5 -92.5t50.5 -38.5t118 -10 q4 0 4.5 -12.5t-4.5 -12.5q-61 0 -96 2l-143 2l-137 -2q-37 -2 -101 -2q-6 0 -6 12.5z" />
<glyph unicode="J" horiz-adv-x="651" d="M-88 -422q0 27 15.5 43.5t43.5 16.5q31 0 47.5 -12.5t36.5 -37.5q16 -25 32.5 -37t45.5 -12q80 0 121 89t41 284v1202q0 61 -15.5 90t-58.5 40t-135 11q-4 0 -4 12.5t4 12.5l117 -2q94 -4 145 -4t129 4l86 2q4 0 4 -12.5t-4 -12.5q-70 0 -102.5 -12t-43.5 -42t-11 -91 v-1180q0 -197 -89.5 -313.5t-261.5 -116.5q-68 0 -105.5 21.5t-37.5 56.5z" />
<glyph unicode="K" horiz-adv-x="1329" d="M70 12.5q0 12.5 4 12.5q80 0 117.5 10t52 39.5t14.5 91.5v948q0 61 -13.5 90t-51 40t-117.5 11q-4 0 -4 12.5t4 12.5l100 -2q86 -4 135 -4q55 0 142 4l96 2q4 0 4 -12.5t-4 -12.5q-80 0 -118 -12t-51 -42t-13 -91v-432l450 448q70 70 70 97q0 18 -28 25t-91 7 q-4 0 -4 12.5t4 12.5l86 -2q78 -4 145 -4q63 0 134 4l71 2q6 0 6 -12.5t-6 -12.5q-84 0 -173 -31.5t-167 -109.5l-348 -340l293 -368q156 -195 237.5 -275t124.5 -93t129 -13q7 0 7 -12.5t-7 -12.5h-229q-72 0 -86 8t-74.5 94t-146.5 195l-326 403l-71 -69v-465 q0 -63 13 -92t50 -39t119 -10q4 0 4 -12.5t-4 -12.5q-61 0 -98 2l-140 2l-135 -2q-37 -2 -102 -2q-4 0 -4 12.5z" />
<glyph unicode="L" horiz-adv-x="1085" d="M70 12.5q0 12.5 4 12.5q80 0 117.5 10t51 39.5t13.5 91.5v948q0 61 -13.5 90t-51 40t-117.5 11q-4 0 -4 12.5t4 12.5l100 -2q86 -4 135 -4q55 0 142 4l96 2q4 0 4 -12.5t-4 -12.5q-80 0 -118 -11t-51 -40.5t-13 -91.5v-938q0 -59 13 -87t49 -38t114 -10h262 q203 0 239 260q0 6 11.5 5t11.5 -7q-18 -162 -18 -266q0 -16 -6.5 -23.5t-24.5 -7.5h-942q-4 0 -4 12.5z" />
<glyph unicode="M" horiz-adv-x="1699" d="M82 12.5q0 12.5 4 12.5q86 0 122 42t38 146l20 971q-62 71 -163 71h-3q-4 0 -4 12.5t4 12.5l70 -2q20 -2 53 -2t55.5 2t34.5 2q29 0 45.5 -19.5t49.5 -86.5l460 -996l459 1051q10 23 27.5 37t34.5 14q8 0 26.5 -2t50.5 -2l93 2q20 2 63 2q4 0 4 -12.5t-4 -12.5 q-106 1 -150 -27q-42 -26 -42 -100v-10l38 -952q2 -63 15.5 -92t51.5 -39t118 -10q6 0 6 -12.5t-6 -12.5q-63 0 -101 2l-137 2l-127 -2q-31 -2 -86 -2q-4 0 -4 12.5t4 12.5q72 0 106 11q32 12 44 40q9 21 9 60q0 14 -1 30l-35 952l-479 -1104q-4 -8 -17 -8q-10 0 -18 8 l-500 1096l-2 4l-16 -901v-11q0 -97 35 -136q37 -41 137 -41q4 0 4 -12.5t-4 -12.5q-57 0 -88 2l-111 2l-100 -2q-27 -2 -80 -2q-4 0 -4 12.5z" />
<glyph unicode="N" horiz-adv-x="1484" d="M84 12.5q0 12.5 4 12.5q88 0 121 40.5t33 147.5v981q-72 61 -148 61q-6 0 -6 12.5t6 12.5l74 -2q23 -2 63 -2q35 0 57.5 2t35.5 2q14 0 23 -7t22 -30q23 -37 49 -69l809 -1006v897q0 104 -33 147t-119 43q-4 0 -4 12.5t4 12.5l78 -2q61 -4 98 -4q35 0 101 4l80 2 q6 0 6 -12.5t-6 -12.5q-88 0 -124 -43t-36 -147v-1088q0 -4 -10.5 -6t-14.5 2l-925 1139l-35 39v-938q0 -104 34.5 -146t120.5 -42q6 0 6.5 -12.5t-6.5 -12.5q-49 0 -75 2l-99 2l-100 -2q-27 -2 -80 -2q-4 0 -4 12.5z" />
<glyph unicode="O" horiz-adv-x="1568" d="M100 639q0 211 106.5 361.5t273.5 226.5t341 76q195 0 342.5 -91.5t226 -241t78.5 -317.5q0 -186 -98 -341.5t-263 -246t-357 -90.5q-191 0 -339.5 89.5t-229.5 242t-81 332.5zM231 709q0 -190 75 -349t210 -251.5t307 -92.5q146 0 262.5 68t184 199t67.5 313 q0 193 -74.5 343.5t-211 234t-316.5 83.5q-238 0 -371 -147t-133 -401z" />
<glyph unicode="P" horiz-adv-x="1105" d="M86 12.5q0 12.5 4 12.5q80 0 118 10t51 39.5t13 91.5v948q0 61 -13 90t-51 40t-118 11q-4 0 -4 12.5t4 12.5l100 -2q86 -4 136 -4q49 0 112 6q160 6 174 6q180 0 293 -83t113 -253q0 -137 -67.5 -230t-171 -138t-214.5 -45q-61 0 -100 10q-6 0 -6 10q0 6 3 12t7 4 q33 -8 74 -8q145 0 246.5 88t101.5 256q0 109 -43 188t-118 121t-165 42q-84 0 -118.5 -8.5t-50 -38t-15.5 -103.5v-936q0 -65 18.5 -95t70.5 -42t167 -12q6 0 6 -12.5t-6 -12.5q-84 0 -131 2l-178 2l-135 -2q-37 -2 -103 -2q-4 0 -4 12.5z" />
<glyph unicode="Q" horiz-adv-x="1568" d="M100 639q0 211 106.5 361.5t273.5 226.5t341 76q195 0 342.5 -91.5t226 -241t78.5 -317.5q0 -154 -68.5 -289t-188 -230t-269.5 -134q88 -143 233.5 -234.5t276.5 -91.5q47 0 74 7h2q4 0 7 -9.5t-1 -11.5q-109 -25 -176 -25q-139 0 -293 90.5t-264 251.5q-16 -2 -51 -2 q-190 0 -339 89.5t-230 242t-81 332.5zM231 709q0 -191 75 -349.5t210 -251t307 -92.5q145 0 262 68t184.5 199t67.5 313q0 193 -74.5 343.5t-211 234t-316.5 83.5q-238 0 -371 -147t-133 -401z" />
<glyph unicode="R" horiz-adv-x="1366" d="M86 12.5q0 12.5 4 12.5q82 0 120 10t52 39.5t14 91.5v948q0 61 -13 90t-51 40t-118 11q-6 0 -6 12.5t6 12.5l99 -2q82 -4 135 -4q37 0 69.5 2t57.5 4q63 6 112 6q162 0 248 -67.5t86 -188.5q0 -98 -57.5 -185t-151.5 -138q178 -262 297 -407.5t212 -210t183 -64.5 q7 0 7 -12.5t-7 -12.5h-237q-53 0 -198.5 177t-352.5 491q-61 -16 -125 -17q-35 0 -88 4v-489q0 -63 13.5 -92t50 -39t118.5 -10q6 0 6 -12.5t-6 -12.5q-61 0 -98 2l-139 2l-135 -2q-37 -2 -103 -2q-4 0 -4 12.5zM383 705q78 -9 123 -9q150 0 215 62.5t65 202.5 q0 156 -72.5 227.5t-193.5 71.5q-57 0 -83.5 -8.5t-40 -39t-13.5 -102.5v-405z" />
<glyph unicode="S" horiz-adv-x="993" d="M137 350v2q0 8 10.5 9t12.5 -7q20 -141 108 -245.5t242 -104.5q109 0 183.5 59.5t74.5 186.5q0 92 -41 158.5t-99.5 110.5t-158.5 104q-98 57 -154.5 100t-96.5 107.5t-40 154.5q0 102 52.5 174t136.5 108t180 36q113 0 233 -50q31 -12 31 -34l18 -218q0 -8 -11 -8t-13 8 q-8 106 -80 190.5t-205 84.5q-123 0 -180 -71.5t-57 -172.5q0 -82 38.5 -141.5t95 -99t156.5 -99.5q106 -63 165 -105t101 -107.5t42 -157.5q0 -96 -47.5 -175t-140.5 -125.5t-228 -46.5q-72 0 -136.5 15.5t-142.5 54.5q-10 6 -13 14.5t-5 24.5z" />
<glyph unicode="T" horiz-adv-x="1294" d="M76 965q8 55 18 177t10 183q0 10 12.5 10t12.5 -10q0 -45 109 -45q176 -6 411 -6q121 0 256 4l139 2q74 0 109 10t45 41q2 8 12.5 8t10.5 -8q-6 -57 -12.5 -175t-6.5 -191q0 -4 -12 -4t-12 4q0 109 -22.5 168t-76 85.5t-149.5 26.5q-106 0 -149.5 -7t-58.5 -33.5 t-15 -94.5v-944q0 -63 14 -92t57 -39t135 -10q4 0 4.5 -12.5t-4.5 -12.5q-68 0 -106 2l-158 2l-149 -2q-41 -2 -113 -2q-4 0 -4 12.5t4 12.5q92 0 135 10t58.5 39.5t15.5 91.5v948q0 68 -16.5 93.5t-58.5 31.5t-152 6q-129 0 -188.5 -61.5t-80.5 -218.5q0 -4 -12 -4t-12 4z " />
<glyph unicode="U" horiz-adv-x="1564" d="M47 1267.5q0 12.5 6 12.5l99 -2q82 -4 135 -4q57 0 143 4l94 2q6 0 6 -12.5t-6 -12.5q-80 0 -117.5 -12t-51 -42t-13.5 -91v-657q0 -207 103.5 -316.5t283.5 -109.5q123 0 231.5 47t235.5 159v877q0 61 -13.5 91t-51 42t-117.5 12q-6 0 -6 12.5t6 12.5l96 -2 q86 -4 141 -4q51 0 138 4l98 2q6 0 6 -12.5t-6 -12.5q-80 0 -118 -11t-52 -39.5t-14 -90.5v-948q0 -61 14 -91t52 -40t118 -10q6 0 6 -12.5t-6 -12.5l-158 2l-96 -2q-25 0 -31 6t-6 33v164q-133 -121 -254 -174.5t-262 -53.5q-129 0 -229.5 49.5t-157.5 141.5t-57 215v733 q0 61 -13.5 90t-51.5 40t-118 11q-6 0 -6 12.5z" />
<glyph unicode="V" horiz-adv-x="1366" d="M-10 1267.5q0 12.5 6 12.5l88 -2q57 -4 86 -4q59 0 141 4l88 2q6 0 6.5 -12.5t-6.5 -12.5q-63 0 -95 -14t-32 -49q0 -25 19 -62l446 -985l396 981q14 35 14 60q0 37 -38 53t-124 16q-6 0 -6 12.5t6 12.5l82 -2q70 -4 123 -4q43 0 96 4l86 2q6 0 6 -12.5t-6 -12.5 q-70 0 -116 -29.5t-80 -111.5l-451 -1112q-2 -8 -23 -8q-16 0 -22 8l-506 1108q-35 80 -75 112.5t-103 32.5q-6 0 -6 12.5z" />
<glyph unicode="W" horiz-adv-x="1892" d="M-10 1267.5q0 12.5 6 12.5l88 -2q57 -4 86 -4q98 0 192 4q33 2 84 2q4 0 4.5 -12.5t-4.5 -12.5q-170 0 -170 -84q0 -23 9 -41l340 -946l321 1096q4 6 23 6q23 0 22 -6l391 -1098l279 944q6 18 6 35q0 94 -203 94q-6 0 -6 12.5t6 12.5l101 -2q86 -4 153 -4q39 0 97 4l83 2 q7 0 7 -12.5t-7 -12.5q-72 0 -122 -30.5t-72 -110.5l-330 -1112q0 -8 -22 -8q-20 0 -23 8l-389 1098l-324 -1098q-2 -8 -22 -8q-18 0 -25 8l-395 1108q-27 80 -70 112.5t-108 32.5q-6 0 -6 12.5z" />
<glyph unicode="X" horiz-adv-x="1337" d="M35 12.5q0 12.5 6 12.5q70 0 135.5 42t124.5 121l309 424l-329 498q-53 80 -106.5 112.5t-127.5 32.5q-4 0 -4 12.5t4 12.5q25 0 78 -4l74 -2q66 0 163 4l107 2q6 0 6 -12.5t-6 -12.5q-61 0 -88 -9t-27 -29q0 -14 19 -43l311 -467l260 366q49 72 49 113q0 69 -116 69h-3 q-6 0 -6 12.5t6 12.5l93 -2q78 -4 137 -4q35 0 84 4l74 2q6 0 6 -12.5t-6 -12.5q-139 0 -275 -184l-287 -391l340 -510q53 -82 109.5 -113.5t146.5 -31.5q4 0 4 -12.5t-4 -12.5q-53 0 -84 2l-108 2l-154 -2q-37 -2 -100 -2q-4 0 -4 12.5t4 12.5q61 0 88 8t27 28q0 16 -19 43 l-317 482l-285 -398q-41 -59 -41 -96q0 -67 121 -67h4q6 0 6 -12.5t-6 -12.5q-61 0 -92 2l-137 2l-84 -2q-23 -2 -74 -2q-6 0 -6 12.5z" />
<glyph unicode="Y" horiz-adv-x="1243" d="M-10 1267.5q0 12.5 6 12.5l76 -2q49 -4 73 -4q68 0 166 4l107 2q4 0 4 -12.5t-4 -12.5q-61 0 -89 -9t-28 -29q0 -12 21 -43l344 -494l262 397q45 74 45 113q0 65 -108 65h-3q-4 0 -4 12.5t4 12.5l92 -2q78 -4 138 -4q35 0 84 4l75 2q4 0 4 -12.5t-4 -12.5 q-76 0 -147.5 -48t-128.5 -136l-289 -438v-467q0 -63 12.5 -92t49 -39t118.5 -10q6 0 6 -12.5t-6 -12.5q-61 0 -96 2l-139 2l-139 -2q-37 -2 -99 -2q-6 0 -6 12.5t6 12.5q80 0 118 10t52.5 39.5t14.5 91.5v436l-351 508q-53 80 -104 112.5t-127 32.5q-6 0 -6 12.5z" />
<glyph unicode="Z" horiz-adv-x="1214" d="M104 1032l82 309q0 2 9 2q20 0 16 -6q-2 -6 -2 -16q0 -25 23.5 -33t95.5 -8h747q10 0 15.5 -10t-0.5 -17l-822 -1198l-6 -12q0 -4 17 -4h548q143 0 211 51t88 176q2 4 12.5 4t10.5 -4l-29 -250q0 -6 -5 -13t-13 -7q-305 4 -979 4q-10 0 -14.5 9t2.5 18l831 1202 q6 10 5 13t-15 3q-401 0 -536.5 -10t-181.5 -49t-85 -158q0 -4 -8 -4q-6 0 -12.5 3t-4.5 5z" />
<glyph unicode="[" horiz-adv-x="561" d="M193 -217v1681q0 14 3 17.5t15 3.5h272q6 0 6 -12.5t-6 -12.5q-84 0 -124 -12t-54 -42t-14 -91v-1385q0 -61 14 -90.5t54 -42t124 -12.5q6 0 6 -12.5t-6 -12.5h-272q-12 0 -15 4.5t-3 18.5z" />
<glyph unicode="\" horiz-adv-x="694" d="M53 1470q-4 10 32 22.5t40 2.5l516 -1806q4 -8 -33 -19.5t-41 -3.5z" />
<glyph unicode="]" horiz-adv-x="561" d="M72 -227.5q0 12.5 6 12.5q84 0 124 12.5t54 42t14 90.5v1385q0 61 -14 91t-54 42t-124 12q-6 0 -6 12.5t6 12.5h272q12 0 15.5 -3t3.5 -18v-1681q0 -14 -3.5 -18.5t-15.5 -4.5h-272q-6 0 -6 12.5z" />
<glyph unicode="^" horiz-adv-x="802" d="M119 778l260 510q2 10 22 10t23 -10l258 -510v-2q0 -4 -8 -8t-10 0l-263 373l-262 -373q-2 -2 -6 -2t-10 5t-4 7z" />
<glyph unicode="_" horiz-adv-x="815" d="M59 -113q0 14 3.5 25.5t5.5 11.5h677q4 0 7.5 -12t3.5 -27q0 -14 -3 -26.5t-8 -12.5h-675q-4 0 -7.5 13.5t-3.5 27.5z" />
<glyph unicode="`" horiz-adv-x="436" d="M96 1489q-4 10 21.5 7t54.5 -12t29 -18l114 -491q4 -4 -7 -7t-13 3z" />
<glyph unicode="a" horiz-adv-x="1003" d="M76 328q0 147 69.5 258.5t175 171t205.5 59.5q55 0 107.5 -17.5t93.5 -45.5q33 18 49 53q2 2 10.5 1t8.5 -5v-586q0 -70 17 -101.5t58 -31.5q20 0 50 9t65 22h4q8 0 10 -9.5t-6 -11.5l-227 -108l-8 -2q-18 0 -38 52t-20 126q-74 -82 -154.5 -131t-176.5 -49 q-125 0 -209 91t-84 255zM193 385q0 -154 63 -250t172 -96q129 0 272 156v409q0 74 -69.5 124t-155.5 50q-125 0 -203.5 -109.5t-78.5 -283.5z" />
<glyph unicode="b" horiz-adv-x="1040" d="M19.5 1349.5q-3.5 10.5 5.5 12.5l245 121l11 2q4 0 9 -4t5 -11v-841q76 84 159 136t183 52q88 0 161.5 -43t119 -128t45.5 -208q0 -147 -64.5 -252.5t-169 -159t-219.5 -53.5q-156 0 -274 88l-150 -69h-4q-8 0 -10 7t4 13q70 49 96.5 86t26.5 113v1016q0 76 -15.5 108.5 t-52.5 32.5q-35 0 -98 -29h-4q-6 0 -9.5 10.5zM295 252q0 -82 46 -136.5t110.5 -79t126.5 -24.5q127 0 198.5 93.5t71.5 267.5q0 184 -76 285.5t-197 101.5q-76 0 -143 -44t-137 -120v-344z" />
<glyph unicode="c" horiz-adv-x="833" d="M76 379q0 131 64.5 228.5t166 149.5t207.5 52q88 0 161 -35t73 -82q0 -25 -16.5 -42t-43.5 -17q-47 0 -82 57q-27 39 -62.5 58.5t-94.5 19.5q-123 0 -189.5 -89t-66.5 -241q0 -172 88 -285.5t262 -113.5q131 0 211 72h4q6 0 11 -6.5t-1 -10.5q-70 -61 -141.5 -90 t-155.5 -29q-131 0 -220 58.5t-132 150.5t-43 195z" />
<glyph unicode="d" horiz-adv-x="1050" d="M76 362q0 143 71.5 247t180 156t215.5 52q109 0 205 -63v473q0 76 -15.5 108.5t-54.5 32.5q-16 0 -42 -9t-56 -22h-5q-8 0 -10 9.5t4 13.5l250 123q4 2 10 2q4 0 9.5 -4t5.5 -11v-1249q0 -76 17.5 -108.5t60.5 -32.5q63 0 112 31l4 2q8 0 11.5 -10.5t-5.5 -14.5 l-210 -100q-8 -4 -17 -4q-29 0 -48 46t-21 130q-78 -84 -163 -135.5t-190 -51.5q-86 0 -158.5 49.5t-116.5 138.5t-44 201zM188 422q0 -113 37 -199t100.5 -134t141.5 -48t145.5 40t135.5 112v434q-53 72 -116 111.5t-151 39.5q-133 0 -213 -94t-80 -262z" />
<glyph unicode="e" horiz-adv-x="829" d="M76 369q0 123 57 223t156.5 158.5t220.5 58.5q106 0 165.5 -54.5t59.5 -148.5q0 -25 -5 -35t-19 -10l-508 -2q-10 -57 -10 -113q0 -180 87 -292.5t238 -112.5q121 0 213 70h2q6 0 11.5 -7.5t0.5 -13.5q-135 -115 -292 -115q-119 0 -205 55.5t-129 144.5t-43 194zM209 582 l403 10q0 84 -47 130t-125 46q-90 0 -148.5 -48t-82.5 -138z" />
<glyph unicode="f" horiz-adv-x="624" d="M53 751.5q0 12.5 6 12.5q88 0 119 19.5t33 72.5q10 332 119.5 481.5t322.5 149.5q103 0 170.5 -32t67.5 -73q0 -27 -18.5 -42t-45.5 -15q-20 0 -36.5 9t-36.5 36q-35 43 -75 63.5t-95 20.5q-125 0 -199 -138t-74 -417v-133q96 2 273 20q6 0 10 -13t4 -34q0 -16 -6 -32.5 t-14 -14.5q-113 27 -267 31v-557q0 -63 14.5 -92t56.5 -39t136 -10q4 0 4 -12.5t-4 -12.5l-131 2q-41 2 -127 2l-113 -2q-29 -2 -79 -2q-6 0 -6.5 12.5t6.5 12.5q63 0 92.5 11t41 39.5t11.5 90.5v461q0 55 -9 76.5t-39 28.5t-106 7q-6 0 -6 12.5z" />
<glyph unicode="g" horiz-adv-x="952" d="M76 328q0 147 69.5 258.5t175 171t205.5 59.5q55 0 107.5 -17.5t93.5 -45.5q33 18 49 53q2 2 10.5 1t8.5 -5v-946q0 -197 -106.5 -314.5t-295.5 -117.5q-121 0 -195.5 45t-74.5 108q0 29 15.5 43t35.5 14q23 0 39 -13t37 -42q43 -53 88 -82.5t131 -29.5q106 0 168.5 71.5 t62.5 267.5v355q-74 -82 -154.5 -131t-176.5 -49q-125 0 -209 91t-84 255zM193 385q0 -154 63 -250t172 -96q129 0 272 156v409q0 74 -69.5 124t-155.5 50q-125 0 -203.5 -109.5t-78.5 -283.5z" />
<glyph unicode="h" horiz-adv-x="1015" d="M9 1349.5q-3 10.5 5 12.5l252 123h4q14 0 15 -15v-837q82 94 158.5 136t158.5 42q113 0 173.5 -62.5t60.5 -185.5v-397q0 -61 10 -91t37.5 -40t87.5 -10q4 0 4 -12.5t-4 -12.5q-47 0 -76 2l-107 2l-108 -2q-27 -2 -74 -2q-6 0 -6 12.5t6 12.5q59 0 86 10t37 39.5t10 91.5 v334q0 125 -47 184t-145 59q-66 0 -135.5 -37.5t-126.5 -103.5v-436q0 -61 10 -91t37.5 -40t87.5 -10q4 0 4 -12.5t-4 -12.5q-47 0 -76 2l-106 2l-109 -2q-27 -2 -74 -2q-6 0 -6 12.5t6 12.5q59 0 86 10t37 39.5t10 91.5v1063q0 76 -14 108.5t-51 32.5q-35 0 -98 -31h-5 q-8 0 -11 10.5z" />
<glyph unicode="i" horiz-adv-x="563" d="M72 674q-4 10 4 14l254 119l8 2q4 0 9 -4t5 -10q0 -12 -2 -81t-2 -159v-389q0 -61 9.5 -91t37 -40t86.5 -10q6 0 6 -12.5t-6 -12.5q-47 0 -73 2l-109 2l-106 -2q-29 -2 -76 -2q-4 0 -4 12.5t4 12.5q59 0 86.5 10t38 39.5t10.5 91.5v387q0 76 -15.5 108.5t-52.5 32.5 q-39 0 -98 -30h-2q-8 0 -12 10zM201 1135q0 37 21.5 57t60.5 20q37 0 57 -20.5t20 -56.5q0 -37 -20.5 -57.5t-56.5 -20.5q-39 0 -60.5 20.5t-21.5 57.5z" />
<glyph unicode="j" horiz-adv-x="522" d="M47 -555q100 43 141 137t41 273v698q0 76 -14 108.5t-51 32.5q-39 0 -98 -30h-3q-10 0 -13 10t5 14l254 119l6 2q14 0 15 -14q0 -13 -2 -81.5t-2 -158.5v-653q0 -139 -25 -228.5t-83 -149t-161 -102.5q-4 -2 -9 9.5t-1 13.5zM178 1135q0 37 21.5 57t60.5 20 q37 0 57.5 -20.5t20.5 -56.5q0 -37 -20.5 -57.5t-57.5 -20.5q-39 0 -60.5 20.5t-21.5 57.5z" />
<glyph unicode="k" horiz-adv-x="1005" d="M9 1349.5q-3 10.5 5 12.5l246 121l10 2q4 0 9.5 -4t5.5 -11v-1071l297 232q69 50 69 87q0 48 -129 48q-6 0 -6 12.5t6 12.5q55 0 84 -3l146 -2l135 2q25 2 71 3q4 0 4.5 -12.5t-4.5 -12.5q-154 0 -340 -141l-131 -101l256 -358q98 -141 240 -141q4 0 4 -12.5t-4 -12.5 q-47 0 -76 2l-106 2l-144 -2q-33 -2 -88 -2q-4 0 -4 12.5t4 12.5q57 0 83 9t26 29q0 18 -19 46l-256 354l-118 -90v-207q0 -61 10 -91t37.5 -40t87.5 -10q4 0 4 -12.5t-4 -12.5q-47 0 -76 2l-106 2l-109 -2q-27 -2 -74 -2q-6 0 -6 12.5t6 12.5q59 0 86 10t37 39.5t10 91.5 v1063q0 76 -14 108.5t-51 32.5q-35 0 -98 -31h-5q-8 0 -11 10.5z" />
<glyph unicode="l" horiz-adv-x="524" d="M38 1349.5q-3 10.5 5 12.5l252 121q4 2 10 2q4 0 9 -4t5 -11v-1304q0 -61 9.5 -90t37 -40t87.5 -11q6 0 6 -12.5t-6 -12.5q-45 0 -74 2l-111 2l-110 -2q-27 -2 -74 -2q-6 0 -6 12.5t6 12.5q59 0 86 10t37 39.5t10 91.5v1063q0 76 -14.5 108.5t-50.5 32.5q-33 0 -99 -31 h-4q-8 0 -11 10.5z" />
<glyph unicode="m" horiz-adv-x="1556" d="M23.5 687q-3.5 9 5.5 13l227 107q4 2 10 2q16 0 37 -46t21 -118v-8q76 92 149.5 133t153.5 41q92 0 148 -46t71 -136q78 96 153.5 139t155.5 43q109 0 166 -61.5t57 -186.5v-397q0 -61 9.5 -91t37 -40t86.5 -10q7 0 7 -12.5t-7 -12.5q-47 0 -73 2l-109 2l-106 -2 q-29 -2 -76 -2q-4 0 -4 12.5t4 12.5q59 0 87 10t38 39.5t10 91.5v334q0 125 -44 184t-138 59q-63 0 -130 -37.5t-122 -105.5q2 -10 2 -37v-397q0 -61 10 -91t38 -40t87 -10q4 0 4 -12.5t-4 -12.5q-47 0 -76 2l-106 2l-109 -2q-27 -2 -73 -2q-6 0 -6.5 12.5t6.5 12.5 q59 0 85.5 10t37 39.5t10.5 91.5v334q0 125 -44 184t-137 59q-63 0 -128.5 -36.5t-120.5 -104.5v-436q0 -61 9 -91t36.5 -40t87.5 -10q6 0 6 -12.5t-6 -12.5q-47 0 -74 2l-107 2l-108 -2q-27 -2 -74 -2q-6 0 -6 12.5t6 12.5q59 0 86 10t37 39.5t10 91.5v409q0 72 -16 103 t-57 31q-33 0 -115 -31h-4q-8 0 -11.5 9z" />
<glyph unicode="n" horiz-adv-x="1054" d="M23.5 687q-3.5 9 5.5 13l227 107q4 2 10 2q16 0 37 -46t21 -118v-8q82 94 157.5 137t157.5 43q115 0 175 -61.5t60 -186.5v-403q0 -61 9.5 -91t37 -40t87.5 -10q6 0 6 -12.5t-6 -12.5q-47 0 -74 2l-107 2l-108 -2q-27 -2 -74 -2q-6 0 -6 12.5t6 12.5q59 0 86 10t37 39.5 t10 91.5v342q0 125 -47 182.5t-147 57.5q-66 0 -134.5 -38t-125.5 -104v-440q0 -61 9 -91t36.5 -40t87.5 -10q6 0 6 -12.5t-6 -12.5q-47 0 -74 2l-107 2l-108 -2q-27 -2 -74 -2q-6 0 -6 12.5t6 12.5q59 0 86 10t37 39.5t10 91.5v409q0 72 -16 103t-57 31q-33 0 -115 -31h-4 q-8 0 -11.5 9z" />
<glyph unicode="o" horiz-adv-x="976" d="M76 406q0 133 64.5 226t163.5 139t204 46q119 0 208 -59.5t137 -156.5t48 -206q0 -127 -58.5 -223t-156.5 -147.5t-215 -51.5t-207 58.5t-139 158t-49 216.5zM193 465q0 -123 43 -226.5t118.5 -166t173.5 -62.5q119 0 186.5 80t67.5 252q0 123 -43 222.5t-120.5 156.5 t-178.5 57q-117 0 -182 -81t-65 -232z" />
<glyph unicode="p" horiz-adv-x="1044" d="M-3 689q-3 9 5 13l211 101l16 4q31 0 49.5 -46t18.5 -132q92 98 178 143t176 45q84 0 156 -45t114 -130t42 -202q0 -152 -70 -257t-172.5 -157.5t-196.5 -52.5q-68 0 -121 14.5t-106 51.5v-436q0 -61 16.5 -90t59.5 -40.5t135 -11.5q4 0 4 -12t-4 -12q-70 0 -109 2 l-147 2l-111 -2q-27 -2 -73 -2q-6 0 -6.5 12t6.5 12q57 0 84.5 11.5t38 40t10.5 90.5v966q0 76 -16.5 109t-59.5 33q-49 0 -113 -31h-4q-8 0 -11 9zM297 152q59 -68 128 -103t167 -35q72 0 131 44t93 126t34 193q0 176 -77 274.5t-195 98.5q-78 0 -144.5 -40t-136.5 -114 v-444z" />
<glyph unicode="q" horiz-adv-x="991" d="M76 350q0 164 66.5 269.5t167 151.5t208.5 46q129 0 264 -69l131 47l5 2q6 0 8 -9.5t-4 -11.5q-49 -31 -74 -69.5t-25 -102.5v-1001q0 -61 10.5 -90t39 -40.5t85.5 -11.5q5 0 5 -12t-5 -12q-49 0 -75 2l-109 2l-117 -2q-33 -2 -92 -2q-4 0 -4 12t4 12q72 0 106 11.5 t46 40t12 90.5v553q-76 -82 -156.5 -132.5t-181.5 -50.5q-86 0 -157.5 45t-114.5 130t-43 202zM193 414q0 -178 71.5 -280.5t188.5 -102.5q73 0 139.5 42t136.5 117v363q0 102 -75.5 163.5t-202.5 61.5q-258 0 -258 -364z" />
<glyph unicode="r" horiz-adv-x="737" d="M23.5 687q-3.5 9 5.5 13l227 107q4 2 10 2q16 0 37 -46t21 -118v-12q84 102 133 139t94 37t85 -23.5t40 -54.5q0 -20 -15.5 -36.5t-44.5 -16.5q-20 0 -36.5 11t-20.5 13q-39 31 -78 31q-29 0 -60.5 -24.5t-96.5 -104.5v-438q0 -61 14 -91t56 -40t134 -10q6 0 6.5 -12.5 t-6.5 -12.5q-66 0 -104 2l-148 2l-108 -2q-27 -2 -74 -2q-6 0 -6 12.5t6 12.5q59 0 86 10t37 39.5t10 91.5v409q0 72 -16 103t-57 31q-33 0 -115 -31h-4q-8 0 -11.5 9z" />
<glyph unicode="s" horiz-adv-x="692" d="M100 213q0 6 11.5 7t13.5 -5q39 -102 99.5 -150.5t144.5 -48.5q70 0 106.5 31t36.5 90t-25.5 99t-63.5 65t-104 55q-68 33 -107.5 58.5t-67 68.5t-27.5 107q0 109 82 168t192 59q76 0 146 -31q12 -6 15 -10t3 -12q0 -39 -2 -62l-2 -79q0 -4 -12.5 -4.5t-12.5 4.5 q0 66 -67.5 109.5t-143.5 43.5q-55 0 -86.5 -29.5t-31.5 -87.5q0 -75 47 -117t143 -89q70 -35 111 -61.5t69.5 -68.5t28.5 -102q0 -102 -77 -173t-210 -71q-109 0 -192 64q-12 8 -13 25z" />
<glyph unicode="t" horiz-adv-x="694" d="M84 751.5q0 12.5 6 12.5q78 0 126 43t48 108q0 6 17 7q14 0 14 -7v-149q139 2 289 20q6 0 10 -13t4 -34q0 -16 -6 -32.5t-14 -14.5q-123 31 -283 31v-514q0 -170 166 -170q94 0 166 55l4 2q6 0 10 -9t-2 -13q-76 -53 -133 -76t-119 -23q-84 0 -137 38t-53 126v488 q0 55 -7.5 76.5t-28 28.5t-71.5 7q-6 0 -6 12.5z" />
<glyph unicode="u" horiz-adv-x="1003" d="M7 698.5q-3 10.5 5 12.5l215 96l9 2q4 0 10 -4t6 -10v-498q0 -123 43 -182.5t129 -59.5q72 0 145.5 38t132.5 106v354q0 84 -13 120t-48 36q-31 0 -74 -21h-4q-8 0 -10 10.5t6 12.5l215 96l6 2q6 0 11.5 -4t5.5 -10v-580q0 -70 17 -101.5t58 -31.5q20 0 50 9t65 22h4 q8 0 11.5 -9.5t-5.5 -13.5l-229 -106l-8 -2q-18 0 -38 46t-20 117v19q-84 -94 -165.5 -136t-167.5 -42q-100 0 -156.5 63.5t-56.5 186.5v317q0 84 -13.5 120t-46.5 36q-31 0 -73 -21h-5q-8 0 -11 10.5z" />
<glyph unicode="v" horiz-adv-x="886" d="M2 778.5q0 12.5 6 12.5q41 0 64 -3l61 -2l129 2q29 2 78 3q6 0 6 -12.5t-6 -12.5q-125 0 -125 -49q0 -14 8 -31l254 -555l209 506q12 35 12 55q0 39 -40 56.5t-130 17.5q-4 0 -4 12.5t4 12.5q55 0 84 -3l123 -2l72 2q20 2 63 3q4 0 4 -12.5t-4 -12.5q-51 0 -83.5 -29.5 t-65.5 -111.5l-256 -623q-2 -8 -23 -8q-20 0 -22 8l-281 619q-41 90 -66.5 117.5t-64.5 27.5q-6 0 -6 12.5z" />
<glyph unicode="w" horiz-adv-x="1366" d="M2 778.5q0 12.5 6 12.5q41 0 64 -3l61 -2l119 2q31 2 88 3q6 0 6 -12.5t-6 -12.5q-59 0 -90 -11.5t-31 -37.5q0 -12 6 -31l215 -541l215 646q6 8 25 8q20 0 22 -8l279 -658l182 504q12 35 13 57q0 39 -39 55.5t-129 16.5q-4 0 -4 12.5t4 12.5q55 0 84 -3l122 -2l72 2 q18 2 62 3q6 0 6 -12.5t-6 -12.5q-51 0 -85 -30.5t-63 -110.5l-229 -623q0 -8 -23 -8q-18 0 -24 8l-275 645l-217 -645q-2 -8 -22 -8q-18 0 -25 8l-246 619q-37 88 -64.5 116.5t-66.5 28.5q-6 0 -6 12.5z" />
<glyph unicode="x" horiz-adv-x="899" d="M27 12.5q0 12.5 4 12.5q51 0 111.5 35.5t109.5 105.5l151 211l-161 244q-51 78 -106.5 111.5t-102.5 33.5q-4 0 -4 12.5t4 12.5q43 0 63 -3l64 -2l129 2q29 2 78 3q4 0 4 -12.5t-4 -12.5q-39 0 -56.5 -5t-17.5 -20q0 -12 26 -55l148 -223l117 174q43 59 43 86 q0 23 -29 33t-98 10q-4 0 -4 12.5t4 12.5q55 0 84 -3l123 -2l71 2q20 2 64 3q4 0 4 -12.5t-4 -12.5q-53 0 -110.5 -34t-110.5 -107l-138 -187l179 -268q51 -78 106 -111.5t102 -33.5q4 0 4 -12.5t-4 -12.5l-65 2q-20 2 -62 2l-129 -2q-29 -2 -77 -2q-6 0 -6.5 12.5t6.5 12.5 q39 0 56 5t17 19q0 12 -26 55l-162 244l-135 -194q-16 -25 -27.5 -46.5t-11.5 -37.5q0 -45 123 -45q6 0 6 -12.5t-6 -12.5q-55 0 -82 2l-123 2l-72 -2q-20 -2 -63 -2q-4 0 -4 12.5z" />
<glyph unicode="y" horiz-adv-x="985" d="M31 698.5q-2 10.5 6 12.5l215 96l6 2q6 0 12 -4t6 -10v-498q0 -123 43 -182.5t130 -59.5q70 0 143.5 38t132.5 104v356q0 84 -13.5 120t-45.5 36q-31 0 -74 -21h-4q-8 0 -11.5 10.5t5.5 12.5l215 96l8 2q4 0 10 -4t6 -10v-938q0 -193 -105.5 -312.5t-295.5 -119.5 q-111 0 -185.5 45t-74.5 110q0 29 16.5 42t38.5 13q20 0 36.5 -13t37.5 -42q43 -53 87 -82.5t130 -29.5q100 0 159.5 73.5t59.5 265.5v357q-84 -92 -165 -135t-167 -43q-102 0 -157.5 63.5t-55.5 186.5v317q0 84 -13 120t-48 36q-31 0 -74 -21h-4q-8 0 -10 10.5z" />
<glyph unicode="z" horiz-adv-x="829" d="M90 25l500 727q8 14 -10 14q-174 0 -261.5 -11.5t-134.5 -48t-69 -114.5q0 -4 -9 -4q-6 0 -12 3t-4 5l66 250q2 4 14 3t10 -5q-8 -31 13.5 -42t82.5 -11h424q8 0 14.5 -8.5t2.5 -16.5l-488 -723q-8 -14 11 -14q223 0 304 9t115.5 46t69.5 139q2 4 12.5 4t10.5 -4l-4 -200 q0 -8 -5.5 -15.5t-13.5 -7.5h-625q-8 0 -13 8t-1 17z" />
<glyph unicode="{" horiz-adv-x="591" d="M59 623.5q0 13.5 7 13.5q104 12 139 133t35 313q0 176 22.5 259t77.5 113t172 30q8 0 8 -12.5t-8 -12.5q-78 0 -121 -56t-47 -161q-4 -252 -16.5 -353.5t-54.5 -159.5t-148 -105q104 -49 147 -109.5t55.5 -162t16.5 -351.5q4 -104 47 -160.5t121 -56.5q8 0 8 -12.5 t-8 -12.5q-119 0 -175 30t-76.5 114t-20.5 260q0 195 -35 314.5t-139 131.5q-7 0 -7 13.5z" />
<glyph unicode="|" horiz-adv-x="344" d="M137 -315v1812q0 14 39 14q37 0 37 -14v-1812q0 -8 -11.5 -12.5t-25.5 -4.5q-16 0 -27.5 4t-11.5 13z" />
<glyph unicode="}" horiz-adv-x="579" d="M59.5 -227.5q-0.5 12.5 8.5 12.5q78 0 120.5 56.5t47.5 160.5q4 250 16 351.5t55 161.5t148 110q-106 47 -148.5 105t-54.5 159.5t-16 353.5q-4 104 -47.5 160.5t-120.5 56.5q-8 0 -8.5 12.5t8.5 12.5q117 0 172 -30t77.5 -112.5t22.5 -259.5q0 -193 35 -313.5 t139 -132.5q6 0 6 -13.5t-6 -13.5q-104 -12 -139 -132t-35 -314q0 -176 -20.5 -260t-77 -114t-174.5 -30q-8 0 -8.5 12.5z" />
<glyph unicode="~" horiz-adv-x="907" d="M98 330q115 141 228 141q29 0 65.5 -10t73.5 -23q53 -20 94 -30.5t82 -10.5q59 0 91 20.5t65 59.5h2q6 0 11 -5t1 -9q-70 -84 -115 -112.5t-98 -28.5q-39 0 -75 9t-87 27q-53 18 -90 27.5t-80 9.5q-49 0 -74.5 -14t-48 -35.5t-30.5 -30.5h-2q-4 0 -9.5 5.5t-3.5 9.5z" />
<glyph unicode="&#xa2;" horiz-adv-x="1105" d="M76 483q0 129 63.5 236.5t176 176.5t251.5 83v170q0 8 6.5 12t14.5 4t14 -4t6 -12v-166h31q78 0 167 -15.5t144 -43.5q14 -6 18.5 -12.5t6.5 -22.5l22 -211q0 -6 -11 -8t-13 6q-27 139 -122 207.5t-243 72.5v-954q14 -2 41 -2q129 0 219 70.5t123 216.5q0 6 10 6 q4 0 9.5 -3t5.5 -5l-29 -217q-2 -16 -6 -22.5t-23 -14.5q-158 -55 -327 -56h-23v-184q0 -14 -20 -14t-21 14v186q-170 14 -280.5 93.5t-160.5 190t-50 222.5zM199 514q0 -115 42 -223.5t126 -185t200 -99.5v950q-104 -6 -188 -65.5t-132 -157.5t-48 -219z" />
<glyph unicode="&#xa3;" horiz-adv-x="1028" d="M92 11.5q0 11.5 6 13.5q104 43 142.5 103t38.5 185q0 80 -10.5 142.5t-30.5 138.5h-125q-6 0 -10.5 6t-4.5 14t4 14.5t11 6.5h114q-18 70 -28.5 123t-10.5 116q0 145 53.5 241.5t141.5 142t192 45.5q111 0 232 -50q31 -12 31 -34l18 -218q0 -8 -11 -8t-14 8 q-6 66 -37.5 128.5t-93 104.5t-147.5 42q-135 0 -196.5 -99.5t-61.5 -240.5q0 -66 12 -124t35 -134l12 -43h301q8 0 12.5 -6t4.5 -15q0 -8 -4 -14t-13 -6h-290q27 -92 26 -184q0 -121 -39 -189.5t-110 -138.5h417q90 0 134.5 12t67 47t38.5 111q0 4 11.5 3t11.5 -5 q-18 -129 -19 -219q0 -16 -7 -23.5t-24 -7.5h-774q-6 0 -6 11.5z" />
<glyph unicode="&#xa5;" horiz-adv-x="1243" d="M-10 1267.5q0 12.5 6 12.5l76 -2q49 -4 73 -4q68 0 166 4l107 2q4 0 4 -12.5t-4 -12.5q-61 0 -89 -9t-28 -29q0 -12 21 -43l344 -494l262 397q45 74 45 113q0 66 -111 65q-4 0 -4 12.5t4 12.5l92 -2q78 -4 138 -4q35 0 84 4l75 2q4 0 4 -12.5t-4 -12.5q-76 0 -147.5 -48 t-128.5 -136l-289 -438v-27h213q14 0 14 -20t-14 -21h-545q-6 0 -10 6.5t-4 14.5t4 14t10 6h221l-348 504q-57 80 -107 112.5t-124 32.5q-6 0 -6 12.5zM340 442q0 8 4 14.5t10 6.5h545q14 -1 14 -21t-14 -20h-213v-256q0 -63 12.5 -92t49 -39t118.5 -10q6 0 6 -12.5 t-6 -12.5q-61 0 -96 2l-139 2l-139 -2q-37 -2 -99 -2q-6 0 -6 12.5t6 12.5q80 0 118 10t52.5 39.5t14.5 91.5v256h-224q-6 0 -10 6t-4 14z" />
<glyph unicode="&#xa8;" horiz-adv-x="659" d="M70 1063q0 37 21.5 57.5t60.5 20.5q37 0 57 -20.5t20 -57.5t-20.5 -57.5t-56.5 -20.5q-39 0 -60.5 20.5t-21.5 57.5zM428 1063q0 37 22.5 57.5t59.5 20.5q39 0 59.5 -20.5t20.5 -57.5t-20.5 -57.5t-59.5 -20.5q-37 0 -59.5 20.5t-22.5 57.5z" />
<glyph unicode="&#xa9;" horiz-adv-x="1468" d="M156 391q0 180 90 323.5t240.5 223.5t320.5 80q152 0 266.5 -62.5t177 -169t62.5 -233.5t-65.5 -235.5t-178.5 -173t-250 -64.5q-123 0 -205 46t-120.5 118.5t-38.5 154.5q0 104 51 183.5t132 121t167 41.5q70 0 128 -27.5t60 -68.5q0 -20 -15 -36.5t-36 -16.5 q-35 0 -70 49q-25 35 -50 52.5t-70 17.5q-182 0 -183 -266q0 -139 73 -227.5t235 -88.5q98 0 182 39t136 120t52 204q0 129 -66.5 238.5t-181 173t-254.5 63.5q-162 0 -276.5 -71t-173.5 -192.5t-59 -271.5q0 -188 90 -320t221 -196.5t254 -64.5q125 0 213 17t198 75 q4 2 8.5 -4t0.5 -11q-109 -82 -220.5 -110.5t-250.5 -28.5q-138 0 -275 67.5t-228 203t-91 327.5z" />
<glyph unicode="&#xab;" horiz-adv-x="923" d="M117 412q0 14 8 22l356 305q0 2 4 2t8.5 -5t2.5 -7l-267 -317l267 -318q2 -4 -5.5 -11t-9.5 -1l-356 305q-8 8 -8 25zM418 412q0 14 8 22l356 305q4 6 11.5 0t3.5 -10l-265 -317l265 -318v-2q0 -6 -5.5 -10t-9.5 0l-356 305q-8 8 -8 25z" />
<glyph unicode="&#xad;" horiz-adv-x="661" d="M55 389q0 35 6 35l535 96q4 2 7 -11t3 -28q0 -14 -3 -26.5t-7 -14.5l-530 -96q-5 -2 -8 13.5t-3 31.5z" />
<glyph unicode="&#xae;" horiz-adv-x="1540" d="M156 881q0 170 91 308t240.5 217t319.5 79q172 0 303 -77t202.5 -205t71.5 -279q0 -176 -86 -323.5t-230 -232.5t-314 -85q-147 0 -285.5 70.5t-225.5 205.5t-87 322zM236 928q0 -184 86 -317.5t218 -201t265 -67.5q153 0 269 63.5t180.5 182.5t64.5 278q0 158 -75 289 t-206 207t-293 76q-160 0 -275.5 -70t-174.5 -186.5t-59 -253.5zM485 567.5q0 12.5 4 12.5q51 0 74 6t31 24.5t8 59.5v442q0 39 -8 57.5t-30.5 25.5t-74.5 7q-4 0 -4 12.5t4 12.5l146 -2q25 0 90 4l78 2q182 0 182 -133q0 -123 -113 -183q80 -154 117 -215t76 -94t92 -33 q4 0 4 -9t-4 -9h-151q-20 0 -71.5 84t-139.5 252q-55 -12 -121 -10v-211q0 -41 7 -59.5t29.5 -24.5t71.5 -6q4 0 4 -12.5t-4 -12.5q-37 0 -59 2l-88 2l-86 -2q-23 -2 -60 -2q-4 0 -4 12.5zM674 920q62 -9 82 -9q152 0 151 138q0 156 -139 155q-41 0 -59.5 -5t-26.5 -25.5 t-8 -67.5v-186z" />
<glyph unicode="&#xb4;" horiz-adv-x="434" d="M119 975l117 491q2 8 29.5 17.5t53 12.5t21.5 -7l-199 -518q0 -4 -8 -4q-6 0 -11 3t-3 5z" />
<glyph unicode="&#xb8;" horiz-adv-x="475" d="M72 -489q0 25 16 40t41 15q20 0 31.5 -10.5t21.5 -30.5q16 -25 30.5 -37t45.5 -12q76 0 76 84q0 53 -38 95t-138 95q-16 8 -24.5 14.5t-8.5 14.5q0 10 12 35q23 57 49 127l21 57l24 -2q-14 -43 -23 -76t-9 -49q0 -23 13 -35t38.5 -26.5t40.5 -22.5q51 -29 80.5 -65.5 t29.5 -92.5q0 -74 -52 -133t-150 -59q-53 0 -90 19.5t-37 54.5z" />
<glyph unicode="&#xbb;" horiz-adv-x="923" d="M127 94l266 316l-266 319q-2 4 5 10t9 0l357 -305q10 -10 10 -22q0 -14 -10 -25l-357 -305q0 -2 -4 -2t-8 5t-2 9zM428 94l266 316l-266 319q-2 4 5 10t9 0l359 -305q8 -8 8 -22q0 -16 -8 -25l-359 -305q0 -2 -4 -2t-8 5t-2 9z" />
<glyph unicode="&#x2c6;" horiz-adv-x="536" d="M119 975l139 510q2 10 23 10q23 0 24 -10l137 -510q4 -4 -7 -7t-13 3l-139 366l-142 -366q0 -4 -8 -4q-6 0 -11 3t-3 5z" />
<glyph unicode="&#x2da;" horiz-adv-x="632" d="M131 1120q0 74 59.5 117t131.5 43q70 0 120 -48t50 -116q0 -72 -58.5 -115t-132.5 -43q-76 0 -123 48.5t-47 113.5zM209 1161q0 -70 33.5 -127t91.5 -57q41 0 59.5 24.5t18.5 77.5q0 74 -38 127.5t-93 53.5q-39 0 -55.5 -24t-16.5 -75z" />
<glyph unicode="&#x2dc;" horiz-adv-x="786" d="M123 992q-4 5 0 9q33 45 79 81t93 36q29 0 64.5 -9t41.5 -11q90 -29 152 -29q35 0 56.5 14.5t43.5 40.5h2q6 0 11.5 -5t1.5 -9q-53 -70 -88 -94.5t-72 -24.5q-31 0 -63.5 7.5t-65.5 17.5t-70 18t-71 8q-33 0 -50.5 -11t-31 -24.5l-19.5 -19.5h-4q-6 0 -10 5z" />
<glyph unicode="&#x400;" horiz-adv-x="1091" d="M86 12.5q0 12.5 4 12.5q80 0 118 10t51 39.5t13 91.5v948q0 61 -13 90t-51 40t-118 11q-4 0 -4 12.5t4 12.5h811q18 0 19 -18l4 -248q0 -6 -11.5 -6t-11.5 6q0 104 -55 165.5t-146 61.5h-141q-78 0 -114.5 -10t-50 -39t-13.5 -90v-416h270q94 0 131 32t37 109q0 4 12.5 4 t12.5 -4l-2 -161q0 -59 2 -88l2 -97q0 -4 -12.5 -4t-12.5 4q0 92 -39 129t-137 37h-264v-473q0 -59 13.5 -87t49 -38t115.5 -10h189q82 0 140 71.5t75 188.5q0 6 12 5t12 -7q-18 -129 -18 -266q0 -16 -7.5 -23.5t-25.5 -7.5h-846q-4 0 -4 12.5zM340 1548q-14 2 11.5 17.5 t59 28t42.5 8.5q82 -47 173 -98.5t179 -92.5q4 -2 4 -8t-4 -10t-8 -2q-231 102 -457 157z" />
<glyph unicode="&#x401;" horiz-adv-x="1091" d="M86 12.5q0 12.5 4 12.5q80 0 118 10t51 39.5t13 91.5v948q0 61 -13 90t-51 40t-118 11q-4 0 -4 12.5t4 12.5h811q18 0 19 -18l4 -248q0 -6 -11.5 -6t-11.5 6q0 104 -55 165.5t-146 61.5h-141q-78 0 -114.5 -10t-50 -39t-13.5 -90v-416h270q94 0 131 32t37 109q0 4 12.5 4 t12.5 -4l-2 -161q0 -59 2 -88l2 -97q0 -4 -12.5 -4t-12.5 4q0 92 -39 129t-137 37h-264v-473q0 -59 13.5 -87t49 -38t115.5 -10h189q82 0 140 71.5t75 188.5q0 6 12 5t12 -7q-18 -129 -18 -266q0 -16 -7.5 -23.5t-25.5 -7.5h-846q-4 0 -4 12.5zM334 1552q0 37 21.5 57.5 t60.5 20.5q37 0 57.5 -20.5t20.5 -57.5t-20.5 -57t-57.5 -20q-39 0 -60.5 20.5t-21.5 56.5zM692 1552q0 37 22.5 57.5t59.5 20.5q39 0 59.5 -20.5t20.5 -57.5t-20.5 -57t-59.5 -20q-37 0 -59.5 20.5t-22.5 56.5z" />
<glyph unicode="&#x402;" horiz-adv-x="1497" d="M76 965q8 55 18 177t10 183q0 10 12.5 10t12.5 -10q0 -45 109 -45q176 -6 340 -6q119 0 245 4l125 2q74 0 109 10t45 41q2 8 13 8t11 -8q-6 -55 -13 -174t-7 -192q0 -4 -11.5 -4t-11.5 4q0 106 -23.5 166.5t-76.5 87t-149 26.5t-134 -7t-51.5 -33.5t-13.5 -94.5v-467 q94 80 187 123t194 43q114 0 201.5 -53.5t133.5 -144.5t46 -203q0 -106 -42 -206t-122 -163.5t-189 -63.5q-80 0 -127 34t-47 85q0 29 17.5 47.5t48.5 18.5q51 0 76 -64q16 -47 33.5 -63.5t56.5 -16.5q92 0 138 86t46 213q0 125 -43 221.5t-121 149.5t-176 53 q-158 0 -311 -131v-442q0 -84 39 -112.5t119 -28.5q6 0 6 -12.5t-6 -12.5q-51 0 -88 2l-127 2l-152 -2q-41 -2 -111 -2q-4 0 -4 12.5t4 12.5q92 0 135.5 10t58.5 39.5t15 91.5v948q0 68 -13 93.5t-47 31.5t-122 6q-117 0 -169 -61.5t-73 -218.5q0 -4 -12 -4t-12 4z" />
<glyph unicode="&#x403;" horiz-adv-x="1044" d="M86 12.5q0 12.5 4 12.5q80 0 118 10t51 39.5t13 91.5v948q0 61 -13 90t-51 40t-118 11q-4 0 -4 12.5t4 12.5h858q20 0 21 -18l4 -248q0 -6 -12.5 -6t-12.5 6q0 104 -55 165.5t-145 61.5h-189q-76 0 -112.5 -10t-51 -37t-14.5 -82v-938q0 -66 18.5 -95.5t70.5 -41.5 t167 -12q6 0 6 -12.5t-6 -12.5q-84 0 -131 2l-178 2l-135 -2q-37 -2 -103 -2q-4 0 -4 12.5zM335 1398q-3 9 3 13q82 37 233 123l119 65q8 4 42 -7t59.5 -26.5t11.5 -17.5q-242 -61 -455 -159h-2q-8 0 -11 9z" />
<glyph unicode="&#x404;" horiz-adv-x="1370" d="M100 653q0 186 104.5 335t276.5 232t365 83q100 0 201.5 -20.5t162.5 -55.5q16 -10 21.5 -19.5t7.5 -29.5l23 -215q0 -6 -10.5 -7.5t-12.5 5.5q-74 299 -473 299q-160 0 -282 -69t-189.5 -194t-67.5 -288q0 -31 2 -45h375q102 0 157.5 15t80 56t24.5 117q0 6 12.5 6 t12.5 -6l-2 -207q0 -61 2 -90l2 -94q0 -6 -11.5 -6t-11.5 6q-4 86 -65.5 125t-208.5 39h-365q18 -174 104.5 -316.5t218.5 -225.5t282 -83q152 0 261 80t160 244q1 6 9 6q6 0 11 -2t5 -6l-29 -220q-4 -25 -9 -32t-23 -15q-182 -80 -392 -80q-246 0 -409.5 99.5t-241.5 254 t-78 324.5z" />
<glyph unicode="&#x405;" horiz-adv-x="993" d="M137 350v2q0 8 10.5 9t12.5 -7q20 -141 108 -245.5t242 -104.5q109 0 183.5 59.5t74.5 186.5q0 92 -41 158.5t-99.5 110.5t-158.5 104q-98 57 -154.5 100t-96.5 107.5t-40 154.5q0 102 52.5 174t136.5 108t180 36q113 0 233 -50q31 -12 31 -34l18 -218q0 -8 -11 -8t-13 8 q-8 106 -80 190.5t-205 84.5q-123 0 -180 -71.5t-57 -172.5q0 -82 38.5 -141.5t95 -99t156.5 -99.5q106 -63 165 -105t101 -107.5t42 -157.5q0 -96 -47.5 -175t-140.5 -125.5t-228 -46.5q-72 0 -136.5 15.5t-142.5 54.5q-10 6 -13 14.5t-5 24.5z" />
<glyph unicode="&#x406;" horiz-adv-x="675" d="M92 12.5q0 12.5 6 12.5q80 0 118 10t52.5 39.5t14.5 91.5v948q0 61 -14.5 90t-52.5 40t-118 11q-6 0 -6 12.5t6 12.5l101 -2q86 -4 137 -4q57 0 143 4l96 2q4 0 4.5 -12.5t-4.5 -12.5q-80 0 -117.5 -12t-51 -42t-13.5 -91v-944q0 -64 13.5 -92.5t50.5 -38.5t118 -10 q4 0 4.5 -12.5t-4.5 -12.5q-61 0 -96 2l-143 2l-137 -2q-37 -2 -101 -2q-6 0 -6 12.5z" />
<glyph unicode="&#x407;" horiz-adv-x="675" d="M92 12.5q0 12.5 6 12.5q80 0 118 10t52.5 39.5t14.5 91.5v948q0 61 -14.5 90t-52.5 40t-118 11q-6 0 -6 12.5t6 12.5l101 -2q86 -4 137 -4q57 0 143 4l96 2q4 0 4.5 -12.5t-4.5 -12.5q-80 0 -117.5 -12t-51 -42t-13.5 -91v-944q0 -64 13.5 -92.5t50.5 -38.5t118 -10 q4 0 4.5 -12.5t-4.5 -12.5q-61 0 -96 2l-143 2l-137 -2q-37 -2 -101 -2q-6 0 -6 12.5zM113 1552q0 37 22.5 57.5t59.5 20.5q39 0 59 -20.5t20 -57.5t-20.5 -57t-58.5 -20q-37 0 -59.5 20.5t-22.5 56.5zM401 1552q0 37 21.5 57.5t60.5 20.5q37 0 57.5 -20.5t20.5 -57.5 t-20.5 -57t-57.5 -20q-39 0 -60.5 20.5t-21.5 56.5z" />
<glyph unicode="&#x408;" horiz-adv-x="638" d="M86 -541q111 74 154 224.5t43 398.5v1032q0 61 -14.5 90t-52.5 40t-118 11q-6 0 -6 12.5t6 12.5l107 -2q82 -4 131 -4q51 0 129 4l86 2q6 0 6 -12.5t-6 -12.5q-70 0 -102.5 -12t-44 -42t-11.5 -91v-973q0 -213 -26.5 -342t-89 -211t-179.5 -147h-2q-6 0 -10 9t0 13z" />
<glyph unicode="&#x409;" horiz-adv-x="1816" d="M18 43q0 59 82 59h43q119 0 206 154t132 381t45 438q0 90 -41 135t-161 45q-6 0 -6.5 12.5t6.5 12.5h964q6 0 6 -12.5t-6 -12.5q-80 0 -117.5 -11t-52 -39.5t-14.5 -90.5v-399q76 8 166 8q225 0 349 -76t124 -260q0 -117 -50.5 -207t-141.5 -139t-210 -49q-53 0 -127 6 q-31 2 -72.5 4t-92.5 2l-138 -2q-35 -2 -96 -2q-6 0 -6 12.5t6 12.5q82 0 119 10t50 38.5t13 92.5v944q0 70 -8 92.5t-39.5 28.5t-128.5 6h-96q-61 0 -92 -10t-45.5 -45t-14.5 -107q0 -207 -43 -462t-146 -446.5t-271 -191.5q-43 0 -69 16.5t-26 51.5zM1104 166 q0 -74 39 -107.5t157 -33.5q170 0 247 75.5t77 233.5q0 190 -101.5 271t-293.5 81q-39 0 -125 -8v-512z" />
<glyph unicode="&#x40a;" horiz-adv-x="2004" d="M70 12.5q0 12.5 4 12.5q80 0 117.5 10t52 39.5t14.5 91.5v948q0 61 -13.5 90t-51 40t-117.5 11q-4 0 -4 12.5t4 12.5l100 -2q86 -4 135 -4q55 0 142 4l96 2q4 0 4 -12.5t-4 -12.5q-80 0 -118 -12t-51 -42t-13 -91v-424h817v424q0 61 -13.5 91t-51.5 42t-118 12 q-6 0 -6 12.5t6 12.5l97 -2q86 -4 141 -4q51 0 137 4l99 2q6 0 6 -12.5t-6 -12.5q-80 0 -118 -11t-52.5 -39.5t-14.5 -90.5v-424q158 10 217 10q205 0 315.5 -68.5t110.5 -244.5q0 -117 -51 -207t-142 -139t-210 -49q-51 0 -125 6q-31 2 -74 4t-92 2l-141 -2q-35 -2 -97 -2 q-6 0 -6 12.5t6 12.5q82 0 119 10t50.5 38.5t13.5 92.5v481h-817v-481q0 -63 13 -92t50 -39t119 -10q4 0 4 -12.5t-4 -12.5q-61 0 -98 2l-140 2l-135 -2q-37 -2 -102 -2q-4 0 -4 12.5zM1290 166q0 -74 41 -107.5t158 -33.5q172 0 247.5 75.5t75.5 235.5q0 182 -88 254 t-260 72q-41 0 -174 -11v-485z" />
<glyph unicode="&#x40b;" horiz-adv-x="1460" d="M76 965q8 55 18 177t10 183q0 10 12.5 10t12.5 -10q0 -45 109 -45q176 -6 340 -6q119 0 245 4l125 2q74 0 109 10t45 41q2 8 13 8t11 -8q-6 -55 -13 -174t-7 -192q0 -4 -11.5 -4t-11.5 4q0 106 -23.5 166.5t-76.5 87t-149 26.5t-134 -7t-51.5 -33.5t-13.5 -94.5v-467 q96 80 195.5 123t187.5 43q125 0 206 -80t81 -237v-326q0 -61 10 -91t37.5 -40t87.5 -10q4 0 4 -12.5t-4 -12.5q-45 0 -72 2l-117 2l-110 -2q-31 -2 -80 -2q-4 0 -4 12.5t4 12.5q59 0 87 10t38 39.5t10 91.5v262q0 174 -64.5 242.5t-183.5 68.5q-74 0 -155.5 -33.5 t-157.5 -97.5v-442q0 -63 10 -92t43 -39t105 -10q6 0 6 -12.5t-6 -12.5q-55 0 -88 2l-127 2l-152 -2q-41 -2 -111 -2q-4 0 -4 12.5t4 12.5q92 0 135.5 10t58.5 39.5t15 91.5v948q0 68 -13 93.5t-47 31.5t-122 6q-117 0 -169 -61.5t-73 -218.5q0 -4 -12 -4t-12 4z" />
<glyph unicode="&#x40c;" horiz-adv-x="1341" d="M70 12.5q0 12.5 4 12.5q80 0 117.5 10t52 39.5t14.5 91.5v948q0 61 -13.5 90t-51 40t-117.5 11q-4 0 -4 12.5t4 12.5l100 -2q86 -4 135 -4q55 0 142 4l96 2q4 0 4 -12.5t-4 -12.5q-80 0 -118 -12t-51 -42t-13 -91v-432q111 4 137 4q33 0 47 -2l258 360q49 70 71.5 110 t22.5 62q0 25 -26.5 34t-83.5 9q-4 0 -4.5 12.5t4.5 12.5l86 -2q78 -4 143 -4q66 0 135 4l72 2q6 0 6 -12.5t-6 -12.5q-113 0 -185.5 -49t-173.5 -180l-272 -352q59 -12 103 -57.5t133 -174.5l40 -57q94 -135 156 -207t129.5 -111.5t153.5 -41.5q4 0 4 -12.5t-4 -12.5h-244 q-29 0 -50.5 15.5t-70.5 81t-176 247.5q-96 141 -144 197.5t-97.5 80t-131.5 23.5q-20 0 -32 -2v-477q0 -63 13 -92t50 -39t119 -10q4 0 4 -12.5t-4 -12.5q-61 0 -98 2l-140 2l-135 -2q-37 -2 -102 -2q-4 0 -4 12.5zM458 1398q-3 9 3 13q82 37 233 123l119 65q8 4 42 -7 t59.5 -26.5t11.5 -17.5q-242 -61 -455 -159h-2q-8 0 -11 9z" />
<glyph unicode="&#x40d;" horiz-adv-x="1527" d="M70 12.5q0 12.5 4 12.5q80 0 117.5 10t52 39.5t14.5 91.5v948q0 61 -13.5 90t-51 40t-117.5 11q-4 0 -4 12.5t4 12.5l100 -2q86 -4 135 -4q55 0 142 4l96 2q4 0 4 -12.5t-4 -12.5q-80 0 -118 -12t-51 -42t-13 -91v-864l792 846v18q0 61 -13 91t-51 42t-118 12 q-4 0 -4 12.5t4 12.5l98 -2q82 -4 139 -4q53 0 136 4l102 2q4 0 4 -12.5t-4 -12.5q-80 0 -118 -11t-52 -39.5t-14 -90.5v-948q0 -61 14 -91t52 -40t118 -10q4 0 4 -12.5t-4 -12.5q-66 0 -102 2l-136 2l-139 -2q-37 -2 -98 -2q-4 0 -4 12.5t4 12.5q82 0 119 10t50 38.5 t13 92.5v860l-792 -844v-16q0 -63 13 -92t50 -39t119 -10q4 0 4 -12.5t-4 -12.5q-61 0 -98 2l-140 2l-135 -2q-37 -2 -102 -2q-4 0 -4 12.5zM510 1548q-14 2 11.5 17.5t59 28t42.5 8.5q82 -47 173 -98.5t179 -92.5q4 -2 4 -8t-4 -10t-8 -2q-231 102 -457 157z" />
<glyph unicode="&#x40e;" horiz-adv-x="1245" d="M14 1267.5q0 12.5 4 12.5l88 -2q61 -4 89 -4q59 0 141 4l88 2q6 0 6 -12.5t-6 -12.5q-63 0 -100 -17t-37 -52q0 -25 18 -56l400 -718l331 714q16 37 17 60q0 37 -39 53t-125 16q-6 0 -6 12.5t6 12.5l82 -2q70 -4 125 -4q33 0 82 4l75 2q4 0 4 -12.5t-4 -12.5 q-51 0 -96 -35.5t-78 -105.5l-473 -1014q-61 -125 -174 -125q-55 0 -95 26t-40 71q0 33 22.5 56.5t57.5 23.5q31 0 47 -16.5t31 -47.5q10 -20 19 -31.5t24 -11.5q39 0 69 72l80 172l-448 821q-45 82 -82 113.5t-99 31.5q-4 0 -4 12.5zM369 1567q0 27 13 41t38 14 q35 0 50 -22.5t30 -71.5q14 -51 50 -88t95 -37q57 0 97 35t55 90q14 49 29.5 71.5t50.5 22.5q51 0 51 -57q0 -47 -40 -90t-105.5 -69t-135.5 -26q-72 0 -136.5 27t-103 70t-38.5 90z" />
<glyph unicode="&#x40f;" horiz-adv-x="1478" d="M70 12.5q0 12.5 4 12.5q80 0 117.5 10t52 39.5t14.5 91.5v948q0 61 -14.5 90t-52 40t-117.5 11q-4 0 -4 12.5t4 12.5l102 -2q82 -4 135 -4q57 0 140 4l98 2q4 0 4 -12.5t-4 -12.5q-82 0 -119 -11t-50 -39.5t-13 -90.5v-944q0 -70 8 -92.5t38.5 -28.5t127.5 -6h383 q100 0 134 6t43 29.5t9 91.5v944q0 61 -13.5 90t-50 40t-118.5 11q-6 0 -6 12.5t6 12.5l96 -2q86 -4 139 -4t140 4l98 2q6 0 6 -12.5t-6 -12.5q-80 0 -118 -11t-52 -39.5t-14 -90.5v-948q0 -61 14 -91t52 -40t118 -10q6 0 6 -12.5t-6 -12.5l-502 4q-51 0 -83 -25.5 t-49 -109.5t-17 -252q0 -10 -12.5 -10t-12.5 10q0 168 -18.5 252t-50 109.5t-87.5 25.5l-495 -4q-4 0 -4 12.5z" />
<glyph unicode="&#x410;" horiz-adv-x="1429" d="M-6 12.5q0 12.5 10 12.5q57 0 97 20.5t76 73.5t77 151l428 1030q4 6 13.5 6.5t11.5 -6.5l475 -1019q47 -104 84 -158.5t72.5 -76t82.5 -21.5q9 0 9 -12.5t-9 -12.5q-37 0 -118 4q-78 4 -115 4q-43 0 -113 -4q-66 -4 -98 -4q-8 0 -8 12.5t8 12.5q84 0 121 15t37 52 q0 29 -23 80l-244 522h-391l-184 -442q-29 -70 -29 -115q0 -59 49 -85.5t154 -26.5q10 0 10 -12.5t-10 -12.5q-37 0 -107 4q-78 4 -135 4q-51 0 -121 -4q-61 -4 -100 -4q-10 0 -10 12.5zM494 733h358l-190 406z" />
<glyph unicode="&#x411;" horiz-adv-x="1124" d="M86 12.5q0 12.5 4 12.5q82 0 120 10t52 39.5t14 91.5v948q0 61 -13 90t-51 40t-118 11q-6 0 -6 12.5t6 12.5h793q10 0 13 -4t5 -14l29 -248q0 -6 -11.5 -7t-13.5 5q-16 104 -75.5 166.5t-147.5 62.5h-125q-78 0 -114.5 -10t-50 -39t-13.5 -90v-387q76 8 166 8 q225 0 349 -76t124 -260q0 -117 -50 -207t-141.5 -139t-209.5 -49q-53 0 -127 6q-31 2 -73 4t-93 2l-135 -2q-37 -2 -103 -2q-4 0 -4 12.5zM383 166q0 -74 39 -107.5t158 -33.5q170 0 246.5 75.5t76.5 233.5q0 190 -101.5 271t-293.5 81q-39 0 -125 -8v-512z" />
<glyph unicode="&#x412;" horiz-adv-x="1124" d="M86 12.5q0 12.5 4 12.5q82 0 120 10t52 39.5t14 91.5v948q0 61 -13 90t-51 40t-118 11q-6 0 -6 12.5t6 12.5l99 -2q82 -4 135 -4q37 0 69.5 2t57.5 4q63 6 112 6q170 0 251 -76.5t81 -195.5q0 -100 -63.5 -175t-169.5 -116q159 -10 257.5 -106.5t98.5 -237.5 q0 -111 -51 -199t-141.5 -138t-198.5 -50q-70 0 -148 6q-29 2 -67.5 4t-87.5 2l-135 -2q-37 -2 -103 -2q-4 0 -4 12.5zM383 166q0 -55 17.5 -85t64.5 -43t137 -13q152 0 226.5 78.5t74.5 224.5q0 156 -95 253t-257 99q-76 2 -168 -4v-510zM383 721l96 -2q162 0 235.5 76.5 t73.5 203.5q0 115 -64.5 188t-203.5 73q-57 0 -83.5 -8.5t-40 -39t-13.5 -102.5v-389z" />
<glyph unicode="&#x413;" horiz-adv-x="1044" d="M86 12.5q0 12.5 4 12.5q80 0 118 10t51 39.5t13 91.5v948q0 61 -13 90t-51 40t-118 11q-4 0 -4 12.5t4 12.5h858q20 0 21 -18l4 -248q0 -6 -12.5 -6t-12.5 6q0 104 -55 165.5t-145 61.5h-189q-76 0 -112.5 -10t-51 -37t-14.5 -82v-938q0 -66 18.5 -95.5t70.5 -41.5 t167 -12q6 0 6 -12.5t-6 -12.5q-84 0 -131 2l-178 2l-135 -2q-37 -2 -103 -2q-4 0 -4 12.5z" />
<glyph unicode="&#x414;" horiz-adv-x="1449" d="M59 23q0 16 4.5 19t18.5 3h129l510 1255q2 6 12 6.5t12 -6.5l508 -1255h113q16 0 19.5 -3t3.5 -19q0 -10 -5 -56q-14 -115 -14 -278q0 -10 -12 -10.5t-12 10.5q0 166 -71 238.5t-241 72.5h-669q-119 0 -190 -69.5t-71 -241.5q0 -10 -11 -10.5t-11 10.5q0 164 -16 258 q-6 39 -7 76zM260 45h877l-437 1081z" />
<glyph unicode="&#x415;" horiz-adv-x="1091" d="M86 12.5q0 12.5 4 12.5q80 0 118 10t51 39.5t13 91.5v948q0 61 -13 90t-51 40t-118 11q-4 0 -4 12.5t4 12.5h811q18 0 19 -18l4 -248q0 -6 -11.5 -6t-11.5 6q0 104 -55 165.5t-146 61.5h-141q-78 0 -114.5 -10t-50 -39t-13.5 -90v-416h270q94 0 131 32t37 109q0 4 12.5 4 t12.5 -4l-2 -161q0 -59 2 -88l2 -97q0 -4 -12.5 -4t-12.5 4q0 92 -39 129t-137 37h-264v-473q0 -59 13.5 -87t49 -38t115.5 -10h189q82 0 140 71.5t75 188.5q0 6 12 5t12 -7q-18 -129 -18 -266q0 -16 -7.5 -23.5t-25.5 -7.5h-846q-4 0 -4 12.5z" />
<glyph unicode="&#x416;" horiz-adv-x="2017" d="M25 12.5q0 12.5 4 12.5q82 2 144.5 38.5t121.5 109.5t154 212l53 82q68 104 101.5 144t74.5 57l-229 358q-84 131 -164 180t-197 49q-4 0 -4 12.5t4 12.5l72 -2q74 -4 135 -4q70 0 147 4l82 2q6 0 6 -12.5t-6 -12.5q-57 0 -80.5 -7t-23.5 -29q0 -20 17.5 -54.5 t70.5 -124.5l211 -362q45 4 78 4l114 -2q14 -2 45 -2v436q0 59 -19 89t-62.5 41t-124.5 11q-4 0 -4.5 12.5t4.5 12.5l110 -2q98 -4 148 -4q57 0 155 4l107 2q4 0 4 -12.5t-4 -12.5q-119 0 -163 -29.5t-44 -115.5v-432l156 4q55 0 77 -4l213 362q53 90 70.5 124t17.5 55 q0 23 -23.5 29.5t-80.5 6.5q-6 0 -6 12.5t6 12.5l82 -2q78 -4 147 -4q61 0 136 4l71 2q4 0 4 -12.5t-4 -12.5q-117 0 -196.5 -49t-163.5 -180l-230 -358q43 -16 77 -58.5t110 -158.5q10 -14 20 -31t23 -35q94 -139 153.5 -212t122 -109.5t144.5 -38.5q4 0 4 -12.5t-4 -12.5 h-246q-25 0 -43.5 15.5t-74.5 99.5t-150 229q-96 150 -137.5 203t-87.5 75.5t-130 22.5q-12 0 -57 -4v-475q0 -63 13.5 -92t50 -39t118.5 -10q6 0 6 -12.5t-6 -12.5q-61 0 -96 2l-141 2l-138 -2q-35 -2 -98 -2q-6 0 -6 12.5t6 12.5q80 0 118 10t52 39.5t14 91.5v475 q-49 4 -63 4q-82 0 -128 -21.5t-88 -74.5t-138 -201l-62 -96q-68 -106 -109.5 -167.5t-56 -73t-39.5 -11.5h-243q-4 0 -4 12.5z" />
<glyph unicode="&#x417;" horiz-adv-x="1007" d="M117 315q0 6 11 8.5t13 -4.5q31 -170 133.5 -240.5t223.5 -70.5q145 0 213.5 92.5t68.5 229.5q0 166 -95 251t-273 85q-8 0 -8.5 12t8.5 12q164 0 245.5 78t81.5 211t-72.5 215t-189.5 82q-104 0 -184 -71.5t-121 -225.5q0 -4 -8 -4q-4 0 -9 3t-5 5l28 217q4 25 8 33 t23 14q158 55 297 56q166 0 256 -81t90 -200q0 -113 -76 -205t-174 -129q135 -10 220 -98t85 -223q0 -113 -59.5 -202t-162.5 -139.5t-228 -50.5q-82 0 -162 20.5t-125 57.5q-18 10 -22.5 17.5t-6.5 29.5z" />
<glyph unicode="&#x418;" horiz-adv-x="1576" d="M70 1267.5q0 12.5 4 12.5l102 -2q82 -4 135 -4q57 0 140 4l98 2q4 0 4 -12.5t-4 -12.5q-82 0 -119 -11t-50 -39.5t-13 -90.5v-985l899 1159q6 8 20 8q10 0 19.5 -4t9.5 -10v-1116q0 -61 14 -91t52 -40t118 -10q6 0 6 -12.5t-6 -12.5q-61 0 -98 2l-139 2l-140 -2 q-35 -2 -96 -2q-6 0 -6 12.5t6 12.5q82 0 119 10t49 38.5t12 92.5v969l-897 -1153q-6 -8 -22 -9q-29 0 -29 15v1126q0 61 -14.5 90t-52 40t-117.5 11q-4 0 -4 12.5z" />
<glyph unicode="&#x419;" horiz-adv-x="1576" d="M70 1267.5q0 12.5 4 12.5l102 -2q82 -4 135 -4q57 0 140 4l98 2q4 0 4 -12.5t-4 -12.5q-82 0 -119 -11t-50 -39.5t-13 -90.5v-985l899 1159q6 8 20 8q10 0 19.5 -4t9.5 -10v-1116q0 -61 14 -91t52 -40t118 -10q6 0 6 -12.5t-6 -12.5q-61 0 -98 2l-139 2l-140 -2 q-35 -2 -96 -2q-6 0 -6 12.5t6 12.5q82 0 119 10t49 38.5t12 92.5v969l-897 -1153q-6 -8 -22 -9q-29 0 -29 15v1126q0 61 -14.5 90t-52 40t-117.5 11q-4 0 -4 12.5zM551 1567q0 27 13.5 41t37.5 14q35 0 50.5 -22.5t29.5 -71.5q14 -51 50 -88t95 -37q57 0 97.5 35t54.5 90 q14 49 29.5 71.5t50.5 22.5q51 0 51 -57q0 -47 -40 -90t-105.5 -69t-135.5 -26q-71 0 -135.5 27t-103.5 70t-39 90z" />
<glyph unicode="&#x41a;" horiz-adv-x="1341" d="M70 12.5q0 12.5 4 12.5q80 0 117.5 10t52 39.5t14.5 91.5v948q0 61 -13.5 90t-51 40t-117.5 11q-4 0 -4 12.5t4 12.5l100 -2q86 -4 135 -4q55 0 142 4l96 2q4 0 4 -12.5t-4 -12.5q-80 0 -118 -12t-51 -42t-13 -91v-432q111 4 137 4q33 0 47 -2l258 360q49 70 71.5 110 t22.5 62q0 25 -26.5 34t-83.5 9q-4 0 -4.5 12.5t4.5 12.5l86 -2q78 -4 143 -4q66 0 135 4l72 2q6 0 6 -12.5t-6 -12.5q-113 0 -185.5 -49t-173.5 -180l-272 -352q59 -12 103 -57.5t133 -174.5l40 -57q94 -135 156 -207t129.5 -111.5t153.5 -41.5q4 0 4 -12.5t-4 -12.5h-244 q-29 0 -50.5 15.5t-70.5 81t-176 247.5q-96 141 -144 197.5t-97.5 80t-131.5 23.5q-20 0 -32 -2v-477q0 -63 13 -92t50 -39t119 -10q4 0 4 -12.5t-4 -12.5q-61 0 -98 2l-140 2l-135 -2q-37 -2 -102 -2q-4 0 -4 12.5z" />
<glyph unicode="&#x41b;" horiz-adv-x="1429" d="M-6 12.5q0 12.5 10 12.5q57 0 97 20.5t76 73.5t77 151l428 1030q4 6 13.5 6.5t11.5 -6.5l475 -1019q47 -104 84 -158.5t72.5 -76t82.5 -21.5q9 0 9 -12.5t-9 -12.5q-37 0 -118 4q-78 4 -115 4q-43 0 -113 -4q-66 -4 -98 -4q-8 0 -8 12.5t8 12.5q84 0 121 15t37 52 q0 29 -23 80l-450 967l-369 -887q-29 -70 -29 -115q0 -59 49 -85.5t154 -26.5q10 0 10 -12.5t-10 -12.5q-37 0 -107 4q-78 4 -135 4q-51 0 -121 -4q-61 -4 -100 -4q-10 0 -10 12.5z" />
<glyph unicode="&#x41c;" horiz-adv-x="1699" d="M82 12.5q0 12.5 4 12.5q86 0 122 42t38 146l20 971q-63 72 -166 71q-4 0 -4 12.5t4 12.5l70 -2q20 -2 53 -2t55.5 2t34.5 2q29 0 45.5 -19.5t49.5 -86.5l460 -996l459 1051q10 23 27.5 37t34.5 14q8 0 26.5 -2t50.5 -2l93 2q20 2 63 2q4 0 4 -12.5t-4 -12.5 q-106 0 -150.5 -27.5t-41.5 -109.5l38 -952q2 -63 15.5 -92t51.5 -39t118 -10q6 0 6 -12.5t-6 -12.5q-63 0 -101 2l-137 2l-127 -2q-31 -2 -86 -2q-4 0 -4 12.5t4 12.5q72 0 105.5 11t45 39.5t7.5 90.5l-35 952l-479 -1104q-4 -8 -17 -8q-10 0 -18 8l-500 1096l-2 4 l-16 -901q-2 -106 35 -147t137 -41q4 0 4 -12.5t-4 -12.5q-57 0 -88 2l-111 2l-100 -2q-27 -2 -80 -2q-4 0 -4 12.5z" />
<glyph unicode="&#x41d;" horiz-adv-x="1552" d="M70 12.5q0 12.5 4 12.5q80 0 117.5 10t52 39.5t14.5 91.5v948q0 61 -13.5 90t-51 40t-117.5 11q-4 0 -4 12.5t4 12.5l100 -2q86 -4 135 -4q55 0 142 4l96 2q4 0 4 -12.5t-4 -12.5q-80 0 -118 -12t-51 -42t-13 -91v-424h817v424q0 61 -13.5 91t-51.5 42t-118 12 q-6 0 -6 12.5t6 12.5l97 -2q86 -4 141 -4q51 0 137 4l99 2q6 0 6 -12.5t-6 -12.5q-80 0 -118 -11t-52.5 -39.5t-14.5 -90.5v-948q0 -61 14.5 -91t52.5 -40t118 -10q6 0 6 -12.5t-6 -12.5q-63 0 -99 2l-137 2l-141 -2q-35 -2 -97 -2q-6 0 -6 12.5t6 12.5q82 0 119 10 t50.5 38.5t13.5 92.5v481h-817v-481q0 -63 13 -92t50 -39t119 -10q4 0 4 -12.5t-4 -12.5q-61 0 -98 2l-140 2l-135 -2q-37 -2 -102 -2q-4 0 -4 12.5z" />
<glyph unicode="&#x41e;" horiz-adv-x="1568" d="M100 639q0 211 106.5 361.5t273.5 226.5t341 76q195 0 342.5 -91.5t226 -241t78.5 -317.5q0 -186 -98 -341.5t-263 -246t-357 -90.5q-191 0 -339.5 89.5t-229.5 242t-81 332.5zM231 709q0 -190 75 -349t210 -251.5t307 -92.5q146 0 262.5 68t184 199t67.5 313 q0 193 -74.5 343.5t-211 234t-316.5 83.5q-238 0 -371 -147t-133 -401z" />
<glyph unicode="&#x41f;" horiz-adv-x="1513" d="M70 12.5q0 12.5 4 12.5q80 0 117.5 10t52 39.5t14.5 91.5v924q0 63 -13.5 98t-53 51t-115.5 16q-4 0 -4 12.5t4 12.5q70 0 131 -2q270 -4 557 -4q258 0 602 6h72q4 0 4 -12.5t-4 -12.5q-78 0 -117 -16t-53.5 -51t-14.5 -98v-924q0 -61 14.5 -91t52.5 -40t118 -10 q4 0 4 -12.5t-4 -12.5q-66 0 -103 2l-135 2l-139 -2q-37 -2 -98 -2q-4 0 -4.5 12.5t4.5 12.5q82 0 118.5 10t50 38.5t13.5 92.5v944q0 70 -8.5 92.5t-39 28.5t-126.5 6h-420q-98 0 -133 -6t-43 -29.5t-8 -91.5v-944q0 -63 13 -92t50 -39t119 -10q4 0 4 -12.5t-4 -12.5 q-61 0 -98 2l-140 2l-135 -2q-37 -2 -102 -2q-4 0 -4 12.5z" />
<glyph unicode="&#x420;" horiz-adv-x="1105" d="M86 12.5q0 12.5 4 12.5q80 0 118 10t51 39.5t13 91.5v948q0 61 -13 90t-51 40t-118 11q-4 0 -4 12.5t4 12.5l100 -2q86 -4 136 -4q49 0 112 6q160 6 174 6q180 0 293 -83t113 -253q0 -137 -67.5 -230t-171 -138t-214.5 -45q-61 0 -100 10q-6 0 -6 10q0 6 3 12t7 4 q33 -8 74 -8q145 0 246.5 88t101.5 256q0 109 -43 188t-118 121t-165 42q-84 0 -118.5 -8.5t-50 -38t-15.5 -103.5v-936q0 -65 18.5 -95t70.5 -42t167 -12q6 0 6 -12.5t-6 -12.5q-84 0 -131 2l-178 2l-135 -2q-37 -2 -103 -2q-4 0 -4 12.5z" />
<glyph unicode="&#x421;" horiz-adv-x="1370" d="M100 653q0 186 104.5 335t276.5 232t365 83q100 0 201.5 -20.5t162.5 -55.5q16 -10 21.5 -19.5t7.5 -29.5l23 -215q0 -6 -10.5 -7.5t-12.5 5.5q-74 299 -473 299q-160 0 -282 -69t-189.5 -194t-67.5 -288q0 -193 84 -356t223.5 -258t301.5 -95q152 0 261 80t160 244 q0 6 9 6q6 0 11 -2t5 -6l-29 -220q-4 -25 -9 -32t-23 -15q-182 -80 -392 -80q-246 0 -409.5 99.5t-241.5 254t-78 324.5z" />
<glyph unicode="&#x422;" horiz-adv-x="1294" d="M76 965q8 55 18 177t10 183q0 10 12.5 10t12.5 -10q0 -45 109 -45q176 -6 411 -6q121 0 256 4l139 2q74 0 109 10t45 41q2 8 12.5 8t10.5 -8q-6 -57 -12.5 -175t-6.5 -191q0 -4 -12 -4t-12 4q0 109 -22.5 168t-76 85.5t-149.5 26.5q-106 0 -149.5 -7t-58.5 -33.5 t-15 -94.5v-944q0 -63 14 -92t57 -39t135 -10q4 0 4.5 -12.5t-4.5 -12.5q-68 0 -106 2l-158 2l-149 -2q-41 -2 -113 -2q-4 0 -4 12.5t4 12.5q92 0 135 10t58.5 39.5t15.5 91.5v948q0 68 -16.5 93.5t-58.5 31.5t-152 6q-129 0 -188.5 -61.5t-80.5 -218.5q0 -4 -12 -4t-12 4z " />
<glyph unicode="&#x423;" horiz-adv-x="1245" d="M14 1267.5q0 12.5 4 12.5l88 -2q61 -4 89 -4q59 0 141 4l88 2q6 0 6 -12.5t-6 -12.5q-63 0 -100 -17t-37 -52q0 -25 18 -56l400 -718l331 714q16 37 17 60q0 37 -39 53t-125 16q-6 0 -6 12.5t6 12.5l82 -2q70 -4 125 -4q33 0 82 4l75 2q4 0 4 -12.5t-4 -12.5 q-51 0 -96 -35.5t-78 -105.5l-473 -1014q-61 -125 -174 -125q-55 0 -95 26t-40 71q0 33 22.5 56.5t57.5 23.5q31 0 47 -16.5t31 -47.5q10 -20 19 -31.5t24 -11.5q39 0 69 72l80 172l-448 821q-45 82 -82 113.5t-99 31.5q-4 0 -4 12.5z" />
<glyph unicode="&#x424;" horiz-adv-x="1712" d="M100 639q0 184 86 327.5t244 229.5t367 102v31q0 57 -14.5 84t-52.5 37t-118 10q-4 0 -4 12.5t4 12.5q66 0 103 -2l135 -2l145 2q35 2 95 2q6 0 6 -12.5t-6 -12.5q-80 0 -118 -11t-51.5 -40t-13.5 -84v-22q211 -2 370 -84t247 -227.5t88 -338.5q0 -188 -87 -335.5 t-247 -235.5t-371 -105v-32q0 -47 13.5 -73t52.5 -39t117 -13q6 0 6 -11.5t-6 -11.5q-59 0 -97 2l-143 2l-135 -2q-37 -2 -103 -2q-4 0 -4 11.5t4 11.5q111 0 148 27.5t37 97.5v30q-207 4 -366 89.5t-245 233.5t-86 341zM227 709q0 -312 146.5 -487t423.5 -202v1237 q-276 -4 -423 -144t-147 -404zM907 16q281 4 429.5 152.5t148.5 427.5q0 295 -147.5 463t-430.5 194v-1237z" />
<glyph unicode="&#x425;" horiz-adv-x="1337" d="M35 12.5q0 12.5 6 12.5q70 0 135.5 42t124.5 121l309 424l-329 498q-53 80 -106.5 112.5t-127.5 32.5q-4 0 -4 12.5t4 12.5q25 0 78 -4l74 -2q66 0 163 4l107 2q6 0 6 -12.5t-6 -12.5q-61 0 -88 -9t-27 -29q0 -14 19 -43l311 -467l260 366q49 72 49 113q0 70 -119 69 q-6 0 -6 12.5t6 12.5l93 -2q78 -4 137 -4q35 0 84 4l74 2q6 0 6 -12.5t-6 -12.5q-139 0 -275 -184l-287 -391l340 -510q53 -82 109.5 -113.5t146.5 -31.5q4 0 4 -12.5t-4 -12.5q-53 0 -84 2l-108 2l-154 -2q-37 -2 -100 -2q-4 0 -4 12.5t4 12.5q61 0 88 8t27 28q0 16 -19 43 l-317 482l-285 -398q-41 -59 -41 -96q0 -68 125 -67q6 0 6 -12.5t-6 -12.5q-61 0 -92 2l-137 2l-84 -2q-23 -2 -74 -2q-6 0 -6 12.5z" />
<glyph unicode="&#x426;" horiz-adv-x="1486" d="M70 12.5q0 12.5 4 12.5q80 0 117.5 10t52 39.5t14.5 91.5v948q0 61 -14.5 90t-52 40t-117.5 11q-4 0 -4 12.5t4 12.5l102 -2q82 -4 135 -4q57 0 140 4l98 2q4 0 4 -12.5t-4 -12.5q-82 0 -119 -11t-50 -39.5t-13 -90.5v-944q0 -70 8 -92.5t38.5 -28.5t127.5 -6h383 q100 0 134 6t43 29.5t9 91.5v944q0 61 -13.5 90t-50 40t-118.5 11q-6 0 -6 12.5t6 12.5l96 -2q86 -4 139 -4t140 4l98 2q6 0 6 -12.5t-6 -12.5q-80 0 -118 -11t-52 -39.5t-14 -90.5v-948q0 -78 7 -102.5t36.5 -31.5t117.5 -7q14 0 17.5 -3.5t3.5 -21.5v-53q-4 -98 -4 -330 q0 -10 -12.5 -10t-12.5 10q0 143 -27.5 226t-89 120t-168.5 37h-1011q-4 0 -4 12.5z" />
<glyph unicode="&#x427;" d="M-10 1267.5q0 12.5 6 12.5l98 -2q82 -4 135 -4q51 0 129 4l84 2q6 0 6.5 -12.5t-6.5 -12.5q-68 0 -100.5 -12t-44.5 -42t-12 -91v-203q0 -174 79.5 -264t227.5 -90q162 0 317 113v444q0 61 -11 91t-44 42t-102 12q-4 0 -4 12.5t4 12.5l86 -2q78 -4 127 -4q53 0 139 4 l98 2q6 0 6 -12.5t-6 -12.5q-80 0 -117.5 -11t-52 -39.5t-14.5 -90.5v-948q0 -61 14.5 -91t52 -40t117.5 -10q6 0 6 -12.5t-6 -12.5q-61 0 -98 2l-139 2l-140 -2q-35 -2 -96 -2q-6 0 -6 12.5t6 12.5q82 0 119 10t49 38.5t12 92.5v471q-176 -133 -366 -133q-166 0 -265.5 89 t-99.5 243v278q0 61 -13 90t-51 40t-118 11q-6 0 -6 12.5z" />
<glyph unicode="&#x428;" horiz-adv-x="2088" d="M70 12.5q0 12.5 4 12.5q80 0 117.5 10t52 39.5t14.5 91.5v948q0 61 -14.5 90t-52 40t-117.5 11q-4 0 -4 12.5t4 12.5l102 -2q82 -4 135 -4q49 0 127 4l86 2q6 0 6 -12.5t-6 -12.5q-70 0 -102.5 -11t-43.5 -39.5t-11 -90.5v-944q0 -70 8 -92.5t38.5 -28.5t127.5 -6h264 q100 0 134 6t42 28.5t8 92.5v944q0 61 -11 90t-44 40t-103 11q-6 0 -6 12.5t6 12.5l87 -2q78 -4 126 -4q49 0 123 4l90 2q6 0 6.5 -12.5t-6.5 -12.5q-70 0 -103.5 -11t-44.5 -39.5t-11 -90.5v-948q0 -59 18.5 -85t58 -32t130.5 -6h231q100 0 134 6t42 28.5t8 92.5v944 q0 61 -11 90t-44 40t-102 11q-6 0 -6.5 12.5t6.5 12.5l86 -2q78 -4 127 -4q51 0 137 4l98 2q6 0 6 -12.5t-6 -12.5q-80 0 -118 -11t-52 -39.5t-14 -90.5v-948q0 -61 14 -91t52 -40t118 -10q6 0 6 -12.5t-6 -12.5h-1937q-4 0 -4 12.5z" />
<glyph unicode="&#x429;" horiz-adv-x="2109" d="M70 12.5q0 12.5 4 12.5q80 0 117.5 10t52 39.5t14.5 91.5v948q0 61 -14.5 90t-52 40t-117.5 11q-4 0 -4 12.5t4 12.5l102 -2q82 -4 135 -4q49 0 127 4l86 2q6 0 6 -12.5t-6 -12.5q-70 0 -102.5 -11t-43.5 -39.5t-11 -90.5v-944q0 -70 8 -92.5t38.5 -28.5t127.5 -6h264 q100 0 134 6t42 28.5t8 92.5v944q0 61 -11 90t-44 40t-103 11q-6 0 -6 12.5t6 12.5l87 -2q78 -4 126 -4q49 0 123 4l90 2q6 0 6.5 -12.5t-6.5 -12.5q-70 0 -103.5 -11t-44.5 -39.5t-11 -90.5v-948q0 -59 18.5 -85t58 -32t130.5 -6h231q100 0 134 6t42 28.5t8 92.5v944 q0 61 -11 90t-44 40t-102 11q-6 0 -6.5 12.5t6.5 12.5l86 -2q78 -4 127 -4q51 0 137 4l98 2q6 0 6 -12.5t-6 -12.5q-80 0 -118 -11t-52 -39.5t-14 -90.5v-948q0 -76 8 -101.5t37 -32.5t117 -7q14 0 17 -3.5t3 -21.5v-53q-4 -98 -4 -330q0 -10 -12.5 -10t-12.5 10 q0 143 -27.5 226t-89 120t-167.5 37h-1622q-4 0 -4 12.5z" />
<glyph unicode="&#x42a;" horiz-adv-x="1333" d="M53 965q8 72 18.5 187.5t10.5 172.5q0 10 11 10t11 -10q0 -23 21.5 -34t75.5 -15q66 -2 364 -2q59 0 146 4l94 2q4 0 4 -12.5t-4 -12.5q-80 0 -118 -12t-51 -42t-13 -91v-412q129 25 235 25q189 0 296.5 -76t107.5 -260q0 -117 -50.5 -207t-141.5 -139t-210 -49 q-51 0 -129 6q-29 2 -71 4t-93 2l-174 -2q-35 -2 -86 -2q-6 0 -6 12.5t6 12.5q90 0 132 11t58.5 39.5t16.5 90.5v948q0 72 -8 96.5t-39 30.5t-123 6q-129 0 -188.5 -61.5t-79.5 -220.5q-2 -6 -12.5 -5t-10.5 5zM623 166q0 -74 38.5 -107.5t157.5 -33.5q170 0 247 75.5 t77 233.5q0 190 -87 271t-245 81q-84 0 -188 -24v-496z" />
<glyph unicode="&#x42b;" horiz-adv-x="1724" d="M86 12.5q0 12.5 4 12.5q82 0 120 10t52 39.5t14 91.5v948q0 61 -13 90t-51 40t-118 11q-6 0 -6 12.5t6 12.5l96 -2q86 -4 136 -4q59 0 145 4l94 2q6 0 6 -12.5t-6 -12.5q-80 0 -117.5 -12t-51 -42t-13.5 -91v-412q129 25 235 25q189 0 296.5 -76t107.5 -260 q0 -117 -50 -207t-141.5 -139t-209.5 -49q-53 0 -127 6q-31 2 -73 4t-93 2l-135 -2q-37 -2 -103 -2q-4 0 -4 12.5zM383 166q0 -74 39 -107.5t158 -33.5q170 0 246.5 75.5t76.5 233.5q0 190 -87 271t-243 81q-86 0 -190 -24v-496zM1141 12.5q0 12.5 6 12.5q80 0 118 10 t52 39.5t14 91.5v948q0 61 -14 90t-52 40t-118 11q-6 0 -6 12.5t6 12.5l100 -2q86 -4 137 -4q57 0 144 4l96 2q4 0 4 -12.5t-4 -12.5q-80 0 -118 -12t-51 -42t-13 -91v-944q0 -63 13 -92t50 -39t119 -10q4 0 4 -12.5t-4 -12.5q-61 0 -96 2l-144 2l-137 -2q-37 -2 -100 -2 q-6 0 -6 12.5z" />
<glyph unicode="&#x42c;" horiz-adv-x="1095" d="M86 12.5q0 12.5 4 12.5q82 0 120 10t52 39.5t14 91.5v948q0 61 -13 90t-51 40t-118 11q-6 0 -6 12.5t6 12.5l96 -2q86 -4 136 -4q59 0 145 4l94 2q6 0 6 -12.5t-6 -12.5q-80 0 -117.5 -12t-51 -42t-13.5 -91v-412q129 25 235 25q189 0 296.5 -76t107.5 -260 q0 -117 -50 -207t-141.5 -139t-209.5 -49q-53 0 -127 6q-31 2 -73 4t-93 2l-135 -2q-37 -2 -103 -2q-4 0 -4 12.5zM383 166q0 -74 39 -107.5t158 -33.5q170 0 246.5 75.5t76.5 233.5q0 190 -87 271t-243 81q-86 0 -190 -24v-496z" />
<glyph unicode="&#x42d;" d="M88 315q0 6 11.5 8.5t13.5 -4.5q41 -156 162.5 -224t283.5 -68q250 0 373 149.5t123 421.5q0 35 -2 51h-314q-102 0 -157.5 -15.5t-80 -56t-24.5 -116.5q0 -6 -12 -6t-12 6l2 207q0 61 -2 90l-2 94q0 6 12 6t12 -6q4 -84 64.5 -124t208.5 -40h303q-14 182 -84 315.5 t-179.5 205t-244.5 71.5q-137 0 -251 -78t-175 -233q-2 -8 -12.5 -6t-10.5 8l29 217q4 25 8 33t23 16q197 66 397 66q221 0 361.5 -87.5t203 -228.5t62.5 -311q0 -215 -94.5 -374t-250 -243t-337.5 -84q-92 0 -193.5 20.5t-161.5 57.5q-18 10 -22 17.5t-6 29.5z" />
<glyph unicode="&#x42e;" horiz-adv-x="2115" d="M70 12.5q0 12.5 4 12.5q80 0 117.5 10t52 39.5t14.5 91.5v948q0 61 -13.5 90t-51 40t-117.5 11q-4 0 -4 12.5t4 12.5l100 -2q86 -4 135 -4q55 0 142 4l96 2q4 0 4 -12.5t-4 -12.5q-80 0 -118 -12t-51 -42t-13 -91v-424h329q12 197 117 336t261.5 210t318.5 71 q186 0 327.5 -91.5t218 -241t76.5 -317.5q0 -186 -95 -341.5t-255 -246t-346 -90.5q-184 0 -326.5 89.5t-220.5 242t-78 332.5v8h-327v-481q0 -63 13 -92t50 -39t119 -10q4 0 4 -12.5t-4 -12.5q-61 0 -98 2l-140 2l-135 -2q-37 -2 -102 -2q-4 0 -4 12.5zM827 709 q0 -190 72 -349t201 -251.5t295 -92.5q137 0 247.5 68t175 199t64.5 313q0 193 -71.5 343.5t-202.5 234t-303 83.5q-225 0 -351.5 -146t-126.5 -402z" />
<glyph unicode="&#x42f;" horiz-adv-x="1202" d="M-24.5 12.5q-0.5 12.5 6.5 12.5q113 2 198.5 86t190.5 274q76 135 137 196.5t141 82.5q-174 14 -265 96t-91 211q0 92 47 163.5t128 111.5t183 40q47 0 109 -6q25 -2 57.5 -4t71.5 -2q49 0 135 4l100 2q4 0 4 -12.5t-4 -12.5q-80 0 -117.5 -11t-51 -39.5t-13.5 -90.5 v-948q0 -61 14.5 -91t52.5 -40t117 -10q4 0 4 -12.5t-4 -12.5q-66 0 -102 2l-135 2l-139 -2q-37 -2 -99 -2q-4 0 -4 12.5t4 12.5q82 0 119 10t50.5 38.5t13.5 92.5v498q-74 -2 -124.5 -27t-105.5 -91.5t-135 -201.5q-100 -172 -154.5 -245.5t-78 -86t-58.5 -12.5h-196 q-6 0 -6.5 12.5zM408 1022q0 -150 87 -241t250 -91q45 0 89 6v414q0 82 -52.5 116t-132.5 34q-242 0 -241 -238z" />
<glyph unicode="&#x430;" horiz-adv-x="1003" d="M76 328q0 147 69.5 258.5t175 171t205.5 59.5q55 0 107.5 -17.5t93.5 -45.5q33 18 49 53q2 2 10.5 1t8.5 -5v-586q0 -70 17 -101.5t58 -31.5q20 0 50 9t65 22h4q8 0 10 -9.5t-6 -11.5l-227 -108l-8 -2q-18 0 -38 52t-20 126q-74 -82 -154.5 -131t-176.5 -49 q-125 0 -209 91t-84 255zM193 385q0 -154 63 -250t172 -96q129 0 272 156v409q0 74 -69.5 124t-155.5 50q-125 0 -203.5 -109.5t-78.5 -283.5z" />
<glyph unicode="&#x431;" horiz-adv-x="964" d="M86 471q0 248 53.5 407.5t149.5 253t243 152.5l46 19q96 37 152 73.5t87 108.5q2 8 13.5 5t7.5 -9q-18 -92 -54 -144.5t-83.5 -80t-135.5 -62.5l-39 -16q-182 -74 -280.5 -218.5t-120.5 -408.5q53 139 165.5 190.5t203.5 51.5q139 0 228 -59.5t128 -148.5t39 -186 q0 -129 -58.5 -225t-158 -148.5t-215.5 -52.5q-98 0 -182.5 52.5t-136.5 164t-52 281.5zM211 414q0 -174 79 -289t224 -115q119 0 188.5 81t69.5 253q0 117 -38 212t-106.5 149.5t-158.5 54.5q-121 0 -189.5 -102.5t-68.5 -243.5z" />
<glyph unicode="&#x432;" horiz-adv-x="915" d="M80 637q0 502 137 675t320 173q244 0 243 -234q0 -139 -84 -266t-209 -194q101 -9 181 -64t125 -145t45 -203t-45 -205t-133.5 -146.5t-210.5 -54.5q-131 0 -211 66.5t-119 212t-39 385.5zM188 688q0 -258 35 -406.5t103.5 -209t177.5 -60.5q123 0 184.5 76t61.5 223 q0 203 -125 313.5t-353 110.5q-55 0 -84 -2v-45zM188 770q27 -2 82 -2q121 0 217.5 58.5t149.5 155.5t53 208q0 115 -50 189.5t-148 74.5q-286 0 -304 -684z" />
<glyph unicode="&#x433;" horiz-adv-x="665" d="M94 172q0 80 46 125t139 90q66 37 104.5 64.5t66 71.5t27.5 108q0 68 -32.5 104.5t-94.5 36.5q-76 0 -137 -52t-94 -165q0 -2 -8 -2q-16 0 -15 8l64 273q4 4 8 4q6 0 12 -3.5t4 -5.5q-2 -8 -2 -22q0 -20 10.5 -29.5t22.5 -9.5t57 16q41 16 73 24.5t73 8.5q84 0 129 -44 t45 -120q0 -61 -28.5 -105t-69.5 -71.5t-111 -66.5q-96 -51 -140 -91t-44 -108q0 -76 58 -125t138 -49q63 0 123 34.5t100 102.5q2 4 9 4q6 0 10 -6t0 -12q-53 -88 -133 -133t-174 -45t-165 46t-71 144z" />
<glyph unicode="&#x434;" horiz-adv-x="952" d="M76 328q0 147 69.5 258.5t175 171t205.5 59.5q55 0 107.5 -17.5t93.5 -45.5q33 18 49 53q2 2 10.5 1t8.5 -5v-946q0 -197 -106.5 -314.5t-295.5 -117.5q-121 0 -195.5 45t-74.5 108q0 29 15.5 43t35.5 14q23 0 39 -13t37 -42q43 -53 88 -82.5t131 -29.5q106 0 168.5 71.5 t62.5 267.5v355q-74 -82 -154.5 -131t-176.5 -49q-125 0 -209 91t-84 255zM193 385q0 -154 63 -250t172 -96q129 0 272 156v409q0 74 -69.5 124t-155.5 50q-125 0 -203.5 -109.5t-78.5 -283.5z" />
<glyph unicode="&#x435;" horiz-adv-x="829" d="M76 369q0 123 57 223t156.5 158.5t220.5 58.5q106 0 165.5 -54.5t59.5 -148.5q0 -25 -5 -35t-19 -10l-508 -2q-10 -57 -10 -113q0 -180 87 -292.5t238 -112.5q121 0 213 70h2q6 0 11.5 -7.5t0.5 -13.5q-135 -115 -292 -115q-119 0 -205 55.5t-129 144.5t-43 194zM209 582 l403 10q0 84 -47 130t-125 46q-90 0 -148.5 -48t-82.5 -138z" />
<glyph unicode="&#x436;" horiz-adv-x="1345" d="M10 12.5q0 12.5 4 12.5q72 2 112 35.5t99 117.5q10 12 20.5 27.5t22.5 32.5q80 109 109 141.5t63 42.5l-96 125q-96 125 -159.5 172t-157.5 47q-6 0 -6.5 12.5t6.5 12.5q37 0 57 -3l100 -2q49 0 78 1t47 1q23 2 70 3q4 0 4 -12.5t-4 -12.5q-49 0 -70.5 -7t-21.5 -30 t22.5 -62.5t75.5 -115.5l68 -125q16 4 57 4l115 -4v803q0 76 -14.5 108.5t-51.5 32.5q-35 0 -98 -31h-4q-8 0 -11.5 10.5t5.5 12.5l251 123h5q4 0 9 -5t5 -10v-1044q25 0 61 4l58 2q25 0 34 -2l87 121q100 139 100 178q0 23 -21.5 30t-70.5 7q-6 0 -6 12.5t6 12.5 q47 0 67 -3q18 0 47 -1t78 -1l103 2q20 2 55 3q6 0 6 -12.5t-6 -12.5q-94 0 -157.5 -47t-160.5 -172l-96 -123q33 -12 59.5 -41t84.5 -107l28 -38q12 -16 22.5 -32t20.5 -28q59 -84 99.5 -117.5t111.5 -35.5q6 0 6 -12.5t-6 -12.5h-215q-12 0 -21.5 18.5t-33 58.5t-78.5 120 q-68 100 -99.5 137t-65.5 49t-97 8v-225q0 -63 10 -92t38 -39t89 -10q4 0 4 -12.5t-4 -12.5q-53 0 -84 2l-104 2l-101 -2q-29 -2 -77 -2q-6 0 -6.5 12.5t6.5 12.5q59 0 86.5 10t37 39.5t9.5 91.5v225q-63 4 -98 -8t-67 -50t-98 -136q-47 -68 -73.5 -111t-37.5 -64.5 t-24 -21.5h-213q-4 0 -4 12.5z" />
<glyph unicode="&#x437;" horiz-adv-x="827" d="M45 -414q0 29 16.5 42.5t36.5 13.5q23 0 40.5 -14.5t47.5 -49.5q45 -55 93.5 -88t130.5 -33q125 0 184 102.5t59 254.5q0 358 -403 358q-8 0 -10 12.5t10 12.5q186 0 263 79.5t77 223.5q0 131 -58.5 203.5t-179.5 72.5q-104 0 -171.5 -59.5t-104.5 -188.5q0 -2 -8 -2 q-16 0 -15 9l76 299q0 4 8 4q6 0 12.5 -3.5t4.5 -5.5q-4 -16 -4 -22q0 -20 11 -29.5t23 -9.5t66 16q98 33 170 33q133 0 207.5 -79t74.5 -195q0 -111 -62 -207t-171 -139q98 -4 169 -55.5t106.5 -131.5t35.5 -170q0 -119 -54 -213t-152.5 -148t-225.5 -54q-88 0 -156.5 22.5 t-107.5 59t-39 79.5z" />
<glyph unicode="&#x438;" horiz-adv-x="1003" d="M7 698.5q-3 10.5 5 12.5l215 96l9 2q4 0 10 -4t6 -10v-498q0 -123 43 -182.5t129 -59.5q72 0 145.5 38t132.5 106v354q0 84 -13 120t-48 36q-31 0 -74 -21h-4q-8 0 -10 10.5t6 12.5l215 96l6 2q6 0 11.5 -4t5.5 -10v-580q0 -70 17 -101.5t58 -31.5q20 0 50 9t65 22h4 q8 0 11.5 -9.5t-5.5 -13.5l-229 -106l-8 -2q-18 0 -38 46t-20 117v19q-84 -94 -165.5 -136t-167.5 -42q-100 0 -156.5 63.5t-56.5 186.5v317q0 84 -13.5 120t-46.5 36q-31 0 -73 -21h-5q-8 0 -11 10.5z" />
<glyph unicode="&#x439;" horiz-adv-x="1003" d="M7 698.5q-3 10.5 5 12.5l215 96l9 2q4 0 10 -4t6 -10v-498q0 -123 43 -182.5t129 -59.5q72 0 145.5 38t132.5 106v354q0 84 -13 120t-48 36q-31 0 -74 -21h-4q-8 0 -10 10.5t6 12.5l215 96l6 2q6 0 11.5 -4t5.5 -10v-580q0 -70 17 -101.5t58 -31.5q20 0 50 9t65 22h4 q8 0 11.5 -9.5t-5.5 -13.5l-229 -106l-8 -2q-18 0 -38 46t-20 117v19q-84 -94 -165.5 -136t-167.5 -42q-100 0 -156.5 63.5t-56.5 186.5v317q0 84 -13.5 120t-46.5 36q-31 0 -73 -21h-5q-8 0 -11 10.5zM229 1139q0 53 52 53q35 0 50 -21.5t27 -70.5q10 -43 20.5 -65.5 t35 -41t69.5 -18.5q61 0 88 33.5t41 91.5q12 45 27.5 68.5t48.5 23.5q53 0 53 -57q0 -47 -36.5 -90.5t-96 -69t-123.5 -25.5q-65 0 -124.5 27t-95.5 71t-36 91z" />
<glyph unicode="&#x43a;" horiz-adv-x="933" d="M9 1349.5q-3 10.5 5 12.5l246 121l10 2q4 0 9.5 -4t5.5 -11v-1044q80 6 135 6q31 0 55.5 24.5t48.5 69.5l37 74q41 80 65.5 120t56.5 64.5t77 24.5q41 0 63.5 -19.5t22.5 -46.5q0 -29 -20.5 -49t-53.5 -20q-23 0 -45 13t-33 13q-23 0 -62.5 -56t-78.5 -126 q-37 -68 -68 -92q33 -10 60.5 -39t85.5 -104l35 -45q12 -16 22 -32t21 -28q59 -84 99 -117.5t112 -35.5q6 0 6 -12.5t-6 -12.5h-220q-12 0 -22 18.5t-32.5 58.5t-80.5 120q-68 92 -97.5 127.5t-60 51t-79.5 15.5l-43 -2v-223q0 -61 10 -91t37.5 -40t87.5 -10q4 0 4 -12.5 t-4 -12.5q-51 0 -80 2l-100 2l-107 -2q-29 -2 -80 -2q-6 0 -6 12.5t6 12.5q61 0 89 10t37 39.5t9 91.5v1063q0 76 -14 108.5t-51 32.5q-35 0 -98 -31h-5q-8 0 -11 10.5z" />
<glyph unicode="&#x43b;" horiz-adv-x="931" d="M2 12.5q0 12.5 8 12.5q37 0 78 51t105 194l235 551q4 8 13.5 8t11.5 -8l254 -540q55 -119 83.5 -168.5t57.5 -68.5t74 -19q10 0 10 -12.5t-10 -12.5q-31 0 -93 4q-61 4 -92 4q-27 0 -80 -4q-57 -4 -77 -4q-8 0 -8.5 12.5t8.5 12.5q35 0 58.5 17t23.5 54q0 33 -21 76 l-229 487l-172 -407q-37 -86 -37 -139q0 -88 96 -88q10 0 10 -12.5t-10 -12.5q-23 0 -59 4q-45 4 -82 4q-41 0 -82 -4q-37 -4 -66 -4q-8 0 -8 12.5z" />
<glyph unicode="&#x43c;" horiz-adv-x="1148" d="M18.5 12.5q-0.5 12.5 6.5 12.5q72 0 99.5 40.5t35.5 147.5l53 590q0 10 20 10q14 0 17 -4l338 -672l284 668q4 10 19 10q8 0 15 -4t9 -10l72 -635q8 -68 17.5 -94.5t35 -36.5t84.5 -10q4 0 4 -12.5t-4 -12.5q-53 0 -84 2l-98 2l-94 -2q-25 -2 -68 -2q-4 0 -4 12.5t4 12.5 q63 0 89 18t26 72q0 10 -4 51l-62 434l-256 -600q-2 -8 -16 -8q-10 0 -16 8l-295 592l-45 -379q-4 -37 -4 -49q0 -74 32.5 -106.5t100.5 -32.5q6 0 6 -12.5t-6 -12.5q-43 0 -66 2l-84 2l-86 -2q-25 -2 -69 -2q-6 0 -6.5 12.5z" />
<glyph unicode="&#x43d;" horiz-adv-x="1034" d="M52 698.5q-3 10.5 5 12.5l215 96l9 2q4 0 10 -4t6 -10v-381h455v139q0 84 -13.5 120t-46.5 36q-23 0 -74 -21h-4q-8 0 -11 10.5t5 12.5l215 96l8 2q4 0 10.5 -4t6.5 -10v-629q0 -61 9 -91t37 -40t89 -10q4 0 4 -12.5t-4 -12.5q-51 0 -80 2l-100 2l-109 -2q-29 -2 -78 -2 q-6 0 -6 12.5t6 12.5q59 0 87 10t38.5 39.5t10.5 91.5v211h-455v-211q0 -61 9 -91t37 -40t89 -10q4 0 4 -12.5t-4 -12.5q-51 0 -80 2l-100 2l-107 -2q-29 -2 -79 -2q-6 0 -6.5 12.5t6.5 12.5q61 0 88.5 10t37 39.5t9.5 91.5v387q0 84 -13.5 120t-46.5 36q-23 0 -73 -21h-5 q-8 0 -11 10.5z" />
<glyph unicode="&#x43e;" horiz-adv-x="976" d="M76 406q0 133 64.5 226t163.5 139t204 46q119 0 208 -59.5t137 -156.5t48 -206q0 -127 -58.5 -223t-156.5 -147.5t-215 -51.5t-207 58.5t-139 158t-49 216.5zM193 465q0 -123 43 -226.5t118.5 -166t173.5 -62.5q119 0 186.5 80t67.5 252q0 123 -43 222.5t-120.5 156.5 t-178.5 57q-117 0 -182 -81t-65 -232z" />
<glyph unicode="&#x43f;" horiz-adv-x="1054" d="M23.5 687q-3.5 9 5.5 13l227 107q4 2 10 2q16 0 37 -46t21 -118v-8q82 94 157.5 137t157.5 43q115 0 175 -61.5t60 -186.5v-403q0 -61 9.5 -91t37 -40t87.5 -10q6 0 6 -12.5t-6 -12.5q-47 0 -74 2l-107 2l-108 -2q-27 -2 -74 -2q-6 0 -6 12.5t6 12.5q59 0 86 10t37 39.5 t10 91.5v342q0 125 -47 182.5t-147 57.5q-66 0 -134.5 -38t-125.5 -104v-440q0 -61 9 -91t36.5 -40t87.5 -10q6 0 6 -12.5t-6 -12.5q-47 0 -74 2l-107 2l-108 -2q-27 -2 -74 -2q-6 0 -6 12.5t6 12.5q59 0 86 10t37 39.5t10 91.5v409q0 72 -16 103t-57 31q-33 0 -115 -31h-4 q-8 0 -11.5 9z" />
<glyph unicode="&#x440;" horiz-adv-x="1044" d="M-3 689q-3 9 5 13l211 101l16 4q31 0 49.5 -46t18.5 -132q92 98 178 143t176 45q84 0 156 -45t114 -130t42 -202q0 -152 -70 -257t-172.5 -157.5t-196.5 -52.5q-68 0 -121 14.5t-106 51.5v-436q0 -61 16.5 -90t59.5 -40.5t135 -11.5q4 0 4 -12t-4 -12q-70 0 -109 2 l-147 2l-111 -2q-27 -2 -73 -2q-6 0 -6.5 12t6.5 12q57 0 84.5 11.5t38 40t10.5 90.5v966q0 76 -16.5 109t-59.5 33q-49 0 -113 -31h-4q-8 0 -11 9zM297 152q59 -68 128 -103t167 -35q72 0 131 44t93 126t34 193q0 176 -77 274.5t-195 98.5q-78 0 -144.5 -40t-136.5 -114 v-444z" />
<glyph unicode="&#x441;" horiz-adv-x="833" d="M76 379q0 131 64.5 228.5t166 149.5t207.5 52q88 0 161 -35t73 -82q0 -25 -16.5 -42t-43.5 -17q-47 0 -82 57q-27 39 -62.5 58.5t-94.5 19.5q-123 0 -189.5 -89t-66.5 -241q0 -172 88 -285.5t262 -113.5q131 0 211 72h4q6 0 11 -6.5t-1 -10.5q-70 -61 -141.5 -90 t-155.5 -29q-131 0 -220 58.5t-132 150.5t-43 195z" />
<glyph unicode="&#x442;" horiz-adv-x="1556" d="M23.5 687q-3.5 9 5.5 13l227 107q4 2 10 2q16 0 37 -46t21 -118v-8q76 92 149.5 133t153.5 41q92 0 148 -46t71 -136q78 96 153.5 139t155.5 43q109 0 166 -61.5t57 -186.5v-397q0 -61 9.5 -91t37 -40t86.5 -10q7 0 7 -12.5t-7 -12.5q-47 0 -73 2l-109 2l-106 -2 q-29 -2 -76 -2q-4 0 -4 12.5t4 12.5q59 0 87 10t38 39.5t10 91.5v334q0 125 -44 184t-138 59q-63 0 -130 -37.5t-122 -105.5q2 -10 2 -37v-397q0 -61 10 -91t38 -40t87 -10q4 0 4 -12.5t-4 -12.5q-47 0 -76 2l-106 2l-109 -2q-27 -2 -73 -2q-6 0 -6.5 12.5t6.5 12.5 q59 0 85.5 10t37 39.5t10.5 91.5v334q0 125 -44 184t-137 59q-63 0 -128.5 -36.5t-120.5 -104.5v-436q0 -61 9 -91t36.5 -40t87.5 -10q6 0 6 -12.5t-6 -12.5q-47 0 -74 2l-107 2l-108 -2q-27 -2 -74 -2q-6 0 -6 12.5t6 12.5q59 0 86 10t37 39.5t10 91.5v409q0 72 -16 103 t-57 31q-33 0 -115 -31h-4q-8 0 -11.5 9z" />
<glyph unicode="&#x443;" horiz-adv-x="894" d="M-70 -500q0 23 16.5 37t39.5 14q43 0 84 -24q18 -12 33.5 -17.5t37.5 -5.5q51 0 96.5 45t97.5 149.5t124 295.5l-307 627q-47 90 -72 117.5t-64 27.5q-4 0 -4 12.5t4 12.5q43 0 64 -3l63 -2l127 2q29 2 80 3q4 0 4 -12.5t-4 -12.5q-123 0 -123 -49q0 -14 9 -31l278 -569 l174 499q16 45 17 74q0 43 -38 59.5t-128 16.5q-4 0 -4 12.5t4 12.5q55 0 84 -3l122 -2l72 2q18 2 62 3q6 0 6 -12.5t-6 -12.5q-49 0 -84 -30.5t-64 -110.5l-256 -682q-76 -199 -142.5 -310.5t-138 -159.5t-165.5 -48q-41 0 -70 19t-29 56z" />
<glyph unicode="&#x444;" horiz-adv-x="1290" d="M76 362q0 154 54 256.5t134 150.5t156 48q98 0 178 -104v516q0 76 -14.5 108.5t-51.5 32.5q-33 0 -98 -31h-4q-8 0 -11 10.5t5 12.5l250 121l8 2q4 0 9 -4t5 -11v-811q139 158 269 158q70 0 127 -48t89.5 -136t32.5 -205q0 -154 -54 -256t-134 -150.5t-154 -48.5 q-100 1 -176 101v-471q0 -61 14.5 -90t53.5 -40.5t125 -11.5q4 0 4 -12t-4 -12q-68 0 -105 2l-135 2l-149 -2q-39 -2 -107 -2q-6 0 -6 12t6 12q88 0 131 11.5t58.5 40t15.5 90.5v530q-145 -160 -272 -160q-70 0 -127.5 48.5t-90 136.5t-32.5 204zM182 436 q0 -182 59.5 -288.5t153.5 -106.5q99 0 203 125v442q-45 76 -104.5 122t-122.5 46q-90 0 -139.5 -90t-49.5 -250zM696 176q45 -74 103.5 -118t120.5 -44q92 0 141 90.5t49 249.5q0 182 -60.5 289t-154.5 107q-55 0 -103.5 -33t-95.5 -88v-453z" />
<glyph unicode="&#x445;" horiz-adv-x="899" d="M27 12.5q0 12.5 4 12.5q51 0 111.5 35.5t109.5 105.5l151 211l-161 244q-51 78 -106.5 111.5t-102.5 33.5q-4 0 -4 12.5t4 12.5q43 0 63 -3l64 -2l129 2q29 2 78 3q4 0 4 -12.5t-4 -12.5q-39 0 -56.5 -5t-17.5 -20q0 -12 26 -55l148 -223l117 174q43 59 43 86 q0 23 -29 33t-98 10q-4 0 -4 12.5t4 12.5q55 0 84 -3l123 -2l71 2q20 2 64 3q4 0 4 -12.5t-4 -12.5q-53 0 -110.5 -34t-110.5 -107l-138 -187l179 -268q51 -78 106 -111.5t102 -33.5q4 0 4 -12.5t-4 -12.5l-65 2q-20 2 -62 2l-129 -2q-29 -2 -77 -2q-6 0 -6.5 12.5t6.5 12.5 q39 0 56 5t17 19q0 12 -26 55l-162 244l-135 -194q-16 -25 -27.5 -46.5t-11.5 -37.5q0 -45 123 -45q6 0 6 -12.5t-6 -12.5q-55 0 -82 2l-123 2l-72 -2q-20 -2 -63 -2q-4 0 -4 12.5z" />
<glyph unicode="&#x446;" horiz-adv-x="983" d="M7 698.5q-3 10.5 5 12.5l215 96l9 2q4 0 10 -4t6 -10v-498q0 -123 43 -182.5t129 -59.5q72 0 145.5 38t132.5 106v354q0 84 -13 120t-48 36q-31 0 -74 -21h-4q-8 0 -10 10.5t6 12.5l215 96l6 2q6 0 11.5 -4t5.5 -10v-572q0 -106 31.5 -152t107.5 -46q16 0 18 -3.5 t2 -21.5t-5 -73.5t-5 -190.5q0 -10 -12 -10t-12 10q0 150 -53.5 207t-147.5 57q-12 0 -15.5 30.5t-3.5 123.5v10q-84 -94 -165.5 -136t-167.5 -42q-100 0 -156.5 63.5t-56.5 186.5v317q0 84 -13.5 120t-46.5 36q-31 0 -73 -21h-5q-8 0 -11 10.5z" />
<glyph unicode="&#x447;" horiz-adv-x="860" d="M-24.5 698.5q-2.5 10.5 6.5 12.5l213 96l6 2q6 0 11 -4t5 -10v-254q0 -98 44 -150.5t118 -52.5q53 0 104.5 18.5t94.5 49.5v147q0 84 -13.5 120t-46.5 36q-20 0 -76 -21h-4q-6 0 -9 10.5t5 12.5l215 96l6 2q6 0 12.5 -4t6.5 -10v-629q0 -61 9 -91t37 -40t87 -10 q6 0 6 -12.5t-6 -12.5q-49 0 -78 2l-102 2l-105 -2q-31 -2 -82 -2q-4 0 -4 12.5t4 12.5q59 0 88 10t39.5 39.5t10.5 91.5v207q-123 -100 -263 -101q-94 0 -142 57.5t-48 166.5q0 102 -12.5 157.5t-46.5 55.5q-20 0 -76 -21h-4q-8 0 -10.5 10.5z" />
<glyph unicode="&#x448;" horiz-adv-x="1511" d="M7 698.5q-3 10.5 5 12.5l215 96l9 2q4 0 10 -4t6 -10v-504q0 -125 44 -184.5t138 -59.5q63 0 129 38t121 103q-2 12 -2 39v326q0 84 -13.5 120t-45.5 36q-23 0 -74 -21h-4q-8 0 -11.5 10.5t5.5 12.5l215 96l8 2q4 0 10 -4t6 -10v-504q0 -125 44 -184.5t139 -59.5 q63 0 128.5 38t120.5 103v365q0 84 -13 120t-48 36q-23 0 -74 -21h-4q-8 0 -10 9.5t4 13.5l217 96l6 2q6 0 11.5 -4t5.5 -10v-580q0 -70 17 -101.5t58 -31.5q20 0 50 9t65 22h4q8 0 11 -9.5t-5 -13.5l-229 -106l-8 -2q-18 0 -38 46t-20 117v11q-78 -94 -152.5 -136.5 t-152.5 -42.5q-92 0 -147.5 46.5t-69.5 136.5q-80 -94 -155.5 -138.5t-153.5 -44.5q-109 0 -166 62.5t-57 187.5v326q0 84 -13.5 120t-46.5 36q-31 0 -73 -21h-5q-8 0 -11 10.5z" />
<glyph unicode="&#x449;" horiz-adv-x="1507" d="M7 698.5q-3 10.5 5 12.5l215 96l9 2q4 0 10 -4t6 -10v-504q0 -125 44 -184.5t138 -59.5q63 0 129 38t121 103q-2 12 -2 39v326q0 84 -13.5 120t-45.5 36q-23 0 -74 -21h-4q-8 0 -11.5 10.5t5.5 12.5l215 96l8 2q4 0 10 -4t6 -10v-504q0 -125 44 -184.5t139 -59.5 q63 0 128.5 38t120.5 103v365q0 84 -13 120t-48 36q-23 0 -74 -21h-4q-8 0 -10 9.5t4 13.5l217 96l6 2q6 0 11.5 -4t5.5 -10v-572q0 -106 31.5 -152t107.5 -46q16 0 18 -3.5t2 -21.5t-5 -73.5t-5 -190.5q0 -10 -12 -10t-12 10q0 150 -53.5 207t-147.5 57q-12 0 -15.5 30.5 t-3.5 123.5v2q-78 -94 -152.5 -136.5t-152.5 -42.5q-92 0 -147.5 46.5t-69.5 136.5q-80 -94 -155.5 -138.5t-153.5 -44.5q-109 0 -166 62.5t-57 187.5v326q0 84 -13.5 120t-46.5 36q-31 0 -73 -21h-5q-8 0 -11 10.5z" />
<glyph unicode="&#x44a;" horiz-adv-x="929" d="M43 829q0 10 12.5 10.5t12.5 -10.5q0 -29 44 -36t138 -7q43 0 69 2l119 3q6 0 6 -12.5t-6 -12.5q-25 0 -32 -28.5t-7 -116.5v-193q98 35 209 35q140 0 206.5 -53.5t66.5 -165.5q0 -129 -86 -200t-236 -71q-125 0 -189.5 50.5t-64.5 144.5v457q0 61 -3 84.5t-18.5 33 t-54.5 9.5q-70 0 -114.5 -53.5t-44.5 -129.5q0 -4 -12.5 -4t-12.5 4zM399 211q0 -211 191 -211q182 0 182 197q0 104 -56.5 167.5t-176.5 63.5q-76 0 -140 -25v-192z" />
<glyph unicode="&#x44b;" d="M7 698.5q-3 10.5 5 12.5l215 96l9 2q4 0 10 -4t6 -10v-365q98 33 209 33q272 0 272 -217q0 -129 -87 -201t-236 -72q-125 0 -189.5 50.5t-64.5 144.5v385q0 84 -13.5 120t-46.5 36q-23 0 -73 -21h-5q-8 0 -11 10.5zM252 211q0 -211 186 -211q185 0 185 201 q0 102 -55.5 164.5t-176.5 62.5q-78 0 -139 -25v-192zM805 674q-4 10 4 14l254 119l8 2q4 0 9 -4t5 -10q0 -12 -2 -81t-2 -159v-389q0 -61 9.5 -91t37 -40t86.5 -10q7 0 7 -12.5t-7 -12.5q-47 0 -73 2l-109 2l-106 -2q-29 -2 -76 -2q-4 0 -4 12.5t4 12.5q59 0 87 10t38 39.5 t10 91.5v387q0 76 -15.5 108.5t-51.5 32.5q-39 0 -99 -30h-2q-8 0 -12 10z" />
<glyph unicode="&#x44c;" horiz-adv-x="780" d="M7 698.5q-3 10.5 5 12.5l215 96l9 2q4 0 10 -4t6 -10v-365q98 33 209 33q272 0 272 -217q0 -129 -87 -201t-236 -72q-125 0 -189.5 50.5t-64.5 144.5v385q0 84 -13.5 120t-46.5 36q-23 0 -73 -21h-5q-8 0 -11 10.5zM252 211q0 -211 186 -211q185 0 185 201 q0 102 -55.5 164.5t-176.5 62.5q-78 0 -139 -25v-192z" />
<glyph unicode="&#x44d;" horiz-adv-x="909" d="M102 252q0 6 11.5 7t13.5 -5q25 -119 100.5 -185.5t182.5 -66.5q88 0 157.5 47t109.5 131t40 193q-238 0 -393 -23q-12 0 -13 39q0 18 4 34.5t11 14.5q117 -20 292 -20h97q-10 156 -100.5 263t-241.5 107q-90 0 -147.5 -47t-94.5 -161q-2 -4 -13.5 -2t-8.5 6l45 274 q0 2 8 2q18 0 16 -8q-4 -16 -4 -23q0 -18 10.5 -27t24.5 -9q10 0 59 8q10 2 57.5 9t98.5 7q143 0 235.5 -63.5t133.5 -157.5t41 -190q0 -121 -60.5 -219.5t-164 -155t-228.5 -56.5q-63 0 -128 15.5t-103 42.5q-14 8 -18.5 14t-6.5 23z" />
<glyph unicode="&#x44e;" horiz-adv-x="1347" d="M9 1349.5q-3 10.5 5 12.5l246 121l10 2q4 0 9.5 -4t5.5 -11v-1056h211q6 129 68.5 220t154.5 137t190 46q109 0 192 -56t127 -149.5t44 -203.5q0 -125 -55.5 -224.5t-149.5 -155t-205 -55.5q-109 0 -190.5 53.5t-127.5 145.5t-48 205h-211v-211q0 -61 10 -91t37.5 -40 t87.5 -10q4 0 4 -12.5t-4 -12.5q-47 0 -76 2l-106 2l-109 -2q-27 -2 -74 -2q-6 0 -6 12.5t6 12.5q59 0 86 10t37 39.5t10 91.5v1063q0 76 -14 108.5t-51 32.5q-35 0 -98 -31h-5q-8 0 -11 10.5zM610 455q0 -125 39 -226.5t109.5 -160t161.5 -58.5q108 0 171.5 87t63.5 251 q0 131 -41 228.5t-111.5 149.5t-158.5 52q-113 0 -173.5 -86t-60.5 -237z" />
<glyph unicode="&#x44f;" horiz-adv-x="856" d="M0 12.5q0 12.5 4 12.5q63 0 101 39.5t63 85t33 57.5q39 68 94 117t117 63q-240 18 -240 197q0 98 68.5 155.5t183.5 57.5q23 0 88 -4q55 -6 100 -7l103 2q27 2 73 3q4 0 4.5 -12.5t-4.5 -12.5q-57 0 -84.5 -11.5t-39 -40t-11.5 -89.5v-459q0 -61 11.5 -90t40 -40 t86.5 -11q4 0 4 -12.5t-4 -12.5q-47 0 -74 2l-105 2l-108 -2q-29 -2 -80 -2q-4 0 -4 12.5t4 12.5q61 0 89 10t37 39.5t9 91.5v225q-82 -4 -141.5 -51t-130.5 -174q-63 -111 -83 -138.5t-38 -27.5h-162q-4 0 -4 12.5zM276 631q0 -99 49.5 -158t143.5 -59q33 0 90 8v199 q0 66 -11 96.5t-40 42.5t-86 12q-145 0 -146 -141z" />
<glyph unicode="&#x450;" horiz-adv-x="829" d="M76 369q0 123 57 223t156.5 158.5t220.5 58.5q106 0 165.5 -54.5t59.5 -148.5q0 -25 -5 -35t-19 -10l-508 -2q-10 -57 -10 -113q0 -180 87 -292.5t238 -112.5q121 0 213 70h2q6 0 11.5 -7.5t0.5 -13.5q-135 -115 -292 -115q-119 0 -205 55.5t-129 144.5t-43 194zM209 582 l403 10q0 84 -47 130t-125 46q-90 0 -148.5 -48t-82.5 -138zM274 1489q-4 10 22 7t54.5 -12t28.5 -18l115 -491q4 -4 -7.5 -7t-13.5 3z" />
<glyph unicode="&#x451;" horiz-adv-x="829" d="M76 369q0 123 57 223t156.5 158.5t220.5 58.5q106 0 165.5 -54.5t59.5 -148.5q0 -25 -5 -35t-19 -10l-508 -2q-10 -57 -10 -113q0 -180 87 -292.5t238 -112.5q121 0 213 70h2q6 0 11.5 -7.5t0.5 -13.5q-135 -115 -292 -115q-119 0 -205 55.5t-129 144.5t-43 194z M201 1063q0 37 21.5 57.5t60.5 20.5q37 0 57 -20.5t20 -57.5t-20.5 -57.5t-56.5 -20.5q-39 0 -60.5 20.5t-21.5 57.5zM209 582l403 10q0 84 -47 130t-125 46q-90 0 -148.5 -48t-82.5 -138zM559 1063q0 37 22.5 57.5t59.5 20.5q39 0 59.5 -20.5t20.5 -57.5t-20.5 -57.5 t-59.5 -20.5q-37 0 -59.5 20.5t-22.5 57.5z" />
<glyph unicode="&#x452;" horiz-adv-x="952" d="M9 1349.5q-3 10.5 5 12.5l252 123h4q6 0 10.5 -5t4.5 -10v-407h331q8 0 9 -19q0 -18 -9 -18h-331v-387q74 90 144.5 131t148.5 41q151 0 225 -121t74 -319q0 -158 -50.5 -338t-135.5 -339t-181 -257l-4 -2q-6 0 -11.5 7t-0.5 11q123 145 201.5 394t78.5 475 q0 190 -61.5 305.5t-190.5 115.5q-59 0 -121.5 -36.5t-115.5 -102.5v-438q0 -61 10 -91t37.5 -40t87.5 -10q4 0 4 -12.5t-4 -12.5q-47 0 -76 2l-106 2l-109 -2q-27 -2 -74 -2q-6 0 -6 12.5t6 12.5q59 0 86 10t37 39.5t10 91.5v860h-159q-8 0 -9 18q0 18 9 19h159v166 q0 76 -14 108.5t-51 32.5q-35 0 -98 -31h-5q-8 0 -11 10.5z" />
<glyph unicode="&#x453;" horiz-adv-x="761" d="M59.5 12.5q-0.5 12.5 6.5 12.5q61 0 88.5 10t37 39.5t9.5 91.5v459q0 61 -9.5 90.5t-37 40t-86.5 10.5q-6 0 -6.5 12.5t6.5 12.5h606q12 0 14 -3.5t2 -15.5q0 -41 -2 -72.5t-4 -54.5l-4 -121q0 -4 -12.5 -4t-12.5 4q0 133 -44 186.5t-156 53.5q-68 0 -100.5 -12.5 t-45 -42t-12.5 -88.5v-455q0 -61 9 -91t37 -40t89 -10q4 0 4 -12.5t-4 -12.5q-51 0 -80 2l-100 2l-107 -2q-29 -2 -79 -2q-6 0 -6.5 12.5zM354 975l117 491q2 8 29.5 17.5t53.5 12.5t21 -7l-198 -518q0 -4 -8 -4q-6 0 -11.5 3t-3.5 5z" />
<glyph unicode="&#x454;" horiz-adv-x="833" d="M76 379q0 131 64.5 228.5t166 149.5t207.5 52q90 0 162 -35t72 -86q0 -23 -16.5 -39t-43.5 -16q-47 0 -82 57q-27 39 -62.5 58.5t-94.5 19.5q-123 0 -189.5 -89t-66.5 -241v-18q227 0 382 18q4 0 7.5 -11t3.5 -24q0 -20 -4 -37.5t-13 -15.5q-92 16 -177 21.5t-197 5.5 q16 -150 103 -244t245 -94q131 0 211 72h4q6 0 11 -6.5t-1 -10.5q-70 -61 -141.5 -90t-155.5 -29q-131 0 -220 58.5t-132 150.5t-43 195z" />
<glyph unicode="&#x455;" horiz-adv-x="692" d="M100 213q0 6 11.5 7t13.5 -5q39 -102 99.5 -150.5t144.5 -48.5q70 0 106.5 31t36.5 90t-25.5 99t-63.5 65t-104 55q-68 33 -107.5 58.5t-67 68.5t-27.5 107q0 109 82 168t192 59q76 0 146 -31q12 -6 15 -10t3 -12q0 -39 -2 -62l-2 -79q0 -4 -12.5 -4.5t-12.5 4.5 q0 66 -67.5 109.5t-143.5 43.5q-55 0 -86.5 -29.5t-31.5 -87.5q0 -75 47 -117t143 -89q70 -35 111 -61.5t69.5 -68.5t28.5 -102q0 -102 -77 -173t-210 -71q-109 0 -192 64q-12 8 -13 25z" />
<glyph unicode="&#x456;" horiz-adv-x="563" d="M72 674q-4 10 4 14l254 119l8 2q4 0 9 -4t5 -10q0 -12 -2 -81t-2 -159v-389q0 -61 9.5 -91t37 -40t86.5 -10q6 0 6 -12.5t-6 -12.5q-47 0 -73 2l-109 2l-106 -2q-29 -2 -76 -2q-4 0 -4 12.5t4 12.5q59 0 86.5 10t38 39.5t10.5 91.5v387q0 76 -15.5 108.5t-52.5 32.5 q-39 0 -98 -30h-2q-8 0 -12 10zM201 1135q0 37 21.5 57t60.5 20q37 0 57 -20.5t20 -56.5q0 -37 -20.5 -57.5t-56.5 -20.5q-39 0 -60.5 20.5t-21.5 57.5z" />
<glyph unicode="&#x457;" horiz-adv-x="563" d="M57 1063q0 37 22.5 57.5t59.5 20.5q39 0 59.5 -20.5t20.5 -57.5t-20.5 -57.5t-59.5 -20.5q-37 0 -59.5 20.5t-22.5 57.5zM72 674q-4 10 4 14l254 119l8 2q4 0 9 -4t5 -10q0 -12 -2 -81t-2 -159v-389q0 -61 9.5 -91t37 -40t86.5 -10q6 0 6 -12.5t-6 -12.5q-47 0 -73 2 l-109 2l-106 -2q-29 -2 -76 -2q-4 0 -4 12.5t4 12.5q59 0 86.5 10t38 39.5t10.5 91.5v387q0 76 -15.5 108.5t-52.5 32.5q-39 0 -98 -30h-2q-8 0 -12 10zM346 1063q0 37 21.5 57.5t60.5 20.5q37 0 57.5 -20.5t20.5 -57.5t-20.5 -57.5t-57.5 -20.5q-39 0 -60.5 20.5 t-21.5 57.5z" />
<glyph unicode="&#x458;" horiz-adv-x="522" d="M47 -555q100 43 141 137t41 273v698q0 76 -14 108.5t-51 32.5q-39 0 -98 -30h-3q-10 0 -13 10t5 14l254 119l6 2q14 0 15 -14q0 -13 -2 -81.5t-2 -158.5v-653q0 -139 -25 -228.5t-83 -149t-161 -102.5q-4 -2 -9 9.5t-1 13.5zM178 1135q0 37 21.5 57t60.5 20 q37 0 57.5 -20.5t20.5 -56.5q0 -37 -20.5 -57.5t-57.5 -20.5q-39 0 -60.5 20.5t-21.5 57.5z" />
<glyph unicode="&#x459;" horiz-adv-x="1282" d="M29 45q0 29 16 47.5t41 18.5q12 0 25.5 -3.5t29.5 -3.5q74 0 123 88.5t73.5 218.5t24.5 257q0 43 -11 63.5t-43 27.5t-99 7q-6 0 -6 12.5t6 12.5h330h348q4 0 4 -12.5t-4 -12.5q-59 0 -86 -8t-38 -38t-11 -99v-193q96 35 223 35q129 0 193.5 -52.5t64.5 -160.5 q0 -111 -77 -182.5t-193 -71.5q-31 0 -117 4q-98 4 -139 4l-109 -2q-29 -2 -78 -2q-6 0 -6 12.5t6 12.5q59 0 87 10t38 39.5t10 91.5v459q0 70 -5 92t-23.5 28.5t-77.5 6.5h-10q-49 0 -73 -9.5t-33 -35t-15 -82.5q-23 -186 -50.5 -318.5t-89 -227.5t-163.5 -95 q-41 0 -63.5 16t-22.5 45zM752 166q0 -78 35.5 -108.5t140.5 -30.5q98 0 147 45t49 131q0 104 -54 164.5t-167 60.5q-88 0 -151 -25v-237z" />
<glyph unicode="&#x45a;" horiz-adv-x="1378" d="M59.5 12.5q-0.5 12.5 6.5 12.5q61 0 88.5 10t37 39.5t9.5 91.5v459q0 61 -9.5 90.5t-37 40t-86.5 10.5q-6 0 -6.5 12.5t6.5 12.5q49 0 77 -3l107 -2l102 2q29 2 78 3q4 0 4 -12.5t-4 -12.5q-59 0 -87 -12.5t-38 -42t-10 -90.5v-207h455v211q0 61 -9.5 90.5t-37 40 t-87.5 10.5q-6 0 -6 12.5t6 12.5q49 0 78 -3l107 -2l102 2q29 2 78 3q4 0 4 -12.5t-4 -12.5q-59 0 -87 -12.5t-38 -42t-10 -90.5v-205q27 2 57.5 6t44.5 6q16 2 53 6t68 4q129 0 193.5 -46t64.5 -142q0 -111 -76.5 -182.5t-193.5 -71.5q-29 0 -119 4q-98 4 -137 4l-109 -2 q-29 -2 -78 -2q-6 0 -6 12.5t6 12.5q59 0 87 10t38.5 39.5t10.5 91.5v211h-455v-211q0 -61 9 -91t37 -40t89 -10q4 0 4 -12.5t-4 -12.5q-51 0 -80 2l-100 2l-107 -2q-29 -2 -79 -2q-6 0 -6.5 12.5zM848 166q0 -78 35 -108.5t139 -30.5q98 0 147.5 45t49.5 131 q0 92 -51.5 144t-153.5 52q-27 0 -60.5 -4t-48.5 -6q-20 -4 -57 -8v-215z" />
<glyph unicode="&#x45b;" horiz-adv-x="1017" d="M9 1349.5q-3 10.5 5 12.5l252 123h4q14 0 15 -15v-407h331q8 0 9 -19q0 -18 -9 -18h-331v-393q82 94 158.5 136t158.5 42q113 0 173.5 -62.5t60.5 -185.5v-397q0 -61 10 -91t37.5 -40t87.5 -10q4 0 4 -12.5t-4 -12.5q-47 0 -76 2l-107 2l-108 -2q-27 -2 -74 -2 q-6 0 -6 12.5t6 12.5q59 0 86 10t37 39.5t10 91.5v334q0 125 -47 184t-145 59q-66 0 -135.5 -37.5t-126.5 -103.5v-436q0 -61 10 -91t37.5 -40t87.5 -10q4 0 4 -12.5t-4 -12.5q-47 0 -76 2l-106 2l-109 -2q-27 -2 -74 -2q-6 0 -6 12.5t6 12.5q59 0 86 10t37 39.5t10 91.5 v860h-159q-8 0 -9 18q0 18 9 19h159v166q0 76 -14 108.5t-51 32.5q-35 0 -98 -31h-5q-8 0 -11 10.5z" />
<glyph unicode="&#x45c;" horiz-adv-x="933" d="M59.5 12.5q-0.5 12.5 6.5 12.5q61 0 88.5 10t37 39.5t9.5 91.5v459q0 61 -9.5 90.5t-37 40t-86.5 10.5q-6 0 -6.5 12.5t6.5 12.5q49 0 77 -3l107 -2l115 2q33 2 88 3q6 0 6 -12.5t-6 -12.5q-70 0 -103 -12.5t-44 -42t-11 -90.5v-195q27 0 63 4l72 2q31 0 55.5 24.5 t49.5 69.5l41 82q55 111 93 156t101 45q41 0 63.5 -19.5t22.5 -46.5q0 -29 -20.5 -49t-55.5 -20q-20 0 -42.5 13t-32.5 13q-23 0 -63 -56t-79 -126q-37 -66 -65 -90q53 -10 89 -48t101 -142l27 -41q41 -68 65.5 -101t59.5 -51t90 -20q4 0 4 -12.5t-4 -12.5h-221 q-12 0 -18.5 11.5t-31 58.5t-71.5 127q-51 84 -86 124.5t-72 56t-94 15.5q-27 0 -41 -2v-225q0 -61 9 -91t37 -40t89 -10q4 0 4 -12.5t-4 -12.5q-51 0 -80 2l-100 2l-107 -2q-29 -2 -79 -2q-6 0 -6.5 12.5zM444 975l117 491q2 8 29.5 17.5t53.5 12.5t22 -7l-199 -518 q0 -4 -8 -4q-6 0 -11.5 3t-3.5 5z" />
<glyph unicode="&#x45d;" horiz-adv-x="1046" d="M59.5 12.5q-0.5 12.5 6.5 12.5q61 0 88.5 10t37 39.5t9.5 91.5v459q0 61 -9.5 90.5t-37 40t-86.5 10.5q-6 0 -6.5 12.5t6.5 12.5q49 0 77 -3l107 -2l102 2q29 2 78 3q4 0 4 -12.5t-4 -12.5q-59 0 -87 -12.5t-38 -42t-10 -90.5v-424l455 454q-2 49 -13.5 73t-38 33 t-82.5 9q-6 0 -6 12.5t6 12.5q49 0 78 -3l107 -2l102 2q29 2 78 3q4 0 4 -12.5t-4 -12.5q-59 0 -87 -12.5t-38 -42t-10 -90.5v-455q0 -61 9 -91t37 -40t89 -10q4 0 4 -12.5t-4 -12.5q-51 0 -80 2l-100 2l-109 -2q-29 -2 -78 -2q-6 0 -6 12.5t6 12.5q59 0 87 10t38.5 39.5 t10.5 91.5v432l-455 -455q2 -74 27.5 -96t107.5 -22q4 0 4 -12.5t-4 -12.5q-51 0 -80 2l-100 2l-107 -2q-29 -2 -79 -2q-6 0 -6.5 12.5zM342 1489q-4 10 21.5 7t54 -12t28.5 -18l115 -491q4 -4 -7 -7t-13 3z" />
<glyph unicode="&#x45e;" horiz-adv-x="894" d="M-70 -500q0 23 16.5 37t39.5 14q43 0 84 -24q18 -12 33.5 -17.5t37.5 -5.5q51 0 96.5 45t97.5 149.5t124 295.5l-307 627q-47 90 -72 117.5t-64 27.5q-4 0 -4 12.5t4 12.5q43 0 64 -3l63 -2l127 2q29 2 80 3q4 0 4 -12.5t-4 -12.5q-123 0 -123 -49q0 -14 9 -31l278 -569 l174 499q16 45 17 74q0 43 -38 59.5t-128 16.5q-4 0 -4 12.5t4 12.5q55 0 84 -3l122 -2l72 2q18 2 62 3q6 0 6 -12.5t-6 -12.5q-49 0 -84 -30.5t-64 -110.5l-256 -682q-76 -199 -142.5 -310.5t-138 -159.5t-165.5 -48q-41 0 -70 19t-29 56zM205 1139q0 53 51 53 q35 0 50.5 -21.5t27.5 -70.5q10 -43 20.5 -65.5t35 -41t69.5 -18.5q61 0 87.5 33.5t41.5 91.5q12 45 27.5 68.5t48.5 23.5q53 0 53 -57q0 -47 -37 -90.5t-96.5 -69t-122.5 -25.5q-66 0 -125.5 27t-95 71t-35.5 91z" />
<glyph unicode="&#x45f;" horiz-adv-x="1048" d="M59.5 12.5q-0.5 12.5 6.5 12.5q59 0 86.5 12t37 42t9.5 91v455q0 61 -9.5 90.5t-37 40t-86.5 10.5q-6 0 -6.5 12.5t6.5 12.5q49 0 77 -3l101 -2l106 2q31 2 82 3q4 0 4 -12.5t-4 -12.5q-61 0 -89 -10.5t-38 -40t-10 -90.5v-459q0 -70 5 -92.5t23.5 -28.5t77.5 -6h226 q61 0 80.5 6t24.5 29.5t5 95.5v455q0 61 -9 90.5t-36.5 40t-87.5 10.5q-6 0 -6 12.5t6 12.5q49 0 78 -3l100 -2l105 2q31 2 84 3q4 0 4 -12.5t-4 -12.5q-61 0 -89 -10.5t-38 -39t-10 -91.5v-459q0 -78 6 -103.5t33.5 -31.5t111.5 -6q4 0 4 -12.5t-4 -12.5h-330 q-49 0 -76.5 -21.5t-40 -78t-12.5 -164.5q0 -10 -11 -10t-11 10q0 110 -11.5 165.5t-40 77t-85.5 21.5h-301q-6 0 -6.5 12.5z" />
<glyph unicode="&#x462;" horiz-adv-x="1314" d="M53 969q8 72 18.5 184.5t10.5 171.5q0 10 11 10t11 -10q0 -45 109 -45q100 -6 254 -6v45q0 61 -13.5 91t-51 40t-117.5 10q-4 0 -4 12.5t4 12.5q63 0 98 -2l135 -2l144 2q35 2 96 2q4 0 4 -12.5t-4 -12.5q-80 0 -118 -12t-51.5 -42t-13.5 -91v-41l101 2q111 4 153 4 q74 0 109 10t45 41q2 8 12.5 8t10.5 -8q-6 -57 -12.5 -175t-6.5 -191q0 -4 -12 -4t-12 4q0 109 -22.5 168t-76 85.5t-149.5 26.5h-140v-536q139 14 201 14q201 0 319.5 -74t118.5 -256q0 -117 -51 -208t-143 -142t-211 -51q-49 0 -123 6q-29 2 -72 4t-94 2l-135 -2 q-37 -2 -102 -2q-4 0 -4 12.5t4 12.5q80 0 117.5 10t52 39.5t14.5 91.5v1079h-148q-117 0 -170 -61.5t-73 -218.5q0 -4 -8 -4q-4 0 -9.5 3t-5.5 5zM575 166q0 -74 39 -107.5t154 -33.5q174 0 251 77.5t77 235.5q0 190 -96.5 269t-266.5 79q-76 0 -158 -14v-506z" />
<glyph unicode="&#x463;" horiz-adv-x="929" d="M59 772q0 12 2 15.5t15 3.5l229 -5v443q0 74 -16.5 106.5t-52.5 32.5q-35 0 -103 -31h-4q-6 0 -9 10.5t5 12.5l252 123l8 2q4 0 9 -4t5 -11v-684l199 2q27 2 64 3q12 0 14 -3.5t2 -15.5q0 -41 -2 -72.5t-4 -54.5l-4 -123q0 -6 -11.5 -6t-11.5 6q0 240 -203 240h-43v-334 q96 35 224 35q129 0 193.5 -52.5t64.5 -160.5q0 -111 -77 -182.5t-194 -71.5q-29 0 -114 4q-98 4 -142 4l-118 -2q-33 -2 -93 -2q-4 0 -4 12.5t4 12.5q72 0 106 10t45 39.5t11 91.5v596h-35q-98 0 -137 -53.5t-39 -186.5q0 -6 -12 -6t-12 6l-4 123q-2 23 -4.5 54.5 t-2.5 72.5zM399 166q0 -78 36 -108.5t140 -30.5q99 0 148 45t49 131q0 104 -54 164.5t-167 60.5q-88 0 -152 -25v-237z" />
<glyph unicode="&#x46a;" horiz-adv-x="1921" d="M25 12.5q0 12.5 4 12.5q82 0 143 35.5t116.5 109.5t135.5 215l39 68q66 115 96.5 156.5t70.5 57t120 15.5h106l-360 344q-131 125 -212 177t-171 52q-6 0 -6.5 12.5t6.5 12.5h1695q6 0 6.5 -12.5t-6.5 -12.5q-94 0 -192 -56t-215 -173l-338 -344h108q82 0 121 -15.5 t70 -57.5t98 -160q12 -18 37 -64q78 -137 134.5 -211t117.5 -110.5t143 -38.5q4 0 4 -12.5t-4 -12.5h-243q-23 0 -42.5 16.5t-65.5 89t-138 238.5q-82 147 -120 201.5t-82 77t-128 22.5h-57v-479q0 -63 13 -92t50 -39t119 -10q4 0 4 -12.5t-4 -12.5q-61 0 -98 2l-139 2 l-136 -2q-37 -2 -102 -2q-4 0 -4 12.5t4 12.5q80 0 118 10t52 39.5t14 91.5v479h-61q-84 0 -129 -21.5t-84 -76.5t-119 -199q-106 -193 -144 -257t-54.5 -77.5t-43.5 -13.5h-243q-4 0 -4 12.5zM436 1210q0 -18 23.5 -46.5t79.5 -86.5l397 -395h49l363 389l47 47 q33 33 56.5 59.5t23.5 39.5q0 25 -78 24h-873q-88 0 -88 -31z" />
<glyph unicode="&#x46b;" horiz-adv-x="1345" d="M10 12.5q0 12.5 4 12.5q70 0 118 49t112 164q51 90 79.5 127.5t63.5 52t100 14.5q20 0 103 -4l-137 119q-104 90 -220 154.5t-182 64.5q-6 0 -6 12.5t6 12.5h1245q4 0 4 -12.5t-4 -12.5q-68 0 -182.5 -64.5t-220.5 -154.5l-135 -119q78 4 100 4q66 0 100.5 -14.5 t63.5 -52t80 -127.5q63 -115 111.5 -164t117.5 -49q6 0 6 -12.5t-6 -12.5h-196q-12 0 -40 46t-81 151q-45 86 -80 127t-82 55t-131 10v-223q0 -61 10 -91t38 -40t87 -10q4 0 4 -12.5t-4 -12.5q-51 0 -80 2l-100 2l-107 -2q-29 -2 -80 -2q-6 0 -6 12.5t6 12.5q61 0 89 10 t37.5 39.5t9.5 91.5v223q-84 4 -131.5 -10t-82 -55t-77.5 -127q-6 -12 -11.5 -21.5t-9.5 -17.5q-47 -92 -66.5 -125t-35.5 -33h-197q-4 0 -4 12.5zM358 717q0 -20 27 -51t86 -88l162 -152l41 -2l39 2l153 141q66 61 95.5 96t29.5 56q0 33 -96 33h-444q-92 0 -93 -35z" />
<glyph unicode="&#x472;" horiz-adv-x="1568" d="M100 639q0 211 106.5 361.5t273.5 226.5t341 76q195 0 342.5 -91.5t226 -241t78.5 -317.5q0 -186 -98 -341.5t-263 -246t-357 -90.5q-191 0 -339.5 89.5t-229.5 242t-81 332.5zM231 709q0 -190 75 -349t210 -251.5t307 -92.5q146 0 262.5 68t184 199t67.5 313 q0 193 -74.5 343.5t-211 234t-316.5 83.5q-238 0 -371 -147t-133 -401zM369 578q115 141 227 141q39 0 90 -10.5t100 -22.5q76 -20 132.5 -30.5t113.5 -10.5q58 0 90.5 20.5t65.5 57.5q0 2 4 2t8 -6t2 -10q-72 -84 -116 -113t-97 -29t-100 9.5t-121 27.5q-70 18 -122 27.5 t-109 9.5q-49 0 -75 -13.5t-47.5 -35t-31.5 -29.5h-2q-4 0 -9 5t-3 10z" />
<glyph unicode="&#x473;" horiz-adv-x="976" d="M76 406q0 133 64.5 226t163.5 139t204 46q119 0 208 -59.5t137 -156.5t48 -206q0 -127 -58.5 -223t-156.5 -147.5t-215 -51.5t-207 58.5t-139 158t-49 216.5zM193 465q0 -53 10 -111q35 43 77 75t85 32q45 0 127 -23q106 -29 178 -28q35 0 57.5 14t42.5 39 q-29 143 -117 229t-213 86q-116 0 -181.5 -81t-65.5 -232zM207 328q33 -139 118 -228.5t203 -89.5q119 0 186.5 80t67.5 252q0 49 -6 94q-51 -61 -82.5 -81.5t-68.5 -20.5q-45 0 -91.5 10t-58.5 12q-94 27 -168 27q-37 0 -54 -12.5t-46 -42.5z" />
<glyph unicode="&#x474;" horiz-adv-x="1372" d="M-10 1267.5q0 12.5 6 12.5l88 -2q57 -4 86 -4q59 0 141 4l88 2q6 0 6.5 -12.5t-6.5 -12.5q-63 0 -96 -14t-33 -51q0 -20 17 -60l448 -966l25 78q166 508 237.5 703.5t134 276.5t154.5 81q64 0 95.5 -30t31.5 -73q0 -33 -22.5 -53.5t-57.5 -20.5q-31 0 -46 9.5t-17 11.5 q-23 16 -49 16q-49 0 -96.5 -79.5t-110 -250.5t-197.5 -573l-88 -258q-2 -8 -24 -8q-18 0 -25 8l-506 1108q-35 80 -75 112.5t-103 32.5q-6 0 -6 12.5z" />
<glyph unicode="&#x475;" horiz-adv-x="894" d="M2 778.5q0 12.5 6 12.5q41 0 64 -3l61 -2l129 2q29 2 78 3q6 0 6 -12.5t-6 -12.5q-125 0 -125 -49q0 -14 8 -31l256 -561l158 514q29 90 66.5 129t89.5 39q38 0 65 -19.5t27 -50.5q0 -25 -15.5 -42t-42.5 -17q-16 0 -36.5 8t-36.5 8q-59 0 -80 -67l-209 -625q0 -8 -23 -8 q-20 0 -22 8l-281 619q-41 90 -66.5 117.5t-64.5 27.5q-6 0 -6 12.5z" />
<glyph unicode="&#x48a;" horiz-adv-x="1576" d="M70 1267.5q0 12.5 4 12.5l102 -2q82 -4 135 -4q57 0 140 4l98 2q4 0 4 -12.5t-4 -12.5q-82 0 -119 -11t-50 -39.5t-13 -90.5v-985l899 1159q6 8 20 8q10 0 19.5 -4t9.5 -10v-1116q0 -78 7 -102.5t37 -31.5t116 -7q22 -1 22 -21q0 -8 -8 -19.5t-12 -17.5 q-90 -113 -220 -373q0 -2 -4 -2q-6 0 -11 5.5t-3 9.5q104 209 104 297q0 57 -39.5 76.5t-119.5 19.5h-158q-6 0 -6 12.5t6 12.5q82 0 119 10t49 38.5t12 92.5v969l-897 -1153q-6 -8 -22 -9q-29 0 -29 15v1126q0 61 -14.5 90t-52 40t-117.5 11q-4 0 -4 12.5zM532 1567 q0 27 13.5 41t38.5 14q35 0 50 -22.5t30 -71.5q14 -51 50 -88t95 -37q57 0 97 35t55 90q14 49 29.5 71.5t49.5 22.5q51 0 52 -57q0 -47 -40 -90t-105.5 -69t-135.5 -26q-72 0 -136.5 27t-103.5 70t-39 90z" />
<glyph unicode="&#x48b;" horiz-adv-x="1003" d="M7 698.5q-3 10.5 5 12.5l215 96l9 2q4 0 10 -4t6 -10v-498q0 -123 43 -182.5t129 -59.5q72 0 145.5 38t132.5 106v354q0 84 -13 120t-48 36q-31 0 -74 -21h-4q-8 0 -10 10.5t6 12.5l215 96l6 2q6 0 11.5 -4t5.5 -10v-580q0 -84 17 -121t58 -37q39 0 75 26t40 26t9 -5.5 t5 -9.5q0 -16 -53 -106q-92 -164 -162 -303q-4 -4 -8 -4q-6 0 -11 4t-3 8q86 170 86 252q0 55 -41 55t-74 29.5t-33 115.5v19q-84 -94 -165.5 -136t-167.5 -42q-100 0 -156.5 63.5t-56.5 186.5v317q0 84 -13.5 120t-46.5 36q-31 0 -73 -21h-5q-8 0 -11 10.5zM240 1139 q0 53 51 53q35 0 50 -21.5t28 -70.5q10 -43 20 -65.5t35 -41t70 -18.5q61 0 87.5 33.5t41.5 91.5q12 45 27.5 68.5t47.5 23.5q53 0 54 -57q0 -47 -37 -90.5t-96.5 -69t-122.5 -25.5q-66 0 -125.5 27t-95 71t-35.5 91z" />
<glyph unicode="&#x48c;" horiz-adv-x="1095" d="M86 12.5q0 12.5 4 12.5q82 0 120 10t52 39.5t14 91.5v786h-167q-8 0 -9 21q0 18 9 18h167v123q0 61 -13 90t-51 40t-118 11q-6 0 -6 12.5t6 12.5l96 -2q86 -4 136 -4q59 0 145 4l94 2q6 0 6 -12.5t-6 -12.5q-80 0 -117.5 -12t-51 -42t-13.5 -91v-119h190q8 0 9 -18 q0 -20 -9 -21h-190v-254q129 25 235 25q189 0 296.5 -76t107.5 -260q0 -117 -50 -207t-141.5 -139t-209.5 -49q-53 0 -127 6q-31 2 -73 4t-93 2l-135 -2q-37 -2 -103 -2q-4 0 -4 12.5zM383 166q0 -74 39 -107.5t158 -33.5q170 0 246.5 75.5t76.5 233.5q0 190 -87 271 t-243 81q-86 0 -190 -24v-496z" />
<glyph unicode="&#x48d;" horiz-adv-x="827" d="M21.5 1349.5q-3.5 10.5 5.5 12.5l245 121l11 2q4 0 9 -4t5 -11v-679h174q4 0 7 -6.5t3 -12.5q0 -8 -3 -14t-7 -6h-174v-322q98 33 223 33q129 0 193.5 -52.5t64.5 -160.5q0 -111 -76.5 -182.5t-193.5 -71.5q-29 0 -119 4q-98 4 -137 4l-107 -2q-29 -2 -79 -2 q-6 0 -6.5 12.5t6.5 12.5q61 0 88.5 10t37 39.5t9.5 91.5v586h-148q-8 0 -8 20q0 18 8 19h148v436q0 76 -15.5 108.5t-52.5 32.5q-29 0 -96 -29h-4q-8 0 -11.5 10.5zM297 166q0 -78 35 -108.5t139 -30.5q98 0 147.5 45t49.5 131q0 104 -53.5 164.5t-165.5 60.5 q-90 0 -152 -25v-237z" />
<glyph unicode="&#x48e;" horiz-adv-x="1105" d="M86 12.5q0 12.5 4 12.5q80 0 118 10t51 39.5t13 91.5v948q0 61 -13 90t-51 40t-118 11q-4 0 -4 12.5t4 12.5l100 -2q86 -4 136 -4q49 0 112 6q160 6 174 6q180 0 293 -83t113 -253q0 -147 -77 -244.5t-200 -138.5l129 -223q4 -6 -17.5 -19.5t-25.5 -5.5l-135 234 q-57 -16 -127 -16q-61 0 -100 10q-6 0 -6 10q0 6 3 12t7 4q33 -8 74 -8q72 0 131 21l-127 217l-2 4q0 10 19.5 20.5t25.5 1.5l129 -223q80 39 126 116t46 187q0 109 -43 188t-118 121t-165 42q-84 0 -118.5 -8.5t-50 -38t-15.5 -103.5v-936q0 -66 18.5 -95.5t70.5 -41.5 t167 -12q6 0 6 -12.5t-6 -12.5q-84 0 -131 2l-178 2l-135 -2q-37 -2 -103 -2q-4 0 -4 12.5z" />
<glyph unicode="&#x48f;" horiz-adv-x="1034" d="M4 778.5q0 12.5 6 12.5h240q23 0 30 -10.5t7 -45.5v-106q92 98 178 143t176 45q84 0 155.5 -45t113.5 -130t42 -202q0 -159 -76.5 -268t-193.5 -160l127 -219v-2q0 -8 -18.5 -19.5t-24.5 -2.5l-131 225q-59 -20 -121 -21q-68 0 -121 14.5t-106 51.5v-436q0 -61 16 -90 t60.5 -40.5t134.5 -11.5q6 0 6 -12t-6 -12q-70 0 -109 2l-147 2l-123 -2q-31 -2 -86 -2q-4 0 -4 12t4 12q70 0 102.5 11.5t45 40t12.5 90.5v1022q0 59 -15.5 88.5t-53.5 41t-114 11.5q-6 0 -6 12.5zM287 154q59 -68 127.5 -104t167.5 -36q14 0 39 4l-136 234v2 q0 10 19.5 21.5t23.5 3.5l142 -246q78 35 125 125t47 219q0 176 -78 274.5t-197 98.5q-80 0 -145.5 -40t-134.5 -116v-440z" />
<glyph unicode="&#x490;" horiz-adv-x="1017" d="M86 12.5q0 12.5 4 12.5q80 0 118 10t51 39.5t13 91.5v948q0 61 -13 90t-51 40t-118 11q-4 0 -4 12.5t4 12.5h600q94 0 142.5 21.5t73 75t38.5 159.5q2 6 13.5 5t11.5 -7l-54 -428q0 -4 -10 -4q-14 0 -14 8l2 27q0 61 -43 82.5t-160 21.5h-131q-76 0 -112.5 -10t-51 -37 t-14.5 -82v-938q0 -66 18.5 -95.5t70.5 -41.5t167 -12q6 0 6 -12.5t-6 -12.5q-84 0 -131 2l-178 2l-135 -2q-37 -2 -103 -2q-4 0 -4 12.5z" />
<glyph unicode="&#x491;" horiz-adv-x="747" d="M59 12.5q0 12.5 7 12.5q61 0 88.5 10t37 39.5t9.5 91.5v459q0 61 -9.5 90.5t-37 40t-86.5 10.5q-6 0 -6.5 12.5t6.5 12.5h360q92 0 140 21.5t72 74.5t36 160q2 8 13 7t11 -10l-47 -426q0 -6 -11 -6t-11 9q4 59 -12.5 89.5t-58.5 42t-124 11.5q-59 0 -89 -12.5t-40 -42 t-10 -88.5v-455q0 -61 9 -91t37 -40t89 -10q4 0 4 -12.5t-4 -12.5q-51 0 -80 2l-100 2l-107 -2q-29 -2 -79 -2q-7 0 -7 12.5z" />
<glyph unicode="&#x492;" horiz-adv-x="1044" d="M86 12.5q0 12.5 4 12.5q80 0 118 10t51 39.5t13 91.5v452h-141q-8 0 -8 19q0 18 8 18h141v459q0 61 -13 90t-51 40t-118 11q-4 0 -4 12.5t4 12.5h858q20 0 21 -18l4 -248q0 -6 -12.5 -6t-12.5 6q0 104 -55 165.5t-145 61.5h-189q-76 0 -112.5 -10t-51 -37t-14.5 -82v-457 h240q10 0 10 -18q0 -6 -3 -12.5t-7 -6.5h-240v-444q0 -66 18.5 -95.5t70.5 -41.5t167 -12q6 0 6 -12.5t-6 -12.5q-84 0 -131 2l-178 2l-135 -2q-37 -2 -103 -2q-4 0 -4 12.5z" />
<glyph unicode="&#x493;" horiz-adv-x="761" d="M59.5 12.5q-0.5 12.5 6.5 12.5q61 0 88.5 10t37 39.5t9.5 91.5v203h-101q-8 0 -8 20q0 18 8 19h101v217q0 61 -9.5 90.5t-37 40t-86.5 10.5q-6 0 -6.5 12.5t6.5 12.5h606q12 0 14 -3.5t2 -15.5q0 -41 -2 -72.5t-4 -54.5l-4 -121q0 -4 -12.5 -4t-12.5 4q0 133 -44 186.5 t-156 53.5q-68 0 -100.5 -12.5t-45 -42t-12.5 -88.5v-213h152q4 0 7 -6.5t3 -12.5q0 -8 -3 -14t-7 -6h-152v-203q0 -61 9 -91t37 -40t89 -10q4 0 4 -12.5t-4 -12.5q-51 0 -80 2l-100 2l-107 -2q-29 -2 -79 -2q-6 0 -6.5 12.5z" />
<glyph unicode="&#x494;" horiz-adv-x="1228" d="M70 12.5q0 12.5 4 12.5q80 0 117.5 10t51 39.5t13.5 91.5v948q0 61 -13.5 90t-51 40t-117.5 11q-4 0 -4 12.5t4 12.5h858q18 0 18 -18l6 -248q0 -6 -12 -6t-12 6q0 104 -55.5 165.5t-145.5 61.5h-190q-76 0 -112 -10t-50 -37t-14 -82v-471q92 82 186 125t197 43 q114 0 201 -53.5t133 -144.5t46 -203q0 -106 -42 -206t-121.5 -163.5t-188.5 -63.5q-80 0 -127 34t-47 85q0 29 17.5 47.5t48.5 18.5q51 0 75 -64q16 -47 34 -63.5t57 -16.5q92 0 138 86t46 213q0 125 -43 221.5t-121 149.5t-176 53q-78 0 -159 -33.5t-154 -97.5v-434 q0 -66 11 -95.5t44 -41.5t104 -12q6 0 6 -12.5t-6 -12.5q-59 0 -92 2l-121 2l-135 -2q-37 -2 -102 -2q-4 0 -4 12.5z" />
<glyph unicode="&#x495;" horiz-adv-x="833" d="M59.5 12.5q-0.5 12.5 6.5 12.5q61 0 88.5 10t37 39.5t9.5 91.5v459q0 61 -9.5 90.5t-37 40t-86.5 10.5q-6 0 -6.5 12.5t6.5 12.5h606q12 0 14 -3.5t2 -15.5q0 -33 -2 -58.5t-4 -41.5l-4 -99q0 -6 -12.5 -6t-12.5 6q0 106 -44 148.5t-156 42.5q-68 0 -100.5 -12.5t-45 -42 t-12.5 -88.5v-248q106 55 223 55q125 0 181.5 -73.5t56.5 -184.5q0 -150 -87 -303.5t-208 -261.5l-4 -2q-6 0 -11.5 7t-1.5 11q72 90 113 153.5t67.5 143.5t26.5 182q0 281 -192 281q-84 0 -164 -35v-180q0 -61 9 -91t37 -40t89 -10q4 0 4 -12.5t-4 -12.5q-51 0 -80 2 l-100 2l-107 -2q-29 -2 -79 -2q-6 0 -6.5 12.5z" />
<glyph unicode="&#x496;" horiz-adv-x="2017" d="M25 12.5q0 12.5 4 12.5q82 2 144.5 38.5t121.5 109.5t154 212l53 82q68 104 101.5 144t74.5 57l-229 358q-84 131 -164 180t-197 49q-4 0 -4 12.5t4 12.5l72 -2q74 -4 135 -4q70 0 147 4l82 2q6 0 6 -12.5t-6 -12.5q-57 0 -80.5 -7t-23.5 -29q0 -20 17.5 -54.5 t70.5 -124.5l211 -362q45 4 78 4l114 -2q14 -2 45 -2v436q0 59 -19 89t-62.5 41t-124.5 11q-4 0 -4.5 12.5t4.5 12.5l110 -2q98 -4 148 -4q57 0 155 4l107 2q4 0 4 -12.5t-4 -12.5q-119 0 -163 -29.5t-44 -115.5v-432l156 4q55 0 77 -4l213 362q53 90 70.5 124t17.5 55 q0 23 -23.5 29.5t-80.5 6.5q-6 0 -6 12.5t6 12.5l82 -2q78 -4 147 -4q61 0 136 4l71 2q4 0 4 -12.5t-4 -12.5q-117 0 -196.5 -49t-163.5 -180l-230 -358q43 -16 77 -58.5t110 -158.5q10 -14 20 -31t23 -35q94 -139 152.5 -212t119 -109.5t137.5 -38.5q17 0 20 -3.5t3 -21.5 q0 -31 -2 -53q-4 -98 -4 -330q0 -10 -11.5 -10t-11.5 10q0 186 -59.5 284.5t-169.5 98.5q-25 0 -43.5 15.5t-74.5 99.5t-150 229q-96 150 -137.5 203t-87.5 75.5t-130 22.5q-12 0 -57 -4v-475q0 -63 13.5 -92t50 -39t118.5 -10q6 0 6 -12.5t-6 -12.5q-61 0 -96 2l-141 2 l-138 -2q-35 -2 -98 -2q-6 0 -6 12.5t6 12.5q80 0 118 10t52 39.5t14 91.5v475q-49 4 -63 4q-82 0 -128 -21.5t-88 -74.5t-138 -201l-62 -96q-68 -106 -109.5 -167.5t-56 -73t-39.5 -11.5h-243q-4 0 -4 12.5z" />
<glyph unicode="&#x497;" horiz-adv-x="1345" d="M-2 12.5q0 12.5 4 12.5q53 0 88 17t59.5 49t65.5 99l29 48q66 102 102.5 141t89.5 49q-33 27 -67 90q-39 70 -79 126t-63 56q-10 0 -32.5 -13t-42.5 -13q-35 0 -55.5 20.5t-20.5 48.5q0 27 23.5 46.5t64.5 19.5q45 0 76.5 -24.5t55 -62.5t62.5 -118l39 -78 q25 -45 49.5 -69.5t57.5 -24.5l63 -2q37 -4 58 -4v195q0 61 -11.5 90.5t-43 42t-103.5 12.5q-4 0 -4 12.5t4 12.5l106 -3q33 -2 97 -2q66 0 100 2l109 3q6 0 6 -12.5t-6 -12.5q-72 0 -105 -10.5t-43 -39t-10 -91.5v-199l98 6q31 0 55.5 24.5t49.5 69.5l41 82q55 111 93 156 t101 45q41 0 63.5 -19.5t22.5 -46.5q0 -29 -20.5 -49t-53.5 -20q-23 0 -44 13t-31 13q-23 0 -64 -56t-80 -126q-29 -55 -65 -90q59 -8 97 -46t106 -144q59 -94 85.5 -131t63.5 -59.5t92 -22.5q17 0 19 -3.5t2 -21.5t-5.5 -73.5t-5.5 -190.5q0 -10 -12 -10t-12 10 q0 131 -52.5 197.5t-150.5 66.5q-8 0 -13 6t-28.5 52t-79.5 139q-51 86 -83.5 125.5t-67.5 55t-88 15.5q-20 0 -33 -2v-225q0 -63 10 -92t38 -39t89 -10q4 0 4 -12.5t-4 -12.5q-53 0 -84 2l-104 2l-101 -2q-29 -2 -77 -2q-6 0 -6.5 12.5t6.5 12.5q59 0 86.5 10t37 39.5 t9.5 91.5v227h-29q-57 0 -94 -15.5t-72 -56t-86 -124.5q-43 -72 -64.5 -115t-27.5 -53q-10 -23 -13 -26t-16 -3h-221q-4 0 -4 12.5z" />
<glyph unicode="&#x498;" horiz-adv-x="1007" d="M117 315q0 6 11 8.5t13 -4.5q31 -170 133.5 -240.5t223.5 -70.5q145 0 213.5 92.5t68.5 229.5q0 166 -95 251t-273 85q-8 0 -8.5 12t8.5 12q164 0 245.5 78t81.5 211t-72.5 215t-189.5 82q-104 0 -184 -71.5t-121 -225.5q0 -4 -8 -4q-4 0 -9 3t-5 5l28 217q4 25 8 33 t23 14q158 55 297 56q166 0 256 -81t90 -200q0 -113 -76 -205t-174 -129q135 -10 220 -98t85 -223q0 -133 -81 -230.5t-218 -138.5q-47 -14 -72.5 -97t-25.5 -284q0 -10 -12.5 -10t-12.5 10q0 195 -24.5 276.5t-73.5 88.5q-66 6 -125 24.5t-92 46.5q-18 10 -22.5 17.5 t-6.5 29.5z" />
<glyph unicode="&#x499;" horiz-adv-x="718" d="M66 584l63 250q0 4 8 4q6 0 12.5 -3.5t4.5 -5.5q-4 -16 -4 -22q0 -20 11 -29.5t23 -9.5q10 0 60 16q39 16 70.5 24.5t68.5 8.5q111 0 169 -54t58 -128q0 -63 -47 -116.5t-127 -82.5q101 -8 153 -59t52 -133q0 -92 -53 -162t-133 -92q-53 -14 -75 -67.5t-22 -186.5 q0 -10 -11 -10t-11 10q0 129 -21.5 186.5t-70.5 67.5q-86 18 -172 92l-2 4q0 6 8 11t12 1q80 -74 217 -73q106 0 160.5 57t54.5 149q0 88 -59.5 134.5t-190.5 46.5q-6 0 -8 12t8 12q123 2 175.5 42t52.5 114q0 90 -44 137t-141 47q-156 0 -227 -196q-2 -4 -13.5 -2t-8.5 6z " />
<glyph unicode="&#x49a;" horiz-adv-x="1341" d="M70 12.5q0 12.5 4 12.5q80 0 117.5 10t52 39.5t14.5 91.5v948q0 61 -13.5 90t-51 40t-117.5 11q-4 0 -4 12.5t4 12.5l100 -2q86 -4 135 -4q55 0 142 4l96 2q4 0 4 -12.5t-4 -12.5q-80 0 -118 -12t-51 -42t-13 -91v-432q111 4 137 4q33 0 47 -2l258 360q49 70 71.5 110 t22.5 62q0 25 -26.5 34t-83.5 9q-4 0 -4.5 12.5t4.5 12.5l86 -2q78 -4 143 -4q66 0 135 4l72 2q6 0 6 -12.5t-6 -12.5q-113 0 -185.5 -49t-173.5 -180l-272 -352q59 -12 103 -57.5t133 -174.5l40 -57q96 -137 153.5 -206.5t123.5 -111.5t147 -42q15 0 18 -3.5t3 -21.5v-53 q-4 -98 -4 -330q0 -10 -12.5 -10t-12.5 10q0 188 -56 285.5t-165 97.5q-29 0 -50.5 15.5t-70.5 81t-176 247.5q-96 141 -144 197.5t-97.5 80t-131.5 23.5q-20 0 -32 -2v-477q0 -63 13 -92t50 -39t119 -10q4 0 4 -12.5t-4 -12.5q-61 0 -98 2l-140 2l-135 -2q-37 -2 -102 -2 q-4 0 -4 12.5z" />
<glyph unicode="&#x49b;" horiz-adv-x="946" d="M59.5 12.5q-0.5 12.5 6.5 12.5q61 0 88.5 10t37 39.5t9.5 91.5v459q0 61 -9.5 90.5t-37 40t-86.5 10.5q-6 0 -6.5 12.5t6.5 12.5q49 0 77 -3l107 -2l102 2q29 2 78 3q4 0 4 -12.5t-4 -12.5q-59 0 -87 -12.5t-38 -42t-10 -90.5v-195q25 0 61 4l68 2q25 0 37 -2 q92 156 149.5 235.5t98.5 111.5t86 32q39 0 64.5 -18.5t25.5 -47.5q0 -27 -18.5 -46t-51.5 -19q-14 0 -26.5 4t-16.5 6q-29 12 -49 12q-27 0 -50.5 -18t-63.5 -74.5t-119 -181.5q39 -10 68.5 -40t88.5 -110l29 -38q25 -33 35 -50q49 -66 75.5 -96.5t60.5 -48.5t79 -18 q14 0 16 -3.5t2 -21.5t-5 -73.5t-5 -190.5q0 -10 -11.5 -10t-11.5 10q0 131 -51 197.5t-151 66.5q-10 0 -19.5 17.5t-33 58.5t-80.5 121q-74 102 -106 138t-67.5 48t-107.5 8v-225q0 -61 9 -91t37 -40t89 -10q4 0 4 -12.5t-4 -12.5q-51 0 -80 2l-100 2l-107 -2 q-29 -2 -79 -2q-6 0 -6.5 12.5z" />
<glyph unicode="&#x49c;" horiz-adv-x="1437" d="M70 12.5q0 12.5 4 12.5q80 0 117.5 10t52 39.5t14.5 91.5v948q0 61 -13.5 90t-51 40t-117.5 11q-4 0 -4 12.5t4 12.5l100 -2q86 -4 135 -4q55 0 142 4l96 2q4 0 4 -12.5t-4 -12.5q-80 0 -118 -12t-51 -42t-13 -91v-432l172 4v319q0 4 7 7.5t15 3.5q23 0 23 -11v-319h63 q35 0 49 -2l234 360q70 106 69 152q0 37 -37.5 50t-119.5 13q-6 0 -6 12.5t6 12.5l100 -2q106 -4 176 -4q61 0 135 4l72 2q4 0 4 -12.5t-4 -12.5q-76 0 -128 -20.5t-97 -67.5t-111 -141l-250 -354q51 -14 87 -53t106 -142l61 -92l41 -57q86 -123 133 -179.5t105.5 -90 t136.5 -33.5q4 0 4 -12.5t-4 -12.5h-246q-20 0 -31.5 6t-37 42t-66.5 97l-137 199q-16 23 -27.5 40t-19.5 30q-63 92 -96 134t-72 66.5t-92 28.5v-321q0 -8 -23 -9q-23 0 -22 9v323q-41 0 -172 -4v-475q0 -63 13 -92t50 -39t119 -10q4 0 4 -12.5t-4 -12.5q-61 0 -98 2 l-140 2l-135 -2q-37 -2 -102 -2q-4 0 -4 12.5z" />
<glyph unicode="&#x49d;" horiz-adv-x="1017" d="M59.5 12.5q-0.5 12.5 6.5 12.5q61 0 88.5 10t37 39.5t9.5 91.5v459q0 61 -9.5 90.5t-37 40t-86.5 10.5q-6 0 -6.5 12.5t6.5 12.5q49 0 77 -3l107 -2l102 2q29 2 78 3q4 0 4 -12.5t-4 -12.5q-59 0 -87 -12.5t-38 -42t-10 -90.5v-195l125 6v193q0 4 6 7t14 3q6 0 12.5 -3 t6.5 -7v-191q59 0 84 -6q84 164 133 244t88 108.5t86 28.5t70.5 -18.5t23.5 -47.5q0 -27 -18.5 -46t-50.5 -19q-20 0 -41 10q-29 12 -54 12q-20 0 -40.5 -16t-59.5 -76.5t-109 -187.5q39 -14 73 -51t104 -131l45 -62q57 -86 97 -118.5t112 -32.5q6 0 6 -12.5t-6 -12.5h-222 q-10 0 -19 17.5t-32.5 58.5t-81.5 121q-66 90 -105.5 131t-82.5 55v-201q0 -8 -19 -8q-20 0 -20 8v209q-12 2 -41 2q-23 0 -84 -4v-223q0 -61 9 -91t37 -40t89 -10q4 0 4 -12.5t-4 -12.5q-51 0 -80 2l-100 2l-107 -2q-29 -2 -79 -2q-6 0 -6.5 12.5z" />
<glyph unicode="&#x49e;" horiz-adv-x="1341" d="M70 12.5q0 12.5 4 12.5q80 0 117.5 10t52 39.5t14.5 91.5v786h-174q-8 0 -8 21q0 18 8 18h174v123q0 61 -13.5 90t-51 40t-117.5 11q-4 0 -4 12.5t4 12.5l100 -2q86 -4 135 -4q55 0 142 4l96 2q4 0 4 -12.5t-4 -12.5q-80 0 -118 -12t-51 -42t-13 -91v-119h194q4 0 7 -6 t3 -12q0 -8 -3 -14.5t-7 -6.5h-194v-274q111 4 137 4q33 0 47 -2l258 360q49 70 71.5 110t22.5 62q0 25 -26.5 34t-83.5 9q-4 0 -4.5 12.5t4.5 12.5l86 -2q78 -4 143 -4q66 0 135 4l72 2q6 0 6 -12.5t-6 -12.5q-113 0 -185.5 -49t-173.5 -180l-272 -352q59 -12 103 -57.5 t133 -174.5l40 -57q94 -135 156 -207t129.5 -111.5t153.5 -41.5q4 0 4 -12.5t-4 -12.5h-244q-29 0 -50.5 15.5t-70.5 81t-176 247.5q-96 141 -144 197.5t-97.5 80t-131.5 23.5q-20 0 -32 -2v-477q0 -63 13 -92t50 -39t119 -10q4 0 4 -12.5t-4 -12.5q-61 0 -98 2l-140 2 l-135 -2q-37 -2 -102 -2q-4 0 -4 12.5z" />
<glyph unicode="&#x49f;" horiz-adv-x="933" d="M9 1349.5q-3 10.5 5 12.5l252 123h4q14 0 15 -15v-407h331q8 0 9 -19q0 -18 -9 -18h-331v-600q27 0 63 4l72 2q31 0 55.5 24.5t48.5 69.5l37 74q41 80 65.5 120t56.5 64.5t77 24.5q41 0 63.5 -19.5t22.5 -46.5q0 -29 -20.5 -49t-53.5 -20q-23 0 -45 13t-33 13 q-23 0 -62.5 -56t-78.5 -126q-31 -61 -66 -90q53 -10 89 -48t102 -142l29 -48q41 -68 65.5 -99.5t59 -48.5t88.5 -17q6 0 6 -12.5t-6 -12.5h-220q-12 0 -19 11.5t-31.5 59.5t-71.5 126q-51 84 -86 124.5t-72 56t-94 15.5q-27 0 -41 -2v-225q0 -61 10 -91t37.5 -40t87.5 -10 q4 0 4 -12.5t-4 -12.5q-47 0 -76 2l-106 2l-109 -2q-27 -2 -74 -2q-6 0 -6 12.5t6 12.5q59 0 86 10t37 39.5t10 91.5v860h-159q-8 0 -9 18q0 18 9 19h159v166q0 76 -14 108.5t-51 32.5q-16 0 -42 -9t-56 -22h-5q-8 0 -11 10.5z" />
<glyph unicode="&#x4a0;" horiz-adv-x="1550" d="M53 965q8 72 18.5 187.5t10.5 172.5q0 10 11 10t11 -10q0 -23 21.5 -35t75.5 -14q66 -2 317 -2q57 0 144 4l96 2q4 0 4 -12.5t-4 -12.5q-80 0 -118 -12t-51.5 -42t-13.5 -91v-432q111 4 136 4q35 0 49 -2l258 360q49 70 71.5 110t22.5 62q0 25 -26.5 34t-84.5 9 q-6 0 -6 12.5t6 12.5l82 -2q78 -4 148 -4q61 0 135 4l72 2q4 0 4 -12.5t-4 -12.5q-113 0 -186.5 -49t-174.5 -180l-270 -352q61 -14 103 -58.5t139 -179.5l34 -51q94 -135 155.5 -207t129.5 -111.5t154 -41.5q4 0 4 -12.5t-4 -12.5h-246q-29 0 -49.5 15.5t-71.5 83 t-176 245.5q-96 141 -144.5 197.5t-97.5 80t-129 23.5q-20 0 -33 -2v-477q0 -63 12.5 -92t50.5 -39t120 -10q4 0 4 -12.5t-4 -12.5q-63 0 -99 2l-139 2l-135 -2q-37 -2 -102 -2q-4 0 -4 12.5t4 12.5q80 0 117.5 10t52 39.5t14.5 91.5v948q0 72 -6 96.5t-28.5 30.5t-88.5 6 q-88 0 -141 -25.5t-83 -87t-44 -169.5q0 -4 -11.5 -4t-11.5 4z" />
<glyph unicode="&#x4a1;" horiz-adv-x="1048" d="M43 829q0 10 12.5 10.5t12.5 -10.5q0 -29 44 -36t138 -7q70 0 115 2l194 3q4 0 4 -12.5t-4 -12.5q-70 0 -103.5 -12.5t-45 -42t-11.5 -90.5v-195q27 0 64 4l72 2q31 0 55 24.5t49 69.5l37 74q41 80 65.5 120t56 64.5t76.5 24.5q41 0 64 -19.5t23 -46.5q0 -29 -20.5 -49 t-53.5 -20q-23 0 -45.5 13t-32.5 13q-23 0 -62.5 -56t-78.5 -126q-31 -61 -66 -90q53 -10 89 -48t102 -142l28 -48q41 -68 65.5 -99.5t59.5 -48.5t88 -17q6 0 6 -12.5t-6 -12.5h-219q-12 0 -19.5 11.5t-32 59.5t-71.5 126q-51 84 -86 124.5t-71.5 56t-94.5 15.5 q-27 0 -41 -2v-225q0 -61 10.5 -91t38 -40t87.5 -10q4 0 4 -12.5t-4 -12.5q-51 0 -80 2l-101 2l-104 -2q-29 -2 -82 -2q-6 0 -6 12.5t6 12.5q61 0 89 10t38 39.5t10 91.5v459q0 61 -3 84.5t-18.5 33t-54.5 9.5q-80 0 -119.5 -39t-39.5 -144q0 -4 -12.5 -4t-12.5 4z" />
<glyph unicode="&#x4a2;" horiz-adv-x="1552" d="M70 12.5q0 12.5 4 12.5q80 0 117.5 10t52 39.5t14.5 91.5v948q0 61 -13.5 90t-51 40t-117.5 11q-4 0 -4 12.5t4 12.5l100 -2q86 -4 135 -4q55 0 142 4l96 2q4 0 4 -12.5t-4 -12.5q-80 0 -118 -12t-51 -42t-13 -91v-424h817v424q0 61 -13.5 91t-51.5 42t-118 12 q-6 0 -6 12.5t6 12.5l97 -2q86 -4 141 -4q51 0 137 4l99 2q6 0 6 -12.5t-6 -12.5q-80 0 -118 -11t-52.5 -39.5t-14.5 -90.5v-948q0 -76 8.5 -101.5t37 -32.5t116.5 -7q14 0 17.5 -3.5t3.5 -21.5v-53q-4 -98 -5 -330q0 -10 -12 -10t-12 10q0 143 -27.5 226t-89 120t-168.5 37 h-158q-6 0 -6 12.5t6 12.5q82 0 119 10t50.5 38.5t13.5 92.5v481h-817v-481q0 -63 13 -92t50 -39t119 -10q4 0 4 -12.5t-4 -12.5q-61 0 -98 2l-140 2l-135 -2q-37 -2 -102 -2q-4 0 -4 12.5z" />
<glyph unicode="&#x4a3;" horiz-adv-x="1048" d="M59.5 12.5q-0.5 12.5 6.5 12.5q61 0 88.5 10t37 39.5t9.5 91.5v459q0 61 -9.5 90.5t-37 40t-86.5 10.5q-6 0 -6.5 12.5t6.5 12.5q49 0 77 -3l107 -2l102 2q29 2 78 3q4 0 4 -12.5t-4 -12.5q-59 0 -87 -12.5t-38 -42t-10 -90.5v-207h455v211q0 61 -9.5 90.5t-37 40 t-87.5 10.5q-6 0 -6 12.5t6 12.5q49 0 78 -3l107 -2l102 2q29 2 78 3q4 0 4 -12.5t-4 -12.5q-59 0 -87 -12.5t-38 -42t-10 -90.5v-455v-66q0 -39 7 -53t30.5 -18t85.5 -4q14 0 16 -3.5t2 -21.5t-5 -73.5t-5 -190.5q0 -10 -11.5 -10t-11.5 10q0 152 -59 208t-166 56h-115 q-6 0 -6 12.5t6 12.5q59 0 87 10t38.5 39.5t10.5 91.5v211h-455v-211q0 -61 9 -91t37 -40t89 -10q4 0 4 -12.5t-4 -12.5q-51 0 -80 2l-100 2l-107 -2q-29 -2 -79 -2q-6 0 -6.5 12.5z" />
<glyph unicode="&#x4a4;" horiz-adv-x="1810" d="M70 12.5q0 12.5 4 12.5q80 0 117.5 10t52 39.5t14.5 91.5v948q0 61 -13.5 90t-51 40t-117.5 11q-4 0 -4 12.5t4 12.5l100 -2q86 -4 135 -4q55 0 142 4l96 2q4 0 4 -12.5t-4 -12.5q-80 0 -118 -12t-51 -42t-13 -91v-424h720v428q0 61 -13 90t-51 40t-118 11q-4 0 -4 12.5 t4 12.5h809q20 0 21 -18l4 -248q0 -6 -12.5 -6t-12.5 6q0 104 -54 165.5t-147 61.5h-141q-76 0 -111.5 -10t-50 -37t-14.5 -82v-938q0 -66 18.5 -95.5t70.5 -41.5t167 -12q4 0 4 -12.5t-4 -12.5q-86 0 -133 2l-176 2l-135 -2q-37 -2 -103 -2q-4 0 -4 12.5t4 12.5 q80 0 118 10t51 39.5t13 91.5v481h-720v-481q0 -63 13 -92t50 -39t119 -10q4 0 4 -12.5t-4 -12.5q-61 0 -98 2l-140 2l-135 -2q-37 -2 -102 -2q-4 0 -4 12.5z" />
<glyph unicode="&#x4a5;" horiz-adv-x="1312" d="M59.5 12.5q-0.5 12.5 6.5 12.5q61 0 88.5 10t37 39.5t9.5 91.5v459q0 61 -9.5 90.5t-37 40t-86.5 10.5q-6 0 -6.5 12.5t6.5 12.5q49 0 77 -3l107 -2l102 2q29 2 78 3q4 0 4 -12.5t-4 -12.5q-59 0 -87 -12.5t-38 -42t-10 -90.5v-207h455v211q0 61 -9.5 90.5t-37 40 t-87.5 10.5q-6 0 -6 12.5t6 12.5h607q12 0 14 -3.5t2 -15.5q0 -41 -2 -72.5t-4 -54.5l-4 -121q0 -4 -12.5 -4t-12.5 4q0 133 -44 186.5t-156 53.5q-68 0 -101 -12.5t-45 -42t-12 -88.5v-455q0 -61 9 -91t37 -40t89 -10q4 0 4 -12.5t-4 -12.5q-51 0 -80 2l-100 2l-107 -2 q-29 -2 -80 -2q-6 0 -6 12.5t6 12.5q61 0 89 10t37.5 39.5t9.5 91.5v211h-455v-211q0 -61 9 -91t37 -40t89 -10q4 0 4 -12.5t-4 -12.5q-51 0 -80 2l-100 2l-107 -2q-29 -2 -79 -2q-6 0 -6.5 12.5z" />
<glyph unicode="&#x4a8;" horiz-adv-x="1615" d="M100 639q0 209 106.5 359.5t278.5 230.5q6 2 11.5 -9.5t-0.5 -13.5q-127 -59 -196 -188t-69 -309q0 -190 75 -349t211 -251.5t310 -92.5q143 0 263 66q-240 98 -385.5 287.5t-145.5 418.5q0 147 62.5 264t170 184t240.5 67q147 0 257 -82t168.5 -214.5t58.5 -283.5 q0 -195 -95.5 -359.5t-255.5 -267.5q160 -72 340 -71q4 0 4 -12.5t-4 -12.5q-203 0 -387 70q-172 -94 -366 -95q-193 0 -341.5 89.5t-229.5 242t-81 332.5zM690 866q0 -254 122 -453.5t325 -301.5q117 82 182 222t65 331q0 172 -54 307t-148.5 210.5t-212.5 75.5 q-139 0 -209 -101t-70 -290z" />
<glyph unicode="&#x4a9;" horiz-adv-x="1026" d="M76 406q0 143 71.5 241t182.5 146q6 2 12 -9.5t-2 -15.5q-72 -29 -109.5 -106.5t-37.5 -196.5q0 -123 46 -226.5t128 -166t186 -62.5q53 0 102 17q-123 84 -192.5 201.5t-69.5 248.5q0 106 38 183t98.5 117t121.5 40q88 0 155.5 -53t104.5 -139t37 -183 q0 -139 -61.5 -245.5t-165.5 -165.5q80 -57 188 -92q2 -1 2 -7t-5 -12t-7 -4q-115 33 -219 94q-86 -37 -184 -37q-125 0 -220.5 59.5t-147.5 158t-52 215.5zM494 524q0 -141 51 -266t155 -209q131 82 131 342q0 109 -28.5 197t-79.5 139t-115 51q-61 0 -87.5 -60.5 t-26.5 -193.5z" />
<glyph unicode="&#x4aa;" horiz-adv-x="1370" d="M100 653q0 186 104.5 335t276.5 232t365 83q100 0 201.5 -20.5t162.5 -55.5q16 -10 21.5 -19.5t7.5 -29.5l23 -215q0 -6 -10.5 -7.5t-12.5 5.5q-74 299 -473 299q-160 0 -282 -69t-189.5 -194t-67.5 -288q0 -193 84 -356t223.5 -258t301.5 -95q152 0 261 80t160 244 q0 6 9 6q6 0 11 -2t5 -6l-29 -220q-4 -25 -9 -32t-23 -15q-133 -59 -275 -71q-57 -6 -86 -25.5t-46 -97.5t-17 -244q0 -10 -11.5 -10t-11.5 10q0 203 -25.5 281.5t-80.5 89.5q-190 33 -318.5 134t-189 241.5t-60.5 289.5z" />
<glyph unicode="&#x4ab;" horiz-adv-x="833" d="M76 379q0 131 64.5 228.5t166 149.5t207.5 52q90 0 162 -35t72 -86q0 -23 -16.5 -39t-43.5 -16q-47 0 -82 57q-27 39 -62.5 58.5t-94.5 19.5q-123 0 -189.5 -89t-66.5 -241q0 -172 88 -285.5t262 -113.5q131 0 211 72h4q6 0 11 -6.5t-1 -10.5q-94 -82 -193 -106 q-51 -10 -73.5 -65.5t-22.5 -186.5q0 -10 -12 -10t-12 10q0 127 -21.5 184t-68.5 68q-143 35 -216 144.5t-73 246.5z" />
<glyph unicode="&#x4ac;" horiz-adv-x="1294" d="M76 965q8 55 18 177t10 183q0 10 12.5 10t12.5 -10q0 -45 109 -45q176 -6 411 -6q121 0 256 4l139 2q74 0 109 10t45 41q2 8 12.5 8t10.5 -8q-6 -57 -12.5 -175t-6.5 -191q0 -4 -12 -4t-12 4q0 109 -22.5 168t-76 85.5t-149.5 26.5q-106 0 -149.5 -7t-58.5 -33.5 t-15 -94.5v-944q0 -78 8 -102.5t42 -31.5t132 -7q14 0 17 -3.5t3 -21.5v-53q-4 -98 -4 -330q0 -10 -12 -10t-12 10q0 143 -30 226t-96.5 120t-181.5 37h-186q-4 0 -4 12.5t4 12.5q94 0 137 10t57.5 38.5t14.5 92.5v948q0 68 -16.5 93.5t-58.5 31.5t-152 6 q-129 0 -188.5 -61.5t-80.5 -218.5q0 -4 -12 -4t-12 4z" />
<glyph unicode="&#x4ad;" horiz-adv-x="880" d="M72 774q0 12 2 15.5t14 3.5q43 0 76 -2l272 -3l277 3q35 2 80 2q12 0 14 -3.5t2 -15.5q0 -35 -4 -117l-4 -133q0 -4 -12.5 -4t-12.5 4q0 133 -39 186.5t-139 53.5q-68 0 -88.5 -27.5t-20.5 -115.5v-455v-70q0 -37 7.5 -50t30 -17t83.5 -4q16 0 18.5 -3.5t2.5 -21.5 t-5 -73.5t-5 -190.5q0 -10 -12.5 -10t-12.5 10q0 151 -59.5 207.5t-165.5 56.5h-115q-4 0 -4 12.5t4 12.5q59 0 88 10t39 39.5t10 91.5v455q0 59 -8 88.5t-31.5 42t-70.5 12.5q-98 0 -138.5 -53.5t-40.5 -186.5q0 -4 -11 -4t-11 4l-4 123q-2 23 -4 54.5t-2 72.5z" />
<glyph unicode="&#x4ae;" horiz-adv-x="1243" d="M-10 1267.5q0 12.5 6 12.5l76 -2q49 -4 73 -4q68 0 166 4l107 2q4 0 4 -12.5t-4 -12.5q-61 0 -89 -9t-28 -29q0 -12 21 -43l344 -494l262 397q45 74 45 113q0 66 -111 65q-4 0 -4 12.5t4 12.5l92 -2q78 -4 138 -4q35 0 84 4l75 2q4 0 4 -12.5t-4 -12.5q-76 0 -147.5 -48 t-128.5 -136l-289 -438v-467q0 -63 12.5 -92t49 -39t118.5 -10q6 0 6 -12.5t-6 -12.5q-61 0 -96 2l-139 2l-139 -2q-37 -2 -99 -2q-6 0 -6 12.5t6 12.5q80 0 118 10t52.5 39.5t14.5 91.5v436l-351 508q-53 80 -104 112.5t-127 32.5q-6 0 -6 12.5z" />
<glyph unicode="&#x4af;" horiz-adv-x="886" d="M2 778.5q0 12.5 6 12.5q41 0 64 -3l61 -2l129 2q29 2 78 3q6 0 6 -12.5t-6 -12.5q-125 0 -125 -49q0 -14 8 -31l262 -571l201 522q12 31 12 55q0 39 -40 56.5t-130 17.5q-4 0 -4 12.5t4 12.5q55 0 84 -3l123 -2l72 2q20 2 63 3q4 0 4 -12.5t-4 -12.5q-51 0 -83.5 -29.5 t-65.5 -111.5l-225 -549v-473q0 -61 9 -90t37.5 -40.5t88.5 -11.5q4 0 4 -12t-4 -12q-47 0 -76 2l-109 2l-108 -2q-29 -2 -78 -2q-4 0 -4 12t4 12q57 0 86 11.5t39 40t10 90.5v452l-256 566q-41 90 -66.5 117.5t-64.5 27.5q-6 0 -6 12.5z" />
<glyph unicode="&#x4b0;" horiz-adv-x="1243" d="M-10 1267.5q0 12.5 6 12.5l76 -2q49 -4 73 -4q68 0 166 4l107 2q4 0 4 -12.5t-4 -12.5q-61 0 -89 -9t-28 -29q0 -12 21 -43l344 -494l262 397q45 74 45 113q0 66 -111 65q-4 0 -4 12.5t4 12.5l92 -2q78 -4 138 -4q35 0 84 4l75 2q4 0 4 -12.5t-4 -12.5q-76 0 -147.5 -48 t-128.5 -136l-289 -438v-6h293q10 0 10 -19q0 -6 -3 -12t-7 -6h-293v-424q0 -63 12.5 -92t49 -39t118.5 -10q6 0 6 -12.5t-6 -12.5q-61 0 -96 2l-139 2l-139 -2q-37 -2 -99 -2q-6 0 -6 12.5t6 12.5q80 0 118 10t52.5 39.5t14.5 91.5v424h-302q-8 0 -8 18t8 19h285l-334 483 q-53 80 -104 112.5t-127 32.5q-6 0 -6 12.5z" />
<glyph unicode="&#x4b1;" horiz-adv-x="886" d="M2 778.5q0 12.5 6 12.5q41 0 64 -3l61 -2l129 2q29 2 78 3q6 0 6 -12.5t-6 -12.5q-125 0 -125 -49q0 -14 8 -31l262 -571l201 522q12 31 12 55q0 39 -40 56.5t-130 17.5q-4 0 -4 12.5t4 12.5q55 0 84 -3l123 -2l72 2q20 2 63 3q4 0 4 -12.5t-4 -12.5q-51 0 -83.5 -29.5 t-65.5 -111.5l-223 -545h213q4 0 7 -6t3 -13q0 -8 -3 -14t-7 -6h-215v-438q0 -61 9 -90t37.5 -40.5t88.5 -11.5q4 0 4 -12t-4 -12q-47 0 -76 2l-109 2l-108 -2q-29 -2 -78 -2q-4 0 -4 12t4 12q57 0 86 11.5t39 40t10 90.5v438h-223q-8 0 -8 20q0 18 8 19h213l-246 541 q-41 90 -66.5 117.5t-64.5 27.5q-6 0 -6 12.5z" />
<glyph unicode="&#x4b2;" horiz-adv-x="1325" d="M35 12.5q0 12.5 6 12.5q70 0 135.5 42t124.5 121l309 424l-329 498q-53 80 -106.5 112.5t-127.5 32.5q-4 0 -4 12.5t4 12.5q25 0 78 -4l74 -2q66 0 163 4l107 2q6 0 6 -12.5t-6 -12.5q-61 0 -88 -9t-27 -29q0 -14 19 -43l311 -467l260 366q49 72 49 113q0 70 -119 69 q-6 0 -6 12.5t6 12.5l93 -2q78 -4 137 -4q35 0 84 4l74 2q6 0 6 -12.5t-6 -12.5q-139 0 -275 -184l-287 -391l340 -510q45 -72 104.5 -108.5t127.5 -36.5q16 0 19 -3.5t3 -21.5q0 -31 -2 -53q-4 -98 -4 -330q0 -10 -11 -10t-11 10q0 195 -47.5 289t-153.5 94h-215 q-4 0 -4 12.5t4 12.5q61 0 88 8t27 28q0 16 -19 43l-317 482l-285 -398q-41 -59 -41 -96q0 -68 125 -67q6 0 6 -12.5t-6 -12.5q-61 0 -92 2l-137 2l-84 -2q-23 -2 -74 -2q-6 0 -6 12.5z" />
<glyph unicode="&#x4b3;" horiz-adv-x="899" d="M27 12.5q0 12.5 4 12.5q51 0 111.5 35.5t109.5 105.5l151 211l-161 244q-51 78 -106.5 111.5t-102.5 33.5q-4 0 -4 12.5t4 12.5q43 0 63 -3l64 -2l129 2q29 2 78 3q4 0 4 -12.5t-4 -12.5q-39 0 -56.5 -5t-17.5 -20q0 -12 26 -55l148 -223l117 174q43 59 43 86 q0 23 -29 33t-98 10q-4 0 -4 12.5t4 12.5q55 0 84 -3l123 -2l71 2q20 2 64 3q4 0 4 -12.5t-4 -12.5q-53 0 -110.5 -34t-110.5 -107l-138 -187l179 -268q51 -76 106 -110.5t90 -34.5q14 0 16.5 -3.5t2.5 -21.5t-5.5 -73.5t-5.5 -190.5q0 -10 -11 -10t-11 10q0 131 -42 197.5 t-124 66.5h-141q-6 0 -6.5 12.5t6.5 12.5q39 0 56 5t17 19q0 12 -26 55l-162 244l-135 -194q-16 -25 -27.5 -46.5t-11.5 -37.5q0 -45 123 -45q6 0 6 -12.5t-6 -12.5q-55 0 -82 2l-123 2l-72 -2q-20 -2 -63 -2q-4 0 -4 12.5z" />
<glyph unicode="&#x4b4;" horiz-adv-x="1777" d="M76 965q0 27 12 157q16 152 16 203q0 10 12.5 10t12.5 -10q0 -45 109 -45l155 -2q131 -4 209 -4q92 0 195 4l104 2q74 0 110 10t44 41q2 8 12 8t10 -8q0 -29 -4 -97.5t-6 -105.5q-8 -135 -8 -163q0 -4 -12.5 -4t-12.5 4q0 152 -39 216t-114 64q-106 0 -150.5 -7 t-60 -33.5t-15.5 -90.5v-944q0 -70 8.5 -92.5t40 -28.5t127.5 -6h383q100 0 134 6t42.5 28.5t8.5 92.5v944q0 61 -9.5 90t-37 40t-86.5 11q-6 0 -6 12.5t6 12.5l77 -2q66 -4 111 -4q53 0 135 4l103 2q4 0 4 -12.5t-4 -12.5q-80 0 -118 -11t-52.5 -39.5t-14.5 -90.5v-948 q0 -78 7.5 -102.5t37 -31.5t115.5 -7q16 0 19.5 -3.5t3.5 -21.5q0 -31 -2 -53q-4 -98 -5 -330q0 -10 -11 -10t-11 10q0 143 -27.5 226t-90 120t-169.5 37h-1009q-6 0 -6.5 12.5t6.5 12.5q80 0 117.5 10t52 39.5t14.5 91.5v948q0 66 -18.5 92.5t-65.5 32.5t-168 6 q-86 0 -141.5 -66.5t-55.5 -213.5q0 -4 -12 -4t-12 4z" />
<glyph unicode="&#x4b5;" horiz-adv-x="1232" d="M72 774q0 12 2 15.5t14 3.5q43 0 76 -2l272 -3l234 3q27 2 63 2q12 0 14.5 -3.5t2.5 -15.5q0 -49 -2.5 -87t-4.5 -62l-4 -101q0 -4 -11 -4t-11 4q0 133 -26.5 186.5t-92.5 53.5q-68 0 -88.5 -27.5t-20.5 -111.5v-459q0 -70 5.5 -92.5t24 -28.5t77.5 -6h231q59 0 79 6 t25 29.5t5 95.5v455q0 61 -6 90.5t-23.5 40t-56.5 10.5q-4 0 -4 12.5t4 12.5q37 0 57 -3l76 -2l102 2q31 2 84 3q4 0 4.5 -12.5t-4.5 -12.5q-61 0 -88.5 -10.5t-38 -39t-10.5 -91.5v-459v-66q0 -39 7.5 -53t31 -18t84.5 -4q14 0 16.5 -3.5t2.5 -21.5q0 -27 -3 -45 q-8 -82 -8 -266q0 -10 -11 -10.5t-11 10.5q0 176 -59.5 243.5t-166.5 67.5h-657q-4 0 -4 12.5t4 12.5q59 0 87 12t38 42t10 91v455q0 84 -20.5 111.5t-89.5 27.5q-98 0 -138.5 -53.5t-40.5 -186.5q0 -4 -11 -4t-11 4l-4 101q-2 25 -4 62.5t-2 86.5z" />
<glyph unicode="&#x4b6;" d="M-10 1267.5q0 12.5 6 12.5l98 -2q82 -4 135 -4q51 0 129 4l84 2q6 0 6.5 -12.5t-6.5 -12.5q-68 0 -100.5 -12t-44.5 -42t-12 -91v-203q0 -172 79.5 -263t217.5 -91q84 0 163.5 35t163.5 119v403q0 61 -11 91t-44 42t-102 12q-4 0 -4 12.5t4 12.5l86 -2q78 -4 127 -4 q53 0 139 4l98 2q6 0 6 -12.5t-6 -12.5q-80 0 -117.5 -11t-52 -39.5t-14.5 -90.5v-948q0 -78 7 -102.5t37 -31.5t116 -7q16 0 19 -3.5t3 -21.5v-53q-4 -98 -4 -330q0 -10 -12.5 -10t-12.5 10q0 143 -27.5 226t-89 120t-167.5 37h-158q-6 0 -6 12.5t6 12.5q82 0 119 10 t49 38.5t12 92.5v506q-92 -88 -183 -128t-191 -40q-158 0 -257.5 90t-99.5 242v278q0 61 -13 90t-51 40t-118 11q-6 0 -6 12.5z" />
<glyph unicode="&#x4b7;" horiz-adv-x="837" d="M14 778.5q0 12.5 4 12.5q39 0 60 -3l78 -2l90 2q25 2 65 3q6 0 6 -12.5t-6 -12.5q-70 0 -91 -28.5t-21 -116.5v-66q0 -88 43 -135t129 -47q41 0 93 11t95 32v209q0 61 -8 90.5t-31.5 40t-70.5 10.5q-6 0 -6.5 12.5t6.5 12.5q43 0 69 -3l90 -2l103 2q29 2 77 3 q4 0 4.5 -12.5t-4.5 -12.5q-59 0 -86.5 -12.5t-38 -42t-10.5 -90.5v-455v-66q0 -39 7.5 -53t31 -18t84.5 -4q15 0 17 -3.5t2 -21.5t-4.5 -73.5t-4.5 -190.5q0 -10 -12 -10t-12 10q0 152 -59.5 208t-165.5 56h-115q-6 0 -6 12.5t6 12.5q59 0 88 10t39 39.5t10 91.5v217 q-125 -74 -250 -74q-102 0 -153.5 60.5t-51.5 173.5v82q0 63 -6 91.5t-23.5 39t-56.5 10.5q-4 0 -4 12.5z" />
<glyph unicode="&#x4b8;" horiz-adv-x="1302" d="M-10 1267.5q0 12.5 6 12.5l98 -2q82 -4 135 -4q51 0 129 4l84 2q6 0 6.5 -12.5t-6.5 -12.5q-68 0 -100.5 -12t-44.5 -42t-12 -91v-203q0 -166 78.5 -255t224.5 -99v377q0 4 7 7t15 3q23 0 23 -10v-377q156 8 301 113v444q0 61 -11.5 91t-44 42t-102.5 12q-6 0 -6 12.5 t6 12.5l86 -2q78 -4 127 -4q53 0 135 4l103 2q4 0 4 -12.5t-4 -12.5q-80 0 -118 -11t-52.5 -39.5t-14.5 -90.5v-948q0 -61 14.5 -91t52.5 -40t118 -10q4 0 4 -12.5t-4 -12.5q-66 0 -103 2l-135 2l-139 -2q-37 -2 -98 -2q-4 0 -4 12.5t4 12.5q82 0 118.5 10t50 38.5 t13.5 92.5v471q-147 -111 -301 -129v-258q0 -8 -23 -8t-22 8v254h-21q-176 0 -282.5 90t-106.5 242v278q0 61 -13 90t-51 40t-118 11q-6 0 -6 12.5z" />
<glyph unicode="&#x4b9;" horiz-adv-x="907" d="M2 778.5q0 12.5 6 12.5q37 0 58 -3l77 -2l90 2q25 2 66 3q6 0 6 -12.5t-6 -12.5q-70 0 -91.5 -28.5t-21.5 -116.5v-78q0 -82 49.5 -129t145.5 -52v216q0 4 6 7t14 3q6 0 12.5 -3t6.5 -7v-216q104 4 192 44v219q0 61 -8 90.5t-30.5 40t-69.5 10.5q-6 0 -6 12.5t6 12.5 q43 0 69 -3l91 -2l102 2q29 2 78 3q4 0 4 -12.5t-4 -12.5q-59 0 -87 -12.5t-38 -42t-10 -90.5v-455q0 -61 10 -91t37.5 -40t87.5 -10q4 0 4 -12.5t-4 -12.5q-51 0 -80 2l-100 2l-109 -2q-29 -2 -78 -2q-6 0 -6 12.5t6 12.5q59 0 87 10t38 39.5t10 91.5v205q-96 -51 -192 -68 v-170q0 -2 -6 -5t-13 -3q-8 0 -14 3t-6 5v166q-14 -2 -41 -2q-123 0 -184.5 60.5t-61.5 174.5v93q0 61 -6 90.5t-23.5 40t-56.5 10.5q-6 0 -6 12.5z" />
<glyph unicode="&#x4ba;" horiz-adv-x="1275" d="M70 12.5q0 12.5 4 12.5q80 0 117.5 10t52 39.5t14.5 91.5v948q0 61 -14.5 90t-52 40t-117.5 11q-4 0 -4 12.5t4 12.5l102 -2q82 -4 135 -4q57 0 140 4l98 2q4 0 4 -12.5t-4 -12.5q-82 0 -119 -11t-50 -39.5t-13 -90.5v-446q180 133 366 133q166 0 266.5 -90t100.5 -244 v-301q0 -61 13 -91t51 -40t118 -10q4 0 4 -12.5t-4 -12.5q-63 0 -100 2l-135 2l-129 -2q-31 -2 -84 -2q-4 0 -4.5 12.5t4.5 12.5q70 0 102.5 12t43.5 42t11 91v225q0 174 -80 264.5t-225 90.5q-164 0 -319 -113v-467q0 -61 11 -91t44 -42t102 -12q6 0 6 -12.5t-6 -12.5 q-55 0 -86 2l-127 2l-135 -2q-37 -2 -102 -2q-4 0 -4 12.5z" />
<glyph unicode="&#x4bb;" horiz-adv-x="1015" d="M9 1349.5q-3 10.5 5 12.5l252 123h4q14 0 15 -15v-837q82 94 158.5 136t158.5 42q113 0 173.5 -62.5t60.5 -185.5v-397q0 -61 10 -91t37.5 -40t87.5 -10q4 0 4 -12.5t-4 -12.5q-47 0 -76 2l-107 2l-108 -2q-27 -2 -74 -2q-6 0 -6 12.5t6 12.5q59 0 86 10t37 39.5t10 91.5 v334q0 125 -47 184t-145 59q-66 0 -135.5 -37.5t-126.5 -103.5v-436q0 -61 10 -91t37.5 -40t87.5 -10q4 0 4 -12.5t-4 -12.5q-47 0 -76 2l-106 2l-109 -2q-27 -2 -74 -2q-6 0 -6 12.5t6 12.5q59 0 86 10t37 39.5t10 91.5v1063q0 76 -14 108.5t-51 32.5q-35 0 -98 -31h-5 q-8 0 -11 10.5z" />
<glyph unicode="&#x4bc;" horiz-adv-x="1515" d="M0 1014q0 4 14.5 5t14.5 -3q6 -154 67.5 -236t167.5 -92q8 178 101.5 318.5t239 218.5t308.5 78q256 0 379 -148.5t123 -460.5q0 -25 -6 -34t-25 -9h-991q10 -180 86 -329.5t195 -235.5t254 -86q158 0 274.5 80t169.5 244q0 6 8 6q6 0 11.5 -2t5.5 -6l-29 -220 q-4 -25 -9 -32t-22 -15q-197 -80 -417 -80q-221 0 -369 98.5t-217.5 253t-69.5 324.5h-127q-76 0 -104.5 23.5t-28.5 93.5l2 80q0 47 -6 166zM391 686h899q-6 291 -118.5 432.5t-337.5 141.5q-131 0 -231.5 -69t-156 -194t-55.5 -288v-23z" />
<glyph unicode="&#x4bd;" horiz-adv-x="985" d="M0 754q0 6 14.5 7t14.5 -3q0 -139 53 -219t149 -99q16 104 76 188.5t147 132.5t181 48q139 0 203.5 -89t64.5 -241q0 -45 -5 -59t-19 -14h-539q10 -164 94 -264.5t228 -100.5q61 0 106 17.5t98 52.5h2q6 0 12.5 -7.5t0.5 -13.5q-131 -115 -291 -115q-117 0 -199 55.5 t-124 144.5t-42 194q0 25 2 37h-90q-78 0 -105.5 20t-27.5 84q0 31 -2 49q0 23 -1 67t-1 128zM340 434l444 2q10 332 -211 332q-106 0 -169.5 -87t-63.5 -239v-8z" />
<glyph unicode="&#x4be;" horiz-adv-x="1515" d="M0 1014q0 4 14.5 5t14.5 -3q6 -154 67.5 -236t167.5 -92q8 178 101.5 318.5t239 218.5t308.5 78q256 0 379 -148.5t123 -460.5q0 -25 -6 -34t-25 -9h-991q10 -180 86 -329.5t195 -235.5t254 -86q158 0 274.5 80t169.5 244q0 6 8 6q6 0 11.5 -2t5.5 -6l-29 -220 q-4 -25 -9 -32t-22 -15q-147 -59 -280 -71q-57 -6 -86 -25.5t-46.5 -97.5t-17.5 -244q0 -10 -11 -10t-11 10q0 203 -25.5 281.5t-81.5 89.5q-174 31 -289.5 132t-170 240.5t-54.5 290.5h-127q-76 0 -104.5 23.5t-28.5 93.5l2 80q0 47 -6 166zM391 686h899 q-6 291 -118.5 432.5t-337.5 141.5q-131 0 -231.5 -69t-156 -194t-55.5 -288v-23z" />
<glyph unicode="&#x4bf;" horiz-adv-x="985" d="M0 754q0 6 14.5 7t14.5 -3q0 -139 53 -219t149 -99q16 104 76 188.5t147 132.5t181 48q139 0 203.5 -89t64.5 -241q0 -45 -5 -59t-19 -14h-539q10 -164 94 -264.5t228 -100.5q61 0 106 17.5t98 52.5h2q6 0 12.5 -7.5t0.5 -13.5q-94 -86 -189 -102q-51 -10 -72.5 -64.5 t-21.5 -187.5q0 -10 -11.5 -10t-11.5 10q0 129 -21.5 185t-72.5 69q-121 31 -188.5 137t-67.5 242q0 25 2 37h-90q-78 0 -105.5 20t-27.5 84q0 31 -2 49q0 23 -1 67t-1 128zM340 434l444 2q10 332 -211 332q-106 0 -169.5 -87t-63.5 -239v-8z" />
<glyph unicode="&#x4c0;" horiz-adv-x="675" d="M92 12.5q0 12.5 6 12.5q80 0 118 10t52.5 39.5t14.5 91.5v948q0 61 -14.5 90t-52.5 40t-118 11q-6 0 -6 12.5t6 12.5l101 -2q86 -4 137 -4q57 0 143 4l96 2q4 0 4.5 -12.5t-4.5 -12.5q-80 0 -117.5 -12t-51 -42t-13.5 -91v-944q0 -64 13.5 -92.5t50.5 -38.5t118 -10 q4 0 4.5 -12.5t-4.5 -12.5q-61 0 -96 2l-143 2l-137 -2q-37 -2 -101 -2q-6 0 -6 12.5z" />
<glyph unicode="&#x4c1;" horiz-adv-x="2017" d="M25 12.5q0 12.5 4 12.5q82 2 144.5 38.5t121.5 109.5t154 212l53 82q68 104 101.5 144t74.5 57l-229 358q-84 131 -164 180t-197 49q-4 0 -4 12.5t4 12.5l72 -2q74 -4 135 -4q70 0 147 4l82 2q6 0 6 -12.5t-6 -12.5q-57 0 -80.5 -7t-23.5 -29q0 -20 17.5 -54.5 t70.5 -124.5l211 -362q45 4 78 4l114 -2q14 -2 45 -2v436q0 59 -19 89t-62.5 41t-124.5 11q-4 0 -4.5 12.5t4.5 12.5l110 -2q98 -4 148 -4q57 0 155 4l107 2q4 0 4 -12.5t-4 -12.5q-119 0 -163 -29.5t-44 -115.5v-432l156 4q55 0 77 -4l213 362q53 90 70.5 124t17.5 55 q0 23 -23.5 29.5t-80.5 6.5q-6 0 -6 12.5t6 12.5l82 -2q78 -4 147 -4q61 0 136 4l71 2q4 0 4 -12.5t-4 -12.5q-117 0 -196.5 -49t-163.5 -180l-230 -358q43 -16 77 -58.5t110 -158.5q10 -14 20 -31t23 -35q94 -139 153.5 -212t122 -109.5t144.5 -38.5q4 0 4 -12.5t-4 -12.5 h-246q-25 0 -43.5 15.5t-74.5 99.5t-150 229q-96 150 -137.5 203t-87.5 75.5t-130 22.5q-12 0 -57 -4v-475q0 -63 13.5 -92t50 -39t118.5 -10q6 0 6 -12.5t-6 -12.5q-61 0 -96 2l-141 2l-138 -2q-35 -2 -98 -2q-6 0 -6 12.5t6 12.5q80 0 118 10t52 39.5t14 91.5v475 q-49 4 -63 4q-82 0 -128 -21.5t-88 -74.5t-138 -201l-62 -96q-68 -106 -109.5 -167.5t-56 -73t-39.5 -11.5h-243q-4 0 -4 12.5zM729 1567q0 27 13.5 41t37.5 14q35 0 50.5 -22.5t29.5 -71.5q14 -51 50 -88t96 -37q57 0 97 35t54 90q14 49 29.5 71.5t50.5 22.5q51 0 51 -57 q0 -47 -40 -90t-105.5 -69t-134.5 -26q-72 0 -136.5 27t-103.5 70t-39 90z" />
<glyph unicode="&#x4c2;" horiz-adv-x="1323" d="M-2 12.5q0 12.5 4 12.5q53 0 88 17t59.5 49t65.5 99l29 48q66 102 102.5 141t89.5 49q-33 27 -67 90q-39 70 -79 126t-63 56q-10 0 -32.5 -13t-42.5 -13q-35 0 -55.5 20.5t-20.5 48.5q0 27 23.5 46.5t64.5 19.5q45 0 76.5 -24.5t55 -62.5t62.5 -118l39 -78 q25 -45 49.5 -69.5t57.5 -24.5q23 0 108 -4v193q0 61 -11 90.5t-43 42t-103 12.5q-4 0 -4 12.5t4 12.5l106 -3q33 -2 98 -2q63 0 99 2l108 3q6 0 6 -12.5t-6 -12.5q-72 0 -103.5 -10.5t-42.5 -39t-11 -91.5v-197q90 4 110 4q31 0 55.5 24.5t49.5 69.5l41 82q55 111 93 156 t101 45q41 0 63.5 -19.5t22.5 -46.5q0 -29 -20.5 -49t-53.5 -20q-23 0 -44 13t-31 13q-23 0 -64 -56t-80 -126q-31 -61 -65 -90q53 -10 89 -48t101 -142l31 -50q41 -66 66.5 -97.5t59.5 -48.5t85 -17q6 0 6 -12.5t-6 -12.5h-219q-12 0 -19.5 11.5t-32 58.5t-71.5 127 q-51 84 -86 124.5t-72 56t-94 15.5h-16v-227q0 -61 10 -91t37.5 -40t89.5 -10q4 0 4 -12.5t-4 -12.5q-53 0 -84 2l-103 2l-102 -2q-29 -2 -78 -2q-6 0 -6 12.5t6 12.5q59 0 87 10t37 39.5t9 91.5v227h-16q-57 0 -94 -15.5t-72 -56t-86 -124.5q-43 -72 -64.5 -115t-27.5 -53 q-10 -23 -13 -26t-16 -3h-221q-4 0 -4 12.5zM406 1139q0 53 51 53q35 0 50 -21.5t28 -70.5q10 -43 20 -65.5t34.5 -41t69.5 -18.5q61 0 88 33.5t41 91.5q12 45 27.5 68.5t48.5 23.5q53 0 54 -57q0 -47 -37 -90.5t-96.5 -69t-122.5 -25.5q-66 0 -125.5 27t-95 71t-35.5 91z " />
<glyph unicode="&#x4c3;" horiz-adv-x="1304" d="M70 12.5q0 12.5 4 12.5q80 0 117.5 10t52 39.5t14.5 91.5v948q0 61 -13.5 90t-51 40t-117.5 11q-4 0 -4 12.5t4 12.5l100 -2q86 -4 135 -4q55 0 142 4l96 2q4 0 4 -12.5t-4 -12.5q-80 0 -118 -12t-51 -42t-13 -91v-432q31 2 90 2q49 0 94 -6l258 366q49 70 71.5 110 t22.5 62q0 25 -26.5 34t-83.5 9q-4 0 -4.5 12.5t4.5 12.5l86 -2q78 -4 143 -4q66 0 135 4l72 2q6 0 6 -12.5t-6 -12.5q-113 0 -185.5 -49t-173.5 -180l-276 -360q162 -35 300 -140.5t218 -253t80 -299.5q0 -106 -40 -210.5t-118 -173t-186 -68.5q-76 0 -123 33.5t-47 80.5 q0 31 18.5 50.5t48.5 19.5q51 0 76 -63q2 -8 9.5 -32t24.5 -36t48 -12q88 0 134 94t46 219q0 182 -94 362.5t-245.5 295t-311.5 114.5q-43 0 -65 -2v-479q0 -63 16 -92t62.5 -39t150.5 -10q6 0 6 -12.5t-6 -12.5q-74 0 -117 2l-168 2l-135 -2q-37 -2 -102 -2q-4 0 -4 12.5z " />
<glyph unicode="&#x4c4;" horiz-adv-x="933" d="M59.5 12.5q-0.5 12.5 6.5 12.5q61 0 88.5 10t37 39.5t9.5 91.5v459q0 61 -9.5 90.5t-37 40t-86.5 10.5q-6 0 -6.5 12.5t6.5 12.5q49 0 77 -3l107 -2l102 2q29 2 78 3q4 0 4 -12.5t-4 -12.5q-59 0 -87 -12.5t-38 -42t-10 -90.5v-187q47 6 96 6q45 0 83 23.5t61 62.5l41 82 q55 111 93 156t101 45q41 0 63.5 -19.5t22.5 -46.5q0 -29 -20.5 -49t-55.5 -20q-20 0 -42.5 13t-32.5 13q-23 0 -63 -56t-79 -126q-35 -57 -80 -84q162 -20 264.5 -108t102.5 -232q0 -133 -88 -266t-229 -223h-5q-6 0 -12 6t0 10q111 84 171.5 180.5t60.5 227.5 q0 125 -55.5 211t-145.5 127t-195 41q-37 0 -57 -2v-240q0 -61 9 -91t37 -40t89 -10q4 0 4 -12.5t-4 -12.5q-51 0 -80 2l-100 2l-107 -2q-29 -2 -79 -2q-6 0 -6.5 12.5z" />
<glyph unicode="&#x4c5;" horiz-adv-x="1429" d="M-6 12.5q0 12.5 10 12.5q57 0 97 20.5t76 73.5t77 151l428 1030q4 6 13.5 6.5t11.5 -6.5l475 -1019q47 -104 82.5 -158.5t71.5 -76t81 -21.5q10 -1 10 -13q0 -6 -6 -16t-16 -25q-96 -133 -217 -377q0 -2 -4 -2q-6 0 -11.5 5.5t-3.5 9.5q104 209 105 297q0 57 -40 76.5 t-120 19.5h-137q-8 0 -8 12.5t8 12.5q84 0 121 15t37 52q0 29 -23 80l-450 967l-369 -887q-29 -70 -29 -115q0 -59 49 -85.5t154 -26.5q10 0 10 -12.5t-10 -12.5q-37 0 -107 4q-78 4 -135 4q-51 0 -121 -4q-61 -4 -100 -4q-10 0 -10 12.5z" />
<glyph unicode="&#x4c6;" horiz-adv-x="931" d="M2 12.5q0 12.5 8 12.5q37 0 78 51t105 194l235 551q4 8 13.5 8t11.5 -8l254 -540q51 -106 83.5 -160.5t58 -75t56.5 -20.5q23 -1 23 -21q0 -12 -10.5 -33.5t-30.5 -60.5l-115 -225q-4 -4 -8 -4q-6 0 -11 4t-3 8q68 129 67 205q0 102 -139 102h-125q-4 0 -4 12.5t4 12.5 q49 0 79 18t30 55q0 33 -21 74l-229 487l-172 -407q-37 -86 -37 -139q0 -88 96 -88q10 0 10 -12.5t-10 -12.5q-23 0 -59 4q-45 4 -82 4q-41 0 -82 -4q-37 -4 -66 -4q-8 0 -8 12.5z" />
<glyph unicode="&#x4c7;" horiz-adv-x="1564" d="M70 12.5q0 12.5 4 12.5q80 0 117.5 10t52 39.5t14.5 91.5v948q0 61 -13.5 90t-51 40t-117.5 11q-4 0 -4 12.5t4 12.5l100 -2q86 -4 135 -4q55 0 142 4l96 2q4 0 4 -12.5t-4 -12.5q-80 0 -118 -12t-51 -42t-13 -91v-424h817v424q0 61 -13.5 91t-51.5 42t-118 12 q-6 0 -6 12.5t6 12.5l97 -2q86 -4 141 -4q51 0 137 4l99 2q6 0 6 -12.5t-6 -12.5q-80 0 -118 -11t-52.5 -39.5t-14.5 -90.5v-1184q0 -197 -89 -313.5t-259 -116.5q-68 0 -106.5 21.5t-38.5 56.5q0 27 16 43.5t45 16.5q31 0 47.5 -12.5t36.5 -37.5q16 -25 32.5 -37t45.5 -12 q82 0 123 93.5t41 297.5v717h-817v-481q0 -63 13 -92t50 -39t119 -10q4 0 4 -12.5t-4 -12.5q-61 0 -98 2l-140 2l-135 -2q-37 -2 -102 -2q-4 0 -4 12.5z" />
<glyph unicode="&#x4c8;" horiz-adv-x="1034" d="M59.5 12.5q-0.5 12.5 6.5 12.5q61 0 88.5 10t37 39.5t9.5 91.5v459q0 61 -9.5 90.5t-37 40t-86.5 10.5q-6 0 -6.5 12.5t6.5 12.5q49 0 77 -3l107 -2l102 2q29 2 78 3q4 0 4 -12.5t-4 -12.5q-59 0 -87 -12.5t-38 -42t-10 -90.5v-207h455v211q0 61 -9.5 90.5t-37 40 t-87.5 10.5q-6 0 -6 12.5t6 12.5q49 0 78 -3l107 -2l102 2q29 2 78 3q4 0 4 -12.5t-4 -12.5q-59 0 -87 -12.5t-38 -42t-10 -90.5v-719q0 -211 -58.5 -319.5t-209.5 -160.5q-4 -2 -9.5 9.5t-1.5 13.5q100 33 141.5 130t41.5 280v522h-455v-211q0 -61 9 -91t37 -40t89 -10 q4 0 4 -12.5t-4 -12.5q-51 0 -80 2l-100 2l-107 -2q-29 -2 -79 -2q-6 0 -6.5 12.5z" />
<glyph unicode="&#x4c9;" horiz-adv-x="1552" d="M70 12.5q0 12.5 4 12.5q80 0 117.5 10t52 39.5t14.5 91.5v948q0 61 -13.5 90t-51 40t-117.5 11q-4 0 -4 12.5t4 12.5l100 -2q86 -4 135 -4q55 0 142 4l96 2q4 0 4 -12.5t-4 -12.5q-80 0 -118 -12t-51 -42t-13 -91v-424h817v424q0 61 -13.5 91t-51.5 42t-118 12 q-6 0 -6 12.5t6 12.5l97 -2q86 -4 141 -4q51 0 137 4l99 2q6 0 6 -12.5t-6 -12.5q-80 0 -118 -11t-52.5 -39.5t-14.5 -90.5v-948q0 -76 8.5 -101.5t37 -32.5t116.5 -7q20 0 21 -21q0 -8 -8.5 -19.5t-12.5 -17.5q-90 -113 -219 -373q0 -2 -4 -2q-6 0 -11.5 5.5t-3.5 9.5 q104 209 105 297q0 57 -40 76.5t-120 19.5h-158q-6 0 -6 12.5t6 12.5q82 0 119 10t50.5 38.5t13.5 92.5v481h-817v-481q0 -63 13 -92t50 -39t119 -10q4 0 4 -12.5t-4 -12.5q-61 0 -98 2l-140 2l-135 -2q-37 -2 -102 -2q-4 0 -4 12.5z" />
<glyph unicode="&#x4ca;" horiz-adv-x="1046" d="M59.5 12.5q-0.5 12.5 6.5 12.5q61 0 88.5 10t37 39.5t9.5 91.5v459q0 61 -9.5 90.5t-37 40t-86.5 10.5q-6 0 -6.5 12.5t6.5 12.5q49 0 77 -3l107 -2l102 2q29 2 78 3q4 0 4 -12.5t-4 -12.5q-59 0 -87 -12.5t-38 -42t-10 -90.5v-207h455v211q0 61 -9.5 90.5t-37 40 t-87.5 10.5q-6 0 -6 12.5t6 12.5q49 0 78 -3l107 -2l102 2q29 2 78 3q4 0 4 -12.5t-4 -12.5q-59 0 -87 -12.5t-38 -42t-10 -90.5v-455q0 -63 8 -92t32.5 -39t80.5 -10q20 -1 20 -21q0 -14 -12 -38.5t-37 -71.5l-106 -209q-4 -4 -9 -4q-6 0 -11 4t-3 8q68 129 68 205 q0 102 -140 102h-123q-6 0 -6 12.5t6 12.5q61 0 89 10t37.5 38.5t9.5 92.5v211h-455v-211q0 -61 9 -91t37 -40t89 -10q4 0 4 -12.5t-4 -12.5q-51 0 -80 2l-100 2l-107 -2q-29 -2 -79 -2q-6 0 -6.5 12.5z" />
<glyph unicode="&#x4cb;" d="M-10 1267.5q0 12.5 6 12.5l98 -2q82 -4 135 -4q51 0 129 4l84 2q6 0 6.5 -12.5t-6.5 -12.5q-68 0 -100.5 -12t-44.5 -42t-12 -91v-203q0 -172 79.5 -263t217.5 -91q84 0 163.5 35t163.5 119v403q0 61 -11 91t-44 42t-102 12q-4 0 -4 12.5t4 12.5l86 -2q78 -4 127 -4 q53 0 139 4l98 2q6 0 6 -12.5t-6 -12.5q-80 0 -117.5 -11t-52 -39.5t-14.5 -90.5v-948q0 -63 13 -92t50 -39t119 -10q4 0 4 -12.5t-4 -12.5h-158q-106 0 -167.5 -37t-89 -120t-27.5 -226q0 -10 -12.5 -10t-12.5 10q0 231 -4 330v53q0 18 3 21.5t18 3.5q86 0 115.5 7 t36.5 31.5t7 102.5v506q-92 -88 -183 -128t-191 -40q-158 0 -257.5 90t-99.5 242v278q0 61 -13 90t-51 40t-118 11q-6 0 -6 12.5z" />
<glyph unicode="&#x4cc;" horiz-adv-x="856" d="M14 778.5q0 12.5 4 12.5q39 0 60 -3l78 -2l90 2q25 2 65 3q6 0 6 -12.5t-6 -12.5q-70 0 -91 -28.5t-21 -116.5v-66q0 -88 43 -135t129 -47q41 0 93 11t95 32v209q0 61 -8 90.5t-31.5 40t-70.5 10.5q-6 0 -6.5 12.5t6.5 12.5q43 0 69 -3l90 -2l103 2q29 2 77 3 q4 0 4.5 -12.5t-4.5 -12.5q-59 0 -86.5 -12.5t-38 -42t-10.5 -90.5v-455q0 -61 10.5 -91t39 -40t88.5 -10q4 0 4 -12.5t-4 -12.5h-115q-106 0 -165.5 -56.5t-59.5 -207.5q0 -10 -12.5 -10t-12.5 10q0 135 -4 190.5t-4 73.5t2 21.5t16 3.5q61 0 85 4t31 18t7 53v66v217 q-125 -74 -250 -74q-102 0 -153.5 60.5t-51.5 173.5v82q0 63 -6 91.5t-23.5 39t-56.5 10.5q-4 0 -4 12.5z" />
<glyph unicode="&#x4cd;" horiz-adv-x="1699" d="M82 12.5q0 12.5 4 12.5q86 0 122 42t38 146l20 971q-63 72 -166 71q-4 0 -4 12.5t4 12.5l70 -2q20 -2 53 -2t55.5 2t34.5 2q29 0 45.5 -19.5t49.5 -86.5l460 -996l459 1051q10 23 27.5 37t34.5 14q8 0 26.5 -2t50.5 -2l93 2q20 2 63 2q4 0 4 -12.5t-4 -12.5 q-106 0 -150.5 -27.5t-41.5 -109.5l38 -952q6 -78 15.5 -102.5t39 -31.5t115.5 -7q23 -1 23 -21q0 -8 -58.5 -85t-181.5 -325q-2 -2 -6 -2q-6 0 -11 5.5t-3 9.5q104 209 104 299q0 57 -39 75.5t-120 18.5h-158q-4 0 -4 12.5t4 12.5q82 0 117.5 10t47 38.5t7.5 92.5l-35 952 l-479 -1104q-4 -8 -17 -8q-10 0 -18 8l-500 1096l-2 4l-16 -901q-2 -106 35 -147t137 -41q4 0 4 -12.5t-4 -12.5q-57 0 -88 2l-111 2l-100 -2q-27 -2 -80 -2q-4 0 -4 12.5z" />
<glyph unicode="&#x4ce;" horiz-adv-x="1148" d="M18.5 12.5q-0.5 12.5 6.5 12.5q72 0 99.5 40.5t35.5 147.5l53 590q0 10 20 10q14 0 17 -4l338 -672l284 668q4 10 19 10q8 0 15 -4t9 -10l72 -635q8 -68 16.5 -94.5t30 -36.5t70.5 -10q22 -1 22 -21q0 -12 -10 -33.5t-31 -60.5l-114 -225q-4 -4 -8 -4q-6 0 -11.5 4 t-3.5 8q68 129 68 205q0 102 -139 102h-97q-4 0 -4 12.5t4 12.5q63 0 89 18t26 72q0 10 -4 51l-62 434l-256 -600q-2 -8 -16 -8q-10 0 -16 8l-295 592l-45 -379q-4 -37 -4 -49q0 -74 32.5 -106.5t100.5 -32.5q6 0 6 -12.5t-6 -12.5q-43 0 -66 2l-84 2l-86 -2q-25 -2 -69 -2 q-6 0 -6.5 12.5z" />
<glyph unicode="&#x4cf;" horiz-adv-x="524" d="M38 1349.5q-3 10.5 5 12.5l252 121q4 2 10 2q4 0 9 -4t5 -11v-1304q0 -61 9.5 -90t37 -40t87.5 -11q6 0 6 -12.5t-6 -12.5q-45 0 -74 2l-111 2l-110 -2q-27 -2 -74 -2q-6 0 -6 12.5t6 12.5q59 0 86 10t37 39.5t10 91.5v1063q0 76 -14.5 108.5t-50.5 32.5q-33 0 -99 -31 h-4q-8 0 -11 10.5z" />
<glyph unicode="&#x4d0;" horiz-adv-x="1429" d="M-6 12.5q0 12.5 10 12.5q57 0 97 20.5t76 73.5t77 151l428 1030q4 6 13.5 6.5t11.5 -6.5l475 -1019q47 -104 84 -158.5t72.5 -76t82.5 -21.5q9 0 9 -12.5t-9 -12.5q-37 0 -118 4q-78 4 -115 4q-43 0 -113 -4q-66 -4 -98 -4q-8 0 -8 12.5t8 12.5q84 0 121 15t37 52 q0 29 -23 80l-244 522h-391l-184 -442q-29 -70 -29 -115q0 -59 49 -85.5t154 -26.5q10 0 10 -12.5t-10 -12.5q-37 0 -107 4q-78 4 -135 4q-51 0 -121 -4q-61 -4 -100 -4q-10 0 -10 12.5zM414 1567q0 27 13 41t38 14q35 0 50 -22.5t30 -71.5q14 -51 50 -88t95 -37q57 0 97 35 t55 90q14 49 29.5 71.5t50.5 22.5q51 0 51 -57q0 -47 -40 -90t-105.5 -69t-135.5 -26q-71 0 -135.5 27t-103.5 70t-39 90zM494 733h358l-190 406z" />
<glyph unicode="&#x4d1;" horiz-adv-x="858" d="M117 102q0 51 41 85t143 71l258 92v172q0 139 -38 192.5t-101 53.5q-74 0 -115 -53t-51 -119q-4 -29 -17.5 -48.5t-48.5 -19.5q-29 0 -45 14.5t-16 41.5q0 45 58.5 98t142.5 90t153 37q78 0 125 -56.5t47 -168.5v-363q0 -76 17.5 -108.5t60.5 -32.5q39 0 113 31h4 q8 0 10 -9.5t-6 -13.5l-211 -100q-8 -4 -16 -4q-23 0 -42.5 36.5t-23.5 100.5l-135 -74q-68 -35 -104.5 -48t-73.5 -13q-63 0 -96 33.5t-33 82.5zM170 1139q0 53 51 53q35 0 50.5 -21.5t27.5 -70.5q10 -43 20.5 -65.5t35 -41t69.5 -18.5q61 0 88 33.5t41 91.5 q12 45 27.5 68.5t48.5 23.5q53 0 53 -57q0 -47 -37 -90.5t-96.5 -69t-122.5 -25.5q-66 0 -125 27t-95 71t-36 91zM240 141q0 -43 24.5 -66.5t65.5 -23.5q37 0 78 19l151 75v7v176l-237 -90q-45 -16 -63.5 -39t-18.5 -58z" />
<glyph unicode="&#x4d2;" horiz-adv-x="1429" d="M-6 12.5q0 12.5 10 12.5q57 0 97 20.5t76 73.5t77 151l428 1030q4 6 13.5 6.5t11.5 -6.5l475 -1019q47 -104 84 -158.5t72.5 -76t82.5 -21.5q9 0 9 -12.5t-9 -12.5q-37 0 -118 4q-78 4 -115 4q-43 0 -113 -4q-66 -4 -98 -4q-8 0 -8 12.5t8 12.5q84 0 121 15t37 52 q0 29 -23 80l-244 522h-391l-184 -442q-29 -70 -29 -115q0 -59 49 -85.5t154 -26.5q10 0 10 -12.5t-10 -12.5q-37 0 -107 4q-78 4 -135 4q-51 0 -121 -4q-61 -4 -100 -4q-10 0 -10 12.5zM432 1552q0 37 21.5 57.5t60.5 20.5q37 0 57.5 -20.5t20.5 -57.5t-20.5 -57t-57.5 -20 q-39 0 -60.5 20.5t-21.5 56.5zM494 733h358l-190 406zM791 1552q0 37 22.5 57.5t58.5 20.5q39 0 59.5 -20.5t20.5 -57.5t-20.5 -57t-59.5 -20q-36 0 -58.5 20.5t-22.5 56.5z" />
<glyph unicode="&#x4d3;" horiz-adv-x="858" d="M117 102q0 51 41 85t143 71l258 92v172q0 139 -38 192.5t-101 53.5q-74 0 -115 -53t-51 -119q-4 -29 -17.5 -48.5t-48.5 -19.5q-29 0 -45 14.5t-16 41.5q0 45 58.5 98t142.5 90t153 37q78 0 125 -56.5t47 -168.5v-363q0 -76 17.5 -108.5t60.5 -32.5q39 0 113 31h4 q8 0 10 -9.5t-6 -13.5l-211 -100q-8 -4 -16 -4q-23 0 -42.5 36.5t-23.5 100.5l-135 -74q-68 -35 -104.5 -48t-73.5 -13q-63 0 -96 33.5t-33 82.5zM166 1063q0 37 21.5 57.5t60.5 20.5q37 0 57.5 -20.5t20.5 -57.5t-20.5 -57.5t-57.5 -20.5q-39 0 -60.5 20.5t-21.5 57.5z M240 141q0 -43 24.5 -66.5t65.5 -23.5q37 0 78 19l151 75v7v176l-237 -90q-45 -16 -63.5 -39t-18.5 -58zM524 1063q0 37 22.5 57.5t59.5 20.5q39 0 59.5 -20.5t20.5 -57.5t-20.5 -57.5t-59.5 -20.5q-37 0 -59.5 20.5t-22.5 57.5z" />
<glyph unicode="&#x4d4;" horiz-adv-x="1783" d="M2 12.5q0 12.5 8 12.5q59 0 139 66.5t160 178.5l629 906q27 37 27 51q0 18 -34 23t-124 5q-4 0 -4 12.5t4 12.5h786q18 0 19 -18l4 -248q0 -6 -11.5 -6t-11.5 6q0 100 -55 163.5t-145 63.5h-119q-78 0 -114 -10t-49 -36t-13 -83v-426h245q94 0 131 32t37 109q0 4 12.5 4 t12.5 -4l-2 -161q0 -59 2 -88l2 -97q0 -4 -12.5 -4t-12.5 4q0 92 -38.5 129t-137.5 37h-239v-473q0 -59 13 -87t49 -38t114 -10h166q82 0 140 71.5t75 188.5q0 6 12 5t12 -7q-18 -129 -18 -266q0 -16 -7 -23.5t-26 -7.5h-821q-4 0 -4 12.5t4 12.5q80 0 118 10t51 39.5 t13 91.5v481h-364l-275 -395q-63 -92 -63 -143q0 -84 162 -84q10 0 10 -12.5t-10 -12.5q-37 0 -107 4q-78 4 -135 4q-47 0 -109 -4q-57 -4 -88 -4q-8 0 -8 12.5zM651 686h338v485z" />
<glyph unicode="&#x4d5;" horiz-adv-x="1206" d="M102 104q0 49 39 79t146 69l252 86v10q-8 176 -18.5 258t-42.5 126t-101 44q-72 0 -103.5 -50t-44.5 -130q-6 -68 -61 -68q-31 0 -47.5 16.5t-16.5 43.5q0 45 50.5 97t125 88t142.5 36q70 0 125 -41t69 -109q57 70 136 110t172 40q96 0 149 -54.5t53 -148.5q0 -25 -5 -35 t-19 -10l-453 -2q-12 -51 -12 -119q4 -100 20.5 -184t78 -151.5t182.5 -67.5q63 0 112 17.5t90 56.5h2q6 0 12.5 -7.5t0.5 -13.5q-66 -61 -130.5 -88t-144.5 -27q-199 0 -274 156l-176 -90q-66 -33 -98.5 -44t-71.5 -11q-63 0 -100.5 33.5t-37.5 84.5zM225 145 q0 -43 24.5 -68.5t65.5 -25.5q49 0 78 10l185 89q-27 68 -37 165l-234 -86q-47 -16 -64.5 -33.5t-17.5 -50.5zM653 584l351 8q0 84 -41 130t-107 46q-74 0 -127 -48t-76 -136z" />
<glyph unicode="&#x4d6;" horiz-adv-x="1091" d="M86 12.5q0 12.5 4 12.5q80 0 118 10t51 39.5t13 91.5v948q0 61 -13 90t-51 40t-118 11q-4 0 -4 12.5t4 12.5h811q18 0 19 -18l4 -248q0 -6 -11.5 -6t-11.5 6q0 104 -55 165.5t-146 61.5h-141q-78 0 -114.5 -10t-50 -39t-13.5 -90v-416h270q94 0 131 32t37 109q0 4 12.5 4 t12.5 -4l-2 -161q0 -59 2 -88l2 -97q0 -4 -12.5 -4t-12.5 4q0 92 -39 129t-137 37h-264v-473q0 -59 13.5 -87t49 -38t115.5 -10h189q82 0 140 71.5t75 188.5q0 6 12 5t12 -7q-18 -129 -18 -266q0 -16 -7.5 -23.5t-25.5 -7.5h-846q-4 0 -4 12.5zM315 1567q0 27 13.5 41 t38.5 14q35 0 50 -22.5t29 -71.5q14 -51 50 -88t96 -37q57 0 97 35t54 90q14 49 29.5 71.5t50.5 22.5q51 0 51 -57q0 -47 -39.5 -90t-105 -69t-135.5 -26q-72 0 -136.5 27t-103.5 70t-39 90z" />
<glyph unicode="&#x4d7;" horiz-adv-x="829" d="M76 369q0 123 57 223t156.5 158.5t220.5 58.5q106 0 165.5 -54.5t59.5 -148.5q0 -25 -5 -35t-19 -10l-508 -2q-10 -57 -10 -113q0 -180 87 -292.5t238 -112.5q121 0 213 70h2q6 0 11.5 -7.5t0.5 -13.5q-135 -115 -292 -115q-119 0 -205 55.5t-129 144.5t-43 194z M205 1139q0 53 51 53q35 0 50.5 -21.5t27.5 -70.5q10 -43 20.5 -65.5t35 -41t69.5 -18.5q61 0 87.5 33.5t41.5 91.5q12 45 27.5 68.5t48.5 23.5q53 0 53 -57q0 -47 -37 -90.5t-96.5 -69t-122.5 -25.5q-66 0 -125.5 27t-95 71t-35.5 91zM209 582l403 10q0 84 -47 130t-125 46 q-90 0 -148.5 -48t-82.5 -138z" />
<glyph unicode="&#x4d8;" horiz-adv-x="1310" d="M104 334q0 14 6.5 19t18.5 5l918 4q25 102 24 228q0 195 -58.5 351.5t-167 247.5t-255.5 91q-137 0 -265 -73.5t-175 -209.5q-2 -8 -14.5 -6t-10.5 8l84 304q2 8 12 7t8 -10q-2 -6 -2 -18q0 -43 35 -43q6 0 23 4q92 33 157.5 46.5t145.5 13.5q223 0 359 -92.5t193.5 -237 t57.5 -309.5q0 -213 -86 -369t-232.5 -238t-324.5 -82q-152 0 -253 57.5t-149.5 140.5t-48.5 161zM231 313q16 -135 126 -217t270 -82q155 0 258.5 80t148.5 230z" />
<glyph unicode="&#x4d9;" horiz-adv-x="823" d="M80 584l63 250q2 6 14.5 4t10.5 -7q-2 -6 -2 -16q0 -18 11 -24.5t34 -6.5q12 0 61 4q57 8 99 9q123 0 208 -55.5t127 -145.5t42 -197q0 -121 -54.5 -218t-148.5 -151.5t-209 -54.5q-117 0 -182.5 55.5t-65.5 149.5q0 25 5 35t20 10l514 2q6 43 6 92q0 193 -83 321 t-239 128q-96 0 -140 -49t-69 -139q-2 -4 -13 -2t-9 6zM211 195q0 -86 54 -132.5t145 -46.5q82 0 136 47.5t75 139.5z" />
<glyph unicode="&#x4da;" horiz-adv-x="1310" d="M104 334q0 14 6.5 19t18.5 5l918 4q25 102 24 228q0 195 -58.5 351.5t-167 247.5t-255.5 91q-137 0 -265 -73.5t-175 -209.5q-2 -8 -14.5 -6t-10.5 8l84 304q2 8 12 7t8 -10q-2 -6 -2 -18q0 -43 35 -43q6 0 23 4q92 33 157.5 46.5t145.5 13.5q223 0 359 -92.5t193.5 -237 t57.5 -309.5q0 -213 -86 -369t-232.5 -238t-324.5 -82q-152 0 -253 57.5t-149.5 140.5t-48.5 161zM231 313q16 -135 126 -217t270 -82q155 0 258.5 80t148.5 230zM350 1552q0 37 21.5 57.5t60.5 20.5q37 0 57.5 -20.5t20.5 -57.5t-20.5 -57t-57.5 -20q-39 0 -60.5 20.5 t-21.5 56.5zM709 1552q0 37 22.5 57.5t59.5 20.5q39 0 59 -20.5t20 -57.5t-20.5 -57t-58.5 -20q-37 0 -59.5 20.5t-22.5 56.5z" />
<glyph unicode="&#x4db;" horiz-adv-x="823" d="M80 584l63 250q2 6 14.5 4t10.5 -7q-2 -6 -2 -16q0 -18 11 -24.5t34 -6.5q12 0 61 4q57 8 99 9q123 0 208 -55.5t127 -145.5t42 -197q0 -121 -54.5 -218t-148.5 -151.5t-209 -54.5q-117 0 -182.5 55.5t-65.5 149.5q0 25 5 35t20 10l514 2q6 43 6 92q0 193 -83 321 t-239 128q-96 0 -140 -49t-69 -139q-2 -4 -13 -2t-9 6zM147 1063q0 37 21.5 57.5t60.5 20.5q37 0 57.5 -20.5t20.5 -57.5t-20.5 -57.5t-57.5 -20.5q-39 0 -60.5 20.5t-21.5 57.5zM211 195q0 -86 54 -132.5t145 -46.5q82 0 136 47.5t75 139.5zM506 1063q0 37 22.5 57.5 t59.5 20.5q39 0 59.5 -20.5t20.5 -57.5t-20.5 -57.5t-59.5 -20.5q-37 0 -59.5 20.5t-22.5 57.5z" />
<glyph unicode="&#x4dc;" horiz-adv-x="2017" d="M25 12.5q0 12.5 4 12.5q82 2 144.5 38.5t121.5 109.5t154 212l53 82q68 104 101.5 144t74.5 57l-229 358q-84 131 -164 180t-197 49q-4 0 -4 12.5t4 12.5l72 -2q74 -4 135 -4q70 0 147 4l82 2q6 0 6 -12.5t-6 -12.5q-57 0 -80.5 -7t-23.5 -29q0 -20 17.5 -54.5 t70.5 -124.5l211 -362q45 4 78 4l114 -2q14 -2 45 -2v436q0 59 -19 89t-62.5 41t-124.5 11q-4 0 -4.5 12.5t4.5 12.5l110 -2q98 -4 148 -4q57 0 155 4l107 2q4 0 4 -12.5t-4 -12.5q-119 0 -163 -29.5t-44 -115.5v-432l156 4q55 0 77 -4l213 362q53 90 70.5 124t17.5 55 q0 23 -23.5 29.5t-80.5 6.5q-6 0 -6 12.5t6 12.5l82 -2q78 -4 147 -4q61 0 136 4l71 2q4 0 4 -12.5t-4 -12.5q-117 0 -196.5 -49t-163.5 -180l-230 -358q43 -16 77 -58.5t110 -158.5q10 -14 20 -31t23 -35q94 -139 153.5 -212t122 -109.5t144.5 -38.5q4 0 4 -12.5t-4 -12.5 h-246q-25 0 -43.5 15.5t-74.5 99.5t-150 229q-96 150 -137.5 203t-87.5 75.5t-130 22.5q-12 0 -57 -4v-475q0 -63 13.5 -92t50 -39t118.5 -10q6 0 6 -12.5t-6 -12.5q-61 0 -96 2l-141 2l-138 -2q-35 -2 -98 -2q-6 0 -6 12.5t6 12.5q80 0 118 10t52 39.5t14 91.5v475 q-49 4 -63 4q-82 0 -128 -21.5t-88 -74.5t-138 -201l-62 -96q-68 -106 -109.5 -167.5t-56 -73t-39.5 -11.5h-243q-4 0 -4 12.5zM748 1552q0 37 21.5 57.5t59.5 20.5q37 0 57.5 -20.5t20.5 -57.5t-20.5 -57t-57.5 -20q-38 0 -59.5 20.5t-21.5 56.5zM1106 1552q0 37 22.5 57.5 t59.5 20.5q39 0 59.5 -20.5t20.5 -57.5t-20.5 -57t-59.5 -20q-37 0 -59.5 20.5t-22.5 56.5z" />
<glyph unicode="&#x4dd;" horiz-adv-x="1323" d="M-2 12.5q0 12.5 4 12.5q53 0 88 17t59.5 49t65.5 99l29 48q66 102 102.5 141t89.5 49q-33 27 -67 90q-39 70 -79 126t-63 56q-10 0 -32.5 -13t-42.5 -13q-35 0 -55.5 20.5t-20.5 48.5q0 27 23.5 46.5t64.5 19.5q45 0 76.5 -24.5t55 -62.5t62.5 -118l39 -78 q25 -45 49.5 -69.5t57.5 -24.5q23 0 108 -4v193q0 61 -11 90.5t-43 42t-103 12.5q-4 0 -4 12.5t4 12.5l106 -3q33 -2 98 -2q63 0 99 2l108 3q6 0 6 -12.5t-6 -12.5q-72 0 -103.5 -10.5t-42.5 -39t-11 -91.5v-197q90 4 110 4q31 0 55.5 24.5t49.5 69.5l41 82q55 111 93 156 t101 45q41 0 63.5 -19.5t22.5 -46.5q0 -29 -20.5 -49t-53.5 -20q-23 0 -44 13t-31 13q-23 0 -64 -56t-80 -126q-31 -61 -65 -90q53 -10 89 -48t101 -142l31 -50q41 -66 66.5 -97.5t59.5 -48.5t85 -17q6 0 6 -12.5t-6 -12.5h-219q-12 0 -19.5 11.5t-32 58.5t-71.5 127 q-51 84 -86 124.5t-72 56t-94 15.5h-16v-227q0 -61 10 -91t37.5 -40t89.5 -10q4 0 4 -12.5t-4 -12.5q-53 0 -84 2l-103 2l-102 -2q-29 -2 -78 -2q-6 0 -6 12.5t6 12.5q59 0 87 10t37 39.5t9 91.5v227h-16q-57 0 -94 -15.5t-72 -56t-86 -124.5q-43 -72 -64.5 -115t-27.5 -53 q-10 -23 -13 -26t-16 -3h-221q-4 0 -4 12.5zM401 1063q0 37 21.5 57.5t60.5 20.5q37 0 57.5 -20.5t20.5 -57.5t-20.5 -57.5t-57.5 -20.5q-39 0 -60.5 20.5t-21.5 57.5zM760 1063q0 37 22.5 57.5t59.5 20.5q39 0 59.5 -20.5t20.5 -57.5t-20.5 -57.5t-59.5 -20.5 q-37 0 -59.5 20.5t-22.5 57.5z" />
<glyph unicode="&#x4de;" horiz-adv-x="1007" d="M117 315q0 6 11 8.5t13 -4.5q31 -170 133.5 -240.5t223.5 -70.5q145 0 213.5 92.5t68.5 229.5q0 166 -95 251t-273 85q-8 0 -8.5 12t8.5 12q164 0 245.5 78t81.5 211t-72.5 215t-189.5 82q-104 0 -184 -71.5t-121 -225.5q0 -4 -8 -4q-4 0 -9 3t-5 5l28 217q4 25 8 33 t23 14q158 55 297 56q166 0 256 -81t90 -200q0 -113 -76 -205t-174 -129q135 -10 220 -98t85 -223q0 -113 -59.5 -202t-162.5 -139.5t-228 -50.5q-82 0 -162 20.5t-125 57.5q-18 10 -22.5 17.5t-6.5 29.5zM246 1552q0 37 21.5 57.5t60.5 20.5q37 0 57.5 -20.5t20.5 -57.5 t-20.5 -57t-57.5 -20q-39 0 -60.5 20.5t-21.5 56.5zM604 1552q0 37 22.5 57.5t59.5 20.5q39 0 59.5 -20.5t20.5 -57.5t-20.5 -57t-59.5 -20q-37 0 -59.5 20.5t-22.5 56.5z" />
<glyph unicode="&#x4df;" horiz-adv-x="743" d="M82 227q0 6 10 8.5t12 -6.5q27 -106 96.5 -166.5t164.5 -60.5q92 0 137 53.5t45 141.5q0 102 -61.5 162.5t-194.5 60.5q-10 0 -10 11t10 11q227 0 227 156q0 178 -166 178q-90 0 -140 -48t-85 -148q0 -2 -8 -2q-18 0 -17 6l54 250q0 4 8 4q6 0 12 -3.5t4 -5.5 q-2 -6 -2 -16q0 -37 33 -37q18 0 53 15q6 2 47 14t97 12q104 0 161.5 -51t57.5 -125q0 -66 -48.5 -119t-129.5 -80q104 -10 160.5 -74.5t56.5 -150.5q0 -111 -90.5 -176.5t-223.5 -65.5q-61 0 -122.5 14.5t-106.5 37.5q-14 8 -18.5 13t-6.5 21zM117 1063q0 37 21.5 57.5 t60.5 20.5q37 0 57 -20.5t20 -57.5t-20 -57.5t-57 -20.5q-39 0 -60.5 20.5t-21.5 57.5zM475 1063q0 37 22.5 57.5t59.5 20.5q39 0 59.5 -20.5t20.5 -57.5t-20.5 -57.5t-59.5 -20.5q-37 0 -59.5 20.5t-22.5 57.5z" />
<glyph unicode="&#x4e0;" horiz-adv-x="1032" d="M104 1032l82 309q0 2 9 2q20 0 16 -6q-2 -6 -2 -16q0 -25 23.5 -33t95.5 -8h579q10 0 15.5 -9t-0.5 -18l-390 -536q191 -8 295.5 -102.5t104.5 -247.5q0 -113 -59.5 -202t-164 -139.5t-231.5 -50.5q-86 0 -172 20.5t-135 57.5q-18 10 -22.5 17.5t-6.5 29.5l-24 215 q0 6 11 8.5t13 -4.5q33 -168 141.5 -239.5t235.5 -71.5q150 0 218.5 91t68.5 231q0 178 -99.5 269t-285.5 91q-6 0 -13.5 9.5t-5.5 15.5l373 514l6 12q0 4 -16 4q-297 0 -402.5 -10t-149.5 -51t-83 -156q0 -4 -8 -4q-6 0 -12.5 3t-4.5 5z" />
<glyph unicode="&#x4e1;" horiz-adv-x="827" d="M23 -414q0 29 15 42.5t36 13.5q23 0 41 -15.5t47 -50.5q49 -57 95 -88t120 -31q133 0 193.5 113t60.5 285q0 190 -86 301.5t-293 111.5q-8 0 -11 8.5t1 14.5l333 461q8 14 -10 14q-176 0 -271 -11.5t-149.5 -49t-76.5 -113.5q0 -4 -9 -4q-6 0 -12 3t-4 5l66 250q2 4 13 3 t9 -5q-6 -31 15.5 -42t80.5 -11h467q10 0 16.5 -8.5t0.5 -16.5l-336 -467q123 2 209 -55.5t130 -152.5t44 -210q0 -129 -55.5 -233.5t-157 -163.5t-232.5 -59q-80 0 -146.5 22.5t-105 59t-38.5 79.5z" />
<glyph unicode="&#x4e2;" horiz-adv-x="1576" d="M70 1267.5q0 12.5 4 12.5l102 -2q82 -4 135 -4q57 0 140 4l98 2q4 0 4 -12.5t-4 -12.5q-82 0 -119 -11t-50 -39.5t-13 -90.5v-985l899 1159q6 8 20 8q10 0 19.5 -4t9.5 -10v-1116q0 -61 14 -91t52 -40t118 -10q6 0 6 -12.5t-6 -12.5q-61 0 -98 2l-139 2l-140 -2 q-35 -2 -96 -2q-6 0 -6 12.5t6 12.5q82 0 119 10t49 38.5t12 92.5v969l-897 -1153q-6 -8 -22 -9q-29 0 -29 15v1126q0 61 -14.5 90t-52 40t-117.5 11q-4 0 -4 12.5zM543 1509q0 27 10 27h514q10 0 10 -27t-10 -26h-514q-4 0 -7 8t-3 18z" />
<glyph unicode="&#x4e3;" horiz-adv-x="1046" d="M59.5 12.5q-0.5 12.5 6.5 12.5q61 0 88.5 10t37 39.5t9.5 91.5v459q0 61 -9.5 90.5t-37 40t-86.5 10.5q-6 0 -6.5 12.5t6.5 12.5q49 0 77 -3l107 -2l102 2q29 2 78 3q4 0 4 -12.5t-4 -12.5q-59 0 -87 -12.5t-38 -42t-10 -90.5v-424l455 454q-2 49 -13.5 73t-38 33 t-82.5 9q-6 0 -6 12.5t6 12.5q49 0 78 -3l107 -2l102 2q29 2 78 3q4 0 4 -12.5t-4 -12.5q-59 0 -87 -12.5t-38 -42t-10 -90.5v-455q0 -61 9 -91t37 -40t89 -10q4 0 4 -12.5t-4 -12.5q-51 0 -80 2l-100 2l-109 -2q-29 -2 -78 -2q-6 0 -6 12.5t6 12.5q59 0 87 10t38.5 39.5 t10.5 91.5v432l-455 -455q2 -74 27.5 -96t107.5 -22q4 0 4 -12.5t-4 -12.5q-51 0 -80 2l-100 2l-107 -2q-29 -2 -79 -2q-6 0 -6.5 12.5zM260 1020q0 27 10 27h514q10 0 11 -27q0 -27 -11 -27h-514q-4 0 -7 8.5t-3 18.5z" />
<glyph unicode="&#x4e4;" horiz-adv-x="1576" d="M70 1267.5q0 12.5 4 12.5l102 -2q82 -4 135 -4q57 0 140 4l98 2q4 0 4 -12.5t-4 -12.5q-82 0 -119 -11t-50 -39.5t-13 -90.5v-985l899 1159q6 8 20 8q10 0 19.5 -4t9.5 -10v-1116q0 -61 14 -91t52 -40t118 -10q6 0 6 -12.5t-6 -12.5q-61 0 -98 2l-139 2l-140 -2 q-35 -2 -96 -2q-6 0 -6 12.5t6 12.5q82 0 119 10t49 38.5t12 92.5v969l-897 -1153q-6 -8 -22 -9q-29 0 -29 15v1126q0 61 -14.5 90t-52 40t-117.5 11q-4 0 -4 12.5zM551 1552q0 37 21.5 57.5t60.5 20.5q37 0 57.5 -20.5t20.5 -57.5t-20.5 -57t-57.5 -20q-39 0 -60.5 20.5 t-21.5 56.5zM909 1552q0 37 22.5 57.5t59.5 20.5q39 0 59.5 -20.5t20.5 -57.5t-20.5 -57t-59.5 -20q-37 0 -59.5 20.5t-22.5 56.5z" />
<glyph unicode="&#x4e5;" horiz-adv-x="1046" d="M59.5 12.5q-0.5 12.5 6.5 12.5q61 0 88.5 10t37 39.5t9.5 91.5v459q0 61 -9.5 90.5t-37 40t-86.5 10.5q-6 0 -6.5 12.5t6.5 12.5q49 0 77 -3l107 -2l102 2q29 2 78 3q4 0 4 -12.5t-4 -12.5q-59 0 -87 -12.5t-38 -42t-10 -90.5v-424l455 454q-2 49 -13.5 73t-38 33 t-82.5 9q-6 0 -6 12.5t6 12.5q49 0 78 -3l107 -2l102 2q29 2 78 3q4 0 4 -12.5t-4 -12.5q-59 0 -87 -12.5t-38 -42t-10 -90.5v-455q0 -61 9 -91t37 -40t89 -10q4 0 4 -12.5t-4 -12.5q-51 0 -80 2l-100 2l-109 -2q-29 -2 -78 -2q-6 0 -6 12.5t6 12.5q59 0 87 10t38.5 39.5 t10.5 91.5v432l-455 -455q2 -74 27.5 -96t107.5 -22q4 0 4 -12.5t-4 -12.5q-51 0 -80 2l-100 2l-107 -2q-29 -2 -79 -2q-6 0 -6.5 12.5zM268 1063q0 37 21.5 57.5t60.5 20.5q37 0 57.5 -20.5t20.5 -57.5t-20.5 -57.5t-57.5 -20.5q-39 0 -60.5 20.5t-21.5 57.5zM627 1063 q0 37 22.5 57.5t59.5 20.5q39 0 59 -20.5t20 -57.5t-20 -57.5t-59 -20.5q-37 0 -59.5 20.5t-22.5 57.5z" />
<glyph unicode="&#x4e6;" horiz-adv-x="1568" d="M100 639q0 211 106.5 361.5t273.5 226.5t341 76q195 0 342.5 -91.5t226 -241t78.5 -317.5q0 -186 -98 -341.5t-263 -246t-357 -90.5q-191 0 -339.5 89.5t-229.5 242t-81 332.5zM231 709q0 -190 75 -349t210 -251.5t307 -92.5q146 0 262.5 68t184 199t67.5 313 q0 193 -74.5 343.5t-211 234t-316.5 83.5q-238 0 -371 -147t-133 -401zM526 1552q0 37 21.5 57.5t60.5 20.5q37 0 57.5 -20.5t20.5 -57.5t-20.5 -57t-57.5 -20q-39 0 -60.5 20.5t-21.5 56.5zM885 1552q0 37 22.5 57.5t59.5 20.5q39 0 59.5 -20.5t20.5 -57.5t-20.5 -57 t-59.5 -20q-37 0 -59.5 20.5t-22.5 56.5z" />
<glyph unicode="&#x4e7;" horiz-adv-x="976" d="M76 406q0 133 64.5 226t163.5 139t204 46q119 0 208 -59.5t137 -156.5t48 -206q0 -127 -58.5 -223t-156.5 -147.5t-215 -51.5t-207 58.5t-139 158t-49 216.5zM193 465q0 -123 43 -226.5t118.5 -166t173.5 -62.5q119 0 186.5 80t67.5 252q0 123 -43 222.5t-120.5 156.5 t-178.5 57q-117 0 -182 -81t-65 -232zM229 1063q0 37 21.5 57.5t60.5 20.5q37 0 57.5 -20.5t20.5 -57.5t-20.5 -57.5t-57.5 -20.5q-39 0 -60.5 20.5t-21.5 57.5zM588 1063q0 37 22.5 57.5t59.5 20.5q39 0 59.5 -20.5t20.5 -57.5t-20.5 -57.5t-59.5 -20.5q-37 0 -59.5 20.5 t-22.5 57.5z" />
<glyph unicode="&#x4e8;" horiz-adv-x="1568" d="M100 639q0 211 106.5 361.5t273.5 226.5t341 76q195 0 342.5 -91.5t226 -241t78.5 -317.5q0 -186 -98 -341.5t-263 -246t-357 -90.5q-190 0 -339 89.5t-230 242t-81 332.5zM231 686h1102q-16 168 -95 298t-208 201.5t-295 71.5q-237 0 -370.5 -147t-133.5 -401v-23z M233 647q12 -178 89 -321.5t207 -226.5t294 -83q146 0 262.5 68t184 199t67.5 313q0 35 -2 51h-1102z" />
<glyph unicode="&#x4e9;" horiz-adv-x="976" d="M76 406q0 133 64.5 226t163.5 139t204 46q119 0 208 -59.5t137 -156.5t48 -206q0 -127 -58.5 -223t-156.5 -147.5t-215 -51.5t-207 58.5t-139 158t-49 216.5zM193 465q0 -35 2 -51h583q-18 162 -110.5 263t-227.5 101q-116 0 -181.5 -81t-65.5 -232zM199 377 q23 -158 111.5 -262.5t217.5 -104.5q119 0 186.5 80t67.5 252v35h-583z" />
<glyph unicode="&#x4ea;" horiz-adv-x="1568" d="M100 639q0 211 106.5 361.5t273.5 226.5t341 76q195 0 342.5 -91.5t226 -241t78.5 -317.5q0 -186 -98 -341.5t-263 -246t-357 -90.5q-190 0 -339 89.5t-230 242t-81 332.5zM231 686h1102q-16 168 -95 298t-208 201.5t-295 71.5q-237 0 -370.5 -147t-133.5 -401v-23z M233 647q12 -178 89 -321.5t207 -226.5t294 -83q146 0 262.5 68t184 199t67.5 313q0 35 -2 51h-1102zM526 1552q0 37 21.5 57.5t60.5 20.5q37 0 57.5 -20.5t20.5 -57.5t-20.5 -57t-57.5 -20q-39 0 -60.5 20.5t-21.5 56.5zM885 1552q0 37 22.5 57.5t59.5 20.5 q39 0 59.5 -20.5t20.5 -57.5t-20.5 -57t-59.5 -20q-37 0 -59.5 20.5t-22.5 56.5z" />
<glyph unicode="&#x4eb;" horiz-adv-x="976" d="M76 406q0 133 64.5 226t163.5 139t204 46q119 0 208 -59.5t137 -156.5t48 -206q0 -127 -58.5 -223t-156.5 -147.5t-215 -51.5t-207 58.5t-139 158t-49 216.5zM193 465q0 -35 2 -51h583q-18 162 -110.5 263t-227.5 101q-116 0 -181.5 -81t-65.5 -232zM199 377 q23 -158 111.5 -262.5t217.5 -104.5q119 0 186.5 80t67.5 252v35h-583zM229 1063q0 37 21.5 57.5t60.5 20.5q37 0 57.5 -20.5t20.5 -57.5t-20.5 -57.5t-57.5 -20.5q-39 0 -60.5 20.5t-21.5 57.5zM588 1063q0 37 22.5 57.5t59.5 20.5q39 0 59.5 -20.5t20.5 -57.5t-20.5 -57.5 t-59.5 -20.5q-37 0 -59.5 20.5t-22.5 57.5z" />
<glyph unicode="&#x4ec;" d="M88 315q0 6 11.5 8.5t13.5 -4.5q41 -156 162.5 -224t283.5 -68q250 0 373 149.5t123 421.5q0 35 -2 51h-314q-102 0 -157.5 -15.5t-80 -56t-24.5 -116.5q0 -6 -12 -6t-12 6l2 207q0 61 -2 90l-2 94q0 6 12 6t12 -6q4 -84 64.5 -124t208.5 -40h303q-14 182 -84 315.5 t-179.5 205t-244.5 71.5q-137 0 -251 -78t-175 -233q-2 -8 -12.5 -6t-10.5 8l29 217q4 25 8 33t23 16q197 66 397 66q221 0 361.5 -87.5t203 -228.5t62.5 -311q0 -215 -94.5 -374t-250 -243t-337.5 -84q-92 0 -193.5 20.5t-161.5 57.5q-18 10 -22 17.5t-6 29.5zM258 1552 q0 37 21.5 57.5t60.5 20.5q37 0 57.5 -20.5t20.5 -57.5t-20.5 -57t-57.5 -20q-39 0 -60.5 20.5t-21.5 56.5zM616 1552q0 37 23 57.5t59 20.5q39 0 59.5 -20.5t20.5 -57.5t-20.5 -57t-59.5 -20q-36 0 -59 20.5t-23 56.5z" />
<glyph unicode="&#x4ed;" horiz-adv-x="909" d="M102 252q0 6 11.5 7t13.5 -5q25 -119 100.5 -185.5t182.5 -66.5q88 0 157.5 47t109.5 131t40 193q-238 0 -393 -23q-12 0 -13 39q0 18 4 34.5t11 14.5q117 -20 292 -20h97q-10 156 -100.5 263t-241.5 107q-90 0 -147.5 -47t-94.5 -161q-2 -4 -13.5 -2t-8.5 6l45 274 q0 2 8 2q18 0 16 -8q-4 -16 -4 -23q0 -18 10.5 -27t24.5 -9q10 0 59 8q10 2 57.5 9t98.5 7q143 0 235.5 -63.5t133.5 -157.5t41 -190q0 -121 -60.5 -219.5t-164 -155t-228.5 -56.5q-63 0 -128 15.5t-103 42.5q-14 8 -18.5 14t-6.5 23zM174 1063q0 37 21.5 57.5t60.5 20.5 q37 0 57.5 -20.5t20.5 -57.5t-20.5 -57.5t-57.5 -20.5q-39 0 -60.5 20.5t-21.5 57.5zM532 1063q0 37 23 57.5t59 20.5q39 0 59.5 -20.5t20.5 -57.5t-20.5 -57.5t-59.5 -20.5q-36 0 -59 20.5t-23 57.5z" />
<glyph unicode="&#x4ee;" horiz-adv-x="1245" d="M14 1267.5q0 12.5 4 12.5l88 -2q61 -4 89 -4q59 0 141 4l88 2q6 0 6 -12.5t-6 -12.5q-63 0 -100 -17t-37 -52q0 -25 18 -56l400 -718l331 714q16 37 17 60q0 37 -39 53t-125 16q-6 0 -6 12.5t6 12.5l82 -2q70 -4 125 -4q33 0 82 4l75 2q4 0 4 -12.5t-4 -12.5 q-51 0 -96 -35.5t-78 -105.5l-473 -1014q-61 -125 -174 -125q-55 0 -95 26t-40 71q0 33 22.5 56.5t57.5 23.5q31 0 47 -16.5t31 -47.5q10 -20 19 -31.5t24 -11.5q39 0 69 72l80 172l-448 821q-45 82 -82 113.5t-99 31.5q-4 0 -4 12.5zM379 1509q0 27 10 27h514q10 0 10 -27 t-10 -26h-514q-4 0 -7 8t-3 18z" />
<glyph unicode="&#x4ef;" horiz-adv-x="894" d="M-70 -500q0 23 16.5 37t39.5 14q43 0 84 -24q18 -12 33.5 -17.5t37.5 -5.5q51 0 96.5 45t97.5 149.5t124 295.5l-307 627q-47 90 -72 117.5t-64 27.5q-4 0 -4 12.5t4 12.5q43 0 64 -3l63 -2l127 2q29 2 80 3q4 0 4 -12.5t-4 -12.5q-123 0 -123 -49q0 -14 9 -31l278 -569 l174 499q16 45 17 74q0 43 -38 59.5t-128 16.5q-4 0 -4 12.5t4 12.5q55 0 84 -3l122 -2l72 2q18 2 62 3q6 0 6 -12.5t-6 -12.5q-49 0 -84 -30.5t-64 -110.5l-256 -682q-76 -199 -142.5 -310.5t-138 -159.5t-165.5 -48q-41 0 -70 19t-29 56zM193 1020q0 27 10 27h514 q10 0 10 -27t-10 -27h-514q-4 0 -7 8.5t-3 18.5z" />
<glyph unicode="&#x4f0;" horiz-adv-x="1245" d="M14 1267.5q0 12.5 4 12.5l88 -2q61 -4 89 -4q59 0 141 4l88 2q6 0 6 -12.5t-6 -12.5q-63 0 -100 -17t-37 -52q0 -25 18 -56l400 -718l331 714q16 37 17 60q0 37 -39 53t-125 16q-6 0 -6 12.5t6 12.5l82 -2q70 -4 125 -4q33 0 82 4l75 2q4 0 4 -12.5t-4 -12.5 q-51 0 -96 -35.5t-78 -105.5l-473 -1014q-61 -125 -174 -125q-55 0 -95 26t-40 71q0 33 22.5 56.5t57.5 23.5q31 0 47 -16.5t31 -47.5q10 -20 19 -31.5t24 -11.5q39 0 69 72l80 172l-448 821q-45 82 -82 113.5t-99 31.5q-4 0 -4 12.5zM387 1552q0 37 21.5 57.5t60.5 20.5 q37 0 57.5 -20.5t20.5 -57.5t-20.5 -57t-57.5 -20q-39 0 -60.5 20.5t-21.5 56.5zM745 1552q0 37 23 57.5t59 20.5q39 0 59.5 -20.5t20.5 -57.5t-20.5 -57t-59.5 -20q-36 0 -59 20.5t-23 56.5z" />
<glyph unicode="&#x4f1;" horiz-adv-x="894" d="M-70 -500q0 23 16.5 37t39.5 14q43 0 84 -24q18 -12 33.5 -17.5t37.5 -5.5q51 0 96.5 45t97.5 149.5t124 295.5l-307 627q-47 90 -72 117.5t-64 27.5q-4 0 -4 12.5t4 12.5q43 0 64 -3l63 -2l127 2q29 2 80 3q4 0 4 -12.5t-4 -12.5q-123 0 -123 -49q0 -14 9 -31l278 -569 l174 499q16 45 17 74q0 43 -38 59.5t-128 16.5q-4 0 -4 12.5t4 12.5q55 0 84 -3l122 -2l72 2q18 2 62 3q6 0 6 -12.5t-6 -12.5q-49 0 -84 -30.5t-64 -110.5l-256 -682q-76 -199 -142.5 -310.5t-138 -159.5t-165.5 -48q-41 0 -70 19t-29 56zM201 1063q0 37 21.5 57.5 t60.5 20.5q37 0 57 -20.5t20 -57.5t-20.5 -57.5t-56.5 -20.5q-39 0 -60.5 20.5t-21.5 57.5zM559 1063q0 37 22.5 57.5t59.5 20.5q39 0 59.5 -20.5t20.5 -57.5t-20.5 -57.5t-59.5 -20.5q-37 0 -59.5 20.5t-22.5 57.5z" />
<glyph unicode="&#x4f2;" horiz-adv-x="1245" d="M14 1267.5q0 12.5 4 12.5l88 -2q61 -4 89 -4q59 0 141 4l88 2q6 0 6 -12.5t-6 -12.5q-63 0 -100 -17t-37 -52q0 -25 18 -56l400 -718l331 714q16 37 17 60q0 37 -39 53t-125 16q-6 0 -6 12.5t6 12.5l82 -2q70 -4 125 -4q33 0 82 4l75 2q4 0 4 -12.5t-4 -12.5 q-51 0 -96 -35.5t-78 -105.5l-473 -1014q-61 -125 -174 -125q-55 0 -95 26t-40 71q0 33 22.5 56.5t57.5 23.5q31 0 47 -16.5t31 -47.5q10 -20 19 -31.5t24 -11.5q39 0 69 72l80 172l-448 821q-45 82 -82 113.5t-99 31.5q-4 0 -4 12.5zM498 1407l59 299q2 8 40 18.5t62 10.5 q20 0 17 -6l-156 -328q-4 -4 -14 -2t-8 8zM737 1407l60 299q2 8 39.5 18.5t62.5 10.5q20 0 16 -6l-155 -328q-4 -4 -14.5 -2t-8.5 8z" />
<glyph unicode="&#x4f3;" horiz-adv-x="894" d="M-70 -500q0 23 16.5 37t39.5 14q43 0 84 -24q18 -12 33.5 -17.5t37.5 -5.5q51 0 96.5 45t97.5 149.5t124 295.5l-307 627q-47 90 -72 117.5t-64 27.5q-4 0 -4 12.5t4 12.5q43 0 64 -3l63 -2l127 2q29 2 80 3q4 0 4 -12.5t-4 -12.5q-123 0 -123 -49q0 -14 9 -31l278 -569 l174 499q16 45 17 74q0 43 -38 59.5t-128 16.5q-4 0 -4 12.5t4 12.5q55 0 84 -3l122 -2l72 2q18 2 62 3q6 0 6 -12.5t-6 -12.5q-49 0 -84 -30.5t-64 -110.5l-256 -682q-76 -199 -142.5 -310.5t-138 -159.5t-165.5 -48q-41 0 -70 19t-29 56zM299 975l117 491q2 8 29.5 17.5 t53 12.5t21.5 -7l-198 -518q-1 -4 -9 -4q-6 0 -11 3t-3 5zM563 975l117 491q2 8 29.5 17.5t53 12.5t21.5 -7l-198 -518q0 -4 -8 -4q-6 0 -11.5 3t-3.5 5z" />
<glyph unicode="&#x4f4;" d="M-10 1267.5q0 12.5 6 12.5l98 -2q82 -4 135 -4q51 0 129 4l84 2q6 0 6.5 -12.5t-6.5 -12.5q-68 0 -100.5 -12t-44.5 -42t-12 -91v-203q0 -174 79.5 -264t227.5 -90q162 0 317 113v444q0 61 -11 91t-44 42t-102 12q-4 0 -4 12.5t4 12.5l86 -2q78 -4 127 -4q53 0 139 4 l98 2q6 0 6 -12.5t-6 -12.5q-80 0 -117.5 -11t-52 -39.5t-14.5 -90.5v-948q0 -61 14.5 -91t52 -40t117.5 -10q6 0 6 -12.5t-6 -12.5q-61 0 -98 2l-139 2l-140 -2q-35 -2 -96 -2q-6 0 -6 12.5t6 12.5q82 0 119 10t49 38.5t12 92.5v471q-176 -133 -366 -133q-166 0 -265.5 89 t-99.5 243v278q0 61 -13 90t-51 40t-118 11q-6 0 -6 12.5zM352 1552q0 37 21.5 57.5t60.5 20.5q37 0 57.5 -20.5t20.5 -57.5t-20.5 -57t-57.5 -20q-39 0 -60.5 20.5t-21.5 56.5zM711 1552q0 37 22.5 57.5t59.5 20.5q39 0 59 -20.5t20 -57.5t-20.5 -57t-58.5 -20 q-37 0 -59.5 20.5t-22.5 56.5z" />
<glyph unicode="&#x4f5;" horiz-adv-x="892" d="M-31.5 698.5q-3.5 10.5 4.5 12.5l213 96l9 2q4 0 10 -4t6 -10v-254q0 -98 53 -150.5t142 -52.5q106 0 204 68v147q0 84 -13 120t-46 36q-23 0 -74 -21h-4q-8 0 -11 10.5t5 12.5l215 96l8 2q4 0 10.5 -4t6.5 -10v-629q0 -61 9 -91t36.5 -40t89.5 -10q4 0 4 -12.5t-4 -12.5 q-51 0 -80 2l-100 2l-109 -2q-29 -2 -78 -2q-6 0 -6 12.5t6 12.5q59 0 87 10t38 39.5t10 91.5v207q-127 -100 -268 -101q-111 0 -168 58.5t-57 165.5q0 104 -11.5 158.5t-48.5 54.5q-23 0 -73 -21h-4q-8 0 -11.5 10.5zM164 1063q0 37 21.5 57.5t60.5 20.5q37 0 57.5 -20.5 t20.5 -57.5t-20.5 -57.5t-57.5 -20.5q-39 0 -60.5 20.5t-21.5 57.5zM522 1063q0 37 22.5 57.5t59.5 20.5q39 0 59.5 -20.5t20.5 -57.5t-20.5 -57.5t-59.5 -20.5q-37 0 -59.5 20.5t-22.5 57.5z" />
<glyph unicode="&#x4f6;" horiz-adv-x="1044" d="M86 12.5q0 12.5 4 12.5q80 0 118 10t51 39.5t13 91.5v948q0 61 -13 90t-51 40t-118 11q-4 0 -4 12.5t4 12.5h858q20 0 21 -18l4 -248q0 -6 -12.5 -6t-12.5 6q0 104 -55 165.5t-145 61.5h-189q-76 0 -112.5 -10t-51 -37t-14.5 -82v-938q0 -66 18.5 -95.5t70.5 -41.5 t167 -12q16 0 19 -3.5t3 -21.5q0 -31 -2 -53q-4 -98 -4 -330q0 -10 -11 -10t-11 10q0 143 -28 226t-90 120t-169 37h-254q-4 0 -4 12.5z" />
<glyph unicode="&#x4f7;" horiz-adv-x="761" d="M59.5 12.5q-0.5 12.5 6.5 12.5q59 0 86.5 10t38 39.5t10.5 91.5v459q0 61 -9.5 90.5t-37 40t-86.5 10.5q-6 0 -6.5 12.5t6.5 12.5h606q12 0 14 -3.5t2 -15.5q0 -41 -2 -72.5t-4 -54.5l-4 -121q0 -4 -12.5 -4t-12.5 4q0 133 -44 186.5t-156 53.5q-68 0 -100.5 -12.5 t-45 -42t-12.5 -88.5v-455v-66q0 -39 7 -53t30.5 -18t85.5 -4q14 0 16 -3.5t2 -21.5t-5 -73.5t-5 -190.5q0 -10 -11 -10t-11 10q0 151 -59.5 207.5t-166.5 56.5h-114q-6 0 -6.5 12.5z" />
<glyph unicode="&#x4f8;" horiz-adv-x="1724" d="M86 12.5q0 12.5 4 12.5q82 0 120 10t52 39.5t14 91.5v948q0 61 -13 90t-51 40t-118 11q-6 0 -6 12.5t6 12.5l96 -2q86 -4 136 -4q59 0 145 4l94 2q6 0 6 -12.5t-6 -12.5q-80 0 -117.5 -12t-51 -42t-13.5 -91v-412q129 25 235 25q189 0 296.5 -76t107.5 -260 q0 -117 -50 -207t-141.5 -139t-209.5 -49q-53 0 -127 6q-31 2 -73 4t-93 2l-135 -2q-37 -2 -103 -2q-4 0 -4 12.5zM383 166q0 -74 39 -107.5t158 -33.5q170 0 246.5 75.5t76.5 233.5q0 190 -87 271t-243 81q-86 0 -190 -24v-496zM614 1552q0 37 21.5 57.5t60.5 20.5 q37 0 57.5 -20.5t20.5 -57.5t-20.5 -57t-57.5 -20q-39 0 -60.5 20.5t-21.5 56.5zM973 1552q0 37 22.5 57.5t59.5 20.5q39 0 59.5 -20.5t20.5 -57.5t-20.5 -57t-59.5 -20q-37 0 -59.5 20.5t-22.5 56.5zM1141 12.5q0 12.5 6 12.5q80 0 118 10t52 39.5t14 91.5v948q0 61 -14 90 t-52 40t-118 11q-6 0 -6 12.5t6 12.5l100 -2q86 -4 137 -4q57 0 144 4l96 2q4 0 4 -12.5t-4 -12.5q-80 0 -118 -12t-51 -42t-13 -91v-944q0 -63 13 -92t50 -39t119 -10q4 0 4 -12.5t-4 -12.5q-61 0 -96 2l-144 2l-137 -2q-37 -2 -100 -2q-6 0 -6 12.5z" />
<glyph unicode="&#x4f9;" d="M7 698.5q-3 10.5 5 12.5l215 96l9 2q4 0 10 -4t6 -10v-365q98 33 209 33q272 0 272 -217q0 -129 -87 -201t-236 -72q-125 0 -189.5 50.5t-64.5 144.5v385q0 84 -13.5 120t-46.5 36q-23 0 -73 -21h-5q-8 0 -11 10.5zM252 211q0 -211 186 -211q185 0 185 201 q0 102 -55.5 164.5t-176.5 62.5q-78 0 -139 -25v-192zM379 1063q0 37 21.5 57.5t60.5 20.5q37 0 57.5 -20.5t20.5 -57.5t-20.5 -57.5t-57.5 -20.5q-39 0 -60.5 20.5t-21.5 57.5zM737 1063q0 37 22.5 57.5t59.5 20.5q39 0 59.5 -20.5t20.5 -57.5t-20.5 -57.5t-59.5 -20.5 q-37 0 -59.5 20.5t-22.5 57.5zM805 674q-4 10 4 14l254 119l8 2q4 0 9 -4t5 -10q0 -12 -2 -81t-2 -159v-389q0 -61 9.5 -91t37 -40t86.5 -10q7 0 7 -12.5t-7 -12.5q-47 0 -73 2l-109 2l-106 -2q-29 -2 -76 -2q-4 0 -4 12.5t4 12.5q59 0 87 10t38 39.5t10 91.5v387 q0 76 -15.5 108.5t-51.5 32.5q-39 0 -99 -30h-2q-8 0 -12 10z" />
<glyph unicode="&#x4fa;" horiz-adv-x="1044" d="M86 12.5q0 12.5 4 12.5q80 0 118 10t51 39.5t13 91.5v452h-141q-8 0 -8 19q0 18 8 18h141v459q0 61 -13 90t-51 40t-118 11q-4 0 -4 12.5t4 12.5h858q20 0 21 -18l4 -248q0 -6 -12.5 -6t-12.5 6q0 104 -55 165.5t-145 61.5h-189q-76 0 -112.5 -10t-51 -37t-14.5 -82v-457 h240q10 0 10 -18q0 -6 -3 -12.5t-7 -6.5h-240v-444q0 -63 15.5 -95t39 -42t60.5 -12q133 -8 195.5 -60.5t62.5 -146.5q0 -86 -55.5 -149.5t-172.5 -63.5q-51 0 -91 19.5t-40 53.5q0 29 19.5 48.5t48.5 19.5q31 0 43 -16.5t20 -48.5q6 -25 13.5 -37.5t25.5 -12.5q49 0 76 33 t27 94q0 117 -75 179.5t-194 62.5h-309q-4 0 -4 12.5z" />
<glyph unicode="&#x4fb;" horiz-adv-x="761" d="M61.5 12.5q-0.5 12.5 6.5 12.5q59 0 86.5 10t37 39.5t9.5 91.5v203h-101q-8 0 -8 20q0 18 8 19h101v217q0 61 -9.5 90.5t-37 40t-86.5 10.5q-6 0 -6.5 12.5t6.5 12.5h606q12 0 14 -3.5t2 -15.5q0 -41 -2 -72.5t-4 -54.5l-4 -121q0 -4 -12.5 -4t-12.5 4q0 133 -44 186.5 t-156 53.5q-68 0 -100.5 -12.5t-45 -42t-12.5 -88.5v-213h152q4 0 7 -6.5t3 -12.5q0 -8 -3 -14t-7 -6h-152v-203q0 -86 32.5 -113.5t94.5 -34.5q106 -8 158.5 -57t52.5 -143q0 -86 -55.5 -149.5t-171.5 -63.5q-53 0 -92.5 19.5t-39.5 53.5q0 29 19.5 48.5t46.5 19.5 q31 0 43 -16.5t21 -48.5q6 -25 14 -37.5t26 -12.5q47 0 75 33t28 94q0 117 -61.5 179.5t-159.5 62.5h-260q-6 0 -6.5 12.5z" />
<glyph unicode="&#x4fc;" horiz-adv-x="1337" d="M35 12.5q0 12.5 6 12.5q70 0 135.5 42t124.5 121l309 424l-329 498q-53 80 -106.5 112.5t-127.5 32.5q-4 0 -4 12.5t4 12.5q25 0 78 -4l74 -2q66 0 163 4l107 2q6 0 6 -12.5t-6 -12.5q-61 0 -88 -9t-27 -29q0 -14 19 -43l311 -469l260 368q49 72 49 113q0 70 -119 69 q-6 0 -6 12.5t6 12.5l93 -2q78 -4 137 -4q35 0 84 4l74 2q6 0 6 -12.5t-6 -12.5q-139 0 -275 -184l-287 -393l439 -660q82 -121 82 -241q0 -125 -87 -201t-216 -76q-66 0 -105 21.5t-39 56.5q0 27 16.5 43.5t43.5 16.5q31 0 47 -12.5t37 -37.5q18 -25 34.5 -37t44.5 -12 q51 0 94.5 47t43.5 123q0 113 -88 246l-418 631l-285 -398q-41 -59 -41 -96q0 -68 125 -67q6 0 6 -12.5t-6 -12.5q-61 0 -92 2l-137 2l-84 -2q-23 -2 -74 -2q-6 0 -6 12.5z" />
<glyph unicode="&#x4fd;" horiz-adv-x="899" d="M27 12.5q0 12.5 4 12.5q51 0 111.5 35.5t109.5 105.5l151 211l-161 244q-51 78 -106.5 111.5t-102.5 33.5q-4 0 -4 12.5t4 12.5q43 0 63 -3l64 -2l129 2q29 2 78 3q4 0 4 -12.5t-4 -12.5q-39 0 -56.5 -5t-17.5 -20q0 -14 26 -55l150 -221l115 172q43 59 43 86 q0 23 -29 33t-98 10q-4 0 -4 12.5t4 12.5q55 0 84 -3l123 -2l71 2q20 2 64 3q4 0 4 -12.5t-4 -12.5q-53 0 -110.5 -34t-110.5 -107l-136 -187l291 -434q96 -141 96 -262q0 -100 -62 -185t-206 -135q-6 -2 -10 8.5t0 14.5q92 31 137 103.5t45 158.5q0 59 -24.5 123t-87.5 158 l-242 362l-135 -196q-16 -25 -27.5 -46.5t-11.5 -37.5q0 -45 123 -45q6 0 6 -12.5t-6 -12.5q-55 0 -82 2l-123 2l-72 -2q-20 -2 -63 -2q-4 0 -4 12.5z" />
<glyph unicode="&#x4fe;" horiz-adv-x="1337" d="M35 12.5q0 12.5 6 12.5q70 0 135.5 42t124.5 121l309 424l-6 11h-317q-2 0 -5 6t-3 14q0 6 3 12.5t5 6.5h291l-297 448q-53 80 -106.5 112.5t-127.5 32.5q-4 0 -4 12.5t4 12.5q25 0 78 -4l74 -2q66 0 163 4l107 2q6 0 6 -12.5t-6 -12.5q-61 0 -88 -9t-27 -29 q0 -14 19 -43l311 -467l260 366q49 72 49 113q0 70 -119 69q-6 0 -6 12.5t6 12.5l93 -2q78 -4 137 -4q35 0 84 4l74 2q6 0 6 -12.5t-6 -12.5q-139 0 -275 -184l-287 -391l9 -10h307q10 0 10 -19q0 -6 -3 -12t-7 -6h-283l307 -463q53 -82 109.5 -113.5t146.5 -31.5 q4 0 4 -12.5t-4 -12.5q-53 0 -84 2l-108 2l-154 -2q-37 -2 -100 -2q-4 0 -4 12.5t4 12.5q61 0 88 8t27 28q0 16 -19 43l-317 482l-285 -398q-41 -59 -41 -96q0 -68 125 -67q6 0 6 -12.5t-6 -12.5q-61 0 -92 2l-137 2l-84 -2q-23 -2 -74 -2q-6 0 -6 12.5z" />
<glyph unicode="&#x4ff;" horiz-adv-x="899" d="M27 12.5q0 12.5 4 12.5q51 0 111.5 35.5t109.5 105.5l151 211l-6 8h-247q-8 0 -9 21q0 18 9 18h223l-131 197q-51 78 -106.5 111.5t-102.5 33.5q-4 0 -4 12.5t4 12.5q43 0 63 -3l64 -2l129 2q29 2 78 3q4 0 4 -12.5t-4 -12.5q-39 0 -56.5 -5t-17.5 -20q0 -12 26 -55 l148 -223l117 174q43 59 43 86q0 23 -29 33t-98 10q-4 0 -4 12.5t4 12.5q55 0 84 -3l123 -2l71 2q20 2 64 3q4 0 4 -12.5t-4 -12.5q-53 0 -110.5 -34t-110.5 -107l-138 -187l4 -6h248q4 0 7 -6t3 -12q0 -8 -3 -14.5t-7 -6.5h-221l148 -223q51 -78 106 -111.5t102 -33.5 q4 0 4 -12.5t-4 -12.5l-65 2q-20 2 -62 2l-129 -2q-29 -2 -77 -2q-6 0 -6.5 12.5t6.5 12.5q39 0 56 5t17 19q0 12 -26 55l-162 244l-135 -194q-16 -25 -27.5 -46.5t-11.5 -37.5q0 -45 123 -45q6 0 6 -12.5t-6 -12.5q-55 0 -82 2l-123 2l-72 -2q-20 -2 -63 -2q-4 0 -4 12.5z " />
<glyph unicode="&#x2000;" horiz-adv-x="867" />
<glyph unicode="&#x2001;" horiz-adv-x="1735" />
<glyph unicode="&#x2002;" horiz-adv-x="867" />
<glyph unicode="&#x2003;" horiz-adv-x="1735" />
<glyph unicode="&#x2004;" horiz-adv-x="578" />
<glyph unicode="&#x2005;" horiz-adv-x="433" />
<glyph unicode="&#x2006;" horiz-adv-x="289" />
<glyph unicode="&#x2007;" horiz-adv-x="289" />
<glyph unicode="&#x2008;" horiz-adv-x="216" />
<glyph unicode="&#x2009;" horiz-adv-x="347" />
<glyph unicode="&#x200a;" horiz-adv-x="96" />
<glyph unicode="&#x2010;" horiz-adv-x="661" d="M55 389q0 35 6 35l535 96q4 2 7 -11t3 -28q0 -14 -3 -26.5t-7 -14.5l-530 -96q-5 -2 -8 13.5t-3 31.5z" />
<glyph unicode="&#x2011;" horiz-adv-x="661" d="M55 389q0 35 6 35l535 96q4 2 7 -11t3 -28q0 -14 -3 -26.5t-7 -14.5l-530 -96q-5 -2 -8 13.5t-3 31.5z" />
<glyph unicode="&#x2012;" horiz-adv-x="661" d="M55 389q0 35 6 35l535 96q4 2 7 -11t3 -28q0 -14 -3 -26.5t-7 -14.5l-530 -96q-5 -2 -8 13.5t-3 31.5z" />
<glyph unicode="&#x2013;" horiz-adv-x="1054" d="M59 391q0 12 2 23.5t7 11.5h917q4 0 7 -11.5t3 -25.5t-3 -26.5t-7 -12.5h-915q-4 0 -7.5 13.5t-3.5 27.5z" />
<glyph unicode="&#x2014;" horiz-adv-x="1699" d="M59 391q0 12 2 23.5t7 11.5h1562q4 0 7 -11.5t3 -25.5t-3 -26.5t-7 -12.5h-1560q-4 0 -7.5 13.5t-3.5 27.5z" />
<glyph unicode="&#x2018;" horiz-adv-x="339" d="M51 1014q0 80 36 147.5t106 134.5q2 2 6 2q6 0 10 -6t0 -10q-100 -102 -100 -242q0 -53 20 -84q16 31 59 31q35 0 54.5 -19.5t19.5 -52.5q0 -72 -84 -71q-59 0 -93 44t-34 126z" />
<glyph unicode="&#x2019;" horiz-adv-x="315" d="M53 1229q0 72 84 71q60 0 93.5 -44t33.5 -126q0 -80 -35.5 -147.5t-105.5 -134.5q-2 -2 -6 -2q-6 0 -10.5 6t-0.5 10q100 102 101 242q0 53 -21 84q-14 -31 -59 -31q-35 0 -54.5 19.5t-19.5 52.5z" />
<glyph unicode="&#x201a;" horiz-adv-x="315" d="M53 55q0 72 84 72q60 0 93.5 -44t33.5 -126q0 -80 -35.5 -147.5t-105.5 -135.5q-2 -2 -6 -2q-6 0 -10.5 6.5t-0.5 10.5q100 102 101 241q0 53 -21 84q-14 -31 -59 -30q-35 0 -54.5 19.5t-19.5 51.5z" />
<glyph unicode="&#x201c;" horiz-adv-x="604" d="M53 1014q0 80 36 147.5t106 134.5q2 2 6 2q6 0 10 -6t0 -10q-100 -102 -100 -242q0 -53 20 -84q16 31 59 31q35 0 54.5 -19.5t19.5 -52.5q0 -72 -84 -71q-59 0 -93 44t-34 126zM340 1014q0 80 36 147.5t105 134.5q2 2 6 2q6 0 10.5 -6t0.5 -10q-100 -102 -101 -242 q0 -53 21 -84q16 31 59 31q35 0 54.5 -19.5t19.5 -52.5q0 -72 -84 -71q-59 0 -93 44t-34 126z" />
<glyph unicode="&#x201d;" horiz-adv-x="604" d="M53 1229q0 72 84 71q60 0 93.5 -44t33.5 -126q0 -80 -35.5 -147.5t-105.5 -134.5q-2 -2 -6 -2q-6 0 -10.5 6t-0.5 10q100 102 101 242q0 53 -21 84q-14 -31 -59 -31q-35 0 -54.5 19.5t-19.5 52.5zM340 1229q0 72 84 71q59 0 93 -44t34 -126q0 -80 -36 -147.5t-105 -134.5 q-2 -2 -7 -2q-6 0 -10 6t0 10q100 102 101 242q0 53 -21 84q-14 -31 -59 -31q-35 0 -54.5 19.5t-19.5 52.5z" />
<glyph unicode="&#x201e;" horiz-adv-x="604" d="M53 55q0 72 84 72q60 0 93.5 -44t33.5 -126q0 -80 -35.5 -147.5t-105.5 -135.5q-2 -2 -6 -2q-6 0 -10.5 6.5t-0.5 10.5q100 102 101 241q0 53 -21 84q-14 -31 -59 -30q-35 0 -54.5 19.5t-19.5 51.5zM340 55q0 72 84 72q59 0 93 -44t34 -126q0 -80 -36 -147.5t-105 -135.5 q-2 -2 -7 -2q-6 0 -10 6.5t0 10.5q100 102 101 241q0 53 -21 84q-14 -31 -59 -30q-35 0 -54.5 19.5t-19.5 51.5z" />
<glyph unicode="&#x2026;" horiz-adv-x="1357" d="M119 57q0 35 22.5 55.5t59.5 20.5q39 0 59.5 -20.5t20.5 -55.5q0 -37 -20.5 -58.5t-59.5 -21.5q-37 0 -59.5 21.5t-22.5 58.5zM598 57q0 35 22.5 55.5t59.5 20.5q39 0 59.5 -20.5t20.5 -55.5q0 -37 -20.5 -58.5t-59.5 -21.5q-37 0 -59.5 21.5t-22.5 58.5zM1077 57 q0 35 22.5 55.5t59.5 20.5q39 0 59.5 -20.5t20.5 -55.5q0 -37 -20.5 -58.5t-59.5 -21.5q-37 0 -59.5 21.5t-22.5 58.5z" />
<glyph unicode="&#x202f;" horiz-adv-x="347" />
<glyph unicode="&#x2039;" horiz-adv-x="622" d="M117 412q0 14 8 22l356 305q0 2 4 2t8.5 -5t2.5 -7l-267 -317l267 -318q2 -4 -5.5 -11t-9.5 -1l-356 305q-8 8 -8 25z" />
<glyph unicode="&#x203a;" horiz-adv-x="622" d="M127 94l266 316l-266 319q-2 4 5 10t9 0l357 -305q10 -10 10 -22q0 -14 -10 -25l-357 -305q0 -2 -4 -2t-8 5t-2 9z" />
<glyph unicode="&#x205f;" horiz-adv-x="433" />
<glyph unicode="&#x20ac;" horiz-adv-x="1431" d="M143 545q0 8 4.5 14t10.5 6h893q10 0 10 -10t-8.5 -20.5t-18.5 -10.5h-672q31 -147 108 -267t185.5 -188.5t225.5 -68.5q152 0 261 80t161 244q0 6 8 6q6 0 11 -2t5 -6l-29 -220q-2 -25 -8 -32t-22 -15q-186 -80 -394 -80q-195 0 -333 78t-214.5 202t-99.5 269h-69 q-6 0 -10.5 6.5t-4.5 14.5zM143 711q0 8 4.5 14t10.5 6h65q23 172 127.5 302t260 200t327.5 70q98 0 193.5 -25t156.5 -66q39 -31 29 -49l-98 -225q0 -2 -7 -2q-6 0 -11 3t-3 7q16 47 16 96q0 109 -97 163.5t-257 54.5q-150 0 -263.5 -65t-180 -183.5t-72.5 -280.5h776 q10 0 10 -10t-8 -20.5t-18 -10.5h-946q-6 0 -10.5 6t-4.5 15z" />
<glyph unicode="&#x2122;" horiz-adv-x="1464" d="M59 1124q4 23 8.5 80.5t4.5 100.5q0 6 12 7t12 -7q0 -14 14.5 -18.5t41.5 -4.5l184 -2l164 2q41 0 59.5 5t22.5 24q2 4 13 4t11 -4q-8 -172 -8 -187q0 -4 -11.5 -4t-11.5 4q0 59 -9 87t-31.5 37t-69.5 9q-53 0 -70.5 -15t-17.5 -60v-379q0 -45 18.5 -59.5t83.5 -14.5 q4 0 4 -12t-4 -12l-143 2l-139 -2q-2 0 -2 12t2 12q63 0 82.5 14.5t19.5 59.5v381q0 45 -16.5 59t-71.5 14q-49 0 -72.5 -9t-36 -36.5t-18.5 -87.5q0 -4 -12.5 -4t-12.5 4zM633 717q0 12 2 12q43 0 61.5 23.5t20.5 78.5l12 388q-35 37 -82 36q-4 0 -4 12.5t4 12.5 q16 0 31.5 -2t28.5 -2q18 0 31.5 2t21.5 2q16 0 29.5 -12.5t33.5 -50.5l199 -400l190 430q4 14 15.5 23.5t23.5 9.5q6 0 20.5 -2t41.5 -2q25 0 44 2t36 2q4 0 4 -12.5t-4 -12.5q-51 0 -74 -16t-21 -68l13 -368q2 -45 17 -59.5t71 -14.5q4 0 4 -12t-4 -12l-125 2l-141 -2 q-2 0 -2.5 12t2.5 12q70 0 91 14.5t17 59.5l-12 399l-217 -487q-2 -6 -8.5 -6t-10.5 6l-229 454l-12 -338q-2 -53 13 -77.5t54 -24.5q4 0 4 -12t-4 -12l-90 2l-94 -2q-2 0 -2 12z" />
<glyph unicode="&#x25fc;" horiz-adv-x="788" d="M0 0v788h788v-788h-788z" />
</font>
</defs>
</svg>
