<?xml version="1.0" standalone="no"?>
<!DOCTYPE svg PUBLIC "-//W3C//DTD SVG 1.1//EN" "http://www.w3.org/Graphics/SVG/1.1/DTD/svg11.dtd" >
<svg xmlns="http://www.w3.org/2000/svg" xmlns:xlink="http://www.w3.org/1999/xlink" version="1.1">
<metadata></metadata>
<defs>
<font id="cormorant_infantregular" horiz-adv-x="1568" >
<font-face units-per-em="2048" ascent="1638" descent="-410" />
<missing-glyph horiz-adv-x="479" />
<glyph horiz-adv-x="0" />
<glyph horiz-adv-x="682" />
<glyph unicode=" "  horiz-adv-x="479" />
<glyph unicode="&#x09;" horiz-adv-x="479" />
<glyph unicode="&#xa0;" horiz-adv-x="479" />
<glyph unicode="!" horiz-adv-x="505" d="M154 66q0 39 24.5 62.5t65.5 23.5q43 0 66.5 -23t23.5 -63q0 -41 -23.5 -65t-66.5 -24q-41 0 -65.5 25t-24.5 64zM160 1270q-2 8 28.5 13t65.5 5t65.5 -5t26.5 -13q-33 -176 -49 -377t-33 -506q0 -6 -14 -6q-16 0 -17 6q-10 279 -25 492t-48 391z" />
<glyph unicode="&#x22;" horiz-adv-x="579" d="M88 1245q-2 23 51.5 44.5t87.5 21.5q18 0 17 -8l-107 -553q-4 -4 -14 -6.5t-10 4.5zM379 1245q-2 23 51 44.5t88 21.5q18 0 17 -8l-107 -553q-4 -4 -14.5 -6.5t-10.5 4.5z" />
<glyph unicode="#" horiz-adv-x="1077" d="M119 199q0 14 2 26.5t6 12.5h156l57 325h-139q-4 0 -7.5 13.5t-3.5 29.5q0 14 3.5 25.5t5.5 11.5h155l62 344q0 10 36.5 2t34.5 -16l-57 -330h307l62 344q0 4 14 4q16 0 37.5 -6t19.5 -12l-57 -330h135q4 0 7 -12.5t3 -26.5t-3 -27.5t-7 -13.5h-149l-60 -325h138 q4 0 7 -13.5t3 -27.5t-3 -27.5t-7 -13.5h-152l-55 -318q0 -6 -19 -6q-16 0 -36.5 5t-18.5 9l55 310h-309l-55 -318q0 -6 -19 -6q-16 0 -36.5 5t-18.5 9l55 310h-139q-4 0 -7 13t-3 30zM356 238h310l57 325h-307z" />
<glyph unicode="$" horiz-adv-x="1019" d="M139 365q-2 8 9.5 10t13.5 -6q33 -145 119 -251t229 -110v584l-45 26q-98 59 -154.5 102.5t-95.5 109t-39 153.5q0 139 97.5 221t236.5 96v173q0 8 6 12t16 4q8 0 14.5 -4t6.5 -12v-170h4q121 0 240 -50q31 -10 30 -34l15 -236q0 -8 -10.5 -8t-12.5 8 q-16 100 -80.5 188.5t-185.5 98.5v-549q4 -4 33 -21q106 -63 165.5 -106t101.5 -109.5t42 -158.5q0 -136 -90 -231t-252 -115v-201q0 -14 -21 -15q-23 0 -22 15v196h-37q-158 0 -289 72q-10 6 -13 14.5t-5 24.5zM297 1040q0 -96 55.5 -162.5t157.5 -129.5v524 q-106 -4 -159.5 -70.5t-53.5 -161.5zM553 10q92 8 151.5 64.5t59.5 169.5q0 111 -55.5 183.5t-155.5 137.5v-555z" />
<glyph unicode="%" horiz-adv-x="1175" d="M55 887q0 109 72 184.5t180 75.5q106 0 176 -77t70 -189q0 -111 -69.5 -185.5t-176.5 -74.5q-108 0 -180 76.5t-72 189.5zM168 14l760 1114l4 2q10 0 28.5 -12t16.5 -18l-760 -1112h-2q-10 0 -29.5 10t-17.5 16zM174 893q0 -250 148 -250q67 0 89.5 56.5t22.5 166.5 q0 127 -34.5 192.5t-104.5 65.5t-95.5 -61.5t-25.5 -169.5zM623 256q0 109 71.5 185.5t179.5 76.5q106 0 176 -78t70 -188q0 -111 -69.5 -186.5t-176.5 -75.5q-108 0 -179.5 76.5t-71.5 189.5zM743 264q0 -250 146 -250q67 0 89.5 56.5t22.5 167.5q0 256 -139 256 q-68 0 -93.5 -60.5t-25.5 -169.5z" />
<glyph unicode="&#x26;" horiz-adv-x="1427" d="M131 281q0 117 72.5 203.5t210.5 187.5q-37 55 -60 102q-59 131 -59 223q0 88 43 163t121 119t176 44t168.5 -47t70.5 -156q0 -80 -40.5 -145.5t-101 -114.5t-161.5 -115q-4 -2 -34 -22q143 -233 436 -457q72 125 71 277q0 74 -29.5 110.5t-115.5 36.5q-6 0 -7 12.5 t7 12.5l428 2q8 0 8 -12.5t-8 -12.5q-70 0 -104.5 -13t-49 -35.5t-28.5 -72.5q-59 -203 -141 -327q121 -88 233.5 -145.5t189.5 -73.5q9 -2 8 -13.5t-8 -11.5h-221q-92 0 -280 147q-166 -172 -414 -172q-127 0 -212 43t-127 113t-42 150zM262 352q0 -86 44 -158.5 t123 -114.5t175 -42q86 0 162 34.5t135 96.5q-12 8 -37 29q-123 94 -237.5 212.5t-194.5 237.5q-80 -66 -125 -136.5t-45 -158.5zM414 1083q0 -157 106 -335q113 84 173.5 162.5t60.5 176.5q0 90 -48.5 141.5t-130.5 51.5q-162 0 -161 -197z" />
<glyph unicode="'" horiz-adv-x="286" d="M88 1245q-2 23 51.5 44.5t87.5 21.5q18 0 17 -8l-107 -553q-4 -4 -14 -6.5t-10 4.5z" />
<glyph unicode="(" horiz-adv-x="632" d="M133 623q0 290 112.5 521.5t315.5 340.5q4 2 8 -3t0 -9q-152 -143 -222.5 -355.5t-70.5 -494.5q0 -283 71 -495t222 -355q4 -2 0 -8.5t-8 -4.5q-203 111 -315.5 341.5t-112.5 521.5z" />
<glyph unicode=")" horiz-adv-x="632" d="M63 -227q152 143 222.5 355t70.5 495t-70.5 494.5t-222.5 355.5q-4 2 0.5 8t8.5 4q203 -111 315.5 -341.5t112.5 -520.5q0 -291 -113 -522.5t-315 -340.5q-4 -2 -8.5 3.5t-0.5 9.5z" />
<glyph unicode="*" horiz-adv-x="917" d="M119 829l303 177l4 2q4 0 9 -6.5t3 -8.5l-157 -209q-7 -8 -27 -8q-25 0 -60.5 11.5t-59 24.5t-15.5 17zM143 1217q0 35 6.5 62.5t12.5 20.5l262 -235q6 -2 2 -11.5t-8 -6.5l-250 83q-25 8 -25 87zM463 1083l4 263q0 18 40 36.5t81 24.5t37 -4l-142 -320q-2 -6 -11 -6 t-9 6zM477 985q-2 4 6.5 11.5t10.5 2.5l153 -217q10 -14 -12.5 -53t-52 -68.5t-31.5 -17.5zM507 1039.5q-3 9.5 1 11.5l252 77q18 6 48 -26.5t49.5 -69.5t6.5 -37l-350 35q-4 0 -7 9.5z" />
<glyph unicode="+" horiz-adv-x="815" d="M59 391q0 14 3.5 25.5t5.5 11.5h299v297q0 4 13 7t28 3q14 0 27.5 -3t13.5 -7v-297h296q5 0 8 -12.5t3 -26.5t-3 -27.5t-8 -13.5h-296v-297q0 -4 -15.5 -7t-32.5 -3q-35 0 -34 6v301h-297q-4 0 -7.5 13.5t-3.5 29.5z" />
<glyph unicode="," horiz-adv-x="454" d="M115 63q0 82 94 82q61 0 96 -46t35 -132q0 -82 -37 -152.5t-108 -140.5q-2 -2 -7 -2q-6 0 -10 6.5t0 10.5q100 102 101 241q0 57 -21 84q-18 -31 -63 -30q-37 0 -58.5 22.5t-21.5 56.5z" />
<glyph unicode="-" horiz-adv-x="661" d="M55 385q0 39 6 39l535 96q4 2 7 -11t3 -30q0 -41 -10 -45l-530 -96q-5 -2 -8 14.5t-3 32.5z" />
<glyph unicode="." horiz-adv-x="403" d="M113 66q0 39 24.5 62.5t65.5 23.5q43 0 66.5 -23t23.5 -63q0 -41 -23.5 -65t-66.5 -24q-41 0 -65.5 25t-24.5 64z" />
<glyph unicode="/" horiz-adv-x="698" d="M53 -311l516 1806q4 8 42 -3t34 -22l-514 -1804q-2 -8 -41 3.5t-37 19.5z" />
<glyph unicode="0" horiz-adv-x="1026" d="M96 641q0 195 53.5 345.5t148.5 234.5t220 84q121 0 214 -84t144.5 -237t51.5 -349q0 -195 -52.5 -345.5t-146.5 -233.5t-215 -83q-123 0 -218 84t-147.5 235.5t-52.5 348.5zM240 655q0 -301 79.5 -477t219.5 -176q123 0 183 158.5t60 449.5q0 328 -79.5 498t-206.5 170 q-123 0 -189.5 -168t-66.5 -455z" />
<glyph unicode="1" horiz-adv-x="800" d="M121 1028q-4 10 4 14l342 252q10 6 14 6t8.5 -4t4.5 -8v-1122q0 -61 16 -91t63.5 -40t147.5 -10q4 0 4 -12.5t-4 -12.5q-76 0 -119 2l-168 2l-166 -2q-45 -2 -123 -2q-4 0 -4 12.5t4 12.5q96 0 143.5 11t67 39.5t19.5 90.5v844q0 109 -56 108q-51 0 -182 -98l-4 -2 q-8 0 -12 10z" />
<glyph unicode="2" horiz-adv-x="917" d="M64.5 10q-7.5 10 1.5 17q78 98 118 145q150 182 236 301t145.5 245t59.5 240q0 121 -63.5 190t-178.5 69q-102 0 -174 -58.5t-107 -167.5q0 -2 -8 -2q-16 0 -14 8q29 145 125 225.5t237 80.5q147 0 232.5 -85t85.5 -219q0 -119 -65.5 -245.5t-151.5 -233t-213 -246.5 q-18 -20 -64.5 -70t-68.5 -83q-10 -14 8 -15q266 0 376.5 7.5t155.5 37t47 97.5q0 4 11.5 4t11.5 -4l-2 -225q0 -8 -5 -15.5t-14 -7.5h-704q-10 0 -17.5 10z" />
<glyph unicode="3" horiz-adv-x="890" d="M74 133q0 8 9 13.5t13 -1.5q53 -57 128 -85.5t151 -28.5q139 0 206.5 87t67.5 226q0 319 -373 320q-2 0 -5 5t-3 11t3 11t5 5q180 0 256 72t76 199q0 123 -61.5 189.5t-171.5 66.5q-86 0 -163 -42t-114 -122q0 -2 -4 -2q-6 0 -13 4t-5 8q47 111 139 172.5t215 61.5 q145 0 227 -81t82 -202q0 -106 -64.5 -197.5t-174.5 -132.5q137 -8 215 -102t78 -230q0 -113 -49.5 -199.5t-137.5 -135t-198 -48.5q-190 0 -332 154z" />
<glyph unicode="4" horiz-adv-x="960" d="M30 384q-5 7 1 15l622 891q4 4 13 4q20 0 20 -12v-840l170 7q8 0 8 -43t-8 -44l-170 7v-203q0 -61 10.5 -91t41 -40t98.5 -10q4 0 4 -12.5t-4 -12.5q-53 0 -84 2l-129 2l-154 -2q-39 -2 -107 -2q-6 0 -6 12.5t6 12.5q96 0 135.5 9t51.5 36.5t12 95.5v207q-279 4 -516 4 q-10 0 -15 7zM133 451q-8 -14 10 -15q180 0 418 4v635z" />
<glyph unicode="5" horiz-adv-x="911" d="M98 133q0 8 8.5 13.5t12.5 -1.5q49 -57 117.5 -85.5t146.5 -28.5q145 0 217 91t72 240q0 160 -80 253.5t-246 93.5q-45 0 -97 -7.5t-85 -19.5q-10 0 -16.5 7t-4.5 18l66 548q2 14 6 19.5t21 5.5q276 0 367 3t119 13.5t44 42.5q0 4 8 4q6 0 11.5 -3t2.5 -7l-26 -135 q-6 -23 -17.5 -30t-37.5 -7l-424 10q-27 0 -31 -28l-49 -408q113 33 223 33q180 0 283.5 -99.5t103.5 -283.5q0 -195 -112.5 -302.5t-286.5 -107.5q-96 0 -172 38t-142 116z" />
<glyph unicode="6" horiz-adv-x="1003" d="M123 465q0 203 79 391t226 312t346 135q6 0 9 -9.5t-5 -11.5q-166 -35 -283.5 -153.5t-176 -286.5t-58.5 -346q0 -205 76 -344.5t229 -139.5q104 0 155.5 76t51.5 211q0 154 -60.5 245t-164.5 91q-96 0 -178 -82l-4 -2q-8 0 -14.5 7t-4.5 11q49 61 115.5 94t140.5 33 q94 0 163 -47t105.5 -125t36.5 -168q0 -109 -51 -195.5t-141 -137t-203 -50.5q-193 0 -291 134.5t-98 357.5z" />
<glyph unicode="7" horiz-adv-x="878" d="M51 1036l70 297q2 6 14 5t10 -7q-2 -8 -2 -20q0 -18 19.5 -24.5t79.5 -6.5h542q8 0 15.5 -10t3.5 -17l-441 -1208q-10 -27 -18 -36t-25 -9h-90q-8 0 -14 6t-2 14l506 1137q8 14 -10 14q-305 0 -423 -8t-154 -33.5t-58 -97.5q0 -6 -11 -6q-4 0 -9 3t-3 7z" />
<glyph unicode="8" horiz-adv-x="1003" d="M96 324q0 127 83 237.5t204 171.5q-84 61 -128 127t-44 158q0 88 47 152.5t123 98.5t156 34q86 0 153.5 -35t105.5 -94.5t38 -129.5q0 -92 -53.5 -172.5t-143.5 -146.5q137 -82 212 -169t75 -226q0 -109 -56.5 -190t-151.5 -124t-212 -43q-125 0 -217 46.5t-141.5 126 t-49.5 178.5zM236 371q0 -156 88 -258.5t231 -102.5q117 0 185.5 70t68.5 194q0 94 -43 164t-103.5 115t-168.5 111q-16 10 -38 23t-46 30q-86 -57 -130 -147.5t-44 -198.5zM317 1087q0 -80 39 -140t94.5 -101t157.5 -103h2q102 115 103 277q0 119 -62.5 183.5t-156.5 64.5 q-78 0 -127.5 -51.5t-49.5 -129.5z" />
<glyph unicode="9" horiz-adv-x="1001" d="M96 936q0 109 51.5 191.5t141.5 129t203 46.5q193 0 291 -133.5t98 -356.5q0 -201 -79 -390.5t-228.5 -312t-348.5 -135.5q-6 -2 -9 9.5t5 13.5q168 33 286 151.5t177 285.5t59 345q0 205 -75.5 345.5t-229.5 140.5q-205 0 -205 -275q0 -160 68 -254t178 -94 q39 0 75 15.5t81 54.5q2 2 6 2q6 0 11 -6.5t3 -10.5q-86 -109 -239 -108q-101 0 -172.5 47t-109.5 126t-38 173z" />
<glyph unicode=":" horiz-adv-x="403" d="M113 66q0 39 24.5 62.5t65.5 23.5q43 0 66.5 -23t23.5 -63q0 -41 -23.5 -65t-66.5 -24q-41 0 -65.5 25t-24.5 64zM113 641q0 39 24.5 62.5t65.5 23.5q43 0 66.5 -22.5t23.5 -63.5t-23.5 -64.5t-66.5 -23.5q-41 0 -65.5 24.5t-24.5 63.5z" />
<glyph unicode=";" horiz-adv-x="458" d="M117 641q0 39 24.5 62.5t65.5 23.5q43 0 66.5 -22.5t23.5 -63.5t-23.5 -64.5t-66.5 -23.5q-41 0 -65.5 24.5t-24.5 63.5zM119 63q0 82 94 82q61 0 96 -46t35 -132q0 -82 -37 -152.5t-108 -140.5q-2 -2 -6 -2q-6 0 -10.5 6.5t-0.5 10.5q100 102 101 241q0 57 -21 84 q-18 -31 -63 -30q-37 0 -58.5 22.5t-21.5 56.5z" />
<glyph unicode="&#x3c;" horiz-adv-x="833" d="M63 389q0 31 11 35l684 301q6 4 10 -6t4 -27q0 -41 -14 -49l-596 -254l596 -254q14 -6 14 -49q0 -41 -14 -35l-684 303q-10 6 -11 35z" />
<glyph unicode="=" horiz-adv-x="958" d="M59 248q0 14 3.5 25.5t5.5 11.5h821q4 0 7 -12.5t3 -26.5t-3 -27.5t-7 -13.5h-819q-4 0 -7.5 13t-3.5 30zM59 535q0 14 3.5 25t5.5 11h821q4 0 7 -12t3 -27q0 -14 -3 -27t-7 -13h-819q-4 0 -7.5 13t-3.5 30z" />
<glyph unicode="&#x3e;" horiz-adv-x="833" d="M61 84q0 16 4.5 31.5t10.5 17.5l596 254l-596 254q-6 2 -10.5 17.5t-4.5 31.5t4.5 27.5t10.5 7.5l684 -303q10 -4 10 -35q0 -29 -10 -35l-684 -301q-6 -2 -10.5 7.5t-4.5 25.5z" />
<glyph unicode="?" horiz-adv-x="673" d="M88 1137q0 59 71.5 101t172.5 42q121 0 199.5 -63.5t78.5 -182.5q0 -61 -22.5 -109t-50 -78t-84.5 -85q-72 -70 -100.5 -126t-28.5 -128q0 -45 12 -113q2 -6 -10.5 -8t-14.5 4q-23 53 -38 126t-15 118q0 63 25.5 106t74.5 93q55 55 83 102t28 123q0 88 -40 141t-103 53 q-50 0 -67 -25.5t-21 -70.5q-8 -41 -24.5 -65.5t-55.5 -24.5q-33 0 -51.5 21.5t-18.5 48.5zM211 66q0 39 24.5 62.5t65.5 23.5q43 0 66.5 -23t23.5 -63q0 -41 -23.5 -65t-66.5 -24q-41 0 -65.5 25t-24.5 64z" />
<glyph unicode="@" horiz-adv-x="1472" d="M152 354q0 186 93 336t245.5 235t324.5 85q152 0 268.5 -63.5t180 -170t63.5 -233.5q0 -115 -51 -215.5t-136 -162t-184 -61.5q-112 0 -112 123q0 37 4 56l20 104q-72 -129 -158.5 -208t-164.5 -79q-47 0 -76 30t-29 93q0 27 2 41q16 109 84 217.5t159 177t171 68.5 q29 0 54.5 -10t41.5 -33q31 27 37 57q4 4 17 4q20 0 20 -6l-84 -458q-8 -45 -8 -64q0 -72 76 -72q57 0 112.5 41t92 118t36.5 179q0 131 -65.5 241t-180 174.5t-255.5 64.5q-156 0 -272 -76t-177 -203t-61 -276q0 -162 70.5 -285t199.5 -190.5t295 -67.5q98 0 173 20.5 t167 73.5h2q4 0 9 -7t1 -9q-178 -141 -418 -142q-166 0 -299 66.5t-210.5 191.5t-77.5 295zM543 264q0 -82 57 -82q53 0 115.5 55.5t114 142.5t69.5 173q2 10 2 31q0 43 -21.5 69.5t-64.5 26.5q-51 0 -107.5 -48t-100.5 -129t-58 -173q-6 -37 -6 -66z" />
<glyph unicode="A" horiz-adv-x="1437" d="M-8 12.5q0 12.5 10 12.5q57 0 97 21.5t76 75.5t79 157l432 1019q4 6 14.5 6.5t12.5 -6.5l483 -1017q70 -152 119 -204t117 -52q8 0 8 -12.5t-8 -12.5q-39 0 -121 4t-119 4q-45 0 -115 -4q-66 -4 -100 -4q-8 0 -8 12.5t8 12.5q76 0 110.5 14t34.5 49q0 29 -26 88l-236 502 h-387l-176 -418q-29 -70 -29 -115q0 -120 198 -120h3q10 0 10 -12.5t-10 -12.5q-37 0 -107 4q-78 4 -135 4q-53 0 -123 -4q-61 -4 -102 -4q-10 0 -10 12.5zM492 721h348l-185 389z" />
<glyph unicode="B" horiz-adv-x="1142" d="M84 12.5q0 12.5 4 12.5q78 0 115 11t51 39.5t14 90.5v948q0 61 -13 90t-50 40t-113 11q-6 0 -6 12.5t6 12.5l101 -2q86 -4 139 -4q37 0 68.5 2t54.5 4q63 6 118 6q172 0 258.5 -74.5t86.5 -195.5q0 -98 -63.5 -175t-174.5 -120q162 -12 261 -107.5t99 -236.5 q0 -109 -53 -197t-146 -138t-208 -50q-68 0 -148 6q-29 2 -67.5 4t-85.5 2l-139 -2q-37 -2 -105 -2q-4 0 -4 12.5zM399 166q0 -53 15.5 -82t59.5 -42t128 -13q150 0 222.5 76.5t72.5 220.5q0 156 -91 252t-251 98h-35q-54 0 -121 -4v-506zM399 721l93 -3q150 0 221 77 t71 204q0 115 -62.5 185.5t-193.5 70.5q-53 0 -78.5 -8t-38 -38.5t-12.5 -98.5v-389z" />
<glyph unicode="C" horiz-adv-x="1370" d="M100 651q0 188 104.5 338t276.5 232t369 82q98 0 198.5 -18.5t159.5 -53.5q18 -8 23.5 -17.5t7.5 -31.5l23 -230q0 -6 -10.5 -7t-12.5 5q-45 158 -167 232.5t-302 74.5q-156 0 -272.5 -68.5t-180 -193.5t-63.5 -288q0 -190 79 -352t213 -256.5t290 -94.5q147 0 255.5 81 t165.5 249q0 6 9 6q6 0 11 -2t5 -6l-29 -232q-4 -25 -9 -32t-23 -15q-184 -78 -390 -78q-246 0 -410.5 99.5t-242.5 253t-78 323.5z" />
<glyph unicode="D" horiz-adv-x="1415" d="M68 12.5q0 12.5 4 12.5q78 0 113.5 10t49 39.5t13.5 91.5v948q0 61 -12.5 90t-48 40t-113.5 11q-4 0 -4 12.5t4 12.5l102 -2q86 -4 137 -4q78 0 154 6q90 4 125 4q213 0 377 -82t255 -223t91 -317q0 -199 -93.5 -351.5t-253 -235.5t-347.5 -83q-60 0 -138 6 q-29 2 -72.5 4t-97.5 2l-139 -2q-37 -2 -102 -2q-4 0 -4 12.5zM381 188q0 -61 17.5 -96t65.5 -52t136 -17q164 0 291 68.5t197.5 202.5t70.5 322q0 178 -67.5 323.5t-192.5 229.5t-289 84q-88 0 -136 -10t-70.5 -41t-22.5 -92v-922z" />
<glyph unicode="E" horiz-adv-x="1099" d="M84 12.5q0 12.5 4 12.5q78 0 114 10t49 39.5t13 91.5v948q0 61 -13 90t-49 40t-114 11q-4 0 -4 12.5t4 12.5h823q18 0 19 -18l4 -252q0 -6 -10.5 -7.5t-12.5 5.5q-6 109 -65.5 169t-157.5 60h-125q-72 0 -105.5 -11.5t-47 -39t-13.5 -82.5v-416h250q98 0 140 33t42 110 q0 4 12.5 4.5t12.5 -4.5l-2 -165q0 -59 2 -91l2 -98q0 -4 -12.5 -4t-12.5 4q0 90 -44 129t-146 39h-244v-471q0 -57 12.5 -84t45 -37t102.5 -10h164q98 0 163.5 69.5t88.5 192.5q0 4 8 4q6 0 11 -2t5 -6q-18 -129 -18 -270q0 -16 -7 -23.5t-26 -7.5h-858q-4 0 -4 12.5z" />
<glyph unicode="F" horiz-adv-x="1042" d="M82 12.5q0 12.5 4 12.5q78 0 115 10t50 39.5t13 91.5v948q0 61 -13 90t-49 40t-114 11q-4 0 -4 12.5t4 12.5h823q18 0 19 -18l4 -252q0 -6 -10.5 -7.5t-12.5 5.5q-6 109 -65.5 169t-157.5 60h-125q-70 0 -104.5 -10t-48 -37t-13.5 -78v-448h207q109 0 155 33.5t46 109.5 q0 4 12 4t12 -4l-2 -166q0 -59 2 -90l2 -98q0 -4 -12 -4t-12 4q0 90 -48 129t-161 39h-201v-447q0 -66 17.5 -95.5t69 -41.5t161.5 -12q6 0 6 -12.5t-6 -12.5q-84 0 -131 2l-184 2l-140 -2q-37 -2 -104 -2q-4 0 -4 12.5z" />
<glyph unicode="G" horiz-adv-x="1462" d="M100 625q0 199 101.5 352t278.5 239.5t401 86.5q100 0 191 -19.5t149 -54.5q16 -10 19 -17.5t5 -29.5l25 -230q0 -6 -11.5 -7t-13.5 5q-45 147 -162.5 227t-289.5 80q-258 0 -399.5 -149.5t-141.5 -409.5q0 -199 81 -355.5t224 -244.5t322 -88q104 0 161.5 18.5t84 72 t26.5 157.5q0 106 -13.5 148.5t-59.5 56.5t-158 14q-12 0 -13 17q0 6 3 11t8 5q160 -10 258 -10q96 0 200 6q4 0 7 -5t3 -9q0 -14 -10 -15h-11q-40 0 -59 -13q-20 -15 -26 -62.5t-6 -163.5q0 -92 7 -131t7 -50q0 -12 -4 -16t-18 -8q-248 -57 -437 -58q-223 0 -389 86 t-253 233.5t-87 330.5z" />
<glyph unicode="H" horiz-adv-x="1554" d="M68 12.5q0 12.5 4 12.5q78 0 115.5 10t51 39.5t13.5 91.5v948q0 61 -13.5 90t-50 40t-114.5 11q-4 0 -4 12.5t4 12.5l104 -2q86 -4 137 -4q59 0 150 4l98 2q4 0 4 -12.5t-4 -12.5q-78 0 -115.5 -12t-51 -42t-13.5 -91v-422h786v422q0 61 -13 91t-50 42t-117 12 q-6 0 -6 12.5t6 12.5l98 -2q90 -4 150 -4q55 0 141 4l101 2q6 0 6 -12.5t-6 -12.5q-78 0 -115 -11t-50.5 -39.5t-13.5 -90.5v-948q0 -61 13.5 -91t50.5 -40t115 -10q6 0 6 -12.5t-6 -12.5q-63 0 -101 2l-141 2l-150 -2q-37 -2 -98 -2q-6 0 -6 12.5t6 12.5q80 0 117 10 t50 39.5t13 91.5v479h-786v-479q0 -61 13.5 -91t50 -40t116.5 -10q4 0 4 -12.5t-4 -12.5q-63 0 -100 2l-148 2l-141 -2q-37 -2 -102 -2q-4 0 -4 12.5z" />
<glyph unicode="I" horiz-adv-x="679" d="M90 12.5q0 12.5 6 12.5q78 0 114 10t49 39.5t13 91.5v948q0 61 -13 90t-49 40t-114 11q-6 0 -6 12.5t6 12.5l101 -2q86 -4 141 -4q61 0 147 4l97 2q6 0 6 -12.5t-6 -12.5q-76 0 -112 -12t-49 -42t-13 -91v-944q0 -62 12 -91.5t48 -39.5t114 -10q6 0 6 -12.5t-6 -12.5 q-61 0 -99 2l-145 2l-141 -2q-37 -2 -101 -2q-6 0 -6 12.5z" />
<glyph unicode="J" horiz-adv-x="659" d="M-94 -412q0 31 18.5 49.5t50.5 18.5q35 0 53.5 -15.5t39.5 -46.5q18 -29 32.5 -41t40.5 -12q74 0 110 85t36 274v1214q0 61 -14.5 90t-56.5 40t-130 11q-4 0 -4 12.5t4 12.5l119 -2q94 -4 147 -4t131 4l90 2q5 0 5 -12.5t-5 -12.5q-68 0 -98.5 -12t-41.5 -42t-11 -91 v-1167q0 -203 -94.5 -323t-272.5 -120q-70 0 -109.5 23.5t-39.5 64.5z" />
<glyph unicode="K" horiz-adv-x="1331" d="M68 12.5q0 12.5 4 12.5q78 0 113.5 10t49 39.5t13.5 91.5v948q0 61 -12.5 90t-48 40t-113.5 11q-4 0 -4 12.5t4 12.5l102 -2q86 -4 137 -4q59 0 146 4l96 2q6 0 6 -12.5t-6 -12.5q-76 0 -111.5 -12t-49 -42t-13.5 -91v-432l438 436q68 68 68 100q0 41 -121 41 q-4 0 -4 12.5t4 12.5l88 -2q82 -4 150 -4t141 4l76 2q6 0 6 -12.5t-6 -12.5q-84 0 -178.5 -36.5t-176.5 -116.5l-323 -318l295 -376q150 -195 228.5 -275t121.5 -94t125 -14q6 0 6 -12.5t-6 -12.5h-230q-16 0 -58 -1h-1q-42 1 -117 105q-76 106 -145 193l-313 395l-68 -65 v-461q0 -61 12.5 -91t48 -40t113.5 -10q6 0 6 -12.5t-6 -12.5q-61 0 -98 2l-144 2l-139 -2q-37 -2 -102 -2q-4 0 -4 12.5z" />
<glyph unicode="L" horiz-adv-x="1091" d="M68 12.5q0 12.5 4 12.5q78 0 113.5 10t48 39.5t12.5 91.5v948q0 61 -12.5 90t-48 40t-113.5 11q-4 0 -4 12.5t4 12.5l100 -2q86 -4 139 -4q57 0 144 4l98 2q6 0 6 -12.5t-6 -12.5q-76 0 -111.5 -11t-49 -40.5t-13.5 -91.5v-938q0 -59 12 -86t45 -36t107 -9h223 q117 0 186.5 71.5t91.5 198.5q0 6 11.5 5t11.5 -7q-18 -170 -18 -280q0 -16 -6.5 -23.5t-24.5 -7.5h-946q-4 0 -4 12.5z" />
<glyph unicode="M" horiz-adv-x="1712" d="M76 12.5q0 12.5 4 12.5q86 0 124 46t40 152l18 951q-60 81 -165 81h-3q-4 0 -4 12.5t4 12.5l76 -2q20 -2 57 -2t62.5 2t40.5 2q27 0 44 -19.5t50 -86.5l457 -963l446 1018q23 51 62 51q10 0 29.5 -2t51.5 -2l97 2q23 2 67 2q6 0 6 -12.5t-6 -12.5q-102 1 -146 -29 q-42 -28 -42 -105v-7l41 -948q2 -63 15.5 -92t48 -39t112.5 -10q6 0 6 -12.5t-6 -12.5q-63 0 -100 2l-142 2l-131 -2q-33 -2 -92 -2q-4 0 -4 12.5t4 12.5q70 0 104 11q32 12 44 40q9 21 9 60q0 14 -1 30l-37 932l-467 -1084q-4 -8 -16 -8q-10 0 -19 8l-504 1071l-18 -862 v-10q0 -101 37 -143q39 -44 137 -45q4 0 4 -12.5t-4 -12.5q-57 0 -88 2l-111 2l-106 -2q-29 -2 -82 -2q-4 0 -4 12.5z" />
<glyph unicode="N" horiz-adv-x="1488" d="M78 1267.5q0 12.5 6 12.5l76 -2q25 -2 67 -2q45 0 74 2t45 2t23.5 -7t23.5 -32q25 -37 49 -67l789 -969v850q0 106 -36 153t-120 47q-4 0 -4 12.5t4 12.5l80 -2q61 -4 100 -4q37 0 103 4l84 2q6 0 6 -12.5t-6 -12.5q-86 0 -125 -47t-39 -153v-1080q0 -4 -10.5 -6t-14.5 2 l-942 1141l-18 21v-910q0 -106 38 -152t122 -46q6 0 6 -12.5t-6 -12.5q-51 0 -78 2l-103 2l-104 -2q-29 -2 -84 -2q-4 0 -4 12.5t4 12.5q88 0 125 46t37 152v959q-79 73 -160 73h-2q-6 0 -6 12.5z" />
<glyph unicode="O" d="M100 639q0 211 106.5 361.5t273.5 226.5t341 76q195 0 342.5 -91.5t226 -241t78.5 -317.5q0 -186 -98 -341.5t-263 -246t-357 -90.5q-191 0 -339.5 89.5t-229.5 242t-81 332.5zM256 711q0 -193 71.5 -351.5t200.5 -250t293 -91.5q140 0 251.5 68t176 199t64.5 311 q0 193 -72 342t-202 233t-304 84q-225 0 -352 -145t-127 -399z" />
<glyph unicode="P" horiz-adv-x="1112" d="M82 12.5q0 12.5 4 12.5q78 0 114 10t48 39.5t12 91.5v948q0 61 -12 90t-48 40t-114 11q-4 0 -4 12.5t4 12.5l102 -2q86 -4 138 -4q51 0 114 6q25 0 78 3t92 3q188 0 302 -84t114 -256q0 -135 -66.5 -227t-171 -137t-215.5 -45q-59 0 -98 10q-6 0 -6 10q0 6 3 12t7 4 q33 -8 74 -8q135 0 228 88t93 254q0 162 -88 255t-225 93q-74 0 -106.5 -8t-47 -37.5t-14.5 -99.5v-936q0 -65 17.5 -95t67.5 -42t159 -12q6 0 6 -12.5t-6 -12.5q-84 0 -131 2l-178 2l-138 -2q-39 -2 -104 -2q-4 0 -4 12.5z" />
<glyph unicode="Q" d="M100 639q0 211 106.5 361.5t273.5 226.5t341 76q195 0 342.5 -91.5t226 -241t78.5 -317.5q0 -152 -66.5 -286t-183 -228t-264.5 -135q86 -147 228.5 -242.5t269.5 -95.5q37 0 74 4h2q4 0 7 -9t-1 -11q-104 -25 -174 -25q-141 0 -298 93.5t-271 258.5q-14 -2 -41 -2 q-190 0 -339 89.5t-230 242t-81 332.5zM256 711q0 -193 71.5 -351.5t200.5 -250t293 -91.5q139 0 251 68t176.5 199t64.5 311q0 193 -72 342t-202 233t-304 84q-225 0 -352 -145t-127 -399z" />
<glyph unicode="R" horiz-adv-x="1378" d="M84 12.5q0 12.5 4 12.5q78 0 115 11t51 39.5t14 90.5v948q0 61 -13 90t-49 40t-114 11q-6 0 -6 12.5t6 12.5l101 -2q86 -4 139 -4q37 0 69.5 2t57.5 4q66 6 119 6q166 0 256 -67.5t90 -188.5q0 -98 -57.5 -185t-151.5 -138q174 -260 292.5 -406.5t211 -211t180.5 -64.5 q4 0 4 -12.5t-4 -12.5h-264q-51 0 -191.5 175t-341.5 489q-49 -14 -110 -15q-39 0 -93 4v-487q0 -63 12.5 -92t48.5 -39t113 -10q6 0 6.5 -12.5t-6.5 -12.5q-63 0 -100 2l-141 2l-139 -2q-37 -2 -105 -2q-4 0 -4 12.5zM399 705q51 -9 121 -9q141 0 202.5 60.5t61.5 201.5 q0 297 -249 297q-55 0 -83 -9t-40.5 -38.5t-12.5 -97.5v-405z" />
<glyph unicode="S" horiz-adv-x="1005" d="M139 365q-2 8 9.5 10t13.5 -6q33 -147 122 -254t236 -107q102 0 173 56.5t71 179.5q0 92 -41 159.5t-99.5 111.5t-158.5 103q-98 59 -154.5 102.5t-95.5 109t-39 153.5q0 102 54.5 175t141.5 109t185 36q121 0 240 -50q31 -10 30 -34l15 -236q0 -8 -10.5 -8t-12.5 8 q-16 106 -88 197.5t-207 91.5q-115 0 -171 -66.5t-56 -165.5q0 -79 39 -138.5t94 -99.5t156 -102q106 -63 165.5 -106t101.5 -109.5t42 -158.5q0 -98 -49 -178t-144.5 -126.5t-228.5 -46.5q-158 0 -289 72q-10 6 -13 14.5t-5 24.5z" />
<glyph unicode="T" horiz-adv-x="1298" d="M78 954q8 74 18 193t10 178q0 10 11.5 10t11.5 -10q0 -45 111 -45q174 -6 411 -6q121 0 256 4l140 2q74 0 109.5 10t45.5 41q2 8 12.5 8t10.5 -8q-6 -59 -12.5 -180t-6.5 -197q0 -4 -12 -4t-12 4q-6 160 -65.5 224.5t-196.5 64.5q-92 0 -131 -8t-53.5 -34.5t-14.5 -90.5 v-944q0 -63 14.5 -92t55 -39t129.5 -10q6 0 6 -12.5t-6 -12.5q-68 0 -109 2l-160 2l-153 -2q-41 -2 -113 -2q-4 0 -4 12.5t4 12.5q88 0 129 10t56.5 39.5t15.5 91.5v948q0 63 -14.5 89t-53.5 33t-131 7q-129 0 -193.5 -65.5t-93.5 -223.5q0 -4 -11 -4t-11 4z" />
<glyph unicode="U" horiz-adv-x="1562" d="M45 1267.5q0 12.5 6 12.5l101 -2q86 -4 137 -4q57 0 147 4l96 2q4 0 4.5 -12.5t-4.5 -12.5q-76 0 -112.5 -12t-50 -42t-13.5 -91v-657q0 -205 101.5 -312.5t275.5 -107.5q117 0 221.5 46t225.5 154v877q0 61 -12.5 91t-48.5 42t-113 12q-6 0 -6.5 12.5t6.5 12.5l98 -2 q90 -4 143 -4t139 4l101 2q6 0 6 -12.5t-6 -12.5q-78 0 -114 -11t-49 -39.5t-13 -90.5v-948q0 -61 13 -91t49 -40t114 -10q6 0 6 -12.5t-6 -12.5l-162 2l-106 -2q-25 0 -32 6t-7 33v158q-129 -117 -247 -169.5t-255 -52.5q-129 0 -232.5 49.5t-162 141.5t-58.5 215v733 q0 61 -12 90t-48 40t-114 11q-6 0 -6 12.5z" />
<glyph unicode="V" horiz-adv-x="1363" d="M-8 1267.5q0 12.5 6 12.5l78 -2q57 -4 92 -4q82 0 176 4l84 2q6 0 6 -12.5t-6 -12.5q-63 0 -95 -16t-32 -55q0 -25 18 -66l429 -938l368 924q16 43 17 67q0 43 -39 63.5t-121 20.5q-6 0 -6 12.5t6 12.5l88 -2q70 -4 127 -4q43 0 96 4l86 2q6 0 6 -12.5t-6 -12.5 q-70 0 -121 -36.5t-86 -124.5l-436 -1092q-2 -8 -22 -8q-16 0 -23 8l-510 1108q-35 80 -74 112.5t-100 32.5q-6 0 -6 12.5z" />
<glyph unicode="W" horiz-adv-x="1884" d="M-8 1267.5q0 12.5 6 12.5l78 -2q57 -4 92 -4q106 0 209 4q31 2 82 2q6 0 6 -12.5t-6 -12.5q-158 0 -158 -88q0 -18 10 -49l318 -895l315 1057q4 6 23 6q23 0 22 -6l393 -1061l254 881q8 25 9 49q0 106 -193 106q-6 0 -6 12.5t6 12.5l102 -2q90 -4 156 -4q41 0 94 4l88 2 q4 0 4 -12.5t-4 -12.5q-162 0 -206 -161l-320 -1092q0 -8 -23 -8q-20 0 -22 8l-391 1065l-320 -1065q0 -8 -22 -8q-18 0 -25 8l-391 1108q-27 80 -68 112.5t-106 32.5q-6 0 -6 12.5z" />
<glyph unicode="X" horiz-adv-x="1335" d="M29 12.5q0 12.5 6 12.5q141 0 278 186l289 395l-330 500q-53 82 -105 115.5t-124 33.5q-4 0 -4 12.5t4 12.5l78 -2q53 -4 78 -4q70 0 168 4l106 2q6 0 6 -12.5t-6 -12.5q-53 0 -78.5 -8t-25.5 -28q0 -16 18 -45l303 -457l240 340q55 78 55 127q0 71 -112 71h-3 q-6 0 -6 12.5t6 12.5l93 -2q78 -4 141 -4q37 0 86 4l76 2q6 0 6 -12.5t-6 -12.5q-68 0 -141.5 -51t-147.5 -151l-268 -367l342 -516q53 -80 109.5 -112.5t139.5 -32.5q5 0 5 -12.5t-5 -12.5q-53 0 -83 2l-113 2l-158 -2q-37 -2 -100 -2q-4 0 -4 12.5t4 12.5q55 0 79.5 8 t24.5 26t-18 45l-311 471l-261 -366q-49 -70 -49 -113q0 -71 118 -71h3q6 0 6 -12.5t-6 -12.5q-61 0 -94 2l-141 2l-86 -2q-23 -2 -76 -2q-6 0 -6 12.5z" />
<glyph unicode="Y" horiz-adv-x="1247" d="M-8 1267.5q0 12.5 6 12.5q25 0 74 -4l71 -2q70 0 176 4l111 2q4 0 4 -12.5t-4 -12.5q-106 0 -106 -43q0 -23 20 -51l330 -483l250 383q45 72 45 121q0 73 -108 73h-3q-4 0 -4 12.5t4 12.5l96 -2q78 -4 144 -4q35 0 84 4l75 2q5 0 5 -12.5t-5 -12.5q-74 0 -149.5 -54 t-134.5 -148l-275 -422v-465q0 -63 12.5 -92t48.5 -39t113 -10q6 0 6.5 -12.5t-6.5 -12.5q-63 0 -98 2l-143 2l-142 -2q-37 -2 -100 -2q-6 0 -6 12.5t6 12.5q78 0 114 10t49 39.5t13 91.5v432l-340 498q-57 90 -108 124.5t-119 34.5q-6 0 -6 12.5z" />
<glyph unicode="Z" horiz-adv-x="1218" d="M106 1022l82 319q0 2 9 2q20 0 16 -6q-2 -6 -2 -16q0 -25 23.5 -33t95.5 -8h747q10 0 15.5 -10t-0.5 -17l-799 -1198l-6 -12q0 -4 16 -4h522q137 0 209 57.5t94 179.5q2 4 12.5 4.5t10.5 -4.5l-29 -260q0 -6 -5 -13t-13 -7q-305 4 -979 4q-10 0 -14.5 9t2.5 18l809 1202 q6 10 5 13t-16 3q-365 0 -497.5 -11t-186 -54t-96.5 -162q0 -4 -8 -4q-6 0 -12.5 3t-4.5 5z" />
<glyph unicode="[" horiz-adv-x="561" d="M180 -217v1681q0 14 3 17.5t16 3.5h284q6 0 6 -12.5t-6 -12.5q-80 0 -117.5 -12t-51 -42t-13.5 -91v-1385q0 -61 13.5 -90.5t51 -42t117.5 -12.5q6 0 6 -12.5t-6 -12.5h-284q-12 0 -15.5 4.5t-3.5 18.5z" />
<glyph unicode="\" horiz-adv-x="698" d="M53 1470q-4 10 34 21.5t42 3.5l516 -1806q4 -8 -35 -19.5t-43 -3.5z" />
<glyph unicode="]" horiz-adv-x="561" d="M72 -227.5q0 12.5 6 12.5q80 0 117.5 12.5t51 42t13.5 90.5v1385q0 61 -13.5 91t-51 42t-117.5 12q-6 0 -6 12.5t6 12.5h284q12 0 15.5 -3t3.5 -18v-1681q0 -14 -3 -18.5t-16 -4.5h-284q-6 0 -6 12.5z" />
<glyph unicode="^" horiz-adv-x="802" d="M119 778l260 510q2 10 22 10t23 -10l258 -510v-2q0 -4 -8 -8t-10 0l-263 352l-262 -352q-2 -2 -6 -2t-10 5t-4 7z" />
<glyph unicode="_" horiz-adv-x="815" d="M59 -113q0 14 2 26.5t7 12.5h677q4 0 7.5 -13t3.5 -28q0 -14 -3 -27.5t-8 -13.5h-675q-4 0 -7.5 13.5t-3.5 29.5z" />
<glyph unicode="`" horiz-adv-x="436" d="M86 1489q-2 8 16 8q27 0 67 -11t42 -20l104 -491q4 -4 -7 -7t-13 3z" />
<glyph unicode="a" horiz-adv-x="1003" d="M74 330q0 147 69.5 257.5t175 170t211.5 59.5q115 0 199 -61q37 20 57 53q2 4 10.5 1t8.5 -7v-584q0 -70 16.5 -99.5t55.5 -29.5q35 0 108 29h4q8 0 11.5 -9.5t-5.5 -11.5l-237 -114q-4 -2 -10 -2q-18 0 -36 48t-20 122q-76 -78 -153.5 -125t-169.5 -47q-125 0 -210 92 t-85 258zM209 389q0 -154 62.5 -248t166.5 -94q68 0 130.5 38t123.5 99v418q0 76 -65.5 125t-147.5 49q-121 0 -195.5 -107.5t-74.5 -279.5z" />
<glyph unicode="b" horiz-adv-x="1044" d="M19.5 1345.5q-3.5 10.5 3.5 12.5l256 125l10 2q4 0 11 -5t7 -12v-829q78 82 156 130t176 48q88 0 164 -43t121 -128t45 -208q0 -147 -64.5 -252.5t-168 -159t-218.5 -53.5q-158 0 -278 90l-156 -73h-4q-8 0 -10 8t4 12q66 45 92.5 85t26.5 116v1012q0 74 -15.5 106.5 t-52.5 32.5q-29 0 -92 -27h-4q-6 0 -9.5 10.5zM307 270q0 -90 44 -147t107.5 -84t123.5 -27q118 0 185 92.5t67 264.5q0 184 -72 282.5t-191 98.5q-70 0 -133 -38t-131 -106v-336z" />
<glyph unicode="c" horiz-adv-x="841" d="M74 379q0 131 65.5 228.5t169 149.5t211.5 52q90 0 165 -36t75 -89q0 -27 -19.5 -46.5t-52.5 -19.5q-55 0 -90 68q-27 41 -57.5 61.5t-87.5 20.5q-115 0 -179.5 -89t-64.5 -239q0 -172 86 -282.5t258 -110.5q125 0 209 68h2q6 0 11 -6.5t1 -10.5q-72 -63 -144.5 -93 t-158.5 -30q-133 0 -223 58.5t-133 150.5t-43 195z" />
<glyph unicode="d" horiz-adv-x="1048" d="M74 365q0 145 71.5 247.5t180 153.5t215.5 51q109 0 196 -53v459q0 74 -15 106.5t-52 32.5q-27 0 -95 -29h-4q-8 0 -11 9.5t3 13.5l260 127q4 2 11 2q4 0 11 -5t7 -12v-1243q0 -74 17.5 -106.5t56.5 -32.5q59 0 106 29l4 2q8 0 11.5 -10.5t-3.5 -14.5l-225 -106 q-12 -4 -16 -4q-27 0 -45.5 45t-20.5 125q-76 -80 -158.5 -129.5t-185.5 -49.5q-86 0 -158.5 49.5t-116.5 138.5t-44 204zM207 426q0 -113 34.5 -199t95 -133t136.5 -47q74 0 137.5 36t126.5 101v451q-49 68 -108.5 104.5t-143.5 36.5q-129 0 -203.5 -91t-74.5 -259z" />
<glyph unicode="e" horiz-adv-x="835" d="M74 369q0 123 58 223t158.5 158.5t223.5 58.5q111 0 172.5 -54.5t61.5 -148.5q0 -25 -5.5 -36t-19.5 -11l-504 -4q-10 -55 -10 -106q0 -178 86 -290t237 -112q117 0 211 68h2q6 0 11.5 -7.5t1.5 -13.5q-139 -119 -299 -119q-121 0 -209 55.5t-132 144.5t-44 194zM225 584 l381 8q0 84 -44 130t-118 46q-84 0 -140 -48t-79 -136z" />
<glyph unicode="f" horiz-adv-x="624" d="M51 750.5q0 13.5 6 13.5q84 0 114 19.5t32 72.5q10 332 121.5 481.5t328.5 149.5q105 0 171.5 -32t66.5 -77q0 -31 -21.5 -48t-50.5 -17q-25 0 -43 12t-39 41q-31 43 -66.5 64.5t-88.5 21.5q-119 0 -188.5 -137t-69.5 -416v-131q94 2 262 20q6 0 10 -14t4 -35 q0 -16 -6 -33.5t-14 -15.5q-119 29 -256 33v-557q0 -63 14 -92t55 -39t131 -10q6 0 6 -12.5t-6 -12.5l-131 2q-43 2 -131 2l-115 -2q-29 -2 -81 -2q-6 0 -6.5 12.5t6.5 12.5q61 0 89.5 11t40 39.5t11.5 90.5v461q0 53 -10.5 74.5t-40 28.5t-99.5 7q-6 0 -6 13.5z" />
<glyph unicode="g" horiz-adv-x="954" d="M74 330q0 147 69.5 257.5t175 170t211.5 59.5q115 0 199 -61q37 20 57 53q2 4 10.5 1t8.5 -7v-946q0 -197 -107.5 -314.5t-300.5 -117.5q-123 0 -200.5 44t-77.5 109q0 35 18.5 51.5t42.5 16.5q29 0 47.5 -15.5t44.5 -50.5q39 -53 80 -82.5t123 -29.5q98 0 157.5 71.5 t59.5 267.5v345q-76 -78 -153.5 -125t-169.5 -47q-125 0 -210 92t-85 258zM209 389q0 -154 62.5 -248t166.5 -94q68 0 130.5 38t123.5 99v418q0 76 -65.5 125t-147.5 49q-121 0 -195.5 -107.5t-74.5 -279.5z" />
<glyph unicode="h" horiz-adv-x="1021" d="M8 1345.5q-4 10.5 4 12.5l260 127h7q8 0 13 -5t5 -12v-831q78 90 154.5 132t160.5 42q113 0 174.5 -63.5t61.5 -184.5v-397q0 -59 10 -89t37 -41t82 -11q6 0 6 -12.5t-6 -12.5q-47 0 -76 2l-110 2l-111 -2q-29 -2 -76 -2q-6 0 -6 12.5t6 12.5q55 0 82 11t37 40.5t10 89.5 v326q0 121 -46 179t-142 58q-63 0 -129 -33.5t-119 -93.5v-436q0 -59 10 -89t37 -41t82 -11q6 0 6 -12.5t-6 -12.5q-47 0 -76 2l-110 2l-111 -2q-29 -2 -76 -2q-6 0 -6 12.5t6 12.5q55 0 82 11t37 40.5t10 89.5v1059q0 74 -14 106.5t-51 32.5q-31 0 -94 -29h-5 q-6 0 -10 10.5z" />
<glyph unicode="i" horiz-adv-x="559" d="M65.5 669.5q-4.5 10.5 2.5 14.5l266 123l8 2q4 0 10 -5t6 -11q0 -14 -2 -82t-2 -160v-385q0 -61 10.5 -90t37 -40t81.5 -11q6 0 6 -12.5t-6 -12.5q-47 0 -75 2l-111 2l-111 -2q-29 -2 -77 -2q-5 0 -5 12.5t5 12.5q55 0 82.5 11t38 40.5t10.5 89.5v383q0 74 -15.5 106.5 t-52.5 32.5t-92 -29h-2q-8 0 -12.5 10.5zM190 1135q0 41 24 63.5t67 22.5q41 0 63.5 -22.5t22.5 -63.5t-22.5 -63.5t-63.5 -22.5q-43 0 -67 22.5t-24 63.5z" />
<glyph unicode="j" horiz-adv-x="526" d="M39 -555q100 43 141 137t41 273v694q0 74 -14 106.5t-49 32.5q-37 0 -95 -29h-2q-10 0 -14 10.5t4 14.5l266 123l7 2q6 0 12 -5t6 -11q0 -15 -2 -82.5t-2 -159.5v-649q0 -139 -27.5 -228.5t-89 -149t-172.5 -102.5q-4 -2 -9 9.5t-1 13.5zM172 1135q0 41 23.5 63.5 t66.5 22.5q41 0 63.5 -22.5t22.5 -63.5t-22.5 -63.5t-63.5 -22.5q-43 0 -66.5 22.5t-23.5 63.5z" />
<glyph unicode="k" horiz-adv-x="1005" d="M8 1345.5q-4 10.5 4 12.5l256 125l11 2q6 0 12 -5t6 -12v-1065l274 222q66 51 66 90q0 51 -117 51q-6 0 -6 12.5t6 12.5q55 0 84 -3l150 -2l137 2q27 2 74 3q6 0 6 -12.5t-6 -12.5q-76 0 -168 -37t-185 -111l-118 -94l260 -358q102 -141 235 -141q6 0 6 -12.5t-6 -12.5 q-47 0 -76 2l-110 2l-148 -2q-33 -2 -88 -2q-4 0 -4 12.5t4 12.5q102 0 103 38q0 18 -19 46l-252 342l-102 -80v-205q0 -59 10 -89t37 -41t82 -11q6 0 6 -12.5t-6 -12.5q-47 0 -76 2l-110 2l-111 -2q-29 -2 -76 -2q-6 0 -6 12.5t6 12.5q55 0 82 11t37 40.5t10 89.5v1059 q0 74 -14 106.5t-51 32.5q-31 0 -94 -29h-5q-6 0 -10 10.5z" />
<glyph unicode="l" horiz-adv-x="528" d="M38 1345.5q-3 10.5 3 12.5l262 125q4 2 10 2q4 0 11.5 -5t7.5 -12v-1302q0 -59 9 -88t35.5 -41t82.5 -12q6 0 6 -12.5t-6 -12.5q-45 0 -74 2l-115 2l-110 -2q-29 -2 -78 -2q-6 0 -6 12.5t6 12.5q55 0 81.5 11t37 40.5t10.5 89.5v1059q0 74 -14.5 106.5t-51.5 32.5 q-31 0 -94 -29h-4q-6 0 -9 10.5z" />
<glyph unicode="m" horiz-adv-x="1562" d="M21.5 681q-3.5 9 5.5 13l237 113q4 2 12 2q18 0 39 -47t21 -121v-2q74 90 147.5 131t153.5 41q92 0 149.5 -45t71.5 -135q76 92 151.5 136t157.5 44q109 0 167.5 -62.5t58.5 -185.5v-397q0 -61 9 -90t35.5 -40t82.5 -11q6 0 6 -12.5t-6 -12.5q-47 0 -76 2l-111 2l-110 -2 q-29 -2 -76 -2q-6 0 -6 12.5t6 12.5q55 0 81.5 11t37 40.5t10.5 89.5v326q0 121 -43 179t-133 58q-61 0 -124 -33.5t-116 -95.5q2 -10 2 -33v-401q0 -61 10.5 -90t37 -40t81.5 -11q6 0 6 -12.5t-6 -12.5q-47 0 -76 2l-110 2l-113 -2q-27 -2 -74 -2q-6 0 -6 12.5t6 12.5 q55 0 82 11t36 39.5t9 90.5v326q0 121 -43 179t-131 58q-61 0 -122.5 -32.5t-112.5 -92.5v-438q0 -61 9 -90t36 -40t82 -11q6 0 6 -12.5t-6 -12.5q-47 0 -74 2l-110 2l-113 -2q-27 -2 -74 -2q-6 0 -6 12.5t6 12.5q55 0 82 11t36 39.5t9 90.5v405q0 70 -16.5 100.5 t-55.5 30.5q-33 0 -110 -30h-4q-8 0 -11.5 9z" />
<glyph unicode="n" horiz-adv-x="1058" d="M21.5 681q-3.5 9 5.5 13l237 113q4 2 12 2q18 0 39 -47t21 -121q78 90 154.5 133t158.5 43q115 0 176.5 -63.5t61.5 -186.5v-401q0 -61 9 -90t35.5 -40t82.5 -11q6 0 6 -12.5t-6 -12.5q-47 0 -74 2l-111 2l-112 -2q-27 -2 -74 -2q-6 0 -6 12.5t6 12.5q55 0 82 11t36 39.5 t9 90.5v332q0 121 -46 178t-142 57q-63 0 -128 -33.5t-118 -93.5v-440q0 -61 9 -90t36 -40t82 -11q6 0 6 -12.5t-6 -12.5q-47 0 -74 2l-110 2l-113 -2q-27 -2 -74 -2q-6 0 -6 12.5t6 12.5q55 0 82 11t36 39.5t9 90.5v405q0 70 -16.5 100.5t-55.5 30.5q-33 0 -110 -30h-4 q-8 0 -11.5 9z" />
<glyph unicode="o" horiz-adv-x="980" d="M74 406q0 133 64.5 226t166 139t205.5 46q121 0 211 -59.5t138 -156.5t48 -206q0 -127 -59.5 -222t-158.5 -147.5t-216 -52.5q-119 0 -210 58.5t-140 158t-49 216.5zM211 469q0 -125 41 -229.5t114.5 -166t165.5 -61.5q113 0 174.5 80t61.5 246q0 127 -42 227.5 t-115.5 156.5t-168.5 56q-111 0 -171 -80t-60 -229z" />
<glyph unicode="p" horiz-adv-x="1046" d="M-3 682q-3 10 3 14l227 109q4 2 15 2q29 0 47 -43t20 -123q174 176 344 176q84 0 156 -45t115 -131t43 -201q0 -154 -70 -259t-171 -156.5t-200 -51.5q-63 0 -113.5 12.5t-103.5 41.5v-424q0 -61 15.5 -90t58.5 -40.5t131 -11.5q4 0 4 -12t-4 -12q-70 0 -111 2l-149 2 l-113 -2q-29 -2 -75 -2q-6 0 -6.5 12t6.5 12q55 0 81.5 11.5t37 40t10.5 90.5v962q0 74 -16.5 105.5t-57.5 31.5q-45 0 -109 -28l-4 -2q-8 0 -11 10zM309 145q55 -63 121 -96t158 -33q108 0 178 95.5t70 265.5q0 172 -76 267t-193 95q-72 0 -133 -34.5t-125 -98.5v-461z" />
<glyph unicode="q" horiz-adv-x="999" d="M74 350q0 162 66.5 266.5t168 152.5t211.5 48q137 0 271 -72l137 50l4 2q6 0 8 -9.5t-4 -11.5q-49 -29 -73.5 -68.5t-24.5 -103.5v-1001q0 -61 10 -90t36.5 -40.5t84.5 -11.5q4 0 4 -12t-4 -12q-51 0 -80 2l-111 2l-121 -2q-35 -2 -96 -2q-4 0 -4 12t4 12 q70 0 103.5 11.5t46 40t12.5 90.5v544q-72 -78 -151.5 -126t-178.5 -48q-86 0 -159.5 45t-116.5 130t-43 202zM209 418q0 -178 69.5 -277.5t184.5 -99.5q69 0 131.5 38t128.5 103v369q0 104 -75 165.5t-191 61.5q-248 0 -248 -360z" />
<glyph unicode="r" horiz-adv-x="745" d="M21.5 681q-3.5 9 5.5 13l237 113q4 2 12 2q18 0 39 -47t21 -121v-2q84 98 133 134t94 36t86 -24.5t41 -59.5q0 -27 -17.5 -45t-49.5 -18q-18 0 -31.5 7t-32.5 21q-18 16 -34.5 24.5t-39.5 8.5q-27 0 -56.5 -21.5t-92.5 -95.5v-440q0 -61 15.5 -90t56.5 -40t127 -11 q8 0 8 -12.5t-8 -12.5q-66 0 -105 2l-151 2l-113 -2q-27 -2 -74 -2q-6 0 -6 12.5t6 12.5q55 0 82 11t36 39.5t9 90.5v405q0 70 -16.5 100.5t-55.5 30.5q-33 0 -110 -30h-4q-8 0 -11.5 9z" />
<glyph unicode="s" horiz-adv-x="692" d="M98 223q0 6 11.5 7t13.5 -5q39 -102 101.5 -155.5t144.5 -53.5q63 0 99 30t36 89q0 57 -25.5 97t-62.5 63.5t-101 56.5q-68 33 -107.5 59.5t-67 69.5t-27.5 107q0 111 83 169t195 58q82 0 150 -31q12 -4 15 -9t3 -13q0 -41 -2 -64l-2 -86q0 -4 -12.5 -4t-12.5 4 q0 43 -32.5 81t-81.5 60.5t-99 22.5q-53 0 -82.5 -27.5t-29.5 -82.5q0 -72 47 -114t139 -89q72 -37 112 -63.5t68.5 -69.5t28.5 -105q0 -104 -78 -176t-211 -72q-109 0 -196 62q-12 8 -13 24z" />
<glyph unicode="t" horiz-adv-x="692" d="M76 750.5q0 13.5 8 13.5q82 2 133 44t59 112q0 6 17 6q14 0 14 -6v-152q102 2 285 20q4 0 9 -15t5 -34q0 -16 -7 -33.5t-15 -15.5q-113 29 -277 33v-510q0 -84 42 -125t120 -41q94 0 164 57l4 2q8 0 12 -9t-2 -13q-76 -59 -136 -84t-126 -25q-86 0 -141.5 39t-55.5 129 v482q0 53 -7 75.5t-27.5 29.5t-69.5 7q-8 0 -8 13.5z" />
<glyph unicode="u" horiz-adv-x="1009" d="M10.5 691q-4.5 11 3.5 14l228 102l8 2q6 0 13 -5t7 -11v-490q0 -237 171 -237h1q66 0 133.5 33.5t122.5 93.5v356q0 82 -13 116.5t-48 34.5q-29 0 -70 -20h-2q-8 0 -11 11t5 14l227 102l7 2q6 0 13 -5t7 -11v-574q0 -70 16.5 -100.5t55.5 -30.5q35 0 108 29h4 q8 0 11.5 -9.5t-4.5 -13.5l-240 -112l-8 -2q-20 0 -39 47t-19 123v8q-80 -90 -159.5 -132t-165.5 -42q-102 0 -159.5 64.5t-57.5 187.5v313q0 80 -14.5 115.5t-47.5 35.5q-29 0 -69 -20h-2q-8 0 -12.5 11z" />
<glyph unicode="v" horiz-adv-x="888" d="M-6 778.5q0 12.5 6 12.5q41 0 63 -3l78 -2l133 2q31 2 82 3q6 0 6 -12.5t-6 -12.5q-123 0 -123 -49q0 -14 9 -31l250 -528l192 469q14 39 14 59q0 41 -38.5 60.5t-122.5 19.5q-4 0 -4.5 12.5t4.5 12.5q55 0 84 -3l122 -2l72 2q20 2 68 3q4 0 4 -12.5t-4 -12.5 q-53 0 -89 -33t-69 -117l-256 -614q-4 -10 -23 -10q-18 0 -22 10l-287 619q-41 88 -68.5 116.5t-68.5 28.5q-6 0 -6 12.5z" />
<glyph unicode="w" horiz-adv-x="1370" d="M-6 778.5q0 12.5 6 12.5q41 0 63 -3l78 -2l123 2q31 2 88 3q6 0 6 -12.5t-6 -12.5q-57 0 -88 -11.5t-31 -37.5q0 -14 9 -31l213 -512l213 617q6 8 24 8q20 0 23 -8l276 -631l172 467q12 35 13 59q0 41 -38 60.5t-122 19.5q-4 0 -4 12.5t4 12.5q55 0 84 -3l123 -2l73 2 q20 2 64 3q6 0 6 -12.5t-6 -12.5q-51 0 -88 -33t-68 -117l-231 -614q0 -8 -23 -8q-18 0 -24 8l-273 619l-215 -619q-2 -8 -22 -8q-18 0 -25 8l-254 619q-37 88 -66.5 116.5t-70.5 28.5q-6 0 -6 12.5z" />
<glyph unicode="x" horiz-adv-x="899" d="M23 12.5q0 12.5 4 12.5q53 0 115.5 38.5t115.5 112.5l139 195l-166 250q-49 76 -102 110.5t-96 34.5q-4 0 -4 12.5t4 12.5q43 0 63 -3l64 -2l131 2q29 2 80 3q4 0 4 -12.5t-4 -12.5q-35 0 -51.5 -5t-16.5 -20q0 -14 27 -55l141 -213l104 154q43 63 43 92q0 25 -27.5 36 t-90.5 11q-4 0 -4 12.5t4 12.5q55 0 84 -3l123 -2l73 2q20 2 66 3q4 0 4 -12.5t-4 -12.5q-55 0 -115.5 -38t-116.5 -114l-125 -170l183 -274q51 -78 105 -111.5t97 -33.5q5 0 5 -12.5t-5 -12.5l-65 2q-23 2 -66 2l-131 -2q-31 -2 -82 -2q-6 0 -6 12.5t6 12.5q37 0 52.5 5 t15.5 19q0 18 -25 55l-155 236l-123 -176q-41 -61 -41 -90q0 -25 27.5 -37t89.5 -12q6 0 6 -12.5t-6 -12.5q-55 0 -82 2l-123 2l-74 -2q-20 -2 -65 -2q-4 0 -4 12.5z" />
<glyph unicode="y" horiz-adv-x="993" d="M31 690q-4 10 4 15l227 102l8 2q6 0 13.5 -5t7.5 -11v-490q0 -121 43 -178t129 -57q66 0 134.5 32.5t123.5 92.5v356q0 80 -14.5 115.5t-47.5 35.5q-27 0 -67 -20h-2q-8 0 -13.5 10t3.5 15l227 102l10 2q6 0 12.5 -5t6.5 -11v-936q0 -195 -106.5 -313.5t-303.5 -118.5 q-113 0 -190.5 45t-77.5 112q0 31 18.5 47.5t46.5 16.5q27 0 45.5 -15.5t42.5 -50.5q39 -53 81 -82.5t122 -29.5q94 0 150.5 73.5t56.5 265.5v351q-80 -90 -161 -132t-167 -42q-104 0 -160.5 64.5t-56.5 187.5v313q0 80 -14.5 115.5t-46.5 35.5q-29 0 -70 -20h-2 q-8 0 -12 10z" />
<glyph unicode="z" horiz-adv-x="829" d="M86 25l489 725q8 14 -10 14q-158 0 -246 -14.5t-137 -52.5t-73 -115q0 -4 -9 -4q-6 0 -11 3t-3 5l70 264q2 4 13 3t9 -5q-2 -6 -2 -17q0 -25 22.5 -32.5t77.5 -7.5h435q8 0 13 -8.5t3 -16.5l-483 -721q-8 -14 10 -14q201 0 286 12t123.5 52t69.5 138q2 4 12.5 4.5 t10.5 -4.5l-4 -210q0 -8 -5.5 -15.5t-13.5 -7.5h-633q-8 0 -13 8t-1 17z" />
<glyph unicode="{" horiz-adv-x="591" d="M59 623.5q0 13.5 7 13.5q98 12 129.5 132t31.5 314q0 176 22.5 259t82 113t180.5 30q8 0 8 -12.5t-8 -12.5q-74 0 -114 -56t-42 -161q-4 -250 -16 -352.5t-56 -160.5t-153 -105q106 -49 151.5 -109.5t57.5 -163t16 -350.5q2 -104 42 -160.5t114 -56.5q8 0 8 -12.5 t-8 -12.5q-123 0 -181.5 30t-81 114t-22.5 260q0 197 -31.5 315.5t-129.5 130.5q-7 0 -7 13.5z" />
<glyph unicode="|" horiz-adv-x="344" d="M135 -315v1812q0 14 41 14q39 0 39 -14v-1812q0 -8 -12.5 -12.5t-26.5 -4.5q-16 0 -28.5 4t-12.5 13z" />
<glyph unicode="}" horiz-adv-x="579" d="M59.5 -227.5q-0.5 12.5 8.5 12.5q74 0 113.5 56.5t41.5 160.5q4 248 16.5 350.5t57.5 162.5t152 110q-109 47 -153 105t-56.5 160.5t-16.5 352.5q-2 104 -42 160.5t-113 56.5q-8 0 -8.5 12.5t8.5 12.5q121 0 180 -30t81.5 -112.5t22.5 -259.5q0 -195 32 -314.5 t130 -131.5q6 0 6 -13.5t-6 -13.5q-98 -12 -130 -131t-32 -315q0 -176 -22.5 -260t-81 -114t-180.5 -30q-8 0 -8.5 12.5z" />
<glyph unicode="~" horiz-adv-x="907" d="M98 324q117 156 232 155q47 0 139 -35q55 -18 93 -28t79 -10q57 0 89 19t67 58l4 2q4 0 8 -6t2 -10q-72 -92 -118 -124t-99 -32q-39 0 -74 9.5t-86 27.5q-53 18 -90 27.5t-78 9.5q-49 0 -74.5 -13.5t-47 -35t-31.5 -29.5h-2q-4 0 -9.5 5t-3.5 10z" />
<glyph unicode="&#xa2;" horiz-adv-x="1101" d="M74 483q0 129 63.5 236.5t176 176.5t251.5 83v170q0 8 7.5 12t15.5 4q10 0 16 -4t6 -12v-166h27q78 0 167 -16.5t144 -42.5q14 -6 18.5 -12.5t6.5 -22.5l20 -211q0 -6 -11 -8t-13 6q-37 137 -129 204.5t-230 71.5v-946q12 -2 39 -2q258 0 338 283q0 6 10 6q4 0 9.5 -3 t5.5 -5l-27 -217q-2 -16 -6 -22.5t-23 -14.5q-158 -55 -327 -56h-19v-184q0 -14 -22 -14q-23 0 -23 14v186q-172 14 -282.5 93.5t-159.5 190t-49 222.5zM221 514q0 -115 39 -221.5t117 -182t188 -98.5v938q-100 -6 -178 -64.5t-122 -155.5t-44 -216z" />
<glyph unicode="&#xa3;" horiz-adv-x="1030" d="M86 11.5q0 11.5 4 13.5q104 43 142 103t38 185q0 80 -10 144.5t-29 136.5h-122q-6 0 -10.5 7t-4.5 15q0 10 4 16.5t11 6.5h110q-37 129 -37 235q0 145 55.5 241.5t146.5 142t202 45.5q113 0 231 -46q31 -12 31 -34l18 -222q0 -8 -11 -8t-13 8q-18 104 -90 187.5 t-191 83.5q-131 0 -190.5 -97.5t-59.5 -238.5q0 -68 12.5 -126t27 -107.5t18.5 -63.5h290q8 0 12.5 -6t4.5 -17q0 -8 -4 -15t-13 -7h-278q27 -92 27 -184q0 -121 -37 -188.5t-107 -135.5h395q88 0 133.5 15.5t70 52t40.5 112.5q0 4 11.5 3t11.5 -5q-18 -129 -19 -233 q0 -16 -7 -23.5t-23 -7.5h-787q-4 0 -4 11.5z" />
<glyph unicode="&#xa5;" horiz-adv-x="1247" d="M-8 1267.5q0 12.5 6 12.5q25 0 74 -4l71 -2q70 0 176 4l111 2q4 0 4 -12.5t-4 -12.5q-106 0 -106 -43q0 -23 20 -51l330 -483l250 383q45 72 45 121q0 74 -111 73q-4 0 -4 12.5t4 12.5l96 -2q78 -4 144 -4q35 0 84 4l75 2q5 0 5 -12.5t-5 -12.5q-74 0 -149.5 -54 t-134.5 -148l-275 -422v-25h215q14 0 15 -22q0 -23 -15 -23h-569q-6 0 -10 7t-4 16q0 10 4 16t10 6h215l-334 490q-59 90 -109 124.5t-118 34.5q-6 0 -6 12.5zM330 436q0 10 4 16.5t10 6.5h569q15 0 15 -23t-15 -22h-215v-248q0 -63 12.5 -92t48.5 -39t113 -10 q6 0 6.5 -12.5t-6.5 -12.5q-63 0 -98 2l-143 2l-142 -2q-37 -2 -100 -2q-6 0 -6 12.5t6 12.5q78 0 114 10t49 39.5t13 91.5v248h-221q-6 0 -10 7t-4 15z" />
<glyph unicode="&#xa8;" horiz-adv-x="659" d="M63 1063q0 39 24 61.5t65 22.5t62.5 -21.5t21.5 -62.5q0 -39 -21.5 -61.5t-62.5 -22.5t-65 22.5t-24 61.5zM422 1063q0 39 23.5 61.5t64.5 22.5t63.5 -21.5t22.5 -62.5t-22.5 -62.5t-63.5 -21.5t-64.5 22.5t-23.5 61.5z" />
<glyph unicode="&#xa9;" horiz-adv-x="1472" d="M152 389q0 182 92 325.5t244.5 224.5t326.5 81q154 0 269.5 -63.5t179 -170t63.5 -233.5q0 -125 -66.5 -234.5t-182 -174t-255.5 -64.5q-125 0 -206.5 46t-120.5 118.5t-39 154.5q0 104 51 183.5t133 121t168 41.5q74 0 133 -28.5t62 -73.5q0 -25 -16.5 -42t-41.5 -17 q-43 0 -74 53q-25 37 -49 55.5t-69 18.5q-90 0 -129 -66.5t-39 -191.5q0 -141 72.5 -230.5t232.5 -89.5q94 0 175 40t131 121t50 200q0 131 -65.5 240.5t-179 174t-250.5 64.5q-160 0 -275 -72t-173 -193.5t-58 -271.5q0 -186 86 -318t217 -197.5t264 -65.5q119 0 208 18 t196 76q4 2 9 -4t-1 -11q-111 -82 -222.5 -112.5t-246.5 -30.5q-146 0 -285 68.5t-229 204t-90 325.5z" />
<glyph unicode="&#xab;" horiz-adv-x="933" d="M113 412q0 14 8 22l362 305q0 2 4 2t8.5 -5t2.5 -7l-250 -317l250 -318q2 -4 -5.5 -11t-9.5 -1l-362 305q-8 8 -8 25zM424 412q0 14 8 22l363 305q4 6 11 0t3 -10l-250 -317l250 -318v-2q0 -6 -5 -10t-9 0l-363 305q-8 8 -8 25z" />
<glyph unicode="&#xad;" horiz-adv-x="661" d="M55 385q0 39 6 39l535 96q4 2 7 -11t3 -30q0 -41 -10 -45l-530 -96q-5 -2 -8 14.5t-3 32.5z" />
<glyph unicode="&#xae;" horiz-adv-x="1536" d="M152 877q0 174 91 313t242.5 217t323.5 78t304 -76t204 -204t72 -281q0 -176 -86 -323.5t-232.5 -232.5t-318.5 -85q-150 0 -288 70.5t-225 205.5t-87 318zM240 930q0 -182 84 -316.5t215 -204t270 -69.5q152 0 265.5 64.5t174 183.5t60.5 276q0 162 -74 293t-203 206 t-289 75t-274.5 -70t-171.5 -185.5t-57 -252.5zM483 568.5q0 11.5 4 11.5q47 0 67.5 6t28 24.5t7.5 61.5v440q0 57 -18.5 73.5t-84.5 16.5q-4 0 -4 12.5t4 12.5l146 -2q25 0 90 4q57 4 78 4q186 0 186 -135q0 -123 -113 -180q72 -141 111 -205t78 -98.5t92 -41.5q4 0 4 -8 t-4 -8h-162q-20 0 -68 81t-137 253q-45 -12 -112 -8v-211q0 -43 7 -61.5t28.5 -24.5t68.5 -6q4 0 4 -11.5t-4 -11.5l-147 2l-146 -2q-4 0 -4 11.5zM676 918q41 -7 72 -7q74 0 110.5 33t36.5 107q0 78 -34 116.5t-95 38.5q-39 0 -56.5 -5t-25.5 -25.5t-8 -67.5v-190z" />
<glyph unicode="&#xb4;" horiz-adv-x="434" d="M119 975l106 491q2 8 42 19.5t67 11.5q18 0 16 -8l-209 -518q0 -4 -8 -4q-6 0 -11 3t-3 5z" />
<glyph unicode="&#xb8;" horiz-adv-x="475" d="M63 -485q0 27 18.5 44t43.5 17q23 0 35 -11t24 -34q14 -27 29.5 -40t46.5 -13q70 0 70 78q0 53 -38 95t-138 95q-29 14 -29 27q0 8 10 34q10 27 51 132q4 16 10.5 30.5t10.5 28.5l26 -2q-26 -86 -26 -113q0 -29 17.5 -44t72.5 -48q51 -29 81 -65.5t30 -92.5 q0 -76 -54.5 -136t-158.5 -60q-57 0 -94.5 20.5t-37.5 57.5z" />
<glyph unicode="&#xbb;" horiz-adv-x="933" d="M125 94l250 316l-250 319q-2 4 5 10t9 0l363 -305q10 -10 10 -22q0 -14 -10 -25l-363 -305q0 -2 -4 -2t-8 5t-2 9zM436 94l250 316l-250 319q-2 4 5.5 10t9.5 0l362 -305q10 -10 10 -22q0 -14 -10 -25l-362 -305q0 -2 -5 -2q-4 0 -8 5t-2 9z" />
<glyph unicode="&#x2c6;" horiz-adv-x="536" d="M119 975l139 510q2 10 23 10q23 0 24 -10l137 -510q4 -4 -7 -7t-13 3l-139 336l-142 -336q0 -4 -8 -4q-6 0 -11 3t-3 5z" />
<glyph unicode="&#x2da;" horiz-adv-x="632" d="M121 1120q0 74 62.5 117t138.5 43q74 0 127 -48t53 -116q0 -72 -61.5 -115t-139.5 -43q-82 0 -131 48.5t-49 113.5zM213 1161q0 -70 33 -126t88 -56q74 0 74 100q0 74 -37 126t-90 52q-35 0 -51.5 -23.5t-16.5 -72.5z" />
<glyph unicode="&#x2dc;" horiz-adv-x="786" d="M123 988q-4 5 0 9q35 47 81 86t93 39q29 0 102 -20q94 -29 154 -29q35 0 55.5 14.5t44.5 40.5h2q6 0 11.5 -5t1.5 -9q-53 -74 -88 -100.5t-74 -26.5q-43 0 -125 25q-8 2 -52 14t-91 12q-31 0 -48.5 -10t-31 -24.5t-21.5 -20.5h-4q-6 0 -10 5z" />
<glyph unicode="&#x400;" horiz-adv-x="1099" d="M84 12.5q0 12.5 4 12.5q78 0 114 10t49 39.5t13 91.5v948q0 61 -13 90t-49 40t-114 11q-4 0 -4 12.5t4 12.5h823q18 0 19 -18l4 -252q0 -6 -10.5 -7.5t-12.5 5.5q-6 109 -65.5 169t-157.5 60h-125q-72 0 -105.5 -11.5t-47 -39t-13.5 -82.5v-416h250q98 0 140 33t42 110 q0 4 12.5 4.5t12.5 -4.5l-2 -165q0 -59 2 -91l2 -98q0 -4 -12.5 -4t-12.5 4q0 90 -44 129t-146 39h-244v-471q0 -57 12.5 -84t45 -37t102.5 -10h164q98 0 163.5 69.5t88.5 192.5q0 4 8 4q6 0 11 -2t5 -6q-18 -129 -18 -270q0 -16 -7 -23.5t-26 -7.5h-858q-4 0 -4 12.5z M344 1548q-14 2 15.5 18.5t69.5 30t48 9.5l60 -37q203 -121 272 -158q4 -2 4 -8t-4 -10t-8 -2q-231 102 -457 157z" />
<glyph unicode="&#x401;" horiz-adv-x="1099" d="M84 12.5q0 12.5 4 12.5q78 0 114 10t49 39.5t13 91.5v948q0 61 -13 90t-49 40t-114 11q-4 0 -4 12.5t4 12.5h823q18 0 19 -18l4 -252q0 -6 -10.5 -7.5t-12.5 5.5q-6 109 -65.5 169t-157.5 60h-125q-72 0 -105.5 -11.5t-47 -39t-13.5 -82.5v-416h250q98 0 140 33t42 110 q0 4 12.5 4.5t12.5 -4.5l-2 -165q0 -59 2 -91l2 -98q0 -4 -12.5 -4t-12.5 4q0 90 -44 129t-146 39h-244v-471q0 -57 12.5 -84t45 -37t102.5 -10h164q98 0 163.5 69.5t88.5 192.5q0 4 8 4q6 0 11 -2t5 -6q-18 -129 -18 -270q0 -16 -7 -23.5t-26 -7.5h-858q-4 0 -4 12.5z M332 1552q0 39 23.5 61.5t64.5 22.5t62.5 -21.5t21.5 -62.5q0 -39 -21.5 -61.5t-62.5 -22.5t-64.5 22.5t-23.5 61.5zM690 1552q0 39 23.5 61.5t64.5 22.5t63.5 -21.5t22.5 -62.5t-22.5 -62.5t-63.5 -21.5t-64.5 22.5t-23.5 61.5z" />
<glyph unicode="&#x402;" horiz-adv-x="1509" d="M78 954q8 74 18 193t10 178q0 10 11.5 10t11.5 -10q0 -45 111 -45q168 -6 340 -6q117 0 247 4l129 2q72 0 106 10t44 41q2 8 13 8t11 -8q-6 -57 -13 -179t-7 -198q0 -4 -11.5 -4t-11.5 4q-6 160 -65 224.5t-195 64.5q-84 0 -118.5 -8t-47 -34.5t-12.5 -90.5v-465 q94 82 186.5 123t192.5 41q111 0 197 -50t134 -141.5t48 -205.5q0 -109 -43 -209.5t-125 -164t-192 -63.5q-84 0 -131.5 35t-47.5 88q0 31 19.5 51.5t54.5 20.5q55 0 80 -70q14 -49 30.5 -66.5t53.5 -17.5q84 0 125 83t41 218q0 186 -88 300t-234 114q-156 0 -301 -123v-442 q0 -84 34 -112.5t108 -28.5q6 0 6 -12.5t-6 -12.5q-51 0 -86 2l-125 2l-154 -2q-41 -2 -113 -2q-4 0 -4 12.5t4 12.5q88 0 129 10t56.5 39.5t15.5 91.5v948q0 63 -12.5 89t-43 33t-108.5 7q-113 0 -169 -65.5t-81 -223.5q0 -4 -11 -4t-11 4z" />
<glyph unicode="&#x403;" horiz-adv-x="1050" d="M82 12.5q0 12.5 4 12.5q78 0 115 10t50 39.5t13 91.5v948q0 61 -13 90t-49 40t-114 11q-4 0 -4 12.5t4 12.5h866q20 0 21 -18l4 -269q0 -6 -12.5 -6t-12.5 6q-8 115 -69.5 179.5t-159.5 64.5h-162q-70 0 -104.5 -10t-48 -37t-13.5 -78v-938q0 -66 17.5 -95.5t69 -41.5 t161.5 -12q6 0 6 -12.5t-6 -12.5q-84 0 -131 2l-184 2l-140 -2q-37 -2 -104 -2q-4 0 -4 12.5zM337 1398q-3 9 3 13q88 45 211 121q82 49 123 72q8 6 48 -7.5t69.5 -30t13.5 -18.5q-242 -61 -455 -159h-2q-8 0 -11 9z" />
<glyph unicode="&#x404;" horiz-adv-x="1370" d="M100 651q0 188 104.5 338t276.5 232t369 82q98 0 198.5 -18.5t159.5 -53.5q18 -8 23.5 -17.5t7.5 -31.5l23 -230q0 -6 -10.5 -7t-12.5 5q-45 158 -167 232.5t-302 74.5q-156 0 -272.5 -68.5t-180 -193.5t-63.5 -288v-41h358q141 0 199.5 42t58.5 148q0 6 12.5 6t12.5 -6 l-2 -207q0 -63 2 -94l2 -100q0 -6 -11.5 -6t-11.5 6q-4 84 -66.5 126t-201.5 42h-348q16 -172 98 -314.5t208 -223.5t272 -81q147 0 255.5 81t165.5 249q1 6 9 6q6 0 11 -2t5 -6l-29 -232q-4 -25 -9 -32t-23 -15q-184 -78 -390 -78q-246 0 -410.5 99.5t-242.5 253t-78 323.5 z" />
<glyph unicode="&#x405;" horiz-adv-x="1005" d="M139 365q-2 8 9.5 10t13.5 -6q33 -147 122 -254t236 -107q102 0 173 56.5t71 179.5q0 92 -41 159.5t-99.5 111.5t-158.5 103q-98 59 -154.5 102.5t-95.5 109t-39 153.5q0 102 54.5 175t141.5 109t185 36q121 0 240 -50q31 -10 30 -34l15 -236q0 -8 -10.5 -8t-12.5 8 q-16 106 -88 197.5t-207 91.5q-115 0 -171 -66.5t-56 -165.5q0 -79 39 -138.5t94 -99.5t156 -102q106 -63 165.5 -106t101.5 -109.5t42 -158.5q0 -98 -49 -178t-144.5 -126.5t-228.5 -46.5q-158 0 -289 72q-10 6 -13 14.5t-5 24.5z" />
<glyph unicode="&#x406;" horiz-adv-x="679" d="M90 12.5q0 12.5 6 12.5q78 0 114 10t49 39.5t13 91.5v948q0 61 -13 90t-49 40t-114 11q-6 0 -6 12.5t6 12.5l101 -2q86 -4 141 -4q61 0 147 4l97 2q6 0 6 -12.5t-6 -12.5q-76 0 -112 -12t-49 -42t-13 -91v-944q0 -62 12 -91.5t48 -39.5t114 -10q6 0 6 -12.5t-6 -12.5 q-61 0 -99 2l-145 2l-141 -2q-37 -2 -101 -2q-6 0 -6 12.5z" />
<glyph unicode="&#x407;" horiz-adv-x="679" d="M90 12.5q0 12.5 6 12.5q78 0 114 10t49 39.5t13 91.5v948q0 61 -13 90t-49 40t-114 11q-6 0 -6 12.5t6 12.5l101 -2q86 -4 141 -4q61 0 147 4l97 2q6 0 6 -12.5t-6 -12.5q-76 0 -112 -12t-49 -42t-13 -91v-944q0 -62 12 -91.5t48 -39.5t114 -10q6 0 6 -12.5t-6 -12.5 q-61 0 -99 2l-145 2l-141 -2q-37 -2 -101 -2q-6 0 -6 12.5zM106 1552q0 39 24 61.5t65 22.5t63.5 -22.5t22.5 -61.5t-22.5 -61.5t-63.5 -22.5t-65 22.5t-24 61.5zM399 1552q0 39 23.5 61.5t64.5 22.5t62.5 -21.5t21.5 -62.5q0 -39 -21.5 -61.5t-62.5 -22.5t-64.5 22.5 t-23.5 61.5z" />
<glyph unicode="&#x408;" horiz-adv-x="641" d="M72 -554q-4 9 2 13q111 74 153.5 224.5t42.5 398.5v1032q0 61 -13 90t-49 40t-114 11q-6 0 -6 12.5t6 12.5l109 -2q86 -4 133 -4q53 0 131 4l90 2q4 0 4 -12.5t-4 -12.5q-68 0 -98.5 -12t-41.5 -42t-11 -91v-973q0 -213 -29 -342t-97.5 -211t-195.5 -147h-2q-6 0 -10 9z " />
<glyph unicode="&#x409;" horiz-adv-x="1835" d="M16 51q0 66 88 66h43q117 0 202 150.5t129 373.5t44 432q0 94 -41 138t-162 44q-6 0 -6 12.5t6 12.5h979q6 0 6.5 -12.5t-6.5 -12.5q-78 0 -114.5 -11t-50 -39.5t-13.5 -90.5v-401q96 10 166 10q475 0 475 -338q0 -115 -52 -205t-146.5 -139t-214.5 -49q-55 0 -129 6 q-31 2 -74 4t-92 2l-142 -2q-35 -2 -98 -2q-6 0 -6 12.5t6 12.5q78 0 115 10t49 39.5t12 91.5v940q0 70 -8 92.5t-37 28.5t-117 6h-104q-61 0 -92 -10.5t-45.5 -44t-14.5 -105.5q0 -209 -42 -463t-143 -444.5t-269 -190.5q-45 0 -73 18.5t-28 57.5zM1120 166 q0 -72 37 -104.5t150 -32.5q163 0 237 74.5t74 228.5q0 188 -98.5 269t-282.5 81q-61 0 -117 -8v-508z" />
<glyph unicode="&#x40a;" horiz-adv-x="2017" d="M68 12.5q0 12.5 4 12.5q78 0 115.5 10t51 39.5t13.5 91.5v948q0 61 -13.5 90t-50 40t-114.5 11q-4 0 -4 12.5t4 12.5l104 -2q86 -4 137 -4q59 0 150 4l98 2q4 0 4 -12.5t-4 -12.5q-78 0 -115.5 -12t-51 -42t-13.5 -91v-422h786v422q0 61 -13 91t-50 42t-117 12 q-6 0 -6 12.5t6 12.5l98 -2q90 -4 150 -4q55 0 141 4l101 2q6 0 6 -12.5t-6 -12.5q-78 0 -115 -11t-50.5 -39.5t-13.5 -90.5v-424q102 10 207 10q205 0 322 -71.5t117 -243.5q0 -115 -52.5 -205t-147.5 -139t-216 -49q-51 0 -129 6q-29 2 -71 4t-93 2l-145 -2q-35 -2 -99 -2 q-6 0 -6 12.5t6 12.5q78 0 115 10t49 39.5t12 91.5v479h-786v-479q0 -61 13.5 -91t50 -40t116.5 -10q4 0 4 -12.5t-4 -12.5q-63 0 -100 2l-148 2l-141 -2q-37 -2 -102 -2q-4 0 -4 12.5zM1300 166q0 -72 38 -104.5t151 -32.5q164 0 237.5 74.5t73.5 230.5q0 178 -87 251.5 t-255 73.5q-59 0 -158 -8v-485z" />
<glyph unicode="&#x40b;" horiz-adv-x="1474" d="M78 954q8 74 18 193t10 178q0 10 11.5 10t11.5 -10q0 -45 111 -45q168 -6 340 -6q117 0 247 4l129 2q72 0 106 10t44 41q2 8 13 8t11 -8q-6 -57 -13 -179t-7 -198q0 -4 -11.5 -4t-11.5 4q-6 160 -65 224.5t-195 64.5q-84 0 -118.5 -8t-47 -34.5t-12.5 -90.5v-467 q94 82 191.5 124t187.5 42q125 0 207 -79t82 -238v-326q0 -61 10 -91t38 -40t87 -10q4 0 4 -12.5t-4 -12.5q-45 0 -72 2l-127 2l-118 -2q-31 -2 -80 -2q-4 0 -4 12.5t4 12.5q57 0 82.5 10t36 39.5t10.5 91.5v262q0 170 -60.5 236.5t-173.5 66.5q-70 0 -148.5 -31.5 t-152.5 -91.5v-442q0 -63 10.5 -92t41 -39t100.5 -10q4 0 4 -12.5t-4 -12.5q-57 0 -90 2l-131 2l-154 -2q-41 -2 -113 -2q-4 0 -4 12.5t4 12.5q88 0 129 10t56.5 39.5t15.5 91.5v948q0 63 -12.5 89t-43 33t-108.5 7q-113 0 -169 -65.5t-81 -223.5q0 -4 -11 -4t-11 4z" />
<glyph unicode="&#x40c;" horiz-adv-x="1345" d="M66 12.5q0 12.5 4 12.5q78 0 114.5 10t50 39.5t13.5 91.5v948q0 61 -12.5 90t-49 40t-114.5 11q-4 0 -4 12.5t4 12.5l100 -2q86 -4 139 -4q59 0 150 4l98 2q4 0 4 -12.5t-4 -12.5q-78 0 -114.5 -12t-50 -42t-13.5 -91v-432q111 4 137 4h39l248 346q92 127 92 176 q0 27 -25.5 39t-78.5 12q-4 0 -4.5 12.5t4.5 12.5l88 -2q78 -4 145 -4q70 0 143 4l74 2q6 0 6 -12.5t-6 -12.5q-106 0 -188 -52t-176 -177l-275 -350q49 -8 85 -33t73 -69t108 -146l31 -43q96 -135 155.5 -207t125 -111.5t145.5 -41.5q4 0 4 -12.5t-4 -12.5h-258 q-29 0 -50.5 15.5t-70.5 81t-176 247.5q-100 143 -145 198.5t-92.5 79t-126.5 23.5q-18 0 -27 -2v-477q0 -61 13.5 -91t49 -40t115.5 -10q4 0 4 -12.5t-4 -12.5q-63 0 -100 2l-148 2l-139 -2q-37 -2 -102 -2q-4 0 -4 12.5zM468 1398q-3 9 3 13q88 45 211 121q82 49 123 72 q8 6 48 -7.5t69.5 -30t13.5 -18.5q-242 -61 -455 -159h-2q-8 0 -11 9z" />
<glyph unicode="&#x40d;" horiz-adv-x="1529" d="M68 12.5q0 12.5 4 12.5q78 0 115.5 10t51 39.5t13.5 91.5v948q0 61 -13.5 90t-50 40t-114.5 11q-4 0 -4 12.5t4 12.5l104 -2q86 -4 137 -4q59 0 150 4l98 2q4 0 4 -12.5t-4 -12.5q-78 0 -115.5 -12t-51 -42t-13.5 -91v-844l762 811v33q0 61 -13.5 91t-50.5 42t-116 12 q-4 0 -4 12.5t4 12.5l98 -2q90 -4 149 -4q51 0 142 4l102 2q4 0 4 -12.5t-4 -12.5q-78 0 -114.5 -11t-50 -39.5t-13.5 -90.5v-948q0 -61 13.5 -91t50 -40t114.5 -10q4 0 4 -12.5t-4 -12.5q-66 0 -102 2l-142 2l-149 -2q-37 -2 -98 -2q-4 0 -4 12.5t4 12.5q80 0 116.5 10 t50 39.5t13.5 91.5v846l-762 -815v-31q0 -61 13.5 -91t50 -40t116.5 -10q4 0 4 -12.5t-4 -12.5q-63 0 -100 2l-148 2l-141 -2q-37 -2 -102 -2q-4 0 -4 12.5zM512 1548q-14 2 15.5 18.5t69.5 30t48 9.5l60 -37q203 -121 272 -158q4 -2 4 -8t-4 -10t-8 -2q-231 102 -457 157z " />
<glyph unicode="&#x40e;" horiz-adv-x="1251" d="M16 1267.5q0 12.5 4 12.5l82 -2q61 -4 105 -4q76 0 162 4l82 2q6 0 6 -12.5t-6 -12.5q-133 0 -134 -67q0 -23 19 -58l381 -700l313 684q16 39 17 64q0 41 -39 59t-121 18q-6 0 -6 12.5t6 12.5l84 -2q70 -4 127 -4q35 0 84 4l80 2q4 0 4 -12.5t-4 -12.5 q-53 0 -102.5 -39.5t-82.5 -111.5l-456 -989q-33 -70 -77 -105t-110 -35q-59 0 -102 28t-43 77q0 35 23.5 59.5t62.5 24.5q35 0 53 -19.5t33 -52.5q10 -23 19 -34t24 -11q41 0 74 80l69 154l-448 829q-45 82 -81 113.5t-98 31.5q-4 0 -4 12.5zM379 1565q0 29 15.5 45 t41.5 16q39 0 54.5 -23.5t29.5 -74.5q39 -125 139 -125q57 0 94.5 35t51.5 90q14 49 30.5 73.5t53.5 24.5q57 0 57 -63q0 -47 -41 -90t-106.5 -69t-136.5 -26q-72 0 -137.5 27t-105.5 70t-40 90z" />
<glyph unicode="&#x40f;" horiz-adv-x="1482" d="M68 12.5q0 12.5 4 12.5q78 0 115.5 10t51 39.5t13.5 91.5v948q0 61 -13.5 90t-51 40t-115.5 11q-4 0 -4 12.5t4 12.5l102 -2q86 -4 139 -4q57 0 148 4l102 2q4 0 4 -12.5t-4 -12.5q-80 0 -116.5 -11t-50 -39.5t-13.5 -90.5v-944q0 -70 8 -92.5t37 -28.5t117 -6h383 q92 0 122.5 6t39 29.5t8.5 91.5v944q0 61 -13.5 90t-50.5 40t-116 11q-6 0 -6.5 12.5t6.5 12.5l102 -2q90 -4 145 -4t142 4l102 2q4 0 4 -12.5t-4 -12.5q-78 0 -116 -11t-51 -39.5t-13 -90.5v-948q0 -66 12 -93.5t48 -37.5t118 -10q6 0 6 -12.5t-6 -12.5l-496 4 q-53 0 -86.5 -29.5t-53 -113.5t-19.5 -244q0 -10 -12.5 -10t-12.5 10q0 160 -19.5 244t-54.5 113.5t-90 29.5l-491 -4q-4 0 -4 12.5z" />
<glyph unicode="&#x410;" horiz-adv-x="1437" d="M-8 12.5q0 12.5 10 12.5q57 0 97 21.5t76 75.5t79 157l432 1019q4 6 14.5 6.5t12.5 -6.5l483 -1017q70 -152 119 -204t117 -52q8 0 8 -12.5t-8 -12.5q-39 0 -121 4t-119 4q-45 0 -115 -4q-66 -4 -100 -4q-8 0 -8 12.5t8 12.5q76 0 110.5 14t34.5 49q0 29 -26 88l-236 502 h-387l-176 -418q-29 -70 -29 -115q0 -121 201 -120q10 0 10 -12.5t-10 -12.5q-37 0 -107 4q-78 4 -135 4q-53 0 -123 -4q-61 -4 -102 -4q-10 0 -10 12.5zM492 721h348l-185 389z" />
<glyph unicode="&#x411;" horiz-adv-x="1142" d="M84 12.5q0 12.5 4 12.5q78 0 115 11t51 39.5t14 90.5v948q0 61 -13 90t-49 40t-114 11q-6 0 -6 12.5t6 12.5h807q12 0 16.5 -5t6.5 -20l26 -262q0 -6 -10 -6t-14 6q-20 115 -85 180.5t-159 65.5h-117q-72 0 -105.5 -11t-46 -39t-12.5 -87v-389q96 10 166 10 q475 0 475 -338q0 -115 -52 -205t-146 -139t-215 -49q-55 0 -129 6q-31 2 -74 4t-92 2l-139 -2q-37 -2 -105 -2q-4 0 -4 12.5zM399 166q0 -72 37 -104.5t150 -32.5q164 0 237.5 74.5t73.5 228.5q0 188 -98.5 269t-282.5 81q-61 0 -117 -8v-508z" />
<glyph unicode="&#x412;" horiz-adv-x="1142" d="M84 12.5q0 12.5 4 12.5q78 0 115 11t51 39.5t14 90.5v948q0 61 -13 90t-50 40t-113 11q-6 0 -6 12.5t6 12.5l101 -2q86 -4 139 -4q37 0 68.5 2t54.5 4q63 6 118 6q172 0 258.5 -74.5t86.5 -195.5q0 -98 -63.5 -175t-174.5 -120q162 -12 261 -107.5t99 -236.5 q0 -109 -53 -197t-146 -138t-208 -50q-68 0 -148 6q-29 2 -67.5 4t-85.5 2l-139 -2q-37 -2 -105 -2q-4 0 -4 12.5zM399 166q0 -53 15.5 -82t59.5 -42t128 -13q150 0 222.5 76.5t72.5 220.5q0 156 -91 252t-251 98q-66 2 -156 -4v-506zM399 721l93 -2q150 0 221 76.5 t71 203.5q0 115 -62.5 185.5t-193.5 70.5q-53 0 -78.5 -8t-38 -38.5t-12.5 -98.5v-389z" />
<glyph unicode="&#x413;" horiz-adv-x="1050" d="M82 12.5q0 12.5 4 12.5q78 0 115 10t50 39.5t13 91.5v948q0 61 -13 90t-49 40t-114 11q-4 0 -4 12.5t4 12.5h866q20 0 21 -18l4 -269q0 -6 -12.5 -6t-12.5 6q-8 115 -69.5 179.5t-159.5 64.5h-162q-70 0 -104.5 -10t-48 -37t-13.5 -78v-938q0 -66 17.5 -95.5t69 -41.5 t161.5 -12q6 0 6 -12.5t-6 -12.5q-84 0 -131 2l-184 2l-140 -2q-37 -2 -104 -2q-4 0 -4 12.5z" />
<glyph unicode="&#x414;" horiz-adv-x="1454" d="M55 25q0 16 4 19t19 3h129l512 1251q2 6 13 6.5t13 -6.5l521 -1251h110q17 0 20 -3t3 -19q0 -10 -4 -56q-14 -115 -15 -284q0 -10 -12 -10.5t-12 10.5q0 164 -80 239.5t-262 75.5h-625q-289 0 -289 -315q0 -10 -11 -10.5t-11 10.5q0 166 -17 264q-6 39 -6 76zM260 47h862 l-434 1049z" />
<glyph unicode="&#x415;" horiz-adv-x="1099" d="M84 12.5q0 12.5 4 12.5q78 0 114 10t49 39.5t13 91.5v948q0 61 -13 90t-49 40t-114 11q-4 0 -4 12.5t4 12.5h823q18 0 19 -18l4 -252q0 -6 -10.5 -7.5t-12.5 5.5q-6 109 -65.5 169t-157.5 60h-125q-72 0 -105.5 -11.5t-47 -39t-13.5 -82.5v-416h250q98 0 140 33t42 110 q0 4 12.5 4.5t12.5 -4.5l-2 -165q0 -59 2 -91l2 -98q0 -4 -12.5 -4t-12.5 4q0 90 -44 129t-146 39h-244v-471q0 -57 12.5 -84t45 -37t102.5 -10h164q98 0 163.5 69.5t88.5 192.5q0 4 8 4q6 0 11 -2t5 -6q-18 -129 -18 -270q0 -16 -7 -23.5t-26 -7.5h-858q-4 0 -4 12.5z" />
<glyph unicode="&#x416;" horiz-adv-x="2029" d="M14 12.5q0 12.5 4 12.5q78 2 138.5 39.5t118 108.5t151.5 212q109 166 153 218t101 69l-240 354q-86 127 -169 178t-197 51q-4 0 -4 12.5t4 12.5l76 -2q74 -4 141 -4q68 0 149 4l95 2q6 0 6 -12.5t-6 -12.5q-57 0 -83 -11t-26 -38q0 -25 21.5 -65.5t68.5 -118.5l207 -344 q20 4 72 4l112 -2q12 -2 43 -2v436q0 59 -17.5 89t-58 41t-120.5 11q-4 0 -4 12.5t4 12.5l110 -2q94 -4 148 -4q59 0 157 4l109 2q4 0 4 -12.5t-4 -12.5q-78 0 -120 -12t-59.5 -43t-17.5 -90v-432q127 4 152 4q51 0 72 -2l206 340q47 76 69 119t22 67q0 27 -25 38t-82 11 q-6 0 -6 12.5t6 12.5l94 -2q82 -4 150 -4t141 4l76 2q4 0 4 -12.5t-4 -12.5q-115 0 -198 -51t-169 -178l-241 -354q55 -14 96 -61.5t135 -188.5l25 -37q94 -141 151 -212t117.5 -108.5t138.5 -39.5q4 0 4 -12.5t-4 -12.5h-260q-25 0 -43 15.5t-62 80t-165 248.5 q-94 145 -137.5 201.5t-89.5 78t-128 21.5l-45 -2v-477q0 -63 12.5 -92t48.5 -39t115 -10q6 0 6.5 -12.5t-6.5 -12.5q-63 0 -100 2l-145 2l-140 -2q-37 -2 -102 -2q-4 0 -4 12.5t4 12.5q80 0 117 10t50 39.5t13 91.5v475q-37 4 -51 4q-80 0 -126 -21.5t-90 -76.5t-138 -199 l-41 -65q-76 -119 -123 -187.5t-63.5 -82t-41.5 -13.5h-258q-4 0 -4 12.5z" />
<glyph unicode="&#x417;" horiz-adv-x="1028" d="M117 328q0 6 11 8t13 -4q29 -166 133.5 -245t229.5 -79q137 0 203.5 92.5t66.5 229.5q0 166 -93 251t-269 85q-8 0 -8.5 12t8.5 12q160 0 240.5 78t80.5 213t-67.5 215t-180.5 80q-106 0 -189 -79t-124 -232q0 -4 -8 -4q-4 0 -9 3t-5 5l28 231q4 25 8 33t23 14 q158 55 303 56q174 0 267 -80t93 -199q0 -113 -80.5 -206t-185.5 -130q144 -10 233 -98t89 -223q0 -113 -62.5 -202t-169 -139.5t-235.5 -50.5q-84 0 -165 20.5t-126 57.5q-18 10 -22.5 17.5t-6.5 29.5z" />
<glyph unicode="&#x418;" horiz-adv-x="1574" d="M68 1267.5q0 12.5 4 12.5l106 -2q86 -4 139 -4q59 0 150 4l96 2q6 0 6 -12.5t-6 -12.5q-80 0 -116.5 -11t-49 -39.5t-12.5 -90.5v-956l883 1132q6 6 22 6q31 0 31 -14v-1116q0 -61 13.5 -91t50 -40t114.5 -10q6 0 6 -12.5t-6 -12.5q-63 0 -102 2l-142 2l-149 -2 q-37 -2 -96 -2q-6 0 -6 12.5t6 12.5q80 0 116.5 10t49 38.5t12.5 92.5v944l-881 -1128q-6 -8 -24 -9q-31 0 -31 15v1126q0 61 -13.5 90t-51 40t-115.5 11q-4 0 -4 12.5z" />
<glyph unicode="&#x419;" horiz-adv-x="1574" d="M68 1267.5q0 12.5 4 12.5l106 -2q86 -4 139 -4q59 0 150 4l96 2q6 0 6 -12.5t-6 -12.5q-80 0 -116.5 -11t-49 -39.5t-12.5 -90.5v-956l883 1132q6 6 22 6q31 0 31 -14v-1116q0 -61 13.5 -91t50 -40t114.5 -10q6 0 6 -12.5t-6 -12.5q-63 0 -102 2l-142 2l-149 -2 q-37 -2 -96 -2q-6 0 -6 12.5t6 12.5q80 0 116.5 10t49 38.5t12.5 92.5v944l-881 -1128q-6 -8 -24 -9q-31 0 -31 15v1126q0 61 -13.5 90t-51 40t-115.5 11q-4 0 -4 12.5zM545 1565q0 29 15 45t42 16q39 0 54.5 -23.5t29.5 -74.5q39 -125 139 -125q57 0 94 35t52 90 q14 49 30.5 73.5t53.5 24.5q57 0 57 -63q0 -47 -41 -90t-106.5 -69t-137.5 -26q-71 0 -136.5 27t-105.5 70t-40 90z" />
<glyph unicode="&#x41a;" horiz-adv-x="1345" d="M66 12.5q0 12.5 4 12.5q78 0 114.5 10t50 39.5t13.5 91.5v948q0 61 -12.5 90t-49 40t-114.5 11q-4 0 -4 12.5t4 12.5l100 -2q86 -4 139 -4q59 0 150 4l98 2q4 0 4 -12.5t-4 -12.5q-78 0 -114.5 -12t-50 -42t-13.5 -91v-432q111 4 137 4h39l248 346q92 127 92 176 q0 27 -25.5 39t-78.5 12q-4 0 -4.5 12.5t4.5 12.5l88 -2q78 -4 145 -4q70 0 143 4l74 2q6 0 6 -12.5t-6 -12.5q-106 0 -188 -52t-176 -177l-275 -350q49 -8 85 -33t73 -69t108 -146l31 -43q96 -135 155.5 -207t125 -111.5t145.5 -41.5q4 0 4 -12.5t-4 -12.5h-258 q-29 0 -50.5 15.5t-70.5 81t-176 247.5q-100 143 -145 198.5t-92.5 79t-126.5 23.5q-18 0 -27 -2v-477q0 -61 13.5 -91t49 -40t115.5 -10q4 0 4 -12.5t-4 -12.5q-63 0 -100 2l-148 2l-139 -2q-37 -2 -102 -2q-4 0 -4 12.5z" />
<glyph unicode="&#x41b;" horiz-adv-x="1437" d="M-8 12.5q0 12.5 10 12.5q57 0 97 21.5t76 75.5t79 157l432 1019q4 6 14.5 6.5t12.5 -6.5l483 -1017q70 -152 119 -204t117 -52q8 0 8 -12.5t-8 -12.5q-39 0 -121 4t-119 4q-45 0 -115 -4q-66 -4 -100 -4q-8 0 -8 12.5t8 12.5q76 0 110.5 14t34.5 49q0 29 -26 88l-441 934 l-358 -850q-29 -70 -29 -115q0 -121 201 -120q10 0 10 -12.5t-10 -12.5q-37 0 -107 4q-78 4 -135 4q-53 0 -123 -4q-61 -4 -102 -4q-10 0 -10 12.5z" />
<glyph unicode="&#x41c;" horiz-adv-x="1712" d="M76 12.5q0 12.5 4 12.5q86 0 124 46t40 152l18 951q-61 82 -168 81q-4 0 -4 12.5t4 12.5l76 -2q20 -2 57 -2t62.5 2t40.5 2q27 0 44 -19.5t50 -86.5l457 -963l446 1018q23 51 62 51q10 0 29.5 -2t51.5 -2l97 2q23 2 67 2q6 0 6 -12.5t-6 -12.5q-102 0 -146 -29.5 t-42 -111.5l41 -948q2 -63 15.5 -92t48 -39t112.5 -10q6 0 6 -12.5t-6 -12.5q-63 0 -100 2l-142 2l-131 -2q-33 -2 -92 -2q-4 0 -4 12.5t4 12.5q70 0 103.5 11t45 39.5t7.5 90.5l-37 932l-467 -1084q-4 -8 -16 -8q-10 0 -19 8l-504 1071l-18 -862q-2 -109 37 -153.5 t137 -44.5q4 0 4 -12.5t-4 -12.5q-57 0 -88 2l-111 2l-106 -2q-29 -2 -82 -2q-4 0 -4 12.5z" />
<glyph unicode="&#x41d;" horiz-adv-x="1554" d="M68 12.5q0 12.5 4 12.5q78 0 115.5 10t51 39.5t13.5 91.5v948q0 61 -13.5 90t-50 40t-114.5 11q-4 0 -4 12.5t4 12.5l104 -2q86 -4 137 -4q59 0 150 4l98 2q4 0 4 -12.5t-4 -12.5q-78 0 -115.5 -12t-51 -42t-13.5 -91v-422h786v422q0 61 -13 91t-50 42t-117 12 q-6 0 -6 12.5t6 12.5l98 -2q90 -4 150 -4q55 0 141 4l101 2q6 0 6 -12.5t-6 -12.5q-78 0 -115 -11t-50.5 -39.5t-13.5 -90.5v-948q0 -61 13.5 -91t50.5 -40t115 -10q6 0 6 -12.5t-6 -12.5q-63 0 -101 2l-141 2l-150 -2q-37 -2 -98 -2q-6 0 -6 12.5t6 12.5q80 0 117 10 t50 39.5t13 91.5v479h-786v-479q0 -61 13.5 -91t50 -40t116.5 -10q4 0 4 -12.5t-4 -12.5q-63 0 -100 2l-148 2l-141 -2q-37 -2 -102 -2q-4 0 -4 12.5z" />
<glyph unicode="&#x41e;" d="M100 639q0 211 106.5 361.5t273.5 226.5t341 76q195 0 342.5 -91.5t226 -241t78.5 -317.5q0 -186 -98 -341.5t-263 -246t-357 -90.5q-191 0 -339.5 89.5t-229.5 242t-81 332.5zM256 711q0 -193 71.5 -351.5t200.5 -250t293 -91.5q140 0 251.5 68t176 199t64.5 311 q0 193 -72 342t-202 233t-304 84q-225 0 -352 -145t-127 -399z" />
<glyph unicode="&#x41f;" horiz-adv-x="1517" d="M68 12.5q0 12.5 4 12.5q78 0 115.5 10t51 39.5t13.5 91.5v924q0 63 -13.5 98t-52.5 51t-112 16q-4 0 -4 12.5t4 12.5q70 0 133 -2q266 -4 559 -4q266 0 610 6h68q6 0 6 -12.5t-6 -12.5q-106 0 -142 -36.5t-36 -128.5v-924q0 -61 13 -91t50 -40t115 -10q6 0 6 -12.5 t-6 -12.5q-66 0 -103 2l-139 2l-145 -2q-37 -2 -101 -2q-6 0 -6 12.5t6 12.5q78 0 115 10t49.5 39.5t12.5 91.5v940q0 70 -7.5 92.5t-36 28.5t-116.5 6h-420q-92 0 -123 -6t-39 -29.5t-8 -91.5v-940q0 -61 13.5 -91t49 -40t115.5 -10q4 0 4 -12.5t-4 -12.5q-63 0 -100 2 l-148 2l-139 -2q-37 -2 -102 -2q-4 0 -4 12.5z" />
<glyph unicode="&#x420;" horiz-adv-x="1112" d="M82 12.5q0 12.5 4 12.5q78 0 114 10t48 39.5t12 91.5v948q0 61 -12 90t-48 40t-114 11q-4 0 -4 12.5t4 12.5l102 -2q86 -4 138 -4q51 0 114 6q25 0 78 3t92 3q188 0 302 -84t114 -256q0 -135 -66.5 -227t-171 -137t-215.5 -45q-59 0 -98 10q-6 0 -6 10q0 6 3 12t7 4 q33 -8 74 -8q135 0 228 88t93 254q0 162 -88 255t-225 93q-74 0 -106.5 -8t-47 -37.5t-14.5 -99.5v-936q0 -65 17.5 -95t67.5 -42t159 -12q6 0 6 -12.5t-6 -12.5q-84 0 -131 2l-178 2l-138 -2q-39 -2 -104 -2q-4 0 -4 12.5z" />
<glyph unicode="&#x421;" horiz-adv-x="1370" d="M100 651q0 188 104.5 338t276.5 232t369 82q98 0 198.5 -18.5t159.5 -53.5q18 -8 23.5 -17.5t7.5 -31.5l23 -230q0 -6 -10.5 -7t-12.5 5q-45 158 -167 232.5t-302 74.5q-156 0 -272.5 -68.5t-180 -193.5t-63.5 -288q0 -190 79 -352t213 -256.5t290 -94.5q147 0 255.5 81 t165.5 249q0 6 9 6q6 0 11 -2t5 -6l-29 -232q-4 -25 -9 -32t-23 -15q-184 -78 -390 -78q-246 0 -410.5 99.5t-242.5 253t-78 323.5z" />
<glyph unicode="&#x422;" horiz-adv-x="1298" d="M78 954q8 74 18 193t10 178q0 10 11.5 10t11.5 -10q0 -45 111 -45q174 -6 411 -6q121 0 256 4l140 2q74 0 109.5 10t45.5 41q2 8 12.5 8t10.5 -8q-6 -59 -12.5 -180t-6.5 -197q0 -4 -12 -4t-12 4q-6 160 -65.5 224.5t-196.5 64.5q-92 0 -131 -8t-53.5 -34.5t-14.5 -90.5 v-944q0 -63 14.5 -92t55 -39t129.5 -10q6 0 6 -12.5t-6 -12.5q-68 0 -109 2l-160 2l-153 -2q-41 -2 -113 -2q-4 0 -4 12.5t4 12.5q88 0 129 10t56.5 39.5t15.5 91.5v948q0 63 -14.5 89t-53.5 33t-131 7q-129 0 -193.5 -65.5t-93.5 -223.5q0 -4 -11 -4t-11 4z" />
<glyph unicode="&#x423;" horiz-adv-x="1251" d="M16 1267.5q0 12.5 4 12.5l82 -2q61 -4 105 -4q76 0 162 4l82 2q6 0 6 -12.5t-6 -12.5q-133 0 -134 -67q0 -23 19 -58l381 -700l313 684q16 39 17 64q0 41 -39 59t-121 18q-6 0 -6 12.5t6 12.5l84 -2q70 -4 127 -4q35 0 84 4l80 2q4 0 4 -12.5t-4 -12.5 q-53 0 -102.5 -39.5t-82.5 -111.5l-456 -989q-33 -70 -77 -105t-110 -35q-59 0 -102 28t-43 77q0 35 23.5 59.5t62.5 24.5q35 0 53 -19.5t33 -52.5q10 -23 19 -34t24 -11q41 0 74 80l69 154l-448 829q-45 82 -81 113.5t-98 31.5q-4 0 -4 12.5z" />
<glyph unicode="&#x424;" horiz-adv-x="1712" d="M100 639q0 182 85 325.5t240 230.5t361 103v31q0 57 -13 84t-50 37t-115 10q-4 0 -4 12.5t4 12.5q66 0 103 -2l139 -2l149 2q35 2 95 2q6 0 6 -12.5t-6 -12.5q-76 0 -113 -11t-49 -39t-12 -85v-22q207 -6 363.5 -89.5t242.5 -227.5t86 -333q0 -188 -85 -334.5 t-242 -234.5t-365 -104v-35q0 -47 12 -73t50 -39t112 -13q6 0 6 -11.5t-6 -11.5q-59 0 -97 2l-147 2l-139 -2q-37 -2 -103 -2q-4 0 -4 11.5t4 11.5q106 0 142 28.5t36 96.5v30q-205 8 -360.5 93.5t-240.5 233t-85 337.5zM248 709q0 -310 138 -485t400 -204v1237 q-260 -6 -399 -147t-139 -401zM920 16q264 10 404 159t140 421q0 293 -139 460t-405 195v-1235z" />
<glyph unicode="&#x425;" horiz-adv-x="1335" d="M29 12.5q0 12.5 6 12.5q141 0 278 186l289 395l-330 500q-53 82 -105 115.5t-124 33.5q-4 0 -4 12.5t4 12.5l78 -2q53 -4 78 -4q70 0 168 4l106 2q6 0 6 -12.5t-6 -12.5q-53 0 -78.5 -8t-25.5 -28q0 -16 18 -45l303 -457l240 340q55 78 55 127q0 72 -115 71q-6 0 -6 12.5 t6 12.5l93 -2q78 -4 141 -4q37 0 86 4l76 2q6 0 6 -12.5t-6 -12.5q-68 0 -141.5 -51t-147.5 -151l-268 -367l342 -516q53 -80 109.5 -112.5t139.5 -32.5q5 0 5 -12.5t-5 -12.5q-53 0 -83 2l-113 2l-158 -2q-37 -2 -100 -2q-4 0 -4 12.5t4 12.5q55 0 79.5 8t24.5 26t-18 45 l-311 471l-261 -366q-49 -70 -49 -113q0 -72 121 -71q6 0 6 -12.5t-6 -12.5q-61 0 -94 2l-141 2l-86 -2q-23 -2 -76 -2q-6 0 -6 12.5z" />
<glyph unicode="&#x426;" horiz-adv-x="1490" d="M68 12.5q0 12.5 4 12.5q78 0 115.5 10t51 39.5t13.5 91.5v948q0 61 -13.5 90t-51 40t-115.5 11q-4 0 -4 12.5t4 12.5l102 -2q86 -4 139 -4q57 0 148 4l102 2q4 0 4 -12.5t-4 -12.5q-80 0 -116.5 -11t-50 -39.5t-13.5 -90.5v-944q0 -70 7 -92.5t36 -28.5t117 -6h383 q92 0 123.5 6t40 29.5t8.5 91.5v944q0 61 -13.5 90t-50.5 40t-116 11q-6 0 -6.5 12.5t6.5 12.5l102 -2q90 -4 145 -4t142 4l102 2q4 0 4 -12.5t-4 -12.5q-78 0 -116 -11t-51 -39.5t-13 -90.5v-948q0 -78 7 -102.5t35.5 -31.5t112.5 -7q16 0 19.5 -4.5t3.5 -20.5 q0 -35 -2 -59q-4 -102 -4 -324q0 -10 -11.5 -10t-11.5 10q0 209 -68.5 296t-230.5 87h-1007q-4 0 -4 12.5z" />
<glyph unicode="&#x427;" horiz-adv-x="1284" d="M-8 1267.5q0 12.5 6 12.5l86 -2q82 -4 147 -4q61 0 144 4l80 2q6 0 6 -12.5t-6 -12.5q-66 0 -97.5 -12t-43 -42t-11.5 -91v-203q0 -174 76 -264t217 -90q154 0 301 102v455q0 61 -11.5 91t-42 42t-98.5 12q-4 0 -4 12.5t4 12.5l91 -2q82 -4 131 -4q55 0 141 4l102 2 q6 0 6.5 -12.5t-6.5 -12.5q-78 0 -115.5 -11t-51 -39.5t-13.5 -90.5v-948q0 -61 13.5 -91t51.5 -40t115 -10q7 0 7 -12.5t-7 -12.5q-63 0 -102 2l-141 2l-146 -2q-35 -2 -98 -2q-6 0 -6 12.5t6 12.5q78 0 113.5 10t48 38.5t12.5 92.5v459q-170 -121 -352 -121 q-168 0 -270.5 90t-102.5 242v278q0 61 -13.5 90t-49 40t-111.5 11q-6 0 -6 12.5z" />
<glyph unicode="&#x428;" horiz-adv-x="2109" d="M68 12.5q0 12.5 4 12.5q78 0 115.5 10t51 39.5t13.5 91.5v948q0 61 -13.5 90t-51 40t-115.5 11q-4 0 -4 12.5t4 12.5l102 -2q86 -4 139 -4q55 0 138 4l90 2q6 0 6 -12.5t-6 -12.5q-70 0 -102.5 -11t-44 -39.5t-11.5 -90.5v-944q0 -70 7 -92.5t36 -28.5t117 -6h274 q90 0 122 6t40 29.5t8 91.5v944q0 61 -11 90t-44 40t-103 11q-6 0 -6 12.5t6 12.5l99 -2q82 -4 127 -4q51 0 129 4l96 2q6 0 6 -12.5t-6 -12.5q-70 0 -103.5 -11t-45 -39.5t-11.5 -90.5v-948q0 -59 15.5 -85t51.5 -32t118 -6h247q92 0 123 6t39 28.5t8 92.5v944q0 61 -11 90 t-44 40t-102 11q-6 0 -6 12.5t6 12.5l94 -2q82 -4 133 -4q53 0 139 4l103 2q6 0 6 -12.5t-6 -12.5q-78 0 -116 -11t-51.5 -39.5t-13.5 -90.5v-948q0 -61 13.5 -91t51.5 -40t116 -10q6 0 6 -12.5t-6 -12.5h-1962q-4 0 -4 12.5z" />
<glyph unicode="&#x429;" horiz-adv-x="2125" d="M68 12.5q0 12.5 4 12.5q78 0 115.5 10t51 39.5t13.5 91.5v948q0 61 -13.5 90t-51 40t-115.5 11q-4 0 -4 12.5t4 12.5l102 -2q86 -4 139 -4q55 0 138 4l90 2q6 0 6 -12.5t-6 -12.5q-70 0 -102.5 -11t-44 -39.5t-11.5 -90.5v-944q0 -70 7 -92.5t36 -28.5t117 -6h274 q90 0 122 6t40 29.5t8 91.5v944q0 61 -11 90t-44 40t-103 11q-6 0 -6 12.5t6 12.5l99 -2q82 -4 127 -4q51 0 129 4l96 2q6 0 6 -12.5t-6 -12.5q-70 0 -103.5 -11t-45 -39.5t-11.5 -90.5v-948q0 -59 15.5 -85t51.5 -32t118 -6h247q92 0 123 6t39 28.5t8 92.5v944q0 61 -11 90 t-44 40t-102 11q-6 0 -6 12.5t6 12.5l94 -2q82 -4 133 -4q53 0 139 4l103 2q6 0 6 -12.5t-6 -12.5q-78 0 -116 -11t-51.5 -39.5t-13.5 -90.5v-948q0 -76 8.5 -101.5t36 -32.5t111.5 -7q16 0 19.5 -3.5t3.5 -21.5v-59q-4 -102 -4 -324q0 -10 -12.5 -10t-12.5 10 q0 209 -68.5 296t-230.5 87h-1632q-4 0 -4 12.5z" />
<glyph unicode="&#x42a;" horiz-adv-x="1343" d="M47 961q8 74 18.5 189.5t10.5 174.5q0 10 11 10t11 -10q0 -23 21.5 -34t77.5 -15q66 -2 364 -2q61 0 152 4l98 2q4 0 4 -12.5t-4 -12.5q-78 0 -116 -12t-51 -42t-13 -91v-410q117 23 229 23q195 0 303.5 -78t108.5 -258q0 -117 -52.5 -207t-146.5 -139t-215 -49 q-53 0 -127 6q-29 2 -73 4t-97 2l-166 -2q-37 -2 -92 -2q-6 0 -6 12.5t6 12.5q84 0 124 11t55.5 39.5t15.5 90.5v948q0 68 -8.5 92.5t-37 31.5t-108.5 7q-123 0 -188.5 -68.5t-85.5 -215.5q-2 -6 -12.5 -5.5t-10.5 5.5zM631 166q0 -72 38 -104.5t150 -32.5q164 0 236.5 74.5 t72.5 234.5q0 184 -81.5 264t-237.5 80q-80 0 -178 -20v-496z" />
<glyph unicode="&#x42b;" horiz-adv-x="1742" d="M84 12.5q0 12.5 4 12.5q80 2 116 12t50 38.5t14 90.5v948q0 61 -13 90t-49 39t-114 12q-6 0 -6 12.5t6 12.5l98 -2q82 -4 140 -4q59 0 149 4l101 2q4 0 4 -12.5t-4 -12.5q-80 -2 -117 -12t-50.5 -39.5t-13.5 -93.5v-410q117 23 230 23q194 0 302.5 -78t108.5 -258 q0 -117 -52 -207t-146 -139t-215 -49q-53 0 -127 6q-29 2 -73 4t-97 2l-135 -2q-39 -2 -107 -2q-4 0 -4 12.5zM399 166q0 -72 37 -104.5t150 -32.5q166 0 238.5 74.5t72.5 234.5q0 184 -82 264t-237 80q-80 0 -179 -20v-496zM1153 12.5q0 12.5 6 12.5q78 0 114 10t49 39.5 t13 91.5v948q0 61 -13 90t-49 40t-114 11q-6 0 -6 12.5t6 12.5l101 -2q86 -4 141 -4q61 0 147 4l97 2q6 0 6 -12.5t-6 -12.5q-76 0 -112 -12t-49.5 -42t-13.5 -91v-944q0 -61 12.5 -91t48.5 -40t114 -10q6 0 6 -12.5t-6 -12.5q-61 0 -99 2l-145 2l-141 -2q-37 -2 -101 -2 q-6 0 -6 12.5z" />
<glyph unicode="&#x42c;" horiz-adv-x="1114" d="M84 12.5q0 12.5 4 12.5q80 2 116 12t50 38.5t14 90.5v948q0 61 -13 90t-49 39t-114 12q-6 0 -6 12.5t6 12.5l98 -2q82 -4 140 -4q59 0 149 4l101 2q4 0 4 -12.5t-4 -12.5q-80 -2 -117 -12t-50.5 -39.5t-13.5 -93.5v-410q117 23 230 23q194 0 302.5 -78t108.5 -258 q0 -117 -52 -207t-146 -139t-215 -49q-53 0 -127 6q-29 2 -73 4t-97 2l-135 -2q-39 -2 -107 -2q-4 0 -4 12.5zM399 166q0 -72 37 -104.5t150 -32.5q166 0 238.5 74.5t72.5 234.5q0 184 -82 264t-237 80q-80 0 -179 -20v-496z" />
<glyph unicode="&#x42d;" horiz-adv-x="1290" d="M88 326q0 6 11.5 8t13.5 -4q47 -156 168.5 -229.5t281.5 -73.5q238 0 355.5 151.5t117.5 423.5v43h-299q-139 0 -198.5 -42t-59.5 -148q0 -6 -12 -6t-12 6l2 207q0 63 -2 94l-2 100q0 6 12 6t12 -6q2 -84 64.5 -126t201.5 -42h289q-12 180 -78.5 312.5t-172 204 t-236.5 71.5q-137 0 -249 -80t-179 -240q-2 -8 -12.5 -6t-10.5 8l29 230q4 25 8 33t23 16q197 66 397 66q223 0 365.5 -87.5t207 -229.5t64.5 -310q0 -213 -95.5 -373t-254 -244t-340.5 -84q-90 0 -193.5 20.5t-163.5 53.5q-16 10 -21 18.5t-7 28.5z" />
<glyph unicode="&#x42e;" horiz-adv-x="2121" d="M68 12.5q0 12.5 4 12.5q78 0 115.5 10t51 39.5t13.5 91.5v948q0 61 -13.5 90t-50 40t-114.5 11q-4 0 -4 12.5t4 12.5l104 -2q86 -4 137 -4q59 0 150 4l98 2q4 0 4 -12.5t-4 -12.5q-78 0 -115.5 -12t-51 -42t-13.5 -91v-422h319q12 195 118 334t261.5 210t317.5 71 q186 0 327.5 -91.5t218 -241t76.5 -317.5q0 -186 -95 -341.5t-255 -246t-346 -90.5q-184 0 -326.5 89.5t-220.5 242t-78 332.5v6h-317v-479q0 -61 13.5 -91t50 -40t116.5 -10q4 0 4 -12.5t-4 -12.5q-63 0 -100 2l-148 2l-141 -2q-37 -2 -102 -2q-4 0 -4 12.5zM852 711 q0 -193 68.5 -351.5t192.5 -250t282 -91.5q131 0 236.5 68t167 199t61.5 311q0 193 -69 342t-193.5 233t-290.5 84q-215 0 -335 -145t-120 -399z" />
<glyph unicode="&#x42f;" horiz-adv-x="1216" d="M-20 12.5q0 12.5 6 12.5q106 2 184 82.5t188 277.5q78 135 143.5 196.5t151.5 82.5q-178 16 -271 97t-93 210q0 92 48 163.5t133 111.5t192 40q47 0 108 -6q25 -2 57.5 -4t71.5 -2q53 0 139 4l105 2q4 0 4 -12.5t-4 -12.5q-80 0 -117 -11t-49 -39.5t-12 -90.5v-948 q0 -61 13 -91t49 -40t116 -10q4 0 4 -12.5t-4 -12.5q-66 0 -103 2l-141 2l-143 -2q-37 -2 -101 -2q-4 0 -4 12.5t4 12.5q78 0 115 10t49 39.5t12 91.5v498q-68 -4 -117.5 -30t-104 -92.5t-130.5 -197.5q-100 -172 -152.5 -245.5t-74 -86t-55.5 -12.5h-211q-6 0 -6 12.5z M428 1022q0 -150 84 -240t244 -90q27 0 75 4v414q0 82 -49 116t-123 34q-231 0 -231 -238z" />
<glyph unicode="&#x430;" horiz-adv-x="1003" d="M74 330q0 147 69.5 257.5t175 170t211.5 59.5q115 0 199 -61q37 20 57 53q2 4 10.5 1t8.5 -7v-584q0 -70 16.5 -99.5t55.5 -29.5q35 0 108 29h4q8 0 11.5 -9.5t-5.5 -11.5l-237 -114q-4 -2 -10 -2q-18 0 -36 48t-20 122q-76 -78 -153.5 -125t-169.5 -47q-125 0 -210 92 t-85 258zM209 389q0 -154 62.5 -248t166.5 -94q68 0 130.5 38t123.5 99v418q0 76 -65.5 125t-147.5 49q-121 0 -195.5 -107.5t-74.5 -279.5z" />
<glyph unicode="&#x431;" horiz-adv-x="966" d="M80 469q0 250 54 410.5t151.5 253t246.5 149.5l39 16q98 37 155.5 74t92.5 113q2 8 13.5 5t7.5 -9q-18 -109 -58.5 -167.5t-91.5 -86t-162 -70.5q-184 -74 -285.5 -212t-123.5 -402q59 147 170.5 198.5t202.5 51.5q143 0 233 -58.5t129 -148.5t39 -187q0 -129 -59.5 -225 t-159 -148.5t-217.5 -52.5q-100 0 -186.5 52.5t-138.5 164t-52 279.5zM225 420q0 -176 78 -292t215 -116q111 0 175.5 81t64.5 249q0 121 -37 215t-103.5 147.5t-150.5 53.5q-115 0 -178.5 -100.5t-63.5 -237.5z" />
<glyph unicode="&#x432;" horiz-adv-x="935" d="M78 641q0 844 463 844q256 0 256 -238q0 -135 -83 -262t-206 -194q100 -11 181 -64t127 -143t46 -205q0 -176 -104.5 -291t-294.5 -115q-133 0 -217 63.5t-126 210t-42 394.5zM211 696q0 -264 35 -413.5t100.5 -210t169.5 -60.5q229 0 229 295q0 207 -117.5 317.5 t-332.5 110.5q-55 0 -84 -2v-37zM211 772q29 -2 82 -2q111 0 200 58.5t139 155.5t50 208q0 115 -47 188.5t-139 73.5q-269 0 -285 -682z" />
<glyph unicode="&#x433;" horiz-adv-x="671" d="M94 172q0 76 44 121t136 94q94 51 142.5 102.5t48.5 137.5q0 70 -32 106.5t-91 36.5q-72 0 -133.5 -55.5t-91.5 -159.5q0 -2 -8 -2q-16 0 -15 8l64 273q4 4 8 4q6 0 12 -3.5t4 -5.5q-2 -8 -2 -22q0 -20 10.5 -29.5t22.5 -9.5t57 16q84 33 150 33q88 0 133 -44t45 -122 q0 -57 -26.5 -99t-65.5 -69.5t-109 -66.5q-94 -51 -137 -91t-43 -108q0 -74 57.5 -122t137.5 -48q63 0 119.5 32t95.5 95q2 4 8 4t10 -6t0 -12q-53 -86 -136 -132t-177 -46q-96 0 -167 46t-71 144z" />
<glyph unicode="&#x434;" horiz-adv-x="954" d="M74 330q0 147 69.5 257.5t175 170t211.5 59.5q115 0 199 -61q37 20 57 53q2 4 10.5 1t8.5 -7v-946q0 -197 -107.5 -314.5t-300.5 -117.5q-123 0 -200.5 44t-77.5 109q0 35 18.5 51.5t42.5 16.5q29 0 47.5 -15.5t44.5 -50.5q39 -53 80 -82.5t123 -29.5q98 0 157.5 71.5 t59.5 267.5v345q-76 -78 -153.5 -125t-169.5 -47q-125 0 -210 92t-85 258zM209 389q0 -154 62.5 -248t166.5 -94q68 0 130.5 38t123.5 99v418q0 76 -65.5 125t-147.5 49q-121 0 -195.5 -107.5t-74.5 -279.5z" />
<glyph unicode="&#x435;" horiz-adv-x="835" d="M74 369q0 123 58 223t158.5 158.5t223.5 58.5q111 0 172.5 -54.5t61.5 -148.5q0 -25 -5.5 -36t-19.5 -11l-504 -4q-10 -55 -10 -106q0 -178 86 -290t237 -112q117 0 211 68h2q6 0 11.5 -7.5t1.5 -13.5q-139 -119 -299 -119q-121 0 -209 55.5t-132 144.5t-44 194zM225 584 l381 8q0 84 -44 130t-118 46q-84 0 -140 -48t-79 -136z" />
<glyph unicode="&#x436;" horiz-adv-x="1370" d="M8 12.5q0 12.5 4 12.5q68 2 105 32.5t94 112.5l49 68q84 111 112.5 143.5t69.5 42.5l-96 123q-92 121 -158.5 170t-158.5 49q-6 0 -6 12.5t6 12.5q37 0 57 -3l100 -2l142 2q25 2 73 3q4 0 4.5 -12.5t-4.5 -12.5q-51 0 -74.5 -11.5t-23.5 -37.5q0 -49 84 -166l72 -123 q29 4 47 4l59 -2q37 -4 62 -4v799q0 74 -14.5 106.5t-49.5 32.5q-31 0 -94 -29h-4q-8 0 -11 9.5t3 13.5l264 127h4q6 0 12 -6t6 -11v-1042q25 0 62 4l57 2q25 0 35 -2l86 121q84 121 84 168q0 25 -23.5 36t-72.5 11q-6 0 -6 12.5t6 12.5q47 0 71 -3l142 -2l102 2q20 2 55 3 q6 0 6.5 -12.5t-6.5 -12.5q-92 0 -158.5 -49t-158.5 -170l-94 -123q39 -12 70.5 -46t109.5 -140l47 -66q57 -82 95 -113.5t106 -33.5q6 0 6 -12.5t-6 -12.5h-221q-12 0 -16.5 4t-18.5 27q-27 49 -109 166q-68 100 -97.5 136t-61 48t-91.5 10v-225q0 -61 9.5 -91t37 -40 t84.5 -10q4 0 4.5 -12.5t-4.5 -12.5q-53 0 -83 2l-107 2l-106 -2q-29 -2 -80 -2q-6 0 -6 12.5t6 12.5q57 0 83.5 10t36 39.5t9.5 91.5v225q-59 2 -91 -10t-62 -48t-97 -136q-55 -76 -111 -166q-14 -23 -18 -27t-17 -4h-219q-4 0 -4 12.5z" />
<glyph unicode="&#x437;" horiz-adv-x="825" d="M39 -416q0 35 18.5 50.5t44.5 15.5q29 0 50.5 -17.5t50.5 -54.5q41 -57 85 -88t122 -31q117 0 171 101.5t54 253.5q0 358 -391 358q-8 0 -10.5 12.5t10.5 12.5q178 0 251.5 78.5t73.5 224.5q0 276 -217 276q-96 0 -167.5 -63.5t-112.5 -192.5q0 -2 -9 -2q-16 0 -14 8 l74 308q0 4 8 4q6 0 12.5 -3.5t3.5 -5.5q-4 -16 -4 -22q0 -20 11.5 -29.5t23.5 -9.5q14 0 36 7t32 9q94 33 172 33q137 0 213 -79t76 -195q0 -111 -66 -207t-176 -139q100 -4 173 -55.5t109.5 -131.5t36.5 -170q0 -119 -55 -213t-154.5 -148t-226.5 -54q-135 0 -222 46 t-87 113z" />
<glyph unicode="&#x438;" horiz-adv-x="1009" d="M10.5 691q-4.5 11 3.5 14l228 102l8 2q6 0 13 -5t7 -11v-490q0 -238 172 -237q66 0 133.5 33.5t122.5 93.5v356q0 82 -13 116.5t-48 34.5q-29 0 -70 -20h-2q-8 0 -11 11t5 14l227 102l7 2q6 0 13 -5t7 -11v-574q0 -70 16.5 -100.5t55.5 -30.5q35 0 108 29h4 q8 0 11.5 -9.5t-4.5 -13.5l-240 -112l-8 -2q-20 0 -39 47t-19 123v8q-80 -90 -159.5 -132t-165.5 -42q-102 0 -159.5 64.5t-57.5 187.5v313q0 80 -14.5 115.5t-47.5 35.5q-29 0 -69 -20h-2q-8 0 -12.5 11z" />
<glyph unicode="&#x439;" horiz-adv-x="1009" d="M10.5 691q-4.5 11 3.5 14l228 102l8 2q6 0 13 -5t7 -11v-490q0 -238 172 -237q66 0 133.5 33.5t122.5 93.5v356q0 82 -13 116.5t-48 34.5q-29 0 -70 -20h-2q-8 0 -11 11t5 14l227 102l7 2q6 0 13 -5t7 -11v-574q0 -70 16.5 -100.5t55.5 -30.5q35 0 108 29h4 q8 0 11.5 -9.5t-4.5 -13.5l-240 -112l-8 -2q-20 0 -39 47t-19 123v8q-80 -90 -159.5 -132t-165.5 -42q-102 0 -159.5 64.5t-57.5 187.5v313q0 80 -14.5 115.5t-47.5 35.5q-29 0 -69 -20h-2q-8 0 -12.5 11zM227 1141q0 59 60 59q39 0 53 -22.5t29 -75.5q10 -43 19 -65.5 t33.5 -40t70.5 -17.5q61 0 87.5 32.5t38.5 90.5q12 49 28 73.5t52 24.5q61 0 62 -61q0 -49 -38 -92t-99.5 -69t-128.5 -26q-70 0 -131.5 27t-98.5 71t-37 91z" />
<glyph unicode="&#x43a;" horiz-adv-x="944" d="M8 1345.5q-4 10.5 4 12.5l256 125l11 2q6 0 12 -5t6 -12v-1042q80 6 127 6q51 0 102 98q59 119 88 168.5t66 80t88 30.5q43 0 67.5 -20.5t24.5 -51.5q0 -33 -21.5 -55.5t-58.5 -22.5q-23 0 -48 14.5t-40 14.5q-41 0 -135 -168q-35 -66 -65 -94q39 -8 67.5 -36t85.5 -105 l37 -47l51 -70q57 -80 94 -110.5t105 -32.5q6 0 6 -12.5t-6 -12.5h-225q-10 0 -14.5 3t-16.5 24q-29 51 -113 170q-74 102 -103.5 138t-63.5 47t-99 9v-225q0 -61 10 -91t36 -40t83 -10q6 0 6 -12.5t-6 -12.5q-51 0 -80 2l-104 2l-109 -2q-29 -2 -82 -2q-6 0 -6 12.5t6 12.5 q57 0 85 10t37 39.5t9 91.5v1059q0 74 -14 106.5t-51 32.5q-31 0 -94 -29h-5q-6 0 -10 10.5z" />
<glyph unicode="&#x43b;" horiz-adv-x="925" d="M-4 12.5q0 12.5 10 12.5q37 0 78 51t104 194l236 551q4 8 13 8t12 -8l253 -540q55 -119 84 -168.5t57.5 -68.5t74.5 -19q10 0 10 -12.5t-10 -12.5q-31 0 -97 4t-98 4q-29 0 -86 -4t-82 -4q-8 0 -8 12.5t8 12.5q39 0 60.5 16t21.5 49q0 37 -23 82l-217 463l-161 -383 q-37 -86 -37 -139q0 -88 96 -88q10 0 10 -12.5t-10 -12.5q-23 0 -59 4q-45 4 -82 4q-41 0 -82 -4q-37 -4 -66 -4q-10 0 -10 12.5z" />
<glyph unicode="&#x43c;" horiz-adv-x="1150" d="M18.5 12.5q-0.5 12.5 6.5 12.5q70 0 98.5 40.5t36.5 147.5l51 588q0 6 7 9t15 3q14 0 21 -6l338 -651l285 649q2 8 18 8q10 0 17.5 -4t9.5 -10l71 -633q8 -68 17.5 -94.5t34 -36.5t81.5 -10q4 0 4 -12.5t-4 -12.5q-55 0 -86 2l-100 2l-98 -2q-25 -2 -68 -2q-6 0 -6 12.5 t6 12.5q59 0 84 17t25 69q0 12 -4 53l-58 416l-252 -580q-2 -8 -16 -8q-10 0 -16 8l-295 573l-41 -360q-2 -16 -2 -45q0 -76 32.5 -109.5t100.5 -33.5q6 0 6 -12.5t-6 -12.5q-45 0 -68 2l-84 2l-86 -2q-25 -2 -69 -2q-6 0 -6.5 12.5z" />
<glyph unicode="&#x43d;" horiz-adv-x="1044" d="M51 691q-4 11 4 14l228 102l10 2q4 0 11 -5t7 -11v-377h437v133q0 80 -14.5 115.5t-47.5 35.5q-18 0 -70 -20h-2q-8 0 -12 11t4 14l228 102l10 2q6 0 12 -5t6 -11v-627q0 -61 9.5 -91t37 -40t84.5 -10q4 0 4 -12.5t-4 -12.5q-53 0 -84 2l-102 2l-111 -2q-29 -2 -80 -2 q-6 0 -6 12.5t6 12.5q57 0 84 10t37.5 39.5t10.5 91.5v209h-437v-209q0 -61 9.5 -91t37 -40t84.5 -10q4 0 4 -12.5t-4 -12.5q-53 0 -84 2l-102 2l-109 -2q-29 -2 -81 -2q-6 0 -6.5 12.5t6.5 12.5q57 0 84.5 10t37 39.5t9.5 91.5v383q0 80 -14.5 115.5t-47.5 35.5 q-18 0 -69 -20h-3q-8 0 -12 11z" />
<glyph unicode="&#x43e;" horiz-adv-x="980" d="M74 406q0 133 64.5 226t166 139t205.5 46q121 0 211 -59.5t138 -156.5t48 -206q0 -127 -59.5 -222t-158.5 -147.5t-216 -52.5q-119 0 -210 58.5t-140 158t-49 216.5zM211 469q0 -125 41 -229.5t114.5 -166t165.5 -61.5q113 0 174.5 80t61.5 246q0 127 -42 227.5 t-115.5 156.5t-168.5 56q-111 0 -171 -80t-60 -229z" />
<glyph unicode="&#x43f;" horiz-adv-x="1058" d="M21.5 681q-3.5 9 5.5 13l237 113q4 2 12 2q18 0 39 -47t21 -121q78 90 154.5 133t158.5 43q115 0 176.5 -63.5t61.5 -186.5v-401q0 -61 9 -90t35.5 -40t82.5 -11q6 0 6 -12.5t-6 -12.5q-47 0 -74 2l-111 2l-112 -2q-27 -2 -74 -2q-6 0 -6 12.5t6 12.5q55 0 82 11t36 39.5 t9 90.5v332q0 121 -46 178t-142 57q-63 0 -128 -33.5t-118 -93.5v-440q0 -61 9 -90t36 -40t82 -11q6 0 6 -12.5t-6 -12.5q-47 0 -74 2l-110 2l-113 -2q-27 -2 -74 -2q-6 0 -6 12.5t6 12.5q55 0 82 11t36 39.5t9 90.5v405q0 70 -16.5 100.5t-55.5 30.5q-33 0 -110 -30h-4 q-8 0 -11.5 9z" />
<glyph unicode="&#x440;" horiz-adv-x="1046" d="M-3 682q-3 10 3 14l227 109q4 2 15 2q29 0 47 -43t20 -123q174 176 344 176q84 0 156 -45t115 -131t43 -201q0 -154 -70 -259t-171 -156.5t-200 -51.5q-63 0 -113.5 12.5t-103.5 41.5v-424q0 -61 15.5 -90t58.5 -40.5t131 -11.5q4 0 4 -12t-4 -12q-70 0 -111 2l-149 2 l-113 -2q-29 -2 -75 -2q-6 0 -6.5 12t6.5 12q55 0 81.5 11.5t37 40t10.5 90.5v962q0 74 -16.5 105.5t-57.5 31.5q-45 0 -109 -28l-4 -2q-8 0 -11 10zM309 145q55 -63 121 -96t158 -33q108 0 178 95.5t70 265.5q0 172 -76 267t-193 95q-72 0 -133 -34.5t-125 -98.5v-461z" />
<glyph unicode="&#x441;" horiz-adv-x="841" d="M74 379q0 131 65.5 228.5t169 149.5t211.5 52q90 0 165 -36t75 -89q0 -27 -19.5 -46.5t-52.5 -19.5q-55 0 -90 68q-27 41 -57.5 61.5t-87.5 20.5q-115 0 -179.5 -89t-64.5 -239q0 -172 86 -282.5t258 -110.5q125 0 209 68h2q6 0 11 -6.5t1 -10.5q-72 -63 -144.5 -93 t-158.5 -30q-133 0 -223 58.5t-133 150.5t-43 195z" />
<glyph unicode="&#x442;" horiz-adv-x="1562" d="M21.5 681q-3.5 9 5.5 13l237 113q4 2 12 2q18 0 39 -47t21 -121v-2q74 90 147.5 131t153.5 41q92 0 149.5 -45t71.5 -135q76 92 151.5 136t157.5 44q109 0 167.5 -62.5t58.5 -185.5v-397q0 -61 9 -90t35.5 -40t82.5 -11q6 0 6 -12.5t-6 -12.5q-47 0 -76 2l-111 2l-110 -2 q-29 -2 -76 -2q-6 0 -6 12.5t6 12.5q55 0 81.5 11t37 40.5t10.5 89.5v326q0 121 -43 179t-133 58q-61 0 -124 -33.5t-116 -95.5q2 -10 2 -33v-401q0 -61 10.5 -90t37 -40t81.5 -11q6 0 6 -12.5t-6 -12.5q-47 0 -76 2l-110 2l-113 -2q-27 -2 -74 -2q-6 0 -6 12.5t6 12.5 q55 0 82 11t36 39.5t9 90.5v326q0 121 -43 179t-131 58q-61 0 -122.5 -32.5t-112.5 -92.5v-438q0 -61 9 -90t36 -40t82 -11q6 0 6 -12.5t-6 -12.5q-47 0 -74 2l-110 2l-113 -2q-27 -2 -74 -2q-6 0 -6 12.5t6 12.5q55 0 82 11t36 39.5t9 90.5v405q0 70 -16.5 100.5 t-55.5 30.5q-33 0 -110 -30h-4q-8 0 -11.5 9z" />
<glyph unicode="&#x443;" horiz-adv-x="890" d="M-72 -496q0 29 18.5 45.5t45.5 16.5t45 -6t39 -21q4 -2 23.5 -12t47.5 -10q49 0 93.5 43t94.5 144t118 280l-312 637q-47 90 -71.5 117.5t-63.5 27.5q-4 0 -4 12.5t4 12.5l70 -3q25 -2 67 -2l131 2q29 2 80 3q4 0 4 -12.5t-4 -12.5q-119 0 -118 -47q0 -12 10 -33 l270 -555l164 471q16 49 16 78q0 47 -36.5 66.5t-120.5 19.5q-4 0 -4 12.5t4 12.5q55 0 84 -3l122 -2l74 2q20 2 64 3q6 0 6 -12.5t-6 -12.5q-51 0 -88 -37t-70 -121l-250 -665q-76 -199 -142.5 -310.5t-137 -159.5t-162.5 -48q-45 0 -75 20t-30 59z" />
<glyph unicode="&#x444;" horiz-adv-x="1306" d="M74 367q0 150 55 252t135 150t154 48q96 0 178 -94v502q0 74 -14.5 106.5t-49.5 32.5q-31 0 -94 -29h-4q-8 0 -11 9.5t3 13.5l260 125l8 2q6 0 12.5 -5t6.5 -12v-796q137 145 262 145q72 0 131 -48t93 -137t34 -208q0 -150 -55.5 -252t-135 -150.5t-153.5 -48.5 q-98 1 -176 95v-465q0 -61 13 -90t52 -40.5t123 -11.5q4 0 4 -12t-4 -12q-68 0 -106 2l-138 2l-153 -2q-39 -2 -109 -2q-6 0 -6 12t6 12q88 0 129 11.5t56.5 40t15.5 90.5v516q-139 -145 -264 -146q-72 0 -131.5 48.5t-93 137.5t-33.5 208zM205 434q0 -184 54 -288.5 t142 -104.5q97 0 195 115v469q-45 70 -100.5 110.5t-110.5 40.5q-86 0 -133 -91t-47 -251zM713 162q45 -68 99 -108t110 -40q86 0 134 91.5t48 250.5q0 182 -56.5 288t-144.5 106q-92 0 -190 -111v-477z" />
<glyph unicode="&#x445;" horiz-adv-x="899" d="M23 12.5q0 12.5 4 12.5q53 0 115.5 38.5t115.5 112.5l139 195l-166 250q-49 76 -102 110.5t-96 34.5q-4 0 -4 12.5t4 12.5q43 0 63 -3l64 -2l131 2q29 2 80 3q4 0 4 -12.5t-4 -12.5q-35 0 -51.5 -5t-16.5 -20q0 -14 27 -55l141 -213l104 154q43 63 43 92q0 25 -27.5 36 t-90.5 11q-4 0 -4 12.5t4 12.5q55 0 84 -3l123 -2l73 2q20 2 66 3q4 0 4 -12.5t-4 -12.5q-55 0 -115.5 -38t-116.5 -114l-125 -170l183 -274q51 -78 105 -111.5t97 -33.5q5 0 5 -12.5t-5 -12.5l-65 2q-23 2 -66 2l-131 -2q-31 -2 -82 -2q-6 0 -6 12.5t6 12.5q37 0 52.5 5 t15.5 19q0 18 -25 55l-155 236l-123 -176q-41 -61 -41 -90q0 -25 27.5 -37t89.5 -12q6 0 6 -12.5t-6 -12.5q-55 0 -82 2l-123 2l-74 -2q-20 -2 -65 -2q-4 0 -4 12.5z" />
<glyph unicode="&#x446;" horiz-adv-x="993" d="M10.5 691q-4.5 11 3.5 14l228 102l8 2q6 0 13 -5t7 -11v-490q0 -238 172 -237q66 0 133.5 33.5t122.5 93.5v356q0 82 -13 116.5t-48 34.5q-29 0 -70 -20h-2q-8 0 -11 11t5 14l227 102l7 2q6 0 13 -5t7 -11v-568q0 -106 30.5 -153t104.5 -47q17 0 19 -3.5t2 -21.5l-2 -45 q-8 -78 -9 -223q0 -10 -12 -10.5t-12 10.5q0 150 -56.5 209t-158.5 59q-14 0 -17.5 30.5t-3.5 125.5v2q-80 -90 -159.5 -132t-165.5 -42q-102 0 -159.5 64.5t-57.5 187.5v313q0 80 -14.5 115.5t-47.5 35.5q-29 0 -69 -20h-2q-8 0 -12.5 11z" />
<glyph unicode="&#x447;" horiz-adv-x="872" d="M-22.5 690q-4.5 10 4.5 15l225 102l8 2q6 0 12 -5t6 -11v-252q0 -98 41 -149.5t111 -51.5q100 0 190 63v146q0 80 -14 115.5t-47 35.5q-23 0 -70 -20h-2q-8 0 -12 11t4 14l228 102l8 2q6 0 13 -5t7 -11v-627q0 -61 9.5 -91t36 -40t83.5 -10q6 0 6 -12.5t-6 -12.5 q-51 0 -80 2l-106 2l-107 -2q-31 -2 -84 -2q-4 0 -4 12.5t4 12.5q57 0 85 11t38 39.5t10 90.5v203q-123 -100 -260 -101q-94 0 -143 57.5t-49 168.5q0 98 -12.5 152t-49.5 54q-23 0 -69 -20h-2q-8 0 -12.5 10z" />
<glyph unicode="&#x448;" horiz-adv-x="1525" d="M10.5 691q-4.5 11 3.5 14l228 102l8 2q6 0 13 -5t7 -11v-494q0 -121 43 -179.5t133 -58.5q61 0 124 35t116 97q-2 8 -2 30v326q0 80 -14.5 115.5t-46.5 35.5q-23 0 -70 -20h-2q-8 0 -12 11t4 14l227 102l8 2q6 0 13.5 -5t7.5 -11v-494q0 -121 43 -179.5t133 -58.5 q61 0 122.5 34t112.5 93v361q0 82 -13 116.5t-48 34.5q-23 0 -70 -20h-2q-8 0 -12 11t4 14l229 102l7 2q6 0 13 -5t7 -11v-574q0 -68 17.5 -99.5t56.5 -31.5q20 0 48 9t62 22h4q8 0 11.5 -9.5t-2.5 -13.5l-242 -112q-4 -2 -10 -2q-20 0 -40 47t-20 121v2 q-145 -174 -303 -175q-92 0 -148.5 46.5t-70.5 136.5q-147 -182 -309 -183q-109 0 -166 62.5t-57 187.5v322q0 80 -14.5 115.5t-47.5 35.5q-29 0 -69 -20h-2q-8 0 -12.5 11z" />
<glyph unicode="&#x449;" horiz-adv-x="1523" d="M10.5 691q-4.5 11 3.5 14l228 102l8 2q6 0 13 -5t7 -11v-494q0 -121 43 -179.5t133 -58.5q61 0 124 35t116 97q-2 8 -2 30v326q0 80 -14.5 115.5t-46.5 35.5q-23 0 -70 -20h-2q-8 0 -12 11t4 14l227 102l8 2q6 0 13.5 -5t7.5 -11v-494q0 -121 43 -179.5t133 -58.5 q61 0 122.5 34t112.5 93v361q0 82 -13 116.5t-48 34.5q-23 0 -70 -20h-2q-8 0 -12 11t4 14l229 102l7 2q6 0 13 -5t7 -11v-566q0 -109 30.5 -155.5t104.5 -46.5q17 0 20 -3.5t3 -21.5l-2 -45q-10 -98 -11 -223q0 -10 -12 -10.5t-12 10.5q0 150 -56.5 209t-158.5 59 q-14 0 -17.5 29.5t-3.5 122.5q-145 -174 -303 -175q-92 0 -148.5 46.5t-70.5 136.5q-147 -182 -309 -183q-109 0 -166 62.5t-57 187.5v322q0 80 -14.5 115.5t-47.5 35.5q-29 0 -69 -20h-2q-8 0 -12.5 11z" />
<glyph unicode="&#x44a;" horiz-adv-x="946" d="M41 829q0 10 12.5 10.5t12.5 -10.5q0 -29 46 -36t144 -7q51 0 82 2l117 3q6 0 6 -12.5t-6 -12.5q-25 0 -32 -28.5t-7 -116.5v-187q90 31 200 31q144 0 212.5 -55.5t68.5 -167.5q0 -127 -85 -198t-243 -71q-131 0 -198.5 50.5t-67.5 146.5v455q0 57 -4 81.5t-19.5 34 t-52.5 9.5q-66 0 -110.5 -52.5t-48.5 -132.5q0 -4 -12.5 -4t-12.5 4zM416 217q0 -217 182 -217q172 0 172 197q0 106 -53 168.5t-170 62.5q-66 0 -131 -25v-186z" />
<glyph unicode="&#x44b;" horiz-adv-x="1302" d="M10.5 691q-4.5 11 3.5 14l228 102l8 2q6 0 13 -5t7 -11v-359q90 31 201 31q281 0 281 -221q0 -127 -87 -199t-243 -72q-131 0 -198.5 50.5t-67.5 146.5v379q0 80 -14.5 115.5t-47.5 35.5q-23 0 -69 -20h-2q-8 0 -12.5 11zM270 217q0 -104 44 -160.5t135 -56.5 q174 0 174 201q0 104 -53.5 165.5t-170.5 61.5q-63 0 -129 -22v-189zM819 669.5q-4 10.5 2 14.5l266 123l9 2q4 0 10 -5t6 -11q0 -14 -2 -82t-2 -160v-385q0 -61 10 -90t37 -40t82 -11q6 0 6 -12.5t-6 -12.5q-47 0 -76 2l-110 2l-111 -2q-29 -2 -78 -2q-4 0 -4 12.5t4 12.5 q55 0 83 11t38 40.5t10 89.5v383q0 74 -15 106.5t-52 32.5t-92 -29h-3q-8 0 -12 10.5z" />
<glyph unicode="&#x44c;" horiz-adv-x="796" d="M10.5 691q-4.5 11 3.5 14l228 102l8 2q6 0 13 -5t7 -11v-359q90 31 201 31q281 0 281 -221q0 -127 -87 -199t-243 -72q-131 0 -198.5 50.5t-67.5 146.5v379q0 80 -14.5 115.5t-47.5 35.5q-23 0 -69 -20h-2q-8 0 -12.5 11zM270 217q0 -104 44 -160.5t135 -56.5 q174 0 174 201q0 104 -53.5 165.5t-170.5 61.5q-63 0 -129 -22v-189z" />
<glyph unicode="&#x44d;" horiz-adv-x="913" d="M102 252q0 6 11.5 7t13.5 -5q31 -119 107.5 -183.5t177.5 -64.5q127 0 208.5 101.5t84.5 265.5q-223 0 -390 -23q-12 0 -12 41q0 18 4 34.5t10 14.5q88 -14 173 -18t212 -4q-10 156 -94 262t-229 106q-86 0 -146.5 -48t-103.5 -165q-2 -4 -13.5 -2t-9.5 7l48 280q0 2 8 2 q18 0 16 -8q-4 -16 -4 -23q0 -18 10.5 -27t24.5 -9q10 0 59 8q10 2 57.5 9t98.5 7q147 0 240.5 -63.5t135.5 -157.5t42 -190q0 -121 -61.5 -219.5t-167 -155t-232.5 -56.5q-63 0 -128 15.5t-103 42.5q-14 8 -18.5 14t-6.5 23z" />
<glyph unicode="&#x44e;" horiz-adv-x="1361" d="M8 1345.5q-4 10.5 4 12.5l256 125l11 2q6 0 12 -5t6 -12v-1052h205q6 129 69.5 219t156.5 136t192 46q112 0 195 -57.5t128 -151.5t45 -202q0 -125 -56 -223.5t-150.5 -154t-204.5 -55.5q-111 0 -195 53.5t-130 145.5t-50 203h-205v-209q0 -59 10 -89t37 -41t82 -11 q6 0 6 -12.5t-6 -12.5q-47 0 -76 2l-110 2l-111 -2q-29 -2 -76 -2q-6 0 -6 12.5t6 12.5q55 0 82 11t37 40.5t10 89.5v1059q0 74 -14 106.5t-51 32.5q-31 0 -94 -29h-5q-6 0 -10 10.5zM637 463q0 -131 38 -233.5t105.5 -160t153.5 -57.5q102 0 160.5 84t58.5 244 q0 137 -41 235.5t-109.5 149.5t-150.5 51q-104 0 -159.5 -82t-55.5 -231z" />
<glyph unicode="&#x44f;" horiz-adv-x="862" d="M-4 12.5q0 12.5 4 12.5q61 0 99 39.5t61.5 85t32.5 57.5q39 70 95 118t124 62q-248 18 -248 197q0 98 72.5 155.5t193.5 57.5q23 0 88 -4q55 -6 100 -7l103 2q27 2 74 3q4 0 4 -12.5t-4 -12.5q-53 0 -79 -11.5t-36 -40t-10 -89.5v-459q0 -59 11 -89t36.5 -41t79.5 -11 q4 0 4 -12.5t-4 -12.5q-47 0 -74 2l-105 2l-108 -2q-29 -2 -80 -2q-4 0 -4 12.5t4 12.5q55 0 81 10t35 38.5t9 92.5v223q-76 -4 -133 -52t-123 -171q-61 -111 -80.5 -138.5t-40.5 -27.5h-178q-4 0 -4 12.5zM287 631q0 -96 49 -156.5t139 -60.5q39 0 80 6v201q0 66 -10 96.5 t-37 42.5t-80 12q-70 0 -105.5 -37t-35.5 -104z" />
<glyph unicode="&#x450;" horiz-adv-x="835" d="M74 369q0 123 58 223t158.5 158.5t223.5 58.5q111 0 172.5 -54.5t61.5 -148.5q0 -25 -5.5 -36t-19.5 -11l-504 -4q-10 -55 -10 -106q0 -178 86 -290t237 -112q117 0 211 68h2q6 0 11.5 -7.5t1.5 -13.5q-139 -119 -299 -119q-121 0 -209 55.5t-132 144.5t-44 194zM225 584 l381 8q0 84 -44 130t-118 46q-84 0 -140 -48t-79 -136zM268 1489q-2 8 17 8q27 0 66.5 -11t41.5 -20l105 -491q4 -4 -7.5 -7t-13.5 3z" />
<glyph unicode="&#x451;" horiz-adv-x="835" d="M74 369q0 123 58 223t158.5 158.5t223.5 58.5q111 0 172.5 -54.5t61.5 -148.5q0 -25 -5.5 -36t-19.5 -11l-504 -4q-10 -55 -10 -106q0 -178 86 -290t237 -112q117 0 211 68h2q6 0 11.5 -7.5t1.5 -13.5q-139 -119 -299 -119q-121 0 -209 55.5t-132 144.5t-44 194z M199 1063q0 39 23.5 61.5t64.5 22.5t62.5 -21.5t21.5 -62.5q0 -39 -21.5 -61.5t-62.5 -22.5t-64.5 22.5t-23.5 61.5zM225 584l381 8q0 84 -44 130t-118 46q-84 0 -140 -48t-79 -136zM557 1063q0 39 23.5 61.5t64.5 22.5t63.5 -21.5t22.5 -62.5t-22.5 -62.5t-63.5 -21.5 t-64.5 22.5t-23.5 61.5z" />
<glyph unicode="&#x452;" horiz-adv-x="960" d="M8 1345.5q-4 10.5 4 12.5l262 127h5q8 0 13 -5t5 -12v-399h326q4 0 7 -6t3 -14t-3 -14.5t-7 -6.5h-326v-381q141 164 293 164q151 0 224 -121t73 -315q0 -160 -52.5 -340t-139.5 -339t-185 -259l-4 -2q-6 0 -11.5 7t-0.5 11q121 143 195.5 387t74.5 475q0 190 -57.5 302 t-182.5 112q-55 0 -114.5 -31.5t-112.5 -87.5v-444q0 -59 10 -89t37 -41t82 -11q6 0 6 -12.5t-6 -12.5q-47 0 -76 2l-110 2l-111 -2q-29 -2 -76 -2q-6 0 -6 12.5t6 12.5q55 0 82 11t37 40.5t10 89.5v862h-157q-4 0 -7.5 6t-3.5 15q0 8 3 14t8 6h157v156q0 74 -14 106.5 t-51 32.5q-31 0 -94 -29h-5q-6 0 -10 10.5z" />
<glyph unicode="&#x453;" horiz-adv-x="761" d="M59.5 12.5q-0.5 12.5 6.5 12.5q57 0 84.5 10t37 39.5t9.5 91.5v459q0 61 -9.5 90.5t-36 40t-83.5 10.5q-6 0 -6.5 12.5t6.5 12.5h610q12 0 14 -3.5t2 -15.5q0 -41 -2 -72.5t-4 -54.5l-4 -121q0 -4 -11 -4t-14 4q-8 131 -55 184.5t-149 53.5q-61 0 -91 -12.5t-41.5 -42 t-11.5 -86.5v-455q0 -61 9.5 -91t37 -40t84.5 -10q4 0 4 -12.5t-4 -12.5q-53 0 -84 2l-102 2l-109 -2q-29 -2 -81 -2q-6 0 -6.5 12.5zM360 975l107 491q2 8 43 19.5t65 11.5q18 0 17 -8l-209 -518q0 -4 -8 -4q-6 0 -11.5 3t-3.5 5z" />
<glyph unicode="&#x454;" horiz-adv-x="841" d="M74 379q0 131 65.5 228.5t169 149.5t211.5 52q94 0 167 -36t73 -91q0 -25 -19.5 -42t-50.5 -17t-50 17t-38 46q-27 41 -59.5 61.5t-89.5 20.5q-115 0 -179.5 -89t-64.5 -239v-20q205 0 373 18q4 0 7 -11t3 -24q0 -23 -4 -40t-13 -15q-84 16 -167.5 21.5t-194.5 5.5 q14 -145 99 -236.5t241 -91.5q125 0 209 68h2q6 0 11 -6.5t1 -10.5q-72 -63 -144.5 -93t-158.5 -30q-133 0 -223 58.5t-133 150.5t-43 195z" />
<glyph unicode="&#x455;" horiz-adv-x="692" d="M98 223q0 6 11.5 7t13.5 -5q39 -102 101.5 -155.5t144.5 -53.5q63 0 99 30t36 89q0 57 -25.5 97t-62.5 63.5t-101 56.5q-68 33 -107.5 59.5t-67 69.5t-27.5 107q0 111 83 169t195 58q82 0 150 -31q12 -4 15 -9t3 -13q0 -41 -2 -64l-2 -86q0 -4 -12.5 -4t-12.5 4 q0 43 -32.5 81t-81.5 60.5t-99 22.5q-53 0 -82.5 -27.5t-29.5 -82.5q0 -72 47 -114t139 -89q72 -37 112 -63.5t68.5 -69.5t28.5 -105q0 -104 -78 -176t-211 -72q-109 0 -196 62q-12 8 -13 24z" />
<glyph unicode="&#x456;" horiz-adv-x="559" d="M65.5 669.5q-4.5 10.5 2.5 14.5l266 123l8 2q4 0 10 -5t6 -11q0 -14 -2 -82t-2 -160v-385q0 -61 10.5 -90t37 -40t81.5 -11q6 0 6 -12.5t-6 -12.5q-47 0 -75 2l-111 2l-111 -2q-29 -2 -77 -2q-5 0 -5 12.5t5 12.5q55 0 82.5 11t38 40.5t10.5 89.5v383q0 74 -15.5 106.5 t-52.5 32.5t-92 -29h-2q-8 0 -12.5 10.5zM190 1135q0 41 24 63.5t67 22.5q41 0 63.5 -22.5t22.5 -63.5t-22.5 -63.5t-63.5 -22.5q-43 0 -67 22.5t-24 63.5z" />
<glyph unicode="&#x457;" horiz-adv-x="559" d="M47 1063q0 39 23.5 61.5t64.5 22.5t63.5 -22.5t22.5 -61.5t-22.5 -61.5t-63.5 -22.5t-64.5 22.5t-23.5 61.5zM65.5 669.5q-4.5 10.5 2.5 14.5l266 123l8 2q4 0 10 -5t6 -11q0 -14 -2 -82t-2 -160v-385q0 -61 10.5 -90t37 -40t81.5 -11q6 0 6 -12.5t-6 -12.5q-47 0 -75 2 l-111 2l-111 -2q-29 -2 -77 -2q-5 0 -5 12.5t5 12.5q55 0 82.5 11t38 40.5t10.5 89.5v383q0 74 -15.5 106.5t-52.5 32.5t-92 -29h-2q-8 0 -12.5 10.5zM340 1063q0 39 23.5 61.5t64.5 22.5t62.5 -21.5t21.5 -62.5q0 -39 -21.5 -61.5t-62.5 -22.5t-64.5 22.5t-23.5 61.5z" />
<glyph unicode="&#x458;" horiz-adv-x="526" d="M39 -555q100 43 141 137t41 273v694q0 74 -14 106.5t-49 32.5q-37 0 -95 -29h-2q-10 0 -14 10.5t4 14.5l266 123l7 2q6 0 12 -5t6 -11q0 -15 -2 -82.5t-2 -159.5v-649q0 -139 -27.5 -228.5t-89 -149t-172.5 -102.5q-4 -2 -9 9.5t-1 13.5zM172 1135q0 41 23.5 63.5 t66.5 22.5q41 0 63.5 -22.5t22.5 -63.5t-22.5 -63.5t-63.5 -22.5q-43 0 -66.5 22.5t-23.5 63.5z" />
<glyph unicode="&#x459;" horiz-adv-x="1288" d="M25 51q0 33 18 51.5t45 18.5q14 0 28.5 -3t28.5 -3q70 0 119 86t72.5 213t23.5 248q0 45 -12 67.5t-44 30.5t-95 8q-6 0 -6 11.5t6 11.5h330h352q4 0 4 -12.5t-4 -12.5q-57 0 -84 -9t-37 -39t-10 -97v-187q90 31 213 31q268 0 268 -213q0 -113 -80 -184.5t-200 -71.5 l-117 4q-94 4 -137 4l-111 -2q-31 -2 -82 -2q-6 0 -6 12.5t6 12.5q57 0 84 10t37 39.5t10 91.5v459q0 70 -4 92t-22.5 28.5t-71.5 6.5h-12q-51 0 -75 -9.5t-32 -34t-14 -81.5q-23 -197 -48.5 -322t-85 -223t-165.5 -98q-45 0 -67.5 18t-22.5 49zM760 166q0 -78 33.5 -108.5 t132.5 -30.5q188 0 188 178q0 102 -53 162.5t-162 60.5q-76 0 -139 -25v-237z" />
<glyph unicode="&#x45a;" horiz-adv-x="1390" d="M59.5 12.5q-0.5 12.5 6.5 12.5q57 0 84.5 10t37 39.5t9.5 91.5v459q0 61 -9.5 90.5t-36 40t-83.5 10.5q-6 0 -6.5 12.5t6.5 12.5q51 0 79 -3l109 -2l104 2q31 2 82 3q4 0 4 -12.5t-4 -12.5q-57 0 -84.5 -12.5t-37 -42t-9.5 -90.5v-205h437v209q0 61 -9.5 90.5t-36 40 t-84.5 10.5q-6 0 -6 12.5t6 12.5q51 0 80 -3l109 -2l104 2q31 2 82 3q4 0 4 -12.5t-4 -12.5q-57 0 -84.5 -12.5t-37 -42t-9.5 -90.5v-203q33 2 94 10q82 12 123 12q264 0 264 -190q0 -111 -79.5 -182.5t-200.5 -71.5q-31 0 -117 4q-98 4 -139 4l-111 -2q-29 -2 -80 -2 q-6 0 -6 12.5t6 12.5q57 0 84 10t37.5 39.5t10.5 91.5v209h-437v-209q0 -61 9.5 -91t37 -40t84.5 -10q4 0 4 -12.5t-4 -12.5q-53 0 -84 2l-102 2l-109 -2q-29 -2 -81 -2q-6 0 -6.5 12.5zM862 166q0 -78 33 -108.5t129 -30.5q190 0 190 176q0 92 -49 144t-149 52 q-47 0 -105 -10l-49 -6v-217z" />
<glyph unicode="&#x45b;" horiz-adv-x="1021" d="M8 1345.5q-4 10.5 4 12.5l260 127h7q8 0 13 -5t5 -12v-399h326q4 0 7 -6t3 -14t-3 -14.5t-7 -6.5h-326v-391q78 90 154.5 132t160.5 42q113 0 174.5 -63.5t61.5 -184.5v-397q0 -59 10 -89t37 -41t82 -11q6 0 6 -12.5t-6 -12.5q-47 0 -76 2l-110 2l-111 -2q-29 -2 -76 -2 q-6 0 -6 12.5t6 12.5q55 0 82 11t37 40.5t10 89.5v326q0 121 -46 179t-142 58q-63 0 -129 -33.5t-119 -93.5v-436q0 -59 10 -89t37 -41t82 -11q6 0 6 -12.5t-6 -12.5q-47 0 -76 2l-110 2l-111 -2q-29 -2 -76 -2q-6 0 -6 12.5t6 12.5q55 0 82 11t37 40.5t10 89.5v862h-157 q-4 0 -7.5 6t-3.5 15q0 8 3 14t8 6h157v156q0 74 -14 106.5t-51 32.5q-31 0 -94 -29h-5q-6 0 -10 10.5z" />
<glyph unicode="&#x45c;" horiz-adv-x="942" d="M55 12.5q0 12.5 6 12.5q57 0 84 10t36 38.5t9 92.5v459q0 63 -9 91.5t-34.5 39t-83.5 10.5q-6 0 -6 12.5t6 12.5q49 0 78 -3l111 -2l119 2q33 2 88 3q6 0 6 -12.5t-6 -12.5q-66 0 -97.5 -11.5t-43 -42t-11.5 -91.5v-195q25 0 62 4l65 2q51 0 103 98q6 12 11 21.5t9 17.5 q70 135 112 187.5t107 52.5q45 0 69.5 -20.5t24.5 -51.5q0 -33 -22.5 -55.5t-59.5 -22.5q-23 0 -47 14.5t-39 14.5q-41 0 -135 -168q-33 -61 -63 -92q59 -8 97 -46t104 -144l28 -48q41 -66 65.5 -97.5t57.5 -48.5t86 -19q4 0 4 -12.5t-4 -12.5h-227q-14 0 -19.5 7t-33 56.5 t-76.5 133.5q-51 84 -85 124.5t-70 56t-91 15.5h-33v-227q0 -61 9.5 -91t36 -40t83.5 -10q4 0 4 -12.5t-4 -12.5q-51 0 -82 2l-102 2l-111 -2q-29 -2 -80 -2q-6 0 -6 12.5zM449 975l106 491q2 8 43 19.5t66 11.5q18 0 16 -8l-209 -518q0 -4 -8 -4q-6 0 -11.5 3t-2.5 5z" />
<glyph unicode="&#x45d;" horiz-adv-x="1056" d="M59.5 12.5q-0.5 12.5 6.5 12.5q57 0 84.5 10t37 39.5t9.5 91.5v459q0 61 -9.5 90.5t-36 40t-83.5 10.5q-6 0 -6.5 12.5t6.5 12.5q51 0 79 -3l109 -2l104 2q31 2 82 3q4 0 4 -12.5t-4 -12.5q-57 0 -84.5 -12.5t-37 -42t-9.5 -90.5v-414l437 438q-2 76 -27 98.5t-103 22.5 q-6 0 -6 12.5t6 12.5q51 0 80 -3l109 -2l104 2q31 2 82 3q4 0 4 -12.5t-4 -12.5q-57 0 -84.5 -12.5t-37 -42t-9.5 -90.5v-455q0 -61 9.5 -91t37 -40t84.5 -10q4 0 4 -12.5t-4 -12.5q-53 0 -84 2l-102 2l-111 -2q-29 -2 -80 -2q-6 0 -6 12.5t6 12.5q57 0 84 10t37.5 39.5 t10.5 91.5v422l-437 -438q2 -53 12.5 -80t37 -36t81.5 -9q4 0 4 -12.5t-4 -12.5q-53 0 -84 2l-102 2l-109 -2q-29 -2 -81 -2q-6 0 -6.5 12.5zM336 1489q-2 8 16 8q27 0 67 -11t42 -20l104 -491q4 -4 -7 -7t-13 3z" />
<glyph unicode="&#x45e;" horiz-adv-x="890" d="M-72 -496q0 29 18.5 45.5t45.5 16.5t45 -6t39 -21q4 -2 23.5 -12t47.5 -10q49 0 93.5 43t94.5 144t118 280l-312 637q-47 90 -71.5 117.5t-63.5 27.5q-4 0 -4 12.5t4 12.5l70 -3q25 -2 67 -2l131 2q29 2 80 3q4 0 4 -12.5t-4 -12.5q-119 0 -118 -47q0 -12 10 -33 l270 -555l164 471q16 49 16 78q0 47 -36.5 66.5t-120.5 19.5q-4 0 -4 12.5t4 12.5q55 0 84 -3l122 -2l74 2q20 2 64 3q6 0 6 -12.5t-6 -12.5q-51 0 -88 -37t-70 -121l-250 -665q-76 -199 -142.5 -310.5t-137 -159.5t-162.5 -48q-45 0 -75 20t-30 59zM193 1141q0 59 59 59 q39 0 53 -22.5t29 -75.5q10 -43 19 -65.5t34 -40t70 -17.5q61 0 87.5 32.5t39.5 90.5q12 49 27.5 73.5t52.5 24.5q61 0 61 -61q0 -49 -38 -92t-99.5 -69t-128.5 -26q-70 0 -131.5 27t-98 71t-36.5 91z" />
<glyph unicode="&#x45f;" horiz-adv-x="1056" d="M59.5 12.5q-0.5 12.5 6.5 12.5q57 0 83.5 12t36 42t9.5 91v455q0 61 -9.5 90.5t-36 40t-83.5 10.5q-6 0 -6.5 12.5t6.5 12.5q51 0 79 -3l103 -2l106 2q31 2 82 3q4 0 4 -12.5t-4 -12.5q-55 0 -81.5 -10.5t-36 -40t-9.5 -90.5v-459q0 -68 4 -90.5t21.5 -28.5t71.5 -6h227 q55 0 73.5 6t22.5 28.5t4 94.5v455q0 63 -9 91.5t-33.5 39t-80.5 10.5q-6 0 -6 12.5t6 12.5q49 0 78 -3l100 -2l107 2q31 2 86 3q4 0 4 -12.5t-4 -12.5q-57 0 -85 -10.5t-37 -40t-9 -90.5v-459q0 -76 7 -101.5t32.5 -32.5t101.5 -7q6 0 6 -12.5t-6 -12.5h-319 q-53 0 -83 -22.5t-44.5 -81t-14.5 -164.5q0 -10 -11 -10.5t-11 10.5q0 110 -12.5 166.5t-43 79t-87.5 22.5h-299q-6 0 -6.5 12.5z" />
<glyph unicode="&#x462;" horiz-adv-x="1341" d="M53 958q8 55 18.5 179.5t10.5 187.5q0 10 12 10t12 -10q0 -45 109 -45q86 -4 162 -4l88 -2v45q0 61 -12.5 91t-48 40t-113.5 10q-4 0 -4 12.5t4 12.5q63 0 98 -2l139 -2l152 2q37 2 98 2q4 0 4 -12.5t-4 -12.5q-78 0 -115.5 -12t-51 -42t-13.5 -91v-41l84 2q102 4 164 4 q74 0 109.5 10t45.5 41q2 8 12.5 8t10.5 -8q-6 -59 -12 -180t-6 -197q0 -4 -12.5 -4t-12.5 4q-6 113 -31.5 174.5t-80 88t-150.5 26.5h-121v-534q104 14 195 14q446 0 446 -332q0 -115 -52 -206t-147.5 -142t-216.5 -51q-51 0 -125 6q-31 2 -73.5 4t-94.5 2l-139 -2 q-37 -2 -102 -2q-4 0 -4 12.5t4 12.5q78 0 113.5 10t49 39.5t13.5 91.5v1077h-133q-115 0 -172.5 -65.5t-81.5 -223.5q0 -4 -10 -4q-4 0 -9.5 3t-5.5 5zM598 166q0 -72 37 -104.5t147 -32.5q166 0 240 76.5t74 232.5q0 344 -353 344q-55 0 -145 -12v-504z" />
<glyph unicode="&#x463;" horiz-adv-x="942" d="M53 772q0 12 2 15.5t15 3.5l231 -5v439q0 74 -16.5 105.5t-53.5 31.5q-33 0 -96 -29h-4q-6 0 -9 10.5t3 12.5l262 127l8 2q6 0 12.5 -5t6.5 -12v-682l190 2q29 2 68 3q12 0 14 -3.5t2 -15.5q0 -41 -2 -72.5t-4 -54.5l-4 -123q0 -6 -11.5 -6t-11.5 6q-4 121 -58 178.5 t-142 57.5h-41v-324q90 31 211 31q270 0 270 -213q0 -113 -80 -184.5t-201 -71.5q-27 0 -112 4q-98 4 -144 4l-118 -2q-33 -2 -93 -2q-4 0 -4 12.5t4 12.5q68 0 100 10t43 39.5t11 91.5v592h-33q-90 0 -133 -55.5t-47 -180.5q0 -6 -12.5 -6t-12.5 6l-4 123q-2 23 -4 54.5 t-2 72.5zM414 166q0 -78 33.5 -108.5t130.5 -30.5q188 0 188 178q0 104 -52 163.5t-161 59.5q-74 0 -139 -22v-240z" />
<glyph unicode="&#x46a;" horiz-adv-x="1900" d="M14 12.5q0 12.5 4 12.5q72 0 128.5 35.5t110.5 110.5t132 214q86 152 124 205t85 72.5t141 19.5h107l-361 344q-131 125 -211.5 177t-171.5 52q-6 0 -6 12.5t6 12.5h1696q6 0 6 -12.5t-6 -12.5q-94 0 -192.5 -56t-214.5 -173l-338 -344h108q96 0 141.5 -18.5t83 -70.5 t125.5 -208q78 -135 131.5 -210t110.5 -111.5t129 -38.5q4 0 4 -12.5t-4 -12.5h-244q-23 0 -42 16.5t-63 88t-138 239.5q-82 145 -120 200.5t-83 78t-129 22.5h-45v-479q0 -63 12 -92t48 -39t116 -10q4 0 4 -12.5t-4 -12.5q-63 0 -100 2l-144 2l-139 -2q-37 -2 -102 -2 q-4 0 -4 12.5t4 12.5q78 0 114.5 10t50 39.5t13.5 91.5v479h-51q-84 0 -129 -21.5t-84 -76.5t-119 -199q-104 -188 -142 -253.5t-55.5 -80t-44.5 -14.5h-244q-4 0 -4 12.5zM446 1204q0 -18 23 -48t76 -85l379 -389h51l352 385q14 14 50 52t50.5 58.5t14.5 32.5q0 27 -86 27 h-807q-102 0 -103 -33z" />
<glyph unicode="&#x46b;" horiz-adv-x="1349" d="M8 12.5q0 12.5 4 12.5q49 0 86 23.5t64.5 65.5t75.5 124q49 90 78.5 127.5t65.5 52t103 14.5q20 0 107 -4l-137 119q-104 90 -220 154.5t-182 64.5q-6 0 -6 12.5t6 12.5h1245q4 0 4.5 -12.5t-4.5 -12.5q-68 0 -182.5 -64.5t-220.5 -154.5l-135 -119q82 4 106 4 q66 0 103 -14.5t65.5 -52t79.5 -127.5q45 -82 74 -124t64.5 -65.5t86.5 -23.5q4 0 4 -12.5t-4 -12.5h-206q-33 0 -129 197q-43 86 -76 125.5t-76 54t-119 12.5v-223q0 -61 10.5 -91t36 -40t82.5 -10q6 0 6 -12.5t-6 -12.5q-51 0 -82 2l-102 2l-109 -2q-29 -2 -82 -2 q-6 0 -6 12.5t6 12.5q57 0 85 10t37 39.5t9 91.5v223q-76 2 -119.5 -12.5t-76.5 -54t-74 -125.5q-53 -109 -81.5 -153t-49.5 -44h-205q-4 0 -4 12.5zM371 713q0 -23 27.5 -55.5t82.5 -86.5l154 -145l41 -2l39 2l149 137q117 111 117 150q0 37 -98 37h-416q-96 0 -96 -37z " />
<glyph unicode="&#x472;" d="M100 639q0 211 106.5 361.5t273.5 226.5t341 76q195 0 342.5 -91.5t226 -241t78.5 -317.5q0 -186 -98 -341.5t-263 -246t-357 -90.5q-191 0 -339.5 89.5t-229.5 242t-81 332.5zM256 711q0 -193 71.5 -351.5t200.5 -250t293 -91.5q140 0 251.5 68t176 199t64.5 311 q0 193 -72 342t-202 233t-304 84q-225 0 -352 -145t-127 -399zM375 569q119 156 233 156q37 0 85 -10t95 -23q147 -41 236 -41q57 0 90 20.5t66 59.5h2q6 0 10 -5t2 -9q-74 -94 -119 -125t-100 -31q-49 0 -96.5 9.5t-110.5 27.5q-68 18 -118 27.5t-105 9.5q-49 0 -75 -13.5 t-48.5 -35t-32.5 -31.5h-2q-4 0 -9 5t-3 9z" />
<glyph unicode="&#x473;" horiz-adv-x="980" d="M74 406q0 133 64.5 226t166 139t205.5 46q121 0 211 -59.5t138 -156.5t48 -206q0 -127 -59.5 -222t-158.5 -147.5t-216 -52.5q-119 0 -210 58.5t-140 158t-49 216.5zM211 469q0 -53 10 -115q33 45 75 79t83 34q39 0 115 -23q98 -29 165 -28q31 0 52.5 13t44.5 40 q-29 141 -113 225t-201 84q-110 0 -170.5 -80t-60.5 -229zM225 326q31 -139 113 -226.5t194 -87.5q113 0 174.5 80t61.5 246q0 59 -8 102q-47 -66 -79 -89t-69 -23q-43 0 -85 10t-50 12q-88 27 -155 27q-35 0 -53.5 -12.5t-43.5 -38.5z" />
<glyph unicode="&#x474;" horiz-adv-x="1376" d="M-8 1267.5q0 12.5 6 12.5l78 -2q57 -4 92 -4q82 0 172 4l86 2q6 0 6 -12.5t-6 -12.5q-129 0 -129 -73q0 -25 16 -64l430 -923q10 35 20.5 64.5t18.5 53.5q152 469 220.5 652.5t130 260.5t151.5 77q68 0 98.5 -31t30.5 -74q0 -37 -24.5 -59.5t-61.5 -22.5q-29 0 -45 10.5 t-20 12.5q-27 18 -50 18q-45 0 -88 -71.5t-101 -229.5t-192 -553l-102 -301q-2 -8 -22 -8q-18 0 -25 8l-510 1108q-35 80 -74 112.5t-100 32.5q-6 0 -6 12.5z" />
<glyph unicode="&#x475;" horiz-adv-x="905" d="M-6 778.5q0 12.5 6 12.5q41 0 63 -3l78 -2l133 2q31 2 82 3q6 0 6 -12.5t-6 -12.5q-123 0 -123 -49q0 -14 9 -31l250 -530l149 471q31 96 72 138t94 42q41 0 68.5 -20.5t27.5 -55.5q0 -27 -17.5 -47t-47.5 -20q-16 0 -38 8t-40 8q-55 0 -76 -66l-215 -612q0 -10 -23 -10 q-18 0 -22 10l-287 619q-41 88 -68.5 116.5t-68.5 28.5q-6 0 -6 12.5z" />
<glyph unicode="&#x48a;" horiz-adv-x="1574" d="M68 1267.5q0 12.5 4 12.5l106 -2q86 -4 139 -4q59 0 150 4l96 2q6 0 6 -12.5t-6 -12.5q-80 0 -116.5 -11t-49 -39.5t-12.5 -90.5v-956l883 1132q6 6 22 6q31 0 31 -14v-1116q0 -76 7 -101.5t35 -32.5t112 -7q22 -1 22 -21q0 -8 -56.5 -83t-174.5 -322q-2 -2 -6 -2 q-6 0 -10.5 4t-2.5 10q94 195 94 283q0 61 -42 83.5t-128 22.5h-161q-6 0 -6 12.5t6 12.5q80 0 116.5 10t49 38.5t12.5 92.5v944l-881 -1128q-6 -8 -24 -9q-31 0 -31 15v1126q0 61 -13.5 90t-51 40t-115.5 11q-4 0 -4 12.5zM530 1565q0 29 15.5 45t42.5 16q39 0 54 -23.5 t30 -74.5q39 -125 139 -125q57 0 94 35t51 90q14 49 31 73.5t53 24.5q57 0 58 -63q0 -47 -41 -90t-106.5 -69t-137.5 -26t-137.5 27t-105.5 70t-40 90z" />
<glyph unicode="&#x48b;" horiz-adv-x="1009" d="M10.5 691q-4.5 11 3.5 14l228 102l8 2q6 0 13 -5t7 -11v-490q0 -238 172 -237q66 0 133.5 33.5t122.5 93.5v356q0 82 -13 116.5t-48 34.5q-29 0 -70 -20h-2q-8 0 -11 11t5 14l227 102l7 2q6 0 13 -5t7 -11v-574q0 -80 18.5 -116.5t57.5 -36.5q33 0 64.5 21.5t35.5 21.5h2 q6 0 10.5 -4.5t4.5 -8.5q0 -18 -74 -151l-135 -260q-4 -4 -9 -4q-6 0 -11 4t-3 8q80 158 80 241q0 33 -12.5 49.5t-32.5 16.5q-43 0 -77 31.5t-34 118.5v8q-80 -90 -159.5 -132t-165.5 -42q-102 0 -159.5 64.5t-57.5 187.5v313q0 80 -14.5 115.5t-47.5 35.5q-29 0 -69 -20 h-2q-8 0 -12.5 11zM240 1141q0 59 59 59q39 0 53.5 -22.5t28.5 -75.5q10 -43 19.5 -65.5t34 -40t69.5 -17.5q61 0 87.5 32.5t39.5 90.5q12 49 27.5 73.5t52.5 24.5q61 0 61 -61q0 -49 -38 -92t-99.5 -69t-128.5 -26q-70 0 -131.5 27t-98 71t-36.5 91z" />
<glyph unicode="&#x48c;" horiz-adv-x="1114" d="M84 12.5q0 12.5 4 12.5q80 2 116 12t50 38.5t14 90.5v784h-168q-8 0 -8 23q0 20 8 20h168v121q0 61 -13 90t-49 39t-114 12q-6 0 -6 12.5t6 12.5l98 -2q82 -4 140 -4q59 0 149 4l101 2q4 0 4 -12.5t-4 -12.5q-80 -2 -117 -12t-50.5 -39.5t-13.5 -93.5v-117h187q8 0 8 -20 q0 -23 -8 -23h-187v-250q117 23 230 23q194 0 302.5 -78t108.5 -258q0 -117 -52 -207t-146 -139t-215 -49q-53 0 -127 6q-29 2 -73 4t-97 2l-135 -2q-39 -2 -107 -2q-4 0 -4 12.5zM399 166q0 -72 37 -104.5t150 -32.5q166 0 238.5 74.5t72.5 234.5q0 184 -82 264t-237 80 q-80 0 -179 -20v-496z" />
<glyph unicode="&#x48d;" horiz-adv-x="839" d="M22.5 1345.5q-4.5 10.5 4.5 12.5l256 125l10 2q4 0 11 -5t7 -12v-677h172q10 0 11 -21q0 -23 -11 -22h-172v-314q90 31 211 31q271 0 271 -213q0 -113 -80 -184.5t-201 -71.5q-31 0 -117 4q-98 4 -139 4l-109 -2q-29 -2 -81 -2q-6 0 -6.5 12.5t6.5 12.5q57 0 84.5 10 t37 39.5t9.5 91.5v582h-142q-10 0 -10 22q0 8 3 14.5t7 6.5h142v432q0 74 -15.5 106.5t-52.5 32.5q-29 0 -92 -27h-4q-6 0 -10.5 10.5zM311 166q0 -78 33 -108.5t129 -30.5q191 0 191 178q0 104 -52.5 163.5t-160.5 59.5q-74 0 -140 -22v-240z" />
<glyph unicode="&#x48e;" horiz-adv-x="1112" d="M82 12.5q0 12.5 4 12.5q78 0 114 10t48 39.5t12 91.5v948q0 61 -12 90t-48 40t-114 11q-4 0 -4 12.5t4 12.5l102 -2q86 -4 138 -4q51 0 114 6q25 0 78 3t92 3q188 0 302 -84t114 -256q0 -145 -79 -241.5t-202 -139.5l127 -221q4 -6 -18.5 -19.5t-26.5 -5.5l-133 232 q-57 -14 -121 -14q-59 0 -98 10q-6 0 -6 10q0 6 3 12t7 4q33 -8 74 -8q66 0 121 21l-127 217v4q0 10 19.5 20.5t25.5 1.5l129 -221q72 41 112.5 116t40.5 183q0 162 -88 255t-225 93q-74 0 -106.5 -8t-47 -37.5t-14.5 -99.5v-936q0 -66 17.5 -95.5t67.5 -41.5t159 -12 q6 0 6 -12.5t-6 -12.5q-84 0 -131 2l-178 2l-138 -2q-39 -2 -104 -2q-4 0 -4 12.5z" />
<glyph unicode="&#x48f;" horiz-adv-x="1034" d="M6 778.5q0 12.5 6 12.5h248q25 0 32 -10.5t7 -43.5v-96q88 90 172 133t172 43q84 0 155.5 -45t114.5 -131t43 -201q0 -164 -76.5 -272.5t-195.5 -157.5l125 -217v-2q0 -8 -19.5 -19.5t-25.5 -2.5l-129 223q-61 -18 -119 -19q-66 0 -115 11.5t-102 42.5v-424 q0 -61 15.5 -90t58.5 -40.5t131 -11.5q6 0 6 -12t-6 -12q-72 0 -113 2l-149 2l-121 -2q-31 -2 -86 -2q-6 0 -6 12t6 12q66 0 96.5 11.5t41.5 40t11 90.5v1022q0 59 -14 88.5t-50 41t-108 11.5q-6 0 -6 12.5zM299 147q55 -63 119.5 -97t159.5 -34q12 0 40 4l-135 232v2 q0 10 20.5 21.5t24.5 3.5l140 -242q73 35 115 123t42 217q0 172 -75.5 267t-194.5 95q-72 0 -133.5 -34.5t-122.5 -100.5v-457z" />
<glyph unicode="&#x490;" horiz-adv-x="1032" d="M82 12.5q0 12.5 4 12.5q78 0 115 10t50 39.5t13 91.5v948q0 61 -13 90t-49 40t-114 11q-4 0 -4 12.5t4 12.5h598q94 0 147.5 22.5t82 77t42.5 156.5q2 8 14.5 6t10.5 -8l-51 -432q0 -4 -10 -4q-14 0 -15 8q2 78 -44 104.5t-173 26.5h-127q-70 0 -104.5 -10t-48 -37 t-13.5 -78v-938q0 -66 17.5 -95.5t69 -41.5t161.5 -12q6 0 6 -12.5t-6 -12.5q-84 0 -131 2l-184 2l-140 -2q-37 -2 -104 -2q-4 0 -4 12.5z" />
<glyph unicode="&#x491;" horiz-adv-x="751" d="M59 12.5q0 12.5 7 12.5q57 0 84.5 10t37 39.5t9.5 91.5v459q0 61 -9.5 90.5t-36 40t-83.5 10.5q-6 0 -6.5 12.5t6.5 12.5h370q88 0 137.5 23.5t74 77.5t36.5 155q2 8 13.5 7t11.5 -10l-47 -426q0 -6 -11.5 -6t-11.5 9q2 82 -41 110.5t-158 28.5q-80 0 -105.5 -27.5 t-25.5 -111.5v-455q0 -61 9.5 -91t37 -40t84.5 -10q4 0 4 -12.5t-4 -12.5q-53 0 -84 2l-102 2l-109 -2q-29 -2 -81 -2q-7 0 -7 12.5z" />
<glyph unicode="&#x492;" horiz-adv-x="1050" d="M82 12.5q0 12.5 4 12.5q78 0 115 10t50 39.5t13 91.5v450h-137q-8 0 -8 21q0 20 8 20h137v457q0 61 -13 90t-49 40t-114 11q-4 0 -4 12.5t4 12.5h866q20 0 21 -18l4 -269q0 -6 -12.5 -6t-12.5 6q-8 115 -69.5 179.5t-159.5 64.5h-162q-70 0 -104.5 -10t-48 -37t-13.5 -78 v-455h234q4 0 7 -6t3 -14t-3 -14.5t-7 -6.5h-234v-442q0 -66 17.5 -95.5t69 -41.5t161.5 -12q6 0 6 -12.5t-6 -12.5q-84 0 -131 2l-184 2l-140 -2q-37 -2 -104 -2q-4 0 -4 12.5z" />
<glyph unicode="&#x493;" horiz-adv-x="761" d="M59.5 12.5q-0.5 12.5 6.5 12.5q57 0 84.5 10t37 39.5t9.5 91.5v203h-101q-4 0 -7 6t-3 14t3 14.5t7 6.5h101v215q0 61 -9.5 90.5t-36 40t-83.5 10.5q-6 0 -6.5 12.5t6.5 12.5h610q12 0 14 -3.5t2 -15.5q0 -41 -2 -72.5t-4 -54.5l-4 -121q0 -4 -11 -4t-14 4 q-8 131 -55 184.5t-149 53.5q-61 0 -91 -12.5t-41.5 -42t-11.5 -86.5v-211h150q10 0 10 -21q0 -20 -10 -20h-150v-203q0 -61 9.5 -91t37 -40t84.5 -10q4 0 4 -12.5t-4 -12.5q-53 0 -84 2l-102 2l-109 -2q-29 -2 -81 -2q-6 0 -6.5 12.5z" />
<glyph unicode="&#x494;" horiz-adv-x="1243" d="M68 12.5q0 12.5 4 12.5q78 0 114.5 10t50 39.5t13.5 91.5v948q0 61 -13.5 90t-49 40t-113.5 11q-4 0 -4 12.5t4 12.5h866q18 0 18 -18l7 -269q0 -6 -12.5 -6t-12.5 6q-10 117 -70.5 180.5t-158.5 63.5h-164q-68 0 -102.5 -10t-48 -37t-13.5 -78v-469q94 82 186.5 124 t192.5 42q112 0 198.5 -50t133.5 -140.5t47 -206.5q0 -109 -43 -209.5t-125 -164t-193 -63.5q-84 0 -131 35t-47 88q0 31 19.5 51.5t54.5 20.5q59 0 80 -70q14 -49 30.5 -66.5t53.5 -17.5q84 0 125 82t41 219q0 193 -87.5 303.5t-232.5 110.5q-156 0 -303 -123v-434 q0 -66 10 -95.5t39 -41.5t92 -12q6 0 6 -12.5t-6 -12.5q-57 0 -88 2l-121 2l-141 -2q-37 -2 -102 -2q-4 0 -4 12.5z" />
<glyph unicode="&#x495;" horiz-adv-x="843" d="M59.5 12.5q-0.5 12.5 6.5 12.5q57 0 84.5 10t37 39.5t9.5 91.5v459q0 61 -9.5 90.5t-36 40t-83.5 10.5q-6 0 -6.5 12.5t6.5 12.5h610q12 0 14 -3.5t2 -15.5q0 -35 -2 -62.5t-4 -43.5l-4 -103q0 -6 -11 -6t-14 6q-8 109 -55 154t-149 45q-61 0 -91 -12.5t-41.5 -42 t-11.5 -86.5v-240q102 47 215 47q129 0 187.5 -72.5t58.5 -185.5q0 -150 -91 -303.5t-218 -261.5l-4 -2q-6 0 -11.5 7t-1.5 11q68 88 109 151.5t66.5 145.5t25.5 184q0 274 -188 275q-68 0 -148 -29v-182q0 -61 9.5 -91t37 -40t84.5 -10q4 0 4 -12.5t-4 -12.5q-53 0 -84 2 l-102 2l-109 -2q-29 -2 -81 -2q-6 0 -6.5 12.5z" />
<glyph unicode="&#x496;" horiz-adv-x="2029" d="M14 12.5q0 12.5 4 12.5q78 2 138.5 39.5t118 108.5t151.5 212q109 166 153 218t101 69l-240 354q-86 127 -169 178t-197 51q-4 0 -4 12.5t4 12.5l76 -2q74 -4 141 -4q68 0 149 4l95 2q6 0 6 -12.5t-6 -12.5q-57 0 -83 -11t-26 -38q0 -25 21.5 -65.5t68.5 -118.5l207 -344 q20 4 72 4l112 -2q12 -2 43 -2v436q0 59 -17.5 89t-58 41t-120.5 11q-4 0 -4 12.5t4 12.5l110 -2q94 -4 148 -4q59 0 157 4l109 2q4 0 4 -12.5t-4 -12.5q-78 0 -120 -12t-59.5 -43t-17.5 -90v-432q127 4 152 4q51 0 72 -2l206 340q47 76 69 119t22 67q0 27 -25 38t-82 11 q-6 0 -6 12.5t6 12.5l94 -2q82 -4 150 -4t141 4l76 2q4 0 4 -12.5t-4 -12.5q-115 0 -198 -51t-169 -178l-241 -354q55 -14 96 -61.5t135 -188.5l25 -37q94 -139 151 -211t113.5 -109.5t124.5 -39.5q18 0 21 -3.5t3 -21.5q0 -35 -2 -59q-4 -102 -4 -324q0 -10 -11 -10t-11 10 q0 186 -64.5 284.5t-179.5 98.5q-23 0 -40 15.5t-73.5 99.5t-150.5 229t-137.5 201.5t-89.5 78t-128 21.5l-45 -2v-477q0 -63 12.5 -92t48.5 -39t115 -10q6 0 6.5 -12.5t-6.5 -12.5q-63 0 -100 2l-145 2l-140 -2q-37 -2 -102 -2q-4 0 -4 12.5t4 12.5q80 0 117 10t50 39.5 t13 91.5v475q-37 4 -51 4q-80 0 -126 -21.5t-90 -76.5t-138 -199l-41 -65q-76 -119 -123 -187.5t-63.5 -82t-41.5 -13.5h-258q-4 0 -4 12.5z" />
<glyph unicode="&#x497;" horiz-adv-x="1370" d="M-4 12.5q0 12.5 6 12.5q51 0 84 17t56.5 49t62.5 95l33 52q68 106 105.5 144t96.5 46q-37 37 -65 92q-94 168 -135 168q-14 0 -39 -14.5t-47 -14.5q-37 0 -58.5 23t-21.5 55q0 31 23.5 51.5t70.5 20.5q51 0 87 -30.5t63.5 -79t87.5 -169.5q51 -98 104 -98q45 0 117 -6 v195q0 63 -10.5 92.5t-42 41t-99.5 11.5q-6 0 -6 12.5t6 12.5l107 -3q35 -2 102 -2q68 0 100 2l111 3q6 0 6 -12.5t-6 -12.5q-68 0 -99.5 -11.5t-42 -40t-10.5 -89.5v-199q68 6 97 6q51 0 102 98l21 39q47 94 75.5 140.5t63.5 73t82 26.5q43 0 67.5 -20.5t24.5 -51.5 q0 -33 -21.5 -55.5t-58.5 -22.5q-25 0 -49.5 14.5t-36.5 14.5q-43 0 -137 -168q-35 -63 -64 -92q66 -8 105 -45t108 -145q10 -16 54.5 -88t85.5 -98.5t92 -26.5q16 0 19 -3.5t3 -21.5l-2 -45q-10 -98 -10 -223q0 -10 -12.5 -10.5t-12.5 10.5q0 129 -54 198.5t-155 69.5 q-8 0 -16 11.5t-24 37.5q-23 45 -84 148q-51 86 -84 125.5t-67 55t-85 15.5h-27v-227q0 -61 9.5 -91t37 -40t84.5 -10q4 0 4.5 -12.5t-4.5 -12.5q-53 0 -83 2l-107 2l-106 -2q-29 -2 -80 -2q-6 0 -6 12.5t6 12.5q57 0 83.5 10t36 39.5t9.5 91.5v227h-25q-55 0 -90 -15.5 t-68.5 -55t-85.5 -125.5l-82 -144q-23 -41 -28.5 -47t-20.5 -6h-225q-6 0 -6 12.5z" />
<glyph unicode="&#x498;" horiz-adv-x="1028" d="M117 328q0 6 11 8t13 -4q29 -166 133.5 -245t229.5 -79q137 0 203.5 92.5t66.5 229.5q0 166 -93 251t-269 85q-8 0 -8.5 12t8.5 12q160 0 240.5 78t80.5 213t-67.5 215t-180.5 80q-106 0 -189 -79t-124 -232q0 -4 -8 -4q-4 0 -9 3t-5 5l28 231q4 25 8 33t23 14 q158 55 303 56q174 0 267 -80t93 -199q0 -113 -80.5 -206t-185.5 -130q144 -10 233 -98t89 -223q0 -131 -81 -226.5t-216 -138.5q-109 -33 -109 -385q0 -10 -12 -10t-12 10q0 186 -28 272t-81 93q-66 6 -125 24.5t-94 46.5q-18 10 -22.5 17.5t-6.5 29.5z" />
<glyph unicode="&#x499;" horiz-adv-x="727" d="M61 580l64 254q0 4 8 4q6 0 12.5 -3.5t4.5 -5.5q-4 -16 -5 -22q0 -20 11.5 -29.5t23.5 -9.5t31.5 7t28.5 9q39 16 71.5 24.5t73.5 8.5q115 0 175.5 -52t60.5 -128q0 -66 -50.5 -119t-136.5 -82q105 -8 161 -60t56 -136q0 -88 -53 -157t-135 -91q-53 -16 -77 -72.5 t-24 -187.5q0 -10 -11 -10.5t-11 10.5q0 131 -22.5 188t-75.5 70q-88 20 -174 92l-2 4q0 6 8 11t12 1q41 -35 97.5 -53t117.5 -18q104 0 157.5 57t53.5 147q0 88 -57.5 134.5t-186.5 46.5q-6 0 -8 12t8 12q119 2 170 42t51 116q0 90 -40.5 136t-131.5 46q-152 0 -233 -201 q-2 -4 -13.5 -2t-9.5 7z" />
<glyph unicode="&#x49a;" horiz-adv-x="1345" d="M66 12.5q0 12.5 4 12.5q78 0 114.5 10t50 39.5t13.5 91.5v948q0 61 -12.5 90t-49 40t-114.5 11q-4 0 -4 12.5t4 12.5l100 -2q86 -4 139 -4q59 0 150 4l98 2q4 0 4 -12.5t-4 -12.5q-78 0 -114.5 -12t-50 -42t-13.5 -91v-432q111 4 137 4h39l248 346q92 127 92 176 q0 27 -25.5 39t-78.5 12q-4 0 -4.5 12.5t4.5 12.5l88 -2q78 -4 145 -4q70 0 143 4l74 2q6 0 6 -12.5t-6 -12.5q-106 0 -188 -52t-176 -177l-275 -350q53 -8 92 -37t76 -77t129 -177q104 -150 155.5 -214.5t112 -105t138.5 -40.5q16 0 19 -3.5t3 -21.5v-59q-4 -102 -4 -324 q0 -10 -12.5 -10t-12.5 10q0 186 -63 284.5t-176 98.5q-27 0 -43.5 12.5t-66.5 79t-130 180.5q-27 41 -49 72q-100 143 -145 198.5t-92.5 79t-126.5 23.5q-18 0 -27 -2v-477q0 -61 13.5 -91t49 -40t115.5 -10q4 0 4 -12.5t-4 -12.5q-63 0 -100 2l-148 2l-139 -2 q-37 -2 -102 -2q-4 0 -4 12.5z" />
<glyph unicode="&#x49b;" horiz-adv-x="954" d="M55 12.5q0 12.5 6 12.5q57 0 84 10t36 38.5t9 92.5v459q0 63 -9 91.5t-34.5 39t-83.5 10.5q-6 0 -6 12.5t6 12.5q49 0 78 -3l111 -2l104 2q31 2 80 3q4 0 4 -12.5t-4 -12.5q-57 0 -83.5 -12.5t-36 -42t-9.5 -90.5v-195q115 6 160 4q92 158 149.5 238t98.5 110.5t86 30.5 q41 0 68.5 -19.5t27.5 -52.5q0 -31 -21.5 -53t-58.5 -22q-27 0 -47 14q-29 12 -49 12q-25 0 -47.5 -17.5t-61.5 -71.5t-114 -173q43 -6 72.5 -35t97.5 -119l24 -34q25 -33 35 -50q70 -94 108.5 -128.5t98.5 -34.5q14 0 17 -3.5t3 -21.5l-2 -45q-10 -98 -10 -223 q0 -10 -11 -10.5t-11 10.5q0 129 -53.5 198.5t-151.5 69.5q-10 0 -14.5 3t-16.5 24q-35 63 -111 170q-74 102 -104.5 137t-63 47t-98.5 10v-225q0 -61 9.5 -91t36 -40t83.5 -10q4 0 4 -12.5t-4 -12.5q-51 0 -82 2l-102 2l-111 -2q-29 -2 -80 -2q-6 0 -6 12.5z" />
<glyph unicode="&#x49c;" horiz-adv-x="1437" d="M66 12.5q0 12.5 4 12.5q78 0 114.5 10t50 39.5t13.5 91.5v948q0 61 -12.5 90t-49 40t-114.5 11q-4 0 -4 12.5t4 12.5l100 -2q86 -4 139 -4q59 0 150 4l98 2q4 0 4 -12.5t-4 -12.5q-78 0 -114.5 -12t-50 -42t-13.5 -91v-432q61 2 166 2v324q0 10 26 10q8 0 16.5 -3t8.5 -7 v-322h70h32l222 346q68 102 67 156q0 39 -34.5 55t-108.5 16q-6 0 -6 12.5t6 12.5l100 -2q98 -4 172 -4q66 0 139 4l78 2q4 0 4 -12.5t-4 -12.5q-106 0 -179 -50t-163 -179l-248 -350q63 -12 105.5 -57.5t128.5 -172.5l41 -61q29 -41 41 -61q82 -119 128 -176.5t101.5 -90 t128.5 -32.5q4 0 4 -12.5t-4 -12.5h-260q-20 0 -31.5 6t-36 42t-65.5 97l-135 199l-43 64q-66 96 -98.5 138t-67.5 66.5t-84 30.5v-334q0 -8 -25 -8q-27 0 -26 8v336q-51 0 -166 -4v-475q0 -61 13.5 -91t49 -40t115.5 -10q4 0 4 -12.5t-4 -12.5q-63 0 -100 2l-148 2l-139 -2 q-37 -2 -102 -2q-4 0 -4 12.5z" />
<glyph unicode="&#x49d;" horiz-adv-x="1026" d="M55 12.5q0 12.5 6 12.5q57 0 84 10t36 38.5t9 92.5v459q0 63 -9 91.5t-34.5 39t-83.5 10.5q-6 0 -6 12.5t6 12.5q49 0 78 -3l111 -2l104 2q31 2 80 3q4 0 4 -12.5t-4 -12.5q-57 0 -83.5 -12.5t-36 -42t-9.5 -90.5v-193q90 4 119 4v193q0 10 23 10q20 0 20 -10v-191 q55 0 76 -2q82 162 131 241t89 107.5t89 28.5t73.5 -20.5t24.5 -51.5t-20.5 -52t-54.5 -21q-18 0 -48 12q-29 12 -53 12q-23 0 -42 -15.5t-55 -71.5t-99 -175q47 -12 84.5 -51t105.5 -137l35 -52q41 -63 65.5 -95t58.5 -49t85 -17q6 0 6 -12.5t-6 -12.5h-228q-14 0 -19 6 t-26 43l-92 148q-59 90 -98 131t-82 55v-201q0 -4 -6 -7t-14 -3q-23 0 -23 10v209q-14 2 -45 2q-45 0 -74 -2v-225q0 -61 9.5 -91t36 -40t83.5 -10q4 0 4 -12.5t-4 -12.5q-51 0 -82 2l-102 2l-111 -2q-29 -2 -80 -2q-6 0 -6 12.5z" />
<glyph unicode="&#x49e;" horiz-adv-x="1345" d="M66 12.5q0 12.5 4 12.5q78 0 114.5 10t50 39.5t13.5 91.5v784h-168q-8 0 -8 23q0 20 8 20h168v121q0 61 -12.5 90t-49 40t-114.5 11q-4 0 -4 12.5t4 12.5l100 -2q86 -4 139 -4q59 0 150 4l98 2q4 0 4 -12.5t-4 -12.5q-78 0 -114.5 -12t-50 -42t-13.5 -91v-117h192 q4 0 7.5 -6t3.5 -14q0 -23 -11 -23h-192v-272q111 4 137 4h39l248 346q92 127 92 176q0 27 -25.5 39t-78.5 12q-4 0 -4.5 12.5t4.5 12.5l88 -2q78 -4 145 -4q70 0 143 4l74 2q6 0 6 -12.5t-6 -12.5q-106 0 -188 -52t-176 -177l-275 -350q49 -8 85 -33t73 -69t108 -146 l31 -43q96 -135 155.5 -207t125 -111.5t145.5 -41.5q4 0 4 -12.5t-4 -12.5h-258q-29 0 -50.5 15.5t-70.5 81t-176 247.5q-100 143 -145 198.5t-92.5 79t-126.5 23.5q-18 0 -27 -2v-477q0 -61 13.5 -91t49 -40t115.5 -10q4 0 4 -12.5t-4 -12.5q-63 0 -100 2l-148 2l-139 -2 q-37 -2 -102 -2q-4 0 -4 12.5z" />
<glyph unicode="&#x49f;" horiz-adv-x="944" d="M8 1345.5q-4 10.5 4 12.5l260 127h7q8 0 13 -5t5 -12v-399h326q4 0 7 -6t3 -14t-3 -14.5t-7 -6.5h-326v-602q25 0 61 4l66 2q51 0 102 98q59 119 88 168.5t66 80t88 30.5q43 0 67.5 -20.5t24.5 -51.5q0 -33 -21.5 -55.5t-58.5 -22.5q-23 0 -48 14.5t-40 14.5 q-41 0 -135 -168q-33 -61 -63 -92q59 -8 97 -46t103 -144l33 -52q39 -63 62.5 -95t57.5 -49t85 -17q6 0 6 -12.5t-6 -12.5h-225q-14 0 -20.5 7t-34 56.5t-77.5 133.5q-51 84 -84.5 124.5t-69.5 56t-91 15.5q-20 0 -33 -2v-225q0 -59 10 -89t37 -41t82 -11q6 0 6 -12.5 t-6 -12.5q-47 0 -76 2l-110 2l-111 -2q-29 -2 -76 -2q-6 0 -6 12.5t6 12.5q55 0 82 11t37 40.5t10 89.5v862h-157q-4 0 -7.5 6t-3.5 15q0 8 3 14t8 6h157v156q0 74 -14 106.5t-51 32.5q-20 0 -53 -13.5t-41 -15.5h-5q-6 0 -10 10.5z" />
<glyph unicode="&#x4a0;" horiz-adv-x="1554" d="M47 961q8 74 16.5 188.5t8.5 175.5q0 10 11 10t11 -10q0 -23 21.5 -35t70.5 -14q66 -2 332 -2q57 0 152 4l100 2q4 0 4 -12.5t-4 -12.5q-78 0 -116 -12t-51 -42t-13 -91v-432q106 4 135 4h41l248 346q92 127 92 176q0 27 -25.5 39t-79.5 12q-6 0 -6 12.5t6 12.5l84 -2 q82 -4 150 -4t141 4l76 2q4 0 4 -12.5t-4 -12.5q-109 0 -190.5 -52t-176.5 -177l-272 -350q53 -8 92 -37t76 -77t129 -177q96 -137 155.5 -208t124 -110.5t146.5 -41.5q4 0 4 -12.5t-4 -12.5h-260q-29 0 -49.5 15.5t-71.5 83t-176 245.5q-98 141 -144.5 197.5t-93.5 80 t-125 23.5q-16 0 -26 -2v-477q0 -63 12 -92t48 -39t116 -10q4 0 4 -12.5t-4 -12.5q-66 0 -100 2l-146 2l-139 -2q-37 -2 -105 -2q-4 0 -4 12.5t4 12.5q80 0 117 10t50.5 39.5t13.5 91.5v948q0 66 -7.5 90.5t-30 32.5t-81.5 8q-121 0 -186.5 -67.5t-81.5 -216.5 q0 -4 -11.5 -4.5t-11.5 4.5z" />
<glyph unicode="&#x4a1;" horiz-adv-x="1062" d="M41 829q0 10 12.5 10.5t12.5 -10.5q0 -29 46 -36t144 -7q78 0 129 2l186 3q4 0 4 -12.5t-4 -12.5q-68 0 -100.5 -12.5t-43.5 -42t-11 -90.5v-195q20 0 61 4l68 2q29 0 52.5 25.5t47.5 72.5q59 119 88 168.5t66 80t88 30.5q45 0 68.5 -20.5t23.5 -51.5q0 -33 -21.5 -55.5 t-58.5 -22.5q-23 0 -47.5 14.5t-38.5 14.5q-41 0 -135 -168q-33 -61 -66 -92q59 -8 97.5 -46t105.5 -144l33 -52q39 -63 62.5 -95t56 -49t84.5 -17q6 0 6 -12.5t-6 -12.5h-224q-14 0 -21 7t-35 56.5t-77 133.5q-51 86 -85 125.5t-69.5 55t-90.5 15.5q-20 0 -33 -2v-225 q0 -61 10 -91t36.5 -40t84.5 -10q4 0 4 -12.5t-4 -12.5q-53 0 -82 2l-103 2l-106 -2q-31 -2 -86 -2q-6 0 -6 12.5t6 12.5q59 0 86 10t37 39.5t10 91.5v459q0 57 -4 81.5t-19.5 34t-52.5 9.5q-76 0 -114.5 -40t-44.5 -145q0 -4 -12.5 -4t-12.5 4z" />
<glyph unicode="&#x4a2;" horiz-adv-x="1554" d="M68 12.5q0 12.5 4 12.5q78 0 115.5 10t51 39.5t13.5 91.5v948q0 61 -13.5 90t-50 40t-114.5 11q-4 0 -4 12.5t4 12.5l104 -2q86 -4 137 -4q59 0 150 4l98 2q4 0 4 -12.5t-4 -12.5q-78 0 -115.5 -12t-51 -42t-13.5 -91v-422h786v422q0 61 -13 91t-50 42t-117 12 q-6 0 -6 12.5t6 12.5l98 -2q90 -4 150 -4q55 0 141 4l101 2q6 0 6 -12.5t-6 -12.5q-78 0 -115 -11t-50.5 -39.5t-13.5 -90.5v-948q0 -76 8.5 -101.5t36 -32.5t111.5 -7q14 0 17.5 -3.5t3.5 -21.5v-59q-4 -102 -4 -324q0 -10 -12.5 -10t-12.5 10q0 209 -67.5 296t-229.5 87 h-162q-6 0 -6 12.5t6 12.5q80 0 117 10t50 39.5t13 91.5v479h-786v-479q0 -61 13.5 -91t50 -40t116.5 -10q4 0 4 -12.5t-4 -12.5q-63 0 -100 2l-148 2l-141 -2q-37 -2 -102 -2q-4 0 -4 12.5z" />
<glyph unicode="&#x4a3;" horiz-adv-x="1056" d="M59.5 12.5q-0.5 12.5 6.5 12.5q57 0 84.5 10t37 39.5t9.5 91.5v459q0 61 -9.5 90.5t-36 40t-83.5 10.5q-6 0 -6.5 12.5t6.5 12.5q51 0 79 -3l109 -2l104 2q31 2 82 3q4 0 4 -12.5t-4 -12.5q-57 0 -84.5 -12.5t-37 -42t-9.5 -90.5v-205h437v209q0 61 -9.5 90.5t-36 40 t-84.5 10.5q-6 0 -6 12.5t6 12.5q51 0 80 -3l109 -2l104 2q31 2 82 3q4 0 4 -12.5t-4 -12.5q-57 0 -84.5 -12.5t-37 -42t-9.5 -90.5v-455q0 -82 4 -104.5t25.5 -29.5t91.5 -7q16 0 18.5 -3.5t2.5 -21.5l-3 -45q-10 -98 -10 -223q0 -10 -11 -10.5t-11 10.5q0 147 -63.5 207.5 t-176.5 60.5h-113q-6 0 -6 12.5t6 12.5q57 0 84 10t37.5 39.5t10.5 91.5v209h-437v-209q0 -61 9.5 -91t37 -40t84.5 -10q4 0 4 -12.5t-4 -12.5q-53 0 -84 2l-102 2l-109 -2q-29 -2 -81 -2q-6 0 -6.5 12.5z" />
<glyph unicode="&#x4a4;" horiz-adv-x="1814" d="M68 12.5q0 12.5 4 12.5q78 0 115.5 10t51 39.5t13.5 91.5v948q0 61 -13.5 90t-50 40t-114.5 11q-4 0 -4 12.5t4 12.5l104 -2q86 -4 137 -4q59 0 150 4l98 2q4 0 4 -12.5t-4 -12.5q-78 0 -115.5 -12t-51 -42t-13.5 -91v-422h688v426q0 61 -12 90t-48 40t-114 11 q-4 0 -4 12.5t4 12.5h821q20 0 21 -18l4 -269q0 -6 -12.5 -6t-12.5 6q-10 117 -69.5 180.5t-159.5 63.5h-121q-68 0 -102.5 -10t-48 -37t-13.5 -78v-938q0 -66 17.5 -95.5t68.5 -41.5t162 -12q4 0 4 -12.5t-4 -12.5q-84 0 -131 2l-184 2l-140 -2q-37 -2 -104 -2 q-4 0 -4 12.5t4 12.5q78 0 114.5 10t50 39.5t13.5 91.5v479h-688v-479q0 -61 13.5 -91t50 -40t116.5 -10q4 0 4 -12.5t-4 -12.5q-63 0 -100 2l-148 2l-141 -2q-37 -2 -102 -2q-4 0 -4 12.5z" />
<glyph unicode="&#x4a5;" horiz-adv-x="1312" d="M59.5 12.5q-0.5 12.5 6.5 12.5q57 0 84.5 10t37 39.5t9.5 91.5v459q0 61 -9.5 90.5t-36 40t-83.5 10.5q-6 0 -6.5 12.5t6.5 12.5q51 0 79 -3l109 -2l104 2q31 2 82 3q4 0 4 -12.5t-4 -12.5q-57 0 -84.5 -12.5t-37 -42t-9.5 -90.5v-205h437v209q0 61 -9.5 90.5t-36 40 t-84.5 10.5q-6 0 -6 12.5t6 12.5h611q12 0 14 -3.5t2 -15.5q0 -41 -2 -72.5t-4 -54.5l-4 -121q0 -4 -11.5 -4t-13.5 4q-8 131 -55 184.5t-149 53.5q-61 0 -91 -12.5t-41.5 -42t-11.5 -86.5v-455q0 -61 9.5 -91t37 -40t84.5 -10q4 0 4 -12.5t-4 -12.5q-53 0 -84 2l-102 2 l-109 -2q-29 -2 -82 -2q-6 0 -6 12.5t6 12.5q57 0 85 10t37.5 39.5t9.5 91.5v209h-437v-209q0 -61 9.5 -91t37 -40t84.5 -10q4 0 4 -12.5t-4 -12.5q-53 0 -84 2l-102 2l-109 -2q-29 -2 -81 -2q-6 0 -6.5 12.5z" />
<glyph unicode="&#x4a8;" horiz-adv-x="1615" d="M100 639q0 213 107.5 365.5t281.5 234.5q6 2 11.5 -8t1.5 -14q-246 -135 -246 -500q0 -197 72.5 -356.5t204 -251t296.5 -91.5q139 0 252 66q-236 100 -379 289.5t-143 414.5q0 147 62.5 264t170 184t240.5 67q147 0 257 -82t168.5 -214.5t58.5 -283.5q0 -190 -92.5 -354 t-249.5 -267q160 -74 331 -73q4 0 4 -14.5t-4 -14.5q-205 0 -385 70q-176 -94 -366 -95q-193 0 -341.5 89.5t-230.5 242t-82 332.5zM715 872q0 -251 114.5 -449t307.5 -302q104 80 163.5 219t59.5 324q0 172 -51.5 307t-140.5 210.5t-197 75.5q-127 0 -191.5 -100 t-64.5 -285z" />
<glyph unicode="&#x4a9;" horiz-adv-x="1040" d="M74 406q0 145 74.5 244.5t193.5 144.5q6 2 12 -9.5t-2 -15.5q-70 -31 -107.5 -108.5t-37.5 -196.5q0 -121 46 -225.5t127 -167t181 -62.5q51 0 96 17q-123 82 -191.5 197.5t-68.5 242.5q0 109 39 188.5t101.5 120.5t128.5 41q90 0 157.5 -53t104.5 -139t37 -183 q0 -139 -62.5 -245.5t-167.5 -163.5q80 -63 185 -96q2 -1 2 -7t-5.5 -12t-7.5 -4q-121 33 -223 94q-88 -35 -182 -35q-127 0 -225.5 59.5t-151.5 158t-53 215.5zM518 524q0 -139 48 -262t145 -209q121 90 120 338q0 109 -26.5 197t-73.5 139t-106 51q-57 0 -82 -60.5 t-25 -193.5z" />
<glyph unicode="&#x4aa;" horiz-adv-x="1370" d="M100 651q0 188 104.5 338t276.5 232t369 82q98 0 198.5 -18.5t159.5 -53.5q18 -8 23.5 -17.5t7.5 -31.5l23 -230q0 -6 -10.5 -7t-12.5 5q-45 158 -167 232.5t-302 74.5q-156 0 -272.5 -68.5t-180 -193.5t-63.5 -288q0 -190 79 -352t213 -256.5t290 -94.5q147 0 255.5 81 t165.5 249q0 6 9 6q6 0 11 -2t5 -6l-29 -232q-4 -25 -9 -32t-23 -15q-119 -53 -265 -69q-55 -6 -86.5 -31t-50 -102.5t-18.5 -233.5q0 -10 -11.5 -10t-11.5 10q0 195 -29.5 277.5t-89.5 95.5q-188 35 -314 136t-185.5 239.5t-59.5 285.5z" />
<glyph unicode="&#x4ab;" horiz-adv-x="841" d="M74 379q0 131 65.5 228.5t169 149.5t211.5 52q94 0 167 -36t73 -89q0 -27 -19.5 -46.5t-52.5 -19.5q-55 0 -90 68q-27 41 -57.5 61.5t-87.5 20.5q-115 0 -179.5 -89t-64.5 -239q0 -172 86 -282.5t258 -110.5q125 0 209 68h2q6 0 11 -6.5t1 -10.5q-98 -84 -192 -108 q-53 -12 -77 -69.5t-24 -188.5q0 -10 -12 -10.5t-12 10.5q0 131 -22.5 188t-71.5 68q-143 33 -217 143.5t-74 247.5z" />
<glyph unicode="&#x4ac;" horiz-adv-x="1298" d="M78 954q8 74 18 193t10 178q0 10 11.5 10t11.5 -10q0 -45 111 -45q174 -6 411 -6q121 0 256 4l140 2q74 0 109.5 10t45.5 41q2 8 12.5 8t10.5 -8q-6 -59 -12.5 -180t-6.5 -197q0 -4 -12 -4t-12 4q-6 160 -65.5 224.5t-196.5 64.5q-92 0 -131 -8t-53.5 -34.5t-14.5 -90.5 v-944q0 -78 8 -102.5t39 -31.5t125 -7q16 0 19 -4.5t3 -20.5v-59q-4 -102 -4 -324q0 -10 -12 -10t-12 10q0 209 -73 296t-243 87h-186q-4 0 -4 12.5t4 12.5q90 0 131 10t55.5 38.5t14.5 92.5v948q0 63 -14.5 89t-53.5 33t-131 7q-129 0 -193.5 -65.5t-93.5 -223.5 q0 -4 -11 -4t-11 4z" />
<glyph unicode="&#x4ad;" horiz-adv-x="878" d="M68 774q0 12 2 15.5t14 3.5q43 0 76 -2l274 -3l281 3q35 2 78 2q14 0 16 -3.5t2 -15.5q-10 -205 -10 -250q0 -4 -11.5 -4t-13.5 4q-4 125 -47 180.5t-133 55.5q-61 0 -79.5 -27.5t-18.5 -111.5v-455v-69.5t25.5 -63.5t92.5 -8q16 0 18.5 -3.5t2.5 -21.5q0 -10 -4 -47 q0 -12 -4 -67.5t-4 -153.5q0 -10 -12.5 -10.5t-12.5 10.5q0 147 -62.5 207.5t-175.5 60.5h-112q-4 0 -4 12.5t4 12.5q57 0 83.5 10t37 39.5t10.5 91.5v455q0 84 -18.5 111.5t-79.5 27.5q-92 0 -135.5 -55.5t-47.5 -180.5q0 -4 -11 -4t-11 4l-4 123q-2 23 -4 54.5t-2 72.5z " />
<glyph unicode="&#x4ae;" horiz-adv-x="1247" d="M-8 1267.5q0 12.5 6 12.5q25 0 74 -4l71 -2q70 0 176 4l111 2q4 0 4 -12.5t-4 -12.5q-106 0 -106 -43q0 -23 20 -51l330 -483l250 383q45 72 45 121q0 74 -111 73q-4 0 -4 12.5t4 12.5l96 -2q78 -4 144 -4q35 0 84 4l75 2q5 0 5 -12.5t-5 -12.5q-74 0 -149.5 -54 t-134.5 -148l-275 -422v-465q0 -63 12.5 -92t48.5 -39t113 -10q6 0 6.5 -12.5t-6.5 -12.5q-63 0 -98 2l-143 2l-142 -2q-37 -2 -100 -2q-6 0 -6 12.5t6 12.5q78 0 114 10t49 39.5t13 91.5v432l-340 498q-57 90 -108 124.5t-119 34.5q-6 0 -6 12.5z" />
<glyph unicode="&#x4af;" horiz-adv-x="888" d="M-6 778.5q0 12.5 6 12.5q41 0 63 -3l78 -2l133 2q31 2 82 3q6 0 6 -12.5t-6 -12.5q-123 0 -123 -49q0 -14 9 -31l254 -563l188 504q12 35 12 59q0 41 -37.5 60.5t-121.5 19.5q-4 0 -4.5 12.5t4.5 12.5q55 0 84 -3l122 -2l72 2q20 2 68 3q4 0 4 -12.5t-4 -12.5 q-53 0 -89 -33t-69 -117l-215 -536v-477q0 -61 9 -90t36 -40.5t84 -11.5q4 0 4 -12t-4 -12q-47 0 -76 2l-112 2l-113 -2q-29 -2 -78 -2q-4 0 -4 12t4 12q55 0 82 11.5t37 40t10 90.5v452l-252 566q-39 90 -67.5 117.5t-69.5 27.5q-6 0 -6 12.5z" />
<glyph unicode="&#x4b0;" horiz-adv-x="1247" d="M-8 1267.5q0 12.5 6 12.5q25 0 74 -4l71 -2q70 0 176 4l111 2q4 0 4 -12.5t-4 -12.5q-106 0 -106 -43q0 -23 20 -51l330 -483l250 383q45 72 45 121q0 74 -111 73q-4 0 -4 12.5t4 12.5l96 -2q78 -4 144 -4q35 0 84 4l75 2q5 0 5 -12.5t-5 -12.5q-74 0 -149.5 -54 t-134.5 -148l-275 -422v-4h281q4 0 7 -6.5t3 -14.5t-3 -14t-7 -6h-281v-420q0 -63 12.5 -92t48.5 -39t113 -10q6 0 6.5 -12.5t-6.5 -12.5q-63 0 -98 2l-143 2l-142 -2q-37 -2 -100 -2q-6 0 -6 12.5t6 12.5q78 0 114 10t49 39.5t13 91.5v420h-289q-8 0 -8 20t8 21h271 l-322 469q-57 90 -108 124.5t-119 34.5q-6 0 -6 12.5z" />
<glyph unicode="&#x4b1;" horiz-adv-x="888" d="M-6 778.5q0 12.5 6 12.5q41 0 63 -3l78 -2l133 2q31 2 82 3q6 0 6 -12.5t-6 -12.5q-123 0 -123 -49q0 -14 9 -31l254 -563l188 504q12 35 12 59q0 41 -37.5 60.5t-121.5 19.5q-4 0 -4.5 12.5t4.5 12.5q55 0 84 -3l122 -2l72 2q20 2 68 3q4 0 4 -12.5t-4 -12.5 q-53 0 -89 -33t-69 -117l-215 -534h217q12 0 12 -21q0 -20 -12 -20h-217v-438q0 -61 9 -90t36 -40.5t84 -11.5q4 0 4 -12t-4 -12q-47 0 -76 2l-112 2l-113 -2q-29 -2 -78 -2q-4 0 -4 12t4 12q55 0 82 11.5t37 40t10 90.5v438h-223q-4 0 -7 6t-3 14t3 14.5t7 6.5h211 l-240 539q-39 90 -67.5 117.5t-69.5 27.5q-6 0 -6 12.5z" />
<glyph unicode="&#x4b2;" horiz-adv-x="1325" d="M29 12.5q0 12.5 6 12.5q141 0 278 186l289 395l-330 500q-53 82 -105 115.5t-124 33.5q-4 0 -4 12.5t4 12.5l78 -2q53 -4 78 -4q70 0 168 4l106 2q6 0 6 -12.5t-6 -12.5q-53 0 -78.5 -8t-25.5 -28q0 -16 18 -45l303 -457l240 340q55 78 55 127q0 72 -115 71q-6 0 -6 12.5 t6 12.5l93 -2q78 -4 141 -4q37 0 86 4l76 2q6 0 6 -12.5t-6 -12.5q-68 0 -141.5 -51t-147.5 -151l-268 -367l342 -516q94 -145 229 -145q16 0 19.5 -3.5t3.5 -21.5q0 -35 -3 -59q-4 -102 -4 -324q0 -10 -11 -10t-11 10q0 193 -53.5 288t-167.5 95h-207q-4 0 -4 12.5t4 12.5 q55 0 79.5 8t24.5 26t-18 45l-311 471l-261 -366q-49 -70 -49 -113q0 -72 121 -71q6 0 6 -12.5t-6 -12.5q-61 0 -94 2l-141 2l-86 -2q-23 -2 -76 -2q-6 0 -6 12.5z" />
<glyph unicode="&#x4b3;" horiz-adv-x="899" d="M23 12.5q0 12.5 4 12.5q53 0 115.5 38.5t115.5 112.5l139 193l-166 252q-49 76 -102 110.5t-96 34.5q-4 0 -4 12.5t4 12.5q43 0 63 -3l64 -2l131 2q29 2 80 3q4 0 4 -12.5t-4 -12.5q-35 0 -51.5 -5t-16.5 -20q0 -14 27 -55l141 -213l104 154q43 63 43 92q0 25 -27.5 36 t-90.5 11q-4 0 -4 12.5t4 12.5q55 0 84 -3l123 -2l73 2q20 2 66 3q4 0 4 -12.5t-4 -12.5q-55 0 -115.5 -38t-116.5 -114l-125 -170l189 -284q45 -70 97 -102.5t87 -32.5q15 0 17 -3.5t2 -21.5q0 -10 -4 -47q0 -12 -4.5 -67.5t-4.5 -153.5q0 -10 -11 -10.5t-11 10.5 q0 127 -47 197.5t-131 70.5h-142q-6 0 -6 12.5t6 12.5q41 0 57.5 5t16.5 17q0 14 -29 59l-153 234l-123 -176q-41 -61 -41 -90q0 -25 27.5 -37t89.5 -12q6 0 6 -12.5t-6 -12.5q-55 0 -82 2l-123 2l-74 -2q-20 -2 -65 -2q-4 0 -4 12.5z" />
<glyph unicode="&#x4b4;" horiz-adv-x="1777" d="M78 954q0 25 12 144q16 168 16 227q0 10 11.5 10t11.5 -10q0 -45 111 -45l155 -2q131 -4 209 -4q92 0 191 4l104 2q74 0 109.5 10t44.5 41q2 8 13 8t11 -8q0 -39 -8 -174q-10 -139 -10 -203q0 -4 -12.5 -4t-12.5 4q0 289 -164 289q-92 0 -132 -8t-54 -33.5t-14 -87.5 v-944q0 -70 8 -92.5t36.5 -28.5t116.5 -6h383q92 0 123 6t39 28.5t8 92.5v944q0 61 -9 90t-35.5 40t-86.5 11q-6 0 -6 12.5t6 12.5l84 -2q70 -4 117 -4q53 0 139 4l103 2q4 0 4 -12.5t-4 -12.5q-78 0 -115 -11t-50 -39.5t-13 -90.5v-948q0 -76 7 -101.5t34.5 -32.5t111.5 -7 q16 0 19.5 -3.5t3.5 -21.5q0 -35 -2 -59q-4 -102 -4 -324q0 -10 -11.5 -10t-11.5 10q0 209 -68.5 296t-230.5 87h-1006q-6 0 -6 12.5t6 12.5q78 0 115 10t50.5 39.5t13.5 91.5v948q0 63 -16.5 89t-58.5 33t-145 7q-90 0 -152.5 -70.5t-66.5 -218.5q0 -4 -11 -4t-11 4z" />
<glyph unicode="&#x4b5;" horiz-adv-x="1234" d="M68 774q0 12 2 15.5t14 3.5q43 0 76 -2l274 -3l234 3q27 2 63 2q12 0 14.5 -3.5t2.5 -15.5q0 -49 -2.5 -87t-4.5 -62l-4 -101q0 -4 -11 -4t-11 4q-4 125 -32 180.5t-87 55.5q-61 0 -79.5 -26.5t-18.5 -108.5v-459q0 -68 4 -90.5t21.5 -28.5t70.5 -6h231q53 0 71.5 6 t23 28.5t4.5 94.5v455q0 63 -5.5 91.5t-21.5 39t-53 10.5q-4 0 -4 12.5t4 12.5q39 0 61 -3l76 -2l106 2q31 2 87 3q4 0 4 -12.5t-4 -12.5q-59 0 -87 -10.5t-37.5 -40t-9.5 -90.5v-459q0 -82 4.5 -104.5t26 -29.5t90.5 -7q14 0 16.5 -3.5t2.5 -21.5l-2 -51q-10 -109 -11 -260 q0 -10 -11 -10.5t-11 10.5q0 172 -62.5 241.5t-175.5 69.5h-655q-4 0 -4 12.5t4 12.5q57 0 83.5 12t36 42t9.5 91v455q0 82 -18.5 108.5t-79.5 26.5q-90 0 -133.5 -55.5t-49.5 -180.5q0 -4 -11 -4t-11 4l-4 101q-2 25 -4 62.5t-2 86.5z" />
<glyph unicode="&#x4b6;" horiz-adv-x="1284" d="M-8 1267.5q0 12.5 6 12.5l86 -2q82 -4 147 -4q61 0 144 4l80 2q6 0 6 -12.5t-6 -12.5q-66 0 -97.5 -12t-43 -42t-11.5 -91v-203q0 -172 75 -263t206 -91q80 0 156.5 31.5t156.5 107.5v418q0 61 -11.5 91t-42 42t-98.5 12q-4 0 -4 12.5t4 12.5l91 -2q82 -4 131 -4 q55 0 141 4l102 2q7 0 7 -12.5t-7 -12.5q-78 0 -115.5 -11t-51 -39.5t-13.5 -90.5v-948q0 -76 7 -101.5t35 -32.5t112 -7q18 0 21 -3.5t3 -21.5v-59q-4 -102 -4 -324q0 -10 -12 -10t-12 10q0 209 -69 296t-230 87h-162q-4 0 -4 12.5t4 12.5q80 0 116.5 10t49 38.5t12.5 92.5 v493q-88 -82 -176 -118.5t-184 -36.5q-162 0 -263.5 90t-101.5 242v278q0 61 -13.5 90t-49 40t-111.5 11q-6 0 -6 12.5z" />
<glyph unicode="&#x4b7;" horiz-adv-x="849" d="M14 778.5q0 12.5 4 12.5q39 0 62 -3l80 -2l90 2q27 2 69 3q4 0 4.5 -12.5t-4.5 -12.5q-66 0 -86 -28.5t-20 -116.5v-64q0 -184 160 -184q41 0 91 12t91 35v205q0 61 -8 89.5t-30.5 40t-67.5 11.5q-6 0 -6.5 12.5t6.5 12.5q45 0 71 -3l92 -2l107 2q29 2 80 3q4 0 4 -12.5 t-4 -12.5q-57 0 -84 -12.5t-37 -42t-10 -90.5v-455q0 -82 4 -104.5t25.5 -29.5t90.5 -7q17 0 19 -3.5t2 -21.5l-2 -47q-8 -78 -8 -221q0 -10 -12.5 -10.5t-12.5 10.5q0 147 -62.5 207.5t-176.5 60.5h-113q-6 0 -6 12.5t6 12.5q57 0 85 11t38 39.5t10 90.5v217 q-127 -82 -252 -82q-100 0 -151.5 61.5t-51.5 176.5v86q0 63 -6 91.5t-22.5 39t-53.5 10.5q-4 0 -4 12.5z" />
<glyph unicode="&#x4b8;" horiz-adv-x="1308" d="M-8 1267.5q0 12.5 6 12.5l86 -2q82 -4 147 -4q61 0 144 4l80 2q6 0 6 -12.5t-6 -12.5q-66 0 -97.5 -12t-43 -42t-11.5 -91v-203q0 -166 75 -255t214 -99v379q0 4 8 7t16 3t16.5 -3t8.5 -7v-379q141 6 281 102v455q0 61 -11.5 91t-42 42t-98.5 12q-6 0 -6 12.5t6 12.5 l90 -2q82 -4 131 -4q53 0 139 4l105 2q4 0 4 -12.5t-4 -12.5q-78 0 -116 -11t-51 -39.5t-13 -90.5v-948q0 -61 13 -91t51 -40t116 -10q4 0 4 -12.5t-4 -12.5q-68 0 -105 2l-139 2l-143 -2q-37 -2 -103 -2q-4 0 -4 12.5t4 12.5q80 0 116 10t48.5 38.5t12.5 92.5v461 q-137 -100 -281 -119v-270q0 -8 -25 -9q-25 0 -24 9v266h-23q-180 0 -288.5 90t-108.5 242v278q0 61 -13.5 90t-49 40t-111.5 11q-6 0 -6 12.5z" />
<glyph unicode="&#x4b9;" horiz-adv-x="919" d="M4 778.5q0 12.5 6 12.5q39 0 60 -3l82 -2l88 2q27 2 69 3q6 0 6 -12.5t-6 -12.5q-63 0 -84.5 -28.5t-21.5 -116.5v-74q0 -174 184 -182v213q0 10 23 10q20 0 20 -10v-213q98 8 180 47v213q0 61 -8 90.5t-28.5 40t-65.5 10.5q-6 0 -6 12.5t6 12.5q45 0 72 -3l90 -2l106 2 q29 2 80 3q4 0 4 -12.5t-4 -12.5q-57 0 -84 -12.5t-37 -42t-10 -90.5v-455q0 -61 10 -91t37 -40t84 -10q4 0 4 -12.5t-4 -12.5q-53 0 -82 2l-104 2l-111 -2q-29 -2 -80 -2q-6 0 -6 12.5t6 12.5q57 0 84 10t37 39.5t10 91.5v209q-86 -51 -180 -72v-170q0 -8 -20 -8 q-23 0 -23 8v164q-18 -4 -51 -4q-121 0 -182.5 60.5t-61.5 176.5v95q0 61 -6 90.5t-22.5 40t-53.5 10.5q-6 0 -6 12.5z" />
<glyph unicode="&#x4ba;" horiz-adv-x="1282" d="M68 12.5q0 12.5 4 12.5q78 0 115.5 10t51 39.5t13.5 91.5v948q0 61 -13.5 90t-51 40t-115.5 11q-4 0 -4 12.5t4 12.5l102 -2q86 -4 139 -4q57 0 148 4l100 2q4 0 4 -12.5t-4 -12.5q-80 0 -115.5 -11t-49 -39.5t-13.5 -90.5v-440q172 123 358 123q168 0 269.5 -88 t101.5 -246v-297q0 -61 12.5 -91t48 -40t111.5 -10q4 0 4 -12.5t-4 -12.5q-55 0 -88 2l-147 2l-142 -2q-31 -2 -82 -2q-4 0 -4 12.5t4 12.5q68 0 99.5 12t43 42t11.5 91v221q0 174 -76 263t-217 89q-152 0 -303 -100v-473q0 -61 11.5 -91t43 -42t99.5 -12q6 0 6 -12.5 t-6 -12.5q-57 0 -91 2l-133 2l-139 -2q-37 -2 -102 -2q-4 0 -4 12.5z" />
<glyph unicode="&#x4bb;" horiz-adv-x="1021" d="M8 1345.5q-4 10.5 4 12.5l260 127h7q8 0 13 -5t5 -12v-831q78 90 154.5 132t160.5 42q113 0 174.5 -63.5t61.5 -184.5v-397q0 -59 10 -89t37 -41t82 -11q6 0 6 -12.5t-6 -12.5q-47 0 -76 2l-110 2l-111 -2q-29 -2 -76 -2q-6 0 -6 12.5t6 12.5q55 0 82 11t37 40.5t10 89.5 v326q0 121 -46 179t-142 58q-63 0 -129 -33.5t-119 -93.5v-436q0 -59 10 -89t37 -41t82 -11q6 0 6 -12.5t-6 -12.5q-47 0 -76 2l-110 2l-111 -2q-29 -2 -76 -2q-6 0 -6 12.5t6 12.5q55 0 82 11t37 40.5t10 89.5v1059q0 74 -14 106.5t-51 32.5q-31 0 -94 -29h-5 q-6 0 -10 10.5z" />
<glyph unicode="&#x4bc;" horiz-adv-x="1515" d="M0 1014q0 6 14.5 7t14.5 -5q6 -147 67.5 -230.5t169.5 -93.5q8 176 100.5 315.5t238 217.5t308.5 78q256 0 379 -148.5t123 -460.5q0 -25 -6 -34t-25 -9h-966q10 -178 81.5 -326.5t185.5 -234.5t243 -86q158 0 274.5 79t169.5 241q0 6 8 6q6 0 11.5 -2t5.5 -6l-29 -220 q-4 -25 -9 -32t-22 -15q-197 -80 -417 -80q-221 0 -369 98.5t-217.5 253t-69.5 324.5h-121q-78 0 -108.5 23.5t-30.5 87.5v69q0 92 -4 183zM416 690h850q-6 289 -112.5 428t-319.5 139q-125 0 -219.5 -68.5t-146.5 -192.5t-52 -287v-19z" />
<glyph unicode="&#x4bd;" horiz-adv-x="980" d="M-2 756q0 6 14.5 7t14.5 -3q0 -131 52 -211t142 -105q16 104 76.5 187.5t150 130.5t187.5 47q137 0 202.5 -87t65.5 -245q0 -43 -5 -57t-19 -14h-529q10 -164 93 -261.5t227 -97.5q61 0 104 16.5t98 51.5h2q6 0 12.5 -7.5t0.5 -13.5q-133 -119 -297 -119 q-119 0 -203 55.5t-128 145.5t-44 193q0 25 2 37h-76q-80 0 -109.5 20t-29.5 80q0 39 -2 61zM348 436l416 2q6 330 -193 330q-102 0 -162.5 -87t-60.5 -235v-10z" />
<glyph unicode="&#x4be;" horiz-adv-x="1515" d="M0 1014q0 6 14.5 7t14.5 -5q6 -147 67.5 -230.5t169.5 -93.5q8 176 100.5 315.5t238 217.5t308.5 78q256 0 379 -148.5t123 -460.5q0 -25 -6 -34t-25 -9h-966q10 -178 81.5 -326.5t185.5 -234.5t243 -86q158 0 274.5 79t169.5 241q0 6 8 6q6 0 11.5 -2t5.5 -6l-29 -220 q-4 -25 -9 -32t-22 -15q-145 -57 -274 -71q-53 -6 -85 -31t-50.5 -102.5t-18.5 -233.5q0 -10 -11 -10t-11 10q0 195 -30 277.5t-89 95.5q-170 33 -283.5 134t-167 239.5t-53.5 287.5h-121q-78 0 -108.5 23.5t-30.5 87.5v69q0 92 -4 183zM416 690h850q-6 289 -112.5 428 t-319.5 139q-125 0 -219.5 -68.5t-146.5 -192.5t-52 -287v-19z" />
<glyph unicode="&#x4bf;" horiz-adv-x="980" d="M-2 756q0 6 14.5 7t14.5 -3q0 -131 52 -211t142 -105q16 104 76.5 187.5t150 130.5t187.5 47q137 0 202.5 -87t65.5 -245q0 -43 -5 -57t-19 -14h-529q10 -164 93 -261.5t227 -97.5q61 0 104 16.5t98 51.5h2q6 0 12.5 -7.5t0.5 -13.5q-96 -86 -195 -106 q-51 -10 -72.5 -66.5t-21.5 -189.5q0 -10 -11.5 -10.5t-11.5 10.5q0 129 -23.5 187t-74.5 71q-125 31 -193.5 137t-68.5 242q0 25 2 37h-76q-80 0 -109.5 20t-29.5 80q0 39 -2 61zM348 436l416 2q6 330 -193 330q-102 0 -162.5 -87t-60.5 -235v-10z" />
<glyph unicode="&#x4c0;" horiz-adv-x="679" d="M90 12.5q0 12.5 6 12.5q78 0 114 10t49 39.5t13 91.5v948q0 61 -13 90t-49 40t-114 11q-6 0 -6 12.5t6 12.5l101 -2q86 -4 141 -4q61 0 147 4l97 2q6 0 6 -12.5t-6 -12.5q-76 0 -112 -12t-49 -42t-13 -91v-944q0 -62 12 -91.5t48 -39.5t114 -10q6 0 6 -12.5t-6 -12.5 q-61 0 -99 2l-145 2l-141 -2q-37 -2 -101 -2q-6 0 -6 12.5z" />
<glyph unicode="&#x4c1;" horiz-adv-x="2029" d="M14 12.5q0 12.5 4 12.5q78 2 138.5 39.5t118 108.5t151.5 212q109 166 153 218t101 69l-240 354q-86 127 -169 178t-197 51q-4 0 -4 12.5t4 12.5l76 -2q74 -4 141 -4q68 0 149 4l95 2q6 0 6 -12.5t-6 -12.5q-57 0 -83 -11t-26 -38q0 -25 21.5 -65.5t68.5 -118.5l207 -344 q20 4 72 4l112 -2q12 -2 43 -2v436q0 59 -17.5 89t-58 41t-120.5 11q-4 0 -4 12.5t4 12.5l110 -2q94 -4 148 -4q59 0 157 4l109 2q4 0 4 -12.5t-4 -12.5q-78 0 -120 -12t-59.5 -43t-17.5 -90v-432q127 4 152 4q51 0 72 -2l206 340q47 76 69 119t22 67q0 27 -25 38t-82 11 q-6 0 -6 12.5t6 12.5l94 -2q82 -4 150 -4t141 4l76 2q4 0 4 -12.5t-4 -12.5q-115 0 -198 -51t-169 -178l-241 -354q55 -14 96 -61.5t135 -188.5l25 -37q94 -141 151 -212t117.5 -108.5t138.5 -39.5q4 0 4 -12.5t-4 -12.5h-260q-25 0 -43 15.5t-62 80t-165 248.5 q-94 145 -137.5 201.5t-89.5 78t-128 21.5l-45 -2v-477q0 -63 12.5 -92t48.5 -39t115 -10q6 0 6.5 -12.5t-6.5 -12.5q-63 0 -100 2l-145 2l-140 -2q-37 -2 -102 -2q-4 0 -4 12.5t4 12.5q80 0 117 10t50 39.5t13 91.5v475q-37 4 -51 4q-80 0 -126 -21.5t-90 -76.5t-138 -199 l-41 -65q-76 -119 -123 -187.5t-63.5 -82t-41.5 -13.5h-258q-4 0 -4 12.5zM731 1565q0 29 15.5 45t41.5 16q39 0 54.5 -23.5t29.5 -74.5q39 -125 140 -125q57 0 94 35t51 90q14 49 30.5 73.5t53.5 24.5q57 0 57 -63q0 -47 -40.5 -90t-106.5 -69t-137 -26q-72 0 -137.5 27 t-105.5 70t-40 90z" />
<glyph unicode="&#x4c2;" horiz-adv-x="1349" d="M-4 12.5q0 12.5 6 12.5q51 0 84 17t56.5 49t62.5 95l33 52q68 106 105.5 144t96.5 46q-37 37 -65 92q-94 168 -135 168q-14 0 -39 -14.5t-47 -14.5q-37 0 -58.5 23t-21.5 55q0 31 23.5 51.5t70.5 20.5q51 0 87 -30.5t63.5 -79t87.5 -169.5q51 -98 104 -98l106 -4v193 q0 63 -10 92.5t-42 41t-101 11.5q-4 0 -4 12.5t4 12.5l110 -3q33 -2 101 -2t100 2l111 3q6 0 6 -12.5t-6 -12.5q-68 0 -99.5 -11.5t-43 -40t-11.5 -89.5v-197l109 4q51 0 102 98l21 39q47 94 75.5 140.5t63.5 73t82 26.5q43 0 67.5 -20.5t24.5 -51.5q0 -33 -21.5 -55.5 t-58.5 -22.5q-25 0 -49.5 14.5t-36.5 14.5q-43 0 -137 -168q-33 -61 -64 -92q59 -8 97 -46t104 -144l35 -54q39 -63 62.5 -94t56 -48t84.5 -17q6 0 6 -12.5t-6 -12.5h-226q-14 0 -20 7t-34 56.5t-77 133.5q-51 84 -85 124.5t-69.5 56t-91.5 15.5h-14v-227q0 -61 10.5 -91 t37 -40t85.5 -10q4 0 4 -12.5t-4 -12.5q-55 0 -86 2l-104 2l-107 -2q-29 -2 -80 -2q-6 0 -6 12.5t6 12.5q57 0 84 10t36 39.5t9 91.5v227h-14q-55 0 -90 -15.5t-68.5 -55t-85.5 -125.5l-82 -144q-23 -41 -28.5 -47t-20.5 -6h-225q-6 0 -6 12.5zM410 1141q0 59 59 59 q39 0 53.5 -22.5t28.5 -75.5q10 -43 19.5 -65.5t34 -40t69.5 -17.5q61 0 87.5 32.5t39.5 90.5q12 49 27.5 73.5t52.5 24.5q61 0 61 -61q0 -49 -38 -92t-99.5 -69t-128.5 -26q-70 0 -131.5 27t-98 71t-36.5 91z" />
<glyph unicode="&#x4c3;" horiz-adv-x="1316" d="M66 12.5q0 12.5 4 12.5q78 0 114.5 10t50 39.5t13.5 91.5v948q0 61 -12.5 90t-49 40t-114.5 11q-4 0 -4 12.5t4 12.5l100 -2q86 -4 139 -4q59 0 150 4l98 2q4 0 4 -12.5t-4 -12.5q-78 0 -114.5 -12t-50 -42t-13.5 -91v-430q31 2 90 2q43 0 86 -6l248 352q92 127 92 176 q0 27 -25.5 39t-78.5 12q-4 0 -4.5 12.5t4.5 12.5l88 -2q78 -4 145 -4q70 0 143 4l74 2q6 0 6 -12.5t-6 -12.5q-106 0 -188 -52t-176 -177l-279 -358q158 -33 298 -138.5t225 -253t85 -303.5q0 -109 -42 -213t-123.5 -171.5t-194.5 -67.5q-82 0 -131 34.5t-49 84.5 q0 35 20.5 57t54.5 22q59 0 82 -73q2 -8 9.5 -33t23.5 -38t45 -13q84 0 129 91t45 216q0 184 -93 365.5t-242.5 297t-305.5 115.5q-37 0 -55 -2v-479q0 -63 15.5 -92t59.5 -39t140 -10q6 0 6 -12.5t-6 -12.5q-74 0 -117 2l-168 2l-139 -2q-37 -2 -102 -2q-4 0 -4 12.5z" />
<glyph unicode="&#x4c4;" horiz-adv-x="937" d="M55 12.5q0 12.5 6 12.5q57 0 84 10t36 38.5t9 92.5v459q0 63 -9 91.5t-34.5 39t-83.5 10.5q-6 0 -6 12.5t6 12.5q49 0 78 -3l111 -2l104 2q31 2 80 3q4 0 4 -12.5t-4 -12.5q-57 0 -83.5 -12.5t-36 -42t-9.5 -90.5v-185q49 6 99 6q39 0 74.5 26t56.5 62q6 12 11 21.5 t9 17.5q70 135 112 187.5t107 52.5q45 0 69.5 -20.5t24.5 -51.5q0 -33 -22.5 -55.5t-59.5 -22.5q-23 0 -47 14.5t-39 14.5q-41 0 -135 -168q-27 -51 -73 -84q163 -20 265.5 -110t102.5 -232q0 -135 -92 -267t-235 -222h-5q-6 0 -12 6t0 10q104 84 161.5 178.5t57.5 227.5 q0 125 -51 211t-136 128t-185 42q-37 0 -58 -2v-240q0 -61 9.5 -91t36 -40t83.5 -10q4 0 4 -12.5t-4 -12.5q-51 0 -82 2l-102 2l-111 -2q-29 -2 -80 -2q-6 0 -6 12.5z" />
<glyph unicode="&#x4c5;" horiz-adv-x="1437" d="M-8 12.5q0 12.5 10 12.5q57 0 97 21.5t76 75.5t79 157l432 1019q4 6 14.5 6.5t12.5 -6.5l483 -1017q70 -150 119 -203t112 -53q11 -1 11 -13t-23 -41q-49 -74 -92 -146.5t-117 -225.5q-2 -2 -6 -2q-6 0 -10 4t-2 10q94 195 94 283q0 61 -42 83.5t-128 22.5h-137 q-8 0 -8 12.5t8 12.5q78 0 112.5 14t34.5 49q0 29 -26 88l-441 934l-358 -850q-29 -70 -29 -115q0 -121 201 -120q10 0 10 -12.5t-10 -12.5q-37 0 -107 4q-78 4 -135 4q-53 0 -123 -4q-61 -4 -102 -4q-10 0 -10 12.5z" />
<glyph unicode="&#x4c6;" horiz-adv-x="925" d="M-4 12.5q0 12.5 10 12.5q37 0 78 51t104 194l236 551q4 8 13 8t12 -8l253 -540q51 -109 83 -162t57.5 -73.5t56.5 -20.5q23 -1 23 -21q0 -10 -6.5 -23.5t-15.5 -31t-15 -29.5q-82 -158 -121 -235q-4 -4 -8 -4q-6 0 -11.5 4t-3.5 8q63 125 64 201q0 106 -141 106h-125 q-4 0 -4 12.5t4 12.5q98 0 98 69q0 29 -23 78l-217 463l-161 -383q-37 -86 -37 -139q0 -88 96 -88q10 0 10 -12.5t-10 -12.5q-23 0 -59 4q-45 4 -82 4q-41 0 -82 -4q-37 -4 -66 -4q-10 0 -10 12.5z" />
<glyph unicode="&#x4c7;" d="M68 12.5q0 12.5 4 12.5q78 0 115.5 10t51 39.5t13.5 91.5v948q0 61 -13.5 90t-50 40t-114.5 11q-4 0 -4 12.5t4 12.5l104 -2q86 -4 137 -4q59 0 150 4l98 2q4 0 4 -12.5t-4 -12.5q-78 0 -115.5 -12t-51 -42t-13.5 -91v-422h786v422q0 61 -13 91t-50 42t-117 12 q-6 0 -6 12.5t6 12.5l98 -2q90 -4 150 -4q55 0 141 4l101 2q6 0 6 -12.5t-6 -12.5q-78 0 -115 -11t-50.5 -39.5t-13.5 -90.5v-1171q0 -203 -94 -323t-270 -120q-70 0 -111 23.5t-41 64.5q0 31 18.5 49.5t51.5 18.5q35 0 53.5 -15.5t38.5 -46.5q18 -29 33.5 -41t42.5 -12 q74 0 110.5 88t36.5 285v731h-786v-479q0 -61 13.5 -91t50 -40t116.5 -10q4 0 4 -12.5t-4 -12.5q-63 0 -100 2l-148 2l-141 -2q-37 -2 -102 -2q-4 0 -4 12.5z" />
<glyph unicode="&#x4c8;" horiz-adv-x="1044" d="M59.5 12.5q-0.5 12.5 6.5 12.5q57 0 84.5 10t37 39.5t9.5 91.5v459q0 61 -9.5 90.5t-36 40t-83.5 10.5q-6 0 -6.5 12.5t6.5 12.5q51 0 79 -3l109 -2l104 2q31 2 82 3q4 0 4 -12.5t-4 -12.5q-57 0 -84.5 -12.5t-37 -42t-9.5 -90.5v-205h437v209q0 61 -9.5 90.5t-36 40 t-84.5 10.5q-6 0 -6 12.5t6 12.5q51 0 80 -3l109 -2l104 2q31 2 82 3q4 0 4 -12.5t-4 -12.5q-57 0 -84.5 -12.5t-37 -42t-9.5 -90.5v-719q0 -209 -62.5 -317.5t-224.5 -162.5q-4 -2 -9 9.5t-1 13.5q100 33 141.5 130t41.5 280v520h-437v-209q0 -61 9.5 -91t37 -40t84.5 -10 q4 0 4 -12.5t-4 -12.5q-53 0 -84 2l-102 2l-109 -2q-29 -2 -81 -2q-6 0 -6.5 12.5z" />
<glyph unicode="&#x4c9;" horiz-adv-x="1554" d="M68 12.5q0 12.5 4 12.5q78 0 115.5 10t51 39.5t13.5 91.5v948q0 61 -13.5 90t-50 40t-114.5 11q-4 0 -4 12.5t4 12.5l104 -2q86 -4 137 -4q59 0 150 4l98 2q4 0 4 -12.5t-4 -12.5q-78 0 -115.5 -12t-51 -42t-13.5 -91v-422h786v422q0 61 -13 91t-50 42t-117 12 q-6 0 -6 12.5t6 12.5l98 -2q90 -4 150 -4q55 0 141 4l101 2q6 0 6 -12.5t-6 -12.5q-78 0 -115 -11t-50.5 -39.5t-13.5 -90.5v-948q0 -76 8.5 -101.5t36 -32.5t111.5 -7q20 0 21 -21q0 -8 -56.5 -83t-173.5 -322q-2 -2 -6 -2q-6 0 -11 4t-3 10q94 195 94 283q0 61 -41 83.5 t-129 22.5h-162q-6 0 -6 12.5t6 12.5q80 0 117 10t50 39.5t13 91.5v479h-786v-479q0 -61 13.5 -91t50 -40t116.5 -10q4 0 4 -12.5t-4 -12.5q-63 0 -100 2l-148 2l-141 -2q-37 -2 -102 -2q-4 0 -4 12.5z" />
<glyph unicode="&#x4ca;" horiz-adv-x="1056" d="M59.5 12.5q-0.5 12.5 6.5 12.5q57 0 84.5 10t37 39.5t9.5 91.5v459q0 61 -9.5 90.5t-36 40t-83.5 10.5q-6 0 -6.5 12.5t6.5 12.5q51 0 79 -3l109 -2l104 2q31 2 82 3q4 0 4 -12.5t-4 -12.5q-57 0 -84.5 -12.5t-37 -42t-9.5 -90.5v-205h437v209q0 61 -9.5 90.5t-36 40 t-84.5 10.5q-6 0 -6 12.5t6 12.5q51 0 80 -3l109 -2l104 2q31 2 82 3q4 0 4 -12.5t-4 -12.5q-57 0 -84.5 -12.5t-37 -42t-9.5 -90.5v-455q0 -63 8.5 -92t32 -39t74.5 -10q20 -1 20 -21q0 -12 -10 -33.5t-33 -62.5q-14 -29 -41.5 -81t-72.5 -142q-4 -4 -9 -4q-6 0 -11 4t-3 8 q63 125 64 201q0 106 -140 106h-125q-6 0 -6 12.5t6 12.5q59 0 86 10t36.5 38.5t9.5 92.5v209h-437v-209q0 -61 9.5 -91t37 -40t84.5 -10q4 0 4 -12.5t-4 -12.5q-53 0 -84 2l-102 2l-109 -2q-29 -2 -81 -2q-6 0 -6.5 12.5z" />
<glyph unicode="&#x4cb;" horiz-adv-x="1284" d="M-8 1267.5q0 12.5 6 12.5l86 -2q82 -4 147 -4q61 0 144 4l80 2q6 0 6 -12.5t-6 -12.5q-66 0 -97.5 -12t-43 -42t-11.5 -91v-203q0 -172 75 -263t206 -91q80 0 156.5 31.5t156.5 107.5v418q0 61 -11.5 91t-42 42t-98.5 12q-4 0 -4 12.5t4 12.5l91 -2q82 -4 131 -4 q55 0 141 4l102 2q6 0 6.5 -12.5t-6.5 -12.5q-78 0 -115.5 -11t-51 -39.5t-13.5 -90.5v-948q0 -61 13.5 -91t50 -40t116.5 -10q4 0 4 -12.5t-4 -12.5h-161q-162 0 -229.5 -87t-67.5 -296q0 -10 -12.5 -10t-12.5 10q0 221 -4 324v59q0 18 3 21.5t17 3.5q84 0 112 7t35 32.5 t7 101.5v493q-88 -82 -176 -118.5t-184 -36.5q-162 0 -263.5 90t-101.5 242v278q0 61 -13.5 90t-49 40t-111.5 11q-6 0 -6 12.5z" />
<glyph unicode="&#x4cc;" horiz-adv-x="864" d="M14 778.5q0 12.5 4 12.5q39 0 62 -3l80 -2l90 2q27 2 69 3q4 0 4.5 -12.5t-4.5 -12.5q-66 0 -86 -28.5t-20 -116.5v-64q0 -184 160 -184q41 0 91 12t91 35v205q0 61 -8 89.5t-30.5 40t-67.5 11.5q-6 0 -6.5 12.5t6.5 12.5q45 0 71 -3l92 -2l107 2q29 2 80 3q4 0 4 -12.5 t-4 -12.5q-57 0 -84 -12.5t-37 -42t-10 -90.5v-455q0 -61 10 -90t37.5 -40t85.5 -11q4 0 4 -12.5t-4 -12.5h-113q-115 0 -177 -59.5t-62 -208.5q0 -10 -12.5 -10.5t-12.5 10.5q0 145 -8 223l-2 45q0 18 3 21.5t17 3.5q68 0 90.5 7t26.5 30.5t4 103.5v217q-127 -82 -252 -82 q-100 0 -151.5 61.5t-51.5 176.5v86q0 63 -6 91.5t-22.5 39t-53.5 10.5q-4 0 -4 12.5z" />
<glyph unicode="&#x4cd;" horiz-adv-x="1712" d="M76 12.5q0 12.5 4 12.5q86 0 124 46t40 152l18 951q-61 82 -168 81q-4 0 -4 12.5t4 12.5l76 -2q20 -2 57 -2t62.5 2t40.5 2q27 0 44 -19.5t50 -86.5l457 -963l446 1018q23 51 62 51q10 0 29.5 -2t51.5 -2l97 2q23 2 67 2q6 0 6 -12.5t-6 -12.5q-102 0 -146 -29.5 t-42 -111.5l41 -948q6 -78 15 -102.5t37 -31.5t112 -7q22 -1 22 -21q0 -8 -56 -82t-175 -323q-2 -2 -6 -2q-6 0 -11.5 4t-3.5 10q94 195 95 283q0 61 -41 83.5t-129 22.5h-162q-4 0 -4 12.5t4 12.5q80 0 115.5 10t47 38.5t7.5 92.5l-37 932l-467 -1084q-4 -8 -16 -8 q-10 0 -19 8l-504 1071l-18 -862q-2 -109 37 -153.5t137 -44.5q4 0 4 -12.5t-4 -12.5q-57 0 -88 2l-111 2l-106 -2q-29 -2 -82 -2q-4 0 -4 12.5z" />
<glyph unicode="&#x4ce;" horiz-adv-x="1150" d="M18.5 12.5q-0.5 12.5 6.5 12.5q70 0 98.5 40.5t36.5 147.5l51 588q0 6 7 9t15 3q14 0 21 -6l338 -651l285 649q2 8 18 8q10 0 17.5 -4t9.5 -10l71 -633q8 -68 16.5 -94.5t30 -36.5t70.5 -10q23 -1 23 -21q0 -10 -8.5 -28.5t-24.5 -47.5q-51 -88 -127 -243q-4 -4 -8 -4 q-6 0 -11.5 4t-3.5 8q63 125 64 201q0 106 -140 106h-98q-4 0 -4 12.5t4 12.5q57 0 82 18t25 70q0 10 -4 51l-58 416l-252 -580q-2 -8 -16 -8q-10 0 -16 8l-295 573l-41 -360q-2 -16 -2 -45q0 -76 32.5 -109.5t100.5 -33.5q6 0 6 -12.5t-6 -12.5q-45 0 -68 2l-84 2l-86 -2 q-25 -2 -69 -2q-6 0 -6.5 12.5z" />
<glyph unicode="&#x4cf;" horiz-adv-x="528" d="M38 1345.5q-3 10.5 3 12.5l262 125q4 2 10 2q4 0 11.5 -5t7.5 -12v-1302q0 -59 9 -88t35.5 -41t82.5 -12q6 0 6 -12.5t-6 -12.5q-45 0 -74 2l-115 2l-110 -2q-29 -2 -78 -2q-6 0 -6 12.5t6 12.5q55 0 81.5 11t37 40.5t10.5 89.5v1059q0 74 -14.5 106.5t-51.5 32.5 q-31 0 -94 -29h-4q-6 0 -9 10.5z" />
<glyph unicode="&#x4d0;" horiz-adv-x="1437" d="M-8 12.5q0 12.5 10 12.5q57 0 97 21.5t76 75.5t79 157l432 1019q4 6 14.5 6.5t12.5 -6.5l483 -1017q70 -152 119 -204t117 -52q8 0 8 -12.5t-8 -12.5q-39 0 -121 4t-119 4q-45 0 -115 -4q-66 -4 -100 -4q-8 0 -8 12.5t8 12.5q76 0 110.5 14t34.5 49q0 29 -26 88l-236 502 h-387l-176 -418q-29 -70 -29 -115q0 -121 201 -120q10 0 10 -12.5t-10 -12.5q-37 0 -107 4q-78 4 -135 4q-53 0 -123 -4q-61 -4 -102 -4q-10 0 -10 12.5zM416 1565q0 29 15 45t42 16q39 0 54.5 -23.5t29.5 -74.5q39 -125 139 -125q57 0 94 35t52 90q14 49 30.5 73.5 t53.5 24.5q57 0 57 -63q0 -47 -41 -90t-106.5 -69t-137.5 -26q-71 0 -136.5 27t-105.5 70t-40 90zM492 721h348l-185 389z" />
<glyph unicode="&#x4d1;" horiz-adv-x="858" d="M111 104q0 55 42 89t150 71l248 88v170q0 135 -35 189.5t-96 54.5q-70 0 -109 -49t-47 -119q-8 -78 -76 -78q-33 0 -51 16.5t-18 45.5q0 47 61.5 100t148.5 90t156 37q82 0 131.5 -56.5t49.5 -168.5v-363q0 -72 18 -104.5t61 -32.5q39 0 101 27h4q8 0 10 -9.5t-6 -13.5 l-211 -100q-8 -4 -16 -4q-27 0 -47.5 34.5t-26.5 96.5l-127 -68q-63 -33 -104 -47t-80 -14q-63 0 -97 33.5t-34 84.5zM162 1141q0 59 59 59q39 0 53.5 -22.5t28.5 -75.5q10 -43 19.5 -65.5t34 -40t69.5 -17.5q61 0 88 32.5t39 90.5q12 49 27.5 73.5t52.5 24.5q61 0 61 -61 q0 -49 -38 -92t-99 -69t-129 -26q-70 0 -131 27t-98 71t-37 91zM254 150q0 -43 24.5 -67t63.5 -24t84 21l125 63v13v172l-211 -80q-47 -18 -66.5 -41t-19.5 -57z" />
<glyph unicode="&#x4d2;" horiz-adv-x="1437" d="M-8 12.5q0 12.5 10 12.5q57 0 97 21.5t76 75.5t79 157l432 1019q4 6 14.5 6.5t12.5 -6.5l483 -1017q70 -152 119 -204t117 -52q8 0 8 -12.5t-8 -12.5q-39 0 -121 4t-119 4q-45 0 -115 -4q-66 -4 -100 -4q-8 0 -8 12.5t8 12.5q76 0 110.5 14t34.5 49q0 29 -26 88l-236 502 h-387l-176 -418q-29 -70 -29 -115q0 -121 201 -120q10 0 10 -12.5t-10 -12.5q-37 0 -107 4q-78 4 -135 4q-53 0 -123 -4q-61 -4 -102 -4q-10 0 -10 12.5zM432 1552q0 39 23.5 61.5t64.5 22.5t62.5 -21.5t21.5 -62.5q0 -39 -21.5 -61.5t-62.5 -22.5t-64.5 22.5t-23.5 61.5z M492 721h348l-185 389zM791 1552q0 39 23.5 61.5t64.5 22.5t63.5 -21.5t22.5 -62.5t-22.5 -62.5t-63.5 -21.5t-64.5 22.5t-23.5 61.5z" />
<glyph unicode="&#x4d3;" horiz-adv-x="858" d="M111 104q0 55 42 89t150 71l248 88v170q0 135 -35 189.5t-96 54.5q-70 0 -109 -49t-47 -119q-8 -78 -76 -78q-33 0 -51 16.5t-18 45.5q0 47 61.5 100t148.5 90t156 37q82 0 131.5 -56.5t49.5 -168.5v-363q0 -72 18 -104.5t61 -32.5q39 0 101 27h4q8 0 10 -9.5t-6 -13.5 l-211 -100q-8 -4 -16 -4q-27 0 -47.5 34.5t-26.5 96.5l-127 -68q-63 -33 -104 -47t-80 -14q-63 0 -97 33.5t-34 84.5zM162 1063q0 39 23.5 61.5t64.5 22.5t62.5 -21.5t21.5 -62.5q0 -39 -21.5 -61.5t-62.5 -22.5t-64.5 22.5t-23.5 61.5zM254 150q0 -43 24.5 -67t63.5 -24 t84 21l125 63v13v172l-211 -80q-47 -18 -66.5 -41t-19.5 -57zM520 1063q0 39 23.5 61.5t64.5 22.5t63.5 -21.5t22.5 -62.5t-22.5 -62.5t-63.5 -21.5t-64.5 22.5t-23.5 61.5z" />
<glyph unicode="&#x4d4;" horiz-adv-x="1789" d="M-4 12.5q0 12.5 10 12.5q63 0 141 63.5t160 181.5l621 906q27 37 26 51q0 18 -33.5 23t-123.5 5q-4 0 -4 12.5t4 12.5h807q18 0 18 -18l4 -252q0 -6 -11 -7.5t-11 5.5q-4 96 -66.5 162.5t-153.5 66.5h-112q-70 0 -103.5 -10t-47 -36t-13.5 -79v-424h229q100 0 142.5 33 t42.5 110q0 4 12 4.5t12 -4.5l-2 -165q0 -59 2 -91l2 -98q0 -4 -12 -4t-12 4q0 90 -44 129t-147 39h-225v-471q0 -55 12.5 -83t46 -38t101.5 -10h149q88 0 158 73.5t90 188.5q0 4 8 4q6 0 11.5 -3t5.5 -5q-18 -129 -19 -270q0 -16 -7 -23.5t-26 -7.5h-835q-4 0 -4 12.5 t4 12.5q76 0 111.5 10t49 39.5t13.5 91.5v479h-352l-265 -387q-61 -88 -61 -145q0 -88 160 -88q10 0 10 -12.5t-10 -12.5q-37 0 -111 4q-82 4 -141 4q-49 0 -111 -4q-57 -4 -90 -4q-10 0 -10 12.5zM653 688h324v473z" />
<glyph unicode="&#x4d5;" horiz-adv-x="1206" d="M94 588q0 45 51.5 97t128 88t146.5 36t124 -38t74 -103q57 66 136.5 103.5t169.5 37.5q102 0 157.5 -54.5t55.5 -152.5q0 -23 -6.5 -33t-20.5 -10h-94l-359 -4q-10 -57 -10 -115q4 -164 59.5 -280.5t217.5 -116.5q127 0 206 72h3q6 0 12 -7.5t0 -13.5q-70 -63 -136.5 -91 t-148.5 -28q-203 0 -282 152l-166 -84q-63 -33 -100.5 -45t-78.5 -12q-63 0 -100 33.5t-37 86.5t41 84t152 70l237 80v8q-8 178 -17 258t-39 124t-95 44q-68 0 -98.5 -48t-38.5 -130q-6 -74 -70 -74q-37 0 -55.5 17.5t-18.5 48.5zM242 152q0 -41 24.5 -67t65.5 -26 q49 0 80 15l155 73q-29 68 -39 168l-202 -73q-47 -16 -65.5 -37t-18.5 -53zM664 584l329 8q0 84 -36.5 130t-100.5 46q-72 0 -121 -48t-71 -136z" />
<glyph unicode="&#x4d6;" horiz-adv-x="1099" d="M84 12.5q0 12.5 4 12.5q78 0 114 10t49 39.5t13 91.5v948q0 61 -13 90t-49 40t-114 11q-4 0 -4 12.5t4 12.5h823q18 0 19 -18l4 -252q0 -6 -10.5 -7.5t-12.5 5.5q-6 109 -65.5 169t-157.5 60h-125q-72 0 -105.5 -11.5t-47 -39t-13.5 -82.5v-416h250q98 0 140 33t42 110 q0 4 12.5 4.5t12.5 -4.5l-2 -165q0 -59 2 -91l2 -98q0 -4 -12.5 -4t-12.5 4q0 90 -44 129t-146 39h-244v-471q0 -57 12.5 -84t45 -37t102.5 -10h164q98 0 163.5 69.5t88.5 192.5q0 4 8 4q6 0 11 -2t5 -6q-18 -129 -18 -270q0 -16 -7 -23.5t-26 -7.5h-858q-4 0 -4 12.5z M315 1565q0 29 15.5 45t42.5 16q39 0 54 -23.5t30 -74.5q39 -125 139 -125q57 0 94 35t51 90q14 49 30.5 73.5t53.5 24.5q57 0 58 -63q0 -47 -41 -90t-106.5 -69t-137.5 -26t-137.5 27t-105.5 70t-40 90z" />
<glyph unicode="&#x4d7;" horiz-adv-x="835" d="M74 369q0 123 58 223t158.5 158.5t223.5 58.5q111 0 172.5 -54.5t61.5 -148.5q0 -25 -5.5 -36t-19.5 -11l-504 -4q-10 -55 -10 -106q0 -178 86 -290t237 -112q117 0 211 68h2q6 0 11.5 -7.5t1.5 -13.5q-139 -119 -299 -119q-121 0 -209 55.5t-132 144.5t-44 194z M199 1141q0 59 59 59q39 0 53.5 -22.5t28.5 -75.5q10 -43 19.5 -65.5t34 -40t69.5 -17.5q61 0 88 32.5t39 90.5q12 49 27.5 73.5t52.5 24.5q61 0 61 -61q0 -49 -38 -92t-99.5 -69t-128.5 -26q-70 0 -131.5 27t-98 71t-36.5 91zM225 584l381 8q0 84 -44 130t-118 46 q-84 0 -140 -48t-79 -136z" />
<glyph unicode="&#x4d8;" horiz-adv-x="1310" d="M96 334q0 14 6.5 19t18.5 5l903 4q25 102 25 228q0 193 -55.5 349.5t-162 246.5t-251.5 90q-137 0 -262 -76t-173 -215q-2 -8 -14 -6t-10 8l86 320q2 8 13 7t9 -9t-2 -23q0 -39 35 -39q6 0 23 4q88 31 152.5 43.5t144.5 12.5q227 0 365 -92.5t195.5 -237t57.5 -309.5 q0 -213 -86 -369t-233.5 -238t-327.5 -82q-154 0 -257 57.5t-151.5 140.5t-48.5 161zM248 313q16 -135 120.5 -217t256.5 -82q147 0 246.5 80t142.5 230z" />
<glyph unicode="&#x4d9;" horiz-adv-x="829" d="M76 575l67 265q2 6 14.5 4t10.5 -6q-2 -8 -2 -21q0 -33 47 -33q14 0 59 4q57 8 97 9q125 0 213 -55.5t131 -145.5t43 -197q0 -121 -54.5 -218t-148.5 -151.5t-213 -54.5q-121 0 -188.5 55.5t-67.5 149.5q0 47 25 47l505 2q6 41 7 88q0 195 -78 322t-228 127 q-94 0 -142 -52t-75 -143q-2 -4 -13 -2t-9 6zM225 195q2 -86 53.5 -132.5t135.5 -46.5q75 0 125.5 47.5t70.5 139.5z" />
<glyph unicode="&#x4da;" horiz-adv-x="1310" d="M96 334q0 14 6.5 19t18.5 5l903 4q25 102 25 228q0 193 -55.5 349.5t-162 246.5t-251.5 90q-137 0 -262 -76t-173 -215q-2 -8 -14 -6t-10 8l86 320q2 8 13 7t9 -9t-2 -23q0 -39 35 -39q6 0 23 4q88 31 152.5 43.5t144.5 12.5q227 0 365 -92.5t195.5 -237t57.5 -309.5 q0 -213 -86 -369t-233.5 -238t-327.5 -82q-154 0 -257 57.5t-151.5 140.5t-48.5 161zM248 313q16 -135 120.5 -217t256.5 -82q147 0 246.5 80t142.5 230zM338 1552q0 39 23.5 61.5t64.5 22.5t62.5 -21.5t21.5 -62.5q0 -39 -21.5 -61.5t-62.5 -22.5t-64.5 22.5t-23.5 61.5z M696 1552q0 39 23.5 61.5t64.5 22.5t63.5 -21.5t22.5 -62.5t-22.5 -62.5t-63.5 -21.5t-64.5 22.5t-23.5 61.5z" />
<glyph unicode="&#x4db;" horiz-adv-x="829" d="M76 575l67 265q2 6 14.5 4t10.5 -6q-2 -8 -2 -21q0 -33 47 -33q14 0 59 4q57 8 97 9q125 0 213 -55.5t131 -145.5t43 -197q0 -121 -54.5 -218t-148.5 -151.5t-213 -54.5q-121 0 -188.5 55.5t-67.5 149.5q0 47 25 47l505 2q6 41 7 88q0 195 -78 322t-228 127 q-94 0 -142 -52t-75 -143q-2 -4 -13 -2t-9 6zM139 1063q0 39 23.5 61.5t64.5 22.5t62.5 -21.5t21.5 -62.5q0 -39 -21.5 -61.5t-62.5 -22.5t-64.5 22.5t-23.5 61.5zM225 195q2 -86 53.5 -132.5t135.5 -46.5q75 0 125.5 47.5t70.5 139.5zM498 1063q0 39 23.5 61.5t64.5 22.5 t63.5 -21.5t22.5 -62.5t-22.5 -62.5t-63.5 -21.5t-64.5 22.5t-23.5 61.5z" />
<glyph unicode="&#x4dc;" horiz-adv-x="2029" d="M14 12.5q0 12.5 4 12.5q78 2 138.5 39.5t118 108.5t151.5 212q109 166 153 218t101 69l-240 354q-86 127 -169 178t-197 51q-4 0 -4 12.5t4 12.5l76 -2q74 -4 141 -4q68 0 149 4l95 2q6 0 6 -12.5t-6 -12.5q-57 0 -83 -11t-26 -38q0 -25 21.5 -65.5t68.5 -118.5l207 -344 q20 4 72 4l112 -2q12 -2 43 -2v436q0 59 -17.5 89t-58 41t-120.5 11q-4 0 -4 12.5t4 12.5l110 -2q94 -4 148 -4q59 0 157 4l109 2q4 0 4 -12.5t-4 -12.5q-78 0 -120 -12t-59.5 -43t-17.5 -90v-432q127 4 152 4q51 0 72 -2l206 340q47 76 69 119t22 67q0 27 -25 38t-82 11 q-6 0 -6 12.5t6 12.5l94 -2q82 -4 150 -4t141 4l76 2q4 0 4 -12.5t-4 -12.5q-115 0 -198 -51t-169 -178l-241 -354q55 -14 96 -61.5t135 -188.5l25 -37q94 -141 151 -212t117.5 -108.5t138.5 -39.5q4 0 4 -12.5t-4 -12.5h-260q-25 0 -43 15.5t-62 80t-165 248.5 q-94 145 -137.5 201.5t-89.5 78t-128 21.5l-45 -2v-477q0 -63 12.5 -92t48.5 -39t115 -10q6 0 6.5 -12.5t-6.5 -12.5q-63 0 -100 2l-145 2l-140 -2q-37 -2 -102 -2q-4 0 -4 12.5t4 12.5q80 0 117 10t50 39.5t13 91.5v475q-37 4 -51 4q-80 0 -126 -21.5t-90 -76.5t-138 -199 l-41 -65q-76 -119 -123 -187.5t-63.5 -82t-41.5 -13.5h-258q-4 0 -4 12.5zM748 1552q0 39 23.5 61.5t64.5 22.5t62.5 -21.5t21.5 -62.5q0 -39 -21.5 -61.5t-62.5 -22.5t-64.5 22.5t-23.5 61.5zM1106 1552q0 39 23.5 61.5t64.5 22.5t63.5 -21.5t22.5 -62.5t-22.5 -62.5 t-63.5 -21.5t-64.5 22.5t-23.5 61.5z" />
<glyph unicode="&#x4dd;" horiz-adv-x="1349" d="M-4 12.5q0 12.5 6 12.5q51 0 84 17t56.5 49t62.5 95l33 52q68 106 105.5 144t96.5 46q-37 37 -65 92q-94 168 -135 168q-14 0 -39 -14.5t-47 -14.5q-37 0 -58.5 23t-21.5 55q0 31 23.5 51.5t70.5 20.5q51 0 87 -30.5t63.5 -79t87.5 -169.5q51 -98 104 -98l106 -4v193 q0 63 -10 92.5t-42 41t-101 11.5q-4 0 -4 12.5t4 12.5l110 -3q33 -2 101 -2t100 2l111 3q6 0 6 -12.5t-6 -12.5q-68 0 -99.5 -11.5t-43 -40t-11.5 -89.5v-197l109 4q51 0 102 98l21 39q47 94 75.5 140.5t63.5 73t82 26.5q43 0 67.5 -20.5t24.5 -51.5q0 -33 -21.5 -55.5 t-58.5 -22.5q-25 0 -49.5 14.5t-36.5 14.5q-43 0 -137 -168q-33 -61 -64 -92q59 -8 97 -46t104 -144l35 -54q39 -63 62.5 -94t56 -48t84.5 -17q6 0 6 -12.5t-6 -12.5h-226q-14 0 -20 7t-34 56.5t-77 133.5q-51 84 -85 124.5t-69.5 56t-91.5 15.5h-14v-227q0 -61 10.5 -91 t37 -40t85.5 -10q4 0 4 -12.5t-4 -12.5q-55 0 -86 2l-104 2l-107 -2q-29 -2 -80 -2q-6 0 -6 12.5t6 12.5q57 0 84 10t36 39.5t9 91.5v227h-14q-55 0 -90 -15.5t-68.5 -55t-85.5 -125.5l-82 -144q-23 -41 -28.5 -47t-20.5 -6h-225q-6 0 -6 12.5zM410 1063q0 39 23.5 61.5 t64.5 22.5t62.5 -21.5t21.5 -62.5q0 -39 -21.5 -61.5t-62.5 -22.5t-64.5 22.5t-23.5 61.5zM768 1063q0 39 23.5 61.5t64.5 22.5t63.5 -21.5t22.5 -62.5t-22.5 -62.5t-63.5 -21.5t-64.5 22.5t-23.5 61.5z" />
<glyph unicode="&#x4de;" horiz-adv-x="1028" d="M117 328q0 6 11 8t13 -4q29 -166 133.5 -245t229.5 -79q137 0 203.5 92.5t66.5 229.5q0 166 -93 251t-269 85q-8 0 -8.5 12t8.5 12q160 0 240.5 78t80.5 213t-67.5 215t-180.5 80q-106 0 -189 -79t-124 -232q0 -4 -8 -4q-4 0 -9 3t-5 5l28 231q4 25 8 33t23 14 q158 55 303 56q174 0 267 -80t93 -199q0 -113 -80.5 -206t-185.5 -130q144 -10 233 -98t89 -223q0 -113 -62.5 -202t-169 -139.5t-235.5 -50.5q-84 0 -165 20.5t-126 57.5q-18 10 -22.5 17.5t-6.5 29.5zM250 1552q0 39 23.5 61.5t64.5 22.5t62.5 -21.5t21.5 -62.5 q0 -39 -21.5 -61.5t-62.5 -22.5t-64.5 22.5t-23.5 61.5zM608 1552q0 39 23.5 61.5t64.5 22.5t63.5 -21.5t22.5 -62.5t-22.5 -62.5t-63.5 -21.5t-64.5 22.5t-23.5 61.5z" />
<glyph unicode="&#x4df;" horiz-adv-x="755" d="M82 231q0 6 11 8.5t13 -6.5q29 -106 98.5 -166.5t164.5 -60.5q88 0 131 51.5t43 139.5q0 104 -60.5 163.5t-191.5 59.5q-10 0 -10 11t10 11q119 0 171 41t52 117q0 176 -158 176q-84 0 -137 -50t-90 -151q0 -2 -8 -2q-18 0 -17 7l52 254q0 4 8 4q6 0 12 -3.5t4 -5.5 q-2 -6 -2 -18q0 -35 33 -35q20 0 55 15q47 14 77 20t73 6q109 0 168 -50t59 -124q0 -66 -51 -120t-139 -81q108 -10 168.5 -73.5t60.5 -153.5q0 -111 -92 -175.5t-232 -64.5q-66 0 -128 14.5t-107 37.5q-14 6 -18.5 12t-6.5 22zM119 1063q0 39 23.5 61.5t64.5 22.5 t62.5 -21.5t21.5 -62.5q0 -39 -21.5 -61.5t-62.5 -22.5t-64.5 22.5t-23.5 61.5zM477 1063q0 39 23.5 61.5t64.5 22.5t63.5 -21.5t22.5 -62.5t-22.5 -62.5t-63.5 -21.5t-64.5 22.5t-23.5 61.5z" />
<glyph unicode="&#x4e0;" horiz-adv-x="1052" d="M106 1022l82 319q0 2 9 2q20 0 16 -6q-2 -6 -2 -16q0 -25 23.5 -33t95.5 -8h600q10 0 15 -9t-1 -18l-385 -534q184 -12 288.5 -106.5t104.5 -245.5q0 -113 -61.5 -202t-170 -139.5t-239.5 -50.5q-88 0 -175 20.5t-136 57.5q-18 10 -22.5 17.5t-6.5 29.5l-24 228q0 6 11 8 t13 -4q31 -166 142.5 -245t238.5 -79q143 0 209 91t66 231q0 178 -96.5 269t-278.5 91q-8 0 -14.5 9.5t-1.5 15.5l366 514q8 12 7 14t-15 2q-272 0 -380 -11t-159 -56t-94 -160q0 -4 -8 -4q-6 0 -12.5 3t-4.5 5z" />
<glyph unicode="&#x4e1;" horiz-adv-x="823" d="M16 -416q0 35 18.5 50.5t43.5 15.5q29 0 49 -17.5t51 -56.5q45 -55 88 -86t113 -31q123 0 178 112t55 279q0 193 -83 304.5t-283 111.5q-8 0 -11.5 8.5t1.5 14.5l329 461q8 14 -10 14q-164 0 -260 -14.5t-153.5 -53.5t-80.5 -114q0 -4 -8 -4q-6 0 -12 3t-4 5l69 264 q2 4 14.5 3t10.5 -5q-2 -6 -2 -17q0 -25 22.5 -32.5t75.5 -7.5h478q10 0 16 -8.5t0 -16.5l-336 -471q119 2 204 -54.5t129 -151.5t44 -206q0 -131 -56.5 -235.5t-158 -163.5t-232.5 -59q-127 0 -213 47t-86 112z" />
<glyph unicode="&#x4e2;" horiz-adv-x="1574" d="M68 1267.5q0 12.5 4 12.5l106 -2q86 -4 139 -4q59 0 150 4l96 2q6 0 6 -12.5t-6 -12.5q-80 0 -116.5 -11t-49 -39.5t-12.5 -90.5v-956l883 1132q6 6 22 6q31 0 31 -14v-1116q0 -61 13.5 -91t50 -40t114.5 -10q6 0 6 -12.5t-6 -12.5q-63 0 -102 2l-142 2l-149 -2 q-37 -2 -96 -2q-6 0 -6 12.5t6 12.5q80 0 116.5 10t49 38.5t12.5 92.5v944l-881 -1128q-6 -8 -24 -9q-31 0 -31 15v1126q0 61 -13.5 90t-51 40t-115.5 11q-4 0 -4 12.5zM541 1507q0 29 12 29h514q12 0 12 -29t-12 -28h-514q-12 -1 -12 28z" />
<glyph unicode="&#x4e3;" horiz-adv-x="1056" d="M59.5 12.5q-0.5 12.5 6.5 12.5q57 0 84.5 10t37 39.5t9.5 91.5v459q0 61 -9.5 90.5t-36 40t-83.5 10.5q-6 0 -6.5 12.5t6.5 12.5q51 0 79 -3l109 -2l104 2q31 2 82 3q4 0 4 -12.5t-4 -12.5q-57 0 -84.5 -12.5t-37 -42t-9.5 -90.5v-414l437 438q-2 76 -27 98.5t-103 22.5 q-6 0 -6 12.5t6 12.5q51 0 80 -3l109 -2l104 2q31 2 82 3q4 0 4 -12.5t-4 -12.5q-57 0 -84.5 -12.5t-37 -42t-9.5 -90.5v-455q0 -61 9.5 -91t37 -40t84.5 -10q4 0 4 -12.5t-4 -12.5q-53 0 -84 2l-102 2l-111 -2q-29 -2 -80 -2q-6 0 -6 12.5t6 12.5q57 0 84 10t37.5 39.5 t10.5 91.5v422l-437 -438q2 -53 12.5 -80t37 -36t81.5 -9q4 0 4 -12.5t-4 -12.5q-53 0 -84 2l-102 2l-109 -2q-29 -2 -81 -2q-6 0 -6.5 12.5zM262 1018q0 29 12 29h514q12 0 13 -29q0 -29 -13 -29h-514q-12 0 -12 29z" />
<glyph unicode="&#x4e4;" horiz-adv-x="1574" d="M68 1267.5q0 12.5 4 12.5l106 -2q86 -4 139 -4q59 0 150 4l96 2q6 0 6 -12.5t-6 -12.5q-80 0 -116.5 -11t-49 -39.5t-12.5 -90.5v-956l883 1132q6 6 22 6q31 0 31 -14v-1116q0 -61 13.5 -91t50 -40t114.5 -10q6 0 6 -12.5t-6 -12.5q-63 0 -102 2l-142 2l-149 -2 q-37 -2 -96 -2q-6 0 -6 12.5t6 12.5q80 0 116.5 10t49 38.5t12.5 92.5v944l-881 -1128q-6 -8 -24 -9q-31 0 -31 15v1126q0 61 -13.5 90t-51 40t-115.5 11q-4 0 -4 12.5zM545 1552q0 39 23.5 61.5t64.5 22.5t62.5 -21.5t21.5 -62.5q0 -39 -21.5 -61.5t-62.5 -22.5t-64.5 22.5 t-23.5 61.5zM903 1552q0 39 23.5 61.5t64.5 22.5t63.5 -21.5t22.5 -62.5t-22.5 -62.5t-63.5 -21.5t-64.5 22.5t-23.5 61.5z" />
<glyph unicode="&#x4e5;" horiz-adv-x="1056" d="M59.5 12.5q-0.5 12.5 6.5 12.5q57 0 84.5 10t37 39.5t9.5 91.5v459q0 61 -9.5 90.5t-36 40t-83.5 10.5q-6 0 -6.5 12.5t6.5 12.5q51 0 79 -3l109 -2l104 2q31 2 82 3q4 0 4 -12.5t-4 -12.5q-57 0 -84.5 -12.5t-37 -42t-9.5 -90.5v-414l437 438q-2 76 -27 98.5t-103 22.5 q-6 0 -6 12.5t6 12.5q51 0 80 -3l109 -2l104 2q31 2 82 3q4 0 4 -12.5t-4 -12.5q-57 0 -84.5 -12.5t-37 -42t-9.5 -90.5v-455q0 -61 9.5 -91t37 -40t84.5 -10q4 0 4 -12.5t-4 -12.5q-53 0 -84 2l-102 2l-111 -2q-29 -2 -80 -2q-6 0 -6 12.5t6 12.5q57 0 84 10t37.5 39.5 t10.5 91.5v422l-437 -438q2 -53 12.5 -80t37 -36t81.5 -9q4 0 4 -12.5t-4 -12.5q-53 0 -84 2l-102 2l-109 -2q-29 -2 -81 -2q-6 0 -6.5 12.5zM266 1063q0 39 23.5 61.5t64.5 22.5t62.5 -21.5t21.5 -62.5q0 -39 -21.5 -61.5t-62.5 -22.5t-64.5 22.5t-23.5 61.5zM625 1063 q0 39 23.5 61.5t64.5 22.5t63.5 -21.5t22.5 -62.5t-22.5 -62.5t-63.5 -21.5t-64.5 22.5t-23.5 61.5z" />
<glyph unicode="&#x4e6;" d="M100 639q0 211 106.5 361.5t273.5 226.5t341 76q195 0 342.5 -91.5t226 -241t78.5 -317.5q0 -186 -98 -341.5t-263 -246t-357 -90.5q-191 0 -339.5 89.5t-229.5 242t-81 332.5zM256 711q0 -193 71.5 -351.5t200.5 -250t293 -91.5q140 0 251.5 68t176 199t64.5 311 q0 193 -72 342t-202 233t-304 84q-225 0 -352 -145t-127 -399zM522 1552q0 39 23.5 61.5t64.5 22.5t62.5 -21.5t21.5 -62.5q0 -39 -21.5 -61.5t-62.5 -22.5t-64.5 22.5t-23.5 61.5zM881 1552q0 39 23.5 61.5t64.5 22.5t63.5 -21.5t22.5 -62.5t-22.5 -62.5t-63.5 -21.5 t-64.5 22.5t-23.5 61.5z" />
<glyph unicode="&#x4e7;" horiz-adv-x="980" d="M74 406q0 133 64.5 226t166 139t205.5 46q121 0 211 -59.5t138 -156.5t48 -206q0 -127 -59.5 -222t-158.5 -147.5t-216 -52.5q-119 0 -210 58.5t-140 158t-49 216.5zM211 469q0 -125 41 -229.5t114.5 -166t165.5 -61.5q113 0 174.5 80t61.5 246q0 127 -42 227.5 t-115.5 156.5t-168.5 56q-111 0 -171 -80t-60 -229zM225 1063q0 39 23.5 61.5t64.5 22.5t62.5 -21.5t21.5 -62.5q0 -39 -21.5 -61.5t-62.5 -22.5t-64.5 22.5t-23.5 61.5zM584 1063q0 39 23.5 61.5t64.5 22.5t63.5 -21.5t22.5 -62.5t-22.5 -62.5t-63.5 -21.5t-64.5 22.5 t-23.5 61.5z" />
<glyph unicode="&#x4e8;" d="M100 639q0 211 106.5 361.5t273.5 226.5t341 76q195 0 342.5 -91.5t226 -241t78.5 -317.5q0 -186 -98 -341.5t-263 -246t-357 -90.5q-190 0 -339 89.5t-230 242t-81 332.5zM256 686h1053q-16 168 -91 297t-199 200.5t-284 71.5q-225 0 -352 -145t-127 -399v-25zM258 643 q12 -176 87 -318.5t199 -224.5t277 -82q140 0 251.5 68t176 199t64.5 311q0 31 -2 47h-1053z" />
<glyph unicode="&#x4e9;" horiz-adv-x="980" d="M74 406q0 133 64.5 226t166 139t205.5 46q121 0 211 -59.5t138 -156.5t48 -206q0 -127 -59.5 -222t-158.5 -147.5t-216 -52.5q-119 0 -210 58.5t-140 158t-49 216.5zM211 469q0 -35 2 -53h551q-18 164 -106.5 263t-215.5 99q-110 0 -170.5 -80t-60.5 -229zM217 375 q23 -160 108 -261.5t207 -101.5q113 0 174.5 80t61.5 246v37h-551z" />
<glyph unicode="&#x4ea;" d="M100 639q0 211 106.5 361.5t273.5 226.5t341 76q195 0 342.5 -91.5t226 -241t78.5 -317.5q0 -186 -98 -341.5t-263 -246t-357 -90.5q-190 0 -339 89.5t-230 242t-81 332.5zM256 686h1053q-16 168 -91 297t-199 200.5t-284 71.5q-225 0 -352 -145t-127 -399v-25zM258 643 q12 -176 87 -318.5t199 -224.5t277 -82q140 0 251.5 68t176 199t64.5 311q0 31 -2 47h-1053zM522 1552q0 39 23.5 61.5t64.5 22.5t62.5 -21.5t21.5 -62.5q0 -39 -21.5 -61.5t-62.5 -22.5t-64.5 22.5t-23.5 61.5zM881 1552q0 39 23.5 61.5t64.5 22.5t63.5 -21.5t22.5 -62.5 t-22.5 -62.5t-63.5 -21.5t-64.5 22.5t-23.5 61.5z" />
<glyph unicode="&#x4eb;" horiz-adv-x="980" d="M74 406q0 133 64.5 226t166 139t205.5 46q121 0 211 -59.5t138 -156.5t48 -206q0 -127 -59.5 -222t-158.5 -147.5t-216 -52.5q-119 0 -210 58.5t-140 158t-49 216.5zM211 469q0 -35 2 -53h551q-18 164 -106.5 263t-215.5 99q-110 0 -170.5 -80t-60.5 -229zM217 375 q23 -160 108 -261.5t207 -101.5q113 0 174.5 80t61.5 246v37h-551zM225 1063q0 39 23.5 61.5t64.5 22.5t62.5 -21.5t21.5 -62.5q0 -39 -21.5 -61.5t-62.5 -22.5t-64.5 22.5t-23.5 61.5zM584 1063q0 39 23.5 61.5t64.5 22.5t63.5 -21.5t22.5 -62.5t-22.5 -62.5t-63.5 -21.5 t-64.5 22.5t-23.5 61.5z" />
<glyph unicode="&#x4ec;" horiz-adv-x="1290" d="M88 326q0 6 11.5 8t13.5 -4q47 -156 168.5 -229.5t281.5 -73.5q238 0 355.5 151.5t117.5 423.5v43h-299q-139 0 -198.5 -42t-59.5 -148q0 -6 -12 -6t-12 6l2 207q0 63 -2 94l-2 100q0 6 12 6t12 -6q2 -84 64.5 -126t201.5 -42h289q-12 180 -78.5 312.5t-172 204 t-236.5 71.5q-137 0 -249 -80t-179 -240q-2 -8 -12.5 -6t-10.5 8l29 230q4 25 8 33t23 16q197 66 397 66q223 0 365.5 -87.5t207 -229.5t64.5 -310q0 -213 -95.5 -373t-254 -244t-340.5 -84q-90 0 -193.5 20.5t-163.5 53.5q-16 10 -21 18.5t-7 28.5zM260 1552 q0 39 23.5 61.5t64.5 22.5t62.5 -21.5t21.5 -62.5q0 -39 -21.5 -61.5t-62.5 -22.5t-64.5 22.5t-23.5 61.5zM618 1552q0 39 24 61.5t65 22.5t63.5 -21.5t22.5 -62.5t-22.5 -62.5t-63.5 -21.5t-65 22.5t-24 61.5z" />
<glyph unicode="&#x4ed;" horiz-adv-x="913" d="M102 252q0 6 11.5 7t13.5 -5q31 -119 107.5 -183.5t177.5 -64.5q127 0 208.5 101.5t84.5 265.5q-223 0 -390 -23q-12 0 -12 41q0 18 4 34.5t10 14.5q88 -14 173 -18t212 -4q-10 156 -94 262t-229 106q-86 0 -146.5 -48t-103.5 -165q-2 -4 -13.5 -2t-9.5 7l48 280q0 2 8 2 q18 0 16 -8q-4 -16 -4 -23q0 -18 10.5 -27t24.5 -9q10 0 59 8q10 2 57.5 9t98.5 7q147 0 240.5 -63.5t135.5 -157.5t42 -190q0 -121 -61.5 -219.5t-167 -155t-232.5 -56.5q-63 0 -128 15.5t-103 42.5q-14 8 -18.5 14t-6.5 23zM170 1063q0 39 23.5 61.5t64.5 22.5t62.5 -21.5 t21.5 -62.5q0 -39 -21.5 -61.5t-62.5 -22.5t-64.5 22.5t-23.5 61.5zM528 1063q0 39 23.5 61.5t64.5 22.5t63.5 -21.5t22.5 -62.5t-22.5 -62.5t-63.5 -21.5t-64.5 22.5t-23.5 61.5z" />
<glyph unicode="&#x4ee;" horiz-adv-x="1251" d="M16 1267.5q0 12.5 4 12.5l82 -2q61 -4 105 -4q76 0 162 4l82 2q6 0 6 -12.5t-6 -12.5q-133 0 -134 -67q0 -23 19 -58l381 -700l313 684q16 39 17 64q0 41 -39 59t-121 18q-6 0 -6 12.5t6 12.5l84 -2q70 -4 127 -4q35 0 84 4l80 2q4 0 4 -12.5t-4 -12.5 q-53 0 -102.5 -39.5t-82.5 -111.5l-456 -989q-33 -70 -77 -105t-110 -35q-59 0 -102 28t-43 77q0 35 23.5 59.5t62.5 24.5q35 0 53 -19.5t33 -52.5q10 -23 19 -34t24 -11q41 0 74 80l69 154l-448 829q-45 82 -81 113.5t-98 31.5q-4 0 -4 12.5zM391 1507q0 29 12 29h515 q12 0 12 -29t-12 -28h-515q-12 -1 -12 28z" />
<glyph unicode="&#x4ef;" horiz-adv-x="890" d="M-72 -496q0 29 18.5 45.5t45.5 16.5t45 -6t39 -21q4 -2 23.5 -12t47.5 -10q49 0 93.5 43t94.5 144t118 280l-312 637q-47 90 -71.5 117.5t-63.5 27.5q-4 0 -4 12.5t4 12.5l70 -3q25 -2 67 -2l131 2q29 2 80 3q4 0 4 -12.5t-4 -12.5q-119 0 -118 -47q0 -12 10 -33 l270 -555l164 471q16 49 16 78q0 47 -36.5 66.5t-120.5 19.5q-4 0 -4 12.5t4 12.5q55 0 84 -3l122 -2l74 2q20 2 64 3q6 0 6 -12.5t-6 -12.5q-51 0 -88 -37t-70 -121l-250 -665q-76 -199 -142.5 -310.5t-137 -159.5t-162.5 -48q-45 0 -75 20t-30 59zM188 1018q0 29 13 29 h514q12 0 12 -29t-12 -29h-514q-13 0 -13 29z" />
<glyph unicode="&#x4f0;" horiz-adv-x="1251" d="M16 1267.5q0 12.5 4 12.5l82 -2q61 -4 105 -4q76 0 162 4l82 2q6 0 6 -12.5t-6 -12.5q-133 0 -134 -67q0 -23 19 -58l381 -700l313 684q16 39 17 64q0 41 -39 59t-121 18q-6 0 -6 12.5t6 12.5l84 -2q70 -4 127 -4q35 0 84 4l80 2q4 0 4 -12.5t-4 -12.5 q-53 0 -102.5 -39.5t-82.5 -111.5l-456 -989q-33 -70 -77 -105t-110 -35q-59 0 -102 28t-43 77q0 35 23.5 59.5t62.5 24.5q35 0 53 -19.5t33 -52.5q10 -23 19 -34t24 -11q41 0 74 80l69 154l-448 829q-45 82 -81 113.5t-98 31.5q-4 0 -4 12.5zM395 1552q0 39 23.5 61.5 t64.5 22.5t62.5 -21.5t21.5 -62.5q0 -39 -21.5 -61.5t-62.5 -22.5t-64.5 22.5t-23.5 61.5zM754 1552q0 39 23.5 61.5t64.5 22.5t63.5 -21.5t22.5 -62.5t-22.5 -62.5t-63.5 -21.5t-64.5 22.5t-23.5 61.5z" />
<glyph unicode="&#x4f1;" horiz-adv-x="890" d="M-72 -496q0 29 18.5 45.5t45.5 16.5t45 -6t39 -21q4 -2 23.5 -12t47.5 -10q49 0 93.5 43t94.5 144t118 280l-312 637q-47 90 -71.5 117.5t-63.5 27.5q-4 0 -4 12.5t4 12.5l70 -3q25 -2 67 -2l131 2q29 2 80 3q4 0 4 -12.5t-4 -12.5q-119 0 -118 -47q0 -12 10 -33 l270 -555l164 471q16 49 16 78q0 47 -36.5 66.5t-120.5 19.5q-4 0 -4 12.5t4 12.5q55 0 84 -3l122 -2l74 2q20 2 64 3q6 0 6 -12.5t-6 -12.5q-51 0 -88 -37t-70 -121l-250 -665q-76 -199 -142.5 -310.5t-137 -159.5t-162.5 -48q-45 0 -75 20t-30 59zM193 1063 q0 39 23.5 61.5t64.5 22.5t62.5 -21.5t21.5 -62.5q0 -39 -21.5 -61.5t-62.5 -22.5t-64.5 22.5t-23.5 61.5zM551 1063q0 39 23.5 61.5t64.5 22.5t63.5 -21.5t22.5 -62.5t-22.5 -62.5t-63.5 -21.5t-64.5 22.5t-23.5 61.5z" />
<glyph unicode="&#x4f2;" horiz-adv-x="1251" d="M16 1267.5q0 12.5 4 12.5l82 -2q61 -4 105 -4q76 0 162 4l82 2q6 0 6 -12.5t-6 -12.5q-133 0 -134 -67q0 -23 19 -58l381 -700l313 684q16 39 17 64q0 41 -39 59t-121 18q-6 0 -6 12.5t6 12.5l84 -2q70 -4 127 -4q35 0 84 4l80 2q4 0 4 -12.5t-4 -12.5 q-53 0 -102.5 -39.5t-82.5 -111.5l-456 -989q-33 -70 -77 -105t-110 -35q-59 0 -102 28t-43 77q0 35 23.5 59.5t62.5 24.5q35 0 53 -19.5t33 -52.5q10 -23 19 -34t24 -11q41 0 74 80l69 154l-448 829q-45 82 -81 113.5t-98 31.5q-4 0 -4 12.5zM506 1403l57 319q2 8 45 18.5 t72 10.5q23 0 18 -6l-172 -348q-4 -4 -13 -2t-7 8zM754 1403l59 319q2 8 45 18.5t72 10.5q23 0 18 -6l-172 -348q-4 -4 -14 -2t-8 8z" />
<glyph unicode="&#x4f3;" horiz-adv-x="890" d="M-72 -496q0 29 18.5 45.5t45.5 16.5t45 -6t39 -21q4 -2 23.5 -12t47.5 -10q49 0 93.5 43t94.5 144t118 280l-312 637q-47 90 -71.5 117.5t-63.5 27.5q-4 0 -4 12.5t4 12.5l70 -3q25 -2 67 -2l131 2q29 2 80 3q4 0 4 -12.5t-4 -12.5q-119 0 -118 -47q0 -12 10 -33 l270 -555l164 471q16 49 16 78q0 47 -36.5 66.5t-120.5 19.5q-4 0 -4 12.5t4 12.5q55 0 84 -3l122 -2l74 2q20 2 64 3q6 0 6 -12.5t-6 -12.5q-51 0 -88 -37t-70 -121l-250 -665q-76 -199 -142.5 -310.5t-137 -159.5t-162.5 -48q-45 0 -75 20t-30 59zM295 975l106 491 q2 8 43 19.5t66 11.5q18 0 16 -8l-209 -518q0 -4 -8 -4q-6 0 -11 3t-3 5zM565 975l107 491q2 8 43 19.5t65 11.5q18 0 17 -8l-209 -518q0 -4 -8 -4q-6 0 -11.5 3t-3.5 5z" />
<glyph unicode="&#x4f4;" horiz-adv-x="1284" d="M-8 1267.5q0 12.5 6 12.5l86 -2q82 -4 147 -4q61 0 144 4l80 2q6 0 6 -12.5t-6 -12.5q-66 0 -97.5 -12t-43 -42t-11.5 -91v-203q0 -174 76 -264t217 -90q154 0 301 102v455q0 61 -11.5 91t-42 42t-98.5 12q-4 0 -4 12.5t4 12.5l91 -2q82 -4 131 -4q55 0 141 4l102 2 q6 0 6.5 -12.5t-6.5 -12.5q-78 0 -115.5 -11t-51 -39.5t-13.5 -90.5v-948q0 -61 13.5 -91t51.5 -40t115 -10q7 0 7 -12.5t-7 -12.5q-63 0 -102 2l-141 2l-146 -2q-35 -2 -98 -2q-6 0 -6 12.5t6 12.5q78 0 113.5 10t48 38.5t12.5 92.5v459q-170 -121 -352 -121 q-168 0 -270.5 90t-102.5 242v278q0 61 -13.5 90t-49 40t-111.5 11q-6 0 -6 12.5zM350 1552q0 39 23.5 61.5t64.5 22.5t62.5 -21.5t21.5 -62.5q0 -39 -21.5 -61.5t-62.5 -22.5t-64.5 22.5t-23.5 61.5zM709 1552q0 39 23.5 61.5t64.5 22.5t63.5 -21.5t22.5 -62.5t-22.5 -62.5 t-63.5 -21.5t-64.5 22.5t-23.5 61.5z" />
<glyph unicode="&#x4f5;" horiz-adv-x="901" d="M-29.5 690q-5.5 10 2.5 15l228 102l8 2q6 0 13 -5t7 -11v-252q0 -98 48.5 -149.5t132.5 -51.5q100 0 194 63v146q0 80 -14.5 115.5t-46.5 35.5q-23 0 -70 -20h-2q-8 0 -12 11t4 14l227 102l8 2q6 0 13.5 -5t7.5 -11v-627q0 -61 9 -91t36 -40t84 -10q6 0 6 -12.5t-6 -12.5 q-51 0 -82 2l-102 2l-111 -2q-29 -2 -80 -2q-6 0 -6 12.5t6 12.5q57 0 84 10t37 39.5t10 91.5v203q-127 -100 -264 -101q-109 0 -167 58.5t-58 167.5q0 100 -11.5 153t-48.5 53q-23 0 -69 -20h-2q-8 0 -13.5 10zM162 1063q0 39 23.5 61.5t64.5 22.5t62.5 -21.5t21.5 -62.5 q0 -39 -21.5 -61.5t-62.5 -22.5t-64.5 22.5t-23.5 61.5zM520 1063q0 39 23.5 61.5t64.5 22.5t63.5 -21.5t22.5 -62.5t-22.5 -62.5t-63.5 -21.5t-64.5 22.5t-23.5 61.5z" />
<glyph unicode="&#x4f6;" horiz-adv-x="1050" d="M80 12.5q0 12.5 4 12.5q80 0 117 10t50 39.5t13 91.5v948q0 61 -13 90t-49 40t-114 11q-4 0 -4 12.5t4 12.5h866q20 0 21 -18l4 -269q0 -6 -12.5 -6t-12.5 6q-8 115 -69.5 179.5t-159.5 64.5h-162q-70 0 -104.5 -10t-48 -37t-13.5 -78v-938q0 -66 17.5 -96.5t66.5 -41.5 t156 -11q16 0 19 -3.5t3 -21.5v-59q-4 -102 -4 -324q0 -10 -12 -10t-12 10q0 209 -68.5 296t-230.5 87h-248q-4 0 -4 12.5z" />
<glyph unicode="&#x4f7;" horiz-adv-x="761" d="M59.5 12.5q-0.5 12.5 6.5 12.5q57 0 83.5 10t37 39.5t10.5 91.5v459q0 61 -9.5 90.5t-36 40t-83.5 10.5q-6 0 -6.5 12.5t6.5 12.5h610q12 0 14 -3.5t2 -15.5q0 -41 -2 -72.5t-4 -54.5l-4 -121q0 -4 -11 -4t-14 4q-8 131 -55 184.5t-149 53.5q-61 0 -91 -12.5t-41.5 -42 t-11.5 -86.5v-455q0 -82 4 -104.5t25.5 -29.5t91.5 -7q16 0 18.5 -3.5t2.5 -21.5l-2 -45q-10 -98 -11 -223q0 -10 -11 -10.5t-11 10.5q0 147 -63.5 207.5t-176.5 60.5h-112q-6 0 -6.5 12.5z" />
<glyph unicode="&#x4f8;" horiz-adv-x="1742" d="M84 12.5q0 12.5 4 12.5q80 2 116 12t50 38.5t14 90.5v948q0 61 -13 90t-49 39t-114 12q-6 0 -6 12.5t6 12.5l98 -2q82 -4 140 -4q59 0 149 4l101 2q4 0 4 -12.5t-4 -12.5q-80 -2 -117 -12t-50.5 -39.5t-13.5 -93.5v-410q117 23 230 23q194 0 302.5 -78t108.5 -258 q0 -117 -52 -207t-146 -139t-215 -49q-53 0 -127 6q-29 2 -73 4t-97 2l-135 -2q-39 -2 -107 -2q-4 0 -4 12.5zM399 166q0 -72 37 -104.5t150 -32.5q166 0 238.5 74.5t72.5 234.5q0 184 -82 264t-237 80q-80 0 -179 -20v-496zM616 1552q0 39 24 61.5t65 22.5t62 -21.5 t21 -62.5q0 -39 -21.5 -61.5t-61.5 -22.5q-41 0 -65 22.5t-24 61.5zM975 1552q0 39 23.5 61.5t64.5 22.5t63.5 -21.5t22.5 -62.5t-22.5 -62.5t-63.5 -21.5t-64.5 22.5t-23.5 61.5zM1153 12.5q0 12.5 6 12.5q78 0 114 10t49 39.5t13 91.5v948q0 61 -13 90t-49 40t-114 11 q-6 0 -6 12.5t6 12.5l101 -2q86 -4 141 -4q61 0 147 4l97 2q6 0 6 -12.5t-6 -12.5q-76 0 -112 -12t-49.5 -42t-13.5 -91v-944q0 -61 12.5 -91t48.5 -40t114 -10q6 0 6 -12.5t-6 -12.5q-61 0 -99 2l-145 2l-141 -2q-37 -2 -101 -2q-6 0 -6 12.5z" />
<glyph unicode="&#x4f9;" horiz-adv-x="1302" d="M10.5 691q-4.5 11 3.5 14l228 102l8 2q6 0 13 -5t7 -11v-359q90 31 201 31q281 0 281 -221q0 -127 -87 -199t-243 -72q-131 0 -198.5 50.5t-67.5 146.5v379q0 80 -14.5 115.5t-47.5 35.5q-23 0 -69 -20h-2q-8 0 -12.5 11zM270 217q0 -104 44 -160.5t135 -56.5 q174 0 174 201q0 104 -53.5 165.5t-170.5 61.5q-63 0 -129 -22v-189zM385 1063q0 39 23.5 61.5t64.5 22.5t62.5 -21.5t21.5 -62.5q0 -39 -21.5 -61.5t-62.5 -22.5t-64.5 22.5t-23.5 61.5zM743 1063q0 39 24 61.5t64 22.5q41 0 64 -21.5t23 -62.5t-23 -62.5t-64 -21.5 t-64.5 22.5t-23.5 61.5zM819 669.5q-4 10.5 2 14.5l266 123l9 2q4 0 10 -5t6 -11q0 -14 -2 -82t-2 -160v-385q0 -61 10 -90t37 -40t82 -11q6 0 6 -12.5t-6 -12.5q-47 0 -76 2l-110 2l-111 -2q-29 -2 -78 -2q-4 0 -4 12.5t4 12.5q55 0 83 11t38 40.5t10 89.5v383 q0 74 -15 106.5t-52 32.5t-92 -29h-3q-8 0 -12 10.5z" />
<glyph unicode="&#x4fa;" horiz-adv-x="1050" d="M82 12.5q0 12.5 4 12.5q78 0 115 10t50 39.5t13 91.5v450h-137q-8 0 -8 21q0 20 8 20h137v457q0 61 -13 90t-49 40t-114 11q-4 0 -4 12.5t4 12.5h866q20 0 21 -18l4 -269q0 -6 -12.5 -6t-12.5 6q-8 115 -69.5 179.5t-159.5 64.5h-162q-70 0 -104.5 -10t-48 -37t-13.5 -78 v-455h234q4 0 7 -6t3 -14t-3 -14.5t-7 -6.5h-234v-442q0 -66 14.5 -97.5t37 -40.5t63.5 -13q123 -10 187.5 -58.5t64.5 -144.5q0 -88 -57.5 -151.5t-174.5 -63.5q-57 0 -99 21.5t-42 58.5q0 29 20.5 50t51.5 21q33 0 46 -18.5t21 -52.5q6 -27 13.5 -40.5t25.5 -13.5 q45 0 70 32t25 91q0 119 -73 182.5t-188 63.5h-317q-4 0 -4 12.5z" />
<glyph unicode="&#x4fb;" horiz-adv-x="761" d="M61.5 12.5q-0.5 12.5 6.5 12.5q57 0 83.5 10t36 38.5t9.5 88.5v207h-101q-4 0 -7 6t-3 14t3 14.5t7 6.5h101v215q0 61 -9.5 90.5t-36 40t-83.5 10.5q-6 0 -6.5 12.5t6.5 12.5h610q12 0 14 -3.5t2 -15.5q0 -41 -2 -72.5t-4 -54.5l-4 -121q0 -4 -11 -4t-14 4 q-8 131 -55 184.5t-149 53.5q-61 0 -91 -12.5t-41.5 -42t-11.5 -86.5v-211h150q10 0 10 -21q0 -20 -10 -20h-150v-203q0 -88 33 -114.5t100 -33.5q100 -8 149.5 -56t49.5 -140q0 -90 -55.5 -153.5t-171.5 -63.5q-57 0 -99.5 21.5t-42.5 58.5q0 29 20.5 50t51.5 21 q35 0 47.5 -18.5t20.5 -52.5q6 -27 14 -40.5t27 -13.5q43 0 67.5 32t24.5 93q0 117 -58.5 180.5t-152.5 63.5h-268q-6 0 -6.5 12.5z" />
<glyph unicode="&#x4fc;" horiz-adv-x="1335" d="M29 12.5q0 12.5 6 12.5q141 0 278 186l289 397l-330 498q-53 82 -105 115.5t-124 33.5q-4 0 -4 12.5t4 12.5l78 -2q53 -4 78 -4q70 0 168 4l106 2q6 0 6 -12.5t-6 -12.5q-53 0 -78.5 -8t-25.5 -28q0 -16 18 -45l303 -457l240 340q55 78 55 127q0 72 -115 71q-6 0 -6 12.5 t6 12.5l93 -2q78 -4 141 -4q37 0 86 4l76 2q6 0 6 -12.5t-6 -12.5q-68 0 -141.5 -51t-147.5 -151l-266 -367l428 -645q86 -125 86 -254q0 -127 -88 -207t-219 -80q-70 0 -110 23.5t-40 64.5q0 31 18.5 49.5t51.5 18.5q35 0 53 -15.5t39 -46.5q18 -29 33.5 -41t42.5 -12 q45 0 81.5 43t36.5 115q0 123 -94 266l-407 613l-263 -369q-49 -70 -49 -113q0 -72 121 -71q6 0 6 -12.5t-6 -12.5q-61 0 -94 2l-141 2l-86 -2q-23 -2 -76 -2q-6 0 -6 12.5z" />
<glyph unicode="&#x4fd;" horiz-adv-x="899" d="M23 12.5q0 12.5 4 12.5q53 0 115.5 38.5t115.5 112.5l139 195l-166 250q-49 76 -102 110.5t-96 34.5q-4 0 -4 12.5t4 12.5q43 0 63 -3l64 -2l131 2q29 2 80 3q4 0 4 -12.5t-4 -12.5q-35 0 -51.5 -6t-16.5 -21q0 -12 27 -53l141 -213l104 154q43 63 43 92q0 25 -27.5 36 t-90.5 11q-4 0 -4 12.5t4 12.5q55 0 84 -3l123 -2l73 2q20 2 66 3q4 0 4 -12.5t-4 -12.5q-55 0 -115.5 -38t-116.5 -114l-125 -168l302 -450q92 -133 92 -252q0 -100 -64.5 -186t-214.5 -136q-6 -2 -10 8.5t0 14.5q88 31 131 100.5t43 155.5q0 57 -23.5 119.5t-82.5 152.5 l-244 367l-123 -176q-41 -61 -41 -90q0 -25 27.5 -37t89.5 -12q6 0 6 -12.5t-6 -12.5q-55 0 -82 2l-123 2l-74 -2q-20 -2 -65 -2q-4 0 -4 12.5z" />
<glyph unicode="&#x4fe;" horiz-adv-x="1335" d="M29 12.5q0 12.5 6 12.5q141 0 278 186l289 395l-12 17h-309q-4 0 -6.5 7t-2.5 15t3.5 14.5t5.5 6.5h282l-291 440q-53 82 -105 115.5t-124 33.5q-4 0 -4 12.5t4 12.5l78 -2q53 -4 78 -4q70 0 168 4l106 2q6 0 6 -12.5t-6 -12.5q-53 0 -78.5 -8t-25.5 -28q0 -16 18 -45 l303 -457l240 340q55 78 55 127q0 72 -115 71q-6 0 -6 12.5t6 12.5l93 -2q78 -4 141 -4q37 0 86 4l76 2q6 0 6 -12.5t-6 -12.5q-68 0 -141.5 -51t-147.5 -151l-268 -367l8 -10h307q4 0 7 -6t3 -15q0 -8 -3 -14t-7 -6h-281l308 -465q53 -80 109.5 -112.5t139.5 -32.5 q5 0 5 -12.5t-5 -12.5q-53 0 -83 2l-113 2l-158 -2q-37 -2 -100 -2q-4 0 -4 12.5t4 12.5q55 0 79.5 8t24.5 26t-18 45l-311 471l-261 -366q-49 -70 -49 -113q0 -72 121 -71q6 0 6 -12.5t-6 -12.5q-61 0 -94 2l-141 2l-86 -2q-23 -2 -76 -2q-6 0 -6 12.5z" />
<glyph unicode="&#x4ff;" horiz-adv-x="899" d="M23 12.5q0 12.5 4 12.5q53 0 115.5 38.5t115.5 112.5l139 195l-6 10h-246q-10 0 -10 22q0 8 3 14.5t7 6.5h217l-131 197q-49 76 -102 110.5t-96 34.5q-4 0 -4 12.5t4 12.5q43 0 63 -3l64 -2l131 2q29 2 80 3q4 0 4 -12.5t-4 -12.5q-35 0 -51.5 -5t-16.5 -20q0 -14 27 -55 l141 -213l104 154q43 63 43 92q0 25 -27.5 36t-90.5 11q-4 0 -4 12.5t4 12.5q55 0 84 -3l123 -2l73 2q20 2 66 3q4 0 4 -12.5t-4 -12.5q-55 0 -115.5 -38t-116.5 -114l-125 -170l9 -12h247q10 0 11 -20q0 -20 -11 -21h-221l148 -221q51 -78 105 -111.5t97 -33.5q5 0 5 -12.5 t-5 -12.5l-65 2q-23 2 -66 2l-131 -2q-31 -2 -82 -2q-6 0 -6 12.5t6 12.5q37 0 52.5 5t15.5 19q0 18 -25 55l-155 236l-123 -176q-41 -61 -41 -90q0 -25 27.5 -37t89.5 -12q6 0 6 -12.5t-6 -12.5q-55 0 -82 2l-123 2l-74 -2q-20 -2 -65 -2q-4 0 -4 12.5z" />
<glyph unicode="&#x2000;" horiz-adv-x="875" />
<glyph unicode="&#x2001;" horiz-adv-x="1751" />
<glyph unicode="&#x2002;" horiz-adv-x="875" />
<glyph unicode="&#x2003;" horiz-adv-x="1751" />
<glyph unicode="&#x2004;" horiz-adv-x="583" />
<glyph unicode="&#x2005;" horiz-adv-x="437" />
<glyph unicode="&#x2006;" horiz-adv-x="291" />
<glyph unicode="&#x2007;" horiz-adv-x="291" />
<glyph unicode="&#x2008;" horiz-adv-x="218" />
<glyph unicode="&#x2009;" horiz-adv-x="350" />
<glyph unicode="&#x200a;" horiz-adv-x="97" />
<glyph unicode="&#x2010;" horiz-adv-x="661" d="M55 385q0 39 6 39l535 96q4 2 7 -11t3 -30q0 -41 -10 -45l-530 -96q-5 -2 -8 14.5t-3 32.5z" />
<glyph unicode="&#x2011;" horiz-adv-x="661" d="M55 385q0 39 6 39l535 96q4 2 7 -11t3 -30q0 -41 -10 -45l-530 -96q-5 -2 -8 14.5t-3 32.5z" />
<glyph unicode="&#x2012;" horiz-adv-x="661" d="M55 385q0 39 6 39l535 96q4 2 7 -11t3 -30q0 -41 -10 -45l-530 -96q-5 -2 -8 14.5t-3 32.5z" />
<glyph unicode="&#x2013;" horiz-adv-x="1054" d="M59 391q0 14 3.5 25.5t5.5 11.5h917q4 0 7 -12.5t3 -26.5t-3 -27.5t-7 -13.5h-915q-4 0 -7.5 13.5t-3.5 29.5z" />
<glyph unicode="&#x2014;" horiz-adv-x="1699" d="M59 391q0 14 3.5 25.5t5.5 11.5h1562q4 0 7 -12.5t3 -26.5t-3 -27.5t-7 -13.5h-1560q-4 0 -7.5 13.5t-3.5 29.5z" />
<glyph unicode="&#x2018;" horiz-adv-x="344" d="M47 1014q0 82 37 152.5t109 140.5q2 2 6 2q6 0 10 -6.5t0 -10.5q-100 -102 -100 -241q0 -57 20 -84q18 31 64 30q36 0 57.5 -22.5t21.5 -56.5q0 -82 -94 -82q-61 0 -96 46t-35 132z" />
<glyph unicode="&#x2019;" horiz-adv-x="319" d="M47 1214q0 82 94 82q62 0 96.5 -46t34.5 -132q0 -82 -36.5 -152.5t-108.5 -140.5q-2 -2 -6 -2q-6 0 -10.5 6.5t0.5 10.5q100 102 100 241q0 57 -21 84q-18 -31 -63 -30q-37 0 -58.5 22.5t-21.5 56.5z" />
<glyph unicode="&#x201a;" horiz-adv-x="319" d="M47 63q0 82 94 82q62 0 96.5 -46t34.5 -132q0 -82 -36.5 -152.5t-108.5 -140.5q-2 -2 -6 -2q-6 0 -10.5 6.5t0.5 10.5q100 102 100 241q0 57 -21 84q-18 -31 -63 -30q-37 0 -58.5 22.5t-21.5 56.5z" />
<glyph unicode="&#x201c;" horiz-adv-x="622" d="M49 1014q0 82 37 152.5t109 140.5q2 2 6 2q6 0 10 -6.5t0 -10.5q-100 -102 -100 -241q0 -57 20 -84q18 31 64 30q36 0 57.5 -22.5t21.5 -56.5q0 -82 -94 -82q-61 0 -96 46t-35 132zM350 1014q0 82 37 152.5t109 140.5q2 2 6 2q6 0 10 -6.5t0 -10.5q-100 -102 -100 -241 q0 -57 20 -84q18 31 64 30q36 0 57.5 -22.5t21.5 -56.5q0 -82 -94 -82q-61 0 -96 46t-35 132z" />
<glyph unicode="&#x201d;" horiz-adv-x="622" d="M47 1214q0 82 94 82q62 0 96.5 -46t34.5 -132q0 -82 -36.5 -152.5t-108.5 -140.5q-2 -2 -6 -2q-6 0 -10.5 6.5t0.5 10.5q100 102 100 241q0 57 -21 84q-18 -31 -63 -30q-37 0 -58.5 22.5t-21.5 56.5zM348 1214q0 82 94 82q62 0 96.5 -46t34.5 -132q0 -82 -36.5 -152.5 t-108.5 -140.5q-2 -2 -6 -2q-6 0 -10 6.5t0 10.5q100 102 100 241q0 57 -20 84q-18 -31 -64 -30q-37 0 -58.5 22.5t-21.5 56.5z" />
<glyph unicode="&#x201e;" horiz-adv-x="626" d="M47 63q0 82 94 82q62 0 96.5 -46t34.5 -132q0 -82 -36.5 -152.5t-108.5 -140.5q-2 -2 -6 -2q-6 0 -10.5 6.5t0.5 10.5q100 102 100 241q0 57 -21 84q-18 -31 -63 -30q-37 0 -58.5 22.5t-21.5 56.5zM348 63q0 82 94 82q62 0 96.5 -46t34.5 -132q0 -82 -36.5 -152.5 t-108.5 -140.5q-2 -2 -6 -2q-6 0 -10 6.5t0 10.5q100 102 100 241q0 57 -20 84q-18 -31 -64 -30q-37 0 -58.5 22.5t-21.5 56.5z" />
<glyph unicode="&#x2026;" horiz-adv-x="1361" d="M113 66q0 39 24.5 62.5t65.5 23.5q43 0 66.5 -23t23.5 -63q0 -41 -23.5 -65t-66.5 -24q-41 0 -65.5 25t-24.5 64zM592 66q0 39 24.5 62.5t65.5 23.5q43 0 66.5 -23t23.5 -63q0 -41 -23.5 -65t-66.5 -24q-41 0 -65.5 25t-24.5 64zM1071 66q0 39 24.5 62.5t65.5 23.5 q43 0 66.5 -23t23.5 -63q0 -41 -23.5 -65t-66.5 -24q-41 0 -65.5 25t-24.5 64z" />
<glyph unicode="&#x202f;" horiz-adv-x="350" />
<glyph unicode="&#x2039;" horiz-adv-x="622" d="M113 412q0 14 8 22l362 305q0 2 4 2t8.5 -5t2.5 -7l-250 -317l250 -318q2 -4 -5.5 -11t-9.5 -1l-362 305q-8 8 -8 25z" />
<glyph unicode="&#x203a;" horiz-adv-x="622" d="M125 94l250 316l-250 319q-2 4 5 10t9 0l363 -305q10 -10 10 -22q0 -14 -10 -25l-363 -305q0 -2 -4 -2t-8 5t-2 9z" />
<glyph unicode="&#x205f;" horiz-adv-x="437" />
<glyph unicode="&#x20ac;" horiz-adv-x="1429" d="M139 543q0 10 4 16t11 6h899q8 0 8 -10t-8.5 -22.5t-18.5 -12.5h-647q31 -145 104.5 -263t177 -185.5t218.5 -67.5q145 0 251.5 80t166.5 244q2 6 12 5t10 -7l-29 -224q-2 -25 -8 -32t-22 -15q-186 -80 -391 -80q-195 0 -333 77t-215 201t-102 267h-73q-6 0 -10.5 7.5 t-4.5 15.5zM139 711q0 10 4 16t11 6h69q25 170 128.5 300t258 200t326.5 70q100 0 194.5 -25t157.5 -66q39 -31 29 -49l-98 -225q0 -2 -7 -2q-6 0 -11 3t-3 7q10 47 10 80q0 115 -94 173t-250 58q-217 0 -351 -141t-144 -383h753q8 0 8 -10t-9 -22.5t-17 -12.5h-950 q-7 0 -11 7t-4 16z" />
<glyph unicode="&#x2122;" horiz-adv-x="1474" d="M59 1124q4 23 8.5 80.5t4.5 100.5q0 6 12 7t12 -7q0 -14 14.5 -18.5t41.5 -4.5l184 -2l164 2q41 0 59.5 5t22.5 24q2 4 13 4t11 -4q-8 -172 -8 -187q0 -4 -11.5 -4t-11.5 4q0 78 -23.5 104.5t-86.5 26.5q-49 0 -64.5 -14t-15.5 -59v-379q0 -45 18.5 -59.5t79.5 -14.5 q4 0 4 -12t-4 -12l-147 2l-143 -2q-2 0 -2.5 12t2.5 12q61 0 79.5 14.5t18.5 59.5v381q0 45 -14.5 58t-65.5 13q-66 0 -92.5 -26.5t-34.5 -104.5q0 -4 -12.5 -4t-12.5 4zM633 717q0 12 2 12q45 0 64.5 24.5t21.5 77.5l12 381q-35 43 -86 43q-4 0 -4 12.5t4 12.5 q16 0 33.5 -2t30.5 -2q20 0 36.5 2t24.5 2q16 0 29.5 -12.5t34.5 -50.5l194 -388l187 418q4 14 15 23.5t23 9.5q6 0 20.5 -2t41.5 -2q29 0 48 2t38 2q4 0 4 -12.5t-4 -12.5q-51 0 -72.5 -16t-19.5 -68l12 -368q2 -45 17.5 -59.5t68.5 -14.5q4 0 4 -12t-4 -12l-131 2l-141 -2 q-2 0 -2 12t2 12q66 0 86 14.5t16 59.5l-12 385l-209 -473q-2 -6 -11.5 -6t-13.5 6l-225 438l-10 -322q-2 -53 13 -77.5t54 -24.5q4 0 4 -12t-4 -12l-92 2l-98 -2q-2 0 -2 12z" />
<glyph unicode="&#x25fc;" horiz-adv-x="788" d="M0 0v788h788v-788h-788z" />
</font>
</defs>
</svg>
