<?xml version="1.0" standalone="no"?>
<!DOCTYPE svg PUBLIC "-//W3C//DTD SVG 1.1//EN" "http://www.w3.org/Graphics/SVG/1.1/DTD/svg11.dtd" >
<svg xmlns="http://www.w3.org/2000/svg" xmlns:xlink="http://www.w3.org/1999/xlink" version="1.1">
<metadata></metadata>
<defs>
<font id="cormorant_infantbold" horiz-adv-x="1466" >
<font-face units-per-em="2048" ascent="1638" descent="-410" />
<missing-glyph horiz-adv-x="479" />
<glyph horiz-adv-x="0" />
<glyph horiz-adv-x="682" />
<glyph unicode=" "  horiz-adv-x="479" />
<glyph unicode="&#x09;" horiz-adv-x="479" />
<glyph unicode="&#xa0;" horiz-adv-x="479" />
<glyph unicode="!" horiz-adv-x="538" d="M125 1260q-4 14 43 21t100 7t101.5 -7t44.5 -21q-45 -156 -66.5 -340.5t-44.5 -466.5q0 -20 -4 -66q0 -4 -11.5 -7t-23.5 -3t-23.5 3t-11.5 7q-18 303 -38.5 503t-65.5 370zM131 102q0 53 34 86t91 33t89 -31.5t32 -87.5q0 -59 -32 -92t-89 -33t-91 34t-34 91z" />
<glyph unicode="&#x22;" horiz-adv-x="618" d="M57 1241q-2 25 65.5 48.5t121.5 23.5q18 0 27.5 -5t7.5 -14l-129 -544q-4 -4 -18.5 -6.5t-14.5 4.5zM369 1241q-2 25 65.5 48.5t120.5 23.5q18 0 27.5 -5t7.5 -14l-129 -544q-4 -4 -18.5 -6.5t-14.5 4.5z" />
<glyph unicode="#" horiz-adv-x="1077" d="M119 205q0 16 3 30.5t5 14.5h147l56 309h-129q-4 0 -7.5 16.5t-3.5 34.5q0 16 3.5 30.5t5.5 14.5h147l60 332q0 10 52 -2t50 -20l-55 -310h276l59 332q0 10 52.5 -2t50.5 -20l-55 -310h112q4 0 7 -15t3 -32q0 -18 -3 -33.5t-7 -15.5h-129l-55 -309h113q4 0 7 -15.5 t3 -33.5t-3 -33.5t-7 -15.5h-129l-58 -322q0 -8 -53 0t-49 16l53 306h-276l-58 -322q0 -8 -54 0t-50 16l53 306h-127q-4 0 -7 16t-3 37zM381 250h278l54 309h-277z" />
<glyph unicode="$" horiz-adv-x="1077" d="M152 422v2q0 8 10 9t12 -7q57 -117 102.5 -193.5t111 -136t149.5 -67.5v520q-27 20 -84 57q-98 63 -152.5 108.5t-93.5 109t-39 149.5q0 145 107.5 229t261.5 98v173q0 8 9 12t21 4t20.5 -4t8.5 -12v-170h2q72 0 145.5 -13.5t118.5 -32.5q18 -8 24.5 -17t6.5 -23v-302 q0 -6 -10.5 -9t-12.5 3l-18 41q-45 113 -101.5 196t-154.5 105v-487l41 -27q102 -66 163.5 -115t104.5 -119.5t43 -162.5q0 -141 -97 -238.5t-255 -119.5v-203q0 -14 -29 -15q-31 0 -30 15v196h-31q-92 0 -192.5 26t-135.5 56q-10 8 -15 15.5t-5 23.5zM356 1073 q0 -82 47.5 -144.5t133.5 -123.5v452q-80 -2 -130.5 -49t-50.5 -135zM596 29q68 8 110 54t42 138q0 88 -40 156.5t-112 126.5v-475z" />
<glyph unicode="%" horiz-adv-x="1175" d="M37 887q0 109 76.5 184.5t193.5 75.5t191.5 -77t74.5 -189q0 -111 -75.5 -185.5t-190.5 -74.5q-117 0 -193.5 76.5t-76.5 189.5zM164 27l758 1114q6 6 36.5 -17.5t26.5 -27.5l-760 -1112q-4 -7 -34.5 14.5t-26.5 28.5zM203 893q0 -240 119 -240q51 0 67.5 54.5 t16.5 158.5q0 123 -29 185.5t-82 62.5t-72.5 -58.5t-19.5 -162.5zM604 256q0 109 77 185.5t193 76.5q117 0 192 -78t75 -188q0 -111 -75 -186.5t-192 -75.5q-116 0 -193 76.5t-77 189.5zM772 264q0 -113 25.5 -176t91.5 -63q51 0 67.5 53t16.5 160q0 121 -29 183t-82 62 q-51 0 -70.5 -58t-19.5 -161z" />
<glyph unicode="&#x26;" d="M133 268q0 98 67.5 176t205.5 181q-33 43 -64 98q-29 57 -44 108.5t-15 112.5q0 166 105.5 272.5t287.5 106.5q127 0 200.5 -54.5t73.5 -150.5q0 -80 -46 -146.5t-105.5 -111.5t-184.5 -129q147 -219 412 -430q18 72 18 162q0 119 -38.5 173t-126.5 54q-4 0 -5.5 12.5 t5.5 12.5l487 2q6 0 6 -12.5t-6 -12.5q-61 0 -91 -13t-45.5 -44t-33.5 -98q-23 -82 -47.5 -150t-63.5 -131q133 -100 236.5 -157.5t163.5 -73.5q8 -2 7 -13.5t-7 -11.5h-336q-57 0 -197 100q-154 -125 -391 -125q-141 0 -237.5 41t-143.5 109t-47 143zM340 385 q0 -80 46 -150.5t132 -114.5t201 -44q118 0 196 53q-33 23 -88 68q-104 84 -209.5 187t-185.5 204q-92 -96 -92 -203zM475 1120q0 -160 113 -346q145 141 145 301q0 90 -42 141.5t-109 51.5q-57 0 -82 -37t-25 -111z" />
<glyph unicode="'" horiz-adv-x="307" d="M57 1241q-2 25 65.5 48.5t121.5 23.5q18 0 27.5 -5t7.5 -14l-129 -544q-4 -4 -18.5 -6.5t-14.5 4.5z" />
<glyph unicode="(" horiz-adv-x="632" d="M90 623q0 290 124 521.5t347 340.5q4 2 8 -3t0 -9q-129 -145 -189.5 -356.5t-60.5 -493.5q0 -283 60.5 -494t189.5 -356q4 -2 0 -8.5t-8 -4.5q-223 111 -347 341.5t-124 521.5z" />
<glyph unicode=")" horiz-adv-x="632" d="M63 -227q129 145 189.5 356t60.5 494t-60 493.5t-190 356.5q-4 2 0.5 8t8.5 4q223 -111 347 -341.5t124 -520.5q0 -291 -124 -522.5t-347 -340.5q-4 -2 -8.5 3.5t-0.5 9.5z" />
<glyph unicode="*" horiz-adv-x="917" d="M102 842l320 164l4 2q6 0 11 -5.5t3 -9.5l-112 -243q-3 -7 -17 -7q-27 0 -81 21.5t-96 47.5t-32 30zM131 1139q0 57 13.5 123.5t23.5 56.5l256 -254q4 -4 1 -12.5t-7 -5.5l-268 30q-18 4 -19 62zM410 1346q-4 23 76.5 44t136.5 21q25 0 22 -8l-162 -320q-2 -6 -11 -6 t-9 6zM475 985v2q0 4 8.5 9t10.5 3l196 -182q14 -12 -22.5 -62t-83.5 -92t-49 -30zM505 1040.5q-3 8.5 3 10.5l231 133q18 8 54 -42t63 -108.5t14 -56.5l-358 55q-4 0 -7 8.5z" />
<glyph unicode="+" horiz-adv-x="815" d="M59 391q0 18 2 32.5t7 14.5h288v287q0 4 16.5 7t35.5 3q18 0 33.5 -3t15.5 -7v-287h288q5 0 8 -15t3 -34q0 -18 -3 -34.5t-8 -16.5h-288v-287q0 -4 -18.5 -7t-39.5 -3q-43 0 -43 6v291h-286q-4 0 -7.5 16.5t-3.5 36.5z" />
<glyph unicode="," horiz-adv-x="454" d="M74 98q0 55 35.5 87t97.5 32q72 0 111.5 -55.5t39.5 -157.5q0 -92 -41 -171t-122 -159q-2 -2 -7 -2q-6 0 -10 6.5t0 10.5q100 102 101 241q0 57 -21 84q-18 -31 -76 -30q-49 0 -78.5 31.5t-29.5 82.5z" />
<glyph unicode="-" horiz-adv-x="661" d="M55 377q0 49 6 49l535 96q4 2 7 -15.5t3 -37.5t-3 -37.5t-7 -19.5l-530 -97q-5 -2 -8 18.5t-3 43.5z" />
<glyph unicode="." horiz-adv-x="423" d="M90 102q0 53 34 86t91 33t89 -31.5t32 -87.5q0 -59 -32 -92t-89 -33t-91 34t-34 91z" />
<glyph unicode="/" horiz-adv-x="718" d="M53 -311l516 1806q4 8 51.5 -5t45.5 -24l-514 -1804q-5 -8 -53 5.5t-46 21.5z" />
<glyph unicode="0" horiz-adv-x="1026" d="M76 641q0 313 116.5 488.5t325.5 175.5q203 0 316.5 -177.5t113.5 -492.5q0 -311 -114.5 -486.5t-319.5 -175.5t-321.5 177.5t-116.5 490.5zM315 655q0 -342 52.5 -490.5t171.5 -148.5q90 0 129 137.5t39 456.5q0 236 -21.5 377t-68 208t-121.5 67q-96 0 -138.5 -140.5 t-42.5 -466.5z" />
<glyph unicode="1" horiz-adv-x="800" d="M74 993l420 301q8 4 14 4q4 0 9 -5t5 -9v-1118q0 -59 18.5 -89t63.5 -41t135 -11q6 0 6 -12.5t-6 -12.5q-84 0 -135 2l-190 2l-189 -2q-51 -2 -137 -2q-4 0 -4 12.5t4 12.5q86 0 132 11t66.5 40.5t20.5 89.5v721q0 154 -71 153q-49 0 -146 -65l-4 -2q-6 0 -11 9t-1 11z " />
<glyph unicode="2" horiz-adv-x="907" d="M53 57q205 256 298 386t141.5 242t48.5 230q0 256 -211 256q-96 0 -158.5 -48t-81.5 -132q0 -2 -8 -2q-16 0 -14 8q23 139 123 222.5t251 83.5q154 0 238 -87.5t84 -230.5q0 -109 -47 -210t-114.5 -183t-174.5 -193q-123 -127 -168 -188q-8 -14 10 -14q219 0 320.5 10 t139.5 39.5t38 95.5q0 6 12.5 6t12.5 -6v-319q0 -8 -5.5 -15.5t-13.5 -7.5h-694q-10 0 -22.5 24.5t-4.5 32.5z" />
<glyph unicode="3" horiz-adv-x="890" d="M74 133q0 8 9 13.5t13 -1.5q43 -41 106.5 -63.5t121.5 -22.5q139 0 201.5 78t62.5 203q0 305 -318 305q-8 0 -10 11.5t10 11.5q154 0 216.5 71.5t62.5 204.5q0 252 -195 252q-78 0 -150.5 -40t-105.5 -116q0 -2 -6 -2t-13 4.5t-5 6.5q43 117 143 185.5t232 68.5 q141 0 232 -80t91 -207q0 -113 -72.5 -209t-197.5 -139q98 -4 169.5 -49.5t108.5 -114t37 -146.5q0 -172 -111.5 -277.5t-291.5 -105.5q-197 0 -338 154z" />
<glyph unicode="4" horiz-adv-x="970" d="M30 384q-5 7 1 15l671 891q4 4 13 4q6 0 12 -3t6 -9v-838l123 5q8 0 8 -43t-8 -44l-123 7v-203q0 -63 9.5 -92t34 -39t79.5 -10q4 0 4 -12.5t-4 -12.5q-61 0 -96 2l-137 2l-164 -2q-41 -2 -117 -2q-4 0 -4 12.5t4 12.5q84 0 118 9t46 36.5t12 95.5v207q-258 4 -473 4 q-10 0 -15 7zM154 451q-12 -14 10 -15q254 0 354 2v508z" />
<glyph unicode="5" horiz-adv-x="921" d="M98 133q0 8 8.5 13.5t12.5 -1.5q39 -43 98 -64.5t123 -21.5q133 0 198.5 83t65.5 220q0 156 -71.5 251.5t-206.5 95.5q-59 0 -105.5 -12.5t-56.5 -14.5q-10 0 -16.5 7t-4.5 18l66 548q2 14 6 19.5t21 5.5q279 0 370.5 3t120.5 13.5t45 42.5q2 4 12.5 3t8.5 -9l-35 -227 q-4 -25 -13.5 -33t-33.5 -8l-432 10q-27 0 -33 -28l-39 -306q115 37 219 37q190 0 299 -102.5t109 -290.5q0 -195 -118 -302.5t-302 -107.5q-96 0 -172 38t-142 116z" />
<glyph unicode="6" horiz-adv-x="1013" d="M113 469q0 199 80.5 387t233.5 312t355 135q8 0 10.5 -9.5t-4.5 -11.5q-213 -70 -328.5 -291t-115.5 -508q0 -207 59.5 -336t159.5 -129q141 0 142 291q0 160 -42 238t-128 78q-61 0 -103 -23l-4 -2q-8 0 -13 8t-1 13q80 76 204 75q144 0 231 -92t87 -239 q0 -115 -53.5 -204t-147.5 -138.5t-211 -49.5q-193 0 -302 133.5t-109 362.5z" />
<glyph unicode="7" horiz-adv-x="878" d="M41 942l90 391q2 6 14.5 5t10.5 -7q-2 -8 -2 -20q0 -18 19.5 -24.5t78.5 -6.5h543q8 0 14 -10t2 -17l-358 -1206q-9 -27 -18 -37t-29 -10h-177q-16 0 -24 9t-2 24l467 1028q8 14 -8 14q-303 0 -412 -8t-135.5 -31.5t-48.5 -99.5q-4 -4 -11 -4q-6 0 -11 3t-3 7z" />
<glyph unicode="8" horiz-adv-x="1013" d="M76 338q0 127 72.5 221t187.5 154q-72 57 -112 124.5t-40 161.5q0 150 98.5 227t237.5 77q137 0 226.5 -72t89.5 -189q0 -82 -45.5 -157.5t-122.5 -136.5q86 -56 143 -108t95 -127t38 -175q0 -106 -57.5 -189t-157.5 -129.5t-225 -46.5q-133 0 -229.5 49.5t-147.5 133.5 t-51 182zM311 385q0 -172 63.5 -269.5t176.5 -97.5q92 0 137 66t45 170q0 96 -38 164.5t-94 114t-150 104.5l-60 37q-39 -49 -59.5 -119t-20.5 -170zM367 1106q0 -104 59 -175t176 -143q35 104 35 230q0 123 -35 182.5t-110 59.5q-66 0 -95.5 -42t-29.5 -112z" />
<glyph unicode="9" horiz-adv-x="1001" d="M76 936q0 106 53 190t147.5 130.5t212.5 46.5q193 0 302.5 -132.5t109.5 -363.5q0 -199 -84 -386.5t-241.5 -311t-368.5 -136.5q-8 0 -10 9.5t4 13.5q152 45 257 164t157.5 283.5t52.5 349.5q0 207 -59.5 335.5t-157.5 128.5q-76 0 -109 -74.5t-33 -213.5q0 -160 42 -239 t128 -79q63 0 103 25h4q6 0 11 -7t1 -14q-76 -76 -203 -75q-143 0 -231 99t-88 257z" />
<glyph unicode=":" horiz-adv-x="423" d="M90 102q0 53 34 86t91 33t89 -31.5t32 -87.5q0 -59 -32 -92t-89 -33t-91 34t-34 91zM90 678q0 53 34 86t91 33t89 -32t32 -87q0 -59 -32 -92t-89 -33t-91 34t-34 91z" />
<glyph unicode=";" horiz-adv-x="475" d="M92 98q0 55 36 87t97 32q72 0 112 -55.5t40 -157.5q0 -92 -41 -171t-123 -159q-2 -2 -6 -2q-6 0 -10 6.5t0 10.5q100 102 100 241q0 57 -21 84q-18 -31 -75 -30q-49 0 -79 31.5t-30 82.5zM94 678q0 53 34 86t91 33t89 -32t32 -87q0 -59 -32 -92t-89 -33t-91 34t-34 91z " />
<glyph unicode="&#x3c;" horiz-adv-x="833" d="M63 389q0 31 11 35l684 301q6 4 10 -8t4 -33q0 -49 -14 -57l-557 -238l557 -237q14 -7 14 -58q0 -49 -14 -43l-684 303q-10 6 -11 35z" />
<glyph unicode="=" horiz-adv-x="958" d="M59 248q0 16 3.5 30.5t5.5 14.5h821q4 0 7 -15.5t3 -31.5q0 -18 -3 -33.5t-7 -15.5h-819q-4 0 -7.5 16t-3.5 35zM59 535q0 16 3.5 30.5t5.5 14.5h821q4 0 7 -15.5t3 -32.5q0 -18 -3 -33.5t-7 -15.5h-819q-4 0 -7.5 16.5t-3.5 35.5z" />
<glyph unicode="&#x3e;" horiz-adv-x="833" d="M61 92q0 18 4.5 36.5t10.5 21.5l557 237l-557 238q-6 4 -10.5 21.5t-4.5 35.5q0 20 4.5 33.5t10.5 9.5l684 -303q10 -4 10 -35q0 -29 -10 -35l-684 -301q-6 -2 -10.5 10.5t-4.5 30.5z" />
<glyph unicode="?" horiz-adv-x="694" d="M61 1112q0 72 79 120t198 48q133 0 224 -63.5t91 -180.5q0 -78 -39 -128t-114 -111l-45 -37q-63 -55 -92 -115.5t-29 -136.5q0 -31 10 -109q4 -6 -12.5 -10t-20.5 2q-25 55 -39 127t-14 121q0 61 19.5 101t58.5 89q43 53 66.5 103.5t23.5 130.5q0 78 -23.5 128t-64.5 50 q-29 0 -41 -22.5t-16 -61.5q-4 -57 -28 -99t-89 -42q-53 0 -78 28.5t-25 67.5zM188 102q0 53 34 86t91 33t89 -31.5t32 -87.5q0 -59 -31.5 -92t-89.5 -33q-57 0 -91 34t-34 91z" />
<glyph unicode="@" horiz-adv-x="1492" d="M131 358q0 195 97.5 348.5t259 238.5t346.5 85q164 0 288.5 -66.5t193 -176t68.5 -238.5q0 -119 -57 -218.5t-155.5 -157.5t-215.5 -58q-133 0 -133 121q0 33 8 65l5 14q-70 -94 -149 -149t-148 -55q-51 0 -85 32.5t-34 104.5q0 12 4 45q16 111 87 213t166 166.5 t179 64.5q31 0 58.5 -12t43.5 -37q57 23 70 64q4 4 12 4t14.5 -2t8.5 -4l-84 -459q-4 -16 -4 -47q0 -76 76 -76q49 0 100 36t86 107.5t35 171.5q0 137 -66.5 252t-182.5 181.5t-261 66.5q-156 0 -269.5 -77t-174 -208t-60.5 -286q0 -168 69.5 -294t196.5 -194.5t297 -68.5 q96 0 177 22.5t165 81.5h2q6 0 11.5 -7t-0.5 -9q-106 -90 -211 -125t-217 -35q-172 0 -312.5 68.5t-222.5 198.5t-82 308zM596 317q0 -33 11 -54t34 -21q39 0 89 48t93 123.5t58 149.5q4 29 4 41q0 39 -13.5 62.5t-37.5 23.5q-72 0 -137.5 -88t-90.5 -205q-10 -45 -10 -80z " />
<glyph unicode="A" d="M-16 12.5q0 12.5 8 12.5q57 0 96 23.5t78 84t92 178.5l444 977q4 6 19 6q16 0 18 -6l512 -1007q72 -145 119 -200.5t98 -55.5q11 0 11 -12.5t-11 -12.5q-41 0 -127 4q-90 4 -129 4q-51 0 -125 -4q-70 -4 -110 -4q-8 0 -8 12.5t8 12.5q53 0 76.5 11t23.5 40q0 35 -41 117 l-213 419h-364l-146 -321q-26 -57 -26 -107q0 -78 52 -118.5t140 -40.5q10 0 10 -12.5t-10 -12.5q-37 0 -106 4q-78 4 -135 4q-55 0 -134 -4q-70 -4 -112 -4q-8 0 -8 12.5zM485 670h310l-164 323z" />
<glyph unicode="B" horiz-adv-x="1218" d="M78 12.5q0 12.5 6 12.5q59 0 90 11t44 40.5t13 89.5v948q0 86 -28.5 113.5t-116.5 27.5q-4 0 -4 12.5t4 12.5l109 -2q94 -4 149 -4q57 0 119 6q20 2 61 4t72 2q186 0 288.5 -67.5t102.5 -196.5q0 -98 -64.5 -178t-185.5 -125q172 -21 273.5 -115t101.5 -233 q0 -106 -61.5 -192.5t-170 -136.5t-241.5 -50q-57 0 -131 6q-29 2 -71 4t-93 2l-149 -2q-41 -2 -111 -2q-6 0 -6 12.5zM461 166q0 -68 26.5 -95.5t116.5 -27.5q268 0 268 279q0 158 -75.5 250t-229.5 92q-59 0 -106 -5v-493zM461 721l82 -2q106 0 163.5 80t57.5 205 q0 117 -51 177t-148 60q-59 0 -81.5 -27.5t-22.5 -103.5v-389z" />
<glyph unicode="C" horiz-adv-x="1370" d="M100 645q0 195 105.5 344.5t281 231.5t375.5 82q90 0 188.5 -15.5t153.5 -40.5q18 -6 23.5 -15t9.5 -32l25 -285q0 -6 -10.5 -8t-12.5 6q-70 162 -186.5 250t-270.5 88q-203 0 -313.5 -149.5t-110.5 -401.5q0 -188 60.5 -343.5t170 -247t249.5 -91.5q131 0 234.5 87.5 t184.5 265.5q2 8 13.5 6t11.5 -8l-31 -279q-4 -25 -9 -32t-23 -15q-182 -68 -375 -68q-250 0 -418 99.5t-247 252t-79 318.5z" />
<glyph unicode="D" horiz-adv-x="1443" d="M57 12.5q0 12.5 4 12.5q66 0 96.5 10t42 39.5t11.5 91.5v948q0 61 -11.5 90t-41 40t-92.5 11q-6 0 -6.5 12.5t6.5 12.5l108 -2q94 -4 150 -4q84 0 172 6q106 4 143 4q207 0 367.5 -82t248.5 -223t88 -317q0 -199 -91 -351.5t-245.5 -235.5t-338.5 -83q-66 0 -156 6 q-33 2 -81 4t-107 2l-152 -2q-41 -2 -111 -2q-4 0 -4 12.5zM438 188q0 -82 43 -115.5t166 -33.5q131 0 231.5 66.5t157 197.5t56.5 313q0 174 -53.5 316.5t-152 224.5t-227.5 82q-127 0 -174 -24.5t-47 -104.5v-922z" />
<glyph unicode="E" horiz-adv-x="1130" d="M78 12.5q0 12.5 6 12.5q66 0 95.5 10t39.5 39.5t10 91.5v948q0 61 -10 90t-41 40t-94 11q-6 0 -6 12.5t6 12.5h868q20 0 21 -18l4 -273q0 -4 -11.5 -6t-13.5 4q-33 119 -110.5 176.5t-204.5 57.5h-62q-61 0 -89.5 -27t-28.5 -82v-418h170q119 0 182 41t63 115q0 6 11.5 6 t11.5 -6l-2 -184l2 -99q4 -70 4 -110q0 -4 -12.5 -4t-12.5 4q0 84 -64.5 132t-184.5 48h-168v-463q0 -59 22.5 -88t71.5 -29h67q160 0 256.5 65.5t141.5 203.5q0 4 8 4q6 0 11 -3t5 -5q-20 -160 -20 -291q0 -16 -6 -23.5t-25 -7.5h-905q-6 0 -6 12.5z" />
<glyph unicode="F" horiz-adv-x="1069" d="M63.5 12.5q-0.5 12.5 6.5 12.5q72 0 104.5 10t43.5 39.5t11 91.5v948q0 61 -10 90t-41 40t-94 11q-6 0 -6 12.5t6 12.5h868q20 0 21 -18l4 -273q0 -4 -11.5 -6t-13.5 4q-33 119 -110.5 176.5t-204.5 57.5h-62q-61 0 -89.5 -27t-28.5 -82v-442h147q119 0 181.5 42 t62.5 115q0 4 12 4t12 -4l-2 -186q0 -66 2 -98l2 -109q0 -6 -12 -6t-12 6q0 82 -64.5 130t-183.5 48h-145v-438q0 -63 16 -94t61.5 -43t141.5 -12q4 0 4 -12.5t-4 -12.5q-84 0 -131 2l-209 2l-154 -2q-41 -2 -112 -2q-6 0 -6.5 12.5z" />
<glyph unicode="G" horiz-adv-x="1472" d="M100 627q0 197 101.5 351.5t278.5 239.5t397 85q96 0 194 -15.5t158 -40.5q18 -6 23 -15t8 -32l26 -285q0 -6 -10 -8t-14 6q-72 158 -198 246t-288 88q-209 0 -318.5 -145.5t-109.5 -396.5q0 -203 69.5 -362t193.5 -246t278 -87q84 0 129 18.5t65.5 72t20.5 157.5 q0 106 -12.5 148.5t-52.5 56.5t-138 14q-12 0 -12 17q0 6 3 11t7 5q174 -10 281 -10q104 0 217 6q4 0 7 -5t3 -9q0 -14 -10 -15q-37 2 -51.5 -13t-18.5 -61.5t-4 -164.5q0 -92 7 -131t7 -50q0 -12 -5 -16t-19 -8q-264 -57 -475 -58q-226 0 -394 86t-256 234.5t-88 331.5z " />
<glyph unicode="H" horiz-adv-x="1564" d="M57 12.5q0 12.5 4 12.5q72 0 105 10t45 39.5t12 91.5v948q0 61 -12 90t-44 40t-101 11q-6 0 -6.5 12.5t6.5 12.5l110 -2q94 -4 152 -4q78 0 180 4l113 2q4 0 4 -12.5t-4 -12.5q-74 0 -109 -12t-48 -42t-13 -91v-416h661v416q0 61 -12.5 91t-47 42t-110.5 12q-6 0 -6 12.5 t6 12.5l100 -2q102 -4 185 -4q55 0 157 4l115 2q6 0 6 -12.5t-6 -12.5q-70 0 -103.5 -11t-45 -39.5t-11.5 -90.5v-948q0 -61 11.5 -91t44 -40t104.5 -10q6 0 6 -12.5t-6 -12.5q-72 0 -115 2l-157 2l-185 -2q-37 -2 -100 -2q-6 0 -6 12.5t6 12.5q76 0 110.5 10t47 38.5 t12.5 92.5v471h-661v-471q0 -61 12 -91t47 -40t111 -10q4 0 4 -12.5t-4 -12.5q-72 0 -115 2l-178 2l-154 -2q-41 -2 -113 -2q-4 0 -4 12.5z" />
<glyph unicode="I" horiz-adv-x="700" d="M82 12.5q0 12.5 4 12.5q66 0 96.5 10t42 39.5t11.5 91.5v948q0 61 -11.5 90t-42 40t-96.5 11q-4 0 -4 12.5t4 12.5l111 -2q94 -4 151 -4q63 0 158 4l104 2q6 0 6 -12.5t-6 -12.5q-63 0 -94 -12t-41 -42t-10 -91v-944q0 -64 10 -92.5t40 -38.5t95 -10q6 0 6 -12.5 t-6 -12.5q-68 0 -106 2l-156 2l-151 -2q-41 -2 -111 -2q-4 0 -4 12.5z" />
<glyph unicode="J" horiz-adv-x="694" d="M-117 -373q0 41 27 73t80 32q51 0 78.5 -31t50.5 -86q12 -33 24.5 -50.5t30.5 -17.5q43 0 63.5 70t20.5 231v1266q0 61 -13.5 90t-48 40t-110.5 11q-4 0 -4 12.5t4 12.5l127 -2q98 -4 158 -4q57 0 143 4l96 2q6 0 6 -12.5t-6 -12.5q-53 0 -78.5 -12t-34 -42t-8.5 -91 v-1118q0 -229 -113.5 -358.5t-316.5 -129.5q-78 0 -127 33t-49 90z" />
<glyph unicode="K" horiz-adv-x="1341" d="M57 12.5q0 12.5 4 12.5q66 0 96.5 10t42 39.5t11.5 91.5v948q0 61 -11.5 90t-41 40t-92.5 11q-6 0 -6.5 12.5t6.5 12.5l108 -2q94 -4 150 -4q61 0 155 4l105 2q6 0 6 -12.5t-6 -12.5q-63 0 -93 -12t-41.5 -42t-11.5 -91v-434l385 393q59 59 60 109q0 37 -33 57t-92 20 q-6 0 -6 12.5t6 12.5l96 -2q90 -4 168 -4q84 0 174 4l92 2q6 0 6 -12.5t-6 -12.5q-94 0 -206.5 -54t-204.5 -144l-232 -236l303 -409q133 -190 199.5 -269.5t107.5 -98.5t105 -19q6 0 6 -12.5t-6 -12.5h-230q-33 0 -55 -2t-37 -2q-33 0 -56.5 15.5t-57 56.5t-119.5 157 q-10 14 -23.5 31.5t-29.5 40.5l-269 360l-45 -45v-446q0 -63 10.5 -92t40 -39t95.5 -10q8 0 8 -12.5t-8 -12.5q-68 0 -107 2l-153 2l-152 -2q-41 -2 -111 -2q-4 0 -4 12.5z" />
<glyph unicode="L" horiz-adv-x="1116" d="M57 12.5q0 12.5 4 12.5q66 0 95.5 10t41 39.5t11.5 91.5v948q0 61 -11.5 90t-42 40t-94.5 11q-4 0 -4 12.5t4 12.5l105 -2q94 -4 156 -4q61 0 155 4l105 2q6 0 6 -12.5t-6 -12.5q-63 0 -94 -11t-41.5 -40.5t-10.5 -91.5v-938q0 -53 8.5 -76.5t32 -32t76.5 -8.5h70 q160 0 276.5 85t155.5 231q0 4 8 4q4 0 9 -3t5 -5q-18 -203 -18 -338q0 -16 -7.5 -23.5t-23.5 -7.5h-967q-4 0 -4 12.5z" />
<glyph unicode="M" horiz-adv-x="1755" d="M49 12.5q0 12.5 6 12.5q84 0 133.5 63.5t51.5 171.5l18 848l-2 2q-41 76 -85 110.5t-101 34.5q-6 0 -6.5 12.5t6.5 12.5l96 -2q29 -2 74 -2l108 2q18 2 47 2q27 0 41.5 -18.5t52.5 -87.5l447 -838l389 893q12 29 25.5 40t35.5 11q18 0 42 -2t55 -2l121 2q29 2 82 2 q6 0 6 -12.5t-6 -12.5q-96 -1 -140 -39q-40 -35 -39 -106v-14l49 -930q4 -63 15.5 -92t41 -39t93.5 -10q4 0 4 -12.5t-4 -12.5q-70 0 -111 2l-151 2l-154 -2q-39 -2 -106 -2q-6 0 -6 12.5t6 12.5q86 0 116.5 20.5t30.5 85.5l-2 35l-43 838l-422 -990q-4 -8 -16 -8t-17 8 l-518 985l-16 -739v-9q0 -104 44 -164q46 -62 130 -62q6 0 6 -12.5t-6 -12.5q-55 0 -86 2l-113 2l-129 -2q-33 -2 -88 -2q-6 0 -6 12.5z" />
<glyph unicode="N" horiz-adv-x="1505" d="M41 1267.5q0 12.5 4 12.5l86 -2q27 -2 78 -2l156 2q29 2 69 2q16 0 24.5 -8t28.5 -35q35 -47 50 -63l708 -818v662q0 111 -45 174t-125 63q-4 0 -4 12.5t4 12.5l88 -2q66 -4 111 -4q41 0 115 4l92 2q4 0 4 -12.5t-4 -12.5q-82 0 -129 -64.5t-47 -172.5v-1049 q0 -6 -9.5 -8t-13.5 2l-960 1094v-797q0 -109 45 -172t125 -63q4 0 4 -12.5t-4 -12.5q-57 0 -89 2l-110 2l-127 -2q-35 -2 -100 -2q-6 0 -6.5 12.5t6.5 12.5q90 0 142 63.5t52 171.5v866q-68 74 -116 101.5t-99 27.5q-4 0 -4 12.5z" />
<glyph unicode="O" horiz-adv-x="1568" d="M100 639q0 211 106.5 361.5t273.5 226.5t341 76q195 0 342.5 -91.5t226 -241t78.5 -317.5q0 -186 -98 -341.5t-263 -246t-357 -90.5q-191 0 -339.5 89.5t-229.5 242t-81 332.5zM352 715q0 -199 60.5 -355.5t166 -244.5t238.5 -88q115 0 206 66.5t142.5 194.5t51.5 306 q0 188 -57.5 336.5t-166 232.5t-254.5 84q-186 0 -286.5 -140t-100.5 -392z" />
<glyph unicode="P" horiz-adv-x="1132" d="M63.5 12.5q-0.5 12.5 6.5 12.5q66 0 95.5 10t39.5 39.5t10 91.5v948q0 61 -10 90t-41 40t-94 11q-6 0 -6.5 12.5t6.5 12.5l108 -2q94 -4 150 -4q49 0 116 6q27 2 68 4t94 2q209 0 330 -87t121 -269q0 -127 -65.5 -215t-169 -133t-212.5 -45q-55 0 -96 10q-4 0 -4 10 q0 6 3 12t7 4q31 -8 70 -8q94 0 156.5 88t62.5 250t-68.5 250t-199.5 88q-57 0 -78 -26.5t-21 -104.5v-936q0 -65 14.5 -95t54.5 -42t128 -12q6 0 6 -12.5t-6 -12.5q-84 0 -131 2l-178 2l-150 -2q-41 -2 -110 -2q-6 0 -6.5 12.5z" />
<glyph unicode="Q" horiz-adv-x="1568" d="M100 639q0 211 106.5 361.5t273.5 226.5t341 76q195 0 342.5 -91.5t226 -241t78.5 -317.5q0 -215 -128 -387t-332 -246q80 -172 205.5 -281.5t240.5 -109.5q35 0 72 4q6 2 9 -8t-1 -12q-84 -25 -166 -25q-158 0 -326 102.5t-288 284.5h-4q-190 0 -339 89.5t-230 242 t-81 332.5zM352 715q0 -199 60.5 -355.5t166 -244.5t238.5 -88q115 0 206 66.5t142.5 194.5t51.5 306q0 188 -57.5 336.5t-166 232.5t-254.5 84q-186 0 -286.5 -140t-100.5 -392z" />
<glyph unicode="R" horiz-adv-x="1429" d="M78 12.5q0 12.5 6 12.5q66 0 95.5 10t40.5 39.5t11 91.5v948q0 61 -10 90t-40.5 40t-94.5 11q-4 0 -4 12.5t4 12.5l109 -2q94 -4 149 -4q59 0 131 6q23 2 58.5 4t84.5 2q188 0 292 -68.5t104 -191.5q0 -94 -57.5 -180t-149.5 -139q164 -258 275.5 -403.5t198.5 -212 t169 -66.5q4 0 4 -12.5t-4 -12.5h-365q-45 0 -167.5 169t-296.5 472q-16 -2 -48 -2q-80 0 -112 2v-475q0 -63 10 -92t40 -39t95 -10q4 0 4 -12.5t-4 -12.5q-68 0 -106 2l-156 2l-149 -2q-41 -2 -111 -2q-6 0 -6 12.5zM461 700q49 -8 119 -8q74 0 116.5 22.5t62 78 t19.5 155.5q0 168 -49 231.5t-141 63.5q-70 0 -98.5 -30.5t-28.5 -102.5v-410z" />
<glyph unicode="S" horiz-adv-x="1054" d="M152 422v2q0 8 10 9t12 -7q61 -125 107.5 -203t117 -137t160.5 -59q82 0 135.5 44t53.5 150q0 90 -40 157.5t-97.5 115t-157.5 112.5q-98 63 -152.5 108.5t-93.5 109t-39 149.5q0 109 62.5 183.5t160.5 110.5t207 36q72 0 145.5 -13.5t118.5 -32.5q18 -8 24.5 -17 t6.5 -23v-302q0 -6 -10.5 -9t-12.5 3l-16 39q-51 129 -119.5 219t-191.5 90q-82 0 -134.5 -47t-52.5 -137q0 -74 38 -131t93.5 -100t149.5 -105q102 -66 163.5 -115t104.5 -119.5t43 -162.5q0 -106 -57 -189t-158.5 -129.5t-226.5 -46.5q-92 0 -192.5 26t-135.5 56 q-10 8 -15 15.5t-5 23.5z" />
<glyph unicode="T" horiz-adv-x="1316" d="M82 918q8 82 18.5 212t10.5 195q0 10 11 10t11 -10q0 -45 117 -45q176 -6 412 -6q121 0 256 4l139 2q78 0 113.5 10t46.5 41q2 8 13 8t11 -8q-6 -61 -13 -196.5t-7 -216.5q0 -6 -10.5 -6.5t-12.5 6.5q-31 158 -115 236.5t-206 78.5q-59 0 -79 -25.5t-20 -97.5v-944 q0 -63 12.5 -92t47 -39t110.5 -10q6 0 6 -12.5t-6 -12.5q-74 0 -117 2l-169 2l-166 -2q-43 -2 -119 -2q-6 0 -6 12.5t6 12.5q74 0 109.5 10t49 39.5t13.5 91.5v948q0 70 -18.5 94.5t-75.5 24.5q-245 -1 -351 -318q-2 -6 -12 -5t-10 8z" />
<glyph unicode="U" horiz-adv-x="1552" d="M35 1267.5q0 12.5 6 12.5l109 -2q94 -4 149 -4q61 0 156 4l106 2q4 0 4 -12.5t-4 -12.5q-63 0 -94 -12t-42 -42t-11 -91v-657q0 -190 91 -293t245 -103q98 0 186 43t184 136v874q0 61 -10 91t-40 42t-95 12q-4 0 -4 12.5t4 12.5l108 -2q90 -4 144 -4q59 0 149 4l111 2 q6 0 6 -12.5t-6 -12.5q-63 0 -94 -11t-42.5 -39.5t-11.5 -90.5v-948q0 -61 11.5 -91t41 -40t95.5 -10q6 0 6 -12.5t-6 -12.5l-182 2l-146 -2q-25 0 -32 6t-7 33v139q-109 -104 -217 -153.5t-237 -49.5q-133 0 -243 50.5t-173.5 142.5t-63.5 213v733q0 61 -10 90t-41 40 t-94 11q-6 0 -6 12.5z" />
<glyph unicode="V" horiz-adv-x="1351" d="M4 1267.5q0 12.5 6 12.5q31 0 43 -2q41 -4 107 -4q176 0 299 4q33 2 82 2q6 0 6 -12.5t-6 -12.5q-61 0 -95 -25.5t-34 -72.5q0 -35 22 -84l354 -756l267 703q20 57 20 98q0 63 -38 100t-109 37q-6 0 -6 12.5t6 12.5l100 -2q86 -4 154 -4q39 0 96 4l84 2q6 0 6 -12.5 t-6 -12.5q-74 0 -141.5 -65.5t-108.5 -175.5l-379 -1012q-2 -8 -22 -8t-23 8l-522 1108q-37 74 -74 109.5t-82 35.5q-6 0 -6 12.5z" />
<glyph unicode="W" horiz-adv-x="1851" d="M4 1267.5q0 12.5 6 12.5q31 0 43 -2q41 -4 107 -4q145 0 268 4q35 2 82 2q6 0 6 -12.5t-6 -12.5q-111 0 -111 -90q0 -37 19 -92l233 -694l287 901q6 6 25 6q20 0 22 -6l389 -909l170 628q18 66 19 113q0 143 -160 143q-4 0 -4 12.5t4 12.5l115 -2q102 -4 163 -4 q41 0 95 4l88 2q4 0 4 -12.5t-4 -12.5q-78 0 -150 -64.5t-102 -176.5l-283 -1012q0 -8 -22 -8q-20 0 -23 8l-397 934l-297 -934q0 -8 -23 -8t-24 8l-377 1108q-31 88 -63.5 116.5t-92.5 28.5q-6 0 -6 12.5z" />
<glyph unicode="X" horiz-adv-x="1325" d="M4 12.5q0 12.5 6 12.5q63 0 155.5 67.5t192.5 206.5l209 283l-327 510q-55 88 -106.5 125.5t-108.5 37.5q-6 0 -6.5 12.5t6.5 12.5l88 -2q57 -4 86 -4q72 0 178 4l117 2q4 0 4 -12.5t-4 -12.5q-70 0 -70 -34q0 -16 18 -47l271 -416l164 233q79 114 79 183q0 81 -103 81 h-3q-4 0 -4 12.5t4 12.5l102 -2q82 -4 152 -4q43 0 96 4l86 2q6 0 6 -12.5t-6 -12.5q-66 0 -157 -68.5t-193 -207.5l-195 -266l351 -543q51 -76 104 -110.5t123 -34.5q6 0 6 -12.5t-6 -12.5q-59 0 -92 2l-123 2l-168 -2q-39 -2 -109 -2q-6 0 -6 12.5t6 12.5q68 0 68 34 q0 18 -18 45l-281 435l-176 -252q-80 -113 -80 -183q0 -79 103 -79h3q4 0 4.5 -12.5t-4.5 -12.5q-68 0 -102 2l-151 2l-97 -2q-27 -2 -86 -2q-6 0 -6 12.5z" />
<glyph unicode="Y" horiz-adv-x="1267" d="M4 1267.5q0 12.5 6 12.5l64 -2q45 -4 63 -4q72 0 207 4l135 2q4 0 4 -12.5t-4 -12.5q-35 0 -54 -16t-19 -43q0 -33 28 -78l281 -442l188 321q55 92 55 158q0 49 -29.5 74.5t-84.5 25.5q-6 0 -6 12.5t6 12.5l108 -2q94 -4 168 -4q35 0 84 4l76 2q4 0 4 -12.5t-4 -12.5 q-63 0 -155.5 -78.5t-163.5 -197.5l-213 -356v-457q0 -63 10 -92t39.5 -39t95.5 -10q6 0 6 -12.5t-6 -12.5q-68 0 -107 2l-153 2l-152 -2q-41 -2 -110 -2q-4 0 -4 12.5t4 12.5q66 0 96.5 10t41.5 39.5t11 91.5v414l-299 464q-76 119 -126 165t-85 46q-6 0 -6 12.5z" />
<glyph unicode="Z" horiz-adv-x="1239" d="M117 985l82 356q0 2 8 2q20 0 16 -6q-2 -6 -2 -16q0 -25 23.5 -33t95.5 -8h747q10 0 15.5 -10t-0.5 -17l-709 -1198q-8 -10 -6 -13t14 -3h414q74 0 143.5 38t118.5 101.5t62 134.5q2 6 12 6t10 -6l-28 -297q0 -6 -5.5 -13t-13.5 -7q-305 4 -981 4q-8 0 -12 9t2 18 l719 1202q6 10 5 13t-16 3q-233 0 -355 -17.5t-199.5 -73.5t-135.5 -175q-2 -2 -8 -2q-18 0 -16 8z" />
<glyph unicode="[" horiz-adv-x="561" d="M137 -217v1681q0 14 3 17.5t16 3.5h327q6 0 6 -12.5t-6 -12.5q-63 0 -94 -12t-41 -42t-10 -91v-1385q0 -61 10 -90.5t41 -42t94 -12.5q6 0 6 -12.5t-6 -12.5h-327q-12 0 -15.5 4.5t-3.5 18.5z" />
<glyph unicode="\" horiz-adv-x="718" d="M53 1466q-2 10 45 23.5t52 5.5l516 -1806q2 -8 -46.5 -21.5t-52.5 -5.5z" />
<glyph unicode="]" horiz-adv-x="561" d="M72 -227.5q0 12.5 6 12.5q63 0 94 12.5t41 42t10 90.5v1385q0 61 -10 91t-41 42t-94 12q-6 0 -6 12.5t6 12.5h328q12 0 15 -3t3 -18v-1681q0 -14 -3 -18.5t-15 -4.5h-328q-6 0 -6 12.5z" />
<glyph unicode="^" horiz-adv-x="802" d="M119 778l260 510q2 10 22 10t23 -10l258 -510v-2q0 -4 -8 -8t-10 0l-263 274l-262 -274q-2 -2 -6 -2q-6 0 -11 4t-3 8z" />
<glyph unicode="_" horiz-adv-x="815" d="M59 -113q0 18 2 32.5t7 14.5h677q4 0 7.5 -16t3.5 -35q0 -18 -3 -33.5t-8 -15.5h-675q-4 0 -7.5 16.5t-3.5 36.5z" />
<glyph unicode="`" horiz-adv-x="436" d="M47 1489q-2 8 29 8q45 0 108.5 -11t65.5 -20l65 -491q0 -4 -9 -7t-11 3z" />
<glyph unicode="a" horiz-adv-x="1003" d="M66 336q0 145 67.5 254.5t178 167t237.5 57.5q111 0 199 -53q47 20 79 53q2 2 7 2q4 0 9 -3t5 -7v-584q0 -61 13 -86.5t44 -25.5q27 0 84 22h4q6 0 11.5 -10t-0.5 -12l-283 -138q-4 -2 -10 -2q-18 0 -33.5 37t-20.5 101q-68 -63 -135 -99.5t-149 -36.5q-84 0 -155 42 t-111.5 124t-40.5 197zM276 406q0 -154 52.5 -239t148.5 -85h2q81 0 176 65v21v422q0 80 -44 131t-115 51q-102 0 -161 -102.5t-59 -263.5z" />
<glyph unicode="b" horiz-adv-x="1056" d="M14 1341l299 142l11 2q10 0 21 -9.5t11 -17.5v-778q68 63 137.5 100t157.5 37q92 0 170 -43t124 -129t46 -209q0 -147 -62.5 -251.5t-163.5 -158t-216 -53.5q-78 0 -152.5 25t-136.5 72l-186 -84h-4q-8 0 -10.5 8t6.5 10q49 29 74.5 79t25.5 128v995q0 72 -13.5 102.5 t-48.5 30.5q-27 0 -75 -22h-2q-8 0 -12.5 11t-0.5 13zM356 338q0 -113 39 -185.5t94.5 -105.5t108.5 -33q88 0 135 90.5t47 251.5q0 178 -59 265.5t-166 87.5q-96 0 -199 -70v-301z" />
<glyph unicode="c" horiz-adv-x="870" d="M66 381q0 129 71.5 226.5t183 149.5t228.5 52q98 0 177 -41t79 -113q0 -39 -30 -66.5t-83 -27.5q-49 0 -77.5 25.5t-47.5 79.5q-18 57 -35.5 78.5t-62.5 21.5q-88 0 -140.5 -87t-52.5 -230q0 -170 76 -271.5t242 -101.5q55 0 95 12t102 41h2q6 0 11 -6t1 -10 q-76 -70 -151.5 -104t-174.5 -34q-135 0 -228 58.5t-139 152t-46 195.5z" />
<glyph unicode="d" horiz-adv-x="1044" d="M66 373q0 156 72.5 255t180 144t216.5 45q76 0 159 -24v413q0 72 -13 102.5t-46 30.5q-27 0 -76 -22h-2q-8 0 -13 11t-1 13l301 142l8 2q10 0 22.5 -9.5t12.5 -17.5v-1220q0 -70 13 -98.5t44 -28.5q27 0 84 22h2q6 0 11.5 -10t0.5 -12l-282 -138l-10 -2q-18 0 -34 39 t-20 107q-152 -143 -309 -144q-90 0 -162.5 47.5t-115.5 138.5t-43 214zM276 438q0 -172 61.5 -269t162.5 -97q102 0 194 86v10v498q-37 51 -83 74.5t-107 23.5q-111 0 -169.5 -77t-58.5 -249z" />
<glyph unicode="e" horiz-adv-x="856" d="M66 371q0 119 61 220t167.5 159.5t237.5 58.5q127 0 195 -54.5t68 -148.5q0 -59 -23 -59h-125l-368 -4q-6 -39 -7 -86q0 -176 83 -278.5t229 -102.5q51 0 106 14t101 43l4 2q4 0 9 -8t1 -12q-76 -74 -154 -107t-170 -33q-129 0 -223 54.5t-143 145.5t-49 196zM285 584 l290 6q-6 178 -118 178q-62 0 -107 -49t-65 -135z" />
<glyph unicode="f" horiz-adv-x="624" d="M41 748q0 18 6 18q72 0 98.5 19.5t28.5 70.5q10 334 127 482.5t352 148.5q115 0 178.5 -32t63.5 -89q0 -47 -32 -73.5t-72 -26.5q-49 0 -72 22.5t-41 65.5t-39 64.5t-66 21.5q-94 0 -148 -131t-54 -410v-125q63 2 225 19q6 0 10 -15.5t4 -34.5q0 -20 -7 -39.5t-13 -17.5 q-98 25 -219 31v-551q0 -63 12 -92t50 -39t120 -10q8 0 8 -12.5t-8 -12.5l-141 2q-47 2 -140 2l-125 -2q-33 -2 -92 -2q-8 0 -8 12.5t8 12.5q53 0 79 10t35 39.5t9 91.5v461q0 63 -26.5 82.5t-104.5 19.5q-6 0 -6 19z" />
<glyph unicode="g" horiz-adv-x="960" d="M66 336q0 145 67.5 254.5t178 167t237.5 57.5q111 0 199 -53q47 20 79 53q3 2 7 2t9 -3t5 -7v-950q0 -193 -115 -312.5t-321 -119.5q-135 0 -221.5 39.5t-86.5 115.5q0 53 31 79t74 26q57 0 85 -27t54 -80q27 -55 56.5 -82.5t93.5 -27.5q72 0 114.5 73.5t42.5 265.5v299 q-68 -61 -134 -97t-148 -36q-84 0 -155 42t-111.5 124t-40.5 197zM276 406q0 -154 52.5 -239t148.5 -85h2q81 0 176 65v443q0 80 -44 131t-115 51q-102 0 -161 -102.5t-59 -263.5z" />
<glyph unicode="h" horiz-adv-x="1042" d="M2 1341l299 142l10 2q10 0 21.5 -9.5t11.5 -17.5v-811q145 168 311 168q111 0 175.5 -70.5t64.5 -185.5v-393q0 -82 23.5 -111.5t87.5 -29.5q8 0 8 -12.5t-8 -12.5q-53 0 -86 2l-119 2l-123 -2q-31 -2 -84 -2q-4 0 -4 12.5t4 12.5q63 0 87 29.5t24 111.5v295 q0 111 -41 164t-127 53q-49 0 -101.5 -20.5t-91.5 -55.5v-436q0 -82 23.5 -111.5t87.5 -29.5q8 0 8 -12.5t-8 -12.5q-53 0 -86 2l-119 2l-123 -2q-31 -2 -84 -2q-4 0 -4 12.5t4 12.5q63 0 87 29.5t24 111.5v1040q0 72 -13.5 102.5t-46.5 30.5q-29 0 -78 -22h-2q-6 0 -11 11 t-1 13z" />
<glyph unicode="i" horiz-adv-x="538" d="M37 652.5q-4 11.5 2 13.5l309 143l6 2q10 0 20.5 -10t10.5 -19v-45q-4 -82 -4 -200v-371q0 -82 23.5 -111.5t87.5 -29.5q6 0 6 -12.5t-6 -12.5q-53 0 -84 2l-123 2l-121 -2q-31 -2 -84 -2q-6 0 -6 12.5t6 12.5q63 0 85.5 29.5t22.5 111.5v366q0 70 -14 101t-47 31 q-27 0 -76 -23h-2q-8 0 -12 11.5zM152 1139q0 53 33.5 84.5t90.5 31.5t88 -30.5t31 -85.5q0 -59 -30.5 -92t-88.5 -33q-59 0 -91.5 32.5t-32.5 92.5z" />
<glyph unicode="j" horiz-adv-x="538" d="M7 -568.5q-5 11.5 1 13.5q98 43 139 137t41 273v677q0 70 -13 101t-46 31q-27 0 -76 -23h-2q-8 0 -13 11.5t1 13.5l309 143l6 2q10 0 20.5 -10t10.5 -19v-45q-4 -82 -4 -200v-635q0 -139 -34 -228.5t-112.5 -149t-218.5 -102.5q-4 -2 -9 9.5zM147 1139q0 53 34 84.5 t91 31.5t88 -30.5t31 -85.5q0 -59 -30.5 -92t-88.5 -33q-59 0 -92 32.5t-33 92.5z" />
<glyph unicode="k" horiz-adv-x="1005" d="M2 1341l299 142l10 2q10 0 21.5 -9.5t11.5 -17.5v-1038l191 184q53 49 53 101q0 27 -20.5 44t-57.5 17q-4 0 -4 12.5t4 12.5q59 0 92 -3l162 -2l149 2q29 2 80 3q6 0 6 -12.5t-6 -12.5q-88 0 -201.5 -44t-203.5 -128l-74 -68l281 -360q59 -74 113.5 -107.5t109.5 -33.5 q6 0 6 -12.5t-6 -12.5q-53 0 -84 2l-123 2l-158 -2q-35 -2 -94 -2q-6 0 -6 12.5t6 12.5q74 0 74 43q0 23 -17 41l-233 299l-39 -35v-207q0 -82 23.5 -111.5t87.5 -29.5q8 0 8 -12.5t-8 -12.5q-53 0 -86 2l-119 2l-123 -2q-31 -2 -84 -2q-4 0 -4 12.5t4 12.5q63 0 87 29.5 t24 111.5v1040q0 72 -13.5 102.5t-46.5 30.5q-29 0 -78 -22h-2q-6 0 -11 11t-1 13z" />
<glyph unicode="l" horiz-adv-x="548" d="M33 1341l301 142l8 2q10 0 22.5 -9.5t12.5 -17.5v-1292q0 -82 22.5 -111.5t85.5 -29.5q8 0 8.5 -12.5t-8.5 -12.5q-51 0 -82 2l-124 2l-123 -2q-31 -2 -84 -2q-4 0 -4 12.5t4 12.5q63 0 86.5 29.5t23.5 111.5l2 1040q0 72 -13 102.5t-46 30.5q-27 0 -78 -22h-2 q-6 0 -11 11t-1 13z" />
<glyph unicode="m" horiz-adv-x="1591" d="M13.5 655.5q-3.5 10.5 0.5 12.5l285 139q12 4 14 4q23 0 43.5 -44t24.5 -118q139 166 299 166q96 0 153.5 -47t69.5 -135q141 182 314 182q111 0 169 -63.5t58 -192.5v-393q0 -82 23.5 -111.5t86.5 -29.5q9 0 9 -12.5t-9 -12.5q-53 0 -84 2l-122 2l-119 -2q-33 -2 -86 -2 q-6 0 -6 12.5t6 12.5q63 0 86.5 29.5t23.5 111.5v295q0 111 -37.5 164t-115.5 53q-53 0 -104.5 -22.5t-88.5 -61.5v-12v-416q0 -82 23.5 -111.5t87.5 -29.5q8 0 8 -12.5t-8 -12.5q-53 0 -84 2l-123 2l-119 -2q-33 -2 -86 -2q-6 0 -6 12.5t6 12.5q63 0 87 29.5t24 111.5v295 q0 111 -38 164t-116 53q-49 0 -97 -19.5t-85 -54.5v-438q0 -82 23.5 -111.5t87.5 -29.5q6 0 6 -12.5t-6 -12.5q-53 0 -84 2l-123 2l-121 -2q-31 -2 -84 -2q-6 0 -6 12.5t6 12.5q63 0 85.5 29.5t22.5 111.5v385q0 63 -15 93t-48 30q-35 0 -98 -29h-4q-6 0 -9.5 10.5z" />
<glyph unicode="n" horiz-adv-x="1077" d="M13.5 655.5q-3.5 10.5 0.5 12.5l285 139q12 4 14 4q23 0 43.5 -44t24.5 -120q141 168 311 168q111 0 175.5 -70.5t64.5 -185.5v-393q0 -82 23.5 -111.5t86.5 -29.5q7 0 7 -12.5t-7 -12.5q-53 0 -84 2l-122 2l-119 -2q-33 -2 -86 -2q-6 0 -6 12.5t6 12.5q63 0 85.5 29.5 t22.5 111.5v295q0 111 -40 164t-126 53q-49 0 -101 -20.5t-91 -55.5v-436q0 -82 23.5 -111.5t87.5 -29.5q6 0 6 -12.5t-6 -12.5q-53 0 -84 2l-123 2l-121 -2q-31 -2 -84 -2q-6 0 -6 12.5t6 12.5q63 0 85.5 29.5t22.5 111.5v385q0 63 -15 93t-48 30q-35 0 -98 -29h-4 q-6 0 -9.5 10.5z" />
<glyph unicode="o" horiz-adv-x="1001" d="M66 406q0 133 67.5 226t172 139t214.5 46q127 0 221.5 -59.5t144.5 -156.5t50 -208q0 -123 -61.5 -218t-165 -148.5t-224.5 -53.5q-127 0 -222 58.5t-146 158t-51 216.5zM287 481q0 -137 34.5 -242.5t94 -164t131.5 -58.5q80 0 122 79t42 227q0 143 -37 245.5 t-96.5 154.5t-126.5 52q-164 0 -164 -293z" />
<glyph unicode="p" horiz-adv-x="1050" d="M-8 668l291 141q4 2 10 2q20 0 37.5 -35t23.5 -94q150 135 308 135q86 0 160.5 -45t119.5 -131t45 -201q0 -164 -67.5 -269t-171 -151.5t-213.5 -46.5q-101 0 -177 23v-393q0 -61 13.5 -90t51.5 -40.5t118 -11.5q6 0 6 -12t-6 -12q-76 0 -119 2l-162 2l-121 -2 q-31 -2 -86 -2q-6 0 -6 12t6 12q49 0 73 11.5t33 40t9 90.5v948q0 66 -14.5 94.5t-51.5 28.5q-33 0 -94 -29h-4q-6 0 -11 10.5t-1 12.5zM358 127q45 -51 94.5 -76.5t120.5 -25.5q207 0 207 352q0 156 -72.5 240.5t-181.5 84.5h-3q-90 0 -165 -65v-16v-494z" />
<glyph unicode="q" horiz-adv-x="1028" d="M66 354q0 147 65.5 252t171 158t221.5 53q172 0 293 -82l166 60l4 2q6 0 8 -10.5t-4 -12.5q-51 -27 -75.5 -67.5t-24.5 -102.5v-1001q0 -61 9 -90t32.5 -40.5t73.5 -11.5q6 0 6 -12t-6 -12q-53 0 -86 2l-123 2l-146 -2q-39 -2 -110 -2q-4 0 -4 12t4 12q70 0 102.5 11.5 t44.5 40t12 90.5v512q-68 -66 -137 -104t-157 -38q-92 0 -170 43t-124 129t-46 209zM276 434q0 -178 59.5 -265t164.5 -87q100 0 200 72v385q0 80 -34.5 133t-86 77.5t-98.5 24.5q-102 0 -153.5 -87t-51.5 -253z" />
<glyph unicode="r" horiz-adv-x="776" d="M13.5 655.5q-3.5 10.5 0.5 12.5l285 139q12 4 14 4q23 0 42.5 -42t23.5 -114q84 86 138 121t95 35q47 0 91.5 -34t44.5 -81q0 -43 -27 -70.5t-70 -27.5q-31 0 -50 12.5t-40 36.5q-18 20 -31.5 29.5t-31.5 9.5q-20 0 -44 -15.5t-73 -64.5v-440q0 -82 39 -111.5t143 -29.5 q8 0 8 -12.5t-8 -12.5q-72 0 -112 2l-166 2l-121 -2q-31 -2 -84 -2q-6 0 -6 12.5t6 12.5q63 0 85.5 29.5t22.5 111.5v385q0 63 -15 93t-48 30q-35 0 -98 -29h-4q-6 0 -9.5 10.5z" />
<glyph unicode="s" horiz-adv-x="690" d="M86 260q0 6 11.5 7t13.5 -3q33 -102 108.5 -174t153.5 -72q43 0 68.5 27t25.5 78q0 76 -43 120t-127 91q-72 39 -108.5 63.5t-65.5 69.5t-29 111q0 121 86 177t211 56q47 0 85 -6t85 -25q18 -6 19 -22q0 -51 -2 -80l-3 -103q0 -6 -12 -6t-12 6q0 39 -33 85.5t-85 79 t-107 32.5q-84 0 -84 -80q0 -59 42 -102t122 -90q78 -45 115.5 -71t68.5 -72t31 -111q0 -70 -35 -131.5t-104.5 -99.5t-166.5 -38q-113 0 -213 56q-12 12 -12 24z" />
<glyph unicode="t" horiz-adv-x="688" d="M47 750q0 8 2 13t6 5q104 4 169 45t100 125q4 8 17 8t13 -8v-164q119 2 267 19q4 0 9 -15.5t5 -34.5q0 -20 -7 -39.5t-16 -17.5q-133 29 -258 31v-486q0 -78 40 -114.5t106 -36.5q82 0 159 61l5 2q8 0 13 -8t-1 -12q-76 -76 -147.5 -112t-151.5 -36q-90 0 -153.5 43 t-63.5 146v454q0 63 -22.5 88t-82.5 25q-2 0 -5 6t-3 13z" />
<glyph unicode="u" horiz-adv-x="1034" d="M22.5 662.5q-4.5 11.5 2.5 13.5l274 131l10 2q10 0 21.5 -9t11.5 -18v-452q0 -221 170 -221q45 0 91 19t83 54v350q0 133 -63 134q-23 0 -54 -15h-2q-6 0 -10 11.5t2 13.5l275 131q4 2 10 2q10 0 21.5 -9t11.5 -18v-544q0 -70 13 -98.5t44 -28.5q29 0 84 22h4q6 0 11 -10 t-1 -12l-282 -138q-4 -2 -11 -2q-20 0 -35.5 44t-17.5 120q-135 -160 -293 -160q-113 0 -177 71t-64 185v301q0 133 -64 134q-23 0 -51 -15h-2q-8 0 -12.5 11.5z" />
<glyph unicode="v" horiz-adv-x="901" d="M-35 778.5q0 12.5 6 12.5q37 0 62 -3l137 -2l158 2q35 2 96 3q6 0 6 -12.5t-6 -12.5q-119 0 -119 -47q0 -12 10 -33l230 -430l135 328q16 43 16 73q0 51 -34.5 80t-96.5 29q-4 0 -4 12.5t4 12.5q55 0 84 -3l123 -2l82 2q25 2 76 3q4 0 4 -12.5t-4 -12.5q-59 0 -105.5 -45 t-87.5 -139l-252 -582q-2 -10 -22 -10q-16 0 -23 10l-313 621q-43 90 -76 117.5t-80 27.5q-6 0 -6 12.5z" />
<glyph unicode="w" horiz-adv-x="1382" d="M-35 778.5q0 12.5 6 12.5q37 0 62 -3l137 -2l145 2q31 2 84 3q6 0 6.5 -12.5t-6.5 -12.5q-102 0 -102 -45q0 -16 10 -35l207 -412l203 517q2 8 20 8q23 0 25 -8l274 -527l125 320q16 43 17 73q0 51 -35 80t-96 29q-4 0 -4.5 12.5t4.5 12.5q55 0 83 -3l123 -2l82 2 q25 2 76 3q4 0 4 -12.5t-4 -12.5q-59 0 -105 -44t-87 -140l-240 -580q-2 -8 -21 -8q-23 0 -24 8l-268 516l-203 -516q-2 -8 -23 -8q-20 0 -22 8l-291 619q-41 88 -74 116.5t-82 28.5q-6 0 -6 12.5z" />
<glyph unicode="x" horiz-adv-x="901" d="M2 12.5q0 12.5 6 12.5q63 0 135 51t136 139l94 129l-185 277q-96 145 -159 145q-4 0 -4 12.5t4 12.5q43 0 63 -3l64 -2l143 2q33 2 92 3q4 0 4 -12.5t-4 -12.5q-45 0 -45 -31q0 -20 21 -49l118 -180l58 84q49 72 49 115q0 61 -92 61q-4 0 -4 12.5t4 12.5q55 0 84 -3 l123 -2l84 2q23 2 73 3q6 0 6 -12.5t-6 -12.5q-63 0 -135 -51t-135 -140l-82 -108l197 -297q49 -74 97 -109.5t87 -35.5q6 0 6 -12.5t-6 -12.5l-74 2q-27 2 -76 2l-145 -2q-33 -2 -90 -2q-6 0 -6 12.5t6 12.5q45 0 45 28q0 23 -21 51l-133 201l-71 -104q-47 -68 -47 -115 q0 -61 90 -61q6 0 6 -12.5t-6 -12.5q-55 0 -82 2l-123 2l-84 -2q-23 -2 -74 -2q-6 0 -6 12.5z" />
<glyph unicode="y" horiz-adv-x="1021" d="M28 662.5q-3 11.5 1 13.5l276 131l8 2q10 0 22.5 -9t12.5 -18v-452q0 -111 40 -164t126 -53q47 0 98.5 19.5t89.5 51.5v348q0 133 -63 134q-23 0 -51 -15h-2q-8 0 -12.5 11.5t1.5 13.5l275 131l10 2q10 0 21.5 -9t11.5 -18v-925q0 -197 -109.5 -314.5t-328.5 -117.5 q-129 0 -219.5 41.5t-90.5 121.5q0 43 29 70t78 27q51 0 79.5 -27t61.5 -78q35 -57 67 -84.5t91 -27.5q72 0 111.5 70.5t39.5 268.5v330q-141 -162 -307 -162q-111 0 -175 71t-64 185v301q0 68 -14.5 101t-47.5 33q-25 0 -53 -15h-2q-8 0 -11 11.5z" />
<glyph unicode="z" horiz-adv-x="829" d="M66 549l86 321q0 2 8 2q16 0 14 -8q-4 -16 -4 -24q0 -29 24.5 -39t81.5 -10h472q8 0 14 -8.5t2 -16.5l-467 -715q-6 -14 10 -14q201 0 309.5 57.5t135.5 175.5q2 6 13 6t11 -6l-4 -247q0 -8 -6 -15.5t-14 -7.5h-670q-8 0 -13.5 8t-0.5 17l456 720q8 14 -10 15 q-168 0 -278.5 -54.5t-147.5 -162.5q0 -2 -8 -2q-16 0 -14 8z" />
<glyph unicode="{" horiz-adv-x="591" d="M59 623.5q0 13.5 7 13.5q72 12 95 132t23 314q0 176 27 259t93.5 113t207.5 30q8 0 8 -12.5t-8 -12.5q-53 0 -82 -56t-31 -161q-4 -250 -17 -352.5t-60.5 -160.5t-161.5 -105q115 -49 162 -109.5t60 -163t17 -350.5q2 -104 31 -160.5t82 -56.5q8 0 8 -12.5t-8 -12.5 q-141 0 -208.5 30t-93.5 114t-26 260q0 197 -23.5 315.5t-94.5 130.5q-7 0 -7 13.5z" />
<glyph unicode="|" horiz-adv-x="344" d="M127 -315v1812q0 14 49 14q47 0 47 -14v-1812q0 -8 -14 -12.5t-33 -4.5q-20 0 -34.5 4t-14.5 13z" />
<glyph unicode="}" horiz-adv-x="579" d="M59.5 -227.5q-0.5 12.5 8.5 12.5q53 0 81.5 56.5t30.5 160.5q4 248 17.5 350.5t60.5 162.5t162 110q-115 47 -162 105t-60.5 160.5t-17.5 352.5q-2 104 -30.5 160.5t-81.5 56.5q-8 0 -8.5 12.5t8.5 12.5q141 0 207.5 -30t93 -112.5t26.5 -259.5q0 -195 23.5 -314.5 t95.5 -131.5q6 0 6 -13.5t-6 -13.5q-72 -12 -95.5 -131t-23.5 -315q0 -176 -25.5 -260t-93 -114t-208.5 -30q-8 0 -8.5 12.5z" />
<glyph unicode="~" horiz-adv-x="907" d="M98 295q129 213 252 213q27 0 59.5 -10.5t65.5 -22.5q51 -20 90 -30.5t80 -10.5q55 0 87 20.5t65 57.5l4 2q4 0 8 -6t2 -10q-80 -127 -129 -170t-109 -43q-35 0 -64.5 8t-82.5 26q-94 39 -162 39q-49 0 -75.5 -14t-48 -35.5l-27.5 -27.5h-2q-4 0 -9.5 5t-3.5 9z" />
<glyph unicode="&#xa2;" horiz-adv-x="1085" d="M61 483q0 129 64.5 237.5t178.5 176.5t255 82v170q0 8 9.5 12t21.5 4t20 -4t8 -12v-166h13q76 0 165 -16.5t146 -42.5q14 -6 18.5 -13.5t4.5 -21.5l10 -211q0 -6 -10.5 -8t-14.5 6q-76 131 -154.5 194.5t-177.5 67.5v-918q10 -2 33 -2q104 0 177 63.5t143 205.5q2 8 12 6 t10 -8l-16 -217q-2 -16 -6 -22.5t-23 -14.5q-158 -55 -327 -56h-3v-184q0 -14 -28 -14q-31 0 -31 14v186q-174 12 -285.5 92.5t-162 191t-50.5 222.5zM305 514q0 -170 63.5 -306t190.5 -177v903q-123 -18 -188.5 -131t-65.5 -289z" />
<glyph unicode="&#xa3;" horiz-adv-x="1036" d="M57 11.5q0 11.5 4 13.5q104 43 142.5 103t38.5 185q0 80 -10.5 144.5t-28.5 136.5h-115q-6 0 -10 9t-4 22q0 10 4 19t10 9h98q-33 121 -32 221q0 145 64.5 241.5t171 142t233.5 45.5q119 0 233 -27q31 -10 31 -33l16 -242q0 -8 -10 -8q-8 0 -14 8q-63 117 -129 188 t-160 71q-113 0 -162 -93.5t-49 -230.5q0 -63 11 -118.5t24.5 -101.5t17.5 -63h248q8 0 12 -8t4 -20t-4 -21.5t-12 -9.5h-231q27 -92 26 -184q0 -86 -16.5 -142.5t-42 -89.5t-68.5 -74h311q123 0 180.5 52.5t82.5 167.5q0 4 12 3t12 -5q-8 -43 -13 -131.5t-5 -159.5 q0 -16 -7.5 -23.5t-25.5 -7.5h-834q-4 0 -4 11.5z" />
<glyph unicode="&#xa5;" horiz-adv-x="1267" d="M4 1267.5q0 12.5 6 12.5l64 -2q45 -4 63 -4q72 0 207 4l135 2q4 0 4 -12.5t-4 -12.5q-35 0 -54 -16t-19 -43q0 -33 28 -78l281 -442l188 321q55 92 55 158q0 49 -29.5 74.5t-84.5 25.5q-6 0 -6 12.5t6 12.5l108 -2q94 -4 168 -4q35 0 84 4l76 2q4 0 4 -12.5t-4 -12.5 q-63 0 -155.5 -78.5t-163.5 -197.5l-213 -354v-19h223q14 0 14 -28q0 -31 -14 -31h-664q-14 0 -14 31q0 29 14 28h197l-283 438q-76 119 -126 165t-85 46q-6 0 -6 12.5zM293 412q0 29 14 28h664q14 1 14 -28q0 -31 -14 -31h-223v-215q0 -63 10 -92t39.5 -39t95.5 -10 q6 0 6 -12.5t-6 -12.5q-68 0 -107 2l-153 2l-152 -2q-41 -2 -110 -2q-4 0 -4 12.5t4 12.5q66 0 96.5 10t41.5 39.5t11 91.5v215h-213q-14 0 -14 31z" />
<glyph unicode="&#xa8;" horiz-adv-x="659" d="M41 1063q0 49 30.5 77.5t82.5 28.5q51 0 78.5 -28.5t27.5 -77.5q0 -53 -27.5 -83t-78.5 -30q-54 0 -83.5 30t-29.5 83zM399 1063q0 49 30 76.5t81 27.5t78.5 -27.5t27.5 -76.5q0 -53 -27.5 -83t-78.5 -30q-53 0 -82 30t-29 83z" />
<glyph unicode="&#xa9;" horiz-adv-x="1488" d="M131 383q0 186 100.5 333.5t265.5 230.5t347 83q160 0 282.5 -66.5t189 -177t66.5 -237.5q0 -121 -69.5 -228.5t-193.5 -174t-277 -66.5q-193 0 -285 94t-92 225q0 106 52 184.5t135 120t175 41.5q86 0 153 -31.5t67 -92.5q0 -86 -89 -86q-31 0 -51 19t-37 54 q-25 45 -47 66.5t-63 21.5q-63 0 -86 -53t-23 -172q0 -145 74 -239.5t225 -94.5q76 0 144.5 43t109.5 122t41 181q0 137 -61.5 252t-170 181.5t-241.5 66.5q-152 0 -263.5 -73.5t-168.5 -198.5t-57 -275q0 -176 70.5 -307t199.5 -202.5t303 -71.5q104 0 193.5 22.5 t183.5 81.5h2q6 0 11 -7t-1 -9q-115 -90 -228.5 -125t-236.5 -35q-176 0 -324.5 71.5t-236.5 208t-88 320.5z" />
<glyph unicode="&#xab;" horiz-adv-x="972" d="M100 412q0 14 9 22l385 305q0 2 4 2t8 -5t2 -7l-189 -317l189 -318q2 -4 -5 -11t-9 -1l-385 305q-8 8 -9 25zM449 412q0 10 8 22l387 305q0 2 4 2t8 -5t2 -7l-190 -317l190 -318q2 -4 -5 -11t-9 -1l-387 305q-8 12 -8 25z" />
<glyph unicode="&#xad;" horiz-adv-x="661" d="M55 377q0 49 6 49l535 96q4 2 7 -15.5t3 -37.5t-3 -37.5t-7 -19.5l-530 -97q-5 -2 -8 18.5t-3 43.5z" />
<glyph unicode="&#xae;" horiz-adv-x="1515" d="M131 858q0 188 94 330.5t251 219.5t339 77q176 0 311.5 -73t209 -201t73.5 -287q0 -176 -88 -322.5t-240.5 -232.5t-335.5 -86q-158 0 -299 71.5t-228 202.5t-87 301zM258 934q0 -172 75 -308.5t204 -213t286 -76.5q221 0 335 143.5t114 376.5q0 180 -67.5 311 t-189.5 200t-280 69q-162 0 -269.5 -69t-157.5 -181.5t-50 -251.5zM477 572.5q0 11.5 2 11.5q31 0 43.5 6t16.5 24.5t4 61.5v440q0 57 -11.5 73.5t-52.5 16.5q-2 0 -2 12.5t2 12.5l146 -2q25 0 90 4q57 4 78 4q104 0 155 -34t51 -107q0 -59 -30.5 -103.5t-83.5 -68.5 q74 -154 131 -228.5t133 -117.5q4 -3 4 -10t-4 -7h-201q-18 0 -60 78t-124 250q-49 -4 -76 -4v-209q0 -61 15.5 -76.5t70.5 -15.5q4 0 4 -11.5t-4 -11.5l-149 2l-146 -2q-2 0 -2 11.5zM688 915q94 -6 128 24t34 116q0 156 -90 155q-31 0 -45.5 -5t-20.5 -25.5t-6 -67.5v-197 z" />
<glyph unicode="&#xb4;" horiz-adv-x="434" d="M119 975l67 491q4 8 67.5 19.5t106.5 11.5q29 0 27 -8l-246 -518q0 -4 -8 -4q-6 0 -11 3t-3 5z" />
<glyph unicode="&#xb8;" horiz-adv-x="475" d="M29 -465q0 31 24.5 55.5t57.5 24.5q39 0 55 -17.5t27 -50.5q10 -31 23 -46t48 -15q45 0 45 49q0 53 -38 96t-132 97q-18 6 -18 24q0 14 8 33q31 74 66 170q0 2 16 43l35 -2q-8 -31 -8 -62q0 -39 19 -68.5t62 -53.5q53 -33 83 -69t30 -91q0 -86 -62.5 -150.5t-187.5 -64.5 q-154 0 -153 98z" />
<glyph unicode="&#xbb;" horiz-adv-x="972" d="M115 94l190 316l-190 319q-2 4 5 10t9 0l385 -305q10 -10 10 -22q0 -14 -10 -25l-385 -305q0 -2 -4 -2t-8 5t-2 9zM465 94l188 316l-188 319q-2 4 5 10t9 0l385 -305q10 -10 10 -22q0 -14 -10 -25l-385 -305q0 -2 -4 -2t-8 5t-2 9z" />
<glyph unicode="&#x2c6;" horiz-adv-x="536" d="M119 975l139 510q2 10 23 10q23 0 24 -10l137 -510v-2q0 -4 -9 -6t-11 4l-139 221l-142 -221q-2 -6 -13 -3t-9 7z" />
<glyph unicode="&#x2da;" horiz-adv-x="632" d="M84 1120q0 74 73.5 117t164.5 43q90 0 153.5 -48t63.5 -116q0 -72 -72 -115t-166 -43q-98 0 -157.5 48.5t-59.5 113.5zM231 1161q0 -68 28 -121t75 -53q26 0 39.5 22.5t13.5 69.5q0 70 -30.5 121t-75.5 51q-49 0 -50 -90z" />
<glyph unicode="&#x2dc;" horiz-adv-x="786" d="M123 977q92 166 178 166q23 0 96 -21q37 -12 78 -21t74 -9q35 0 56.5 12t47.5 43l4 2q4 0 8.5 -6t2.5 -10q-55 -98 -89 -131t-81 -33q-39 0 -115 22q-35 10 -72 18.5t-69 8.5q-39 0 -55.5 -10.5t-49.5 -44.5h-2q-6 0 -11 5t-1 9z" />
<glyph unicode="&#x400;" horiz-adv-x="1130" d="M78 12.5q0 12.5 6 12.5q66 0 95.5 10t39.5 39.5t10 91.5v948q0 61 -10 90t-41 40t-94 11q-6 0 -6 12.5t6 12.5h868q20 0 21 -18l4 -273q0 -4 -11.5 -6t-13.5 4q-33 119 -110.5 176.5t-204.5 57.5h-62q-61 0 -89.5 -27t-28.5 -82v-418h170q119 0 182 41t63 115q0 6 11.5 6 t11.5 -6l-2 -184l2 -99q4 -70 4 -110q0 -4 -12.5 -4t-12.5 4q0 84 -64.5 132t-184.5 48h-168v-463q0 -59 22.5 -88t71.5 -29h67q160 0 256.5 65.5t141.5 203.5q0 4 8 4q6 0 11 -3t5 -5q-20 -160 -20 -291q0 -16 -6 -23.5t-25 -7.5h-905q-6 0 -6 12.5zM360 1548 q-24 4 24 27.5t110.5 41t72.5 7.5l97 -82q90 -78 159 -131q6 -2 6 -8t-4 -10t-10 -2q-229 102 -455 157z" />
<glyph unicode="&#x401;" horiz-adv-x="1130" d="M78 12.5q0 12.5 6 12.5q66 0 95.5 10t39.5 39.5t10 91.5v948q0 61 -10 90t-41 40t-94 11q-6 0 -6 12.5t6 12.5h868q20 0 21 -18l4 -273q0 -4 -11.5 -6t-13.5 4q-33 119 -110.5 176.5t-204.5 57.5h-62q-61 0 -89.5 -27t-28.5 -82v-418h170q119 0 182 41t63 115q0 6 11.5 6 t11.5 -6l-2 -184l2 -99q4 -70 4 -110q0 -4 -12.5 -4t-12.5 4q0 84 -64.5 132t-184.5 48h-168v-463q0 -59 22.5 -88t71.5 -29h67q160 0 256.5 65.5t141.5 203.5q0 4 8 4q6 0 11 -3t5 -5q-20 -160 -20 -291q0 -16 -6 -23.5t-25 -7.5h-905q-6 0 -6 12.5zM322 1552q0 49 30.5 78 t81.5 29t79 -28.5t28 -78.5q0 -53 -28 -82.5t-79 -29.5q-53 0 -82.5 29.5t-29.5 82.5zM680 1552q0 49 29.5 77t81.5 28q51 0 78.5 -27.5t27.5 -77.5q0 -53 -27.5 -82.5t-78.5 -29.5q-54 0 -82.5 29.5t-28.5 82.5z" />
<glyph unicode="&#x402;" horiz-adv-x="1552" d="M82 918q8 82 18.5 212t10.5 195q0 10 11 10t11 -10q0 -45 117 -45q141 -6 340 -6q121 0 256 4l139 2q66 0 95.5 10t39.5 41q4 8 14.5 8t10.5 -8q-6 -61 -12.5 -196.5t-6.5 -216.5q0 -6 -11 -6.5t-13 6.5q-29 158 -106.5 236.5t-190.5 78.5q-59 0 -78.5 -25.5t-19.5 -97.5 v-457q94 82 184 119t182 37q154 0 262.5 -94t108.5 -287q0 -119 -47 -223.5t-135 -167t-207 -62.5q-96 0 -146.5 38t-50.5 98q0 43 27.5 70.5t77.5 27.5q43 0 65.5 -22.5t30.5 -71.5q8 -57 19.5 -78t41.5 -21q49 0 71.5 71t22.5 237q0 184 -62 281t-181 97q-135 0 -264 -96 v-440q0 -61 5 -91t20.5 -40t47.5 -10q6 0 6 -12.5t-6 -12.5q-49 0 -78 2l-112 2l-166 -2q-43 -2 -119 -2q-6 0 -6 12.5t6 12.5q74 0 110 10t49 39.5t13 91.5v948q0 70 -18.5 94.5t-75.5 24.5q-98 0 -168 -82t-111 -236q-2 -6 -12 -5t-10 8z" />
<glyph unicode="&#x403;" horiz-adv-x="1077" d="M63 12.5q0 12.5 7 12.5q72 0 104.5 10t43.5 39.5t11 91.5v948q0 61 -10 90t-41 40t-94 11q-6 0 -6 12.5t6 12.5h893q20 0 20 -18l4 -344q0 -6 -11 -7.5t-13 4.5q-35 158 -119 232t-221 74h-62q-61 0 -89.5 -27t-28.5 -82v-938q0 -63 16 -94t61.5 -43t141.5 -12 q4 0 4 -12.5t-4 -12.5q-84 0 -131 2l-209 2l-154 -2q-41 -2 -112 -2q-7 0 -7 12.5zM347 1398q-3 9 3 13q63 45 178 143q27 25 80 70q10 8 72.5 -9.5t111 -40t23.5 -26.5q-242 -61 -455 -159h-2q-8 0 -11 9z" />
<glyph unicode="&#x404;" horiz-adv-x="1370" d="M100 645q0 195 105.5 344.5t281 231.5t375.5 82q90 0 188.5 -15.5t153.5 -40.5q18 -6 23.5 -15t9.5 -32l25 -285q0 -6 -10.5 -8t-12.5 6q-70 162 -186.5 250t-270.5 88q-203 0 -313.5 -149.5t-110.5 -401.5v-30h289q104 0 174 59t70 145q0 4 12 4.5t12 -4.5l-2 -208 q0 -72 2 -109l3 -123q0 -6 -12.5 -6t-12.5 6q0 76 -70.5 127t-177.5 51h-283q14 -168 77 -303t166.5 -213t232.5 -78q131 0 234.5 87.5t184.5 265.5q3 8 14 6t11 -8l-31 -279q-4 -25 -9 -32t-23 -15q-182 -68 -375 -68q-250 0 -418 99.5t-247 252t-79 318.5z" />
<glyph unicode="&#x405;" horiz-adv-x="1054" d="M152 422v2q0 8 10 9t12 -7q61 -125 107.5 -203t117 -137t160.5 -59q82 0 135.5 44t53.5 150q0 90 -40 157.5t-97.5 115t-157.5 112.5q-98 63 -152.5 108.5t-93.5 109t-39 149.5q0 109 62.5 183.5t160.5 110.5t207 36q72 0 145.5 -13.5t118.5 -32.5q18 -8 24.5 -17 t6.5 -23v-302q0 -6 -10.5 -9t-12.5 3l-16 39q-51 129 -119.5 219t-191.5 90q-82 0 -134.5 -47t-52.5 -137q0 -74 38 -131t93.5 -100t149.5 -105q102 -66 163.5 -115t104.5 -119.5t43 -162.5q0 -106 -57 -189t-158.5 -129.5t-226.5 -46.5q-92 0 -192.5 26t-135.5 56 q-10 8 -15 15.5t-5 23.5z" />
<glyph unicode="&#x406;" horiz-adv-x="700" d="M82 12.5q0 12.5 4 12.5q66 0 96.5 10t42 39.5t11.5 91.5v948q0 61 -11.5 90t-42 40t-96.5 11q-4 0 -4 12.5t4 12.5l111 -2q94 -4 151 -4q63 0 158 4l104 2q6 0 6 -12.5t-6 -12.5q-63 0 -94 -12t-41 -42t-10 -91v-944q0 -64 10 -92.5t40 -38.5t95 -10q6 0 6 -12.5 t-6 -12.5q-68 0 -106 2l-156 2l-151 -2q-41 -2 -111 -2q-4 0 -4 12.5z" />
<glyph unicode="&#x407;" horiz-adv-x="700" d="M82 12.5q0 12.5 4 12.5q66 0 96.5 10t42 39.5t11.5 91.5v948q0 61 -11.5 90t-42 40t-96.5 11q-4 0 -4 12.5t4 12.5l111 -2q94 -4 151 -4q63 0 158 4l104 2q6 0 6 -12.5t-6 -12.5q-63 0 -94 -12t-41 -42t-10 -91v-944q0 -64 10 -92.5t40 -38.5t95 -10q6 0 6 -12.5 t-6 -12.5q-68 0 -106 2l-156 2l-151 -2q-41 -2 -111 -2q-4 0 -4 12.5zM82 1552q0 49 30.5 78t82.5 29q51 0 79.5 -28.5t28.5 -78.5q0 -53 -28.5 -82.5t-79.5 -29.5q-54 0 -83.5 29.5t-29.5 82.5zM397 1552q0 49 29 77t80 28t78.5 -27.5t27.5 -77.5q0 -53 -27.5 -82.5 t-78.5 -29.5t-80 29.5t-29 82.5z" />
<glyph unicode="&#x408;" horiz-adv-x="653" d="M19.5 -554q-3.5 9 3.5 13q115 74 158.5 224.5t43.5 398.5v1032q0 61 -11 90t-42 40t-96 11q-4 0 -4 12.5t4 12.5l117 -2q94 -4 145 -4q57 0 143 4l97 2q4 0 4 -12.5t-4 -12.5q-53 0 -79 -12t-35 -42t-9 -91v-973q0 -213 -38 -342t-128 -211t-258 -147h-2q-6 0 -9.5 9z " />
<glyph unicode="&#x409;" horiz-adv-x="1904" d="M12 80q0 49 30 71.5t75 22.5h43q111 0 189.5 135t117.5 341t39 413q0 106 -41 149t-160 43q-6 0 -6 12.5t6 12.5h1036q4 0 4.5 -12.5t-4.5 -12.5q-70 0 -103.5 -11t-44.5 -39.5t-11 -90.5v-403q82 12 164 12q210 0 348.5 -90t138.5 -260q0 -106 -59.5 -193.5t-166 -137.5 t-237.5 -50q-55 0 -133 6q-31 2 -75 4t-97 2l-150 -2q-39 -2 -110 -2q-6 0 -6 12.5t6 12.5q66 0 95.5 10t40.5 39.5t11 91.5v924q0 70 -5 92t-23.5 28.5t-73.5 6.5h-135q-61 0 -92 -10.5t-44.5 -42t-13.5 -101.5q0 -217 -35.5 -465t-131 -435.5t-261.5 -187.5q-57 0 -91 27 t-34 78zM1182 166q0 -61 29.5 -92t119.5 -31q137 0 199.5 70.5t62.5 208.5q0 176 -84 260t-235 84q-49 0 -92 -9v-491z" />
<glyph unicode="&#x40a;" horiz-adv-x="2062" d="M57 12.5q0 12.5 4 12.5q72 0 105 10t45 39.5t12 91.5v948q0 61 -12 90t-44 40t-101 11q-6 0 -6.5 12.5t6.5 12.5l110 -2q94 -4 152 -4q78 0 180 4l113 2q4 0 4 -12.5t-4 -12.5q-74 0 -109 -12t-48 -42t-13 -91v-416h661v416q0 61 -12.5 91t-47 42t-110.5 12q-6 0 -6 12.5 t6 12.5l100 -2q102 -4 185 -4q55 0 157 4l115 2q6 0 6 -12.5t-6 -12.5q-70 0 -103.5 -11t-45 -39.5t-11.5 -90.5v-416q84 6 166 7q209 0 347.5 -84t138.5 -248q0 -106 -59.5 -193.5t-166 -137.5t-237.5 -50q-55 0 -133 6q-33 2 -76 4t-94 2l-152 -2q-41 -2 -110 -2 q-4 0 -4.5 12.5t4.5 12.5q66 0 96.5 10t41.5 39.5t11 91.5v471h-661v-471q0 -61 12 -91t47 -40t111 -10q4 0 4 -12.5t-4 -12.5q-72 0 -115 2l-178 2l-154 -2q-41 -2 -113 -2q-4 0 -4 12.5zM1339 166q0 -61 30 -92t120 -31q137 0 199.5 70.5t62.5 208.5q0 166 -85 245.5 t-234 79.5q-59 0 -93 -2v-479z" />
<glyph unicode="&#x40b;" horiz-adv-x="1525" d="M82 918q8 82 18.5 212t10.5 195q0 10 11 10t11 -10q0 -45 117 -45q141 -6 340 -6q121 0 256 4l139 2q66 0 95.5 10t39.5 41q4 8 14.5 8t10.5 -8q-6 -61 -12.5 -196.5t-6.5 -216.5q0 -6 -11 -6.5t-13 6.5q-29 158 -106.5 236.5t-190.5 78.5q-59 0 -78.5 -25.5t-19.5 -97.5 v-457q182 156 364 156q127 0 212 -73.5t85 -243.5v-326q0 -61 9 -91t37 -40t87 -10q6 0 6 -12.5t-6 -12.5q-43 0 -71 2l-164 2l-152 -2q-33 -2 -86 -2q-6 0 -6 12.5t6 12.5q47 0 70.5 10t32 39.5t8.5 91.5v262q0 156 -44 215t-134 59q-125 0 -254 -96v-440q0 -63 8 -92 t33.5 -39t80.5 -10q4 0 4.5 -12.5t-4.5 -12.5q-61 0 -96 2l-143 2l-166 -2q-43 -2 -119 -2q-6 0 -6 12.5t6 12.5q74 0 110 10t49 39.5t13 91.5v948q0 70 -18.5 94.5t-75.5 24.5q-98 0 -168 -82t-111 -236q-2 -6 -12 -5t-10 8z" />
<glyph unicode="&#x40c;" horiz-adv-x="1366" d="M45 12.5q0 12.5 6 12.5q70 0 102.5 10t45 39.5t12.5 91.5v948q0 61 -12.5 90t-44 40t-101.5 11q-6 0 -6 12.5t6 12.5l109 -2q94 -4 149 -4q70 0 172 4l113 2q6 0 6 -12.5t-6 -12.5q-68 0 -100.5 -12t-45 -42t-12.5 -91v-430q55 2 140 2l215 295q84 117 84 194 q0 39 -23 61.5t-61 22.5q-4 0 -4.5 12.5t4.5 12.5l94 -2q90 -4 160 -4q80 0 165 4l88 2q6 0 6.5 -12.5t-6.5 -12.5q-90 0 -202.5 -65.5t-190.5 -163.5l-278 -346q80 -4 131 -29.5t101 -81t143 -184.5l36 -51q86 -119 134.5 -178.5t99.5 -94t110 -36.5q7 0 7 -12.5t-7 -12.5 h-315q-27 0 -48.5 16.5t-74.5 85t-174 242.5l-55 78q-72 104 -107 146t-72.5 59.5t-99.5 17.5v-479q0 -61 11.5 -91t44 -40t102.5 -10q6 0 6 -12.5t-6 -12.5q-72 0 -115 2l-170 2l-149 -2q-41 -2 -111 -2q-6 0 -6 12.5zM507 1398q-3 9 3 13q63 45 178 143q27 25 80 70 q10 8 72.5 -9.5t110.5 -40t24 -26.5q-242 -61 -455 -159h-2q-8 0 -11 9z" />
<glyph unicode="&#x40d;" horiz-adv-x="1540" d="M57 12.5q0 12.5 4 12.5q72 0 105 10t45 39.5t12 91.5v948q0 61 -12 90t-44 40t-101 11q-6 0 -6.5 12.5t6.5 12.5l110 -2q94 -4 152 -4q78 0 180 4l113 2q4 0 4 -12.5t-4 -12.5q-74 0 -109 -12t-48 -42t-13 -91v-766l636 680v86q0 61 -12 91t-47 42t-110 12 q-6 0 -6.5 12.5t6.5 12.5l100 -2q102 -4 184 -4q55 0 158 4l115 2q6 0 6 -12.5t-6 -12.5q-70 0 -103 -11t-45 -39.5t-12 -90.5v-948q0 -61 12 -91t45 -40t103 -10q6 0 6 -12.5t-6 -12.5q-72 0 -115 2l-158 2l-184 -2q-37 -2 -100 -2q-6 0 -6.5 12.5t6.5 12.5q76 0 110.5 10 t46.5 38.5t12 92.5v776l-636 -682v-94q0 -61 12 -91t47 -40t111 -10q4 0 4 -12.5t-4 -12.5q-72 0 -115 2l-178 2l-154 -2q-41 -2 -113 -2q-4 0 -4 12.5zM522 1548q-24 4 24 27.5t110.5 41t72.5 7.5l96 -82q90 -78 160 -131q6 -2 6 -8t-4 -10t-10 -2q-229 102 -455 157z" />
<glyph unicode="&#x40e;" horiz-adv-x="1280" d="M29 1267.5q0 12.5 4 12.5q45 0 63 -2q61 -4 160 -4q145 0 240 4q27 2 63 2q4 0 4 -12.5t-4 -12.5q-127 0 -127 -63q0 -25 19 -62l311 -634l242 567q18 43 18 80q0 51 -38 81.5t-105 30.5q-4 0 -4.5 12.5t4.5 12.5l92 -2q78 -4 139 -4q45 0 94 4l86 2q6 0 6 -12.5 t-6 -12.5q-59 0 -123.5 -54t-101.5 -138l-385 -895q-45 -106 -96.5 -149.5t-137.5 -43.5q-84 0 -135 37t-51 97q0 43 28.5 74.5t80.5 31.5q49 0 71.5 -25.5t38.5 -70.5q12 -29 23.5 -44.5t29.5 -15.5q20 0 41 23.5t48 83.5l30 72l-448 872q-43 82 -77 113.5t-93 31.5 q-4 0 -4 12.5zM416 1559q0 37 23.5 59t66.5 22q47 0 65.5 -27.5t34.5 -86.5q18 -63 40 -93t71 -30q51 0 74.5 31.5t44.5 93.5q18 57 37.5 84.5t62.5 27.5t65.5 -22.5t22.5 -58.5q0 -51 -43 -95.5t-112.5 -70t-149.5 -25.5q-78 0 -147.5 26.5t-112.5 70.5t-43 94z" />
<glyph unicode="&#x40f;" horiz-adv-x="1501" d="M57 12.5q0 12.5 4 12.5q72 0 105 10t45 39.5t12 91.5v948q0 61 -12 90t-45 40t-105 11q-4 0 -4 12.5t4 12.5l111 -2q94 -4 152 -4q70 0 176 4l121 2q4 0 4 -12.5t-4 -12.5q-76 0 -111 -11t-47 -39.5t-12 -90.5v-944q0 -68 6 -91.5t25.5 -29.5t76.5 -6h383q59 0 78.5 6 t24 27.5t4.5 93.5v944q0 61 -12.5 90t-47.5 40t-110 11q-4 0 -4.5 12.5t4.5 12.5l120 -2q106 -4 177 -4q57 0 151 4l111 2q4 0 4 -12.5t-4 -12.5q-72 0 -105 -11t-45 -39.5t-12 -90.5v-948q0 -76 8 -101.5t37 -32.5t115 -7q4 0 4 -12.5t-4 -12.5h-473q-92 0 -146.5 -100.5 t-54.5 -282.5q0 -10 -12.5 -10t-12.5 10q0 184 -54 283.5t-148 99.5h-474q-4 0 -4 12.5z" />
<glyph unicode="&#x410;" d="M-16 12.5q0 12.5 8 12.5q57 0 96 23.5t78 84t92 178.5l444 977q4 6 19 6q16 0 18 -6l512 -1007q72 -145 119 -200.5t98 -55.5q11 0 11 -12.5t-11 -12.5q-41 0 -127 4q-90 4 -129 4q-51 0 -125 -4q-70 -4 -110 -4q-8 0 -8 12.5t8 12.5q53 0 76.5 11t23.5 40q0 35 -41 117 l-213 419h-364l-146 -321q-27 -59 -26 -111q0 -74 52 -114.5t140 -40.5q10 0 10 -12.5t-10 -12.5q-37 0 -106 4q-78 4 -135 4q-55 0 -134 -4q-70 -4 -112 -4q-8 0 -8 12.5zM485 670h310l-164 323z" />
<glyph unicode="&#x411;" horiz-adv-x="1218" d="M78 12.5q0 12.5 6 12.5q66 0 95.5 10t40.5 39.5t11 91.5v948q0 61 -10 90t-40.5 40t-94.5 11q-4 0 -4 12.5t4 12.5h858q29 0 36 -8t7 -43l17 -311q0 -6 -10.5 -6.5t-14.5 6.5q-31 158 -114 236.5t-206 78.5h-86q-66 0 -89 -27.5t-23 -103.5v-391q82 12 164 12 q211 0 349 -90t138 -260q0 -106 -59.5 -193.5t-166 -137.5t-237.5 -50q-55 0 -133 6q-31 2 -75 4t-97 2l-149 -2q-41 -2 -111 -2q-6 0 -6 12.5zM461 166q0 -61 29.5 -92t119.5 -31q135 0 198.5 70.5t63.5 208.5q0 176 -83.5 260t-235.5 84q-49 0 -92 -9v-491z" />
<glyph unicode="&#x412;" horiz-adv-x="1218" d="M78 12.5q0 12.5 6 12.5q59 0 90 11t44 40.5t13 89.5v948q0 86 -28.5 113.5t-116.5 27.5q-4 0 -4 12.5t4 12.5l109 -2q94 -4 149 -4q57 0 119 6q20 2 61 4t72 2q186 0 288.5 -67.5t102.5 -196.5q0 -98 -64.5 -178t-185.5 -125q172 -21 273.5 -115t101.5 -233 q0 -106 -61.5 -192.5t-170 -136.5t-241.5 -50q-57 0 -131 6q-29 2 -71 4t-93 2l-149 -2q-41 -2 -111 -2q-6 0 -6 12.5zM461 166q0 -68 26.5 -95.5t116.5 -27.5q268 0 268 279q0 158 -75.5 250t-229.5 92q-59 0 -106 -5v-493zM461 721l82 -2q106 0 163.5 80t57.5 205 q0 117 -51 177t-148 60q-59 0 -81.5 -27.5t-22.5 -103.5v-389z" />
<glyph unicode="&#x413;" horiz-adv-x="1077" d="M63 12.5q0 12.5 7 12.5q72 0 104.5 10t43.5 39.5t11 91.5v948q0 61 -10 90t-41 40t-94 11q-6 0 -6 12.5t6 12.5h893q20 0 20 -18l4 -344q0 -6 -11 -7.5t-13 4.5q-35 158 -119 232t-221 74h-62q-61 0 -89.5 -27t-28.5 -82v-938q0 -63 16 -94t61.5 -43t141.5 -12 q4 0 4 -12.5t-4 -12.5q-84 0 -131 2l-209 2l-154 -2q-41 -2 -112 -2q-7 0 -7 12.5z" />
<glyph unicode="&#x414;" horiz-adv-x="1472" d="M37 31q0 16 3 20t17 4h140l512 1233q4 6 20 6t19 -6l565 -1233h100q19 0 22 -3t3 -21q0 -8 -4 -58q-16 -137 -17 -309q0 -10 -11 -10t-11 10q0 164 -118 250t-339 86h-455q-195 0 -298 -86t-103 -250q0 -10 -12.5 -10t-12.5 10q0 172 -14 291q-6 39 -6 76zM262 55h797 l-420 916z" />
<glyph unicode="&#x415;" horiz-adv-x="1130" d="M78 12.5q0 12.5 6 12.5q66 0 95.5 10t39.5 39.5t10 91.5v948q0 61 -10 90t-41 40t-94 11q-6 0 -6 12.5t6 12.5h868q20 0 21 -18l4 -273q0 -4 -11.5 -6t-13.5 4q-33 119 -110.5 176.5t-204.5 57.5h-62q-61 0 -89.5 -27t-28.5 -82v-418h170q119 0 182 41t63 115q0 6 11.5 6 t11.5 -6l-2 -184l2 -99q4 -70 4 -110q0 -4 -12.5 -4t-12.5 4q0 84 -64.5 132t-184.5 48h-168v-463q0 -59 22.5 -88t71.5 -29h67q160 0 256.5 65.5t141.5 203.5q0 4 8 4q6 0 11 -3t5 -5q-20 -160 -20 -291q0 -16 -6 -23.5t-25 -7.5h-905q-6 0 -6 12.5z" />
<glyph unicode="&#x416;" horiz-adv-x="2076" d="M-24.5 12.5q-0.5 12.5 6.5 12.5q55 2 102 36.5t92 93t131 183.5l31 47q76 113 128 172t103.5 86t122.5 35l-282 348q-92 113 -191.5 171t-202.5 58q-4 0 -4 12.5t4 12.5l88 -2q86 -4 166 -4q61 0 168 4l135 2q4 0 4.5 -12.5t-4.5 -12.5q-59 0 -88.5 -25.5t-29.5 -70.5 q0 -80 92 -211l192 -266h49q84 0 140 -2v434q0 61 -12.5 90t-45 40t-102.5 11q-4 0 -4 12.5t4 12.5l113 -2q90 -4 145 -4q63 0 166 4l117 2q4 0 4 -12.5t-4 -12.5q-70 0 -102.5 -12t-45 -42t-12.5 -91v-430q53 2 139 2h49l187 256q96 133 96 221q0 45 -28.5 70.5t-86.5 25.5 q-6 0 -6 12.5t6 12.5l133 -2q106 -4 168 -4q80 0 166 4l88 2q4 0 4 -12.5t-4 -12.5q-102 0 -201.5 -58t-191.5 -171l-283 -348q74 -8 124.5 -35t101.5 -85t129 -173l30 -47q86 -125 131.5 -183.5t92.5 -93t102 -36.5q6 0 6 -12.5t-6 -12.5h-315q-25 0 -44.5 16.5t-69.5 87 t-159 240.5q-88 139 -137 198.5t-96 81t-125 21.5v-479q0 -61 11 -91t44 -40t105 -10q4 0 4 -12.5t-4 -12.5q-76 0 -119 2l-164 2l-149 -2q-39 -2 -111 -2q-4 0 -4 12.5t4 12.5q72 0 104.5 10t45 39.5t12.5 91.5v479q-78 0 -125 -21.5t-96.5 -81t-137.5 -198.5 q-109 -170 -159 -240.5t-69 -87t-44 -16.5h-315q-6 0 -6.5 12.5z" />
<glyph unicode="&#x417;" horiz-adv-x="1112" d="M117 377q0 4 11 6t13 -4q16 -104 72.5 -189.5t138.5 -133.5t172 -48q109 0 165 93.5t56 228.5q0 166 -87 251t-246 85q-8 0 -8.5 12t8.5 12q147 0 220 78t73 219t-48.5 215t-142.5 74q-70 0 -139.5 -48t-122.5 -132t-80 -189q-2 -6 -12 -4t-10 6l28 291q4 25 8 33t23 14 q158 55 328 56q135 0 227 -38t138 -100.5t46 -136.5q0 -117 -100 -211t-230 -129q173 -12 279.5 -99t106.5 -224q0 -111 -72 -200t-193 -139.5t-264 -50.5q-92 0 -176 20.5t-129 57.5q-18 10 -22.5 17.5t-6.5 29.5z" />
<glyph unicode="&#x418;" horiz-adv-x="1566" d="M59.5 1267.5q-0.5 12.5 6.5 12.5l114 -2q102 -4 158 -4q82 0 184 4l101 2q6 0 6 -12.5t-6 -12.5q-76 0 -111 -11t-47 -39.5t-12 -90.5v-846l819 1026q6 6 31 6q14 0 26 -4t12 -10v-1120q0 -61 12.5 -91t45.5 -40t102 -10q6 0 6 -12.5t-6 -12.5q-72 0 -115 2l-157 2 l-185 -2q-37 -2 -100 -2q-6 0 -6 12.5t6 12.5q76 0 111 10t47 38.5t12 92.5v838l-819 -1027q-6 -6 -31 -6q-39 0 -39 15v1128q0 61 -12 90t-45 40t-102 11q-6 0 -6.5 12.5z" />
<glyph unicode="&#x419;" horiz-adv-x="1566" d="M59.5 1267.5q-0.5 12.5 6.5 12.5l114 -2q102 -4 158 -4q82 0 184 4l101 2q6 0 6 -12.5t-6 -12.5q-76 0 -111 -11t-47 -39.5t-12 -90.5v-846l819 1026q6 6 31 6q14 0 26 -4t12 -10v-1120q0 -61 12.5 -91t45.5 -40t102 -10q6 0 6 -12.5t-6 -12.5q-72 0 -115 2l-157 2 l-185 -2q-37 -2 -100 -2q-6 0 -6 12.5t6 12.5q76 0 111 10t47 38.5t12 92.5v838l-819 -1027q-6 -6 -31 -6q-39 0 -39 15v1128q0 61 -12 90t-45 40t-102 11q-6 0 -6.5 12.5zM518 1559q0 37 23.5 59t66.5 22q47 0 65.5 -27.5t35.5 -86.5q18 -63 39.5 -93t70.5 -30 q51 0 75 31.5t44 93.5q18 57 37.5 84.5t62.5 27.5t65.5 -22.5t22.5 -58.5q0 -51 -43 -95.5t-112.5 -70t-149.5 -25.5q-78 0 -147.5 26.5t-112.5 70.5t-43 94z" />
<glyph unicode="&#x41a;" horiz-adv-x="1366" d="M45 12.5q0 12.5 6 12.5q70 0 102.5 10t45 39.5t12.5 91.5v948q0 61 -12.5 90t-44 40t-101.5 11q-6 0 -6 12.5t6 12.5l109 -2q94 -4 149 -4q70 0 172 4l113 2q6 0 6 -12.5t-6 -12.5q-68 0 -100.5 -12t-45 -42t-12.5 -91v-430q55 2 140 2l215 295q84 117 84 194 q0 39 -23 61.5t-61 22.5q-4 0 -4.5 12.5t4.5 12.5l94 -2q90 -4 160 -4q80 0 165 4l88 2q6 0 6.5 -12.5t-6.5 -12.5q-90 0 -202.5 -65.5t-190.5 -163.5l-278 -346q80 -4 131 -29.5t101 -81t143 -184.5l36 -51q86 -119 134.5 -178.5t99.5 -94t110 -36.5q7 0 7 -12.5t-7 -12.5 h-315q-27 0 -48.5 16.5t-74.5 85t-174 242.5l-55 78q-72 104 -107 146t-72.5 59.5t-99.5 17.5v-479q0 -61 11.5 -91t44 -40t102.5 -10q6 0 6 -12.5t-6 -12.5q-72 0 -115 2l-170 2l-149 -2q-41 -2 -111 -2q-6 0 -6 12.5z" />
<glyph unicode="&#x41b;" d="M-16 12.5q0 12.5 8 12.5q57 0 96 23.5t78 84t92 178.5l444 977q4 6 19 6q16 0 18 -6l512 -1007q72 -145 119 -200.5t98 -55.5q11 0 11 -12.5t-11 -12.5q-41 0 -127 4q-90 4 -129 4q-51 0 -125 -4q-70 -4 -110 -4q-8 0 -8 12.5t8 12.5q53 0 76.5 11t23.5 40q0 35 -41 117 l-405 800l-318 -702q-27 -59 -26 -111q0 -74 52 -114.5t140 -40.5q10 0 10 -12.5t-10 -12.5q-37 0 -106 4q-78 4 -135 4q-55 0 -134 -4q-70 -4 -112 -4q-8 0 -8 12.5z" />
<glyph unicode="&#x41c;" horiz-adv-x="1755" d="M49 12.5q0 12.5 6 12.5q84 0 133.5 63.5t51.5 171.5l18 848l-2 2q-41 76 -85 110.5t-101 34.5q-6 0 -6.5 12.5t6.5 12.5l96 -2q29 -2 74 -2l108 2q18 2 47 2q27 0 41.5 -18.5t52.5 -87.5l447 -838l389 893q12 29 25.5 40t35.5 11q18 0 42 -2t55 -2l121 2q29 2 82 2 q6 0 6 -12.5t-6 -12.5q-96 0 -139.5 -38.5t-39.5 -120.5l49 -930q4 -63 15.5 -92t41 -39t93.5 -10q4 0 4 -12.5t-4 -12.5q-70 0 -111 2l-151 2l-154 -2q-39 -2 -106 -2q-6 0 -6 12.5t6 12.5q86 0 116.5 20.5t30.5 85.5l-2 35l-43 838l-422 -990q-4 -8 -16 -8t-17 8l-518 985 l-16 -739q-2 -111 44 -173t130 -62q6 0 6 -12.5t-6 -12.5q-55 0 -86 2l-113 2l-129 -2q-33 -2 -88 -2q-6 0 -6 12.5z" />
<glyph unicode="&#x41d;" horiz-adv-x="1564" d="M57 12.5q0 12.5 4 12.5q72 0 105 10t45 39.5t12 91.5v948q0 61 -12 90t-44 40t-101 11q-6 0 -6.5 12.5t6.5 12.5l110 -2q94 -4 152 -4q78 0 180 4l113 2q4 0 4 -12.5t-4 -12.5q-74 0 -109 -12t-48 -42t-13 -91v-416h661v416q0 61 -12.5 91t-47 42t-110.5 12q-6 0 -6 12.5 t6 12.5l100 -2q102 -4 185 -4q55 0 157 4l115 2q6 0 6 -12.5t-6 -12.5q-70 0 -103.5 -11t-45 -39.5t-11.5 -90.5v-948q0 -61 11.5 -91t44 -40t104.5 -10q6 0 6 -12.5t-6 -12.5q-72 0 -115 2l-157 2l-185 -2q-37 -2 -100 -2q-6 0 -6 12.5t6 12.5q76 0 110.5 10t47 38.5 t12.5 92.5v471h-661v-471q0 -61 12 -91t47 -40t111 -10q4 0 4 -12.5t-4 -12.5q-72 0 -115 2l-178 2l-154 -2q-41 -2 -113 -2q-4 0 -4 12.5z" />
<glyph unicode="&#x41e;" horiz-adv-x="1568" d="M100 639q0 211 106.5 361.5t273.5 226.5t341 76q195 0 342.5 -91.5t226 -241t78.5 -317.5q0 -186 -98 -341.5t-263 -246t-357 -90.5q-191 0 -339.5 89.5t-229.5 242t-81 332.5zM352 715q0 -199 60.5 -355.5t166 -244.5t238.5 -88q115 0 206 66.5t142.5 194.5t51.5 306 q0 188 -57.5 336.5t-166 232.5t-254.5 84q-186 0 -286.5 -140t-100.5 -392z" />
<glyph unicode="&#x41f;" horiz-adv-x="1538" d="M57 12.5q0 12.5 4 12.5q72 0 105 10t45 39.5t12 91.5v924q0 92 -30.5 128.5t-126.5 36.5q-6 0 -6.5 12.5t6.5 12.5q70 0 135 -2q274 -4 575 -4q272 0 629 6h68q6 0 6 -12.5t-6 -12.5q-96 0 -128 -36.5t-32 -128.5v-924q0 -61 12 -91t45 -40t103 -10q6 0 6 -12.5t-6 -12.5 q-70 0 -111 2l-150 2l-170 -2q-43 -2 -114 -2q-6 0 -6 12.5t6 12.5q70 0 102.5 10t43.5 39.5t11 91.5v924q0 70 -5 92t-23.5 28.5t-73.5 6.5h-420q-61 0 -81.5 -6.5t-25.5 -29t-5 -91.5v-924q0 -63 11 -92t43 -39t103 -10q6 0 6 -12.5t-6 -12.5q-72 0 -114 2l-170 2l-152 -2 q-41 -2 -111 -2q-4 0 -4 12.5z" />
<glyph unicode="&#x420;" horiz-adv-x="1132" d="M63.5 12.5q-0.5 12.5 6.5 12.5q66 0 95.5 10t39.5 39.5t10 91.5v948q0 61 -10 90t-41 40t-94 11q-6 0 -6.5 12.5t6.5 12.5l108 -2q94 -4 150 -4q49 0 116 6q27 2 68 4t94 2q209 0 330 -87t121 -269q0 -127 -65.5 -215t-169 -133t-212.5 -45q-55 0 -96 10q-4 0 -4 10 q0 6 3 12t7 4q31 -8 70 -8q94 0 156.5 88t62.5 250t-68.5 250t-199.5 88q-57 0 -78 -26.5t-21 -104.5v-936q0 -65 14.5 -95t54.5 -42t128 -12q6 0 6 -12.5t-6 -12.5q-84 0 -131 2l-178 2l-150 -2q-41 -2 -110 -2q-6 0 -6.5 12.5z" />
<glyph unicode="&#x421;" horiz-adv-x="1370" d="M100 645q0 195 105.5 344.5t281 231.5t375.5 82q90 0 188.5 -15.5t153.5 -40.5q18 -6 23.5 -15t9.5 -32l25 -285q0 -6 -10.5 -8t-12.5 6q-70 162 -186.5 250t-270.5 88q-203 0 -313.5 -149.5t-110.5 -401.5q0 -188 60.5 -343.5t170 -247t249.5 -91.5q131 0 234.5 87.5 t184.5 265.5q2 8 13.5 6t11.5 -8l-31 -279q-4 -25 -9 -32t-23 -15q-182 -68 -375 -68q-250 0 -418 99.5t-247 252t-79 318.5z" />
<glyph unicode="&#x422;" horiz-adv-x="1316" d="M82 918q8 82 18.5 212t10.5 195q0 10 11 10t11 -10q0 -45 117 -45q176 -6 412 -6q121 0 256 4l139 2q78 0 113.5 10t46.5 41q2 8 13 8t11 -8q-6 -61 -13 -196.5t-7 -216.5q0 -6 -10.5 -6.5t-12.5 6.5q-31 158 -115 236.5t-206 78.5q-59 0 -79 -25.5t-20 -97.5v-944 q0 -63 12.5 -92t47 -39t110.5 -10q6 0 6 -12.5t-6 -12.5q-74 0 -117 2l-169 2l-166 -2q-43 -2 -119 -2q-6 0 -6 12.5t6 12.5q74 0 109.5 10t49 39.5t13.5 91.5v948q0 70 -18.5 94.5t-75.5 24.5q-245 -1 -351 -318q-2 -6 -12 -5t-10 8z" />
<glyph unicode="&#x423;" horiz-adv-x="1280" d="M29 1267.5q0 12.5 4 12.5q45 0 63 -2q61 -4 160 -4q145 0 240 4q27 2 63 2q4 0 4 -12.5t-4 -12.5q-127 0 -127 -63q0 -25 19 -62l311 -634l242 567q18 43 18 80q0 51 -38 81.5t-105 30.5q-4 0 -4.5 12.5t4.5 12.5l92 -2q78 -4 139 -4q45 0 94 4l86 2q6 0 6 -12.5 t-6 -12.5q-59 0 -123.5 -54t-101.5 -138l-385 -895q-45 -106 -96.5 -149.5t-137.5 -43.5q-84 0 -135 37t-51 97q0 43 28.5 74.5t80.5 31.5q49 0 71.5 -25.5t38.5 -70.5q12 -29 23.5 -44.5t29.5 -15.5q20 0 41 23.5t48 83.5l30 72l-448 872q-43 82 -77 113.5t-93 31.5 q-4 0 -4 12.5z" />
<glyph unicode="&#x424;" horiz-adv-x="1712" d="M100 639q0 182 79 324.5t224.5 229.5t339.5 105v31q0 57 -11 84t-43 37t-99 10q-6 0 -6 12.5t6 12.5q70 0 110 -2l150 -2l160 2q39 2 104 2q4 0 4 -12.5t-4 -12.5q-66 0 -97.5 -11t-42.5 -40t-11 -84v-29q197 -20 343 -105t226 -223.5t80 -314.5q0 -184 -80 -328.5 t-226.5 -233.5t-342.5 -109v-37q0 -70 28.5 -97.5t122.5 -27.5q4 0 4 -11.5t-4 -11.5q-68 0 -106 2l-158 2l-150 -2q-41 -2 -110 -2q-6 0 -6 11.5t6 11.5q92 0 122.5 28.5t30.5 96.5v35q-195 18 -340 105t-224 229.5t-79 324.5zM324 709q0 -301 107.5 -475.5t311.5 -208.5 v1228q-205 -25 -312 -164t-107 -380zM963 25q207 31 316.5 177t109.5 394q0 281 -109 445.5t-317 203.5v-1220z" />
<glyph unicode="&#x425;" horiz-adv-x="1325" d="M4 12.5q0 12.5 6 12.5q63 0 155.5 67.5t192.5 206.5l209 283l-327 510q-55 88 -106.5 125.5t-108.5 37.5q-6 0 -6.5 12.5t6.5 12.5l88 -2q57 -4 86 -4q72 0 178 4l117 2q4 0 4 -12.5t-4 -12.5q-70 0 -70 -34q0 -16 18 -47l271 -416l164 233q80 115 79 185q0 80 -106 79 q-4 0 -4 12.5t4 12.5l102 -2q82 -4 152 -4q43 0 96 4l86 2q6 0 6 -12.5t-6 -12.5q-66 0 -157 -68.5t-193 -207.5l-195 -266l351 -543q51 -76 104 -110.5t123 -34.5q6 0 6 -12.5t-6 -12.5q-59 0 -92 2l-123 2l-168 -2q-39 -2 -109 -2q-6 0 -6 12.5t6 12.5q68 0 68 34 q0 18 -18 45l-281 435l-176 -252q-80 -113 -80 -183q0 -80 106 -79q4 0 4.5 -12.5t-4.5 -12.5q-68 0 -102 2l-151 2l-97 -2q-27 -2 -86 -2q-6 0 -6 12.5z" />
<glyph unicode="&#x426;" horiz-adv-x="1505" d="M57 12.5q0 12.5 4 12.5q72 0 105 10t45 39.5t12 91.5v948q0 61 -12 90t-45 40t-105 11q-4 0 -4 12.5t4 12.5l111 -2q94 -4 152 -4q70 0 176 4l121 2q4 0 4 -12.5t-4 -12.5q-76 0 -111 -11t-47 -39.5t-12 -90.5v-944q0 -70 5 -92.5t23.5 -28.5t73.5 -6h383q61 0 81.5 6 t26 28.5t5.5 92.5v944q0 61 -12.5 90t-47.5 40t-110 11q-4 0 -4.5 12.5t4.5 12.5l120 -2q106 -4 177 -4q57 0 151 4l111 2q4 0 4 -12.5t-4 -12.5q-72 0 -105 -11t-45 -39.5t-12 -90.5v-948q0 -76 7 -101.5t30.5 -32.5t95.5 -7q16 0 21.5 -4.5t5.5 -20.5q0 -47 -2 -78 q-4 -115 -4 -305q0 -10 -11.5 -10t-11.5 10q0 186 -90 284.5t-260 98.5h-996q-4 0 -4 12.5z" />
<glyph unicode="&#x427;" horiz-adv-x="1304" d="M4 1267.5q0 12.5 6 12.5q31 0 47 -2q57 -4 187 -4q104 0 194 4q27 2 68 2q4 0 4 -12.5t-4 -12.5q-59 0 -87 -12t-38 -42t-10 -91v-203q0 -174 60.5 -264t180.5 -90q119 0 240 68v489q0 61 -9 91t-37 42t-87 12q-6 0 -6 12.5t6 12.5l104 -2q94 -4 156 -4q57 0 151 4l111 2 q4 0 4 -12.5t-4 -12.5q-72 0 -104.5 -11t-45 -39.5t-12.5 -90.5v-948q0 -61 12.5 -91t45 -40t104.5 -10q4 0 4 -12.5t-4 -12.5q-70 0 -111 2l-151 2l-168 -2q-43 -2 -117 -2q-4 0 -4 12.5t4 12.5q72 0 103.5 10t43 38.5t11.5 92.5v422q-141 -84 -303 -84q-180 0 -293 90 t-113 242v278q0 61 -9 90t-36.5 40t-87.5 11q-6 0 -6 12.5z" />
<glyph unicode="&#x428;" horiz-adv-x="2185" d="M57 12.5q0 12.5 4 12.5q72 0 105 10t45 39.5t12 91.5v948q0 61 -12 90t-45 40t-105 11q-4 0 -4 12.5t4 12.5l111 -2q94 -4 152 -4q68 0 170 4l114 2q6 0 6 -12.5t-6 -12.5q-70 0 -102.5 -11t-43.5 -39.5t-11 -90.5v-944q0 -70 5 -92.5t23.5 -28.5t73.5 -6h311q57 0 79 7 t28 31.5t6 88.5v944q0 61 -12.5 90t-45 40t-102.5 11q-6 0 -6 12.5t6 12.5q104 -6 275 -6q57 0 155 4l119 2q4 0 4 -12.5t-4 -12.5q-72 0 -104.5 -11t-45 -39.5t-12.5 -90.5v-944q0 -70 5 -92.5t23.5 -28.5t76.5 -6h311q59 0 79.5 6t27 29.5t6.5 91.5v944q0 61 -11.5 90 t-45.5 40t-103 11q-4 0 -4 12.5t4 12.5l117 -2q102 -4 170 -4q59 0 149 4l111 2q6 0 6 -12.5t-6 -12.5q-70 0 -104 -11t-45 -39.5t-11 -90.5v-948q0 -59 13.5 -89t46 -41t100.5 -11q6 0 6 -12.5t-6 -12.5h-2059q-4 0 -4 12.5z" />
<glyph unicode="&#x429;" horiz-adv-x="2187" d="M57 12.5q0 12.5 4 12.5q72 0 105 10t45 39.5t12 91.5v948q0 61 -12 90t-45 40t-105 11q-4 0 -4 12.5t4 12.5l111 -2q94 -4 152 -4q68 0 170 4l114 2q6 0 6 -12.5t-6 -12.5q-70 0 -102.5 -11t-43.5 -39.5t-11 -90.5v-944q0 -70 5 -92.5t23.5 -28.5t73.5 -6h311q57 0 79 7 t28 31.5t6 88.5v944q0 61 -12.5 90t-45 40t-102.5 11q-6 0 -6 12.5t6 12.5q104 -6 275 -6q57 0 155 4l119 2q4 0 4 -12.5t-4 -12.5q-72 0 -104.5 -11t-45 -39.5t-12.5 -90.5v-944q0 -70 5 -92.5t23.5 -28.5t76.5 -6h311q59 0 79.5 6t27 29.5t6.5 91.5v944q0 61 -11.5 90 t-45.5 40t-103 11q-4 0 -4 12.5t4 12.5l117 -2q102 -4 170 -4q59 0 149 4l111 2q6 0 6 -12.5t-6 -12.5q-70 0 -104 -11t-45 -39.5t-11 -90.5v-948q0 -76 6 -101.5t29.5 -32.5t95.5 -7q18 0 22.5 -4.5t4.5 -20.5q0 -47 -2 -78q0 -35 -1 -103.5t-1 -201.5q0 -10 -12.5 -10 t-12.5 10q0 186 -90 284.5t-260 98.5h-1678q-4 0 -4 12.5z" />
<glyph unicode="&#x42a;" horiz-adv-x="1386" d="M25 942q8 76 18 199t10 184q0 10 11.5 10t11.5 -10q0 -23 23.5 -34t78.5 -15q63 -2 363 -2q80 0 182 4l111 2q6 0 6 -12.5t-6 -12.5q-74 0 -109 -12t-48 -42t-13 -91v-403q115 16 206 16q217 0 331 -85t114 -251q0 -119 -59.5 -208t-165 -138t-238.5 -49q-53 0 -125 6 q-27 0 -86 3t-104 3l-144 -2q-39 -2 -106 -2q-4 0 -4 12.5t4 12.5q66 0 96.5 10t41.5 39.5t11 91.5v948q0 66 -20.5 92.5t-67.5 26.5q-59 0 -126.5 -43t-116 -110.5t-58.5 -137.5q0 -6 -11 -6t-11 6zM664 166q0 -61 29.5 -92t123.5 -31q141 0 199.5 75t58.5 234 q0 164 -62.5 239t-211.5 75q-55 0 -137 -11v-489z" />
<glyph unicode="&#x42b;" horiz-adv-x="1812" d="M78 12.5q0 12.5 6 12.5q70 4 97.5 11t38.5 34.5t11 95.5v948q0 68 -10 94.5t-37.5 34.5t-97.5 12q-4 0 -4 12.5t4 12.5l102 -2q86 -4 156 -4q68 0 170 4l117 2q4 0 4 -12.5t-4 -12.5q-80 -4 -111 -12t-45 -36.5t-14 -96.5v-403q115 16 205 16q217 0 331.5 -85t114.5 -251 q0 -119 -59.5 -208t-165 -138t-238.5 -49q-53 0 -125 6q-27 0 -86 3t-104 3l-131 -2q-43 -2 -119 -2q-6 0 -6 12.5zM461 166q0 -61 29.5 -92t121.5 -31q142 0 201 75t59 234q0 164 -62 239t-214 75q-53 0 -135 -11v-489zM1196 12.5q0 12.5 4 12.5q66 0 96.5 10t42 39.5 t11.5 91.5v948q0 61 -11.5 90t-42 40t-96.5 11q-4 0 -4 12.5t4 12.5l111 -2q94 -4 151 -4q63 0 158 4l104 2q6 0 6.5 -12.5t-6.5 -12.5q-63 0 -94 -12t-41 -42t-10 -91v-944q0 -63 10 -92t40 -39t95 -10q7 0 7 -12.5t-7 -12.5q-68 0 -106 2l-156 2l-151 -2q-41 -2 -111 -2 q-4 0 -4 12.5z" />
<glyph unicode="&#x42c;" horiz-adv-x="1183" d="M78 12.5q0 12.5 6 12.5q70 4 97.5 11t38.5 34.5t11 95.5v948q0 68 -10 94.5t-37.5 34.5t-97.5 12q-4 0 -4 12.5t4 12.5l102 -2q86 -4 156 -4q68 0 170 4l117 2q4 0 4 -12.5t-4 -12.5q-80 -4 -111 -12t-45 -36.5t-14 -96.5v-403q115 16 205 16q217 0 331.5 -85t114.5 -251 q0 -119 -59.5 -208t-165 -138t-238.5 -49q-53 0 -125 6q-27 0 -86 3t-104 3l-131 -2q-43 -2 -119 -2q-6 0 -6 12.5zM461 166q0 -61 29.5 -92t121.5 -31q142 0 201 75t59 234q0 164 -62 239t-214 75q-53 0 -135 -11v-489z" />
<glyph unicode="&#x42d;" horiz-adv-x="1327" d="M88 365q0 6 11.5 7t13.5 -5q63 -154 191 -246t276 -92q190 0 289.5 159.5t99.5 429.5v15h-240q-104 0 -175 -59.5t-71 -145.5q0 -4 -11 -4t-11 4l2 209l-2 108q-4 78 -4 125q0 4 12 4t12 -4q0 -78 72 -129t178 -51h236q-14 260 -125 415t-289 155q-129 0 -240.5 -88.5 t-195.5 -264.5q-2 -6 -12.5 -4t-10.5 6l31 279q4 25 8 33t23 16q188 66 395 66q233 0 384.5 -87.5t221.5 -229.5t70 -310q0 -205 -99.5 -364.5t-264.5 -248t-357 -88.5q-84 0 -193.5 16.5t-167.5 39.5q-16 8 -22 17t-8 32z" />
<glyph unicode="&#x42e;" horiz-adv-x="2144" d="M57 12.5q0 12.5 4 12.5q72 0 105 10t45 39.5t12 91.5v948q0 61 -12 90t-44 40t-101 11q-6 0 -6.5 12.5t6.5 12.5l110 -2q94 -4 152 -4q78 0 180 4l113 2q4 0 4 -12.5t-4 -12.5q-74 0 -109 -12t-48 -42t-13 -91v-416h274q14 193 119.5 331t260.5 208t316 70 q187 0 328 -91.5t218 -241t77 -317.5q0 -186 -95.5 -341.5t-255 -246t-345.5 -90.5q-184 0 -326.5 89.5t-220.5 241t-78 331.5h-272v-471q0 -61 12 -91t47 -40t111 -10q4 0 4 -12.5t-4 -12.5q-72 0 -115 2l-178 2l-154 -2q-41 -2 -113 -2q-4 0 -4 12.5zM950 715 q0 -199 57.5 -355.5t159 -244.5t226.5 -88q108 0 193 66.5t133 194.5t48 306q0 188 -54 336.5t-156.5 232.5t-241.5 84q-176 0 -270.5 -140t-94.5 -392z" />
<glyph unicode="&#x42f;" horiz-adv-x="1273" d="M0 12.5q0 12.5 4 12.5q63 2 102 43t107 157l98 160q82 137 166 197.5t199 81.5q-199 18 -303.5 98t-104.5 209q0 92 56.5 163.5t155 111.5t220.5 40q45 0 107 -6q25 -2 57.5 -4t71.5 -2q63 0 158 4l116 2q4 0 4 -12.5t-4 -12.5q-76 0 -108.5 -11t-42.5 -38.5t-10 -91.5 v-948q0 -63 10 -92t43 -39t108 -10q4 0 4 -12.5t-4 -12.5q-74 0 -116 2l-158 2l-154 -2q-39 -2 -106 -2q-6 0 -6 12.5t6 12.5q66 0 95.5 10t39.5 38.5t10 92.5v491q-76 -16 -142.5 -83.5t-156.5 -229.5q-104 -182 -146 -249.5t-58.5 -81t-45.5 -13.5h-268q-4 0 -4 12.5z M504 1022q0 -148 73.5 -234t215.5 -86h28v408q0 150 -125 150q-193 0 -192 -238z" />
<glyph unicode="&#x430;" horiz-adv-x="1003" d="M66 336q0 145 67.5 254.5t178 167t237.5 57.5q111 0 199 -53q47 20 79 53q2 2 7 2q4 0 9 -3t5 -7v-584q0 -61 13 -86.5t44 -25.5q27 0 84 22h4q6 0 11.5 -10t-0.5 -12l-283 -138q-4 -2 -10 -2q-18 0 -33.5 37t-20.5 101q-68 -63 -135 -99.5t-149 -36.5q-84 0 -155 42 t-111.5 124t-40.5 197zM276 406q0 -154 52.5 -239t148.5 -85q82 -1 178 65v21v422q0 80 -44 131t-115 51q-102 0 -161 -102.5t-59 -263.5z" />
<glyph unicode="&#x431;" horiz-adv-x="976" d="M59 463q0 371 119 555t354 256q86 27 134.5 47t90.5 59t72 105q2 6 12.5 4t8.5 -8q-23 -147 -57.5 -221t-91 -111t-169.5 -74q-121 -37 -205.5 -94t-143 -166.5t-77.5 -292.5q74 170 182.5 220.5t192.5 50.5q154 0 251 -59.5t139 -148.5t42 -186q0 -129 -62.5 -225 t-167.5 -148.5t-226 -52.5q-174 0 -286 122t-112 368zM283 440q0 -184 68.5 -304t185.5 -120q79 0 121 81t42 237q0 133 -33.5 228t-90 142.5t-121.5 47.5q-92 0 -132 -89.5t-40 -222.5z" />
<glyph unicode="&#x432;" horiz-adv-x="1019" d="M74 659q0 461 127 643.5t358 182.5q147 0 223 -63.5t76 -188.5q0 -131 -76.5 -255t-191.5 -190q98 -6 182 -55t134 -139t50 -213q0 -186 -110.5 -297t-327.5 -111q-145 0 -241.5 55.5t-149.5 205t-53 425.5zM301 725q0 -287 32 -443.5t88 -214t140 -57.5q90 0 130 64.5 t40 218.5q0 221 -89 330.5t-257 109.5q-49 0 -84 -8zM301 778q35 -2 82 -2q74 0 135.5 57.5t97 154.5t35.5 210q0 123 -39 187.5t-104 64.5q-105 0 -155 -160t-52 -512z" />
<glyph unicode="&#x433;" horiz-adv-x="700" d="M84 561l66 273q0 4 8 4q6 0 11 -3.5t3 -5.5q-2 -8 -2 -20q0 -41 33 -41q14 0 35.5 7t29.5 9q88 33 160 33q98 0 148.5 -45t50.5 -125q0 -70 -39 -111.5t-135 -95.5q-82 -45 -121 -86t-39 -114q0 -72 53 -114t129 -42q53 0 103.5 22.5t85.5 67.5q2 4 8 4t10 -6t0 -12 q-57 -88 -150.5 -135.5t-191.5 -47.5q-102 0 -176 47.5t-74 145.5q0 61 38 109.5t132 105.5q86 47 122 101.5t36 123.5q0 70 -30 111t-75 41q-61 0 -118.5 -65.5t-85.5 -141.5q-2 -2 -11 -2q-16 0 -14 8z" />
<glyph unicode="&#x434;" horiz-adv-x="960" d="M66 336q0 145 67.5 254.5t178 167t237.5 57.5q111 0 199 -53q47 20 79 53q3 2 7 2t9 -3t5 -7v-950q0 -193 -115 -312.5t-321 -119.5q-135 0 -221.5 39.5t-86.5 115.5q0 53 31 79t74 26q57 0 85 -27t54 -80q27 -55 56.5 -82.5t93.5 -27.5q72 0 114.5 73.5t42.5 265.5v299 q-68 -61 -134 -97t-148 -36q-84 0 -155 42t-111.5 124t-40.5 197zM276 406q0 -154 52.5 -239t148.5 -85q82 -1 178 65v443q0 80 -44 131t-115 51q-102 0 -161 -102.5t-59 -263.5z" />
<glyph unicode="&#x435;" horiz-adv-x="856" d="M66 371q0 119 61 220t167.5 159.5t237.5 58.5q127 0 195 -54.5t68 -148.5q0 -59 -23 -59h-125l-368 -4q-6 -39 -7 -86q0 -176 83 -278.5t229 -102.5q51 0 106 14t101 43l4 2q4 0 9 -8t1 -12q-76 -74 -154 -107t-170 -33q-129 0 -223 54.5t-143 145.5t-49 196zM285 584 l290 6q-6 178 -118 178q-62 0 -107 -49t-65 -135z" />
<glyph unicode="&#x436;" d="M-2 12.5q0 12.5 4 12.5q55 2 84 26.5t72 87.5q49 70 73 99q82 111 120 146.5t98 43.5l-93 119q-170 219 -317 219q-6 0 -6 12.5t6 12.5q35 0 55 -3l103 -2l209 2q31 2 79 3q6 0 6.5 -12.5t-6.5 -12.5q-57 0 -90 -32t-33 -83t35 -100l84 -121q33 2 156 -2v778 q0 72 -13.5 102.5t-45.5 30.5q-27 0 -78 -22h-2q-6 0 -11.5 11t-1.5 13l306 144h4q10 0 22 -9.5t12 -17.5v-1030q121 4 154 2l86 121q35 49 35 102q0 49 -34 81t-91 32q-4 0 -4 12.5t4 12.5q51 0 84 -3l207 -2l100 2q20 2 57 3q6 0 6.5 -12.5t-6.5 -12.5q-74 0 -154.5 -56.5 t-162.5 -162.5l-92 -119q57 -8 94 -43t121 -147q39 -47 76 -99q43 -63 71.5 -87.5t83.5 -26.5q4 0 4 -12.5t-4 -12.5h-245q-4 0 -18.5 -1t-49.5 44t-115 154q-12 18 -41 57q-45 66 -65.5 91.5t-42 35.5t-58.5 10v-225q0 -61 8.5 -91t31 -40t69.5 -10q6 0 6 -12.5t-6 -12.5 q-57 0 -88 2l-115 2l-119 -2q-33 -2 -92 -2q-4 0 -4 12.5t4 12.5q49 0 73 10t32 39.5t8 91.5v225q-37 0 -58.5 -10t-42 -34.5t-65.5 -90.5l-43 -59q-63 -90 -101 -138.5t-48.5 -53.5t-32.5 -5h-244q-4 0 -4 12.5z" />
<glyph unicode="&#x437;" horiz-adv-x="819" d="M14 -420q0 53 30 79t73 26q59 0 86.5 -27t54.5 -82t56.5 -84t93.5 -29q82 0 120.5 100.5t38.5 250.5q0 358 -350 358q-6 0 -8 12.5t8 12.5q152 0 213.5 78.5t61.5 224.5q0 135 -31 204.5t-105 69.5q-43 0 -99 -36t-109.5 -102.5t-90.5 -152.5q-2 -2 -8 -2q-18 0 -16 8 l65 345q0 4 8 4q6 0 12.5 -3.5t4.5 -5.5q-2 -8 -2 -22q0 -20 9 -29.5t24 -9.5q25 0 67 16q45 14 88 23.5t103 9.5q147 0 227 -79t80 -195q0 -111 -73 -207t-200 -139q111 -4 190 -55.5t120 -131.5t41 -170q0 -119 -56.5 -213t-160 -148t-236.5 -54q-145 0 -237.5 39.5 t-92.5 115.5z" />
<glyph unicode="&#x438;" horiz-adv-x="1034" d="M22.5 662.5q-4.5 11.5 2.5 13.5l274 131l10 2q10 0 21.5 -9t11.5 -18v-452q0 -221 170 -221q45 0 91 19t83 54v350q0 133 -63 134q-23 0 -54 -15h-2q-6 0 -10 11.5t2 13.5l275 131q4 2 10 2q10 0 21.5 -9t11.5 -18v-544q0 -70 13 -98.5t44 -28.5q29 0 84 22h4q6 0 11 -10 t-1 -12l-282 -138q-4 -2 -11 -2q-20 0 -35.5 44t-17.5 120q-135 -160 -293 -160q-113 0 -177 71t-64 185v301q0 133 -64 134q-23 0 -51 -15h-2q-8 0 -12.5 11.5z" />
<glyph unicode="&#x439;" horiz-adv-x="1034" d="M22.5 662.5q-4.5 11.5 2.5 13.5l274 131l10 2q10 0 21.5 -9t11.5 -18v-452q0 -221 170 -221q45 0 91 19t83 54v350q0 133 -63 134q-23 0 -54 -15h-2q-6 0 -10 11.5t2 13.5l275 131q4 2 10 2q10 0 21.5 -9t11.5 -18v-544q0 -70 13 -98.5t44 -28.5q29 0 84 22h4q6 0 11 -10 t-1 -12l-282 -138q-4 -2 -11 -2q-20 0 -35.5 44t-17.5 120q-135 -160 -293 -160q-113 0 -177 71t-64 185v301q0 133 -64 134q-23 0 -51 -15h-2q-8 0 -12.5 11.5zM219 1153q0 37 22.5 58.5t65.5 21.5q39 0 58.5 -17.5t27.5 -41t17 -68.5q8 -53 29.5 -83t82.5 -30t88 32t35 89 q12 61 29.5 90t66.5 29q41 0 63.5 -21.5t22.5 -58.5q0 -51 -43 -96t-112.5 -70.5t-147.5 -25.5q-80 0 -150.5 26.5t-112.5 70.5t-42 95z" />
<glyph unicode="&#x43a;" horiz-adv-x="983" d="M2 1341l299 142l10 2q10 0 21.5 -9.5t11.5 -17.5v-1028l98 2q41 0 93 111q78 158 136 213t126 55q59 0 88.5 -27.5t29.5 -72.5q0 -47 -26.5 -76t-77.5 -29q-31 0 -63 17q-33 16 -60 16q-33 0 -54.5 -21.5t-55.5 -91.5q-31 -66 -64 -98q49 -4 81 -23.5t59.5 -50 t95.5 -116.5q20 -27 65 -91q45 -68 76 -94t88 -28q6 0 6 -12.5t-6 -12.5h-244q-4 0 -18.5 -1t-49 44t-114.5 154l-43 59q-45 66 -65.5 90.5t-42 34.5t-58.5 10v-225q0 -61 8 -91t32 -40t71 -10q6 0 6 -12.5t-6 -12.5q-57 0 -88 2l-115 2l-119 -2q-33 -2 -92 -2q-6 0 -6 12.5 t6 12.5q49 0 72.5 10t32 39.5t8.5 91.5v1040q0 72 -13.5 102.5t-46.5 30.5q-29 0 -78 -22h-2q-6 0 -11 11t-1 13z" />
<glyph unicode="&#x43b;" horiz-adv-x="899" d="M-22.5 12.5q-0.5 12.5 10.5 12.5q37 0 79 52t103 193l238 551q4 8 12 8t12 -8l254 -540q53 -117 82 -167.5t57.5 -69.5t75.5 -19q10 0 10 -12.5t-10 -12.5q-37 0 -115 4q-82 4 -118 4q-33 0 -107 -4q-70 -4 -98 -4q-8 0 -8 12.5t8 12.5q45 0 65.5 11t20.5 34 q0 16 -11.5 43.5t-25.5 58.5l-172 367l-123 -287q-37 -86 -37 -139q0 -88 99 -88q10 0 10 -12.5t-10 -12.5q-23 0 -64 4t-78 4q-43 0 -84 -4q-37 -4 -65 -4q-10 0 -10.5 12.5z" />
<glyph unicode="&#x43c;" horiz-adv-x="1161" d="M18.5 12.5q-0.5 12.5 6.5 12.5q63 0 96 47t39 141l43 584q0 6 12 11t27 5q20 0 26 -10l344 -580l279 580q4 6 18 6q12 0 25.5 -5t13.5 -9l74 -629q8 -68 16.5 -94.5t28.5 -36.5t68 -10q6 0 6 -12.5t-6 -12.5q-59 0 -93 2l-112 2l-109 -2q-27 -2 -76 -2q-6 0 -6 12.5 t6 12.5q49 0 70 15t21 66q0 10 -5 52l-40 338l-238 -496q-2 -8 -14 -8q-14 0 -17 8l-297 504l-22 -291q-12 -188 139 -188q6 0 6 -12.5t-6 -12.5q-47 0 -74 2l-88 2l-86 -2q-25 -2 -69 -2q-6 0 -6.5 12.5z" />
<glyph unicode="&#x43d;" horiz-adv-x="1083" d="M49 662.5q-4 11.5 2 13.5l275 131q4 2 10 2q10 0 21.5 -9t11.5 -18v-362h360v112q0 133 -63 134q-23 0 -54 -15h-2q-6 0 -10 11.5t2 13.5l275 131q4 2 10 2q10 0 21.5 -9t11.5 -18v-616q0 -61 8 -91t30.5 -40t71.5 -10q4 0 4 -12.5t-4 -12.5q-57 0 -88 2l-115 2l-120 -2 q-33 -2 -91 -2q-6 0 -6 12.5t6 12.5q49 0 73 10t32 39.5t8 91.5v205h-360v-205q0 -61 8 -91t30.5 -40t71.5 -10q4 0 4 -12.5t-4 -12.5q-57 0 -88 2l-115 2l-118 -2q-33 -2 -92 -2q-6 0 -6.5 12.5t6.5 12.5q49 0 72.5 10t31.5 39.5t8 91.5v366q0 133 -63 134q-23 0 -54 -15 h-2q-6 0 -10 11.5z" />
<glyph unicode="&#x43e;" horiz-adv-x="1001" d="M66 406q0 133 67.5 226t172 139t214.5 46q127 0 221.5 -59.5t144.5 -156.5t50 -208q0 -123 -61.5 -218t-165 -148.5t-224.5 -53.5q-127 0 -222 58.5t-146 158t-51 216.5zM287 481q0 -137 34.5 -242.5t94 -164t131.5 -58.5q80 0 122 79t42 227q0 143 -37 245.5 t-96.5 154.5t-126.5 52q-164 0 -164 -293z" />
<glyph unicode="&#x43f;" horiz-adv-x="1077" d="M13.5 655.5q-3.5 10.5 0.5 12.5l285 139q12 4 14 4q23 0 43.5 -44t24.5 -120q141 168 311 168q111 0 175.5 -70.5t64.5 -185.5v-393q0 -82 23.5 -111.5t86.5 -29.5q7 0 7 -12.5t-7 -12.5q-53 0 -84 2l-122 2l-119 -2q-33 -2 -86 -2q-6 0 -6 12.5t6 12.5q63 0 85.5 29.5 t22.5 111.5v295q0 111 -40 164t-126 53q-49 0 -101 -20.5t-91 -55.5v-436q0 -82 23.5 -111.5t87.5 -29.5q6 0 6 -12.5t-6 -12.5q-53 0 -84 2l-123 2l-121 -2q-31 -2 -84 -2q-6 0 -6 12.5t6 12.5q63 0 85.5 29.5t22.5 111.5v385q0 63 -15 93t-48 30q-35 0 -98 -29h-4 q-6 0 -9.5 10.5z" />
<glyph unicode="&#x440;" horiz-adv-x="1050" d="M-8 668l291 141q4 2 10 2q20 0 37.5 -35t23.5 -94q150 135 308 135q86 0 160.5 -45t119.5 -131t45 -201q0 -164 -67.5 -269t-171 -151.5t-213.5 -46.5q-101 0 -177 23v-393q0 -61 13.5 -90t51.5 -40.5t118 -11.5q6 0 6 -12t-6 -12q-76 0 -119 2l-162 2l-121 -2 q-31 -2 -86 -2q-6 0 -6 12t6 12q49 0 73 11.5t33 40t9 90.5v948q0 66 -14.5 94.5t-51.5 28.5q-33 0 -94 -29h-4q-6 0 -11 10.5t-1 12.5zM358 127q45 -51 94.5 -76.5t120.5 -25.5q207 0 207 352q0 156 -72.5 240.5t-181.5 84.5q-92 1 -168 -65v-16v-494z" />
<glyph unicode="&#x441;" horiz-adv-x="870" d="M66 381q0 129 71.5 226.5t183 149.5t228.5 52q98 0 177 -41t79 -113q0 -39 -30 -66.5t-83 -27.5q-49 0 -77.5 25.5t-47.5 79.5q-18 57 -35.5 78.5t-62.5 21.5q-88 0 -140.5 -87t-52.5 -230q0 -170 76 -271.5t242 -101.5q55 0 95 12t102 41h2q6 0 11 -6t1 -10 q-76 -70 -151.5 -104t-174.5 -34q-135 0 -228 58.5t-139 152t-46 195.5z" />
<glyph unicode="&#x442;" horiz-adv-x="1591" d="M13.5 655.5q-3.5 10.5 0.5 12.5l285 139q12 4 14 4q23 0 43.5 -44t24.5 -118q139 166 299 166q96 0 153.5 -47t69.5 -135q141 182 314 182q111 0 169 -63.5t58 -192.5v-393q0 -82 23.5 -111.5t86.5 -29.5q9 0 9 -12.5t-9 -12.5q-53 0 -84 2l-122 2l-119 -2q-33 -2 -86 -2 q-6 0 -6 12.5t6 12.5q63 0 86.5 29.5t23.5 111.5v295q0 111 -37.5 164t-115.5 53q-53 0 -104.5 -22.5t-88.5 -61.5v-12v-416q0 -82 23.5 -111.5t87.5 -29.5q8 0 8 -12.5t-8 -12.5q-53 0 -84 2l-123 2l-119 -2q-33 -2 -86 -2q-6 0 -6 12.5t6 12.5q63 0 87 29.5t24 111.5v295 q0 111 -38 164t-116 53q-49 0 -97 -19.5t-85 -54.5v-438q0 -82 23.5 -111.5t87.5 -29.5q6 0 6 -12.5t-6 -12.5q-53 0 -84 2l-123 2l-121 -2q-31 -2 -84 -2q-6 0 -6 12.5t6 12.5q63 0 85.5 29.5t22.5 111.5v385q0 63 -15 93t-48 30q-35 0 -98 -29h-4q-6 0 -9.5 10.5z" />
<glyph unicode="&#x443;" horiz-adv-x="874" d="M-80 -475q0 47 28.5 71.5t69.5 24.5q23 0 38.5 -6t37.5 -21q39 -27 74 -26q47 0 85 36t79 118.5t98 236.5l-328 662q-45 88 -70.5 116.5t-62.5 28.5q-6 0 -6 12.5t6 12.5q57 0 88 -3l86 -2l142 2q33 2 88 3q6 0 6 -12.5t-6 -12.5q-53 0 -78 -9t-25 -30q0 -16 13 -41 l241 -493l123 356q18 53 19 96q0 57 -33 89t-94 32q-4 0 -4 12.5t4 12.5q55 0 84 -3l122 -2l82 2q25 2 76 3q4 0 4 -12.5t-4 -12.5q-66 0 -114 -56.5t-87 -162.5l-227 -604q-109 -287 -208 -402.5t-220 -115.5q-61 0 -94 25.5t-33 74.5z" />
<glyph unicode="&#x444;" horiz-adv-x="1368" d="M66 383q0 139 55 237.5t136 147.5t157 49q92 0 176 -72v461q0 72 -13.5 102.5t-48.5 30.5q-27 0 -75 -22h-2q-8 0 -12.5 11t-0.5 13l295 142q4 2 10 2q10 0 22.5 -9.5t12.5 -17.5v-741q117 100 236 100q80 0 145.5 -48t104.5 -141t39 -220q0 -139 -55.5 -237.5 t-136.5 -148t-159 -49.5q-90 0 -174 72v-442q0 -61 12.5 -90t47 -40.5t108.5 -11.5q4 0 4 -12t-4 -12q-68 0 -108 2l-152 2l-164 -2q-41 -2 -114 -2q-6 0 -6.5 12t6.5 12q80 0 117.5 11.5t51 40t13.5 90.5v471q-117 -100 -236 -101q-80 0 -145.5 48.5t-104 141.5t-38.5 220z M291 422q0 -184 37 -281.5t100 -97.5q78 0 162 76v555q-37 47 -78 72.5t-76 25.5q-70 0 -107.5 -94t-37.5 -256zM778 117q37 -47 78 -73t76 -26q69 0 107 94.5t38 256.5q0 184 -36.5 281.5t-102.5 97.5q-78 0 -160 -74v-557z" />
<glyph unicode="&#x445;" horiz-adv-x="901" d="M2 12.5q0 12.5 6 12.5q63 0 135 51t136 139l94 129l-185 277q-96 145 -159 145q-4 0 -4 12.5t4 12.5q43 0 63 -3l64 -2l143 2q33 2 92 3q4 0 4 -12.5t-4 -12.5q-45 0 -45 -31q0 -20 21 -49l118 -180l58 84q49 72 49 115q0 61 -92 61q-4 0 -4 12.5t4 12.5q55 0 84 -3 l123 -2l84 2q23 2 73 3q6 0 6 -12.5t-6 -12.5q-63 0 -135 -51t-135 -140l-82 -108l197 -297q49 -74 97 -109.5t87 -35.5q6 0 6 -12.5t-6 -12.5l-74 2q-27 2 -76 2l-145 -2q-33 -2 -90 -2q-6 0 -6 12.5t6 12.5q45 0 45 28q0 23 -21 51l-133 201l-71 -104q-47 -68 -47 -115 q0 -61 90 -61q6 0 6 -12.5t-6 -12.5q-55 0 -82 2l-123 2l-84 -2q-23 -2 -74 -2q-6 0 -6 12.5z" />
<glyph unicode="&#x446;" horiz-adv-x="1036" d="M22.5 662.5q-4.5 11.5 2.5 13.5l274 131l10 2q10 0 21.5 -9t11.5 -18v-452q0 -221 170 -221q45 0 91 19t83 54v350q0 133 -63 134q-23 0 -54 -15h-2q-6 0 -10 11.5t2 13.5l275 131q4 2 10 2q10 0 21.5 -9t11.5 -18v-544q0 -115 28.5 -164t91.5 -49q17 0 20 -3.5t3 -21.5 q0 -31 -6 -74q-12 -98 -13 -213q0 -10 -12 -10t-12 10q0 139 -66.5 213t-195.5 74q-18 0 -23.5 26.5t-5.5 108.5q-133 -160 -293 -160q-113 0 -177 71t-64 185v301q0 133 -64 134q-23 0 -51 -15h-2q-8 0 -12.5 11.5z" />
<glyph unicode="&#x447;" horiz-adv-x="917" d="M-18.5 662.5q-4.5 11.5 2.5 13.5l274 131l10 2q10 0 21.5 -9t11.5 -18v-241q0 -98 27.5 -144.5t85.5 -46.5q70 0 149 43v139q0 133 -63 134q-23 0 -51 -15h-3q-8 0 -12 11.5t2 13.5l275 131l10 2q10 0 21.5 -9t11.5 -18v-616q0 -61 8 -91t31.5 -40t70.5 -10q6 0 6 -12.5 t-6 -12.5q-57 0 -88 2l-114 2l-121 -2q-33 -2 -90 -2q-6 0 -6.5 12.5t6.5 12.5q49 0 72.5 10t31.5 39.5t8 91.5v178q-117 -94 -244 -94q-96 0 -152 57.5t-56 175.5q0 86 -13.5 134.5t-50.5 48.5q-23 0 -51 -15h-2q-8 0 -12.5 11.5z" />
<glyph unicode="&#x448;" horiz-adv-x="1583" d="M22.5 662.5q-4.5 11.5 2.5 13.5l274 131l10 2q10 0 21.5 -9t11.5 -18v-452q0 -111 38 -164t116 -53q53 0 104 22.5t88 61.5v12v323q0 133 -63 134q-23 0 -52 -15h-2q-8 0 -12 11.5t2 13.5l275 131l10 2q10 0 21.5 -9t11.5 -18v-452q0 -111 37.5 -164t115.5 -53 q49 0 97.5 19.5t84.5 53.5v346q0 68 -14 101t-47 33q-25 0 -53 -15h-2q-8 0 -12.5 11.5t1.5 13.5l275 131l10 2q10 0 22.5 -9t12.5 -18v-542q0 -63 15.5 -93t47.5 -30q35 0 99 28h4q6 0 9 -10t-1 -12l-285 -139q-4 -2 -7 -4.5t-7 -2.5q-23 0 -43 45.5t-25 118.5 q-139 -166 -299 -166q-96 0 -153 47.5t-70 135.5q-145 -182 -313 -183q-111 0 -169 63.5t-58 192.5v301q0 133 -64 134q-23 0 -51 -15h-2q-8 0 -12.5 11.5z" />
<glyph unicode="&#x449;" horiz-adv-x="1591" d="M22.5 662.5q-4.5 11.5 2.5 13.5l274 131l10 2q10 0 21.5 -9t11.5 -18v-452q0 -111 38 -164t116 -53q53 0 104 22.5t88 61.5v12v323q0 133 -63 134q-23 0 -52 -15h-2q-8 0 -12 11.5t2 13.5l275 131l10 2q10 0 21.5 -9t11.5 -18v-452q0 -111 37.5 -164t115.5 -53 q49 0 97.5 19.5t84.5 53.5v346q0 68 -14 101t-47 33q-25 0 -53 -15h-2q-8 0 -12.5 11.5t1.5 13.5l275 131l10 2q10 0 22.5 -9t12.5 -18v-542q0 -117 27.5 -166t91.5 -49q18 0 21 -3.5t3 -21.5q0 -31 -6 -74q-14 -115 -14 -213q0 -10 -11.5 -10t-11.5 10q0 139 -67.5 213 t-196.5 74q-18 0 -23.5 28.5t-5.5 112.5q-139 -166 -299 -166q-96 0 -153 47.5t-70 135.5q-145 -182 -313 -183q-111 0 -169 63.5t-58 192.5v301q0 133 -64 134q-23 0 -51 -15h-2q-8 0 -12.5 11.5z" />
<glyph unicode="&#x44a;" horiz-adv-x="1005" d="M31 829q0 10 12 10.5t12 -10.5q0 -29 55.5 -36t174.5 -7l237 5q4 0 4 -12.5t-4 -12.5q-25 0 -32 -28.5t-7 -116.5v-170q76 18 166 18q160 0 238 -57.5t78 -173.5q0 -123 -87 -194t-272 -71q-313 0 -313 205v447q0 72 -14.5 95t-57.5 23q-45 0 -94 -49t-70 -147 q-2 -6 -13 -6t-11 6zM483 238q0 -113 38 -173.5t112 -60.5q127 0 127 193q0 227 -185 227q-43 0 -92 -12v-174z" />
<glyph unicode="&#x44b;" horiz-adv-x="1386" d="M22.5 662.5q-4.5 11.5 2.5 13.5l274 131l10 2q10 0 21.5 -9t11.5 -18v-331q76 18 166 18q160 0 237.5 -57.5t77.5 -173.5q0 -123 -87 -194t-271 -71q-313 0 -313 205v354q0 133 -64 134q-23 0 -51 -15h-2q-8 0 -12.5 11.5zM342 238q0 -113 38 -173.5t112 -60.5 q126 0 126 193q0 227 -184 227q-43 0 -92 -12v-174zM866.5 652.5q-4.5 11.5 1.5 13.5l310 143l6 2q10 0 20 -10t10 -19v-45q-4 -82 -4 -200v-371q0 -82 23.5 -111.5t87.5 -29.5q6 0 6 -12.5t-6 -12.5q-53 0 -84 2l-123 2l-121 -2q-31 -2 -84 -2q-6 0 -6 12.5t6 12.5 q63 0 86 29.5t23 111.5v366q0 70 -14.5 101t-47.5 31q-27 0 -75 -23h-2q-8 0 -12.5 11.5z" />
<glyph unicode="&#x44c;" horiz-adv-x="864" d="M22.5 662.5q-4.5 11.5 2.5 13.5l274 131l10 2q10 0 21.5 -9t11.5 -18v-331q76 18 166 18q160 0 237.5 -57.5t77.5 -173.5q0 -123 -87 -194t-271 -71q-313 0 -313 205v354q0 133 -64 134q-23 0 -51 -15h-2q-8 0 -12.5 11.5zM342 238q0 -113 38 -173.5t112 -60.5 q126 0 126 193q0 227 -184 227q-43 0 -92 -12v-174z" />
<glyph unicode="&#x44d;" horiz-adv-x="933" d="M98 555l56 303q0 2 8 2q18 0 16 -8q-4 -16 -4 -23q0 -18 10.5 -27t24.5 -9q12 0 61 8q10 2 56.5 9t99.5 7q156 0 255 -63.5t144 -158.5t45 -194q0 -119 -65.5 -216t-178 -153.5t-243.5 -56.5q-66 0 -130.5 15.5t-102.5 42.5q-14 8 -18.5 14t-6.5 23l-23 182q0 6 11.5 7 t13.5 -5q59 -115 137 -175.5t158 -60.5q102 0 166.5 93.5t66.5 257.5q-219 -4 -370 -21q-14 -2 -15 43q0 23 4.5 40.5t12.5 14.5q121 -20 366 -24q-8 152 -72.5 252t-179.5 100q-74 0 -146.5 -51t-131.5 -172q-4 -4 -10 -4t-11.5 3t-3.5 5z" />
<glyph unicode="&#x44e;" horiz-adv-x="1417" d="M2 1341l299 142l10 2q10 0 21.5 -9.5t11.5 -17.5v-1038h184q4 129 70 219t163 134t200 44q120 0 209.5 -59.5t136.5 -156.5t47 -208q0 -123 -58.5 -218t-156 -148.5t-211.5 -53.5q-115 0 -203 53.5t-138 144.5t-59 200h-184v-205q0 -82 23.5 -111.5t87.5 -29.5 q8 0 8 -12.5t-8 -12.5q-53 0 -86 2l-119 2l-123 -2q-31 -2 -84 -2q-4 0 -4 12.5t4 12.5q63 0 87 29.5t24 111.5v1040q0 72 -13.5 102.5t-46.5 30.5q-29 0 -78 -22h-2q-6 0 -11 11t-1 13zM739 494q0 -152 37 -260.5t94.5 -163t120.5 -54.5q150 0 150 293q0 160 -39 264.5 t-98.5 151.5t-118.5 47q-145 0 -146 -278z" />
<glyph unicode="&#x44f;" horiz-adv-x="886" d="M-16 12.5q0 12.5 4 12.5q57 -2 90 37.5t54.5 86t27.5 58.5q41 86 99 128t151 54q-150 12 -214.5 62.5t-64.5 132.5q0 98 88 155.5t236 57.5q25 0 90 -4q53 -6 100 -7l100 2q27 2 74 3q6 0 6 -12.5t-6 -12.5q-37 0 -54 -11.5t-24.5 -40t-7.5 -89.5v-459q0 -88 17.5 -114.5 t70.5 -26.5q6 0 6 -12.5t-6 -12.5q-47 0 -73 2l-103 2l-113 -2q-27 -2 -77 -2q-4 0 -4 12.5t4 12.5q41 0 58 10t22.5 38.5t5.5 92.5v217q-57 -12 -104.5 -61.5t-94.5 -155.5q-27 -61 -47.5 -102t-33.5 -52.5t-34 -11.5h-239q-4 0 -4 12.5zM330 631q0 -96 44 -156.5 t126 -60.5q27 0 41 2v205q0 66 -7.5 96.5t-24.5 42.5t-56 12q-61 0 -92 -37t-31 -104z" />
<glyph unicode="&#x450;" horiz-adv-x="856" d="M66 371q0 119 61 220t167.5 159.5t237.5 58.5q127 0 195 -54.5t68 -148.5q0 -59 -23 -59h-125l-368 -4q-6 -39 -7 -86q0 -176 83 -278.5t229 -102.5q51 0 106 14t101 43l4 2q4 0 9 -8t1 -12q-76 -74 -154 -107t-170 -33q-129 0 -223 54.5t-143 145.5t-49 196zM246 1489 q-2 8 28 8q45 0 108.5 -11t66.5 -20l65 -491q0 -4 -9 -7t-11 3zM285 584l290 6q-6 178 -118 178q-62 0 -107 -49t-65 -135z" />
<glyph unicode="&#x451;" horiz-adv-x="856" d="M66 371q0 119 61 220t167.5 159.5t237.5 58.5q127 0 195 -54.5t68 -148.5q0 -59 -23 -59h-125l-368 -4q-6 -39 -7 -86q0 -176 83 -278.5t229 -102.5q51 0 106 14t101 43l4 2q4 0 9 -8t1 -12q-76 -74 -154 -107t-170 -33q-129 0 -223 54.5t-143 145.5t-49 196zM193 1063 q0 49 30.5 77.5t81.5 28.5t79 -28.5t28 -77.5q0 -53 -28 -83t-79 -30q-53 0 -82.5 30t-29.5 83zM285 584l290 6q-6 178 -118 178q-62 0 -107 -49t-65 -135zM551 1063q0 49 29.5 76.5t81.5 27.5q51 0 78.5 -27.5t27.5 -76.5q0 -53 -27.5 -83t-78.5 -30q-54 0 -82.5 30 t-28.5 83z" />
<glyph unicode="&#x452;" horiz-adv-x="989" d="M-4 1061q0 12 4 20.5t12 8.5h142v116q0 72 -13.5 102.5t-46.5 30.5q-29 0 -78 -22h-2q-6 0 -11 11t-1 13l305 144h4q10 0 21.5 -9.5t11.5 -17.5v-368h303q16 0 17 -29q0 -29 -17 -29h-303v-362q152 141 297 141q143 0 213 -118t70 -298q0 -170 -59.5 -351t-155 -339 t-199.5 -268l-4 -2q-4 0 -9 7t-3 11q113 139 172 360.5t59 477.5q0 186 -41 282.5t-147 96.5q-88 0 -193 -62v-442q0 -82 23.5 -111.5t87.5 -29.5q8 0 8 -12.5t-8 -12.5q-53 0 -86 2l-119 2l-123 -2q-31 -2 -84 -2q-4 0 -4 12.5t4 12.5q63 0 87 29.5t24 111.5v866h-142 q-8 0 -12 8.5t-4 20.5z" />
<glyph unicode="&#x453;" horiz-adv-x="765" d="M59.5 12.5q-0.5 12.5 6.5 12.5q49 0 72.5 10t31.5 39.5t8 91.5v459q0 61 -8 90.5t-31.5 40t-70.5 10.5q-6 0 -6.5 12.5t6.5 12.5h628q15 0 17 -3.5t2 -15.5q-10 -205 -10 -248q0 -4 -11.5 -4t-13.5 4q-39 119 -99.5 174.5t-129.5 55.5q-47 0 -64.5 -30t-17.5 -103v-455 q0 -61 8 -91t30.5 -40t71.5 -10q4 0 4 -12.5t-4 -12.5q-57 0 -88 2l-115 2l-118 -2q-33 -2 -92 -2q-6 0 -6.5 12.5zM381 975l68 491q4 8 67.5 19.5t106.5 11.5q29 0 26 -8l-246 -518q0 -4 -8 -4q-6 0 -11 3t-3 5z" />
<glyph unicode="&#x454;" horiz-adv-x="870" d="M66 381q0 129 71.5 226.5t183 149.5t228.5 52q100 0 178 -42t78 -103q0 -35 -26.5 -59.5t-76.5 -24.5q-49 0 -72.5 23.5t-41.5 70.5q-23 45 -46.5 68.5t-72.5 23.5q-88 0 -140.5 -87t-52.5 -230v-25q203 4 328 16q14 0 14 -43q0 -23 -4 -40t-12 -15q-135 23 -321 27 q16 -135 92 -214t221 -79q55 0 95 12t102 41h2q6 0 11 -6t1 -10q-76 -70 -151.5 -104t-174.5 -34q-135 0 -228 58.5t-139 152t-46 195.5z" />
<glyph unicode="&#x455;" horiz-adv-x="690" d="M86 260q0 6 11.5 7t13.5 -3q33 -102 108.5 -174t153.5 -72q43 0 68.5 27t25.5 78q0 76 -43 120t-127 91q-72 39 -108.5 63.5t-65.5 69.5t-29 111q0 121 86 177t211 56q47 0 85 -6t85 -25q18 -6 19 -22q0 -51 -2 -80l-3 -103q0 -6 -12 -6t-12 6q0 39 -33 85.5t-85 79 t-107 32.5q-84 0 -84 -80q0 -59 42 -102t122 -90q78 -45 115.5 -71t68.5 -72t31 -111q0 -70 -35 -131.5t-104.5 -99.5t-166.5 -38q-113 0 -213 56q-12 12 -12 24z" />
<glyph unicode="&#x456;" horiz-adv-x="538" d="M37 652.5q-4 11.5 2 13.5l309 143l6 2q10 0 20.5 -10t10.5 -19v-45q-4 -82 -4 -200v-371q0 -82 23.5 -111.5t87.5 -29.5q6 0 6 -12.5t-6 -12.5q-53 0 -84 2l-123 2l-121 -2q-31 -2 -84 -2q-6 0 -6 12.5t6 12.5q63 0 85.5 29.5t22.5 111.5v366q0 70 -14 101t-47 31 q-27 0 -76 -23h-2q-8 0 -12 11.5zM152 1139q0 53 33.5 84.5t90.5 31.5t88 -30.5t31 -85.5q0 -59 -30.5 -92t-88.5 -33q-59 0 -91.5 32.5t-32.5 92.5z" />
<glyph unicode="&#x457;" horiz-adv-x="538" d="M8 1063q0 49 31 77.5t82 28.5t79.5 -28.5t28.5 -77.5q0 -53 -28.5 -83t-79.5 -30q-53 0 -83 30t-30 83zM37 652.5q-4 11.5 2 13.5l309 143l6 2q10 0 20.5 -10t10.5 -19v-45q-4 -82 -4 -200v-371q0 -82 23.5 -111.5t87.5 -29.5q6 0 6 -12.5t-6 -12.5q-53 0 -84 2l-123 2 l-121 -2q-31 -2 -84 -2q-6 0 -6 12.5t6 12.5q63 0 85.5 29.5t22.5 111.5v366q0 70 -14 101t-47 31q-27 0 -76 -23h-2q-8 0 -12 11.5zM324 1063q0 49 28.5 76.5t79.5 27.5t79 -27.5t28 -76.5q0 -53 -28 -83t-79 -30t-79.5 30t-28.5 83z" />
<glyph unicode="&#x458;" horiz-adv-x="538" d="M7 -568.5q-5 11.5 1 13.5q98 43 139 137t41 273v677q0 70 -13 101t-46 31q-27 0 -76 -23h-2q-8 0 -13 11.5t1 13.5l309 143l6 2q10 0 20.5 -10t10.5 -19v-45q-4 -82 -4 -200v-635q0 -139 -34 -228.5t-112.5 -149t-218.5 -102.5q-4 -2 -9 9.5zM147 1139q0 53 34 84.5 t91 31.5t88 -30.5t31 -85.5q0 -59 -30.5 -92t-88.5 -33q-59 0 -92 32.5t-33 92.5z" />
<glyph unicode="&#x459;" horiz-adv-x="1316" d="M4 76q0 47 26.5 67.5t65.5 20.5q16 0 37 -5t31 -5q57 0 98 79.5t63.5 194.5t22.5 213q0 76 -30.5 103.5t-106.5 27.5q-6 0 -6 11.5t6 11.5l330 -4h364q6 0 6 -12.5t-6 -12.5q-47 0 -70.5 -12.5t-31.5 -42t-8 -90.5v-170q76 18 166 18q315 0 315 -213q0 -117 -89 -188.5 t-231 -71.5l-112 4q-98 4 -142 4l-118 -2q-33 -2 -92 -2q-6 0 -6.5 12.5t6.5 12.5q49 0 72.5 10t31.5 39.5t8 91.5v459q0 70 -3 92t-14.5 28.5t-43.5 6.5h-25q-57 0 -78.5 -8.5t-26.5 -28t-14 -84.5l-6 -74q-14 -158 -35.5 -275.5t-81 -208.5t-163.5 -91q-53 0 -81 24.5 t-28 69.5zM795 166q0 -74 24.5 -106.5t93.5 -32.5q82 0 120 45t38 139q0 213 -184 213q-39 0 -92 -12v-246z" />
<glyph unicode="&#x45a;" horiz-adv-x="1441" d="M59.5 12.5q-0.5 12.5 6.5 12.5q49 0 72.5 10t31.5 39.5t8 91.5v459q0 61 -8 90.5t-31.5 40t-70.5 10.5q-6 0 -6.5 12.5t6.5 12.5q57 0 88 -3l120 -2l115 2q33 2 88 3q4 0 4 -12.5t-4 -12.5q-47 0 -70.5 -12.5t-31.5 -42t-8 -90.5v-201h360v205q0 61 -8 90.5t-31.5 40 t-71.5 10.5q-6 0 -6 12.5t6 12.5q57 0 89 -3l120 -2l115 2q33 2 88 3q4 0 4 -12.5t-4 -12.5q-47 0 -70.5 -12.5t-31.5 -42t-8 -90.5v-191q123 16 190 16q143 0 217 -49t74 -147q0 -113 -90 -183.5t-232 -70.5l-110 4q-98 4 -142 4l-118 -2q-33 -2 -93 -2q-6 0 -6 12.5 t6 12.5q49 0 73 10t32 39.5t8 91.5v205h-360v-205q0 -61 8 -91t30.5 -40t71.5 -10q4 0 4 -12.5t-4 -12.5q-57 0 -88 2l-115 2l-118 -2q-33 -2 -92 -2q-6 0 -6.5 12.5zM920 166q0 -74 24.5 -106.5t91.5 -32.5q82 0 121 44t39 136q0 193 -170 192q-45 0 -106 -10v-223z" />
<glyph unicode="&#x45b;" horiz-adv-x="1042" d="M-4 1061q0 12 4 20.5t12 8.5h142v116q0 72 -13.5 102.5t-46.5 30.5q-29 0 -78 -22h-2q-6 0 -11 11t-1 13l299 142l10 2q10 0 21.5 -9.5t11.5 -17.5v-368h303q16 0 17 -29q0 -29 -17 -29h-303v-385q145 168 311 168q111 0 175.5 -70.5t64.5 -185.5v-393q0 -82 23.5 -111.5 t87.5 -29.5q8 0 8 -12.5t-8 -12.5q-53 0 -86 2l-119 2l-123 -2q-31 -2 -84 -2q-4 0 -4 12.5t4 12.5q63 0 87 29.5t24 111.5v295q0 111 -41 164t-127 53q-49 0 -101.5 -20.5t-91.5 -55.5v-436q0 -82 23.5 -111.5t87.5 -29.5q8 0 8 -12.5t-8 -12.5q-53 0 -86 2l-119 2l-123 -2 q-31 -2 -84 -2q-4 0 -4 12.5t4 12.5q63 0 87 29.5t24 111.5v866h-142q-8 0 -12 8.5t-4 20.5z" />
<glyph unicode="&#x45c;" horiz-adv-x="976" d="M35 12.5q0 12.5 6 12.5q49 0 72.5 10t32 39.5t8.5 91.5v459q0 61 -8.5 90.5t-31 40t-71.5 10.5q-4 0 -4 12.5t4 12.5q57 0 88 -3l121 -2l131 2q35 2 96 3q4 0 4 -12.5t-4 -12.5q-59 0 -86.5 -10.5t-38 -41t-10.5 -93.5v-193l98 4q41 0 93 111q78 158 136 213t126 55 q59 0 88.5 -27.5t29.5 -72.5q0 -47 -26.5 -76t-77.5 -29q-31 0 -63 17q-33 16 -60 16q-33 0 -54.5 -21.5t-55.5 -91.5q-29 -59 -62 -96q59 -4 96 -23.5t68 -55.5t82 -113q37 -61 45 -72q47 -80 79 -109.5t93 -31.5q6 0 6 -12.5t-6 -12.5h-244q-20 0 -36.5 10t-47 51 t-86.5 136q-53 88 -82.5 126.5t-59.5 54t-75 15.5h-4v-227q0 -61 8 -91t32 -40t71 -10q6 0 6 -12.5t-6 -12.5q-57 0 -88 2l-115 2l-119 -2q-33 -2 -92 -2q-6 0 -6 12.5zM465 975l67 491q4 8 68 19.5t107 11.5q29 0 26 -8l-246 -518q0 -4 -8 -4q-6 0 -11 3t-3 5z" />
<glyph unicode="&#x45d;" horiz-adv-x="1095" d="M59.5 12.5q-0.5 12.5 6.5 12.5q49 0 72.5 10t31.5 39.5t8 91.5v459q0 61 -8 90.5t-31.5 40t-70.5 10.5q-6 0 -6.5 12.5t6.5 12.5q57 0 88 -3l120 -2l115 2q33 2 88 3q4 0 4 -12.5t-4 -12.5q-47 0 -70.5 -12.5t-31.5 -42t-8 -90.5v-369l360 360v13q0 61 -8 90.5t-31.5 40 t-71.5 10.5q-6 0 -6 12.5t6 12.5q57 0 89 -3l120 -2l115 2q33 2 88 3q4 0 4 -12.5t-4 -12.5q-47 0 -70.5 -12.5t-31.5 -42t-8 -90.5v-455q0 -61 8 -91t30.5 -40t71.5 -10q4 0 4 -12.5t-4 -12.5q-57 0 -88 2l-115 2l-120 -2q-33 -2 -91 -2q-6 0 -6 12.5t6 12.5q49 0 73 10 t32 39.5t8 91.5v375l-360 -363v-12q0 -61 8 -91t30.5 -40t71.5 -10q4 0 4 -12.5t-4 -12.5q-57 0 -88 2l-115 2l-118 -2q-33 -2 -92 -2q-6 0 -6.5 12.5zM313 1489q-2 8 29 8q45 0 108.5 -11t65.5 -20l66 -491q0 -4 -9.5 -7t-11.5 3z" />
<glyph unicode="&#x45e;" horiz-adv-x="874" d="M-80 -475q0 47 28.5 71.5t69.5 24.5q23 0 38.5 -6t37.5 -21q39 -27 74 -26q47 0 85 36t79 118.5t98 236.5l-328 662q-45 88 -70.5 116.5t-62.5 28.5q-6 0 -6 12.5t6 12.5q57 0 88 -3l86 -2l142 2q33 2 88 3q6 0 6 -12.5t-6 -12.5q-53 0 -78 -9t-25 -30q0 -16 13 -41 l241 -493l123 356q18 53 19 96q0 57 -33 89t-94 32q-4 0 -4 12.5t4 12.5q55 0 84 -3l122 -2l82 2q25 2 76 3q4 0 4 -12.5t-4 -12.5q-66 0 -114 -56.5t-87 -162.5l-227 -604q-109 -287 -208 -402.5t-220 -115.5q-61 0 -94 25.5t-33 74.5zM150 1153q0 37 22.5 58.5t65.5 21.5 q39 0 58 -17.5t27.5 -41t16.5 -68.5q8 -53 29.5 -83t83.5 -30q61 0 87.5 32t34.5 89q12 61 30 90t67 29q41 0 63.5 -21.5t22.5 -58.5q0 -51 -43 -96t-113 -70.5t-147 -25.5q-80 0 -151 26.5t-112.5 70.5t-41.5 95z" />
<glyph unicode="&#x45f;" horiz-adv-x="1087" d="M59.5 12.5q-0.5 12.5 6.5 12.5q47 0 69.5 12t30.5 42t8 91v455q0 61 -8 90.5t-30.5 40t-69.5 10.5q-6 0 -6.5 12.5t6.5 12.5q57 0 88 -3l114 -2l109 2q29 2 78 3q6 0 6 -12.5t-6 -12.5q-39 0 -56.5 -10.5t-24.5 -40t-7 -90.5v-459q0 -63 3 -84t13 -26t43 -5h229 q35 0 46.5 6t14.5 26.5t3 86.5v455q0 61 -6 90.5t-23.5 40t-56.5 10.5q-6 0 -6 12.5t6 12.5q49 0 78 -3l100 -2l119 2q33 2 92 3q6 0 6 -12.5t-6 -12.5q-49 0 -72.5 -10.5t-32 -40t-8.5 -90.5v-459q0 -86 21.5 -113.5t89.5 -27.5q6 0 6 -12.5t-6 -12.5h-289 q-100 0 -140 -63.5t-40 -223.5q0 -10 -12.5 -10t-12.5 10q0 160 -37.5 223.5t-134.5 63.5h-288q-6 0 -6.5 12.5z" />
<glyph unicode="&#x462;" horiz-adv-x="1445" d="M57 918q8 61 18.5 199t10.5 208q0 10 12.5 10t12.5 -10q0 -45 114 -45l236 -6v45q0 61 -11.5 91t-41 40t-95.5 10q-4 0 -4 12.5t4 12.5q68 0 107 -2l145 -2l180 2q41 2 113 2q4 0 4 -12.5t-4 -12.5q-74 0 -108.5 -12t-48 -42t-13.5 -91v-39q94 4 225 4q78 0 114 10t46 41 q2 8 13.5 8t11.5 -8q-6 -61 -13.5 -196.5t-7.5 -216.5q0 -6 -10 -6.5t-12 6.5q-25 129 -64 196.5t-98 93t-158 25.5h-47v-522q84 12 164 12q211 0 349 -86t138 -252q0 -111 -59 -201t-164.5 -141t-238.5 -51q-55 0 -134 6q-33 2 -75.5 4t-94.5 2l-151 -2q-41 -2 -111 -2 q-4 0 -4 12.5t4 12.5q66 0 96.5 10t42 39.5t11.5 91.5v1067h-78q-211 0 -301 -318q-2 -6 -13.5 -5t-11.5 8zM688 166q0 -61 30 -92t120 -31q137 0 199.5 75t62.5 216q0 168 -85 250t-235 82q-49 0 -92 -9v-491z" />
<glyph unicode="&#x463;" horiz-adv-x="991" d="M29 774q0 12 2 15.5t14 3.5l236 -5v418q0 74 -13.5 103.5t-50.5 29.5q-27 0 -76 -22h-2q-8 0 -13 11t1 13l299 142l10 2q10 0 21.5 -9.5t11.5 -17.5v-670l162 3q33 2 80 2q14 0 16 -3.5t2 -15.5q-10 -205 -10 -250q0 -4 -11.5 -4t-13.5 4q-25 94 -81 157.5t-115 63.5h-29 v-294q76 18 166 18q315 0 315 -213q0 -117 -89 -188.5t-230 -71.5l-113 4q-98 4 -141 4l-119 -2q-33 -2 -92 -2q-6 0 -6 12.5t6 12.5q49 0 72.5 11t33 39.5t9.5 90.5v579h-25q-57 0 -112.5 -63.5t-82.5 -157.5q-2 -4 -12 -4t-10 4l-4 123q-2 23 -4 54.5t-2 72.5zM469 166 q0 -74 24.5 -106.5t94.5 -32.5q82 0 119.5 45t37.5 139q0 213 -184 213q-43 0 -92 -12v-246z" />
<glyph unicode="&#x46a;" horiz-adv-x="1824" d="M-24.5 12.5q-0.5 12.5 6.5 12.5q49 0 107 79.5t167 280.5q72 135 128 195.5t125 81t193 20.5h107l-360 344q-131 125 -212 177t-171 52q-6 0 -6.5 12.5t6.5 12.5h1695q4 0 4 -12.5t-4 -12.5q-96 0 -193.5 -56t-213.5 -173l-338 -344h108q133 0 192.5 -14.5t113 -73.5 t139.5 -209q119 -205 174 -281.5t102 -78.5q4 0 4 -12.5t-4 -12.5h-246q-23 0 -41 16.5t-62 88t-138 239.5q-80 145 -120 200.5t-85 78t-127 22.5h-4v-479q0 -63 11 -92t42 -39t101 -10q6 0 6 -12.5t-6 -12.5q-70 0 -109 2l-154 2l-151 -2q-41 -2 -111 -2q-4 0 -4 12.5 t4 12.5q68 0 99.5 10t43 39.5t11.5 91.5v479h-8q-82 0 -127 -21.5t-84 -76.5t-119 -199q-98 -174 -137 -240.5t-59.5 -87t-45.5 -20.5h-243q-6 0 -6.5 12.5zM483 1180q0 -31 84 -131l316 -367h59l303 367q76 94 76 129q0 25 -30.5 34t-98.5 9h-547q-88 0 -125 -7.5 t-37 -33.5z" />
<glyph unicode="&#x46b;" horiz-adv-x="1370" d="M-2 12.5q0 12.5 4 12.5q53 2 83 18t48.5 45t46.5 90l29 60q43 86 74.5 125.5t73.5 54t120 14.5q27 0 125 -4l-137 119q-104 90 -220 154.5t-184 64.5q-4 0 -4 12.5t4 12.5h1248q4 0 4 -12.5t-4 -12.5q-68 0 -183.5 -64.5t-220.5 -154.5l-137 -119q98 4 125 4 q78 0 120 -14.5t73.5 -54t74.5 -125.5l29 -60q29 -61 47 -90t48 -45t83 -18q4 0 4 -12.5t-4 -12.5h-244q-35 0 -70.5 35t-88.5 162q-33 80 -57.5 119.5t-53.5 56t-74 18.5v-225q0 -61 8.5 -91t31 -40t71.5 -10q6 0 6 -12.5t-6 -12.5q-57 0 -88 2l-115 2l-119 -2 q-33 -2 -92 -2q-6 0 -6 12.5t6 12.5q49 0 72.5 10t32 39.5t8.5 91.5v225q-45 -2 -74 -18.5t-53.5 -56.5t-56.5 -119q-53 -127 -89 -162t-71 -35h-244q-4 0 -4 12.5zM418 692q0 -45 100 -141l129 -125l39 -2l37 2l129 125q98 92 98 141q0 51 -114 51h-301q-117 0 -117 -51z " />
<glyph unicode="&#x472;" horiz-adv-x="1568" d="M100 639q0 211 106.5 361.5t273.5 226.5t341 76q195 0 342.5 -91.5t226 -241t78.5 -317.5q0 -186 -98 -341.5t-263 -246t-357 -90.5q-191 0 -339.5 89.5t-229.5 242t-81 332.5zM352 715q0 -199 60.5 -355.5t166 -244.5t238.5 -88q115 0 206 66.5t142.5 194.5t51.5 306 q0 188 -57.5 336.5t-166 232.5t-254.5 84q-186 0 -286.5 -140t-100.5 -392zM401 541q53 88 117 150.5t141 62.5q27 0 65 -10.5t75 -22.5q74 -23 112.5 -32t79.5 -9q58 0 92.5 20.5t65.5 59.5h2q6 0 11 -5t1 -10q-80 -127 -129 -170t-114 -43q-61 0 -162 35q-68 20 -105 29.5 t-80 9.5q-53 0 -79.5 -14t-47 -35.5t-28.5 -30.5h-2q-6 0 -11.5 5.5t-3.5 9.5z" />
<glyph unicode="&#x473;" horiz-adv-x="1001" d="M66 406q0 133 67.5 226t172 139t214.5 46q127 0 221.5 -59.5t144.5 -156.5t50 -208q0 -123 -61.5 -218t-165 -148.5t-224.5 -53.5q-127 0 -222 58.5t-146 158t-51 216.5zM287 481q0 -70 8 -119q78 131 139 132q18 0 68 -21q35 -14 59.5 -22.5t54.5 -8.5q23 0 40.5 8.5 t39.5 30.5q-27 139 -95.5 216t-149.5 77q-164 0 -164 -293zM301 324q25 -141 91.5 -224.5t154.5 -83.5q80 0 122 79t42 227q0 74 -9 122q-45 -80 -75.5 -109.5t-65.5 -29.5q-29 0 -78 23q-61 27 -102 26q-49 0 -80 -30z" />
<glyph unicode="&#x474;" horiz-adv-x="1392" d="M4 1267.5q0 12.5 6 12.5q31 0 43 -2q41 -4 107 -4q172 0 291 4q31 2 77 2q6 0 6.5 -12.5t-6.5 -12.5q-61 0 -95 -25.5t-34 -72.5q0 -35 23 -84l358 -758q59 176 70 207q123 371 178 515.5t108.5 205t137.5 60.5q76 0 107.5 -33t31.5 -80q0 -49 -32.5 -81t-75.5 -32 q-23 0 -39.5 8.5t-36.5 24.5q-4 2 -18.5 12.5t-34.5 10.5q-29 0 -53.5 -38t-62.5 -142.5t-136 -395.5l-191 -555q-2 -8 -22 -8t-23 8l-522 1108q-37 74 -74 109.5t-82 35.5q-6 0 -6 12.5z" />
<glyph unicode="&#x475;" horiz-adv-x="942" d="M-35 778.5q0 12.5 6 12.5q37 0 62 -3l137 -2l158 2q35 2 96 3q6 0 6 -12.5t-6 -12.5q-119 0 -119 -47q0 -12 10 -33l224 -422l120 320q45 121 91.5 172t111.5 51q47 0 80 -23.5t33 -72.5q0 -41 -25.5 -71t-72.5 -30q-6 0 -43 6q-29 8 -48 9q-23 0 -36 -11.5t-29 -50.5 l-236 -563q-2 -10 -20 -10t-25 10l-313 621q-43 90 -76 117.5t-80 27.5q-6 0 -6 12.5z" />
<glyph unicode="&#x48a;" horiz-adv-x="1566" d="M59.5 1267.5q-0.5 12.5 6.5 12.5l114 -2q102 -4 158 -4q82 0 184 4l101 2q6 0 6 -12.5t-6 -12.5q-76 0 -111 -11t-47 -39.5t-12 -90.5v-846l819 1026q6 6 31 6q14 0 26 -4t12 -10v-1120q0 -76 6.5 -101.5t30 -32.5t95.5 -7q26 -1 26 -21q0 -8 -49 -72.5t-147 -314.5 q-2 -6 -11 -6q-6 0 -10 4t-2 8q55 135 55 221q0 80 -51 118t-164 38h-176q-6 0 -6 12.5t6 12.5q76 0 111 10t47 38.5t12 92.5v838l-819 -1027q-6 -6 -31 -6q-39 0 -39 15v1128q0 61 -12 90t-45 40t-102 11q-6 0 -6.5 12.5zM516 1559q0 37 23.5 59t66.5 22q47 0 65.5 -27.5 t35.5 -86.5q18 -63 39.5 -93t70.5 -30q51 0 74.5 31.5t44.5 93.5q18 57 37.5 84.5t62.5 27.5t65.5 -22.5t22.5 -58.5q0 -51 -43 -95.5t-112.5 -70t-149.5 -25.5q-78 0 -147.5 26.5t-112.5 70.5t-43 94z" />
<glyph unicode="&#x48b;" horiz-adv-x="1034" d="M22.5 662.5q-4.5 11.5 2.5 13.5l274 131l10 2q10 0 21.5 -9t11.5 -18v-452q0 -221 170 -221q45 0 91 19t83 54v350q0 133 -63 134q-23 0 -54 -15h-2q-6 0 -10 11.5t2 13.5l275 131q4 2 10 2q10 0 21.5 -9t11.5 -18v-544q0 -66 20.5 -105t58.5 -39q25 0 41 17q3 2 9 2 t13 -3.5t7 -9.5q0 -23 -47 -131t-141 -284q-4 -4 -9 -4q-6 0 -10 4t-2 8q61 123 62 203q0 53 -22.5 78.5t-49.5 25.5q-53 0 -84 31.5t-35 105.5q-137 -162 -295 -162q-113 0 -177 71t-64 185v301q0 133 -64 134q-23 0 -51 -15h-2q-8 0 -12.5 11.5zM244 1153q0 37 22.5 58.5 t65.5 21.5q39 0 58.5 -17.5t27.5 -41t16 -68.5q8 -53 29.5 -83t83.5 -30q61 0 88 32t35 89q12 61 29.5 90t66.5 29q41 0 63.5 -21.5t22.5 -58.5q0 -51 -43 -96t-112.5 -70.5t-147.5 -25.5q-80 0 -150.5 26.5t-112.5 70.5t-42 95z" />
<glyph unicode="&#x48c;" horiz-adv-x="1183" d="M63 973q0 29 9 28h159v113q0 68 -10 94.5t-37.5 34.5t-97.5 12q-4 0 -4 12.5t4 12.5l102 -2q86 -4 156 -4q68 0 170 4l117 2q4 0 4 -12.5t-4 -12.5q-80 -4 -111 -12t-45 -36.5t-14 -96.5v-109h172q4 0 7 -9t3 -19t-3 -19.5t-7 -9.5h-172v-237q115 16 205 16 q217 0 331.5 -85t114.5 -251q0 -119 -59.5 -208t-165 -138t-238.5 -49q-53 0 -125 6q-27 0 -86 3t-104 3l-131 -2q-43 -2 -119 -2q-6 0 -6 12.5t6 12.5q70 4 97.5 11t38.5 34.5t11 95.5v778h-159q-8 0 -9 29zM461 166q0 -61 29.5 -92t121.5 -31q142 0 201 75t59 234 q0 164 -62 239t-214 75q-53 0 -135 -11v-489z" />
<glyph unicode="&#x48d;" horiz-adv-x="890" d="M25.5 1328q-5.5 11 1.5 13l299 142q4 2 10 2q10 0 21.5 -9.5t11.5 -17.5v-667h157q8 0 13.5 -8.5t5.5 -20.5t-5 -20.5t-14 -8.5h-157v-282q76 18 166 18q315 0 315 -213q0 -117 -89 -188.5t-233 -71.5l-110 4q-98 4 -142 4l-118 -2q-33 -2 -92 -2q-6 0 -6.5 12.5 t6.5 12.5q49 0 72.5 10t31.5 39.5t8 91.5v567h-119q-14 0 -14 29t14 29h119v415q0 72 -13 102.5t-48 30.5q-27 0 -76 -22h-2q-8 0 -13.5 11zM369 166q0 -74 24.5 -106.5t91.5 -32.5q82 0 121 44t39 140q0 213 -184 213q-43 0 -92 -12v-246z" />
<glyph unicode="&#x48e;" horiz-adv-x="1132" d="M63.5 12.5q-0.5 12.5 6.5 12.5q66 0 95.5 10t39.5 39.5t10 91.5v948q0 61 -10 90t-41 40t-94 11q-6 0 -6.5 12.5t6.5 12.5l108 -2q94 -4 150 -4q49 0 116 6q27 2 68 4t94 2q209 0 330 -87t121 -271q0 -142 -84 -237t-213 -132l121 -211v-2q0 -10 -25 -22.5t-29 -4.5 l-131 226q-39 -8 -86 -8q-55 0 -96 10q-4 0 -4 10q0 6 3 12t7 4q31 -8 70 -8q45 0 84 21l-127 217q-6 10 21.5 23.5t33.5 4.5l121 -208q86 92 86 280q0 162 -68.5 250t-199.5 88q-57 0 -78 -26.5t-21 -104.5v-936q0 -66 14.5 -95.5t54.5 -41.5t128 -12q6 0 6 -12.5t-6 -12.5 q-84 0 -131 2l-178 2l-150 -2q-41 -2 -110 -2q-6 0 -6.5 12.5z" />
<glyph unicode="&#x48f;" horiz-adv-x="1036" d="M14 778.5q0 12.5 4 12.5h281q29 0 37 -10.5t8 -37.5v-59q147 133 303 133q86 0 161 -45t120 -131t45 -201q0 -178 -79 -285.5t-204 -152.5l119 -205q4 -8 -22.5 -22.5t-32.5 -5.5l-125 217q-55 -12 -109 -13q-100 0 -176 23v-393q0 -61 13.5 -90t51 -40.5t117.5 -11.5 q6 0 6 -12t-6 -12q-76 0 -118 2l-162 2l-121 -2q-31 -2 -86 -2q-6 0 -6 12t6 12q49 0 72.5 11.5t33 41t9.5 89.5v1022q0 86 -30 113.5t-106 27.5q-4 0 -4 12.5zM344 127q45 -51 94 -76.5t121 -25.5q16 0 45 4l-129 223v2q0 10 24.5 22.5t28.5 4.5l131 -228q107 74 107 324 q0 156 -72.5 240.5t-181.5 84.5q-92 0 -168 -65v-510z" />
<glyph unicode="&#x490;" horiz-adv-x="1087" d="M63 12.5q0 12.5 7 12.5q72 0 104.5 10t43.5 39.5t11 91.5v948q0 61 -10 90t-41 40t-94 11q-6 0 -6 12.5t6 12.5h590q145 0 231 65.5t107 192.5q0 8 12 8q6 0 13 -4t5 -8l-49 -444q0 -6 -10 -6.5t-12 6.5q-14 82 -84 106.5t-201 24.5h-111q-61 0 -89.5 -27t-28.5 -82v-938 q0 -63 16 -94t61.5 -43t141.5 -12q4 0 4 -12.5t-4 -12.5q-84 0 -131 2l-209 2l-154 -2q-41 -2 -112 -2q-7 0 -7 12.5z" />
<glyph unicode="&#x491;" horiz-adv-x="765" d="M59 12.5q0 12.5 7 12.5q49 0 72.5 10t31.5 39.5t8 91.5v459q0 61 -8 90.5t-31.5 40t-70.5 10.5q-6 0 -6.5 12.5t6.5 12.5h409q109 0 171.5 65.5t74.5 190.5q2 8 13.5 7t11.5 -10l-46 -426q0 -6 -11 -6t-13 9q-25 127 -213 127q-59 0 -77.5 -26t-18.5 -101v-455 q0 -61 8 -91t30.5 -40t71.5 -10q4 0 4 -12.5t-4 -12.5q-57 0 -88 2l-115 2l-118 -2q-33 -2 -92 -2q-7 0 -7 12.5z" />
<glyph unicode="&#x492;" horiz-adv-x="1077" d="M63.5 12.5q-0.5 12.5 6.5 12.5q72 0 104.5 10t43.5 39.5t11 91.5v442h-120q-8 0 -9 29q0 29 9 29h120v448q0 61 -10 90t-41 40t-94 11q-6 0 -6 12.5t6 12.5h893q20 0 20 -18l4 -344q0 -6 -11 -7.5t-13 4.5q-35 158 -119 232t-221 74h-62q-61 0 -89.5 -27t-28.5 -82v-446 h211q4 0 7 -9.5t3 -19.5t-3 -19.5t-7 -9.5h-211v-434q0 -63 16 -94t61.5 -43t141.5 -12q4 0 4 -12.5t-4 -12.5q-84 0 -131 2l-209 2l-154 -2q-41 -2 -112 -2q-6 0 -6.5 12.5z" />
<glyph unicode="&#x493;" horiz-adv-x="765" d="M59.5 12.5q-0.5 12.5 6.5 12.5q49 0 72.5 10t31.5 39.5t8 91.5v199h-94q-8 0 -12 8t-4 20t4 20.5t12 8.5h94v203q0 61 -8 90.5t-31.5 40t-70.5 10.5q-6 0 -6.5 12.5t6.5 12.5h628q15 0 17 -3.5t2 -15.5q-10 -205 -10 -248q0 -4 -11.5 -4t-13.5 4q-39 119 -99.5 174.5 t-129.5 55.5q-47 0 -64.5 -30t-17.5 -103v-199h135q16 0 16 -29t-16 -28h-135v-199q0 -61 8 -91t30.5 -40t71.5 -10q4 0 4 -12.5t-4 -12.5q-57 0 -88 2l-115 2l-118 -2q-33 -2 -92 -2q-6 0 -6.5 12.5z" />
<glyph unicode="&#x494;" horiz-adv-x="1298" d="M57 12.5q0 12.5 4 12.5q72 0 105 10t45 39.5t12 91.5v948q0 61 -11 90t-42 40t-94 11q-4 0 -4 12.5t4 12.5h895q18 0 18 -18l4 -344q0 -6 -10 -7.5t-12 4.5q-53 160 -131 233t-209 73h-64q-61 0 -88.5 -27t-27.5 -82v-461q180 158 368 158q154 0 262.5 -94t108.5 -287 q0 -119 -47 -223.5t-135 -167t-207 -62.5q-96 0 -146.5 38t-50.5 98q0 43 27.5 70.5t77.5 27.5q43 0 65.5 -22.5t30.5 -71.5q8 -57 19.5 -78t41.5 -21q49 0 72 71t23 237q0 213 -59.5 295.5t-184.5 82.5q-135 0 -266 -98v-430q0 -66 5 -95.5t20.5 -41.5t47.5 -12 q6 0 6 -12.5t-6 -12.5q-49 0 -75 2l-121 2l-154 -2q-41 -2 -113 -2q-4 0 -4 12.5z" />
<glyph unicode="&#x495;" horiz-adv-x="886" d="M59.5 12.5q-0.5 12.5 6.5 12.5q49 0 72.5 10t31.5 39.5t8 91.5v459q0 61 -8 90.5t-31.5 40t-70.5 10.5q-6 0 -6.5 12.5t6.5 12.5h628q14 0 16.5 -3.5t2.5 -15.5q-10 -205 -10 -248q0 -4 -11.5 -4t-13.5 4q-39 119 -99.5 174.5t-129.5 55.5q-47 0 -64.5 -30t-17.5 -103 v-222q86 29 180 29q145 0 212.5 -71.5t67.5 -186.5q0 -154 -108.5 -305.5t-257.5 -259.5q-2 -2 -6 -2q-6 0 -10.5 7t-0.5 11q84 125 128 230.5t44 257.5q0 119 -36.5 184t-126.5 65q-31 0 -86 -10v-182q0 -61 8 -91t30.5 -40t71.5 -10q4 0 4 -12.5t-4 -12.5q-57 0 -88 2 l-115 2l-118 -2q-33 -2 -92 -2q-6 0 -6.5 12.5z" />
<glyph unicode="&#x496;" horiz-adv-x="2076" d="M-24.5 12.5q-0.5 12.5 6.5 12.5q55 2 102 36.5t92 93t131 183.5l31 47q76 113 128 172t103.5 86t122.5 35l-282 348q-92 113 -191.5 171t-202.5 58q-4 0 -4 12.5t4 12.5l88 -2q86 -4 166 -4q61 0 168 4l135 2q4 0 4.5 -12.5t-4.5 -12.5q-59 0 -88.5 -25.5t-29.5 -70.5 q0 -80 92 -211l192 -266h49q84 0 140 -2v434q0 61 -12.5 90t-45 40t-102.5 11q-4 0 -4 12.5t4 12.5l113 -2q90 -4 145 -4q63 0 166 4l117 2q4 0 4 -12.5t-4 -12.5q-70 0 -102.5 -12t-45 -42t-12.5 -91v-430q53 2 139 2h49l187 256q96 133 96 221q0 45 -28.5 70.5t-86.5 25.5 q-6 0 -6 12.5t6 12.5l133 -2q106 -4 168 -4q80 0 166 4l88 2q4 0 4 -12.5t-4 -12.5q-102 0 -201.5 -58t-191.5 -171l-283 -348q74 -8 124.5 -35t101.5 -85t129 -173q12 -16 33 -49q119 -174 177 -242.5t103 -68.5q19 0 23 -4.5t4 -20.5q0 -47 -2 -78q0 -35 -1 -103.5 t-1 -201.5q0 -10 -12.5 -10t-12.5 10q0 184 -80 283.5t-213 99.5q-16 0 -31.5 16.5t-71 99.5t-147.5 228q-88 139 -137 198.5t-96 81t-125 21.5v-479q0 -61 11 -91t44 -40t105 -10q4 0 4 -12.5t-4 -12.5q-76 0 -119 2l-164 2l-149 -2q-39 -2 -111 -2q-4 0 -4 12.5t4 12.5 q72 0 104.5 10t45 39.5t12.5 91.5v479q-78 0 -125 -21.5t-96.5 -81t-137.5 -198.5q-109 -170 -159 -240.5t-69 -87t-44 -16.5h-315q-6 0 -6.5 12.5z" />
<glyph unicode="&#x497;" d="M-8 12.5q0 12.5 6 12.5q61 0 93 28.5t79 108.5q27 51 45 76q51 78 82 113.5t67.5 55t98.5 23.5q-31 35 -64 96q-35 70 -55 91.5t-53 21.5q-27 0 -60 -16q-37 -16 -65 -17q-51 0 -78 29t-27 76q0 45 30 72.5t89 27.5q72 0 130.5 -54.5t131.5 -213.5q27 -49 47.5 -80 t45.5 -31l102 -4v197q0 63 -9.5 91.5t-37 39t-86.5 10.5q-6 0 -6 12.5t6 12.5l119 -3q37 -2 112 -2q74 0 111 2l117 3q6 0 6 -12.5t-6 -12.5q-59 0 -87 -12.5t-37.5 -42t-9.5 -90.5v-193l93 4q41 0 92 111q74 160 132 214t130 54q59 0 89 -27.5t30 -72.5q0 -47 -27 -76 t-78 -29q-29 0 -65 17q-12 6 -25.5 11t-32.5 5q-33 0 -55 -21.5t-55 -91.5q-29 -59 -62 -96q61 -4 99.5 -23.5t70 -56.5t80.5 -112l39 -64q49 -84 81 -116.5t79 -32.5q18 0 21 -3.5t3 -21.5q0 -31 -6 -74q-12 -98 -12 -213q0 -10 -12.5 -10t-12.5 10q0 121 -59 204t-147 83 l-21 -2q-16 0 -46 37t-103 162q-53 88 -83 126.5t-59.5 54t-75.5 15.5h-2v-227q0 -61 8.5 -91t31 -40t69.5 -10q6 0 6 -12.5t-6 -12.5q-57 0 -88 2l-115 2l-119 -2q-33 -2 -92 -2q-4 0 -4 12.5t4 12.5q49 0 73 10t32 39.5t8 91.5v227h-6q-47 0 -77 -15.5t-60.5 -54 t-81.5 -126.5q-55 -94 -85 -135.5t-46.5 -51.5t-38.5 -10h-244q-6 0 -6 12.5z" />
<glyph unicode="&#x498;" horiz-adv-x="1112" d="M117 377q0 4 11 6t13 -4q16 -104 72.5 -189.5t138.5 -133.5t172 -48q109 0 165 93.5t56 228.5q0 166 -87 251t-246 85q-8 0 -8.5 12t8.5 12q147 0 220 78t73 219t-48.5 215t-142.5 74q-70 0 -139.5 -48t-122.5 -132t-80 -189q-2 -6 -12 -4t-10 6l28 291q4 25 8 33t23 14 q158 55 328 56q135 0 227 -38t138 -100.5t46 -136.5q0 -117 -100 -211t-230 -129q173 -12 279.5 -99t106.5 -224q0 -115 -78 -207t-209 -142q-59 -20 -103.5 -131.5t-44.5 -267.5q0 -10 -11 -10t-11 10q0 162 -40 259t-114 106q-70 6 -129 24.5t-94 46.5q-18 10 -22.5 17.5 t-6.5 29.5z" />
<glyph unicode="&#x499;" horiz-adv-x="759" d="M41 561l63 273q4 4 9 4q6 0 12 -3.5t4 -5.5q-2 -8 -2 -22q0 -20 10 -29.5t23 -9.5q25 0 63 16q41 14 79 23.5t91 9.5q133 0 202 -44t69 -132q0 -66 -63.5 -122t-170.5 -83q127 -8 195.5 -62.5t68.5 -148.5q0 -76 -52 -136t-146 -91q-61 -18 -87 -85t-26 -200 q0 -10 -12.5 -10t-12.5 10q0 133 -27.5 196.5t-92.5 76.5q-111 25 -191 96l-2 4q0 6 9 12t14 0q41 -31 97 -48t111 -17q102 0 150.5 55t48.5 143t-53 134.5t-172 46.5q-8 0 -10 12t10 12q111 2 157 43t46 127q0 78 -32 123t-95 45q-139 0 -260 -219q-2 -2 -11 -2 q-16 0 -14 8z" />
<glyph unicode="&#x49a;" horiz-adv-x="1366" d="M45 12.5q0 12.5 6 12.5q70 0 102.5 10t45 39.5t12.5 91.5v948q0 61 -12.5 90t-44 40t-101.5 11q-6 0 -6 12.5t6 12.5l109 -2q94 -4 149 -4q70 0 172 4l113 2q6 0 6 -12.5t-6 -12.5q-68 0 -100.5 -12t-45 -42t-12.5 -91v-430q55 2 140 2l215 295q84 117 84 194 q0 39 -23 61.5t-61 22.5q-4 0 -4.5 12.5t4.5 12.5l94 -2q90 -4 160 -4q80 0 165 4l88 2q6 0 6.5 -12.5t-6.5 -12.5q-90 0 -202.5 -65.5t-190.5 -163.5l-278 -346q82 -4 134 -29.5t102 -83t139 -182.5l96 -143q53 -84 85 -125t69.5 -65.5t86.5 -26.5q19 0 23 -4.5t4 -20.5 q0 -47 -2 -78q-4 -115 -4 -305q0 -10 -11.5 -10t-11.5 10q0 182 -87 282.5t-226 100.5q-20 0 -29.5 9t-40.5 59q-76 123 -184 276l-55 78q-72 104 -107 146t-72.5 59.5t-99.5 17.5v-479q0 -61 11.5 -91t44 -40t102.5 -10q6 0 6 -12.5t-6 -12.5q-72 0 -115 2l-170 2l-149 -2 q-41 -2 -111 -2q-6 0 -6 12.5z" />
<glyph unicode="&#x49b;" horiz-adv-x="983" d="M35 12.5q0 12.5 6 12.5q49 0 72.5 10t32 39.5t8.5 91.5v459q0 61 -8.5 90.5t-31 40t-71.5 10.5q-4 0 -4 12.5t4 12.5q57 0 88 -3l121 -2l115 2q33 2 88 3q6 0 6 -12.5t-6 -12.5q-68 0 -89.5 -28.5t-21.5 -116.5v-195q96 6 141 4q92 162 149.5 243t98.5 109.5t88 28.5 q53 0 83 -25.5t30 -74.5t-31 -81t-82 -32q-23 0 -37 6t-32 17q-27 18 -50 18q-31 0 -65.5 -39t-114.5 -172q45 -4 76 -22.5t57.5 -50t94.5 -117.5l47 -64q63 -86 95 -117.5t69 -31.5q18 0 21 -3.5t3 -21.5q0 -31 -6 -74q-14 -115 -14 -213q0 -10 -11.5 -10t-11.5 10 q0 121 -59.5 204t-147.5 83q-4 0 -18.5 -1t-49 44t-114.5 154l-43 59q-45 66 -65.5 90.5t-42 34.5t-58.5 10v-225q0 -61 8 -91t32 -40t71 -10q6 0 6 -12.5t-6 -12.5q-57 0 -88 2l-115 2l-119 -2q-33 -2 -92 -2q-6 0 -6 12.5z" />
<glyph unicode="&#x49c;" horiz-adv-x="1437" d="M45 12.5q0 12.5 6 12.5q70 0 102.5 10t45 39.5t12.5 91.5v948q0 61 -12.5 90t-44 40t-101.5 11q-6 0 -6 12.5t6 12.5l109 -2q94 -4 149 -4q70 0 172 4l113 2q6 0 6 -12.5t-6 -12.5q-68 0 -100.5 -12t-45 -42t-12.5 -91v-432q45 2 142 2v334q0 4 11 7t23 3t23.5 -3 t11.5 -7v-332h70l174 295q63 106 63 182q0 47 -24.5 71.5t-67.5 24.5q-4 0 -4 12.5t4 12.5l94 -2q90 -4 160 -4q80 0 166 4l88 2q6 0 6 -12.5t-6 -12.5q-90 0 -191.5 -63.5t-172.5 -165.5l-238 -344q74 -4 126 -28.5t104.5 -86t123.5 -182.5l60 -96q61 -100 97 -151.5 t79 -82t96 -30.5q6 0 6 -12.5t-6 -12.5h-315q-18 0 -27.5 6t-31 38t-54.5 85l-137 215q-106 168 -150.5 223.5t-91.5 69.5v-377q0 -4 -11 -6t-24 -2q-12 0 -23 3t-11 5v385l-142 -2v-477q0 -61 11.5 -91t44 -40t102.5 -10q6 0 6 -12.5t-6 -12.5q-72 0 -115 2l-170 2l-149 -2 q-41 -2 -111 -2q-6 0 -6 12.5z" />
<glyph unicode="&#x49d;" horiz-adv-x="1054" d="M35 12.5q0 12.5 6 12.5q49 0 72.5 10t32 39.5t8.5 91.5v459q0 61 -8.5 90.5t-31 40t-71.5 10.5q-4 0 -4 12.5t4 12.5q57 0 88 -3l121 -2l115 2q33 2 88 3q6 0 6 -12.5t-6 -12.5q-68 0 -89.5 -28.5t-21.5 -116.5v-189l98 4v189q0 8 8.5 13t20.5 5t20.5 -5t8.5 -13v-189 l45 2q68 154 120 235t96 109.5t97 28.5q59 0 88 -27.5t29 -72.5q0 -47 -25.5 -76t-77.5 -29q-33 0 -65 17q-33 16 -59 16q-29 0 -47.5 -14.5t-40 -53.5t-66.5 -135q96 -6 148.5 -46t103.5 -152q41 -90 62.5 -129t55 -61.5t87.5 -22.5q6 0 6 -12.5t-6 -12.5h-244 q-29 0 -50.5 11.5t-48 54.5t-59.5 131q-33 86 -67.5 129t-81.5 59v-203q0 -8 -8.5 -12t-20.5 -4t-20.5 4t-8.5 12v213q-20 2 -52 2h-46v-231q0 -61 8 -91t32 -40t71 -10q6 0 6 -12.5t-6 -12.5q-57 0 -88 2l-115 2l-119 -2q-33 -2 -92 -2q-6 0 -6 12.5z" />
<glyph unicode="&#x49e;" horiz-adv-x="1366" d="M45 12.5q0 12.5 6 12.5q70 0 102.5 10t45 39.5t12.5 91.5v778h-152q-8 0 -8 29t8 28h152v113q0 61 -12.5 90t-44 40t-101.5 11q-6 0 -6 12.5t6 12.5l109 -2q94 -4 149 -4q70 0 172 4l113 2q6 0 6 -12.5t-6 -12.5q-68 0 -100.5 -12t-45 -42t-12.5 -91v-109h183q4 0 7 -9 t3 -19t-3 -19.5t-7 -9.5h-183v-264q55 2 140 2l215 295q84 117 84 194q0 39 -23 61.5t-61 22.5q-4 0 -4.5 12.5t4.5 12.5l94 -2q90 -4 160 -4q80 0 165 4l88 2q6 0 6.5 -12.5t-6.5 -12.5q-90 0 -202.5 -65.5t-190.5 -163.5l-278 -346q80 -4 131 -29.5t101 -81t143 -184.5 l36 -51q86 -119 134.5 -178.5t99.5 -94t110 -36.5q7 0 7 -12.5t-7 -12.5h-315q-27 0 -48.5 16.5t-74.5 85t-174 242.5l-55 78q-72 104 -107 146t-72.5 59.5t-99.5 17.5v-479q0 -61 11.5 -91t44 -40t102.5 -10q6 0 6 -12.5t-6 -12.5q-72 0 -115 2l-170 2l-149 -2 q-41 -2 -111 -2q-6 0 -6 12.5z" />
<glyph unicode="&#x49f;" horiz-adv-x="983" d="M-4 1061q0 12 4 20.5t12 8.5h142v116q0 72 -13.5 102.5t-46.5 30.5q-29 0 -78 -22h-2q-6 0 -11 11t-1 13l299 142l10 2q10 0 21.5 -9.5t11.5 -17.5v-368h303q16 0 17 -29q0 -29 -17 -29h-303v-604l98 4q41 0 93 111q78 158 136 213t126 55q59 0 88.5 -27.5t29.5 -72.5 q0 -47 -26.5 -76t-77.5 -29q-31 0 -63 17q-33 16 -60 16q-33 0 -54.5 -21.5t-55.5 -91.5q-29 -59 -62 -96q59 -4 96 -23.5t68 -55.5t82 -113q37 -61 45 -72q47 -80 79 -109.5t93 -31.5q6 0 6 -12.5t-6 -12.5h-244q-20 0 -36.5 10t-47 51t-86.5 136q-53 88 -82.5 126.5 t-59.5 54t-75 15.5h-4v-227q0 -82 23.5 -111.5t87.5 -29.5q8 0 8 -12.5t-8 -12.5q-53 0 -86 2l-119 2l-123 -2q-31 -2 -84 -2q-4 0 -4 12.5t4 12.5q63 0 87 29.5t24 111.5v866h-142q-8 0 -12 8.5t-4 20.5z" />
<glyph unicode="&#x4a0;" horiz-adv-x="1570" d="M25 942q8 96 8 383q0 10 12 10t12 -10q0 -43 76 -49q66 -2 389 -2q78 0 180 4l113 2q4 0 4 -12.5t-4 -12.5q-74 0 -109.5 -12t-48 -42t-12.5 -91v-430q53 2 137 2h2l215 295q82 115 82 194q0 39 -21.5 61.5t-60.5 22.5q-6 0 -6 12.5t6 12.5l93 -2q90 -4 161 -4 q80 0 166 4l88 2q4 0 4 -12.5t-4 -12.5q-90 0 -203.5 -65.5t-189.5 -163.5l-280 -346q82 -4 133 -29.5t101 -81t142 -184.5q10 -16 18.5 -26.5t14.5 -18.5q88 -123 136 -182.5t100.5 -95t111.5 -37.5q4 0 4 -12.5t-4 -12.5h-317q-27 0 -48.5 16.5t-74.5 86t-174 241.5 l-49 70q-76 109 -111 151.5t-72.5 61t-99.5 18.5v-479q0 -63 11.5 -92t43 -39t103.5 -10q4 0 4 -12.5t-4 -12.5q-74 0 -117 2l-168 2l-151 -2q-41 -2 -111 -2q-4 0 -4 12.5t4 12.5q72 0 104.5 10t45 39.5t12.5 91.5v948q0 63 -25.5 91t-83.5 28q-55 0 -114.5 -43 t-101.5 -110.5t-46 -137.5q0 -6 -11 -6t-11 6z" />
<glyph unicode="&#x4a1;" horiz-adv-x="1120" d="M31 829q0 10 12 10.5t12 -10.5q0 -29 55.5 -36t174.5 -7l188 2q59 2 145 3q4 0 4.5 -12.5t-4.5 -12.5q-59 0 -86.5 -12.5t-38 -42t-10.5 -90.5v-193l99 4q25 0 45 31t47 80q74 160 132 214t130 54q59 0 89 -27.5t30 -72.5q0 -47 -27 -76t-78 -29q-29 0 -65 17 q-12 6 -25.5 11t-32.5 5q-35 0 -56 -21.5t-54 -91.5q-33 -61 -64 -96q61 -4 98 -23.5t68 -55.5t82 -113q18 -25 45 -76q47 -80 79 -108.5t93 -28.5q6 0 6 -12.5t-6 -12.5h-244q-23 0 -38 9t-44.5 51t-86.5 137q-53 88 -83 126.5t-60 54t-77 15.5h-2v-227q0 -61 8.5 -91 t31 -40t71.5 -10q6 0 6 -12.5t-6 -12.5q-57 0 -88 2l-115 2l-119 -2q-33 -2 -92 -2q-6 0 -6 12.5t6 12.5q49 0 72.5 10t32 39.5t8.5 91.5v459q0 72 -14.5 95t-57.5 23q-63 0 -95 -42t-69 -154q-2 -6 -13 -6t-11 6z" />
<glyph unicode="&#x4a2;" horiz-adv-x="1562" d="M57 12.5q0 12.5 4 12.5q72 0 105 10t45 39.5t12 91.5v948q0 61 -12 90t-44 40t-101 11q-6 0 -6.5 12.5t6.5 12.5l110 -2q94 -4 152 -4q78 0 180 4l113 2q4 0 4 -12.5t-4 -12.5q-74 0 -109 -12t-48 -42t-13 -91v-416h661v416q0 61 -12.5 91t-47 42t-110.5 12q-6 0 -6 12.5 t6 12.5l100 -2q102 -4 185 -4q55 0 157 4l115 2q6 0 6 -12.5t-6 -12.5q-70 0 -103.5 -11t-45 -39.5t-11.5 -90.5v-948q0 -76 6.5 -101.5t30 -32.5t94.5 -7q18 0 22.5 -4.5t4.5 -20.5q0 -47 -2 -78q0 -35 -1 -103.5t-1 -201.5q0 -10 -12.5 -10t-12.5 10q0 186 -90 284.5 t-260 98.5h-176q-6 0 -6 12.5t6 12.5q76 0 110.5 10t47 38.5t12.5 92.5v471h-661v-471q0 -61 12 -91t47 -40t111 -10q4 0 4 -12.5t-4 -12.5q-72 0 -115 2l-178 2l-154 -2q-41 -2 -113 -2q-4 0 -4 12.5z" />
<glyph unicode="&#x4a3;" horiz-adv-x="1091" d="M59.5 12.5q-0.5 12.5 6.5 12.5q49 0 72.5 10t31.5 39.5t8 91.5v459q0 61 -8 90.5t-31.5 40t-70.5 10.5q-6 0 -6.5 12.5t6.5 12.5q57 0 88 -3l120 -2l115 2q33 2 88 3q4 0 4 -12.5t-4 -12.5q-47 0 -70.5 -12.5t-31.5 -42t-8 -90.5v-201h360v205q0 61 -8 90.5t-31.5 40 t-71.5 10.5q-6 0 -6 12.5t6 12.5q57 0 89 -3l120 -2l115 2q33 2 88 3q4 0 4 -12.5t-4 -12.5q-47 0 -70.5 -12.5t-31.5 -42t-8 -90.5v-455q0 -86 22.5 -113.5t87.5 -27.5q19 0 22 -3.5t3 -21.5q0 -31 -6 -74q-14 -115 -15 -213q0 -10 -11 -10t-11 10q0 139 -75 213t-214 74 h-107q-6 0 -6 12.5t6 12.5q49 0 73 10t32 39.5t8 91.5v205h-360v-205q0 -61 8 -91t30.5 -40t71.5 -10q4 0 4 -12.5t-4 -12.5q-57 0 -88 2l-115 2l-118 -2q-33 -2 -92 -2q-6 0 -6.5 12.5z" />
<glyph unicode="&#x4a4;" horiz-adv-x="1832" d="M57 12.5q0 12.5 4 12.5q72 0 105 10t45 39.5t12 91.5v948q0 61 -12 90t-44 40t-101 11q-6 0 -6.5 12.5t6.5 12.5l110 -2q94 -4 152 -4q78 0 180 4l113 2q4 0 4 -12.5t-4 -12.5q-74 0 -109 -12t-48 -42t-13 -91v-416h557v420q0 61 -10.5 90t-41 40t-94.5 11q-4 0 -4 12.5 t4 12.5h871q18 0 18 -18l4 -344q0 -6 -10 -7.5t-12 4.5q-53 160 -131 233t-209 73h-39q-61 0 -89 -27t-28 -82v-938q0 -66 15.5 -95.5t60.5 -41.5t141 -12q4 0 4 -12.5t-4 -12.5q-84 0 -131 2l-209 2l-153 -2q-41 -2 -113 -2q-4 0 -4 12.5t4 12.5q72 0 104.5 10t44 39.5 t11.5 91.5v471h-557v-471q0 -61 12 -91t47 -40t111 -10q4 0 4 -12.5t-4 -12.5q-72 0 -115 2l-178 2l-154 -2q-41 -2 -113 -2q-4 0 -4 12.5z" />
<glyph unicode="&#x4a5;" horiz-adv-x="1316" d="M59.5 12.5q-0.5 12.5 6.5 12.5q49 0 72.5 10t31.5 39.5t8 91.5v459q0 61 -8 90.5t-31.5 40t-70.5 10.5q-6 0 -6.5 12.5t6.5 12.5q57 0 88 -3l120 -2l115 2q33 2 88 3q4 0 4 -12.5t-4 -12.5q-47 0 -70.5 -12.5t-31.5 -42t-8 -90.5v-201h360v205q0 61 -8 90.5t-31.5 40 t-71.5 10.5q-6 0 -6 12.5t6 12.5h629q15 0 17 -3.5t2 -15.5q-10 -205 -11 -248q0 -4 -11 -4t-13 4q-39 119 -99.5 174.5t-130.5 55.5q-47 0 -64 -30t-17 -103v-455q0 -61 8 -91t30.5 -40t71.5 -10q4 0 4 -12.5t-4 -12.5q-57 0 -88 2l-115 2l-118 -2q-33 -2 -93 -2 q-6 0 -6 12.5t6 12.5q49 0 73 10t32 39.5t8 91.5v205h-360v-205q0 -61 8 -91t30.5 -40t71.5 -10q4 0 4 -12.5t-4 -12.5q-57 0 -88 2l-115 2l-118 -2q-33 -2 -92 -2q-6 0 -6.5 12.5z" />
<glyph unicode="&#x4a8;" horiz-adv-x="1615" d="M100 641q0 223 114 387t296 248h2q4 0 8 -6t2 -10q-55 -68 -89 -125.5t-57.5 -151.5t-23.5 -231q0 -221 63.5 -386t174 -252t246.5 -87q119 0 217 69q-225 102 -359.5 287.5t-134.5 404.5q0 147 62.5 264t170 184t240.5 67q147 0 257 -81t168.5 -215.5t58.5 -285.5 q0 -184 -83 -342t-227 -262q141 -74 299 -74q4 0 4 -20q0 -23 -4 -23q-197 0 -381 68q-166 -92 -358 -93q-193 0 -344.5 90.5t-236.5 243t-85 332.5zM809 895q0 -242 85 -430.5t232 -296.5q66 82 103 208t37 286q0 170 -40 306t-105.5 211.5t-141.5 75.5q-84 0 -127 -96 t-43 -264z" />
<glyph unicode="&#x4a9;" horiz-adv-x="1097" d="M66 406q0 152 91 257t234 142q6 2 10.5 -9.5t-2.5 -15.5q-135 -76 -135 -315q0 -119 46 -223.5t122 -168t158 -63.5q45 0 78 13q-119 80 -184.5 184t-65.5 221q0 123 42 211t111.5 133t153.5 45q92 0 161.5 -53t107.5 -139t38 -183q0 -137 -65.5 -242.5t-178.5 -164.5 q74 -74 173 -107q2 0 2 -4q0 -6 -5.5 -13t-9.5 -5q-141 35 -241 94q-80 -27 -175 -27q-139 0 -245.5 58.5t-163.5 158t-57 216.5zM610 528q0 -127 35 -244.5t103 -203.5q80 92 79 311q0 166 -37.5 276.5t-99.5 110.5q-41 0 -60.5 -59.5t-19.5 -190.5z" />
<glyph unicode="&#x4aa;" horiz-adv-x="1370" d="M100 645q0 195 105.5 344.5t281 231.5t375.5 82q90 0 188.5 -15.5t153.5 -40.5q18 -6 23.5 -15t9.5 -32l25 -285q0 -6 -10.5 -8t-12.5 6q-70 162 -186.5 250t-270.5 88q-203 0 -313.5 -149.5t-110.5 -401.5q0 -188 60.5 -343.5t170 -247t249.5 -91.5q131 0 234.5 87.5 t184.5 265.5q2 8 13.5 6t11.5 -8l-31 -279q-4 -25 -9 -32t-23 -15q-92 -35 -222 -57q-80 -12 -128 -107.5t-48 -261.5q0 -10 -12 -10t-12 10q0 166 -45 264.5t-125 116.5q-178 41 -296 142.5t-174.5 233.5t-56.5 271z" />
<glyph unicode="&#x4ab;" horiz-adv-x="870" d="M66 381q0 129 71.5 226.5t183 149.5t228.5 52q111 0 183.5 -44t72.5 -108q0 -39 -30 -67.5t-83 -28.5q-49 0 -77.5 25.5t-47.5 79.5q-18 57 -35.5 78.5t-62.5 21.5q-88 0 -140.5 -87t-52.5 -230q0 -170 76 -271.5t242 -101.5q55 0 95 12t102 41h2q6 0 11 -6t1 -10 q-100 -94 -193 -117q-57 -16 -82.5 -84t-25.5 -199q0 -10 -12.5 -10t-12.5 10q0 137 -26.5 200.5t-90.5 76.5q-145 29 -220.5 141.5t-75.5 249.5z" />
<glyph unicode="&#x4ac;" horiz-adv-x="1316" d="M82 918q8 82 18.5 212t10.5 195q0 10 11 10t11 -10q0 -45 117 -45q176 -6 412 -6q121 0 256 4l139 2q78 0 113.5 10t46.5 41q2 8 13 8t11 -8q-6 -61 -13 -196.5t-7 -216.5q0 -6 -10.5 -6.5t-12.5 6.5q-31 158 -115 236.5t-206 78.5q-59 0 -79 -25.5t-20 -97.5v-944 q0 -76 6.5 -101.5t30 -32.5t94.5 -7q18 0 22.5 -4.5t4.5 -20.5q0 -47 -2 -78q0 -35 -1 -103.5t-1 -201.5q0 -10 -12.5 -10t-12.5 10q0 188 -89 285.5t-259 97.5h-178q-6 0 -6 12.5t6 12.5q76 0 109.5 10t46 38.5t12.5 92.5v948q0 70 -18.5 94.5t-75.5 24.5q-244 0 -351 -318 q-2 -6 -12 -5t-10 8z" />
<glyph unicode="&#x4ad;" horiz-adv-x="866" d="M53 774q0 12 2 15.5t15 3.5q43 0 75 -2l283 -3l289 3q35 2 80 2q14 0 16 -3.5t2 -15.5q-10 -205 -10 -250q0 -4 -11.5 -4t-13.5 4q-25 94 -81 157.5t-115 63.5q-33 0 -44.5 -26.5t-11.5 -97.5v-455q0 -86 22.5 -113.5t88.5 -27.5q18 0 21.5 -3.5t3.5 -21.5q0 -35 -7 -84 q-12 -98 -12 -203q0 -10 -12 -10t-12 10q0 135 -74 211t-213 76h-109q-6 0 -6 12.5t6 12.5q49 0 73 10t32 39.5t8 91.5v455q0 72 -11.5 98t-43.5 26q-59 0 -115.5 -63.5t-81.5 -157.5q-2 -4 -13.5 -4t-11.5 4l-4 133q-4 82 -4 117z" />
<glyph unicode="&#x4ae;" horiz-adv-x="1267" d="M4 1267.5q0 12.5 6 12.5l64 -2q45 -4 63 -4q72 0 207 4l135 2q4 0 4 -12.5t-4 -12.5q-35 0 -54 -16t-19 -43q0 -33 28 -78l281 -442l188 321q55 92 55 158q0 49 -29.5 74.5t-84.5 25.5q-6 0 -6 12.5t6 12.5l108 -2q94 -4 168 -4q35 0 84 4l76 2q4 0 4 -12.5t-4 -12.5 q-63 0 -155.5 -78.5t-163.5 -197.5l-213 -356v-457q0 -63 10 -92t39.5 -39t95.5 -10q6 0 6 -12.5t-6 -12.5q-68 0 -107 2l-153 2l-152 -2q-41 -2 -110 -2q-4 0 -4 12.5t4 12.5q66 0 96.5 10t41.5 39.5t11 91.5v414l-299 464q-76 119 -126 165t-85 46q-6 0 -6 12.5z" />
<glyph unicode="&#x4af;" horiz-adv-x="901" d="M-35 778.5q0 12.5 6 12.5q37 0 62 -3l137 -2l158 2q35 2 96 3q6 0 6 -12.5t-6 -12.5q-57 0 -87 -10.5t-30 -36.5q0 -16 8 -33l222 -526l143 424q14 37 14 73q0 51 -33.5 80t-95.5 29q-4 0 -4 12.5t4 12.5q55 0 84 -3l123 -2l82 2q25 2 76 3q4 0 4 -12.5t-4 -12.5 q-127 0 -193 -184l-172 -480v-499q0 -61 8.5 -90t31 -40.5t71.5 -11.5q4 0 4 -12t-4 -12q-53 0 -84 2l-125 2l-123 -2q-33 -2 -86 -2q-4 0 -4 12t4 12q47 0 70.5 11.5t32 40t8.5 90.5v448l-242 570q-39 90 -73 117.5t-83 27.5q-6 0 -6 12.5z" />
<glyph unicode="&#x4b0;" horiz-adv-x="1267" d="M4 1267.5q0 12.5 6 12.5l64 -2q45 -4 63 -4q72 0 207 4l135 2q4 0 4 -12.5t-4 -12.5q-35 0 -54 -16t-19 -43q0 -33 28 -78l281 -442l188 321q55 92 55 158q0 49 -29.5 74.5t-84.5 25.5q-6 0 -6 12.5t6 12.5l108 -2q94 -4 168 -4q35 0 84 4l76 2q4 0 4 -12.5t-4 -12.5 q-63 0 -155.5 -78.5t-163.5 -197.5l-213 -354h235q8 0 8 -29t-8 -29h-235v-401q0 -63 10 -92t39.5 -39t95.5 -10q6 0 6 -12.5t-6 -12.5q-68 0 -107 2l-153 2l-152 -2q-41 -2 -110 -2q-4 0 -4 12.5t4 12.5q66 0 96.5 10t41.5 39.5t11 91.5v401h-241q-8 0 -9 29q0 29 9 29h213 l-271 419q-76 119 -126 165t-85 46q-6 0 -6 12.5z" />
<glyph unicode="&#x4b1;" horiz-adv-x="901" d="M-35 778.5q0 12.5 6 12.5q37 0 62 -3l137 -2l158 2q35 2 96 3q6 0 6 -12.5t-6 -12.5q-57 0 -87 -10.5t-30 -36.5q0 -16 8 -33l222 -526l143 424q14 37 14 73q0 51 -33.5 80t-95.5 29q-4 0 -4 12.5t4 12.5q55 0 84 -3l123 -2l82 2q25 2 76 3q4 0 4 -12.5t-4 -12.5 q-127 0 -193 -184l-172 -480v-8h230q8 0 13 -8t5 -20t-5 -20.5t-13 -8.5h-230v-434q0 -61 8.5 -90t31 -40.5t71.5 -11.5q4 0 4 -12t-4 -12q-53 0 -84 2l-125 2l-123 -2q-33 -2 -86 -2q-4 0 -4 12t4 12q47 0 70.5 11.5t32 40t8.5 90.5v434h-232q-8 0 -12 8t-4 21q0 12 4 20 t12 8h213l-223 527q-39 90 -73 117.5t-83 27.5q-6 0 -6 12.5z" />
<glyph unicode="&#x4b2;" horiz-adv-x="1325" d="M4 12.5q0 12.5 6 12.5q63 0 155.5 67.5t192.5 206.5l209 283l-327 510q-55 88 -106.5 125.5t-108.5 37.5q-6 0 -6.5 12.5t6.5 12.5l88 -2q57 -4 86 -4q72 0 178 4l117 2q4 0 4 -12.5t-4 -12.5q-70 0 -70 -34q0 -16 18 -47l271 -416l164 233q80 115 79 185q0 80 -106 79 q-4 0 -4 12.5t4 12.5l102 -2q82 -4 152 -4q43 0 96 4l86 2q6 0 6 -12.5t-6 -12.5q-66 0 -157 -68.5t-193 -207.5l-195 -266l351 -543q51 -78 100 -111.5t119 -33.5q16 0 21 -4.5t5 -20.5q0 -47 -2 -78q-4 -115 -4 -305q0 -10 -11 -10t-11 10q0 184 -83 283.5t-222 99.5h-177 q-6 0 -6 12.5t6 12.5q68 0 68 34q0 18 -18 45l-281 435l-176 -252q-80 -113 -80 -183q0 -80 106 -79q4 0 4.5 -12.5t-4.5 -12.5q-68 0 -102 2l-151 2l-97 -2q-27 -2 -86 -2q-6 0 -6 12.5z" />
<glyph unicode="&#x4b3;" horiz-adv-x="901" d="M2 12.5q0 12.5 6 12.5q63 0 135 51t136 139l94 129l-185 277q-96 145 -159 145q-4 0 -4 12.5t4 12.5q43 0 63 -3l64 -2l143 2q33 2 92 3q4 0 4 -12.5t-4 -12.5q-45 0 -45 -31q0 -20 21 -49l120 -180l56 84q49 72 49 115q0 61 -92 61q-4 0 -4 12.5t4 12.5q55 0 84 -3 l123 -2l84 2q23 2 73 3q6 0 6 -12.5t-6 -12.5q-63 0 -135 -51t-135 -140l-80 -108l231 -348q29 -41 64 -67.5t68 -26.5q18 0 21 -3.5t3 -21.5q0 -25 -2 -45.5t-4 -38.5q-14 -115 -14 -203q0 -10 -11.5 -10t-11.5 10q0 117 -66.5 202t-164.5 85h-138q-6 0 -6 12.5t6 12.5 q41 0 57.5 4t16.5 16q0 10 -10 28.5t-27 41.5l-127 190l-71 -104q-47 -68 -47 -115q0 -61 90 -61q6 0 6 -12.5t-6 -12.5q-55 0 -82 2l-123 2l-84 -2q-23 -2 -74 -2q-6 0 -6 12.5z" />
<glyph unicode="&#x4b4;" horiz-adv-x="1781" d="M82 918q10 57 19.5 194t9.5 213q0 10 11 10t11 -10q0 -45 117 -45l156 -2q131 -4 206 -4q86 0 181 4l96 2q78 0 114.5 10t45.5 41q2 8 13 8t11 -8q-8 -76 -12 -280l-6 -133q0 -6 -12.5 -6.5t-12.5 6.5q0 152 -59.5 233.5t-141.5 81.5q-61 0 -80.5 -24.5t-19.5 -94.5v-944 q0 -70 5 -92.5t23.5 -28.5t73.5 -6h383q61 0 82 6t26 28.5t5 92.5v944q0 61 -9 90t-33.5 40t-80.5 11q-4 0 -4 12.5t4 12.5l103 -2q90 -4 147 -4q59 0 150 4l110 2q6 0 6 -12.5t-6 -12.5q-70 0 -102.5 -11t-45 -39.5t-12.5 -90.5v-948q0 -76 6.5 -101.5t30 -32.5t95.5 -7 q18 0 22 -4.5t4 -20.5q0 -47 -2 -78q0 -35 -1 -103.5t-1 -201.5q0 -10 -12.5 -10t-12.5 10q0 188 -89 285.5t-261 97.5h-993q-4 0 -4 12.5t4 12.5q72 0 104.5 10t44 39.5t11.5 91.5v948q0 70 -18.5 94.5t-73.5 24.5q-111 0 -197 -86t-107 -232q0 -6 -11 -5t-11 8z" />
<glyph unicode="&#x4b5;" horiz-adv-x="1245" d="M53 774q0 12 2 15.5t15 3.5q43 0 75 -2l283 -3l231 3q29 2 66 2q14 0 16 -3.5t2 -15.5q0 -49 -2 -87t-4 -62l-4 -101q0 -4 -11 -4t-13 4q-20 96 -54 158.5t-71 62.5q-33 0 -44.5 -26.5t-11.5 -97.5v-455q0 -63 3.5 -84t14.5 -26t44 -5h229q33 0 44 6t14.5 26.5t3.5 86.5 v455q0 63 -4.5 91.5t-17.5 39t-40 10.5q-6 0 -6 12.5t6 12.5q43 0 68 -3l88 -2l119 2q33 2 92 3q4 0 4 -12.5t-4 -12.5q-49 0 -72.5 -10.5t-32 -40t-8.5 -90.5v-459q0 -86 22.5 -113.5t88.5 -27.5q16 0 19 -3.5t3 -21.5q0 -33 -6 -82q-12 -102 -12 -229q0 -10 -12.5 -10.5 t-12.5 10.5q0 151 -73.5 231t-212.5 80h-650q-4 0 -4 12.5t4 12.5q47 0 71 12t32 42t8 91v451q0 72 -11.5 98t-43.5 26q-57 0 -110.5 -62t-86.5 -159q-2 -4 -13.5 -4t-11.5 4l-4 101q-4 98 -4 149z" />
<glyph unicode="&#x4b6;" horiz-adv-x="1304" d="M4 1267.5q0 12.5 6 12.5q31 0 47 -2q57 -4 187 -4q104 0 194 4q27 2 68 2q4 0 4 -12.5t-4 -12.5q-59 0 -87 -12t-38 -42t-10 -91v-203q0 -172 60.5 -263t164.5 -91q135 0 256 90v467q0 61 -9 91t-37 42t-87 12q-6 0 -6 12.5t6 12.5l104 -2q94 -4 156 -4q57 0 151 4l111 2 q4 0 4 -12.5t-4 -12.5q-72 0 -104.5 -11t-45 -39.5t-12.5 -90.5v-948q0 -76 7.5 -101.5t31 -32.5t94.5 -7q18 0 22.5 -4.5t4.5 -20.5q0 -47 -2 -78q-4 -115 -4 -305q0 -10 -11.5 -10t-11.5 10q0 186 -90 284.5t-260 98.5h-178q-4 0 -4 12.5t4 12.5q78 0 112.5 10t46 38.5 t11.5 92.5v444q-141 -106 -303 -106q-180 0 -293 90t-113 242v278q0 61 -9 90t-36.5 40t-87.5 11q-6 0 -6 12.5z" />
<glyph unicode="&#x4b7;" horiz-adv-x="899" d="M14 778.5q0 12.5 4 12.5q45 0 70 -3l92 -2l94 2q27 2 74 3q4 0 4 -12.5t-4 -12.5q-49 0 -63.5 -28.5t-14.5 -116.5v-56q0 -102 26 -147t83 -45q31 0 75 16.5t81 42.5v193q0 61 -6.5 90.5t-24 40t-55.5 10.5q-6 0 -6.5 12.5t6.5 12.5q49 0 77 -3l107 -2l115 2q33 2 88 3 q6 0 6 -12.5t-6 -12.5q-68 0 -89.5 -28.5t-21.5 -116.5v-455q0 -86 22.5 -113.5t88.5 -27.5q18 0 21 -3.5t3 -21.5q0 -35 -6 -84q-12 -98 -12 -203q0 -10 -12.5 -10t-12.5 10q0 135 -74.5 211t-214.5 76h-106q-6 0 -6 12.5t6 12.5q49 0 72.5 10t32 39.5t8.5 91.5v223 q-123 -117 -252 -117q-96 0 -148.5 62.5t-52.5 185.5v105q0 61 -5 90.5t-17.5 40t-41.5 10.5q-4 0 -4 12.5z" />
<glyph unicode="&#x4b8;" horiz-adv-x="1329" d="M4 1267.5q0 12.5 6 12.5q31 0 47 -2q57 -4 187 -4q104 0 194 4q27 2 68 2q4 0 4 -12.5t-4 -12.5q-59 0 -87 -12t-38 -42t-10 -91v-203q0 -332 233 -352v387q0 8 35 8t35 -8v-387q102 10 203 66v489q0 61 -9.5 91t-37 42t-87.5 12q-6 0 -6 12.5t6 12.5l105 -2 q94 -4 156 -4q55 0 149 4l113 2q4 0 4 -12.5t-4 -12.5q-72 0 -105 -11t-45 -39.5t-12 -90.5v-948q0 -61 12 -91t45 -40t105 -10q4 0 4 -12.5t-4 -12.5q-72 0 -113 2l-149 2l-170 -2q-43 -2 -115 -2q-6 0 -6 12.5t6 12.5q72 0 103.5 10t43 38.5t11.5 92.5v422 q-98 -57 -203 -76v-324q0 -4 -11.5 -6t-23.5 -2t-23.5 3t-11.5 5v316h-31q-190 0 -310 90t-120 242v278q0 61 -9 90t-36.5 40t-87.5 11q-6 0 -6 12.5z" />
<glyph unicode="&#x4b9;" horiz-adv-x="964" d="M14 778.5q0 12.5 4 12.5q45 0 70 -3l92 -2l94 2q27 2 74 3q4 0 4 -12.5t-4 -12.5q-49 0 -63.5 -28.5t-14.5 -116.5v-56q0 -100 33 -145t109 -47v205q0 8 8 13t20 5t20.5 -5t8.5 -13v-199q76 18 129 55v191q0 63 -5 91.5t-20.5 39t-48.5 10.5q-4 0 -4 12.5t4 12.5 q49 0 76 -3l96 -2l119 2q31 2 86 3q4 0 4 -12.5t-4 -12.5q-47 0 -70.5 -12.5t-31.5 -42t-8 -90.5v-455q0 -61 8 -91t30.5 -40t71.5 -10q4 0 4 -12.5t-4 -12.5q-57 0 -88 2l-117 2l-121 -2q-33 -2 -90 -2q-4 0 -4 12.5t4 12.5q49 0 73 10t32 39.5t8 91.5v225 q-68 -57 -129 -86v-172q0 -14 -29 -14t-28 14v152q-47 -12 -88 -13q-115 0 -178.5 62.5t-63.5 185.5v105q0 61 -5 90.5t-17.5 40t-41.5 10.5q-4 0 -4 12.5z" />
<glyph unicode="&#x4ba;" horiz-adv-x="1302" d="M57 12.5q0 12.5 4 12.5q72 0 105 10t45 39.5t12 91.5v948q0 61 -12 90t-45 40t-105 11q-4 0 -4 12.5t4 12.5l111 -2q94 -4 152 -4q68 0 170 4l114 2q6 0 6 -12.5t-6 -12.5q-70 0 -102.5 -11t-43.5 -39.5t-11 -90.5v-424q76 45 154.5 65.5t172.5 20.5q381 0 381 -334v-276 q0 -61 9.5 -91t37 -40t88.5 -10q4 0 4 -12.5t-4 -12.5q-31 0 -47 2q-16 0 -56 1t-132 1l-195 -2q-27 -2 -67 -2q-4 0 -4 12.5t4 12.5q59 0 86.5 12t38 42t10.5 91v201q0 344 -250 344q-109 0 -231 -62v-483q0 -61 9 -91t36.5 -42t87.5 -12q6 0 6 -12.5t-6 -12.5 q-68 0 -105 2l-155 2l-152 -2q-41 -2 -111 -2q-4 0 -4 12.5z" />
<glyph unicode="&#x4bb;" horiz-adv-x="1042" d="M2 1341l299 142l10 2q10 0 21.5 -9.5t11.5 -17.5v-811q145 168 311 168q111 0 175.5 -70.5t64.5 -185.5v-393q0 -82 23.5 -111.5t87.5 -29.5q8 0 8 -12.5t-8 -12.5q-53 0 -86 2l-119 2l-123 -2q-31 -2 -84 -2q-4 0 -4 12.5t4 12.5q63 0 87 29.5t24 111.5v295 q0 111 -41 164t-127 53q-49 0 -101.5 -20.5t-91.5 -55.5v-436q0 -82 23.5 -111.5t87.5 -29.5q8 0 8 -12.5t-8 -12.5q-53 0 -86 2l-119 2l-123 -2q-31 -2 -84 -2q-4 0 -4 12.5t4 12.5q63 0 87 29.5t24 111.5v1040q0 72 -13.5 102.5t-46.5 30.5q-29 0 -78 -22h-2q-6 0 -11 11 t-1 13z" />
<glyph unicode="&#x4bc;" horiz-adv-x="1515" d="M0 1014q0 10 14.5 11t14.5 -9q10 -125 74.5 -209t162.5 -96q14 172 107.5 307t237 210t302.5 75q256 0 379 -148.5t123 -460.5q0 -25 -6 -34t-25 -9h-872q8 -176 67.5 -320.5t151.5 -228.5t197 -84q158 0 274.5 76t169.5 230q0 6 8 6q6 0 11.5 -2t5.5 -6l-29 -220 q-4 -25 -9 -32t-22 -15q-197 -80 -417 -80q-221 0 -369 98.5t-217.5 253t-69.5 324.5h-92q-90 0 -130 24.5t-40 63.5zM510 709h661q-8 276 -91 409t-246 133q-96 0 -170 -67.5t-114 -190.5t-40 -284z" />
<glyph unicode="&#x4bd;" horiz-adv-x="962" d="M-12 762q0 10 14 11t14 -9q0 -94 47.5 -174t120.5 -117q35 147 158 241.5t295 94.5q125 0 195.5 -84t70.5 -258q0 -61 -24 -61h-496q12 -156 94 -243t225 -87q59 0 103.5 12t93.5 45l4 2q4 0 9.5 -8t0.5 -12q-76 -74 -153.5 -107t-169.5 -33q-129 0 -223.5 54.5 t-144.5 145.5t-50 198q0 23 2 33h-14q-170 0 -170 83zM381 449l301 2q2 154 -26.5 235.5t-96.5 81.5q-82 0 -130 -84t-48 -223v-12z" />
<glyph unicode="&#x4be;" horiz-adv-x="1515" d="M0 1014q0 10 14.5 11t14.5 -9q10 -125 74.5 -209t162.5 -96q14 172 107.5 307t237 210t302.5 75q256 0 379 -148.5t123 -460.5q0 -25 -6 -34t-25 -9h-872q8 -176 67.5 -320.5t151.5 -228.5t197 -84q158 0 274.5 76t169.5 230q0 6 8 6q6 0 11.5 -2t5.5 -6l-29 -220 q-4 -25 -9 -32t-22 -15q-127 -49 -245 -67q-78 -10 -125 -107.5t-47 -263.5q0 -10 -12.5 -10t-12.5 10q0 166 -45 264.5t-125 116.5q-156 41 -259.5 141.5t-152.5 234.5t-49 277h-92q-90 0 -130 24.5t-40 63.5zM510 709h661q-8 276 -91 409t-246 133q-96 0 -170 -67.5 t-114 -190.5t-40 -284z" />
<glyph unicode="&#x4bf;" horiz-adv-x="962" d="M-12 762q0 10 14 11t14 -9q0 -94 47.5 -174t120.5 -117q35 147 158 241.5t295 94.5q125 0 195.5 -84t70.5 -258q0 -61 -24 -61h-496q12 -156 94 -243t225 -87q59 0 103.5 12t93.5 45l4 2q4 0 9.5 -8t0.5 -12q-102 -102 -219 -127q-51 -10 -74.5 -77t-23.5 -198 q0 -10 -11.5 -10t-11.5 10q0 131 -29.5 199t-80.5 80q-135 31 -213 138.5t-78 242.5q0 23 2 33h-14q-170 0 -170 83zM381 449l301 2q2 154 -26.5 235.5t-96.5 81.5q-82 0 -130 -84t-48 -223v-12z" />
<glyph unicode="&#x4c0;" horiz-adv-x="700" d="M82 12.5q0 12.5 4 12.5q66 0 96.5 10t42 39.5t11.5 91.5v948q0 61 -11.5 90t-42 40t-96.5 11q-4 0 -4 12.5t4 12.5l111 -2q94 -4 151 -4q63 0 158 4l104 2q6 0 6 -12.5t-6 -12.5q-63 0 -94 -12t-41 -42t-10 -91v-944q0 -64 10 -92.5t40 -38.5t95 -10q6 0 6 -12.5 t-6 -12.5q-68 0 -106 2l-156 2l-151 -2q-41 -2 -111 -2q-4 0 -4 12.5z" />
<glyph unicode="&#x4c1;" horiz-adv-x="2076" d="M-24.5 12.5q-0.5 12.5 6.5 12.5q55 2 102 36.5t92 93t131 183.5l31 47q76 113 128 172t103.5 86t122.5 35l-282 348q-92 113 -191.5 171t-202.5 58q-4 0 -4 12.5t4 12.5l88 -2q86 -4 166 -4q61 0 168 4l135 2q4 0 4.5 -12.5t-4.5 -12.5q-59 0 -88.5 -25.5t-29.5 -70.5 q0 -80 92 -211l192 -266h49q84 0 140 -2v434q0 61 -12.5 90t-45 40t-102.5 11q-4 0 -4 12.5t4 12.5l113 -2q90 -4 145 -4q63 0 166 4l117 2q4 0 4 -12.5t-4 -12.5q-70 0 -102.5 -12t-45 -42t-12.5 -91v-430q53 2 139 2h49l187 256q96 133 96 221q0 45 -28.5 70.5t-86.5 25.5 q-6 0 -6 12.5t6 12.5l133 -2q106 -4 168 -4q80 0 166 4l88 2q4 0 4 -12.5t-4 -12.5q-102 0 -201.5 -58t-191.5 -171l-283 -348q74 -8 124.5 -35t101.5 -85t129 -173l30 -47q86 -125 131.5 -183.5t92.5 -93t102 -36.5q6 0 6 -12.5t-6 -12.5h-315q-25 0 -44.5 16.5t-69.5 87 t-159 240.5q-88 139 -137 198.5t-96 81t-125 21.5v-479q0 -61 11 -91t44 -40t105 -10q4 0 4 -12.5t-4 -12.5q-76 0 -119 2l-164 2l-149 -2q-39 -2 -111 -2q-4 0 -4 12.5t4 12.5q72 0 104.5 10t45 39.5t12.5 91.5v479q-78 0 -125 -21.5t-96.5 -81t-137.5 -198.5 q-109 -170 -159 -240.5t-69 -87t-44 -16.5h-315q-6 0 -6.5 12.5zM737 1559q0 37 23.5 59t66.5 22q47 0 65.5 -27.5t35.5 -86.5q18 -63 39.5 -93t70.5 -30q51 0 75 31.5t44 93.5q18 57 37.5 84.5t62.5 27.5t66 -22.5t23 -58.5q0 -51 -43 -95.5t-113 -70t-150 -25.5 q-77 0 -147 26.5t-113 70.5t-43 94z" />
<glyph unicode="&#x4c2;" horiz-adv-x="1456" d="M-8 12.5q0 12.5 6 12.5q61 0 93 28.5t79 108.5q27 51 45 76q51 78 82 113.5t67.5 55t98.5 23.5q-31 35 -64 96q-35 70 -55 91.5t-53 21.5q-27 0 -60 -16q-37 -16 -65 -17q-51 0 -78 29t-27 76q0 45 30 72.5t89 27.5q72 0 130.5 -54.5t131.5 -213.5q27 -49 47.5 -80 t45.5 -31l98 -4v197q0 63 -9.5 91.5t-37 39t-88.5 10.5q-4 0 -4 12.5t4 12.5l118 -3q39 -2 115 -2q72 0 109 2l118 3q4 0 4.5 -12.5t-4.5 -12.5q-59 0 -86.5 -12.5t-38 -42t-10.5 -90.5v-193l99 4q41 0 92 111q74 160 132 214t130 54q59 0 89 -27.5t30 -72.5q0 -47 -27 -76 t-78 -29q-29 0 -65 17q-12 6 -25.5 11t-32.5 5q-33 0 -55 -21.5t-55 -91.5q-29 -59 -62 -96q59 -4 96 -23.5t68 -55.5t82 -113q18 -25 45 -76q47 -80 79 -108.5t93 -28.5q6 0 6 -12.5t-6 -12.5h-244q-23 0 -38 9t-44.5 51t-87.5 137q-53 88 -82.5 126.5t-59.5 54t-75 15.5 h-4v-227q0 -61 8.5 -91t32 -40t70.5 -10q6 0 6 -12.5t-6 -12.5q-57 0 -88 2l-115 2l-119 -2q-33 -2 -92 -2q-6 0 -6 12.5t6 12.5q49 0 72.5 10t32 39.5t8.5 91.5v227h-2q-47 0 -77 -15.5t-60.5 -54t-81.5 -126.5q-55 -94 -85 -135.5t-46.5 -51.5t-38.5 -10h-244 q-6 0 -6 12.5zM424 1153q0 37 22.5 58.5t65.5 21.5q39 0 58.5 -17.5t27.5 -41t16 -68.5q8 -53 30 -83t83 -30t88 32t35 89q12 61 29.5 90t66.5 29q41 0 63.5 -21.5t22.5 -58.5q0 -51 -43 -96t-112.5 -70.5t-147.5 -25.5q-80 0 -150.5 26.5t-112.5 70.5t-42 95z" />
<glyph unicode="&#x4c3;" horiz-adv-x="1366" d="M45 12.5q0 12.5 6 12.5q70 0 102.5 10t45 39.5t12.5 91.5v948q0 61 -12.5 90t-44 40t-101.5 11q-6 0 -6 12.5t6 12.5l109 -2q94 -4 149 -4q70 0 172 4l113 2q6 0 6 -12.5t-6 -12.5q-68 0 -100.5 -12t-45 -42t-12.5 -91v-418q33 2 86 2q18 0 60 -4l209 287q84 117 84 194 q0 39 -23 61.5t-61 22.5q-4 0 -4.5 12.5t4.5 12.5l94 -2q90 -4 160 -4q80 0 165 4l88 2q7 0 7 -12.5t-7 -12.5q-90 0 -202.5 -65.5t-190.5 -163.5l-278 -346q143 -33 294.5 -136.5t252 -253t100.5 -313.5q0 -113 -50 -218t-148.5 -171.5t-231.5 -66.5q-111 0 -166 36.5 t-55 94.5q0 55 27.5 88t80.5 33q92 0 111 -113q8 -49 19 -73.5t38 -24.5q74 0 114 78.5t40 201.5q0 190 -90.5 379t-230.5 307.5t-279 118.5h-17v-481q0 -61 11.5 -91t44 -40t102.5 -10q6 0 6 -12.5t-6 -12.5q-72 0 -115 2l-170 2l-149 -2q-41 -2 -111 -2q-6 0 -6 12.5z" />
<glyph unicode="&#x4c4;" horiz-adv-x="958" d="M35 12.5q0 12.5 6 12.5q49 0 72.5 10t32 39.5t8.5 91.5v459q0 61 -8.5 90.5t-31 40t-71.5 10.5q-4 0 -4 12.5t4 12.5q57 0 88 -3l121 -2l115 2q33 2 88 3q6 0 6 -12.5t-6 -12.5q-68 0 -89.5 -28.5t-21.5 -116.5v-175q51 6 111 7q35 0 80 90q80 160 137 214t125 54 q59 0 88.5 -27.5t29.5 -72.5q0 -47 -26.5 -76t-77.5 -29q-31 0 -63 17q-33 16 -60 16q-33 0 -54.5 -21.5t-55.5 -91.5q-31 -55 -54 -77q170 -19 273.5 -118.5t103.5 -240.5q0 -145 -107.5 -271t-258.5 -214l-5 -2q-8 0 -12 7t0 11q84 90 128 175t44 220q0 180 -79 286 t-210 106q-16 0 -57 -5v-237q0 -61 8 -91t32 -40t71 -10q6 0 6 -12.5t-6 -12.5q-57 0 -88 2l-115 2l-119 -2q-33 -2 -92 -2q-6 0 -6 12.5z" />
<glyph unicode="&#x4c5;" d="M-16 12.5q0 12.5 8 12.5q57 0 96 23.5t78 84t92 178.5l444 977q4 6 19 6q16 0 18 -6l512 -1007q72 -145 119 -200.5t94 -55.5q6 0 10.5 -5.5t4.5 -9.5q0 -10 -51.5 -81.5t-145.5 -311.5q-2 -6 -10 -6q-6 0 -11.5 4t-3.5 8q57 139 58 223q0 78 -51.5 116t-163.5 38h-129 q-6 0 -6 12.5t6 12.5q55 0 80.5 10t25.5 41q0 41 -41 117l-405 800l-318 -702q-27 -59 -26 -111q0 -74 52 -114.5t140 -40.5q10 0 10 -12.5t-10 -12.5q-37 0 -106 4q-78 4 -135 4q-55 0 -134 -4q-70 -4 -112 -4q-8 0 -8 12.5z" />
<glyph unicode="&#x4c6;" horiz-adv-x="899" d="M-22.5 12.5q-0.5 12.5 10.5 12.5q37 0 79 52t103 193l238 551q4 8 12 8t12 -8l254 -540q49 -111 80 -163t55.5 -72.5t57.5 -20.5q22 -1 22 -21q0 -8 -6 -20.5t-18 -30.5q-82 -143 -146 -268q-4 -4 -8 -4q-6 0 -11 4t-3 8q55 111 55 184q0 123 -152 123h-129q-4 0 -4 12.5 t4 12.5q59 0 60 49q0 37 -31 98l-172 367l-123 -287q-37 -86 -37 -139q0 -88 99 -88q10 0 10 -12.5t-10 -12.5q-23 0 -64 4t-78 4q-43 0 -84 -4q-37 -4 -65 -4q-10 0 -10.5 12.5z" />
<glyph unicode="&#x4c7;" horiz-adv-x="1583" d="M57 12.5q0 12.5 4 12.5q72 0 105 10t45 39.5t12 91.5v948q0 61 -12 90t-44 40t-101 11q-6 0 -6.5 12.5t6.5 12.5l110 -2q94 -4 152 -4q78 0 180 4l113 2q4 0 4 -12.5t-4 -12.5q-74 0 -109 -12t-48 -42t-13 -91v-416h661v416q0 61 -12.5 91t-47 42t-110.5 12q-6 0 -6 12.5 t6 12.5l100 -2q102 -4 185 -4q55 0 157 4l115 2q6 0 6 -12.5t-6 -12.5q-70 0 -103.5 -11t-45 -39.5t-11.5 -90.5v-1122q0 -231 -112.5 -359.5t-317.5 -128.5q-78 0 -127 33t-49 90q0 41 27.5 73t81.5 32q51 0 76.5 -30t48.5 -85q16 -37 28.5 -53.5t30.5 -16.5q43 0 64.5 72 t21.5 236v782h-661v-471q0 -61 12 -91t47 -40t111 -10q4 0 4 -12.5t-4 -12.5q-72 0 -115 2l-178 2l-154 -2q-41 -2 -113 -2q-4 0 -4 12.5z" />
<glyph unicode="&#x4c8;" horiz-adv-x="1085" d="M59.5 12.5q-0.5 12.5 6.5 12.5q49 0 72.5 10t31.5 39.5t8 91.5v459q0 61 -8 90.5t-31.5 40t-70.5 10.5q-6 0 -6.5 12.5t6.5 12.5q57 0 88 -3l120 -2l115 2q33 2 88 3q4 0 4 -12.5t-4 -12.5q-47 0 -70.5 -12.5t-31.5 -42t-8 -90.5v-201h360v205q0 61 -8 90.5t-31.5 40 t-71.5 10.5q-6 0 -6 12.5t6 12.5q57 0 89 -3l120 -2l115 2q33 2 88 3q4 0 4 -12.5t-4 -12.5q-47 0 -70.5 -12.5t-31.5 -42t-8 -90.5v-719q0 -137 -34 -225.5t-113 -147.5t-218 -107q-4 -2 -9 9.5t1 13.5q100 33 141 130t41 280v516h-360v-205q0 -61 8 -91t30.5 -40t71.5 -10 q4 0 4 -12.5t-4 -12.5q-57 0 -88 2l-115 2l-118 -2q-33 -2 -92 -2q-6 0 -6.5 12.5z" />
<glyph unicode="&#x4c9;" horiz-adv-x="1564" d="M57 12.5q0 12.5 4 12.5q72 0 105 10t45 39.5t12 91.5v948q0 61 -12 90t-44 40t-101 11q-6 0 -6.5 12.5t6.5 12.5l110 -2q94 -4 152 -4q78 0 180 4l113 2q4 0 4 -12.5t-4 -12.5q-74 0 -109 -12t-48 -42t-13 -91v-416h661v416q0 61 -12.5 91t-47 42t-110.5 12q-6 0 -6 12.5 t6 12.5l100 -2q102 -4 185 -4q55 0 157 4l115 2q6 0 6 -12.5t-6 -12.5q-70 0 -103.5 -11t-45 -39.5t-11.5 -90.5v-948q0 -76 6.5 -101.5t30 -32.5t94.5 -7q27 0 27 -21q0 -8 -49 -72.5t-148 -314.5q-2 -6 -10 -6q-6 0 -11 4t-3 8q57 139 57 223q0 78 -51 116t-164 38h-176 q-6 0 -6 12.5t6 12.5q76 0 110.5 10t47 38.5t12.5 92.5v471h-661v-471q0 -61 12 -91t47 -40t111 -10q4 0 4 -12.5t-4 -12.5q-72 0 -115 2l-178 2l-154 -2q-41 -2 -113 -2q-4 0 -4 12.5z" />
<glyph unicode="&#x4ca;" horiz-adv-x="1095" d="M59.5 12.5q-0.5 12.5 6.5 12.5q49 0 72.5 10t31.5 39.5t8 91.5v459q0 61 -8 90.5t-31.5 40t-70.5 10.5q-6 0 -6.5 12.5t6.5 12.5q57 0 88 -3l120 -2l115 2q33 2 88 3q4 0 4 -12.5t-4 -12.5q-47 0 -70.5 -12.5t-31.5 -42t-8 -90.5v-201h360v205q0 61 -8 90.5t-31.5 40 t-71.5 10.5q-6 0 -6 12.5t6 12.5q57 0 89 -3l120 -2l115 2q33 2 88 3q4 0 4 -12.5t-4 -12.5q-47 0 -70.5 -12.5t-31.5 -42t-8 -90.5v-455q0 -63 6 -92t25.5 -39t60.5 -10q20 -1 20 -21q0 -8 -7 -21.5t-19 -33.5q-82 -143 -144 -264q-4 -4 -8 -4q-6 0 -10 4t-2 8 q53 113 53 182q0 125 -150 125h-129q-6 0 -6 12.5t6 12.5q51 0 74 10t31 38.5t8 92.5v205h-360v-205q0 -61 8 -91t30.5 -40t71.5 -10q4 0 4 -12.5t-4 -12.5q-57 0 -88 2l-115 2l-118 -2q-33 -2 -92 -2q-6 0 -6.5 12.5z" />
<glyph unicode="&#x4cb;" horiz-adv-x="1304" d="M4 1267.5q0 12.5 6 12.5q31 0 47 -2q57 -4 187 -4q104 0 194 4q27 2 68 2q4 0 4 -12.5t-4 -12.5q-59 0 -87 -12t-38 -42t-10 -91v-203q0 -172 60.5 -263t164.5 -91q135 0 256 90v467q0 61 -9 91t-37 42t-87 12q-6 0 -6 12.5t6 12.5l104 -2q94 -4 156 -4q57 0 151 4l111 2 q4 0 4 -12.5t-4 -12.5q-72 0 -104.5 -11t-45 -39.5t-12.5 -90.5v-948q0 -63 12.5 -92t47.5 -39t112 -10q4 0 4 -12.5t-4 -12.5h-178q-170 0 -260 -98.5t-90 -284.5q0 -10 -11.5 -10t-11.5 10q0 190 -4 305q-2 31 -2 78q0 16 4 20.5t23 4.5q72 0 95.5 7t29.5 32.5t6 101.5 v444q-141 -106 -303 -106q-180 0 -293 90t-113 242v278q0 61 -9 90t-36.5 40t-87.5 11q-6 0 -6 12.5z" />
<glyph unicode="&#x4cc;" horiz-adv-x="899" d="M14 778.5q0 12.5 4 12.5q45 0 70 -3l92 -2l94 2q27 2 74 3q4 0 4 -12.5t-4 -12.5q-49 0 -63.5 -28.5t-14.5 -116.5v-56q0 -102 26 -147t83 -45q31 0 75 16.5t81 42.5v193q0 61 -6.5 90.5t-24 40t-55.5 10.5q-6 0 -6.5 12.5t6.5 12.5q49 0 77 -3l107 -2l115 2q33 2 88 3 q6 0 6 -12.5t-6 -12.5q-68 0 -89.5 -28.5t-21.5 -116.5v-455q0 -61 8 -91t31.5 -40t73.5 -10q6 0 6 -12.5t-6 -12.5h-107q-141 0 -215 -73.5t-74 -213.5q0 -10 -11 -10t-11 10q0 98 -14 213q-6 43 -7 74q0 18 3.5 21.5t21.5 3.5q66 0 88.5 27.5t22.5 113.5v223 q-123 -117 -252 -117q-96 0 -148.5 62.5t-52.5 185.5v105q0 61 -5 90.5t-17.5 40t-41.5 10.5q-4 0 -4 12.5z" />
<glyph unicode="&#x4cd;" horiz-adv-x="1755" d="M49 12.5q0 12.5 6 12.5q84 0 133.5 63.5t51.5 171.5l18 848l-2 2q-41 76 -85 110.5t-101 34.5q-6 0 -6.5 12.5t6.5 12.5l96 -2q29 -2 74 -2l108 2q18 2 47 2q27 0 41.5 -18.5t52.5 -87.5l447 -838l389 893q12 29 25.5 40t35.5 11q18 0 42 -2t55 -2l121 2q29 2 82 2 q6 0 6 -12.5t-6 -12.5q-96 0 -139.5 -38.5t-39.5 -120.5l49 -930q4 -76 12.5 -101.5t32 -32.5t95.5 -7q26 -1 26 -21q0 -8 -49 -72.5t-147 -314.5q-2 -6 -10 -6q-6 0 -11.5 4t-3.5 8q57 139 58 223q0 78 -51.5 116t-164.5 38h-176q-6 0 -6 12.5t6 12.5q68 0 103 8t48 30.5 t13 65.5l-2 37l-43 838l-422 -990q-4 -8 -16 -8t-17 8l-518 985l-16 -739q-2 -111 44 -173t130 -62q6 0 6 -12.5t-6 -12.5q-55 0 -86 2l-113 2l-129 -2q-33 -2 -88 -2q-6 0 -6 12.5z" />
<glyph unicode="&#x4ce;" horiz-adv-x="1161" d="M18.5 12.5q-0.5 12.5 6.5 12.5q63 0 96 47t39 141l43 584q0 6 12 11t27 5q20 0 26 -10l344 -580l279 580q4 6 18 6q12 0 25.5 -5t13.5 -9l74 -629q8 -68 16.5 -94.5t28.5 -36.5t68 -10q18 -1 18 -21q0 -8 -6 -20.5t-19 -30.5q-82 -143 -145 -268q-4 -4 -8 -4 q-6 0 -11.5 4t-2.5 8q55 111 55 184q0 123 -152 123h-104q-6 0 -6 12.5t6 12.5q41 0 58.5 16t17.5 63q0 12 -5 54l-40 338l-238 -496q-2 -8 -14 -8q-14 0 -17 8l-297 504l-22 -291q-12 -188 139 -188q6 0 6 -12.5t-6 -12.5q-47 0 -74 2l-88 2l-86 -2q-25 -2 -69 -2 q-6 0 -6.5 12.5z" />
<glyph unicode="&#x4cf;" horiz-adv-x="548" d="M33 1341l301 142l8 2q10 0 22.5 -9.5t12.5 -17.5v-1292q0 -82 22.5 -111.5t85.5 -29.5q8 0 8.5 -12.5t-8.5 -12.5q-51 0 -82 2l-124 2l-123 -2q-31 -2 -84 -2q-4 0 -4 12.5t4 12.5q63 0 86.5 29.5t23.5 111.5l2 1040q0 72 -13 102.5t-46 30.5q-27 0 -78 -22h-2 q-6 0 -11 11t-1 13z" />
<glyph unicode="&#x4d0;" d="M-16 12.5q0 12.5 8 12.5q57 0 96 23.5t78 84t92 178.5l444 977q4 6 19 6q16 0 18 -6l512 -1007q72 -145 119 -200.5t98 -55.5q11 0 11 -12.5t-11 -12.5q-41 0 -127 4q-90 4 -129 4q-51 0 -125 -4q-70 -4 -110 -4q-8 0 -8 12.5t8 12.5q53 0 76.5 11t23.5 40q0 35 -41 117 l-213 419h-364l-146 -321q-27 -59 -26 -111q0 -74 52 -114.5t140 -40.5q10 0 10 -12.5t-10 -12.5q-37 0 -106 4q-78 4 -135 4q-55 0 -134 -4q-70 -4 -112 -4q-8 0 -8 12.5zM422 1559q0 37 23.5 59t66.5 22q47 0 65.5 -27.5t34.5 -86.5q18 -63 40 -93t71 -30q51 0 74.5 31.5 t44.5 93.5q18 57 37.5 84.5t62.5 27.5t65.5 -22.5t22.5 -58.5q0 -51 -43 -95.5t-112.5 -70t-149.5 -25.5q-78 0 -147.5 26.5t-112.5 70.5t-43 94zM485 670h310l-164 323z" />
<glyph unicode="&#x4d1;" horiz-adv-x="862" d="M82 117q0 47 23.5 75.5t67.5 48t140 52.5l209 67v162q0 123 -24.5 181.5t-79.5 58.5q-49 0 -78 -37t-35 -121q-12 -115 -121 -115q-96 0 -96 84q0 55 69.5 110.5t168 90.5t172.5 35q96 0 156.5 -57.5t60.5 -167.5v-363q0 -59 21.5 -92t60.5 -33q29 0 59 15h2q8 0 11 -9.5 t-5 -13.5l-211 -100q-8 -4 -20 -4q-31 0 -60.5 30.5t-42.5 83.5l-94 -51q-53 -27 -110.5 -44t-102.5 -17q-66 0 -103.5 33.5t-37.5 97.5zM133 1153q0 37 22.5 58.5t65.5 21.5q39 0 58.5 -17.5t27.5 -41t17 -68.5q8 -53 29.5 -83t82.5 -30t88 32t35 89q12 61 29.5 90t66.5 29 q41 0 63.5 -21.5t22.5 -58.5q0 -51 -43 -96t-112.5 -70.5t-147.5 -25.5q-80 0 -150.5 26.5t-112.5 70.5t-42 95zM307 180q0 -43 24.5 -67.5t61.5 -24.5q45 0 105 29l26 14q-2 14 -2 43v152l-112 -41q-55 -20 -79 -45t-24 -60z" />
<glyph unicode="&#x4d2;" d="M-16 12.5q0 12.5 8 12.5q57 0 96 23.5t78 84t92 178.5l444 977q4 6 19 6q16 0 18 -6l512 -1007q72 -145 119 -200.5t98 -55.5q11 0 11 -12.5t-11 -12.5q-41 0 -127 4q-90 4 -129 4q-51 0 -125 -4q-70 -4 -110 -4q-8 0 -8 12.5t8 12.5q53 0 76.5 11t23.5 40q0 35 -41 117 l-213 419h-364l-146 -321q-27 -59 -26 -111q0 -74 52 -114.5t140 -40.5q10 0 10 -12.5t-10 -12.5q-37 0 -106 4q-78 4 -135 4q-55 0 -134 -4q-70 -4 -112 -4q-8 0 -8 12.5zM436 1552q0 49 31 78t82 29t78.5 -28.5t27.5 -78.5q0 -53 -27.5 -82.5t-78.5 -29.5q-53 0 -83 29.5 t-30 82.5zM485 670h310l-164 323zM795 1552q0 49 29.5 77t80.5 28t79 -27.5t28 -77.5q0 -53 -28 -82.5t-79 -29.5q-53 0 -81.5 29.5t-28.5 82.5z" />
<glyph unicode="&#x4d3;" horiz-adv-x="862" d="M82 117q0 47 23.5 75.5t67.5 48t140 52.5l209 67v162q0 123 -24.5 181.5t-79.5 58.5q-49 0 -78 -37t-35 -121q-12 -115 -121 -115q-96 0 -96 84q0 55 69.5 110.5t168 90.5t172.5 35q96 0 156.5 -57.5t60.5 -167.5v-363q0 -59 21.5 -92t60.5 -33q29 0 59 15h2q8 0 11 -9.5 t-5 -13.5l-211 -100q-8 -4 -20 -4q-31 0 -60.5 30.5t-42.5 83.5l-94 -51q-53 -27 -110.5 -44t-102.5 -17q-66 0 -103.5 33.5t-37.5 97.5zM150 1063q0 49 30.5 77.5t81.5 28.5t79 -28.5t28 -77.5q0 -53 -28 -83t-79 -30q-53 0 -82.5 30t-29.5 83zM307 180q0 -43 24.5 -67.5 t61.5 -24.5q45 0 105 29l26 14q-2 14 -2 43v152l-112 -41q-55 -20 -79 -45t-24 -60zM508 1063q0 49 29.5 76.5t80.5 27.5t79 -27.5t28 -76.5q0 -53 -27.5 -83t-79.5 -30q-53 0 -81.5 30t-28.5 83z" />
<glyph unicode="&#x4d4;" horiz-adv-x="1818" d="M-24.5 12.5q-0.5 12.5 10.5 12.5q86 0 156.5 55t158.5 190l590 906q27 37 27 51q0 18 -34 23t-124 5q-6 0 -6 12.5t6 12.5h880q20 0 21 -18l4 -273q0 -4 -11.5 -6t-13.5 4q-12 47 -55 102.5t-105.5 93.5t-131.5 38h-86q-59 0 -88 -27t-29 -82v-418h170q119 0 181.5 41 t62.5 115q0 6 12 6t12 -6l-2 -184q0 -66 2 -99l2 -110q0 -4 -11 -4t-11 4q0 84 -64.5 132t-185.5 48h-168v-463q0 -59 22.5 -88t71.5 -29h90q76 0 155 37t138 99.5t82 132.5q0 4 6 4t11 -2t5 -6q-18 -180 -18 -291q0 -16 -7 -23.5t-24 -7.5h-895q-4 0 -4 12.5t4 12.5 q66 0 95.5 10t41 39.5t11.5 91.5v471h-307l-226 -354q-53 -82 -53 -148q0 -53 39 -81.5t113 -28.5q10 0 10 -12.5t-10 -12.5q-43 0 -125 4q-94 4 -164 4q-51 0 -121 -4q-61 -4 -100 -4q-10 0 -10.5 12.5zM659 694h271v426z" />
<glyph unicode="&#x4d5;" horiz-adv-x="1206" d="M57 584q0 45 57.5 98t141.5 90t158 37q70 0 124 -29.5t87 -83.5q125 113 299 113q121 0 185.5 -57.5t64.5 -163.5q0 -23 -6.5 -32t-24.5 -9h-166l-281 -4q-6 -45 -6 -103q0 -180 65.5 -275t192.5 -95q137 0 221 63l5 2q4 0 9 -8t1 -12q-78 -74 -154 -107t-170 -33 q-215 0 -311 140l-125 -68q-117 -61 -213 -61q-66 0 -103.5 33.5t-37.5 97.5q0 47 23.5 75.5t67.5 48t140 52.5l180 57q-6 170 -13 248t-29.5 122t-69.5 44q-51 0 -76 -41t-25 -127q0 -41 -22.5 -71.5t-81.5 -30.5q-106 0 -107 90zM307 180q0 -41 24.5 -65.5t63.5 -24.5 q37 0 90 27l47 24q-41 72 -49 174l-86 -30q-47 -18 -68.5 -44t-21.5 -61zM702 584l250 8q0 86 -25.5 131t-70.5 45q-57 0 -97 -48t-57 -136z" />
<glyph unicode="&#x4d6;" horiz-adv-x="1130" d="M78 12.5q0 12.5 6 12.5q66 0 95.5 10t39.5 39.5t10 91.5v948q0 61 -10 90t-41 40t-94 11q-6 0 -6 12.5t6 12.5h868q20 0 21 -18l4 -273q0 -4 -11.5 -6t-13.5 4q-33 119 -110.5 176.5t-204.5 57.5h-62q-61 0 -89.5 -27t-28.5 -82v-418h170q119 0 182 41t63 115q0 6 11.5 6 t11.5 -6l-2 -184l2 -99q4 -70 4 -110q0 -4 -12.5 -4t-12.5 4q0 84 -64.5 132t-184.5 48h-168v-463q0 -59 22.5 -88t71.5 -29h67q160 0 256.5 65.5t141.5 203.5q0 4 8 4q6 0 11 -3t5 -5q-20 -160 -20 -291q0 -16 -6 -23.5t-25 -7.5h-905q-6 0 -6 12.5zM307 1559q0 37 23.5 59 t66.5 22q47 0 65.5 -27.5t35.5 -86.5q18 -63 39.5 -93t70.5 -30q51 0 75 31.5t44 93.5q18 57 37.5 84.5t62.5 27.5t65.5 -22.5t22.5 -58.5q0 -51 -43 -95.5t-112.5 -70t-149.5 -25.5q-78 0 -147.5 26.5t-112.5 70.5t-43 94z" />
<glyph unicode="&#x4d7;" horiz-adv-x="856" d="M66 371q0 119 61 220t167.5 159.5t237.5 58.5q127 0 195 -54.5t68 -148.5q0 -59 -23 -59h-125l-368 -4q-6 -39 -7 -86q0 -176 83 -278.5t229 -102.5q51 0 106 14t101 43l4 2q4 0 9 -8t1 -12q-76 -74 -154 -107t-170 -33q-129 0 -223 54.5t-143 145.5t-49 196zM176 1153 q0 37 22.5 58.5t65.5 21.5q39 0 58.5 -17.5t27.5 -41t17 -68.5q8 -53 29.5 -83t82.5 -30t88 32t35 89q12 61 29.5 90t66.5 29q41 0 63.5 -21.5t22.5 -58.5q0 -51 -43 -96t-112.5 -70.5t-147.5 -25.5q-80 0 -150.5 26.5t-112.5 70.5t-42 95zM285 584l290 6q-6 178 -118 178 q-62 0 -107 -49t-65 -135z" />
<glyph unicode="&#x4d8;" horiz-adv-x="1308" d="M68 334q0 14 5 19t17 5l850 4q20 96 21 228q0 295 -106.5 480t-315.5 185q-137 0 -247 -82.5t-161 -238.5q0 -4 -8 -4q-6 0 -11.5 3t-2.5 5l94 389q2 8 13 6t9 -8q-2 -8 -2 -22q0 -39 33 -39q8 0 25 4q131 35 274 35q356 0 503.5 -185.5t147.5 -453.5q0 -213 -89 -369 t-240.5 -238t-335.5 -82q-160 0 -266.5 57.5t-156.5 140.5t-50 161zM313 313q12 -135 95.5 -217t203.5 -82q123 0 203 80t117 228z" />
<glyph unicode="&#x4d9;" horiz-adv-x="851" d="M59 547l86 319q2 4 11 4q6 0 11 -3t3 -5q-4 -14 -4 -35q0 -23 12 -32t39 -9q12 0 53 5q80 6 95 6q137 0 232 -55.5t143 -146.5t48 -200q0 -121 -53 -216t-151.5 -149.5t-231.5 -54.5t-208.5 55.5t-75.5 149.5q0 57 22 58l485 2q2 23 3 71q0 197 -60.5 323t-181.5 126 q-88 0 -154.5 -63.5t-97.5 -155.5q0 -2 -8 -2q-18 0 -17 8zM287 195q2 -82 41 -130.5t98 -48.5q57 0 94 47.5t49 137.5z" />
<glyph unicode="&#x4da;" horiz-adv-x="1308" d="M68 334q0 14 5 19t17 5l850 4q20 96 21 228q0 295 -106.5 480t-315.5 185q-137 0 -247 -82.5t-161 -238.5q0 -4 -8 -4q-6 0 -11.5 3t-2.5 5l94 389q2 8 13 6t9 -8q-2 -8 -2 -22q0 -39 33 -39q8 0 25 4q131 35 274 35q356 0 503.5 -185.5t147.5 -453.5q0 -213 -89 -369 t-240.5 -238t-335.5 -82q-160 0 -266.5 57.5t-156.5 140.5t-50 161zM293 1552q0 49 30.5 78t82.5 29q51 0 78.5 -28.5t27.5 -78.5q0 -53 -27.5 -82.5t-78.5 -29.5q-54 0 -83.5 29.5t-29.5 82.5zM313 313q12 -135 95.5 -217t203.5 -82q123 0 203 80t117 228zM651 1552 q0 49 30 77t81 28t78.5 -27.5t27.5 -77.5q0 -53 -27.5 -82.5t-78.5 -29.5q-53 0 -82 29.5t-29 82.5z" />
<glyph unicode="&#x4db;" horiz-adv-x="851" d="M59 547l86 319q2 4 11 4q6 0 11 -3t3 -5q-4 -14 -4 -35q0 -23 12 -32t39 -9q12 0 53 5q80 6 95 6q137 0 232 -55.5t143 -146.5t48 -200q0 -121 -53 -216t-151.5 -149.5t-231.5 -54.5t-208.5 55.5t-75.5 149.5q0 57 22 58l485 2q2 23 3 71q0 197 -60.5 323t-181.5 126 q-88 0 -154.5 -63.5t-97.5 -155.5q0 -2 -8 -2q-18 0 -17 8zM113 1063q0 49 30.5 77.5t81.5 28.5t79 -28.5t28 -77.5q0 -53 -28 -83t-79 -30q-53 0 -82.5 30t-29.5 83zM287 195q2 -82 41 -130.5t98 -48.5q57 0 94 47.5t49 137.5zM471 1063q0 49 29.5 76.5t81.5 27.5 q51 0 78.5 -27.5t27.5 -76.5q0 -53 -27.5 -83t-78.5 -30q-54 0 -82.5 30t-28.5 83z" />
<glyph unicode="&#x4dc;" horiz-adv-x="2076" d="M-24.5 12.5q-0.5 12.5 6.5 12.5q55 2 102 36.5t92 93t131 183.5l31 47q76 113 128 172t103.5 86t122.5 35l-282 348q-92 113 -191.5 171t-202.5 58q-4 0 -4 12.5t4 12.5l88 -2q86 -4 166 -4q61 0 168 4l135 2q4 0 4.5 -12.5t-4.5 -12.5q-59 0 -88.5 -25.5t-29.5 -70.5 q0 -80 92 -211l192 -266h49q84 0 140 -2v434q0 61 -12.5 90t-45 40t-102.5 11q-4 0 -4 12.5t4 12.5l113 -2q90 -4 145 -4q63 0 166 4l117 2q4 0 4 -12.5t-4 -12.5q-70 0 -102.5 -12t-45 -42t-12.5 -91v-430q53 2 139 2h49l187 256q96 133 96 221q0 45 -28.5 70.5t-86.5 25.5 q-6 0 -6 12.5t6 12.5l133 -2q106 -4 168 -4q80 0 166 4l88 2q4 0 4 -12.5t-4 -12.5q-102 0 -201.5 -58t-191.5 -171l-283 -348q74 -8 124.5 -35t101.5 -85t129 -173l30 -47q86 -125 131.5 -183.5t92.5 -93t102 -36.5q6 0 6 -12.5t-6 -12.5h-315q-25 0 -44.5 16.5t-69.5 87 t-159 240.5q-88 139 -137 198.5t-96 81t-125 21.5v-479q0 -61 11 -91t44 -40t105 -10q4 0 4 -12.5t-4 -12.5q-76 0 -119 2l-164 2l-149 -2q-39 -2 -111 -2q-4 0 -4 12.5t4 12.5q72 0 104.5 10t45 39.5t12.5 91.5v479q-78 0 -125 -21.5t-96.5 -81t-137.5 -198.5 q-109 -170 -159 -240.5t-69 -87t-44 -16.5h-315q-6 0 -6.5 12.5zM752 1552q0 49 30.5 78t81.5 29t79 -28.5t28 -78.5q0 -53 -28 -82.5t-79 -29.5q-53 0 -82.5 29.5t-29.5 82.5zM1110 1552q0 49 29.5 77t81.5 28q51 0 78.5 -27.5t27.5 -77.5q0 -53 -27.5 -82.5t-78.5 -29.5 q-54 0 -82.5 29.5t-28.5 82.5z" />
<glyph unicode="&#x4dd;" horiz-adv-x="1456" d="M-8 12.5q0 12.5 6 12.5q61 0 93 28.5t79 108.5q27 51 45 76q51 78 82 113.5t67.5 55t98.5 23.5q-31 35 -64 96q-35 70 -55 91.5t-53 21.5q-27 0 -60 -16q-37 -16 -65 -17q-51 0 -78 29t-27 76q0 45 30 72.5t89 27.5q72 0 130.5 -54.5t131.5 -213.5q27 -49 47.5 -80 t45.5 -31l98 -4v197q0 63 -9.5 91.5t-37 39t-88.5 10.5q-4 0 -4 12.5t4 12.5l118 -3q39 -2 115 -2q72 0 109 2l118 3q4 0 4.5 -12.5t-4.5 -12.5q-59 0 -86.5 -12.5t-38 -42t-10.5 -90.5v-193l99 4q41 0 92 111q74 160 132 214t130 54q59 0 89 -27.5t30 -72.5q0 -47 -27 -76 t-78 -29q-29 0 -65 17q-12 6 -25.5 11t-32.5 5q-33 0 -55 -21.5t-55 -91.5q-29 -59 -62 -96q59 -4 96 -23.5t68 -55.5t82 -113q18 -25 45 -76q47 -80 79 -108.5t93 -28.5q6 0 6 -12.5t-6 -12.5h-244q-23 0 -38 9t-44.5 51t-87.5 137q-53 88 -82.5 126.5t-59.5 54t-75 15.5 h-4v-227q0 -61 8.5 -91t32 -40t70.5 -10q6 0 6 -12.5t-6 -12.5q-57 0 -88 2l-115 2l-119 -2q-33 -2 -92 -2q-6 0 -6 12.5t6 12.5q49 0 72.5 10t32 39.5t8.5 91.5v227h-2q-47 0 -77 -15.5t-60.5 -54t-81.5 -126.5q-55 -94 -85 -135.5t-46.5 -51.5t-38.5 -10h-244 q-6 0 -6 12.5zM440 1063q0 49 31 77.5t82 28.5t78.5 -28.5t27.5 -77.5q0 -53 -27.5 -83t-78.5 -30q-53 0 -83 30t-30 83zM799 1063q0 49 29.5 76.5t80.5 27.5t79 -27.5t28 -76.5q0 -53 -27.5 -83t-79.5 -30q-53 0 -81.5 30t-28.5 83z" />
<glyph unicode="&#x4de;" horiz-adv-x="1112" d="M117 377q0 4 11 6t13 -4q16 -104 72.5 -189.5t138.5 -133.5t172 -48q109 0 165 93.5t56 228.5q0 166 -87 251t-246 85q-8 0 -8.5 12t8.5 12q147 0 220 78t73 219t-48.5 215t-142.5 74q-70 0 -139.5 -48t-122.5 -132t-80 -189q-2 -6 -12 -4t-10 6l28 291q4 25 8 33t23 14 q158 55 328 56q135 0 227 -38t138 -100.5t46 -136.5q0 -117 -100 -211t-230 -129q173 -12 279.5 -99t106.5 -224q0 -111 -72 -200t-193 -139.5t-264 -50.5q-92 0 -176 20.5t-129 57.5q-18 10 -22.5 17.5t-6.5 29.5zM266 1552q0 49 31 78t82 29t78.5 -28.5t27.5 -78.5 q0 -53 -27.5 -82.5t-78.5 -29.5q-53 0 -83 29.5t-30 82.5zM625 1552q0 49 29.5 77t80.5 28t79 -27.5t28 -77.5q0 -53 -28 -82.5t-79 -29.5q-53 0 -81.5 29.5t-28.5 82.5z" />
<glyph unicode="&#x4df;" horiz-adv-x="806" d="M86 252q0 6 10 8t15 -6q43 -109 112.5 -172.5t161.5 -63.5q68 0 102.5 48.5t34.5 134.5q0 106 -54 162.5t-177 56.5q-8 0 -10 11t10 11q111 0 157 41t46 129q0 74 -31 118t-86 44q-68 0 -126 -58.5t-114 -160.5q-2 -2 -10 -2q-16 0 -14 8l45 273q0 4 8 4q6 0 12 -3.5 t4 -5.5q-2 -8 -2 -20q0 -35 33 -35q20 0 59 14q82 29 174 29q121 0 190 -42t69 -126q0 -68 -63.5 -124t-172.5 -83q129 -8 201.5 -70.5t72.5 -162.5q0 -113 -100 -173.5t-262 -60.5q-166 0 -254 48q-14 6 -18.5 12t-6.5 22zM133 1063q0 49 31 77.5t82 28.5t78.5 -28.5 t27.5 -77.5q0 -53 -27.5 -83t-78.5 -30q-53 0 -83 30t-30 83zM492 1063q0 49 29.5 76.5t80.5 27.5t79 -27.5t28 -76.5q0 -53 -28 -83t-79 -30q-53 0 -81.5 30t-28.5 83z" />
<glyph unicode="&#x4e0;" horiz-adv-x="1134" d="M117 377q0 4 11 6t13 -4q18 -102 78 -187.5t143.5 -134.5t172.5 -49q121 0 177 92.5t56 229.5q0 176 -90 268t-252 92q-8 0 -10 9.5t6 15.5l346 514q8 10 7 13t-15 3q-180 0 -289 -17.5t-190.5 -74.5t-139.5 -174q-2 -2 -8 -2q-18 0 -16 8l82 356q0 2 8 2q20 0 16 -6 q-2 -6 -2 -16q0 -25 23.5 -33t95.5 -8h676q8 0 13 -10t1 -17l-379 -532q170 -23 273.5 -118t103.5 -238q0 -111 -71.5 -200t-193.5 -139.5t-269 -50.5q-94 0 -184.5 20.5t-139.5 57.5q-18 10 -22.5 17.5t-6.5 29.5z" />
<glyph unicode="&#x4e1;" horiz-adv-x="806" d="M-10 -420q0 53 30.5 79t73.5 26q57 0 85 -27t54 -82q27 -55 56.5 -84t93.5 -29q84 0 122 111t38 262q0 197 -74 308.5t-252 111.5q-6 0 -9 7t1 16l315 466q8 14 -10 15q-188 0 -310 -53.5t-163 -163.5q0 -2 -8 -2q-18 0 -17 8l86 321q0 2 9 2q18 0 16 -8q-4 -10 -4 -26 q0 -27 24.5 -37t79.5 -10h521q8 0 14 -8.5t2 -16.5l-332 -483q107 -2 184.5 -58.5t117.5 -146.5t40 -191q0 -131 -57.5 -236.5t-159.5 -165.5t-235 -60q-147 0 -239.5 39.5t-92.5 115.5z" />
<glyph unicode="&#x4e2;" horiz-adv-x="1566" d="M59.5 1267.5q-0.5 12.5 6.5 12.5l114 -2q102 -4 158 -4q82 0 184 4l101 2q6 0 6 -12.5t-6 -12.5q-76 0 -111 -11t-47 -39.5t-12 -90.5v-846l819 1026q6 6 31 6q14 0 26 -4t12 -10v-1120q0 -61 12.5 -91t45.5 -40t102 -10q6 0 6 -12.5t-6 -12.5q-72 0 -115 2l-157 2 l-185 -2q-37 -2 -100 -2q-6 0 -6 12.5t6 12.5q76 0 111 10t47 38.5t12 92.5v838l-819 -1027q-6 -6 -31 -6q-39 0 -39 15v1128q0 61 -12 90t-45 40t-102 11q-6 0 -6.5 12.5zM530 1499q0 14 6.5 25.5t14.5 11.5h514q10 0 16 -11.5t6 -25.5q0 -16 -6 -27.5t-16 -11.5h-514 q-8 0 -14.5 11.5t-6.5 27.5z" />
<glyph unicode="&#x4e3;" horiz-adv-x="1095" d="M59.5 12.5q-0.5 12.5 6.5 12.5q49 0 72.5 10t31.5 39.5t8 91.5v459q0 61 -8 90.5t-31.5 40t-70.5 10.5q-6 0 -6.5 12.5t6.5 12.5q57 0 88 -3l120 -2l115 2q33 2 88 3q4 0 4 -12.5t-4 -12.5q-47 0 -70.5 -12.5t-31.5 -42t-8 -90.5v-369l360 360v13q0 61 -8 90.5t-31.5 40 t-71.5 10.5q-6 0 -6 12.5t6 12.5q57 0 89 -3l120 -2l115 2q33 2 88 3q4 0 4 -12.5t-4 -12.5q-47 0 -70.5 -12.5t-31.5 -42t-8 -90.5v-455q0 -61 8 -91t30.5 -40t71.5 -10q4 0 4 -12.5t-4 -12.5q-57 0 -88 2l-115 2l-120 -2q-33 -2 -91 -2q-6 0 -6 12.5t6 12.5q49 0 73 10 t32 39.5t8 91.5v375l-360 -363v-12q0 -61 8 -91t30.5 -40t71.5 -10q4 0 4 -12.5t-4 -12.5q-57 0 -88 2l-115 2l-118 -2q-33 -2 -92 -2q-6 0 -6.5 12.5zM270 1010q0 14 6.5 25.5t14.5 11.5h514q10 0 16 -11.5t6 -25.5q0 -16 -6 -27.5t-16 -11.5h-514q-8 0 -14.5 11t-6.5 28z " />
<glyph unicode="&#x4e4;" horiz-adv-x="1566" d="M59.5 1267.5q-0.5 12.5 6.5 12.5l114 -2q102 -4 158 -4q82 0 184 4l101 2q6 0 6 -12.5t-6 -12.5q-76 0 -111 -11t-47 -39.5t-12 -90.5v-846l819 1026q6 6 31 6q14 0 26 -4t12 -10v-1120q0 -61 12.5 -91t45.5 -40t102 -10q6 0 6 -12.5t-6 -12.5q-72 0 -115 2l-157 2 l-185 -2q-37 -2 -100 -2q-6 0 -6 12.5t6 12.5q76 0 111 10t47 38.5t12 92.5v838l-819 -1027q-6 -6 -31 -6q-39 0 -39 15v1128q0 61 -12 90t-45 40t-102 11q-6 0 -6.5 12.5zM520 1552q0 49 31 78t82 29t78.5 -28.5t27.5 -78.5q0 -53 -27.5 -82.5t-78.5 -29.5q-53 0 -83 29.5 t-30 82.5zM879 1552q0 49 29.5 77t80.5 28t79 -27.5t28 -77.5q0 -53 -28 -82.5t-79 -29.5q-53 0 -81.5 29.5t-28.5 82.5z" />
<glyph unicode="&#x4e5;" horiz-adv-x="1095" d="M59.5 12.5q-0.5 12.5 6.5 12.5q49 0 72.5 10t31.5 39.5t8 91.5v459q0 61 -8 90.5t-31.5 40t-70.5 10.5q-6 0 -6.5 12.5t6.5 12.5q57 0 88 -3l120 -2l115 2q33 2 88 3q4 0 4 -12.5t-4 -12.5q-47 0 -70.5 -12.5t-31.5 -42t-8 -90.5v-369l360 360v13q0 61 -8 90.5t-31.5 40 t-71.5 10.5q-6 0 -6 12.5t6 12.5q57 0 89 -3l120 -2l115 2q33 2 88 3q4 0 4 -12.5t-4 -12.5q-47 0 -70.5 -12.5t-31.5 -42t-8 -90.5v-455q0 -61 8 -91t30.5 -40t71.5 -10q4 0 4 -12.5t-4 -12.5q-57 0 -88 2l-115 2l-120 -2q-33 -2 -91 -2q-6 0 -6 12.5t6 12.5q49 0 73 10 t32 39.5t8 91.5v375l-360 -363v-12q0 -61 8 -91t30.5 -40t71.5 -10q4 0 4 -12.5t-4 -12.5q-57 0 -88 2l-115 2l-118 -2q-33 -2 -92 -2q-6 0 -6.5 12.5zM260 1063q0 49 31 77.5t82 28.5t78.5 -28.5t27.5 -77.5q0 -53 -27.5 -83t-78.5 -30q-54 0 -83.5 30t-29.5 83zM618 1063 q0 49 30 76.5t81 27.5t79 -27.5t28 -76.5q0 -53 -28 -83t-79 -30q-53 0 -82 30t-29 83z" />
<glyph unicode="&#x4e6;" horiz-adv-x="1568" d="M100 639q0 211 106.5 361.5t273.5 226.5t341 76q195 0 342.5 -91.5t226 -241t78.5 -317.5q0 -186 -98 -341.5t-263 -246t-357 -90.5q-191 0 -339.5 89.5t-229.5 242t-81 332.5zM352 715q0 -199 60.5 -355.5t166 -244.5t238.5 -88q115 0 206 66.5t142.5 194.5t51.5 306 q0 188 -57.5 336.5t-166 232.5t-254.5 84q-186 0 -286.5 -140t-100.5 -392zM506 1552q0 49 30.5 78t81.5 29t79 -28.5t28 -78.5q0 -53 -27.5 -82.5t-79.5 -29.5q-53 0 -82.5 29.5t-29.5 82.5zM864 1552q0 49 30 77t81 28t78.5 -27.5t27.5 -77.5q0 -53 -27.5 -82.5 t-78.5 -29.5q-53 0 -82 29.5t-29 82.5z" />
<glyph unicode="&#x4e7;" horiz-adv-x="1001" d="M66 406q0 133 67.5 226t172 139t214.5 46q127 0 221.5 -59.5t144.5 -156.5t50 -208q0 -123 -61.5 -218t-165 -148.5t-224.5 -53.5q-127 0 -222 58.5t-146 158t-51 216.5zM215 1063q0 49 30.5 77.5t82.5 28.5q51 0 78.5 -28.5t27.5 -77.5q0 -53 -27.5 -83t-78.5 -30 q-54 0 -83.5 30t-29.5 83zM287 481q0 -137 34.5 -242.5t94 -164t131.5 -58.5q80 0 122 79t42 227q0 143 -37 245.5t-96.5 154.5t-126.5 52q-164 0 -164 -293zM573 1063q0 49 30 76.5t81 27.5t79 -27.5t28 -76.5q0 -53 -28 -83t-79 -30q-53 0 -82 30t-29 83z" />
<glyph unicode="&#x4e8;" horiz-adv-x="1568" d="M100 639q0 211 106.5 361.5t273.5 226.5t341 76q195 0 342.5 -91.5t226 -241t78.5 -317.5q0 -186 -98 -341.5t-263 -246t-357 -90.5q-190 0 -339 89.5t-230 242t-81 332.5zM352 688h860q-23 250 -147.5 404.5t-325.5 154.5q-186 0 -286.5 -140t-100.5 -392v-27zM354 631 q12 -176 76 -313.5t164 -214t223 -76.5q115 0 206 66.5t142.5 194.5t51.5 306v37h-863z" />
<glyph unicode="&#x4e9;" horiz-adv-x="1001" d="M66 406q0 133 67.5 226t172 139t214.5 46q127 0 221.5 -59.5t144.5 -156.5t50 -208q0 -123 -61.5 -218t-165 -148.5t-224.5 -53.5q-127 0 -222 58.5t-146 158t-51 216.5zM287 481q0 -41 2 -61h418q-18 168 -91 261t-165 93q-164 0 -164 -293zM293 371q20 -162 90 -258.5 t164 -96.5q80 0 122 79t42 227q0 33 -2 49h-416z" />
<glyph unicode="&#x4ea;" horiz-adv-x="1568" d="M100 639q0 211 106.5 361.5t273.5 226.5t341 76q195 0 342.5 -91.5t226 -241t78.5 -317.5q0 -186 -98 -341.5t-263 -246t-357 -90.5q-190 0 -339 89.5t-230 242t-81 332.5zM352 688h860q-23 250 -147.5 404.5t-325.5 154.5q-186 0 -286.5 -140t-100.5 -392v-27zM354 631 q12 -176 76 -313.5t164 -214t223 -76.5q115 0 206 66.5t142.5 194.5t51.5 306v37h-863zM506 1552q0 49 30.5 78t81.5 29t79 -28.5t28 -78.5q0 -53 -27.5 -82.5t-79.5 -29.5q-53 0 -82.5 29.5t-29.5 82.5zM864 1552q0 49 30 77t81 28t78.5 -27.5t27.5 -77.5 q0 -53 -27.5 -82.5t-78.5 -29.5q-53 0 -82 29.5t-29 82.5z" />
<glyph unicode="&#x4eb;" horiz-adv-x="1001" d="M66 406q0 133 67.5 226t172 139t214.5 46q127 0 221.5 -59.5t144.5 -156.5t50 -208q0 -123 -61.5 -218t-165 -148.5t-224.5 -53.5q-127 0 -222 58.5t-146 158t-51 216.5zM211 1063q0 49 30.5 77.5t82.5 28.5q51 0 78.5 -28.5t27.5 -77.5q0 -53 -27.5 -83t-78.5 -30 q-54 0 -83.5 30t-29.5 83zM287 481q0 -41 2 -61h418q-18 168 -91 261t-165 93q-164 0 -164 -293zM293 371q20 -162 90 -258.5t164 -96.5q80 0 122 79t42 227q0 33 -2 49h-416zM569 1063q0 49 30 76.5t81 27.5t78.5 -27.5t27.5 -76.5q0 -53 -27.5 -83t-78.5 -30q-53 0 -82 30 t-29 83z" />
<glyph unicode="&#x4ec;" horiz-adv-x="1327" d="M88 365q0 6 11.5 7t13.5 -5q63 -154 191 -246t276 -92q190 0 289.5 159.5t99.5 429.5v15h-240q-104 0 -175 -59.5t-71 -145.5q0 -4 -11 -4t-11 4l2 209l-2 108q-4 78 -4 125q0 4 12 4t12 -4q0 -78 72 -129t178 -51h236q-14 260 -125 415t-289 155q-129 0 -240.5 -88.5 t-195.5 -264.5q-2 -6 -12.5 -4t-10.5 6l31 279q4 25 8 33t23 16q188 66 395 66q233 0 384.5 -87.5t221.5 -229.5t70 -310q0 -205 -99.5 -364.5t-264.5 -248t-357 -88.5q-84 0 -193.5 16.5t-167.5 39.5q-16 8 -22 17t-8 32zM266 1552q0 49 31 78t82 29t78.5 -28.5t27.5 -78.5 q0 -53 -27.5 -82.5t-78.5 -29.5q-53 0 -83 29.5t-30 82.5zM625 1552q0 49 29.5 77t80.5 28t79 -27.5t28 -77.5q0 -53 -28 -82.5t-79 -29.5q-53 0 -81.5 29.5t-28.5 82.5z" />
<glyph unicode="&#x4ed;" horiz-adv-x="933" d="M98 555l56 303q0 2 8 2q18 0 16 -8q-4 -16 -4 -23q0 -18 10.5 -27t24.5 -9q12 0 61 8q10 2 56.5 9t99.5 7q156 0 255 -63.5t144 -158.5t45 -194q0 -119 -65.5 -216t-178 -153.5t-243.5 -56.5q-66 0 -130.5 15.5t-102.5 42.5q-14 8 -18.5 14t-6.5 23l-23 182q0 6 11.5 7 t13.5 -5q59 -115 137 -175.5t158 -60.5q102 0 166.5 93.5t66.5 257.5q-219 -4 -370 -21q-14 -2 -15 43q0 23 4.5 40.5t12.5 14.5q121 -20 366 -24q-8 152 -72.5 252t-179.5 100q-74 0 -146.5 -51t-131.5 -172q-4 -4 -10 -4t-11.5 3t-3.5 5zM158 1063q0 49 30.5 77.5 t81.5 28.5t79 -28.5t28 -77.5q0 -53 -27.5 -83t-79.5 -30q-53 0 -82.5 30t-29.5 83zM516 1063q0 49 29.5 76.5t81.5 27.5q51 0 78.5 -27.5t27.5 -76.5q0 -53 -27.5 -83t-78.5 -30q-54 0 -82.5 30t-28.5 83z" />
<glyph unicode="&#x4ee;" horiz-adv-x="1280" d="M29 1267.5q0 12.5 4 12.5q45 0 63 -2q61 -4 160 -4q145 0 240 4q27 2 63 2q4 0 4 -12.5t-4 -12.5q-127 0 -127 -63q0 -25 19 -62l311 -634l242 567q18 43 18 80q0 51 -38 81.5t-105 30.5q-4 0 -4.5 12.5t4.5 12.5l92 -2q78 -4 139 -4q45 0 94 4l86 2q6 0 6 -12.5 t-6 -12.5q-59 0 -123.5 -54t-101.5 -138l-385 -895q-45 -106 -96.5 -149.5t-137.5 -43.5q-84 0 -135 37t-51 97q0 43 28.5 74.5t80.5 31.5q49 0 71.5 -25.5t38.5 -70.5q12 -29 23.5 -44.5t29.5 -15.5q20 0 41 23.5t48 83.5l30 72l-448 872q-43 82 -77 113.5t-93 31.5 q-4 0 -4 12.5zM440 1499q0 14 6.5 25.5t14.5 11.5h514q10 0 16 -11.5t6 -25.5q0 -16 -6 -27.5t-16 -11.5h-514q-8 0 -14.5 11.5t-6.5 27.5z" />
<glyph unicode="&#x4ef;" horiz-adv-x="874" d="M-80 -475q0 47 28.5 71.5t69.5 24.5q23 0 38.5 -6t37.5 -21q39 -27 74 -26q47 0 85 36t79 118.5t98 236.5l-328 662q-45 88 -70.5 116.5t-62.5 28.5q-6 0 -6 12.5t6 12.5q57 0 88 -3l86 -2l142 2q33 2 88 3q6 0 6 -12.5t-6 -12.5q-53 0 -78 -9t-25 -30q0 -16 13 -41 l241 -493l123 356q18 53 19 96q0 57 -33 89t-94 32q-4 0 -4 12.5t4 12.5q55 0 84 -3l122 -2l82 2q25 2 76 3q4 0 4 -12.5t-4 -12.5q-66 0 -114 -56.5t-87 -162.5l-227 -604q-109 -287 -208 -402.5t-220 -115.5q-61 0 -94 25.5t-33 74.5zM176 1010q0 14 6 25.5t15 11.5h514 q10 0 16 -11.5t6 -25.5q0 -16 -6 -27.5t-16 -11.5h-514q-9 0 -15 11t-6 28z" />
<glyph unicode="&#x4f0;" horiz-adv-x="1280" d="M29 1267.5q0 12.5 4 12.5q45 0 63 -2q61 -4 160 -4q145 0 240 4q27 2 63 2q4 0 4 -12.5t-4 -12.5q-127 0 -127 -63q0 -25 19 -62l311 -634l242 567q18 43 18 80q0 51 -38 81.5t-105 30.5q-4 0 -4.5 12.5t4.5 12.5l92 -2q78 -4 139 -4q45 0 94 4l86 2q6 0 6 -12.5 t-6 -12.5q-59 0 -123.5 -54t-101.5 -138l-385 -895q-45 -106 -96.5 -149.5t-137.5 -43.5q-84 0 -135 37t-51 97q0 43 28.5 74.5t80.5 31.5q49 0 71.5 -25.5t38.5 -70.5q12 -29 23.5 -44.5t29.5 -15.5q20 0 41 23.5t48 83.5l30 72l-448 872q-43 82 -77 113.5t-93 31.5 q-4 0 -4 12.5zM430 1552q0 49 31 78t82 29t78.5 -28.5t27.5 -78.5q0 -53 -27.5 -82.5t-78.5 -29.5q-54 0 -83.5 29.5t-29.5 82.5zM788 1552q0 49 30 77t81 28t79 -27.5t28 -77.5q0 -53 -28 -82.5t-79 -29.5q-53 0 -82 29.5t-29 82.5z" />
<glyph unicode="&#x4f1;" horiz-adv-x="874" d="M-80 -475q0 47 28.5 71.5t69.5 24.5q23 0 38.5 -6t37.5 -21q39 -27 74 -26q47 0 85 36t79 118.5t98 236.5l-328 662q-45 88 -70.5 116.5t-62.5 28.5q-6 0 -6 12.5t6 12.5q57 0 88 -3l86 -2l142 2q33 2 88 3q6 0 6 -12.5t-6 -12.5q-53 0 -78 -9t-25 -30q0 -16 13 -41 l241 -493l123 356q18 53 19 96q0 57 -33 89t-94 32q-4 0 -4 12.5t4 12.5q55 0 84 -3l122 -2l82 2q25 2 76 3q4 0 4 -12.5t-4 -12.5q-66 0 -114 -56.5t-87 -162.5l-227 -604q-109 -287 -208 -402.5t-220 -115.5q-61 0 -94 25.5t-33 74.5zM166 1063q0 49 30.5 77.5t82.5 28.5 q51 0 78.5 -28.5t27.5 -77.5q0 -53 -27.5 -83t-78.5 -30q-54 0 -83.5 30t-29.5 83zM524 1063q0 49 30 76.5t81 27.5t78.5 -27.5t27.5 -76.5q0 -53 -27.5 -83t-78.5 -30q-53 0 -82 30t-29 83z" />
<glyph unicode="&#x4f2;" horiz-adv-x="1280" d="M29 1267.5q0 12.5 4 12.5q45 0 63 -2q61 -4 160 -4q145 0 240 4q27 2 63 2q4 0 4 -12.5t-4 -12.5q-127 0 -127 -63q0 -25 19 -62l311 -634l242 567q18 43 18 80q0 51 -38 81.5t-105 30.5q-4 0 -4.5 12.5t4.5 12.5l92 -2q78 -4 139 -4q45 0 94 4l86 2q6 0 6 -12.5 t-6 -12.5q-59 0 -123.5 -54t-101.5 -138l-385 -895q-45 -106 -96.5 -149.5t-137.5 -43.5q-84 0 -135 37t-51 97q0 43 28.5 74.5t80.5 31.5q49 0 71.5 -25.5t38.5 -70.5q12 -29 23.5 -44.5t29.5 -15.5q20 0 41 23.5t48 83.5l30 72l-448 872q-43 82 -77 113.5t-93 31.5 q-4 0 -4 12.5zM530 1389l52 395q2 10 64.5 20.5t107.5 10.5q35 0 30 -7l-233 -424q-2 -4 -11.5 -2t-9.5 7zM817 1389l53 395q2 10 64.5 20.5t107.5 10.5q33 0 29 -7l-231 -424q-4 -4 -13.5 -2t-9.5 7z" />
<glyph unicode="&#x4f3;" horiz-adv-x="874" d="M-80 -475q0 47 28.5 71.5t69.5 24.5q23 0 38.5 -6t37.5 -21q39 -27 74 -26q47 0 85 36t79 118.5t98 236.5l-328 662q-45 88 -70.5 116.5t-62.5 28.5q-6 0 -6 12.5t6 12.5q57 0 88 -3l86 -2l142 2q33 2 88 3q6 0 6 -12.5t-6 -12.5q-53 0 -78 -9t-25 -30q0 -16 13 -41 l241 -493l123 356q18 53 19 96q0 57 -33 89t-94 32q-4 0 -4 12.5t4 12.5q55 0 84 -3l122 -2l82 2q25 2 76 3q4 0 4 -12.5t-4 -12.5q-66 0 -114 -56.5t-87 -162.5l-227 -604q-109 -287 -208 -402.5t-220 -115.5q-61 0 -94 25.5t-33 74.5zM283 975l67 491q4 8 67.5 19.5 t106.5 11.5q29 0 27 -8l-246 -518q0 -4 -8 -4q-6 0 -11 3t-3 5zM569 975l68 491q4 8 67.5 19.5t106.5 11.5q29 0 27 -8l-246 -518q0 -4 -8 -4q-6 0 -11.5 3t-3.5 5z" />
<glyph unicode="&#x4f4;" horiz-adv-x="1304" d="M4 1267.5q0 12.5 6 12.5q31 0 47 -2q57 -4 187 -4q104 0 194 4q27 2 68 2q4 0 4 -12.5t-4 -12.5q-59 0 -87 -12t-38 -42t-10 -91v-203q0 -174 60.5 -264t180.5 -90q119 0 240 68v489q0 61 -9 91t-37 42t-87 12q-6 0 -6 12.5t6 12.5l104 -2q94 -4 156 -4q57 0 151 4l111 2 q4 0 4 -12.5t-4 -12.5q-72 0 -104.5 -11t-45 -39.5t-12.5 -90.5v-948q0 -61 12.5 -91t45 -40t104.5 -10q4 0 4 -12.5t-4 -12.5q-70 0 -111 2l-151 2l-168 -2q-43 -2 -117 -2q-4 0 -4 12.5t4 12.5q72 0 103.5 10t43 38.5t11.5 92.5v422q-141 -84 -303 -84q-180 0 -293 90 t-113 242v278q0 61 -9 90t-36.5 40t-87.5 11q-6 0 -6 12.5zM342 1552q0 49 30.5 78t82.5 29q51 0 78.5 -28.5t27.5 -78.5q0 -53 -27.5 -82.5t-78.5 -29.5q-54 0 -83.5 29.5t-29.5 82.5zM700 1552q0 49 30 77t81 28t79 -27.5t28 -77.5q0 -53 -28 -82.5t-79 -29.5 q-53 0 -82 29.5t-29 82.5z" />
<glyph unicode="&#x4f5;" horiz-adv-x="929" d="M-23 676l277 131q4 2 10 2q10 0 21.5 -9t11.5 -18v-241q0 -98 31.5 -144.5t97.5 -46.5q70 0 149 43v139q0 133 -63 134q-23 0 -51 -15h-2q-8 0 -12.5 11.5t2.5 13.5l274 131l10 2q10 0 21.5 -9t11.5 -18v-616q0 -61 8 -91t30.5 -40t72.5 -10q6 0 6 -12.5t-6 -12.5 q-57 0 -89 2l-114 2l-121 -2q-33 -2 -90 -2q-6 0 -6 12.5t6 12.5q49 0 72.5 10t31.5 39.5t8 91.5v178q-117 -94 -245 -94q-102 0 -164 58.5t-62 174.5q0 88 -12 135.5t-49 47.5q-23 0 -53 -15h-2q-6 0 -10.5 11.5t-0.5 13.5zM152 1063q0 49 30.5 77.5t81.5 28.5t79 -28.5 t28 -77.5q0 -53 -28 -83t-79 -30q-53 0 -82.5 30t-29.5 83zM510 1063q0 49 29.5 76.5t81.5 27.5q51 0 78.5 -27.5t27.5 -76.5q0 -53 -27.5 -83t-78.5 -30q-54 0 -82.5 30t-28.5 83z" />
<glyph unicode="&#x4f6;" horiz-adv-x="1077" d="M55 12.5q0 12.5 4 12.5q78 0 113 10t46 38.5t11 92.5v948q0 61 -10 90t-41 40t-94 11q-6 0 -6 12.5t6 12.5h893q20 0 20 -18l4 -344q0 -6 -11 -7.5t-13 4.5q-35 158 -119 232t-221 74h-62q-61 0 -89.5 -27t-28.5 -82v-938q0 -68 17.5 -99.5t54 -40.5t108.5 -9 q18 0 22.5 -4.5t4.5 -20.5q0 -47 -2 -78q0 -35 -1.5 -103.5t-1.5 -201.5q0 -10 -12 -10t-12 10q0 186 -90 284.5t-260 98.5h-226q-4 0 -4 12.5z" />
<glyph unicode="&#x4f7;" horiz-adv-x="765" d="M59.5 12.5q-0.5 12.5 6.5 12.5q49 0 72.5 10t31.5 39.5t8 91.5v459q0 61 -8 90.5t-31.5 40t-70.5 10.5q-6 0 -6.5 12.5t6.5 12.5h628q14 0 16.5 -3.5t2.5 -15.5q-10 -205 -10 -248q0 -4 -11.5 -4t-13.5 4q-39 119 -99.5 174.5t-129.5 55.5q-47 0 -64.5 -30t-17.5 -103 v-455q0 -86 22.5 -113.5t87.5 -27.5q18 0 21.5 -3.5t3.5 -21.5q0 -31 -6 -74q-14 -115 -15 -213q0 -10 -11 -10t-11 10q0 140 -75 213.5t-214 73.5h-106q-6 0 -6.5 12.5z" />
<glyph unicode="&#x4f8;" horiz-adv-x="1812" d="M78 12.5q0 12.5 6 12.5q70 4 97.5 11t38.5 34.5t11 95.5v948q0 68 -10 94.5t-37.5 34.5t-97.5 12q-4 0 -4 12.5t4 12.5l102 -2q86 -4 156 -4q68 0 170 4l117 2q4 0 4 -12.5t-4 -12.5q-80 -4 -111 -12t-45 -36.5t-14 -96.5v-403q115 16 205 16q217 0 331.5 -85t114.5 -251 q0 -119 -59.5 -208t-165 -138t-238.5 -49q-53 0 -125 6q-27 0 -86 3t-104 3l-131 -2q-43 -2 -119 -2q-6 0 -6 12.5zM461 166q0 -61 29.5 -92t121.5 -31q142 0 201 75t59 234q0 164 -62 239t-214 75q-53 0 -135 -11v-489zM631 1552q0 49 30.5 78t81.5 29t79 -28.5t28 -78.5 q0 -53 -27.5 -82.5t-79.5 -29.5q-53 0 -82.5 29.5t-29.5 82.5zM989 1552q0 49 30 77t81 28t78.5 -27.5t27.5 -77.5q0 -53 -27.5 -82.5t-78.5 -29.5q-53 0 -82 29.5t-29 82.5zM1196 12.5q0 12.5 4 12.5q66 0 96.5 10t42 39.5t11.5 91.5v948q0 61 -11.5 90t-42 40t-96.5 11 q-4 0 -4 12.5t4 12.5l111 -2q94 -4 151 -4q63 0 158 4l104 2q6 0 6.5 -12.5t-6.5 -12.5q-63 0 -94 -12t-41 -42t-10 -91v-944q0 -63 10 -92t40 -39t95 -10q7 0 7 -12.5t-7 -12.5q-68 0 -106 2l-156 2l-151 -2q-41 -2 -111 -2q-4 0 -4 12.5z" />
<glyph unicode="&#x4f9;" horiz-adv-x="1386" d="M22.5 662.5q-4.5 11.5 2.5 13.5l274 131l10 2q10 0 21.5 -9t11.5 -18v-331q76 18 166 18q160 0 237.5 -57.5t77.5 -173.5q0 -123 -87 -194t-271 -71q-313 0 -313 205v354q0 133 -64 134q-23 0 -51 -15h-2q-8 0 -12.5 11.5zM342 238q0 -113 38 -173.5t112 -60.5 q126 0 126 193q0 227 -184 227q-43 0 -92 -12v-174zM406 1063q0 49 30.5 77.5t81.5 28.5t79 -28.5t28 -77.5q0 -53 -28 -83t-79 -30q-53 0 -82.5 30t-29.5 83zM764 1063q0 49 29.5 76.5t80.5 27.5t79 -27.5t28 -76.5q0 -53 -27.5 -83t-79.5 -30q-53 0 -81.5 30t-28.5 83z M866.5 652.5q-4.5 11.5 1.5 13.5l310 143l6 2q10 0 20 -10t10 -19v-45q-4 -82 -4 -200v-371q0 -82 23.5 -111.5t87.5 -29.5q6 0 6 -12.5t-6 -12.5q-53 0 -84 2l-123 2l-121 -2q-31 -2 -84 -2q-6 0 -6 12.5t6 12.5q63 0 86 29.5t23 111.5v366q0 70 -14.5 101t-47.5 31 q-27 0 -75 -23h-2q-8 0 -12.5 11.5z" />
<glyph unicode="&#x4fa;" horiz-adv-x="1077" d="M63.5 12.5q-0.5 12.5 6.5 12.5q72 0 104.5 10t43.5 39.5t11 91.5v442h-120q-8 0 -9 29q0 29 9 29h120v448q0 61 -10 90t-41 40t-94 11q-6 0 -6 12.5t6 12.5h893q20 0 20 -18l4 -344q0 -6 -11 -7.5t-13 4.5q-35 158 -119 232t-221 74h-62q-61 0 -89.5 -27t-28.5 -82v-446 h211q4 0 7 -9.5t3 -19.5t-3 -19.5t-7 -9.5h-211v-434q0 -70 9 -99.5t31.5 -39.5t77.5 -19q100 -14 164 -50t64 -138q0 -94 -61.5 -158.5t-188.5 -64.5q-78 0 -130 25.5t-52 74.5q0 35 25.5 61.5t70.5 26.5t60.5 -25.5t21.5 -70.5q6 -35 13 -50.5t28 -15.5q55 0 55 111 q0 123 -62.5 190.5t-158.5 67.5h-354q-6 0 -6.5 12.5z" />
<glyph unicode="&#x4fb;" horiz-adv-x="765" d="M59.5 12.5q-0.5 12.5 6.5 12.5q72 0 92 21.5t20 94.5v224h-94q-8 0 -12 8t-4 20t4 20.5t12 8.5h94v203q0 61 -8 90.5t-31.5 40t-70.5 10.5q-6 0 -6.5 12.5t6.5 12.5h628q15 0 17 -3.5t2 -15.5q-10 -205 -10 -248q0 -4 -11.5 -4t-13.5 4q-39 119 -99.5 174.5t-129.5 55.5 q-47 0 -64.5 -30t-17.5 -103v-199h135q16 0 16 -29t-16 -28h-135v-199q0 -63 14 -93t44 -39t95 -18q80 -10 118 -52t38 -128q0 -102 -54.5 -166.5t-170.5 -64.5q-78 0 -130.5 25.5t-52.5 74.5q0 35 26 61.5t71 26.5t59 -23.5t23 -72.5q4 -33 12 -49.5t28 -16.5q53 0 54 115 q0 117 -48.5 185.5t-123.5 68.5h-305q-6 0 -6.5 12.5z" />
<glyph unicode="&#x4fc;" horiz-adv-x="1325" d="M4 12.5q0 12.5 6 12.5q63 0 155.5 67.5t192.5 206.5l215 291l-333 502q-55 88 -106.5 125.5t-108.5 37.5q-6 0 -6.5 12.5t6.5 12.5l88 -2q57 -4 86 -4q72 0 178 4l117 2q4 0 4 -12.5t-4 -12.5q-70 0 -70 -34q0 -16 18 -47l275 -410l160 227q80 115 79 185q0 80 -106 79 q-4 0 -4 12.5t4 12.5l102 -2q82 -4 152 -4q43 0 96 4l86 2q6 0 6 -12.5t-6 -12.5q-66 0 -157 -68.5t-193 -207.5l-191 -258l398 -590q102 -152 102 -303q0 -143 -92 -233.5t-231 -90.5q-78 0 -127.5 33t-49.5 90q0 41 27 73t80 32q51 0 78.5 -31t50.5 -86q12 -33 24.5 -50.5 t30.5 -17.5q20 0 35.5 31t15.5 82q0 162 -122 344l-363 543l-182 -260q-80 -113 -80 -183q0 -80 106 -79q4 0 4.5 -12.5t-4.5 -12.5q-68 0 -102 2l-151 2l-97 -2q-27 -2 -86 -2q-6 0 -6 12.5z" />
<glyph unicode="&#x4fd;" horiz-adv-x="901" d="M2 12.5q0 12.5 6 12.5q63 0 135 51t136 139l94 129l-185 277q-39 68 -82 106.5t-77 38.5q-4 0 -4 12.5t4 12.5q43 0 63 -3l64 -2l143 2q33 2 92 3q4 0 4 -12.5t-4 -12.5q-45 0 -45 -31q0 -20 21 -49l118 -180l58 84q49 72 49 115q0 61 -92 61q-4 0 -4 12.5t4 12.5 q55 0 84 -3l123 -2l84 2q23 2 73 3q6 0 6 -12.5t-6 -12.5q-63 0 -135 -51t-135 -140l-82 -108l334 -504q74 -105 74 -207q0 -106 -73 -195t-243 -139q-6 -2 -10 8.5t0 14.5q145 63 145 231q0 121 -86 244l-256 385l-69 -104q-47 -68 -47 -115q0 -61 90 -61q6 0 6 -12.5 t-6 -12.5q-55 0 -82 2l-123 2l-84 -2q-23 -2 -74 -2q-6 0 -6 12.5z" />
<glyph unicode="&#x4fe;" horiz-adv-x="1325" d="M4 12.5q0 12.5 6 12.5q63 0 155.5 67.5t192.5 206.5l209 283l-26 43h-287q-8 0 -8 28q0 29 8 29h250l-264 410q-55 88 -106.5 125.5t-108.5 37.5q-6 0 -6.5 12.5t6.5 12.5l88 -2q57 -4 86 -4q72 0 178 4l117 2q4 0 4 -12.5t-4 -12.5q-70 0 -70 -34q0 -16 18 -47l271 -416 l164 233q80 115 79 185q0 80 -106 79q-4 0 -4 12.5t4 12.5l102 -2q82 -4 152 -4q43 0 96 4l86 2q6 0 6 -12.5t-6 -12.5q-66 0 -157 -68.5t-193 -207.5l-195 -266l11 -17h303q8 0 8 -28q0 -29 -8 -29h-267l304 -469q51 -76 104 -110.5t123 -34.5q6 0 6 -12.5t-6 -12.5 q-59 0 -92 2l-123 2l-168 -2q-39 -2 -109 -2q-6 0 -6 12.5t6 12.5q68 0 68 34q0 18 -18 45l-281 435l-176 -252q-80 -113 -80 -183q0 -80 106 -79q4 0 4.5 -12.5t-4.5 -12.5q-68 0 -102 2l-151 2l-97 -2q-27 -2 -86 -2q-6 0 -6 12.5z" />
<glyph unicode="&#x4ff;" horiz-adv-x="901" d="M2 12.5q0 12.5 6 12.5q63 0 135 51t136 139l94 129l-17 25h-231q-8 0 -12 8t-4 20t4 20.5t12 8.5h192l-129 195q-96 145 -159 145q-4 0 -4 12.5t4 12.5q43 0 63 -3l64 -2l143 2q33 2 92 3q4 0 4 -12.5t-4 -12.5q-45 0 -45 -31q0 -20 21 -49l118 -180l58 84q49 72 49 115 q0 61 -92 61q-4 0 -4 12.5t4 12.5q55 0 84 -3l123 -2l84 2q23 2 73 3q6 0 6 -12.5t-6 -12.5q-63 0 -135 -51t-135 -140l-82 -108l20 -31h250q8 0 13.5 -8t5.5 -20t-5 -20.5t-14 -8.5h-213l140 -209q49 -74 97 -109.5t87 -35.5q6 0 6 -12.5t-6 -12.5l-74 2q-27 2 -76 2 l-145 -2q-33 -2 -90 -2q-6 0 -6 12.5t6 12.5q45 0 45 28q0 23 -21 51l-133 201l-71 -104q-47 -68 -47 -115q0 -61 90 -61q6 0 6 -12.5t-6 -12.5q-55 0 -82 2l-123 2l-84 -2q-23 -2 -74 -2q-6 0 -6 12.5z" />
<glyph unicode="&#x2000;" horiz-adv-x="907" />
<glyph unicode="&#x2001;" horiz-adv-x="1815" />
<glyph unicode="&#x2002;" horiz-adv-x="907" />
<glyph unicode="&#x2003;" horiz-adv-x="1815" />
<glyph unicode="&#x2004;" horiz-adv-x="605" />
<glyph unicode="&#x2005;" horiz-adv-x="453" />
<glyph unicode="&#x2006;" horiz-adv-x="302" />
<glyph unicode="&#x2007;" horiz-adv-x="302" />
<glyph unicode="&#x2008;" horiz-adv-x="226" />
<glyph unicode="&#x2009;" horiz-adv-x="363" />
<glyph unicode="&#x200a;" horiz-adv-x="100" />
<glyph unicode="&#x2010;" horiz-adv-x="661" d="M55 377q0 49 6 49l535 96q4 2 7 -15.5t3 -37.5t-3 -37.5t-7 -19.5l-530 -97q-5 -2 -8 18.5t-3 43.5z" />
<glyph unicode="&#x2011;" horiz-adv-x="661" d="M55 377q0 49 6 49l535 96q4 2 7 -15.5t3 -37.5t-3 -37.5t-7 -19.5l-530 -97q-5 -2 -8 18.5t-3 43.5z" />
<glyph unicode="&#x2012;" horiz-adv-x="661" d="M55 377q0 49 6 49l535 96q4 2 7 -15.5t3 -37.5t-3 -37.5t-7 -19.5l-530 -97q-5 -2 -8 18.5t-3 43.5z" />
<glyph unicode="&#x2013;" horiz-adv-x="1054" d="M59 391q0 18 2 32.5t7 14.5h917q4 0 7 -15t3 -34q0 -18 -3 -34.5t-7 -16.5h-915q-4 0 -7.5 16.5t-3.5 36.5z" />
<glyph unicode="&#x2014;" horiz-adv-x="1699" d="M59 391q0 18 2 32.5t7 14.5h1562q4 0 7 -15t3 -34q0 -18 -3 -34.5t-7 -16.5h-1560q-4 0 -7.5 16.5t-3.5 36.5z" />
<glyph unicode="&#x2018;" horiz-adv-x="364" d="M29 1014q0 92 41 171t123 158q2 2 6 3q6 0 10 -6.5t0 -10.5q-100 -102 -100 -242q0 -57 20 -83q18 31 76 30q49 0 78.5 -31.5t29.5 -82.5q0 -55 -35.5 -87t-97.5 -32q-72 0 -111.5 55t-39.5 158z" />
<glyph unicode="&#x2019;" horiz-adv-x="339" d="M27 1161q0 55 35.5 87t97.5 32q71 0 111 -55.5t40 -157.5q0 -92 -41 -171t-123 -159q-2 -2 -6 -2q-6 0 -10 6.5t0 10.5q100 102 100 241q0 57 -20 84q-18 -31 -76 -30q-49 0 -78.5 31.5t-29.5 82.5z" />
<glyph unicode="&#x201a;" horiz-adv-x="339" d="M27 98q0 55 35.5 87t97.5 32q71 0 111 -55.5t40 -157.5q0 -92 -41 -171t-123 -159q-2 -2 -6 -2q-6 0 -10 6.5t0 10.5q100 102 100 241q0 57 -20 84q-18 -31 -76 -30q-49 0 -78.5 31.5t-29.5 82.5z" />
<glyph unicode="&#x201c;" horiz-adv-x="694" d="M29 1014q0 92 41 171t123 158q2 2 6 3q6 0 10 -6.5t0 -10.5q-100 -102 -100 -242q0 -57 20 -83q18 31 76 30q49 0 78.5 -31.5t29.5 -82.5q0 -55 -35.5 -87t-97.5 -32q-72 0 -111.5 55t-39.5 158zM383 1014q0 92 41 171t123 158q2 2 6 3q6 0 10 -6.5t0 -10.5 q-100 -102 -100 -242q0 -57 20 -83q18 31 76 30q49 0 79 -31.5t30 -82.5q0 -55 -36 -87t-97 -32q-72 0 -112 55t-40 158z" />
<glyph unicode="&#x201d;" horiz-adv-x="694" d="M27 1161q0 55 35.5 87t97.5 32q71 0 111 -55.5t40 -157.5q0 -92 -41 -171t-123 -159q-2 -2 -6 -2q-6 0 -10 6.5t0 10.5q100 102 100 241q0 57 -20 84q-18 -31 -76 -30q-49 0 -78.5 31.5t-29.5 82.5zM381 1161q0 55 36 87t97 32q72 0 112 -55.5t40 -157.5q0 -92 -41 -171 t-123 -159q-2 -2 -6 -2q-6 0 -10.5 6.5t-0.5 10.5q100 102 101 241q0 57 -21 84q-18 -31 -76 -30q-49 0 -78.5 31.5t-29.5 82.5z" />
<glyph unicode="&#x201e;" horiz-adv-x="718" d="M27 98q0 55 35.5 87t97.5 32q71 0 111 -55.5t40 -157.5q0 -92 -41 -171t-123 -159q-2 -2 -6 -2q-6 0 -10 6.5t0 10.5q100 102 100 241q0 57 -20 84q-18 -31 -76 -30q-49 0 -78.5 31.5t-29.5 82.5zM381 98q0 55 36 87t97 32q72 0 112 -55.5t40 -157.5q0 -92 -41 -171 t-123 -159q-2 -2 -6 -2q-6 0 -10.5 6.5t-0.5 10.5q100 102 101 241q0 57 -21 84q-18 -31 -76 -30q-49 0 -78.5 31.5t-29.5 82.5z" />
<glyph unicode="&#x2026;" horiz-adv-x="1382" d="M90 102q0 53 34 86t91 33t89 -31.5t32 -87.5q0 -59 -32 -92t-89 -33t-91 34t-34 91zM569 102q0 53 34 86t91 33t89 -31.5t32 -87.5q0 -59 -31.5 -92t-89.5 -33q-57 0 -91 34t-34 91zM1049 102q0 53 33.5 86t91.5 33q57 0 88.5 -31.5t31.5 -87.5q0 -59 -31.5 -92 t-88.5 -33q-58 0 -91.5 34t-33.5 91z" />
<glyph unicode="&#x202f;" horiz-adv-x="363" />
<glyph unicode="&#x2039;" horiz-adv-x="622" d="M100 412q0 14 9 22l385 305q0 2 4 2t8 -5t2 -7l-189 -317l189 -318q2 -4 -5 -11t-9 -1l-385 305q-8 8 -9 25z" />
<glyph unicode="&#x203a;" horiz-adv-x="622" d="M115 94l190 316l-190 319q-2 4 5 10t9 0l385 -305q10 -10 10 -22q0 -14 -10 -25l-385 -305q0 -2 -4 -2t-8 5t-2 9z" />
<glyph unicode="&#x205f;" horiz-adv-x="453" />
<glyph unicode="&#x20ac;" horiz-adv-x="1423" d="M119 537q0 10 4 19t10 9h928q6 0 6 -8q0 -14 -10 -32.5t-23 -18.5h-551q39 -215 157 -351.5t275 -136.5q117 0 212.5 81t181.5 249q2 6 12 4t10 -8l-33 -242q-2 -25 -8 -32t-22 -15q-186 -80 -383 -80q-195 0 -334 74t-217 193.5t-105 263.5h-96q-6 0 -10 9t-4 22z M119 709q0 10 4 19t10 9h94q25 170 127.5 299t256 198t321.5 69q104 0 198.5 -25t157.5 -66q39 -31 29 -49l-98 -225q0 -2 -7 -2q-4 0 -8 3t-6 7q-18 145 -99 226t-222 81q-190 0 -296 -140t-116 -376h661q6 0 7 -8q0 -12 -11.5 -31.5t-21.5 -19.5h-967q-6 0 -10 9t-4 22z " />
<glyph unicode="&#x2122;" horiz-adv-x="1511" d="M59 1124q4 23 8.5 80.5t4.5 100.5q0 6 12 7t12 -7q0 -14 14.5 -18.5t41.5 -4.5l184 -2l164 2q41 0 59.5 5t22.5 24q2 4 13 4t11 -4q-8 -172 -8 -187q0 -4 -11.5 -4t-11.5 4q0 45 -34.5 86t-75.5 41q-31 0 -39 -13t-8 -56v-379q0 -45 15.5 -59.5t70.5 -14.5q4 0 4 -12 t-4 -12l-168 2l-164 -2q-2 0 -2 12t2 12q53 0 69.5 14.5t16.5 59.5v381q0 45 -8 56t-39 11q-45 0 -82 -36.5t-45 -90.5q0 -4 -12.5 -4t-12.5 4zM633 717q0 12 2 12q47 0 74.5 25.5t29.5 76.5l13 349q-23 43 -52.5 59t-52.5 16q-4 0 -4 12.5t4 12.5l84 -4l88 4 q18 0 32.5 -12.5t33.5 -50.5l180 -351l164 381q6 14 17 23.5t22 9.5q6 0 23.5 -2t45.5 -2q35 0 58.5 2t44.5 2q4 0 4 -12.5t-4 -12.5q-45 0 -64.5 -16t-17.5 -68l12 -368q2 -45 15.5 -59.5t60.5 -14.5q4 0 4 -12t-4 -12l-148 2l-141 -2q-2 0 -2 12t2 12q45 0 59.5 14.5 t12.5 59.5l-12 315l-175 -403q-4 -8 -22 -8t-23 8l-204 389l-11 -273q-2 -53 14.5 -77.5t53.5 -24.5q4 0 4 -12t-4 -12l-98 2l-117 -2q-2 0 -2 12z" />
<glyph unicode="&#x25fc;" horiz-adv-x="788" d="M0 0v788h788v-788h-788z" />
</font>
</defs>
</svg>
