<svg xmlns="http://www.w3.org/2000/svg" width="61" height="48" viewBox="0 0 61 48">
  <metadata><?xpacket begin="﻿" id="W5M0MpCehiHzreSzNTczkc9d"?>
<x:xmpmeta xmlns:x="adobe:ns:meta/" x:xmptk="Adobe XMP Core 5.6-c142 79.160924, 2017/07/13-01:06:39        ">
   <rdf:RDF xmlns:rdf="http://www.w3.org/1999/02/22-rdf-syntax-ns#">
      <rdf:Description rdf:about=""/>
   </rdf:RDF>
</x:xmpmeta>
                                                                                                    
                                                                                                    
                                                                                                    
                                                                                                    
                                                                                                    
                                                                                                    
                                                                                                    
                                                                                                    
                                                                                                    
                                                                                                    
                                                                                                    
                                                                                                    
                                                                                                    
                                                                                                    
                                                                                                    
                                                                                                    
                                                                                                    
                                                                                                    
                                                                                                    
                                                                                                    
                           
<?xpacket end="w"?></metadata>
<defs>
    <style>
      .cls-1 {
        fill: #dfdfdf;
        fill-rule: evenodd;
      }
    </style>
  </defs>
  <path id="bg" class="cls-1" d="M1352,608h-3v4.216l-0.04-.037a0.975,0.975,0,0,1-.96.821h-55a1,1,0,0,1-1-1V570a1,1,0,0,1,1-1h4v-3a1,1,0,0,1,1-1h54a1,1,0,0,1,1,1v41A1,1,0,0,1,1352,608Zm-5,3v-0.784l-21.1-21.1L1304.02,611H1347Zm-53,0h7.19l14.3-14.295-8.59-8.585-12.9,12.9V611Zm0-40v27.2l12.2-12.2a1,1,0,0,1,1.41,0l9.29,9.293,8.3-8.293a1,1,0,0,1,1.41,0L1347,607.387V571h-53Zm57-4h-52v2h49a1,1,0,0,1,1,1v36h2V567Zm-16,18a5,5,0,1,1,5-5A5,5,0,0,1,1335,585Zm0-8a3,3,0,1,0,3,3A3,3,0,0,0,1335,577Z" transform="translate(-1292 -565)"/>
</svg>
