<svg xmlns="http://www.w3.org/2000/svg" width="48" height="48" viewBox="0 0 48 48"><path style="fill: #e7e7e7;" d="M0,0H4V1H0V0ZM6,0h4V1H6V0Zm6,0h4V1H12V0Zm6,0h4V1H18V0Zm6,0h4V1H24V0Zm6,0h4V1H30V0Zm6,0h4V1H36V0Zm6,0h4V1H42V0ZM2,47H6v1H2V47Zm6,0h4v1H8V47Zm6,0h4v1H14V47Zm6,0h4v1H20V47Zm6,0h4v1H26V47Zm6,0h4v1H32V47Zm6,0h4v1H38V47Zm6,0h4v1H44V47ZM0,2H1V6H0V2ZM0,8H1v4H0V8Zm0,6H1v4H0V14Zm0,6H1v4H0V20Zm0,6H1v4H0V26Zm0,6H1v4H0V32Zm0,6H1v4H0V38Zm0,6H1v4H0V44Zm47-2h1v4H47V42Zm0-6h1v4H47V36Zm0-6h1v4H47V30Zm0-6h1v4H47V24Zm0-6h1v4H47V18Zm0-6h1v4H47V12Zm0-6h1v4H47V6Zm0-6h1V4H47V0Z"/><path style="fill: #999;" d="M14,31V16H33V31H14ZM32,17H15V30H32V17ZM22,26V20.99L26,23.5Z"/></svg>