<?xml version="1.0" standalone="no"?>
<!DOCTYPE svg PUBLIC "-//W3C//DTD SVG 1.1//EN" "http://www.w3.org/Graphics/SVG/1.1/DTD/svg11.dtd" >
<svg xmlns="http://www.w3.org/2000/svg" xmlns:xlink="http://www.w3.org/1999/xlink" version="1.1">
<metadata></metadata>
<defs>
<font id="znikomitno24regular" horiz-adv-x="1160" >
<font-face units-per-em="2000" ascent="1520" descent="-480" />
<missing-glyph horiz-adv-x="800" />
<glyph horiz-adv-x="0" />
<glyph unicode="&#xd;" horiz-adv-x="726" />
<glyph unicode=" "  horiz-adv-x="800" />
<glyph unicode="&#x09;" horiz-adv-x="800" />
<glyph unicode="&#xa0;" horiz-adv-x="800" />
<glyph unicode="!" horiz-adv-x="420" d="M160 480q0 359 -2.5 624t-2.5 296q0 490 304 490q57 0 91.5 -36.5t34.5 -96.5q0 -47 -33.5 -80.5t-80.5 -33.5q-19 0 -62.5 8t-61.5 8q-38 0 -65 -13t-52 -47.5t-37.5 -104.5t-12.5 -174v-840h-20zM130 35q0 16 12 28t28 12t28 -12t12 -28t-12 -28t-28 -12t-28 12t-12 28 z" />
<glyph unicode="&#x22;" horiz-adv-x="360" d="M240 1525q5 0 8.5 -3t3.5 -5q8 -43 8 -90q0 -63 -16 -198l-8 -64l-20 3l9 64q10 81 10 195q0 44 -8 86q0 3 3.5 7.5t9.5 4.5zM120 1525q5 0 8.5 -3t3.5 -5q8 -43 8 -90q0 -63 -16 -198l-8 -64l-20 3l9 64q10 81 10 195q0 44 -8 86q0 3 3.5 7.5t9.5 4.5z" />
<glyph unicode="#" horiz-adv-x="880" d="M307 910l-34 -380h300l34 380h-300zM251 270h-20l21 240h-159l1 20h159l34 380h-160l2 20h159l21 240h20l-21 -240h300l21 240h20l-21 -240h159l-1 -20h-159l-34 -380h160l-2 -20h-159l-21 -240h-20l21 240h-300z" />
<glyph unicode="$" horiz-adv-x="1040" d="M525 1365q187 0 301 -76.5t114 -201.5q0 -88 -42 -142t-111 -54q-51 0 -82.5 31.5t-31.5 82.5q0 25 20.5 52t41.5 58t21 65q0 74 -63.5 119.5t-167.5 45.5v-552q55 -24 91 -41t86 -44t83 -50t69 -55t57 -63.5t35 -72t14 -83.5q0 -134 -123 -221.5t-312 -87.5v-115h-25 v115q-101 2 -174.5 28t-147.5 89q-50 46 -63 46q-18 0 -21 -64l-4 -94h-15l12 330h15v-11q0 -116 93 -193q72 -59 141 -84t164 -27v676q-44 19 -62 27.5t-57 27t-57 28.5t-49.5 28t-46.5 31t-35 32t-29.5 36t-16.5 37.5t-7 42.5q0 132 100.5 218t254.5 86h5v115h25v-115z M525 760v-665q179 0 294.5 81.5t115.5 207.5q0 45 -15 85.5t-47 75.5t-65.5 62.5t-87 57t-93.5 48.5t-102 47zM500 804v541h-5q-143 0 -236.5 -80t-93.5 -204q0 -23 10.5 -45.5t24 -40t43 -38.5t51 -34t64.5 -34t67 -32t75 -33z" />
<glyph unicode="%" horiz-adv-x="1440" d="M57 102l654 624q397 379 397 692q0 33 -14.5 78t-14.5 68q0 53 34.5 89.5t81.5 36.5q63 0 103.5 -57t40.5 -136q0 -34 -10 -71t-24 -70.5t-43.5 -77t-52.5 -76t-68 -82t-74.5 -80.5t-86 -86.5t-88.5 -85.5t-97.5 -92t-96.5 -92l-626 -597zM1080 580q122 0 201 -82 t79 -208t-79 -208t-201 -82t-201 82t-79 208t79 208t201 82zM1080 560q-111 0 -183 -76t-72 -194t72 -194t183 -76t183 76t72 194t-72 194t-183 76zM360 1440q122 0 201 -82t79 -208t-79 -208t-201 -82t-201 82t-79 208t79 208t201 82zM360 1420q-111 0 -183 -76t-72 -194 t72 -194t183 -76t183 76t72 194t-72 194t-183 76z" />
<glyph unicode="&#x26;" horiz-adv-x="1500" d="M1035 123l-37 44l-412 522q-21 27 -80.5 44t-105.5 17q-135 0 -220 -102t-85 -260q0 -162 138.5 -267.5t351.5 -105.5q269 0 450 108zM658 1360q-116 0 -191 -77.5t-75 -197.5q0 -119 81 -221l541 -684q18 -23 38 -46q92 59 141.5 141t49.5 176q0 146 -90 271 q-32 45 -58.5 66.5t-57.5 21.5q-46 -4 -74 -19q-50 -27 -50 -81q0 -16 7 -40q1 -1 1 -4q0 -9 -10 -9q-8 0 -10 7q-8 27 -8 47q0 69 59 99q46 25 110 25q18 0 52.5 -2.5t51.5 -2.5q56 0 96 21q50 27 50 81q0 14 -7 40l-1 2v2q0 10 10 10q6 0 10 -8q8 -27 8 -48q0 -68 -59 -98 q-51 -26 -113 -26q-21 0 -21 -12q0 -5 4 -13.5t9 -16t15.5 -22.5t16.5 -24q84 -124 84 -267q0 -100 -52.5 -185t-148.5 -147q60 -68 109.5 -115t119 -97t151 -76t171.5 -26q43 0 94.5 21.5t80.5 21.5q51 0 87.5 -33.5t36.5 -80.5q0 -63 -60.5 -108t-145.5 -45 q-58 0 -109.5 10.5t-92.5 27t-83 48t-72.5 60t-71.5 78t-70.5 88t-78.5 102.5t-86 111q-189 -111 -462 -111q-224 0 -369.5 111t-145.5 282q0 165 92.5 273.5t237.5 108.5q37 0 74 -8q25 -5 31 10.5t-6 27.5l-41 52q-89 113 -89 233q0 128 81.5 211.5t207.5 83.5 q160 0 258 -61t98 -161q0 -79 -42 -127.5t-111 -48.5q-37 0 -60.5 20.5t-23.5 53.5q0 29 36.5 75.5t36.5 89.5q0 58 -56 98.5t-136 40.5z" />
<glyph unicode="'" horiz-adv-x="240" d="M120 1525q5 0 8.5 -3t3.5 -5q8 -43 8 -90q0 -63 -16 -198l-8 -64l-20 3l9 64q10 81 10 195q0 44 -8 86q0 3 3.5 7.5t9.5 4.5z" />
<glyph unicode="(" horiz-adv-x="640" d="M105 560q0 -339 127 -604t318 -379l-10 -17q-197 118 -328.5 387.5t-131.5 612.5q0 430 90.5 760t255.5 510t380 180q70 0 131.5 -43t61.5 -112q0 -45 -41 -81t-91 -36q-29 0 -91 17.5t-99 17.5q-184 0 -313 -147.5t-194 -418.5t-65 -647z" />
<glyph unicode=")" horiz-adv-x="640" d="M535 560q0 339 -127 604t-318 379l10 17q197 -118 328.5 -387.5t131.5 -612.5q0 -430 -90.5 -760t-255.5 -510t-380 -180q-70 0 -131.5 43t-61.5 112q0 45 41 81t91 36q29 0 91 -17.5t99 -17.5q279 0 425.5 310.5t146.5 902.5z" />
<glyph unicode="*" horiz-adv-x="720" d="M337 1143q0 1 -2 3t-2 3l-69 22q-54 17 -82.5 23t-50 7.5t-33.5 3.5q-9 16 -4 33q2 6 5 10t5 5.5t6.5 3.5t5.5 3q11 -5 29.5 -16.5t44.5 -22.5t80 -29l69 -24q1 1 3.5 1t3.5 1q1 0 2 3t2 3l-1 73q-1 56 -4 85.5t-7.5 49.5t-6.5 33q14 14 28 14q16 0 30 -14 q-2 -13 -6.5 -33t-7.5 -49.5t-4 -85.5l-1 -73q1 0 2.5 -3t2.5 -3q1 -1 3.5 -1t3.5 -1l69 24q54 18 80 29t44.5 22.5t29.5 16.5q1 -1 4 -2t5 -2.5t5 -3.5t5 -5.5t3 -8.5q5 -17 -4 -33q-12 -2 -33.5 -3.5t-50 -7.5t-82.5 -23l-69 -22q0 -1 -2 -3t-2 -3v-4t-1 -4l44 -59 q34 -45 53 -67t34.5 -36t24.5 -23q-2 -20 -14 -28q-15 -11 -33 -6q-6 11 -13.5 30.5t-22.5 45t-47 71.5l-42 60q-1 0 -4 1t-4 1t-3 -1t-3 -1l-42 -60q-33 -46 -48 -70.5t-23.5 -44t-14.5 -30.5q-20 -3 -30 5q-14 11 -16 29q9 9 25 22.5t35.5 35t53.5 66.5l44 58q-1 1 0 4.5 t0 4.5z" />
<glyph unicode="+" horiz-adv-x="1040" d="M960 770l-1 -20h-429v-430h-20v430h-430v20h430v430h20v-430h430z" />
<glyph unicode="," horiz-adv-x="320" d="M120 35q0 16 12 28t28 12t28 -12t12 -28q0 -65 -21 -112t-72 -102l-15 13q83 91 83 164h-1q-6 -3 -14 -3q-16 0 -28 12t-12 28z" />
<glyph unicode="-" horiz-adv-x="720" d="M642 770l-4 -20h-560l4 20h560z" />
<glyph unicode="." horiz-adv-x="320" d="M120 35q0 16 12 28t28 12t28 -12t12 -28t-12 -28t-28 -12t-28 12t-12 28z" />
<glyph unicode="/" horiz-adv-x="1200" d="M1137 1531l-1053 -1644l-21 13l1053 1644z" />
<glyph unicode="0" horiz-adv-x="1080" d="M540 1425q137 0 247 -91.5t171.5 -255t61.5 -368.5t-62 -368.5t-171.5 -255t-246.5 -91.5q-165 0 -266 105t-101 277q0 88 42 142t111 54q51 0 82.5 -31.5t31.5 -82.5q0 -20 -13 -42t-28.5 -38.5t-28.5 -42t-13 -52.5q0 -121 50.5 -195t132.5 -74q130 0 234 89t162.5 248 t58.5 358t-58.5 358t-162.5 248t-234 89t-234 -89t-162.5 -248t-58.5 -358q0 -192 56 -349l-2 -61q-79 177 -79 410q0 205 61.5 368.5t171.5 255t247 91.5z" />
<glyph unicode="1" horiz-adv-x="580" d="M300 1440q11 0 18 -7t7 -18v-1345q0 -17 8 -27.5t42.5 -19t99.5 -8.5h55v-15h-480v15h100q65 0 99.5 8.5t42.5 19t8 27.5v1242q0 58 -39 58q-31 0 -53.5 -19.5t-22.5 -46.5q0 -8 9.5 -16.5t21.5 -17t21.5 -25.5t9.5 -39q0 -42 -29.5 -71.5t-70.5 -29.5q-52 0 -84.5 31 t-32.5 81q0 78 184 158q72 32 86 65z" />
<glyph unicode="2" horiz-adv-x="1000" d="M500 1405q-111 0 -179 -49.5t-68 -129.5q0 -27 13 -52.5t28.5 -42t28.5 -38.5t13 -42q0 -51 -31.5 -82.5t-82.5 -31.5q-69 0 -111 54t-42 142q0 131 118.5 211.5t312.5 80.5q167 0 276 -99t109 -251q0 -109 -55.5 -224.5t-207.5 -277.5l-334 -356q-100 -107 -171 -163 q-22 -17 -22 -23t24 -6h716q37 0 61 25t24 63v172h20v-275q0 -10 -10 -10h-880q-10 0 -10 10v12q0 8 9 10q14 2 78.5 58t144.5 141l334 356q150 159 202 270.5t52 217.5q0 143 -102 236.5t-258 93.5z" />
<glyph unicode="3" horiz-adv-x="1080" d="M520 1425q178 0 294 -86t116 -219q0 -100 -77.5 -179.5t-222.5 -116.5v-4q188 -27 294 -126t106 -269q0 -187 -150 -308.5t-380 -121.5q-80 0 -149 16.5t-113 39.5t-82.5 57t-56.5 58t-37 54q-2 4 -2 5v95h20v-22q0 -25 14 -69t33 -66q129 -148 373 -148q220 0 362.5 116 t142.5 294q0 163 -98.5 256t-279.5 119h-17q-22 0 -22 10v24q0 10 22 10h17q139 36 208.5 110t69.5 166q0 124 -109 204.5t-276 80.5q-111 0 -179 -49.5t-68 -129.5q0 -27 13 -52.5t28.5 -42t28.5 -38.5t13 -42q0 -51 -31.5 -82.5t-82.5 -31.5q-69 0 -111 54t-42 142 q0 131 118.5 211.5t312.5 80.5z" />
<glyph unicode="4" horiz-adv-x="1140" d="M609 1304q-5 -302 -203 -594q-41 -60 -100 -134t-91 -111t-114 -131q-8 -9 -11 -16.5t1.5 -12.5t17.5 -5h715q36 0 36 34v691q0 11 7 18t18 7v-716q0 -34 36 -34h129v-25h-129q-36 0 -36 -35v-170q0 -17 8 -27.5t42.5 -19t99.5 -8.5h45v-15h-470v15h100q65 0 99.5 8.5 t42.5 19t8 27.5v170q0 35 -36 35h-774v30q19 22 81.5 94t94 109.5t78.5 97t80 107.5q203 298 203 592q0 71 -49.5 114t-129.5 43q-34 0 -65 -21t-58 -41.5t-52 -20.5q-51 0 -82.5 31.5t-31.5 82.5q0 69 54 111t142 42q132 0 213 -93.5t81 -248.5z" />
<glyph unicode="5" horiz-adv-x="1100" d="M143 1420h789q10 0 10 -9l18 -230l-17 -2l-10 107q-9 109 -116 109h-654q0 -22 -2 -52l-31 -431q-2 -27 10.5 -32t26.5 7q77 52 172 82.5t181 30.5q125 0 226 -42.5t164 -114t96.5 -159.5t33.5 -184q0 -78 -21.5 -150.5t-66.5 -137t-109 -113t-154.5 -76.5t-197.5 -28 q-199 0 -320 80.5t-121 211.5q0 88 42 142t111 54q51 0 82.5 -31.5t31.5 -82.5q0 -25 -20.5 -52t-41.5 -58t-21 -65q0 -80 71 -129.5t186 -49.5q129 0 232 41t166.5 110t97 154.5t33.5 179.5q0 92 -32 177t-92.5 153t-158 109t-217.5 41q-94 0 -199 -38.5t-182 -99.5l-35 -2 l37 505q2 30 2 65v10z" />
<glyph unicode="6" horiz-adv-x="1060" d="M510 -5q-134 0 -236 86t-158 243.5t-56 363.5q1 348 137.5 542.5t362.5 194.5q141 0 264 -51q6 -2 6 -9v-95h-20v22q0 23 -18.5 51.5t-47.5 36.5q-88 25 -184 25q-216 0 -345.5 -187t-129.5 -530q0 -303 117 -488t308 -185q204 0 334.5 139.5t130.5 355.5 q0 218 -122.5 359t-312.5 141q-91 0 -147 -57.5t-56 -151.5q0 -34 19.5 -60t39 -50t19.5 -53q0 -39 -28.5 -65t-70.5 -26q-69 0 -111 47t-42 124q0 140 104 226t273 86q201 0 330.5 -146.5t129.5 -373.5q0 -224 -138 -369.5t-352 -145.5z" />
<glyph unicode="7" horiz-adv-x="1060" d="M70 1420h975v-10l-146 -220q-9 -13 -67 -98.5t-78 -117.5t-58 -98.5t-65 -125.5q-5 -11 -26.5 -57t-29.5 -64.5t-26 -60.5t-26 -68.5t-18.5 -64t-14.5 -71t-4 -66.5q0 -96 22 -181q11 -41 35 -74t49.5 -54t50 -42t40.5 -50t16 -67q0 -52 -31.5 -83.5t-83.5 -31.5 q-103 0 -166 89t-63 235q0 107 70.5 291t185.5 430q28 59 65.5 124.5t62.5 103.5t76 113.5t68 100.5l105 158q23 35 -18 35h-769q-53 0 -83.5 -28t-33.5 -83l-4 -84h-20z" />
<glyph unicode="8" horiz-adv-x="1120" d="M160 151q-100 111 -100 267q0 313 429 402q-130 32 -209.5 113t-79.5 198q0 129 103 211.5t257 82.5q157 0 258.5 -83t101.5 -211q0 -122 -85.5 -198.5t-225.5 -109.5q93 -19 169 -51t142 -82t103 -125.5t37 -169.5q0 -175 -138 -287.5t-362 -112.5q-169 0 -272.5 75 t-104.5 197q0 79 36.5 127.5t96.5 48.5q49 0 78.5 -31.5t29.5 -82.5q0 -26 -28.5 -74t-28.5 -81q1 -72 53.5 -115.5t139.5 -43.5q217 0 346 106.5t129 273.5q0 96 -40.5 170.5t-113 122.5t-155.5 77t-185 45q-461 -77 -461 -392q0 -137 80 -237v-30zM900 1131q0 118 -95 196 t-245 78q-147 0 -240.5 -77t-94.5 -197q0 -118 87.5 -196t233.5 -101l10 -1q154 26 249 100.5t95 197.5z" />
<glyph unicode="9" horiz-adv-x="1060" d="M550 1425q134 0 236 -86t158 -243.5t56 -363.5q-1 -348 -137.5 -542.5t-362.5 -194.5q-141 0 -264 51q-6 2 -6 9v95h20v-22q0 -23 18.5 -51.5t47.5 -36.5q88 -25 184 -25q216 0 345.5 187t129.5 530q0 303 -117 488t-308 185q-204 0 -334.5 -139.5t-130.5 -355.5 q0 -218 122.5 -359t312.5 -141q91 0 147 57.5t56 151.5q0 34 -19.5 60t-39 50t-19.5 53q0 39 28.5 65t70.5 26q69 0 111 -47t42 -124q0 -140 -104 -226t-273 -86q-201 0 -330.5 146.5t-129.5 373.5q0 224 138 369.5t352 145.5z" />
<glyph unicode=":" horiz-adv-x="320" d="M120 965q0 16 12 28t28 12t28 -12t12 -28t-12 -28t-28 -12t-28 12t-12 28zM120 35q0 16 12 28t28 12t28 -12t12 -28t-12 -28t-28 -12t-28 12t-12 28z" />
<glyph unicode=";" horiz-adv-x="400" d="M120 965q0 16 12 28t28 12t28 -12t12 -28t-12 -28t-28 -12t-28 12t-12 28zM120 35q0 16 12 28t28 12t28 -12t12 -28q0 -65 -21 -112t-72 -102l-15 13q83 91 83 164h-1q-6 -3 -14 -3q-16 0 -28 12t-12 28z" />
<glyph unicode="&#x3c;" horiz-adv-x="720" d="M618 342l-11 -17l-547 388v14l547 373l12 -16l-529 -360v-7z" />
<glyph unicode="=" horiz-adv-x="1040" d="M80 510v20h880v-20h-880zM80 910v20h880v-20h-880z" />
<glyph unicode="&#x3e;" horiz-adv-x="720" d="M102 342l528 375v7l-529 360l12 16l547 -373v-14l-547 -388z" />
<glyph unicode="?" horiz-adv-x="960" d="M476 1524q176 0 290 -91.5t114 -232.5q0 -154 -75.5 -256.5t-235.5 -196.5q-90 -53 -112 -72q-43 -37 -43 -85q0 -32 11 -129l-20 -2l-16 118q0 3 -0.5 7t-0.5 6q0 29 12 54t35.5 45.5t47.5 36.5t57 35l6 3t5 3t5 3q158 92 228.5 187t70.5 243q0 132 -107 218t-272 86 q-111 0 -179 -49.5t-68 -129.5q0 -27 13 -52.5t28.5 -42t28.5 -38.5t13 -42q0 -51 -31.5 -82.5t-82.5 -31.5q-69 0 -111 54t-42 142q0 131 118.5 211.5t312.5 80.5zM380 35q0 16 12 28t28 12t28 -12t12 -28t-12 -28t-28 -12t-28 12t-12 28z" />
<glyph unicode="@" horiz-adv-x="1800" d="M1385 71l-5 -22q-50 -14 -100 -14q-76 0 -125.5 47t-49.5 119q0 23 12 83q3 15 3 20t-2 5q-4 0 -17 -20q-163 -254 -337 -254q-158 0 -235 100.5t-77 279.5q0 127 48 234t130 179t191 112t231 40h227l-133 -680q-16 -82 -16 -99q0 -64 42.5 -105t107.5 -41q57 0 105 16z M1642 285l-17 12q75 152 75 357q0 184 -89 331t-246.5 229t-354.5 82q-196 0 -365.5 -66t-289 -182t-187.5 -279t-68 -351q0 -194 95 -349.5t259 -242t364 -86.5q283 0 456 119.5t173 315.5q0 46 27.5 73.5t71.5 27.5q40 0 64.5 -26t24.5 -69q0 -137 -101.5 -241.5 t-287.5 -162t-428 -57.5q-153 0 -289 52.5t-235 143.5t-156.5 221.5t-57.5 280.5q0 192 70 359t192 285t295 186t373 68q202 0 364.5 -84.5t254 -236t91.5 -341.5q0 -211 -78 -369zM1136 380l105 533q1 4 1 12q0 35 -47 35h-143q-158 0 -288 -65t-208.5 -190.5t-78.5 -289.5 q0 -360 287 -360q166 0 321 244z" />
<glyph unicode="A" horiz-adv-x="1330" d="M1132 241l-86 239h-726l-143 -397q-5 -17 -5 -25q0 -26 32.5 -34.5t114.5 -8.5h41v-15h-340v15h5q63 0 91 16t43 58l510 1424q3 7 9 7h27q10 0 10 -10q0 -35 25 -104l428 -1194q53 -150 70 -187q87 -196 231 -253q68 -27 150 -27q43 0 94.5 21.5t80.5 21.5 q51 0 87.5 -33.5t36.5 -80.5q0 -63 -60.5 -108t-145.5 -45q-79 0 -143.5 22.5t-116 70t-93 106t-80.5 144.5t-71.5 171t-73.5 199q-1 5 -2 7zM327 500h712l-322 900q-17 48 -21 67h-23z" />
<glyph unicode="B" horiz-adv-x="1340" d="M50 1520h550q253 0 386.5 -93.5t133.5 -242.5q0 -128 -75 -217.5t-219 -109.5h-4v-4h4q111 -12 195 -44.5t132.5 -73t78 -94.5t39 -101t9.5 -100q0 -192 -147.5 -316t-372.5 -124h-710v15h40q65 0 99.5 8.5t42.5 19t8 27.5v1379q0 27 -29.5 41.5t-120.5 14.5h-40v15z M266 1500l-1 -1480h495q217 0 356 118.5t139 301.5q0 52 -8 95.5t-35.5 95t-72.5 89.5t-126 69.5t-189 43.5q-110 12 -117 12q-94 0 -151 -44t-57 -115q0 -27 13 -52.5t28.5 -42t28.5 -38.5t13 -42q0 -51 -31.5 -82.5t-82.5 -31.5q-69 0 -111 54t-42 142q0 122 109 197 t287 75q7 0 113 12q136 19 203.5 102t67.5 205q0 140 -124 228t-371 88h-334z" />
<glyph unicode="C" horiz-adv-x="1140" d="M675 1525q183 0 294.5 -80.5t111.5 -211.5q0 -88 -42 -142t-111 -54q-51 0 -82.5 31.5t-31.5 82.5q0 20 13 42t28.5 38.5t28.5 42t13 52.5q0 80 -61 129.5t-161 49.5q-265 0 -427.5 -204.5t-162.5 -538.5q0 -219 70 -387.5t204.5 -264t315.5 -95.5q231 0 397 164l14 -14 q-174 -170 -411 -170q-187 0 -326.5 99.5t-211.5 272.5t-72 395q0 343 168 553t442 210z" />
<glyph unicode="D" horiz-adv-x="1420" d="M50 1520h575q156 0 292 -57t232 -157t151 -241.5t55 -304.5t-55 -304.5t-151 -241.5t-232 -157t-292 -57h-575v15l216 5h354q203 0 365.5 95t253.5 264t91 381t-91 381t-253.5 264t-365.5 95h-355v-1078q0 -72 47 -115t127 -43q34 0 65 21t58 41.5t52 20.5 q51 0 82.5 -31.5t31.5 -82.5q0 -69 -54 -111t-142 -42q-131 0 -211.5 95t-80.5 251v1023q0 17 -8 28t-43 19.5t-99 8.5h-40v15z" />
<glyph unicode="E" horiz-adv-x="1290" d="M50 1520h1070q10 0 10 -9l25 -380l-20 -2l-16 254q-4 66 -32.5 91.5t-94.5 25.5h-726l-1 -810h205q85 0 137.5 44t52.5 115q0 34 -21 65t-41.5 58t-20.5 52q0 51 31.5 82.5t82.5 31.5q69 0 111 -54t42 -142q0 -122 -103 -197t-271 -75h-205v-650h807q67 0 94.5 26 t32.5 91l16 254l20 -2l-25 -380q0 -9 -10 -9h-1150v15h40q64 0 99 8.5t43 19.5t8 28v1384q0 26 -29 38t-121 12h-40v15z" />
<glyph unicode="F" horiz-adv-x="1245" d="M265 71q0 -17 8 -28t43 -19.5t99 -8.5h40v-15h-405v15h40q64 0 99 8.5t43 19.5t8 28v1383q0 17 -9.5 27t-43.5 17t-97 7h-40v15h1115q10 0 10 -9l25 -380l-20 -2l-18 254q-4 66 -31.5 91.5t-93.5 25.5h-771l-1 -580h205q168 0 271 -75t103 -197q0 -88 -42 -142t-111 -54 q-51 0 -82.5 31.5t-31.5 82.5q0 25 20.5 52t41.5 58t21 65q0 71 -52.5 115t-137.5 44h-205v-829z" />
<glyph unicode="G" horiz-adv-x="1315" d="M675 1525q195 0 314.5 -80.5t119.5 -211.5q0 -88 -42 -142t-111 -54q-51 0 -82.5 31.5t-31.5 82.5q0 20 13 42t28.5 38.5t28.5 42t13 52.5q0 80 -69 129.5t-181 49.5q-173 0 -306 -92t-206 -261t-73 -390q0 -214 70 -384.5t194.5 -266.5t280.5 -96q171 0 377 165 q61 50 93 87v392q0 17 -9.5 27t-43.5 17t-97 7h-200v20h530v-20h-21q-85 0 -112 -13t-27 -38v-664q0 -10 -10 -10t-10 10v148q0 55 -19 55q-17 0 -61 -33q-214 -170 -390 -170q-163 0 -293.5 98.5t-203.5 273.5t-73 395q0 343 168 553t442 210z" />
<glyph unicode="H" horiz-adv-x="1460" d="M50 1520h440v-15h-75q-65 0 -99.5 -7.5t-42.5 -17.5t-8 -27v-633h930v420q0 230 60.5 399t184.5 264.5t300 95.5q85 0 145.5 -45t60.5 -108q0 -47 -36.5 -80.5t-87.5 -33.5q-29 0 -80.5 21.5t-94.5 21.5q-107 0 -189.5 -45.5t-134 -127t-77.5 -187.5t-26 -232v-1111 q0 -17 8 -28t43 -20t99 -9h40v-15h-440v15h75q64 0 99 9t43 20t8 28v728h-930v-728q0 -17 8 -28t43 -20t99 -9h75v-15h-440v15h40q64 0 99 9t43 20t8 28v1381q0 17 -8 27t-42.5 17.5t-99.5 7.5h-40v15z" />
<glyph unicode="I" horiz-adv-x="500" d="M450 0h-400v15h40q65 0 99.5 8.5t42.5 19t8 27.5v1383q0 27 -29.5 39.5t-120.5 12.5h-40v15h400v-15h-35q-91 0 -120.5 -12.5t-29.5 -39.5v-1383q0 -17 8 -27.5t42.5 -19t99.5 -8.5h35v-15z" />
<glyph unicode="J" horiz-adv-x="540" d="M50 1520h460v-15h-35q-92 0 -121 -12t-29 -38v-1425q0 -222 -108.5 -366t-275.5 -144q-85 0 -145.5 45t-60.5 108q0 47 36.5 80.5t87.5 33.5q29 0 80.5 -21.5t94.5 -21.5q129 0 197.5 77t68.5 209v1425q0 26 -29 38t-121 12h-100v15z" />
<glyph unicode="K" horiz-adv-x="1223" d="M50 1520h420v-15h-55q-91 0 -120.5 -13t-29.5 -40v-652h167q16 0 36.5 11.5t31.5 25.5l477 603q23 29 23 42q0 23 -72 23h-110v15h382v-15h-15q-131 0 -192 -77l-504 -638q80 -102 235.5 -322t304.5 -401q51 -62 87.5 -101.5t92 -86t109 -72.5t127.5 -44t159 -18 q43 0 94.5 21.5t80.5 21.5q51 0 87.5 -33.5t36.5 -80.5q0 -63 -60.5 -108t-145.5 -45q-78 0 -144 19.5t-122.5 56.5t-116 96.5t-119.5 131t-138 169.5q-28 36 -43 55q-136 168 -286.5 378.5t-233.5 316.5q-10 13 -28.5 24.5t-33.5 11.5h-167v-710q0 -17 8 -27.5t42.5 -19 t99.5 -8.5h55v-15h-420v15h40q65 0 99.5 8.5t42.5 19t8 27.5v1382q0 27 -29.5 40t-120.5 13h-40v15z" />
<glyph unicode="L" horiz-adv-x="1290" d="M50 1520h400v-15h-35q-91 0 -120.5 -13t-29.5 -40v-1432h824q50 0 81 24.5t31 64.5q0 70 -26.5 113t-70.5 43q-32 0 -80.5 -25t-71.5 -25q-47 0 -76.5 29.5t-29.5 78.5q0 65 46 105t121 40q98 0 157.5 -87.5t59.5 -229.5q0 -19 -8 -142q0 -9 -10 -9h-1162v15h40 q64 0 99 8.5t43 19.5t8 28v1381q0 27 -29.5 40t-120.5 13h-40v15z" />
<glyph unicode="M" horiz-adv-x="1860" d="M130 1520h189q6 0 9 -6l599 -1270q10 -22 19 -22q10 0 20 22l590 1270q3 6 9 6h185v-15q-95 0 -129 -17t-34 -75l1 -23l83 -1053q47 -592 427 -592q43 0 94.5 21.5t80.5 21.5q51 0 87.5 -33.5t36.5 -80.5q0 -63 -60.5 -108t-145.5 -45q-132 0 -231 54t-162 157 t-98.5 237.5t-49.5 310.5l-92 1190l-590 -1269q-3 -7 -5.5 -21t-3.5 -24l-1 -11h-28q-2 42 -9 56l-603 1278l-108 -1400v-10q0 -26 25 -39.5t104 -13.5h112v-16h-421v16h22q45 0 74.5 5.5t42 16t16.5 20t5 23.5l101 1310q1 16 1 23q0 58 -33.5 74.5t-128.5 16.5v15z" />
<glyph unicode="N" horiz-adv-x="1430" d="M50 1520h229q5 0 8 -5l890 -1427q10 -18 21 -18q12 0 12 26v1144q0 230 59 398.5t182 264.5t300 96q85 0 145.5 -45t60.5 -108q0 -47 -36.5 -80.5t-87.5 -33.5q-29 0 -80.5 21.5t-94.5 21.5q-107 0 -189.5 -45.5t-134 -127t-77.5 -187.5t-26 -232l-1 -1183h-21q-7 0 -9 5 l-933 1495h-9q12 -48 12 -111v-1319q0 -17 8 -27.5t42.5 -19t99.5 -8.5h35v-15h-395v15h40q65 0 99.5 8.5t42.5 19t8 27.5v1320q0 31 -8.5 52.5t-22.5 34t-39.5 18.5t-51 8t-66.5 2h-12v15z" />
<glyph unicode="O" horiz-adv-x="1410" d="M705 1525q183 0 329 -98t228.5 -273t82.5 -394t-82 -394t-228.5 -273t-329.5 -98t-329.5 98t-228.5 273t-82 394q0 327 175 542v-38q-150 -205 -150 -504q0 -213 79 -383.5t219.5 -266t316.5 -95.5t316.5 95.5t219.5 266t79 383.5t-79 383.5t-219.5 266t-316.5 95.5 q-109 0 -176 -49.5t-67 -129.5q0 -34 21 -65t41.5 -58t20.5 -52q0 -51 -31.5 -82.5t-82.5 -31.5q-69 0 -111 54t-42 142q0 131 117.5 211.5t309.5 80.5z" />
<glyph unicode="P" horiz-adv-x="1295" d="M50 1520h610q122 0 221.5 -35t163 -90t106.5 -125.5t61 -138t18 -131.5q0 -65 -18 -133t-61.5 -138.5t-107 -125t-162.5 -89t-220 -34.5q-156 0 -251 80.5t-95 211.5q0 88 42 142t111 54q51 0 82.5 -31.5t31.5 -82.5q0 -20 -13 -42t-28.5 -38.5t-28.5 -42t-13 -52.5 q0 -80 43.5 -129.5t114.5 -49.5q117 0 213 33.5t156.5 85.5t102.5 120t59 133t17 128q0 62 -17 126.5t-58 132.5t-101.5 121t-157 86.5t-214.5 33.5h-391l-1 -1430q0 -17 8 -27.5t42.5 -19t99.5 -8.5h35v-15h-400v15h40q65 0 99.5 8.5t42.5 19t8 27.5v1385q0 26 -29 38 t-121 12h-40v15z" />
<glyph unicode="Q" horiz-adv-x="1410" d="M726 -5q22 -138 101 -204t197 -66q42 0 73.5 10t47 21.5t42.5 21.5t60 10q51 0 87.5 -33.5t36.5 -80.5q0 -63 -60.5 -108t-145.5 -45q-148 0 -246.5 80.5t-177.5 241.5q-22 47 -39 152q-182 1 -327.5 99t-227.5 272.5t-82 393.5q0 164 48 306t132.5 242t203.5 157.5 t256 57.5t256 -57.5t203.5 -157.5t132.5 -242t48 -306q0 -215 -79.5 -387.5t-221 -272t-318.5 -105.5zM508 257q-59 0 -101 -29.5t-42 -71.5q0 -24 17 -41q140 -97 317 -100q-7 39 -12 61.5t-14.5 55t-22.5 51.5t-32 38t-47 27.5t-63 8.5zM352 138q-2 12 -2 18 q0 50 46.5 85.5t111.5 35.5q49 0 85 -16t57 -37.5t36.5 -61.5t21.5 -68.5t15 -78.5q261 8 429 217t168 528q0 213 -79 382.5t-219.5 265t-316.5 95.5t-316.5 -95.5t-219.5 -265t-79 -382.5q0 -201 69 -360.5t193 -261.5z" />
<glyph unicode="R" horiz-adv-x="1259" d="M50 1520h585q248 0 409 -124.5t161 -315.5q0 -179 -142.5 -301t-368.5 -137q118 -30 173 -92t121 -244q72 -194 117 -278q150 -283 373 -283q43 0 94.5 21.5t80.5 21.5q51 0 87.5 -33.5t36.5 -80.5q0 -63 -60.5 -108t-145.5 -45q-68 0 -127 20.5t-103.5 49.5t-88.5 87.5 t-73 106t-66.5 136t-59 146t-60.5 166.5q-5 15 -8 23t-7.5 20.5t-8.5 23.5q-35 97 -68 156t-83 103.5t-120 62.5t-173 18h-260v-570q0 -17 8 -27.5t42.5 -19t99.5 -8.5h35v-15h-400v15h40q65 0 99.5 8.5t42.5 19t8 27.5v1385q0 26 -29 38t-121 12h-40v15zM265 660h260h107 q239 0 393.5 118.5t154.5 301.5t-154.5 301.5t-393.5 118.5h-366z" />
<glyph unicode="S" horiz-adv-x="1146" d="M556 1525q196 0 316 -80.5t120 -211.5q0 -88 -42 -142t-111 -54q-51 0 -82.5 31.5t-31.5 82.5q0 25 20.5 52t41.5 58t21 65q0 80 -69.5 129.5t-182.5 49.5q-168 -1 -275 -78t-107 -196q0 -58 22 -109t53 -86t81.5 -71t91 -57t99 -51t88.5 -48q28 -16 81.5 -44t91.5 -49.5 t88.5 -53t85 -65t66.5 -76t48 -95t16 -112.5q0 -139 -138.5 -229t-351.5 -90q-122 0 -238 37.5t-189 108.5q-43 47 -58 47q-20 0 -21 -64l-5 -144h-15l13 380h15v-11q0 -80 44.5 -145t116.5 -104.5t159 -61t178 -21.5q204 0 334.5 83.5t130.5 213.5q0 57 -15 106.5 t-45.5 89.5t-63 71.5t-81 62t-85.5 51t-90 48t-82 44.5q-28 16 -87.5 46.5t-101 52.5t-95 60t-86.5 75.5t-56.5 92.5t-23.5 117q0 129 116.5 211.5t290.5 82.5z" />
<glyph unicode="T" horiz-adv-x="1310" d="M63 1520h1171q10 0 10 -9l21 -320l-16 -2l-12 186q-5 72 -33.5 98.5t-103.5 26.5h-430v-1430q0 -17 8 -27.5t42.5 -19t99.5 -8.5h35v-15h-400v15h40q65 0 99.5 8.5t42.5 19t8 27.5v1430h-459q-50 0 -81 -24.5t-31 -64.5q0 -70 32 -113t85 -43q32 0 80.5 25t71.5 25 q47 0 76.5 -29.5t29.5 -78.5q0 -65 -46 -105t-121 -40q-107 0 -172 87.5t-65 229.5q0 19 8 142q0 9 10 9z" />
<glyph unicode="U" horiz-adv-x="1377" d="M1180 1240q0 230 59 398.5t182 264.5t300 96q85 0 145.5 -45t60.5 -108q0 -47 -36.5 -80.5t-87.5 -33.5q-29 0 -80.5 21.5t-94.5 21.5q-107 0 -189.5 -45.5t-134 -127t-77.5 -187.5t-26 -232l-1 -698q0 -214 -142 -352t-358 -138q-209 0 -344.5 139t-135.5 351v965 q0 17 -8 27.5t-42.5 19t-99.5 8.5h-40v15h440v-15h-75q-65 0 -99.5 -8.5t-42.5 -19t-8 -27.5v-965q0 -204 127 -337t328 -133q208 0 344 132t136 338v755z" />
<glyph unicode="V" horiz-adv-x="1310" d="M10 1520h518v-15h-201q-88 0 -117.5 -6t-29.5 -30q0 -14 7 -32l490 -1412l435 1254q39 111 62 175t60 152t67 136.5t73 105t88 84.5t103.5 47.5t126.5 19.5q85 0 145.5 -45t60.5 -108q0 -47 -36.5 -80.5t-87.5 -33.5q-29 0 -80.5 21.5t-94.5 21.5q-48 0 -91 -9.5 t-77 -24.5t-65 -40t-53.5 -49t-45 -59t-36.5 -62t-30.5 -67t-25.5 -64.5t-22 -62.5q-2 -7 -3.5 -10.5t-3 -9t-3.5 -9.5l-459 -1322h-19l-502 1445q-14 40 -50 57t-100 17h-3v15z" />
<glyph unicode="W" horiz-adv-x="2120" d="M10 1520h399v-15h-71h-23q-80 0 -107.5 -5.5t-27.5 -29.5q0 -12 6 -28l463 -1361q10 -32 22 -32q11 0 21 31l358 1054l-5 14q-51 140 -51 299q0 176 94 284t247 108q85 0 145.5 -45t60.5 -108q0 -47 -36.5 -80.5t-87.5 -33.5q-29 0 -80.5 21.5t-94.5 21.5q-93 0 -150 -70 t-57 -184q0 -113 45 -242l353 -1038q10 -32 22 -32q11 0 21 31l463 1362q6 16 6 27q0 24 -28.5 30t-108.5 6h-52v15h354v-15q-66 0 -102.5 -15t-50.5 -54l-489 -1439h-32l-376 1106l-376 -1106h-32l-489 1439q-14 39 -50.5 54t-102.5 15v15z" />
<glyph unicode="X" horiz-adv-x="1320" d="M1011 1347l-316 -504q-10 -16 -10 -39q0 -18 9 -32l431 -687q36 -57 120 -67q23 -3 40 -3h15q1 -15 0 -15h-413v15h96q134 0 134 29q0 10 -13 31l-432 687q-7 11 -14 11t-15 -13l-432 -685q-13 -21 -13 -31q0 -29 134 -29h101v-15h-413v15h15q17 0 40 3q84 10 120 67 l429 684q9 13 9 32q0 23 -11 40l-375 596q-19 30 -58 47t-69 19l-30 2h-30v15h410v-15h-73q-134 0 -134 -38q0 -9 7 -20l375 -598q7 -12 15 -12t15 11l341 544q158 252 216 331q123 167 243 227q97 49 217 49q85 0 145.5 -45t60.5 -108q0 -47 -36.5 -80.5t-87.5 -33.5 q-29 0 -80.5 21.5t-94.5 21.5q-53 0 -101 -8t-87 -20t-77.5 -34t-66 -41.5t-59 -52t-51 -55.5t-46.5 -62t-41.5 -62t-40.5 -64q-12 -19 -18 -29z" />
<glyph unicode="Y" horiz-adv-x="1301" d="M1108 1392q44 81 78.5 139.5t79.5 126.5t85 114.5t91 92.5t102 73t112.5 44t128.5 17q85 0 145.5 -45t60.5 -108q0 -47 -36.5 -80.5t-87.5 -33.5q-29 0 -80.5 21.5t-94.5 21.5q-73 0 -138 -15.5t-113.5 -37t-95.5 -60.5t-77 -70t-65 -82.5t-52 -81t-45 -81.5l-436 -797 v-480q0 -17 8 -27.5t42.5 -19t99.5 -8.5h35v-15h-400v15h40q65 0 99.5 8.5t42.5 19t8 27.5v472l-4 8l-480 877q-15 27 -31.5 44t-34 23.5t-29.5 8.5t-29 2h-27v15h404v-15h-142q-52 0 -75.5 -6.5t-23.5 -26.5q0 -13 11 -35l474 -867z" />
<glyph unicode="Z" horiz-adv-x="1220" d="M121 1520h1030v-20q-33 0 -77.5 -33t-85.5 -99l-766 -1228q-45 -72 -114 -120h919q52 0 82.5 28.5t34.5 82.5l11 140l15 -2l-20 -260q0 -9 -10 -9h-1090v20q33 0 74 33t82 99l766 1228q27 41 63 76q13 12 13 23q0 21 -29 21h-784q-50 0 -81 -24.5t-31 -64.5 q0 -70 43 -113t114 -43q32 0 80.5 25t71.5 25q47 0 76.5 -29.5t29.5 -78.5q0 -65 -46 -105t-121 -40q-125 0 -201 87.5t-76 229.5q0 46 17 142q0 9 10 9z" />
<glyph unicode="[" horiz-adv-x="360" d="M265 1540l-160 2v-1964l160 2h40v-20h-225v2000h225v-20h-40z" />
<glyph unicode="\" horiz-adv-x="1200" d="M63 1531l21 13l1053 -1644l-21 -13z" />
<glyph unicode="]" horiz-adv-x="360" d="M95 1540h-40v20h225v-2000h-225v20h40l160 -2v1964z" />
<glyph unicode="^" horiz-adv-x="1095" d="M542 1528q4 4 8 4q5 0 8 -4l420 -546l-16 -12l-396 515q-5 8 -16 8q-10 0 -16 -8l-412 -516l-15 13z" />
<glyph unicode="_" horiz-adv-x="1580" d="M1440 -420h-1360v20h1360v-20z" />
<glyph unicode="`" horiz-adv-x="480" d="M403 1240l-14 -14l-293 268q-8 8 2 17q8 9 17 0z" />
<glyph unicode="a" horiz-adv-x="1110" d="M571 1045q144 0 236.5 -91.5t92.5 -232.5v-486l16 -95q20 -119 61 -120l107 10l2 -20l-109 -15h-1q-62 0 -85 141q-2 11 -6 36t-7 41.5t-3 20.5v22q0 27 -7 27q-6 0 -15 -21q-54 -116 -161 -191.5t-237 -75.5q-170 0 -280 75t-110 190q0 240 389 280q10 1 59 5.5t73 7.5 t71 10.5t74.5 17t60 23.5t51.5 34t27 45q5 18 5 32v6q-1 132 -85 218t-216 86q-101 0 -163 -33t-62 -86q0 -43 36.5 -89.5t36.5 -75.5q0 -42 -29 -68t-75 -26q-69 0 -111 48.5t-42 127.5q0 100 111.5 161t294.5 61zM875 646q-16 -27 -48.5 -47.5t-64 -32t-82.5 -21 t-79.5 -12.5t-81.5 -7.5t-63 -5.5q-81 -8 -143.5 -25t-114.5 -46.5t-80 -77.5t-28 -111q0 -107 103 -176t262 -69q114 0 212.5 63.5t153 162t54.5 204.5v201z" />
<glyph unicode="b" horiz-adv-x="1075" d="M170 0v1455q0 28 -23.5 39t-81.5 11h-35v15h35l130 3v-1214q41 -134 140 -214t232 -80q182 0 300 142.5t118 362.5t-115 362.5t-293 142.5q-62 0 -100 -52t-38 -137q0 -43 36.5 -89.5t36.5 -75.5q0 -42 -29 -68t-75 -26q-69 0 -111 48.5t-42 127.5q0 131 88.5 211.5 t233.5 80.5q188 0 310.5 -148.5t122.5 -376.5t-125 -376.5t-318 -148.5q-110 0 -198.5 52.5t-143.5 145.5q-11 19 -20 19q-10 0 -11 -26l-4 -186h-20z" />
<glyph unicode="c" horiz-adv-x="1010" d="M555 1045q183 0 294.5 -69.5t111.5 -182.5q0 -79 -42 -127.5t-111 -48.5q-46 0 -75 26t-29 68q0 29 36.5 75.5t36.5 89.5q0 149 -225 149q-201 0 -331.5 -142.5t-130.5 -364.5q0 -221 136 -362t349 -141q99 0 195.5 33t171.5 97l13 -15q-78 -66 -178 -100.5t-202 -34.5 q-222 0 -366 147.5t-144 375.5q0 229 139 378t351 149z" />
<glyph unicode="d" horiz-adv-x="1125" d="M730 1520h45l130 3v-1274l9 -100q5 -56 24 -95.5t41 -40.5l97 18l4 -20l-98 -16h-2q-37 0 -61 45.5t-30 106.5l-4 45q-3 27 -11 27t-20 -21q-55 -94 -145 -148.5t-201 -54.5q-193 0 -318 148.5t-125 376.5t122.5 376.5t310.5 148.5q145 0 233.5 -80.5t88.5 -211.5 q0 -79 -42 -127.5t-111 -48.5q-46 0 -75 26t-29 68q0 29 36.5 75.5t36.5 89.5q0 85 -38 137t-100 52q-177 0 -292.5 -142.5t-115.5 -362.5t118 -362.5t300 -142.5q133 0 232 81t140 215v1144q0 28 -23.5 39t-81.5 11h-45v15z" />
<glyph unicode="e" horiz-adv-x="1090" d="M555 1045q212 0 341 -142t129 -363q0 -10 -10 -10h-524q-156 0 -251 61t-95 161q0 79 42 127.5t111 48.5q46 0 75 -26t29 -68q0 -29 -36.5 -75.5t-36.5 -89.5q0 -53 45.5 -86t119.5 -33h455q45 0 45 68q0 16 -3 30q-30 171 -145.5 274t-290.5 103q-138 0 -248 -70h-38 q125 90 286 90zM102 732l14 -34q-26 -83 -26 -178q0 -220 127.5 -362.5t327.5 -142.5q309 0 439 231l18 -10q-62 -111 -176.5 -176t-280.5 -65q-210 0 -345 149t-135 376q0 113 37 212z" />
<glyph unicode="f" horiz-adv-x="720" d="M80 1020h124q35 0 32 35q-8 80 -8 124q0 69 19 127t50.5 97t73 66t85.5 39t89 12q119 0 192 -58t73 -153q0 -79 -42 -127.5t-111 -48.5q-46 0 -75 26t-29 68q0 29 36.5 75.5t36.5 89.5q0 49 -22 78.5t-58 29.5q-54 0 -104 -18.5t-93.5 -55.5t-70 -101t-26.5 -147 q0 -33 9 -121q4 -37 40 -37h259v-20h-259q-36 0 -36 -35v-900q0 -17 8 -26.5t42.5 -16.5t99.5 -7h25v-15h-390v15h40q65 0 99.5 7t42.5 16.5t8 26.5v901q0 34 -36 34h-124v20z" />
<glyph unicode="g" horiz-adv-x="1120" d="M530 1045q163 0 264 -88q13 -11 20 -11q8 0 14 14q14 39 41.5 61.5t65.5 23.5q98 0 98 -28q0 -23 -20 -23q-12 0 -37 15.5t-43 15.5q-38 0 -63.5 -30t-32.5 -83q73 -93 73 -232q0 -173 -106.5 -269t-273.5 -96q-107 0 -191 35q-61 -59 -61 -107q0 -36 13 -61 q10 -19 26.5 -32.5t43.5 -22.5t50.5 -14.5t64.5 -9t67.5 -4.5t78 -3t78.5 -3q175 0 282.5 -83t107.5 -219q0 -134 -142 -202.5t-405 -68.5q-231 0 -372 91.5t-141 240.5q0 88 42 142t111 54q51 0 82.5 -31.5t31.5 -82.5q0 -25 -20.5 -52t-41.5 -58t-21 -65q0 -96 90.5 -155 t238.5 -59q260 0 393.5 62.5t133.5 183.5q0 125 -102 201.5t-269 76.5q-28 1 -86 3t-89.5 3.5t-78.5 7.5t-75 16t-55.5 28.5t-41.5 45.5q-15 29 -15 70q0 54 62 116q-91 44 -140.5 127t-49.5 194q0 175 112.5 270t287.5 95zM530 1025q-168 0 -271.5 -89.5t-103.5 -255.5 q0 -159 100 -252t275 -93q160 0 257.5 89.5t97.5 255.5q0 158 -94.5 251.5t-260.5 93.5z" />
<glyph unicode="h" horiz-adv-x="1250" d="M50 0v15h40q65 0 99.5 8.5t42.5 19t8 27.5v1385q0 28 -23.5 39t-81.5 11h-45v15h45l130 3v-832q0 -31 7 -31q6 0 16 25q61 155 183 257.5t259 102.5q161 0 245.5 -72t84.5 -208v-689q0 -76 21 -125t48 -49q31 0 71 24t69 24q48 0 77 -25.5t29 -67.5q0 -58 -46 -94 t-121 -36q-78 0 -125.5 73.5t-47.5 194.5v767q0 127 -78 193.5t-227 66.5q-113 0 -221.5 -81t-176 -211.5t-67.5 -267.5v-392q0 -17 8 -27.5t42.5 -19t99.5 -8.5h55v-15h-420z" />
<glyph unicode="i" horiz-adv-x="500" d="M265 1040v-970q0 -17 8 -27.5t42.5 -19t99.5 -8.5h35v-15h-400v15h40q65 0 99.5 8.5t42.5 19t8 27.5v905q0 28 -23.5 39t-81.5 11q-68 0 -110 42t-42 110q0 125 71 201.5t188 76.5q31 0 53 -22t22 -53t-22 -53t-53 -22q-23 0 -61.5 20.5t-66.5 20.5q-50 0 -80.5 -46.5 t-30.5 -122.5q0 -61 37 -99t97 -38h128z" />
<glyph unicode="j" horiz-adv-x="380" d="M50 1040h45l130 3v-1023q0 -225 -86.5 -362.5t-227.5 -137.5q-84 0 -135 42t-51 111q0 47 28.5 75.5t75.5 28.5q29 0 80.5 -21.5t94.5 -21.5q88 0 142 78.5t54 207.5v955q0 28 -23.5 39t-81.5 11h-45v15zM137 1380q0 33 23 54t52 21q33 0 54 -23t21 -52q0 -33 -23 -54 t-52 -21q-33 0 -54 23t-21 52z" />
<glyph unicode="k" horiz-adv-x="1050" d="M90 1520h45l130 3v-963h167q16 0 36.5 11.5t31.5 25.5l287 363q21 26 21 40q0 25 -77 25h-103v15h382v-15q-29 0 -49.5 -2t-51.5 -8.5t-58 -23.5t-48 -43l-314 -398l320 -407q66 -83 112 -136t107 -108t117 -85.5t128.5 -49.5t155.5 -19q43 0 94.5 21.5t80.5 21.5 q51 0 87.5 -33.5t36.5 -80.5q0 -63 -60.5 -108t-145.5 -45q-75 0 -148 29t-128 66t-133.5 121t-124.5 140.5t-142 179.5q-38 49 -58 74l-293 373q-9 12 -28.5 24t-34.5 12h-167v-470q0 -17 8 -27.5t42.5 -19t99.5 -8.5h35v-15h-400v15h40q65 0 99.5 8.5t42.5 19t8 27.5v1385 q0 28 -23.5 39t-81.5 11h-45v15z" />
<glyph unicode="l" horiz-adv-x="500" d="M265 70q0 -17 8 -27.5t42.5 -19t99.5 -8.5h35v-15h-400v15h40q65 0 99.5 8.5t42.5 19t8 27.5v1385q0 28 -23.5 39t-81.5 11h-45v15h45l130 3v-1453z" />
<glyph unicode="m" horiz-adv-x="1890" d="M110 1040h25l130 3v-354q0 -29 5 -29t12 26q52 157 162 258t246 101q142 0 218.5 -72t76.5 -208v-76q0 -29 5 -29q4 0 12 27q53 157 163 257.5t245 100.5q141 0 215.5 -72t74.5 -208v-689q0 -76 21 -125t48 -49q31 0 71 24t69 24q48 0 77 -25.5t29 -67.5q0 -58 -46 -94 t-121 -36q-78 0 -125.5 73.5t-47.5 194.5v767q0 127 -67 193.5t-198 66.5q-115 0 -213.5 -79.5t-155 -208t-56.5 -272.5v-392q0 -17 8 -27.5t42.5 -19t99.5 -8.5h30v-15h-385v15h30q65 0 99.5 8.5t42.5 19t8 27.5v692q0 127 -69 193.5t-201 66.5q-115 0 -213.5 -79.5 t-155 -208t-56.5 -272.5v-392q0 -17 8 -27.5t42.5 -19t99.5 -8.5h55v-15h-420v15h40q65 0 99.5 8.5t42.5 19t8 27.5v905q0 28 -23.5 39t-81.5 11h-25v15z" />
<glyph unicode="n" horiz-adv-x="1250" d="M110 1040h25l130 3v-352q0 -31 7 -31q6 0 16 25q61 155 183 257.5t259 102.5q161 0 245.5 -72t84.5 -208v-689q0 -76 21 -125t48 -49q31 0 71 24t69 24q48 0 77 -25.5t29 -67.5q0 -58 -46 -94t-121 -36q-78 0 -125.5 73.5t-47.5 194.5v767q0 127 -77 193.5t-228 66.5 q-87 0 -172 -47t-149 -123.5t-104 -180t-40 -209.5v-392q0 -17 8 -27.5t42.5 -19t99.5 -8.5h55v-15h-420v15h40q65 0 99.5 8.5t42.5 19t8 27.5v905q0 28 -23.5 39t-81.5 11h-25v15z" />
<glyph unicode="o" horiz-adv-x="1110" d="M555 1045q169 0 272.5 -75t104.5 -197q0 -79 -36.5 -127.5t-96.5 -48.5q-49 0 -78.5 31.5t-29.5 82.5q0 26 28.5 74t28.5 81q-1 72 -53.5 115.5t-139.5 43.5q-203 0 -334 -142.5t-131 -362.5t131.5 -362.5t333.5 -142.5t333.5 142.5t131.5 362.5q0 143 -59 258l-1 50 q85 -134 85 -308q0 -228 -138.5 -376.5t-351.5 -148.5t-351.5 148.5t-138.5 376.5t138 376.5t352 148.5z" />
<glyph unicode="p" horiz-adv-x="1145" d="M110 1040h25l130 3v-146q201 148 382 148q188 0 310.5 -148.5t122.5 -376.5t-125 -376.5t-318 -148.5q-141 0 -226.5 86t-85.5 226q0 79 36.5 127.5t96.5 48.5q49 0 78.5 -31.5t29.5 -82.5q0 -26 -28.5 -74t-28.5 -81q0 -90 35 -144.5t93 -54.5q182 0 300 142.5 t118 362.5t-115 362.5t-293 142.5q-180 0 -382 -153v-1282q0 -17 8 -27.5t42.5 -19t99.5 -8.5h75v-15h-440v15h40q65 0 99.5 8.5t42.5 19t8 27.5v1385q0 28 -23.5 39t-81.5 11h-25v15z" />
<glyph unicode="q" horiz-adv-x="1005" d="M905 1040v-1455q0 -18 5.5 -26.5t37.5 -16t97 -7.5h10v-15h-355v15h30q65 0 99.5 7t42.5 16.5t8 26.5v1287q-202 153 -382 153q-178 0 -293 -142.5t-115 -362.5t117.5 -362.5t298.5 -142.5q58 0 94 55t36 144q0 33 -28.5 81t-28.5 74q0 51 29.5 82.5t78.5 31.5 q60 0 96.5 -48.5t36.5 -127.5q0 -140 -86.5 -226t-227.5 -86q-192 0 -316.5 148.5t-124.5 376.5t122.5 376.5t310.5 148.5q181 0 382 -148l5 143h20z" />
<glyph unicode="r" horiz-adv-x="900" d="M110 1040h25l130 3v-330q37 145 132 238.5t219 93.5q107 0 172.5 -53t65.5 -139q0 -79 -36.5 -127.5t-96.5 -48.5q-49 0 -78.5 31.5t-29.5 82.5q0 26 28.5 74t28.5 81q0 35 -15 57t-39 22q-98 0 -179.5 -65t-126.5 -173t-45 -232v-485q0 -17 8 -27.5t42.5 -19t99.5 -8.5 h55v-15h-420v15h40q65 0 99.5 8.5t42.5 19t8 27.5v905q0 28 -23.5 39t-81.5 11h-25v15z" />
<glyph unicode="s" horiz-adv-x="1010" d="M485 1045q188 0 314 -101q7 -6 16.5 -14.5t14 -12t8.5 -3.5q15 0 15 46q0 2 -0.5 9.5t-1 27.5t-1.5 43h16l11 -300q0 -7 -8 -7t-8 7l-1 8q-18 135 -73 180q-118 97 -302 97q-143 0 -236.5 -63.5t-93.5 -160.5q0 -50 44 -88t114 -63t154.5 -48.5t169.5 -52.5t155 -66 t114 -98t44 -141q0 -108 -123 -178.5t-312 -70.5q-202 0 -326 72t-124 190q0 79 42 127.5t111 48.5q46 0 75 -26t29 -68q0 -29 -36.5 -75.5t-36.5 -89.5q0 -71 73 -115t193 -44q179 0 294.5 64.5t115.5 164.5q0 74 -44 131t-114 91.5t-154.5 61.5t-169.5 51.5t-155 51.5 t-114 70t-44 100q0 106 100 175t255 69z" />
<glyph unicode="t" horiz-adv-x="830" d="M504 1000h-218q-36 0 -36 -35v-575q0 -163 74 -269t187 -106q72 0 137.5 31t103.5 91l16 -10q-41 -65 -111 -98.5t-146 -33.5q-124 0 -205 111.5t-81 283.5v575q0 35 -36 35h-149v20h90q65 0 82.5 21.5t17.5 101.5v177h20v-266q0 -34 36 -34h218q43 0 61.5 17.5 t18.5 42.5q0 20 -16.5 63.5t-16.5 65.5q0 47 31.5 80.5t76.5 33.5q59 0 95 -36.5t36 -96.5q0 -86 -78.5 -138t-207.5 -52z" />
<glyph unicode="u" horiz-adv-x="1220" d="M50 1040h25l130 3v-765q0 -127 77 -193.5t228 -66.5q87 0 172 47t149 123.5t104 180t40 209.5v102q0 125 -51 201t-134 76q-56 0 -90.5 26.5t-34.5 70.5q0 50 32.5 80.5t86.5 30.5q97 0 156.5 -112.5t59.5 -296.5v-507l9 -100q5 -56 24 -94.5t41 -39.5l96 16l4 -20 l-97 -16h-2q-37 0 -61 45.5t-30 106.5l-9 101v101q0 31 -7 31q-6 0 -16 -25q-61 -155 -183 -257.5t-259 -102.5q-161 0 -245.5 72t-84.5 208v700q0 28 -23.5 39t-81.5 11h-25v15z" />
<glyph unicode="v" horiz-adv-x="1200" d="M977 896q90 205 113 248q70 134 152 177q54 28 122 28q70 0 113 -33.5t43 -89.5q0 -42 -26 -68t-68 -26q-29 0 -75.5 16.5t-89.5 16.5q-47 0 -86.5 -21t-72 -64t-55 -85t-50.5 -105l-390 -893h-27l-401 954q-16 40 -51 57t-97 17h-11v15h398v-15h-76q-86 0 -118 -6.5 t-32 -29.5q0 -13 9 -32l373 -877q13 -31 23 -31q11 0 24 31z" />
<glyph unicode="w" horiz-adv-x="1880" d="M1655 890l-375 -893h-27l-301 689q-11 23 -21 23q-11 0 -20 -22l-291 -690h-27l-415 953q-17 40 -51.5 57.5t-96.5 17.5h-11v15h398v-15h-76q-86 0 -118 -6.5t-32 -29.5q0 -13 9 -32l385 -877q13 -31 24 -31q10 0 23 31l288 681l-83 190q-17 40 -51 57t-96 17h-10v15h403 v-15h-81q-86 0 -118.5 -6.5t-32.5 -29.5q0 -13 9 -32l385 -877q13 -31 24 -31q10 0 23 31l345 816q5 13 16 38q34 81 51.5 119.5t47.5 97.5t53.5 86t57.5 58t73.5 42.5t87.5 11.5q70 0 113 -33.5t43 -89.5q0 -42 -26 -68t-68 -26q-29 0 -75.5 16.5t-89.5 16.5q-47 0 -87 -21 t-72.5 -62t-56.5 -85.5t-50 -106.5z" />
<glyph unicode="x" d="M70 1040h410v-15h-101q-63 0 -86 -7.5t-23 -26.5q0 -11 11 -26l268 -344q13 -16 18 -16q3 0 19 20l195 278q132 188 189 253q132 153 269 184q42 9 85 9q70 0 113 -33.5t43 -89.5q0 -42 -26 -68t-68 -26q-29 0 -75.5 16.5t-89.5 16.5q-72 0 -137 -23.5t-117.5 -66 t-91.5 -85.5t-78 -98l-197 -279q-8 -11 -8 -34q0 -14 15 -33l359 -461q54 -70 155 -70h19q1 -15 0 -15h-393v15h86q124 0 124 29q0 15 -13 31l-361 461q-13 16 -19 16q-8 0 -15 -13l-299 -429q-23 -32 -23 -52q0 -23 22.5 -33t77.5 -10h107v-15h-414v15h40q60 0 96 23t77 82 l299 429q11 17 11 30q0 5 -2 10t-4 7.5t-7 8t-6 7.5l-269 345q-53 68 -158 68h-27v15z" />
<glyph unicode="y" d="M742 1040h398v-15h-11q-52 0 -81.5 -17t-46.5 -57l-465 -1106q-68 -159 -171 -241.5t-254 -82.5q-85 0 -145.5 45t-60.5 108q0 47 36.5 80.5t87.5 33.5q33 0 60 -10t42.5 -21.5t47 -21.5t73.5 -10q86 0 159 32.5t104 100.5l54 117q1 2 1 7q0 19 -15 56l-352 852 q-32 78 -53.5 98t-70.5 20q-23 0 -47 -8q-4 -2 -7 -2q-19 0 -19 19q0 28 68 28q33 0 54 -6.5t38.5 -27t29 -43.5t31.5 -72l343 -827q12 -29 19 -29q6 0 19 30l375 887q9 23 9 32q0 23 -32 29.5t-118 6.5h-100v15z" />
<glyph unicode="z" horiz-adv-x="1060" d="M91 1040h901v-20q-57 0 -163 -132l-607 -748q-76 -94 -114 -120h759q52 0 82.5 28.5t34.5 82.5l11 140l15 -2l-20 -260q0 -9 -10 -9h-930l1 20q29 0 63.5 31t91.5 101l607 748q33 41 69 77q14 14 14 25q0 18 -28 18h-663q-50 0 -81 -24.5t-31 -64.5q0 -61 37.5 -98.5 t99.5 -37.5q30 0 72 17.5t60 17.5q43 0 69.5 -28.5t26.5 -74.5q0 -56 -43 -90.5t-114 -34.5q-107 0 -172 79t-65 208q0 46 17 142q0 9 10 9z" />
<glyph unicode="{" horiz-adv-x="560" d="M255 1270v-499q0 -45 -11.5 -81t-29.5 -59t-41 -39t-43.5 -22.5t-39.5 -8.5v-2q24 -2 49 -13t53 -33t45.5 -64.5t17.5 -99.5v-499q0 -118 74.5 -194t190.5 -76v-20q-126 0 -208 82t-82 208v499q0 55 -17 95.5t-43 59.5t-48.5 27t-41.5 8q-40 0 -40 8v26q0 8 40 8 q20 0 43 8.5t48.5 28t42 59.5t16.5 94v499q0 220 71.5 388t202.5 260t302 92q70 0 131.5 -43t61.5 -112q0 -45 -41 -81t-91 -36q-29 0 -91 17.5t-99 17.5q-190 0 -306 -138.5t-116 -364.5z" />
<glyph unicode="|" horiz-adv-x="200" d="M105 -400h-25v1920h25v-1920z" />
<glyph unicode="}" horiz-adv-x="560" d="M305 -150v499q0 45 11.5 81t29.5 59t41 39t43.5 22.5t39.5 8.5v2q-24 2 -49 13t-53 33t-45.5 64.5t-17.5 99.5v499q0 118 -74.5 194t-190.5 76v20q126 0 208 -82t82 -208v-499q0 -55 17 -95.5t43 -59.5t48.5 -27t41.5 -8q40 0 40 -8v-26q0 -8 -40 -8q-20 0 -43 -8.5 t-48.5 -28t-42 -59.5t-16.5 -94v-499q0 -220 -71.5 -388t-202.5 -260t-302 -92q-70 0 -131.5 43t-61.5 112q0 45 41 81t91 36q29 0 91 -17.5t99 -17.5q190 0 306 138.5t116 364.5z" />
<glyph unicode="~" horiz-adv-x="800" d="M692 798q8 -2 8 -12q-9 -52 -40.5 -79t-72.5 -27q-58 0 -126 32t-133 64t-115 32q-35 0 -60.5 -22t-33.5 -65q-2 -9 -11 -9q-3 0 -6 3t-2 9q9 50 39.5 78t73.5 28q45 0 98 -20t93.5 -44t91 -44t91.5 -20q34 0 59.5 21.5t33.5 66.5q0 3 3 6t9 2z" />
<glyph unicode="&#xa2;" horiz-adv-x="1000" d="M520 1240h25v-115q178 0 286.5 -69.5t108.5 -182.5q0 -79 -42 -127.5t-111 -48.5q-46 0 -75 26t-29 68q0 29 36.5 75.5t36.5 89.5q0 67 -58 108t-153 41v-1012h15q99 0 195.5 33t171.5 97l13 -15q-78 -66 -178 -100.5t-202 -34.5h-15v-113h-25v114q-207 14 -338.5 160 t-131.5 364q0 224 132.5 371.5t337.5 155.5v115zM520 94v1011q-195 -7 -320 -148.5t-125 -358.5q0 -210 123.5 -350t321.5 -154z" />
<glyph unicode="&#xa3;" horiz-adv-x="1145" d="M656 1425q149 0 240 -69.5t91 -182.5q0 -88 -42 -142t-111 -54q-51 0 -82.5 31.5t-31.5 82.5q0 20 13 42t28.5 38.5t28.5 42t13 52.5q0 62 -40.5 100.5t-106.5 38.5q-129 0 -206 -93t-77 -249v-320h349l-4 -20h-345v-86q0 -246 -24 -391q60 -20 145.5 -61.5t150.5 -76 t142.5 -61.5t137.5 -27q124 0 154 133l16 70l20 -4l-16 -70q-17 -76 -64 -115t-110 -39t-143 27.5t-145.5 62.5t-150 77.5t-141.5 62.5q-22 -115 -65.5 -172.5t-113.5 -57.5q-57 0 -93.5 39t-36.5 103q0 60 49 97t129 37q50 0 112 -18q22 135 22 384v86h-190l4 20h186v320 q0 163 85 262.5t223 99.5z" />
<glyph unicode="&#xa5;" horiz-adv-x="1120" d="M12 1420h404v-15h-142q-52 0 -75.5 -6.5t-23.5 -26.5q0 -16 11 -35l452 -827q175 211 266.5 416t91.5 377q0 225 -154 352q-24 20 -67 41t-73.5 35.5t-54 46.5t-23.5 79q0 51 35.5 82t93.5 31q151 0 244 -140t93 -369q0 -213 -110 -463.5t-330 -511.5v-6h330v-20h-330 v-180h330v-20h-330v-190q0 -17 8 -27.5t42.5 -19t99.5 -8.5h35v-15h-400v15h40q65 0 99.5 8.5t42.5 19t8 27.5v190h-285v20h285v180h-285v20h285v2l-4 8l-458 837q-15 27 -31.5 44t-34 23.5t-29.5 8.5t-29 2h-27v15z" />
<glyph unicode="&#xa8;" horiz-adv-x="800" d="M120 1340q0 16 12 28t28 12t28 -12t12 -28t-12 -28t-28 -12t-28 12t-12 28zM600 1340q0 16 12 28t28 12t28 -12t12 -28t-12 -28t-28 -12t-28 12t-12 28z" />
<glyph unicode="&#xa9;" horiz-adv-x="1880" d="M925 1213q183 0 294.5 -69.5t111.5 -182.5q0 -79 -42 -127.5t-111 -48.5q-46 0 -75 26t-29 68q0 29 36.5 75.5t36.5 89.5q0 67 -62.5 108t-162.5 41q-181 0 -291.5 -120.5t-110.5 -316.5q0 -200 114.5 -321.5t305.5 -121.5q207 0 355 125l13 -15q-153 -130 -368 -130 q-202 0 -323.5 127t-121.5 336q0 206 118.5 331.5t311.5 125.5zM1820 758q0 -164 -69.5 -313.5t-187.5 -257.5t-281 -172t-342 -64t-342 64t-281 172t-187.5 257.5t-69.5 313.5q0 131 44.5 253.5t126 221t189.5 173t242.5 115t277.5 40.5t277.5 -40.5t242.5 -115t189.5 -173 t126 -221t44.5 -253.5zM1800 758q0 159 -68 304t-183 250t-274.5 167t-334.5 62t-334.5 -62t-274.5 -167t-183 -250t-68 -304q0 -160 68 -305.5t183 -251t274.5 -168t334.5 -62.5t334.5 62.5t274.5 168t183 251t68 305.5z" />
<glyph unicode="&#xab;" horiz-adv-x="680" d="M344 832l16 -14l-258 -294v-8l258 -292l-16 -14l-260 295q-10 10 -10 14v2q0 4 10 14zM584 832l16 -14l-258 -294v-8l258 -292l-16 -14l-260 295q-10 10 -10 14v2q0 4 10 14z" />
<glyph unicode="&#xad;" horiz-adv-x="720" d="M642 770l-4 -20h-560l4 20h560z" />
<glyph unicode="&#xae;" horiz-adv-x="1880" d="M506 1335h412q194 0 312.5 -86.5t118.5 -227.5q0 -132 -103.5 -217t-269.5 -100q79 -24 126.5 -84t86.5 -167q10 -25 30.5 -85.5t35 -100.5t41 -101t49.5 -102.5t58.5 -89t72 -76t84.5 -47.5t101 -19q43 0 94.5 21.5t80.5 21.5q51 0 87.5 -33.5t36.5 -80.5 q0 -63 -60.5 -108t-145.5 -45q-72 0 -132 21.5t-110.5 76t-84.5 100t-75.5 144t-62 153.5t-62.5 178q-38 110 -58 166q-35 97 -71.5 148.5t-99 78.5t-163.5 27h-161v-427q0 -12 6 -19.5t31.5 -13.5t73.5 -6h29v-15h-308v15h33q49 0 75 6.5t31 13.5t5 19v1010q0 12 -7 19 t-32.5 12t-71.5 5h-33v15zM1236 -2q-146 -47 -296 -47q-179 0 -342 64t-281 172t-187.5 257.5t-69.5 313.5q0 131 44.5 253.5t126 221t189.5 173t242.5 115t277.5 40.5t277.5 -40.5t242.5 -115t189.5 -173t126 -221t44.5 -253.5q0 -205 -104.5 -381t-282.5 -287l-12 16 q175 109 277 280.5t102 371.5q0 159 -68 304t-183 250t-274.5 167t-334.5 62t-334.5 -62t-274.5 -167t-183 -250t-68 -304q0 -160 68 -305.5t183 -251t274.5 -168t334.5 -62.5q146 0 289 46zM675 1315v-594h241q181 0 294.5 83t113.5 217q0 132 -112 213t-296 81h-241z" />
<glyph unicode="&#xb4;" horiz-adv-x="480" d="M76 1238l288 271q8 9 17 0t2 -17l-293 -268z" />
<glyph unicode="&#xb8;" horiz-adv-x="900" d="M362 15l-35 -139q54 16 85 16q71 0 122 -51t51 -125q0 -64 -52.5 -110t-127.5 -46q-52 0 -96.5 23t-68.5 63q-4 9 3 13q10 6 14 -3q21 -35 61 -55.5t87 -20.5q68 0 114 40.5t46 95.5q0 65 -45.5 110.5t-107.5 45.5q-34 0 -96 -20q-10 -3 -12 6v6l38 156z" />
<glyph unicode="&#xbb;" horiz-adv-x="680" d="M336 208l-16 14l258 294v8l-258 292l16 14l260 -295q10 -10 10 -14v-2q0 -4 -10 -14zM96 208l-16 14l258 294v8l-258 292l16 14l260 -295q10 -10 10 -14v-2q0 -4 -10 -14z" />
<glyph unicode="&#x2c6;" horiz-adv-x="880" d="M130 1210l-14 15l313 275h22l313 -275l-14 -15l-307 270h-6z" />
<glyph unicode="&#x2da;" horiz-adv-x="560" d="M280 1470q64 0 107 -42t43 -108q0 -64 -42 -107t-108 -43q-64 0 -107 42t-43 108q0 64 42 107t108 43zM280 1450q-58 0 -94 -37t-36 -93q0 -58 37 -94t93 -36q58 0 94 37t36 93q0 58 -37 94t-93 36z" />
<glyph unicode="&#x2dc;" horiz-adv-x="560" d="M532 1448q8 -2 8 -12q-9 -52 -40.5 -79t-72.5 -27q-43 0 -84 17t-69 37t-66.5 37t-74.5 17q-35 0 -60 -22t-33 -65q-2 -9 -12 -9q-3 0 -6 3t-2 9q9 50 39.5 78t73.5 28q41 0 82 -17t69.5 -37t67 -37t75.5 -17q34 0 59.5 21.5t33.5 66.5q0 3 3 6t9 2z" />
<glyph unicode="&#x400;" horiz-adv-x="1290" d="M773 1640l-14 -14l-293 268q-8 8 2 17q8 9 17 0zM50 1520h1070q10 0 10 -9l25 -380l-20 -2l-16 254q-4 66 -32.5 91.5t-94.5 25.5h-726l-1 -810h205q85 0 137.5 44t52.5 115q0 34 -21 65t-41.5 58t-20.5 52q0 51 31.5 82.5t82.5 31.5q69 0 111 -54t42 -142 q0 -122 -103 -197t-271 -75h-205v-650h807q67 0 94.5 26t32.5 91l16 254l20 -2l-25 -380q0 -9 -10 -9h-1150v15h40q64 0 99 8.5t43 19.5t8 28v1384q0 26 -29 38t-121 12h-40v15z" />
<glyph unicode="&#x401;" horiz-adv-x="1290" d="M380 1740q0 16 12 28t28 12t28 -12t12 -28t-12 -28t-28 -12t-28 12t-12 28zM860 1740q0 16 12 28t28 12t28 -12t12 -28t-12 -28t-28 -12t-28 12t-12 28zM50 1520h1070q10 0 10 -9l25 -380l-20 -2l-16 254q-4 66 -32.5 91.5t-94.5 25.5h-726l-1 -810h205q85 0 137.5 44 t52.5 115q0 34 -21 65t-41.5 58t-20.5 52q0 51 31.5 82.5t82.5 31.5q69 0 111 -54t42 -142q0 -122 -103 -197t-271 -75h-205v-650h807q67 0 94.5 26t32.5 91l16 254l20 -2l-25 -380q0 -9 -10 -9h-1150v15h40q64 0 99 8.5t43 19.5t8 28v1384q0 26 -29 38t-121 12h-40v15z" />
<glyph unicode="&#x402;" horiz-adv-x="1580" d="M63 1520h1091q10 0 10 -9l21 -320l-16 -2l-12 186q-5 72 -33.5 98.5t-103.5 26.5h-390v-809q0 -31 7 -31q6 0 16 25q61 155 183 257.5t259 102.5q157 0 253.5 -82.5t96.5 -217.5v-355q0 -201 -84 -300.5t-210 -99.5q-59 0 -107 37q-9 6 -9 16q0 8 6.5 15t14.5 7 q7 0 14 -5q47 -37 96 -37t92 19t80.5 59.5t59.5 114.5t22 174v352q0 126 -89.5 203t-235.5 77q-87 0 -172 -47t-149 -123.5t-104 -180t-40 -209.5v-392q0 -17 8 -27.5t42.5 -19t99.5 -8.5h55v-15h-420v15h40q65 0 99.5 8.5t42.5 19t8 27.5v1430l-419 -1q-50 0 -81 -24 t-31 -64q0 -70 32 -113t85 -43q32 0 80.5 25t71.5 25q47 0 76.5 -29.5t29.5 -78.5q0 -65 -46 -105t-121 -40q-107 0 -172 87.5t-65 229.5q0 19 8 142q0 9 10 9z" />
<glyph unicode="&#x403;" horiz-adv-x="1165" d="M557 1640l288 271q9 9 17 0q10 -9 2 -17l-293 -268zM50 1520h1052q10 0 10 -9q8 -123 8 -142q0 -142 -65 -229.5t-172 -87.5q-75 0 -121 40t-46 105q0 49 29.5 78.5t76.5 29.5q23 0 71.5 -25t80.5 -25q53 0 85 43t32 113q0 40 -31 64.5t-81 24.5h-713l-1 -1429 q0 -17 8 -28t43 -19.5t99 -8.5h40v-15h-405v15h40q64 0 99 8.5t43 19.5t8 28v1383q0 17 -9.5 27t-43.5 17t-97 7h-40v15z" />
<glyph unicode="&#x404;" horiz-adv-x="1140" d="M675 1525q183 0 294.5 -80.5t111.5 -211.5q0 -88 -42 -142t-111 -54q-51 0 -82.5 31.5t-31.5 82.5q0 20 13 42t28.5 38.5t28.5 42t13 52.5q0 80 -61 129.5t-161 49.5q-263 0 -425.5 -202t-164.5 -533h556l-4 -20h-552q2 -216 72.5 -381.5t204.5 -259.5t313 -94 q231 0 397 164l14 -14q-174 -170 -411 -170q-187 0 -326.5 99.5t-211.5 272.5t-72 395q0 343 168 553t442 210z" />
<glyph unicode="&#x405;" horiz-adv-x="1146" d="M556 1525q196 0 316 -80.5t120 -211.5q0 -88 -42 -142t-111 -54q-51 0 -82.5 31.5t-31.5 82.5q0 25 20.5 52t41.5 58t21 65q0 80 -69.5 129.5t-182.5 49.5q-168 -1 -275 -78t-107 -196q0 -58 22 -109t53 -86t81.5 -71t91 -57t99 -51t88.5 -48q28 -16 81.5 -44t91.5 -49.5 t88.5 -53t85 -65t66.5 -76t48 -95t16 -112.5q0 -139 -138.5 -229t-351.5 -90q-122 0 -238 37.5t-189 108.5q-43 47 -58 47q-20 0 -21 -64l-5 -144h-15l13 380h15v-11q0 -80 44.5 -145t116.5 -104.5t159 -61t178 -21.5q204 0 334.5 83.5t130.5 213.5q0 57 -15 106.5 t-45.5 89.5t-63 71.5t-81 62t-85.5 51t-90 48t-82 44.5q-28 16 -87.5 46.5t-101 52.5t-95 60t-86.5 75.5t-56.5 92.5t-23.5 117q0 129 116.5 211.5t290.5 82.5z" />
<glyph unicode="&#x406;" horiz-adv-x="500" d="M450 0h-400v15h40q65 0 99.5 8.5t42.5 19t8 27.5v1383q0 27 -29.5 39.5t-120.5 12.5h-40v15h400v-15h-35q-91 0 -120.5 -12.5t-29.5 -39.5v-1383q0 -17 8 -27.5t42.5 -19t99.5 -8.5h35v-15z" />
<glyph unicode="&#x407;" horiz-adv-x="500" d="M-30 1685q0 16 12 28t28 12t28 -12t12 -28t-12 -28t-28 -12t-28 12t-12 28zM450 1685q0 16 12 28t28 12t28 -12t12 -28t-12 -28t-28 -12t-28 12t-12 28zM450 0h-400v15h40q65 0 99.5 8.5t42.5 19t8 27.5v1383q0 27 -29.5 39.5t-120.5 12.5h-40v15h400v-15h-35 q-91 0 -120.5 -12.5t-29.5 -39.5v-1383q0 -17 8 -27.5t42.5 -19t99.5 -8.5h35v-15z" />
<glyph unicode="&#x408;" horiz-adv-x="540" d="M50 1520h460v-15h-35q-92 0 -121 -12t-29 -38v-1425q0 -222 -108.5 -366t-275.5 -144q-85 0 -145.5 45t-60.5 108q0 47 36.5 80.5t87.5 33.5q29 0 80.5 -21.5t94.5 -21.5q129 0 197.5 77t68.5 209v1425q0 26 -29 38t-121 12h-100v15z" />
<glyph unicode="&#x409;" horiz-adv-x="1995" d="M1224 1520v-25h-79q-58 0 -81.5 -11t-23.5 -39v-1425h415q198 0 326.5 110t128.5 280q0 169 -125 272t-330 103q-73 0 -117 -33t-44 -86q0 -34 21 -65t41.5 -58t20.5 -52q0 -51 -31.5 -82.5t-82.5 -31.5q-69 0 -111 54t-42 142q0 104 95 168t250 64q216 0 348 -108.5 t132 -286.5t-135.5 -294t-344.5 -116h-630v15h40q65 0 99.5 8.5t42.5 19t8 27.5v1425h-580l-148 -1114q-26 -198 -75.5 -286.5t-168.5 -120.5q-11 -3 -18 3q-7 5 -8.5 14t3.5 15q4 6 13 8q110 28 157 103.5t72 263.5l148 1114h-5q-4 0 -65.5 2.5t-129.5 2.5h-38v20h1052z " />
<glyph unicode="&#x40a;" horiz-adv-x="2135" d="M1365 1520v-15h-35q-91 0 -120.5 -12.5t-29.5 -39.5v-648h375q226 0 373 -111.5t147 -283.5q0 -185 -132 -297.5t-349 -112.5q-155 0 -250 64t-95 168q0 88 42 142t111 54q51 0 82.5 -31.5t31.5 -82.5q0 -20 -13 -42t-28.5 -38.5t-28.5 -42t-13 -52.5q0 -53 44 -86 t117 -33q205 0 330.5 107t125.5 283q0 163 -140 269t-355 106h-375v-785h-215v15h40q65 0 99.5 8.5t42.5 19t8 27.5v715h-890v-713q0 -17 8 -28t43 -20t99 -9h75v-15h-440v15h40q64 0 99 9t43 20t8 28v1381q0 17 -8 27t-42.5 17.5t-99.5 7.5h-40v15h440v-15h-75 q-65 0 -99.5 -7.5t-42.5 -17.5t-8 -27v-648h890v648q0 27 -29.5 39.5t-120.5 12.5h-40v15h400z" />
<glyph unicode="&#x40b;" horiz-adv-x="1675" d="M63 1520h1091q10 0 10 -9l21 -320l-16 -2l-12 186q-5 72 -33.5 98.5t-103.5 26.5h-390v-809q0 -31 7 -31q6 0 16 25q61 155 183 257.5t259 102.5q157 0 253.5 -82.5t96.5 -217.5v-675q0 -17 8 -27.5t42.5 -19t99.5 -8.5h40v-15h-420v15h55q65 0 99.5 8.5t42.5 19t8 27.5 v672q0 126 -89.5 203t-235.5 77q-87 0 -172 -47t-149 -123.5t-104 -180t-40 -209.5v-392q0 -17 8 -27.5t42.5 -19t99.5 -8.5h55v-15h-420v15h40q65 0 99.5 8.5t42.5 19t8 27.5v1430l-419 -1q-50 0 -81 -24t-31 -64q0 -70 32 -113t85 -43q32 0 80.5 25t71.5 25 q47 0 76.5 -29.5t29.5 -78.5q0 -65 -46 -105t-121 -40q-107 0 -172 87.5t-65 229.5q0 19 8 142q0 9 10 9z" />
<glyph unicode="&#x40c;" horiz-adv-x="1223" d="M537 1640l288 271q9 9 17 0q10 -9 2 -17l-293 -268zM50 1520h420v-15h-55q-91 0 -120.5 -13t-29.5 -40v-652h167q16 0 36.5 11.5t31.5 25.5l477 603q23 29 23 42q0 23 -72 23h-110v15h382v-15h-15q-131 0 -192 -77l-504 -638q80 -102 235.5 -322t304.5 -401 q51 -62 87.5 -101.5t92 -86t109 -72.5t127.5 -44t159 -18q43 0 94.5 21.5t80.5 21.5q51 0 87.5 -33.5t36.5 -80.5q0 -63 -60.5 -108t-145.5 -45q-78 0 -144 19.5t-122.5 56.5t-116 96.5t-119.5 131t-138 169.5q-28 36 -43 55q-136 168 -286.5 378.5t-233.5 316.5 q-10 13 -28.5 24.5t-33.5 11.5h-167v-710q0 -17 8 -27.5t42.5 -19t99.5 -8.5h55v-15h-420v15h40q65 0 99.5 8.5t42.5 19t8 27.5v1382q0 27 -29.5 40t-120.5 13h-40v15z" />
<glyph unicode="&#x40d;" horiz-adv-x="1400" d="M813 1720l-14 -14l-293 268q-8 8 2 17q8 9 17 0zM1345 1520v-15h-30q-64 0 -99 -9t-43 -20t-8 -28v-1381q0 -17 8 -27t42.5 -17.5t99.5 -7.5h30v-15h-420v15h65q65 0 99.5 7.5t42.5 17.5t8 27v1328l-798 -1189q-74 -112 -74 -152q0 -39 58 -39h64v-15h-335v15h30 q64 0 99 9t43 20t8 28v1381q0 17 -8 27t-42.5 17.5t-99.5 7.5h-30v15h420v-15h-65q-65 0 -99.5 -7.5t-42.5 -17.5t-8 -27v-1328l798 1189q74 112 74 152q0 39 -58 39h-64v15h335z" />
<glyph unicode="&#x40e;" horiz-adv-x="1230" d="M608 1730q159 0 249 111l17 -12q-94 -119 -266 -119q-171 0 -266 119l17 12q91 -111 249 -111zM615 395q-38 -90 -61.5 -141.5t-52 -103t-50.5 -76.5t-52.5 -45.5t-63.5 -27t-79 -6.5q-82 0 -131.5 42t-49.5 111q0 51 30 82.5t79 31.5q46 0 96 -31.5t102 -31.5 q72 0 120.5 49t90.5 146q2 4 2 9q0 19 -15 56l-365 912q-30 77 -52 97.5t-72 20.5q-23 0 -47 -8q-4 -2 -7 -2q-19 0 -19 19q0 28 68 28q63 0 90.5 -29t62.5 -120l356 -887q11 -29 19 -29q6 0 19 30l400 946q9 19 9 32q0 23 -32 29.5t-118 6.5h-80v15h398v-15h-11 q-62 0 -97 -17t-51 -57z" />
<glyph unicode="&#x40f;" horiz-adv-x="1400" d="M50 1520h440v-15h-75q-64 0 -99 -9t-43 -20t-8 -28v-1428h870v1428q0 17 -8 28t-43 20t-99 9h-75v15h440v-15h-40q-64 0 -99 -9t-43 -20t-8 -28v-1381q0 -32 13 -39.5t67 -7.5h110v-20h-215h-412q0 -28 6.5 -130t6.5 -148q0 -63 -27.5 -101.5t-71.5 -38.5 q-35 0 -56.5 21.5t-21.5 56.5q0 31 21 72.5t46.5 77.5t47.5 88.5t24 101.5h-433h-215v15h40q65 0 99.5 7.5t42.5 17.5t8 27v1381q0 17 -8 28t-43 20t-99 9h-40v15z" />
<glyph unicode="&#x410;" horiz-adv-x="1330" d="M1132 241l-86 239h-726l-143 -397q-5 -17 -5 -25q0 -26 32.5 -34.5t114.5 -8.5h41v-15h-340v15h5q63 0 91 16t43 58l510 1424q3 7 9 7h27q10 0 10 -10q0 -35 25 -104l428 -1194q53 -150 70 -187q87 -196 231 -253q68 -27 150 -27q43 0 94.5 21.5t80.5 21.5 q51 0 87.5 -33.5t36.5 -80.5q0 -63 -60.5 -108t-145.5 -45q-79 0 -143.5 22.5t-116 70t-93 106t-80.5 144.5t-71.5 171t-73.5 199q-1 5 -2 7zM327 500h712l-322 900q-17 48 -21 67h-23z" />
<glyph unicode="&#x411;" horiz-adv-x="1340" d="M50 1520h1035q10 0 10 -9l25 -380l-20 -2l-16 254q-4 66 -32.5 91.5t-94.5 25.5h-692v-1480h495q217 0 356 118.5t139 301.5q0 182 -147 293.5t-388 111.5q-91 0 -146 -33t-55 -86q0 -27 13 -52.5t28.5 -42t28.5 -38.5t13 -42q0 -51 -31.5 -82.5t-82.5 -31.5 q-69 0 -111 54t-42 142q0 104 106 168t279 64q252 0 406 -117t154 -308q0 -192 -147.5 -316t-372.5 -124h-710v15h40q65 0 99.5 8.5t42.5 19t8 27.5v1384q0 17 -9.5 27t-43.5 17t-97 7h-40v15z" />
<glyph unicode="&#x412;" horiz-adv-x="1340" d="M50 1520h550q253 0 386.5 -93.5t133.5 -242.5q0 -128 -75 -217.5t-219 -109.5h-4v-4h4q111 -12 195 -44.5t132.5 -73t78 -94.5t39 -101t9.5 -100q0 -192 -147.5 -316t-372.5 -124h-710v15h40q65 0 99.5 8.5t42.5 19t8 27.5v1379q0 27 -29.5 41.5t-120.5 14.5h-40v15z M266 1500l-1 -1480h495q217 0 356 118.5t139 301.5q0 52 -8 95.5t-35.5 95t-72.5 89.5t-126 69.5t-189 43.5q-110 12 -117 12q-94 0 -151 -44t-57 -115q0 -27 13 -52.5t28.5 -42t28.5 -38.5t13 -42q0 -51 -31.5 -82.5t-82.5 -31.5q-69 0 -111 54t-42 142q0 122 109 197 t287 75q7 0 113 12q136 19 203.5 102t67.5 205q0 140 -124 228t-371 88h-334z" />
<glyph unicode="&#x413;" horiz-adv-x="1165" d="M50 1520h1052q10 0 10 -9q8 -123 8 -142q0 -142 -65 -229.5t-172 -87.5q-75 0 -121 40t-46 105q0 49 29.5 78.5t76.5 29.5q23 0 71.5 -25t80.5 -25q53 0 85 43t32 113q0 40 -31 64.5t-81 24.5h-713l-1 -1429q0 -17 8 -28t43 -19.5t99 -8.5h40v-15h-405v15h40q64 0 99 8.5 t43 19.5t8 28v1383q0 17 -9.5 27t-43.5 17t-97 7h-40v15z" />
<glyph unicode="&#x414;" horiz-adv-x="1440" d="M385 1520h950v-25h-820l-110 -1115q-14 -141 -44.5 -208.5t-94.5 -101.5h710q65 0 99.5 8.5t42.5 19t8 27.5v935q0 86 -41.5 138t-112.5 52q-34 0 -65 -21t-58 -41.5t-52 -20.5q-51 0 -82.5 31.5t-31.5 82.5q0 69 54 111t142 42q122 0 197 -103t75 -271v-935 q0 -17 8 -27.5t42.5 -19t99.5 -8.5h60h4q10 0 10 -9l21 -320l-21 -2l-12 186q-5 72 -33.5 98.5t-103.5 26.5h-1011q-75 0 -103.5 -26.5t-33.5 -98.5l-12 -186l-21 2l21 320q0 9 10 9q62 0 77 3q38 10 57.5 16t46 17t39.5 24t29.5 34.5t25 51t16.5 70t13 94.5l110 1115 l-105 5v20z" />
<glyph unicode="&#x415;" horiz-adv-x="1290" d="M50 1520h1070q10 0 10 -9l25 -380l-20 -2l-16 254q-4 66 -32.5 91.5t-94.5 25.5h-726l-1 -810h205q85 0 137.5 44t52.5 115q0 34 -21 65t-41.5 58t-20.5 52q0 51 31.5 82.5t82.5 31.5q69 0 111 -54t42 -142q0 -122 -103 -197t-271 -75h-205v-650h807q67 0 94.5 26 t32.5 91l16 254l20 -2l-25 -380q0 -9 -10 -9h-1150v15h40q64 0 99 8.5t43 19.5t8 28v1384q0 26 -29 38t-121 12h-40v15z" />
<glyph unicode="&#x416;" horiz-adv-x="1893" d="M105 1520h382v-15h-110q-72 0 -72 -23q0 -13 23 -42l477 -603q11 -14 31.5 -25.5t36.5 -11.5h87v652q0 27 -29.5 40t-120.5 13h-40v15h420v-15h-55q-91 0 -120.5 -13t-29.5 -40v-652h87q16 0 36.5 11.5t31.5 25.5l477 603q23 29 23 42q0 23 -72 23h-110v15h382v-15h-15 q-131 0 -192 -77l-504 -638l570 -723q48 -61 86 -103t92 -86.5t109 -71t129 -44t159 -17.5q43 0 94.5 21.5t80.5 21.5q51 0 87.5 -33.5t36.5 -80.5q0 -63 -60.5 -108t-145.5 -45q-79 0 -148.5 23t-120 52t-123 105t-118 130.5t-143.5 179.5l-10.5 13.5t-9 11.5t-10.5 13 l-549 695q-10 13 -29 24.5t-34 11.5h-87v-710q0 -17 8 -27.5t42.5 -19t99.5 -8.5h55v-15h-420v15h40q65 0 99.5 8.5t42.5 19t8 27.5v710h-87q-15 0 -34.5 -12t-28.5 -24l-482 -613q-66 -84 -104 -115t-90 -31q-47 0 -95 37q-9 6 -9 16q0 8 5.5 13.5t13.5 5.5q6 0 13 -5 q18 -14 27 -20t24 -11t33 -5q61 0 161 127l509 647l-504 638q-61 77 -192 77h-15v15z" />
<glyph unicode="&#x417;" horiz-adv-x="1080" d="M520 1525q184 0 297 -95t113 -250q0 -103 -78.5 -191t-221.5 -125v-4q184 -27 292 -134.5t108 -280.5q0 -203 -146 -326.5t-384 -123.5q-80 0 -149 16.5t-113 39.5t-82.5 57t-56.5 58t-37 54q-2 4 -2 5v95h20v-22q0 -25 14 -69t33 -66q129 -148 373 -148q227 0 366 118 t139 312q0 165 -100 267t-278 128h-17q-22 0 -22 10v24q0 10 22 10h17q137 35 207.5 118t70.5 178q0 146 -106 235.5t-279 89.5q-111 0 -179 -49.5t-68 -129.5q0 -27 13 -52.5t28.5 -42t28.5 -38.5t13 -42q0 -51 -31.5 -82.5t-82.5 -31.5q-69 0 -111 54t-42 142 q0 131 118.5 211.5t312.5 80.5z" />
<glyph unicode="&#x418;" horiz-adv-x="1400" d="M235 970q0 95 -21.5 180.5t-48 135t-48 98t-21.5 78.5q0 44 35 71t93 27t93.5 -38.5t35.5 -101.5q0 -29 -14.5 -76.5t-32 -95t-32 -123.5t-14.5 -155v-845l798 1189q74 112 74 152q0 39 -58 39h-64v15h335v-15h-30q-64 0 -99 -9t-43 -20t-8 -28v-1381q0 -17 8 -27 t42.5 -17.5t99.5 -7.5h30v-15h-420v15h65q65 0 99.5 7.5t42.5 17.5t8 27v1328l-798 -1189q-74 -112 -74 -152q0 -39 58 -39h64v-15h-335v15h30q64 0 99 9t43 20t8 28v898z" />
<glyph unicode="&#x419;" horiz-adv-x="1400" d="M700 1810q159 0 249 111l17 -12q-94 -119 -266 -119q-171 0 -266 119l17 12q91 -111 249 -111zM235 970q0 95 -21.5 180.5t-48 135t-48 98t-21.5 78.5q0 44 35 71t93 27t93.5 -38.5t35.5 -101.5q0 -29 -14.5 -76.5t-32 -95t-32 -123.5t-14.5 -155v-845l798 1189 q74 112 74 152q0 39 -58 39h-64v15h335v-15h-30q-64 0 -99 -9t-43 -20t-8 -28v-1381q0 -17 8 -27t42.5 -17.5t99.5 -7.5h30v-15h-420v15h65q65 0 99.5 7.5t42.5 17.5t8 27v1328l-798 -1189q-74 -112 -74 -152q0 -39 58 -39h64v-15h-335v15h30q64 0 99 9t43 20t8 28v898z" />
<glyph unicode="&#x41a;" horiz-adv-x="1223" d="M50 1520h420v-15h-55q-91 0 -120.5 -13t-29.5 -40v-652h167q16 0 36.5 11.5t31.5 25.5l477 603q23 29 23 42q0 23 -72 23h-110v15h382v-15h-15q-131 0 -192 -77l-504 -638q80 -102 235.5 -322t304.5 -401q51 -62 87.5 -101.5t92 -86t109 -72.5t127.5 -44t159 -18 q43 0 94.5 21.5t80.5 21.5q51 0 87.5 -33.5t36.5 -80.5q0 -63 -60.5 -108t-145.5 -45q-78 0 -144 19.5t-122.5 56.5t-116 96.5t-119.5 131t-138 169.5q-28 36 -43 55q-136 168 -286.5 378.5t-233.5 316.5q-10 13 -28.5 24.5t-33.5 11.5h-167v-710q0 -17 8 -27.5t42.5 -19 t99.5 -8.5h55v-15h-420v15h40q65 0 99.5 8.5t42.5 19t8 27.5v1382q0 27 -29.5 40t-120.5 13h-40v15z" />
<glyph unicode="&#x41b;" horiz-adv-x="1300" d="M172 1520h1072v-25h-79q-58 0 -81.5 -11t-23.5 -39v-1375q0 -17 8 -27.5t42.5 -19t99.5 -8.5h40v-15h-440v15h75q65 0 99.5 8.5t42.5 19t8 27.5v1425h-600l-148 -1114q-14 -102 -31 -190t-42.5 -177t-57 -161t-74.5 -135t-93.5 -105.5t-116 -67t-141.5 -24.5 q-85 0 -145.5 45t-60.5 108q0 47 36.5 80.5t87.5 33.5q29 0 80.5 -21.5t94.5 -21.5q85 0 153.5 35.5t114.5 93.5t81 143t55 171.5t34 192.5l148 1114h-5q-4 0 -65.5 2.5t-129.5 2.5h-38v20z" />
<glyph unicode="&#x41c;" horiz-adv-x="1860" d="M130 1520h189q6 0 9 -6l599 -1270q10 -22 19 -22q10 0 20 22l590 1270q3 6 9 6h185v-15q-95 0 -129 -17t-34 -75l1 -23l83 -1053q47 -592 427 -592q43 0 94.5 21.5t80.5 21.5q51 0 87.5 -33.5t36.5 -80.5q0 -63 -60.5 -108t-145.5 -45q-132 0 -231 54t-162 157 t-98.5 237.5t-49.5 310.5l-92 1190l-590 -1269q-3 -7 -5.5 -21t-3.5 -24l-1 -11h-28q-2 42 -9 56l-603 1278l-108 -1400v-10q0 -26 25 -39.5t104 -13.5h112v-16h-421v16h22q45 0 74.5 5.5t42 16t16.5 20t5 23.5l101 1310q1 16 1 23q0 58 -33.5 74.5t-128.5 16.5v15z" />
<glyph unicode="&#x41d;" horiz-adv-x="1460" d="M50 1520h440v-15h-75q-65 0 -99.5 -7.5t-42.5 -17.5t-8 -27v-633h930v420q0 230 60 398.5t184 264.5t301 96q85 0 145.5 -45t60.5 -108q0 -47 -36.5 -80.5t-87.5 -33.5q-29 0 -80.5 21.5t-94.5 21.5q-107 0 -189.5 -45.5t-134 -127t-77.5 -187.5t-26 -232v-1111 q0 -17 8 -28t43 -20t99 -9h40v-15h-440v15h75q64 0 99 9t43 20t8 28v728h-930v-728q0 -17 8 -28t43 -20t99 -9h75v-15h-440v15h40q64 0 99 9t43 20t8 28v1381q0 17 -8 27t-42.5 17.5t-99.5 7.5h-40v15z" />
<glyph unicode="&#x41e;" horiz-adv-x="1410" d="M705 1525q183 0 329 -98t228.5 -273t82.5 -394t-82 -394t-228.5 -273t-329.5 -98t-329.5 98t-228.5 273t-82 394q0 327 175 542v-38q-150 -205 -150 -504q0 -213 79 -383.5t219.5 -266t316.5 -95.5t316.5 95.5t219.5 266t79 383.5t-79 383.5t-219.5 266t-316.5 95.5 q-109 0 -176 -49.5t-67 -129.5q0 -34 21 -65t41.5 -58t20.5 -52q0 -51 -31.5 -82.5t-82.5 -31.5q-69 0 -111 54t-42 142q0 131 117.5 211.5t309.5 80.5z" />
<glyph unicode="&#x41f;" horiz-adv-x="1400" d="M1350 1520v-15h-40q-65 0 -99.5 -7.5t-42.5 -17.5t-8 -27v-1381q0 -17 8 -28t43 -20t99 -9h40v-15h-440v15h75q64 0 99 9t43 20t8 28v1428h-870v-1428q0 -17 8 -28t43 -20t99 -9h75v-15h-440v15h40q64 0 99 9t43 20t8 28v1381q0 17 -8 27t-42.5 17.5t-99.5 7.5h-40v15 h215h870h215z" />
<glyph unicode="&#x420;" horiz-adv-x="1295" d="M657 500q117 0 213 33.5t156.5 85.5t102.5 120t59 133t17 128q0 62 -17 126.5t-58 132.5t-101.5 121t-157 86.5t-214.5 33.5h-391l-1 -1430q0 -17 8 -27.5t42.5 -19t99.5 -8.5h35v-15h-400v15h40q65 0 99.5 8.5t42.5 19t8 27.5v1385q0 26 -29 38t-121 12h-40v15h610 q122 0 221.5 -35t163 -90t106.5 -125.5t61 -138t18 -131.5q0 -65 -18 -133t-61.5 -138.5t-107 -125t-162.5 -89t-220 -34.5q-156 0 -251 80.5t-95 211.5q0 88 42 142t111 54q51 0 82.5 -31.5t31.5 -82.5q0 -20 -13 -42t-28.5 -38.5t-28.5 -42t-13 -52.5q0 -80 43.5 -129.5 t114.5 -49.5z" />
<glyph unicode="&#x421;" horiz-adv-x="1140" d="M675 1525q183 0 294.5 -80.5t111.5 -211.5q0 -88 -42 -142t-111 -54q-51 0 -82.5 31.5t-31.5 82.5q0 20 13 42t28.5 38.5t28.5 42t13 52.5q0 80 -61 129.5t-161 49.5q-265 0 -427.5 -204.5t-162.5 -538.5q0 -219 70 -387.5t204.5 -264t315.5 -95.5q231 0 397 164l14 -14 q-174 -170 -411 -170q-187 0 -326.5 99.5t-211.5 272.5t-72 395q0 343 168 553t442 210z" />
<glyph unicode="&#x422;" horiz-adv-x="1310" d="M63 1520h1171q10 0 10 -9l21 -320l-16 -2l-12 186q-5 72 -33.5 98.5t-103.5 26.5h-430v-1430q0 -17 8 -27.5t42.5 -19t99.5 -8.5h35v-15h-400v15h40q65 0 99.5 8.5t42.5 19t8 27.5v1430h-459q-50 0 -81 -24.5t-31 -64.5q0 -70 32 -113t85 -43q32 0 80.5 25t71.5 25 q47 0 76.5 -29.5t29.5 -78.5q0 -65 -46 -105t-121 -40q-107 0 -172 87.5t-65 229.5q0 19 8 142q0 9 10 9z" />
<glyph unicode="&#x423;" horiz-adv-x="1230" d="M615 395q-38 -90 -61.5 -141.5t-52 -103t-50.5 -76.5t-52.5 -45.5t-63.5 -27t-79 -6.5q-82 0 -131.5 42t-49.5 111q0 51 30 82.5t79 31.5q46 0 96 -31.5t102 -31.5q72 0 120.5 49t90.5 146q2 4 2 9q0 19 -15 56l-365 912q-30 77 -52 97.5t-72 20.5q-23 0 -47 -8 q-4 -2 -7 -2q-19 0 -19 19q0 28 68 28q63 0 90.5 -29t62.5 -120l356 -887q11 -29 19 -29q6 0 19 30l400 946q9 19 9 32q0 23 -32 29.5t-118 6.5h-80v15h398v-15h-11q-62 0 -97 -17t-51 -57z" />
<glyph unicode="&#x424;" horiz-adv-x="1500" d="M550 1520h400v-15h-35q-91 0 -120.5 -12.5t-29.5 -39.5v-68q302 -5 486 -176.5t184 -448.5t-184 -448.5t-486 -176.5v-65q0 -17 8 -27.5t42.5 -19t99.5 -8.5h35v-15h-400v15h40q65 0 99.5 8.5t42.5 19t8 27.5v65q-304 3 -489.5 174.5t-185.5 450.5q0 153 58.5 276.5 t166.5 207.5l-5 -33q-195 -167 -195 -451q0 -270 178.5 -436t471.5 -169v1210q-114 0 -183.5 -46.5t-69.5 -122.5q0 -27 13 -52.5t28.5 -42t28.5 -38.5t13 -42q0 -51 -31.5 -82.5t-82.5 -31.5q-69 0 -111 54t-42 142q0 127 120.5 204.5t316.5 77.5v68q0 27 -29.5 39.5 t-120.5 12.5h-40v15zM765 1365v-1210q291 5 468 171t177 434t-177 434t-468 171z" />
<glyph unicode="&#x425;" horiz-adv-x="1320" d="M1011 1347l-316 -504q-10 -16 -10 -39q0 -18 9 -32l431 -687q36 -57 120 -67q23 -3 40 -3h15q1 -15 0 -15h-413v15h96q134 0 134 29q0 10 -13 31l-432 687q-7 11 -14 11t-15 -13l-432 -685q-13 -21 -13 -31q0 -29 134 -29h101v-15h-413v15h15q17 0 40 3q84 10 120 67 l429 684q9 13 9 32q0 23 -11 40l-375 596q-19 30 -58 47t-69 19l-30 2h-30v15h410v-15h-73q-134 0 -134 -38q0 -9 7 -20l375 -598q7 -12 15 -12t15 11l341 544q158 252 216 331q123 167 243 227q97 49 217 49q85 0 145.5 -45t60.5 -108q0 -47 -36.5 -80.5t-87.5 -33.5 q-29 0 -80.5 21.5t-94.5 21.5q-53 0 -101 -8t-87 -20t-77.5 -34t-66 -41.5t-59 -52t-51 -55.5t-46.5 -62t-41.5 -62t-40.5 -64q-12 -19 -18 -29z" />
<glyph unicode="&#x426;" horiz-adv-x="1440" d="M1350 1520v-15h-40q-64 0 -99 -9t-43 -20t-8 -28v-1381q0 -32 13 -39.5t67 -7.5h134q10 0 10 -9l21 -320l-21 -2l-12 186q-5 72 -33.5 98.5t-103.5 26.5h-970h-215v15h40q65 0 99.5 7.5t42.5 17.5t8 27v1381q0 17 -8 28t-43 20t-99 9h-40v15h440v-15h-75q-64 0 -99 -9 t-43 -20t-8 -28v-1428h870v1428q0 17 -8 28t-43 20t-99 9h-75v15h440z" />
<glyph unicode="&#x427;" horiz-adv-x="1300" d="M850 1520h400v-15h-35q-91 0 -120.5 -12.5t-29.5 -39.5v-1383q0 -17 8 -27.5t42.5 -19t99.5 -8.5h35v-15h-400v15h40q65 0 99.5 8.5t42.5 19t8 27.5v839q0 31 -7 31q-6 0 -16 -25q-61 -155 -185 -257.5t-262 -102.5q-170 0 -290 105.5t-120 254.5v95q0 95 -20.5 179 t-44.5 131.5t-44.5 94.5t-20.5 77q0 35 23.5 56.5t62.5 21.5q57 0 97 -44t40 -106q0 -34 -17 -94t-34 -147.5t-17 -188.5v-72q0 -141 112.5 -240.5t272.5 -99.5q116 0 225 78.5t177 209.5t68 272v315q0 27 -29.5 39.5t-120.5 12.5h-40v15z" />
<glyph unicode="&#x428;" horiz-adv-x="1640" d="M50 1520h440v-15h-75q-64 0 -99 -9t-43 -20t-8 -28v-1428h525v970q0 95 -18.5 180.5t-41 135t-41 98t-18.5 78.5q0 35 29.5 56.5t78.5 21.5t79 -38.5t30 -101.5q0 -34 -18 -94t-36.5 -147.5t-18.5 -188.5v-970h560v1428q0 17 -8 28t-43 20t-99 9h-75v15h440v-15h-40 q-64 0 -99 -9t-43 -20t-8 -28v-1381q0 -32 13 -39.5t67 -7.5h110v-20h-215h-1110h-215v15h40q65 0 99.5 7.5t42.5 17.5t8 27v1381q0 17 -8 28t-43 20t-99 9h-40v15z" />
<glyph unicode="&#x429;" horiz-adv-x="1680" d="M50 1520h440v-15h-75q-64 0 -99 -9t-43 -20t-8 -28v-1428h525v970q0 95 -18.5 180.5t-41 135t-41 98t-18.5 78.5q0 35 29.5 56.5t78.5 21.5t79 -38.5t30 -101.5q0 -34 -18 -94t-36.5 -147.5t-18.5 -188.5v-970h465h95v1428q0 17 -8 28t-43 20t-99 9h-75v15h440v-15h-40 q-64 0 -99 -9t-43 -20t-8 -28v-1381q0 -32 13 -39.5t67 -7.5h40h94q10 0 10 -9l21 -320l-21 -2l-12 186q-5 72 -33.5 98.5t-103.5 26.5h-100h-90h-1020h-215v15h40q65 0 99.5 7.5t42.5 17.5t8 27v1381q0 17 -8 28t-43 20t-99 9h-40v15z" />
<glyph unicode="&#x42a;" horiz-adv-x="1490" d="M745 1520v-15h-40q-92 0 -121 -12.5t-29 -39.5v-1433h395q198 0 326.5 110t128.5 280q0 169 -119.5 272t-315.5 103q-82 0 -131.5 -33t-49.5 -86q0 -27 13 -52.5t28.5 -42t28.5 -38.5t13 -42q0 -51 -31.5 -82.5t-82.5 -31.5q-69 0 -111 54t-42 142q0 104 100.5 168 t264.5 64q207 0 333.5 -108.5t126.5 -286.5t-135.5 -294t-344.5 -116h-610v15h40q65 0 99.5 8.5t42.5 19t8 27.5v1430h-332q-66 0 -94.5 -25.5t-32.5 -91.5l-16 -254l-20 2l25 380q0 9 10 9h675z" />
<glyph unicode="&#x42b;" horiz-adv-x="1580" d="M50 1520h400v-15h-35q-91 0 -120.5 -12.5t-29.5 -39.5v-1433h395q198 0 326.5 110t128.5 280q0 169 -119.5 272t-315.5 103q-82 0 -131.5 -33t-49.5 -86q0 -27 13 -52.5t28.5 -42t28.5 -38.5t13 -42q0 -51 -31.5 -82.5t-82.5 -31.5q-69 0 -111 54t-42 142 q0 104 100.5 168t264.5 64q207 0 333.5 -108.5t126.5 -286.5t-135.5 -294t-344.5 -116h-610v15h40q65 0 99.5 8.5t42.5 19t8 27.5v1383q0 27 -29.5 39.5t-120.5 12.5h-40v15zM1530 1520v-15h-35q-91 0 -120.5 -12.5t-29.5 -39.5v-1383q0 -17 8 -27.5t42.5 -19t99.5 -8.5h35 v-15h-400v15h40q65 0 99.5 8.5t42.5 19t8 27.5v1383q0 27 -29.5 39.5t-120.5 12.5h-40v15h400z" />
<glyph unicode="&#x42c;" horiz-adv-x="1200" d="M50 1520h400v-15h-35q-91 0 -120.5 -12.5t-29.5 -39.5v-1433h395q198 0 326.5 110t128.5 280q0 169 -119.5 272t-315.5 103q-82 0 -131.5 -33t-49.5 -86q0 -27 13 -52.5t28.5 -42t28.5 -38.5t13 -42q0 -51 -31.5 -82.5t-82.5 -31.5q-69 0 -111 54t-42 142 q0 104 100.5 168t264.5 64q207 0 333.5 -108.5t126.5 -286.5t-135.5 -294t-344.5 -116h-610v15h40q65 0 99.5 8.5t42.5 19t8 27.5v1383q0 27 -29.5 39.5t-120.5 12.5h-40v15z" />
<glyph unicode="&#x42d;" horiz-adv-x="1140" d="M465 1525q274 0 442 -210t168 -553q0 -222 -72 -395t-211.5 -272.5t-326.5 -99.5q-237 0 -411 170l14 14q166 -164 397 -164q179 0 313 94t204.5 259.5t72.5 381.5h-552l-4 20h556q-2 331 -164.5 533t-425.5 202q-100 0 -161 -49.5t-61 -129.5q0 -27 13 -52.5t28.5 -42 t28.5 -38.5t13 -42q0 -51 -31.5 -82.5t-82.5 -31.5q-69 0 -111 54t-42 142q0 131 111.5 211.5t294.5 80.5z" />
<glyph unicode="&#x42e;" horiz-adv-x="1680" d="M1035 1525q183 0 295 -94t112 -248q0 -88 -42 -142t-111 -54q-51 0 -82.5 31.5t-31.5 82.5q0 25 20.5 52t41.5 58t21 65q0 103 -61.5 166t-161.5 63q-158 0 -285 -95.5t-198.5 -266t-71.5 -383.5t71 -383.5t198 -266t286 -95.5t286 95.5t198 266t71 383.5q0 270 -111 465 l-8 56q144 -210 144 -521q0 -219 -74.5 -394t-207 -273t-298.5 -98q-124 0 -231 56.5t-183 156t-120.5 240t-45.5 302.5h-190v-680q0 -17 8 -27.5t42.5 -19t99.5 -8.5h35v-15h-400v15h40q65 0 99.5 8.5t42.5 19t8 27.5v1383q0 27 -29.5 39.5t-120.5 12.5h-40v15h400v-15h-35 q-91 0 -120.5 -12.5t-29.5 -39.5v-683h190q2 217 77 389.5t207 269t296 96.5z" />
<glyph unicode="&#x42f;" horiz-adv-x="1260" d="M1210 1520v-15h-40q-92 0 -121 -12t-29 -38v-1385q0 -17 8 -27.5t42.5 -19t99.5 -8.5h40v-15h-400v15h35q65 0 99.5 8.5t42.5 19t8 27.5l-1 750q-42 -237 -161.5 -427.5t-296 -299t-377.5 -108.5q-63 0 -110 36q-9 6 -9 16q0 6 5 13q6 9 16 9q7 0 14 -5q5 -4 15.5 -12.5 t14.5 -11.5t12.5 -8t17 -6.5t19.5 -1.5q166 0 317.5 77t263.5 208.5t181.5 313t77.5 383.5v504h-346q-239 0 -393.5 -118.5t-154.5 -301.5q0 -189 127.5 -304.5t336.5 -115.5q73 0 117.5 49.5t44.5 129.5q0 34 -21 65t-41.5 58t-20.5 52q0 51 31.5 82.5t82.5 31.5 q69 0 111 -54t42 -142q0 -131 -95 -211.5t-251 -80.5q-220 0 -354.5 121t-134.5 319q0 191 161 315.5t409 124.5h565z" />
<glyph unicode="&#x430;" horiz-adv-x="1110" d="M571 1045q144 0 236.5 -91.5t92.5 -232.5v-486l16 -95q20 -119 61 -120l107 10l2 -20l-109 -15h-1q-62 0 -85 141q-2 11 -6 36t-7 41.5t-3 20.5v22q0 27 -7 27q-6 0 -15 -21q-54 -116 -161 -191.5t-237 -75.5q-170 0 -280 75t-110 190q0 240 389 280q10 1 59 5.5t73 7.5 t71 10.5t74.5 17t60 23.5t51.5 34t27 45q5 18 5 32v6q-1 132 -85 218t-216 86q-101 0 -163 -33t-62 -86q0 -43 36.5 -89.5t36.5 -75.5q0 -42 -29 -68t-75 -26q-69 0 -111 48.5t-42 127.5q0 100 111.5 161t294.5 61zM875 646q-16 -27 -48.5 -47.5t-64 -32t-82.5 -21 t-79.5 -12.5t-81.5 -7.5t-63 -5.5q-81 -8 -143.5 -25t-114.5 -46.5t-80 -77.5t-28 -111q0 -107 103 -176t262 -69q114 0 212.5 63.5t153 162t54.5 204.5v201z" />
<glyph unicode="&#x431;" horiz-adv-x="1100" d="M569 1045q137 0 246 -73t167 -191t58 -255q0 -114 -42 -213.5t-112.5 -168.5t-164 -108.5t-194.5 -39.5q-220 0 -341 164t-121 433q0 134 23 247t61.5 193.5t93 143.5t112.5 102t125 64q71 26 165 42t142.5 25.5t48.5 29.5q0 21 21 21t21 -21q0 -28 -54.5 -42.5 t-158.5 -31.5t-173 -41q-70 -25 -129 -65t-110 -102t-86.5 -142t-56 -188t-20.5 -235q0 -170 49 -299t148.5 -203.5t238.5 -74.5q96 0 185.5 38.5t156.5 104.5t107 162.5t40 205.5q0 98 -32.5 188.5t-89.5 159t-141.5 109.5t-182.5 41q-96 0 -154.5 -49.5t-58.5 -129.5 q0 -33 28.5 -81t28.5 -74q0 -51 -29.5 -82.5t-78.5 -31.5q-60 0 -96.5 48.5t-36.5 127.5q0 131 109.5 211.5t287.5 80.5z" />
<glyph unicode="&#x432;" horiz-adv-x="1090" d="M625 576q-55 0 -88 -33t-33 -86q0 -34 21 -65t41.5 -58t20.5 -52q0 -51 -31.5 -82.5t-82.5 -31.5q-69 0 -111 54t-42 142q0 104 83.5 167.5t220.5 63.5q124 0 200 59t76 156q0 95 -91 152.5t-240 57.5h-318l-1 -1000h425q151 0 243 77t92 204q0 44 -8.5 79t-33 74.5 t-78.5 67.5t-135 41l33 11q247 -52 247 -273q0 -136 -99 -218.5t-261 -82.5h-630v15h30q65 0 99.5 8.5t42.5 19t8 27.5v899q0 27 -29.5 41.5t-120.5 14.5h-30v15h524q160 0 258 -63t98 -167q0 -105 -82.5 -169.5t-217.5 -64.5z" />
<glyph unicode="&#x433;" horiz-adv-x="940" d="M50 1040h827q10 0 10 -9q8 -123 8 -142q0 -142 -65 -229.5t-172 -87.5q-75 0 -121 40t-46 105q0 49 29.5 78.5t76.5 29.5q23 0 71.5 -25t80.5 -25q53 0 85 43t32 113q0 40 -31 64.5t-81 24.5h-488l-1 -949q0 -17 8 -28t43 -19.5t99 -8.5h40v-15h-405v15h40q64 0 99 8.5 t43 19.5t8 28v903q0 17 -9.5 27t-43.5 17t-97 7h-40v15z" />
<glyph unicode="&#x434;" horiz-adv-x="1309" d="M370 1040h834v-25h-709l-90 -635q-19 -138 -49 -207t-91 -103h580q65 0 99.5 8.5t42.5 19t8 27.5v455q0 86 -31 138t-82 52q-34 0 -65 -21t-58 -41.5t-52 -20.5q-51 0 -82.5 31.5t-31.5 82.5q0 69 54 111t142 42q104 0 168 -103t64 -271l-1 -455q0 -17 8 -27.5t42.5 -19 t99.5 -8.5h64q10 0 10 -9l21 -320l-21 -2l-12 186q-5 72 -33.5 98.5t-103.5 26.5h-880q-75 0 -103.5 -26.5t-33.5 -98.5l-12 -186l-21 2l21 320q0 9 10 9h37q87 0 135.5 23.5t81 90.5t50.5 196l90 635l-100 5v20z" />
<glyph unicode="&#x435;" horiz-adv-x="1090" d="M555 1045q212 0 341 -142t129 -363q0 -10 -10 -10h-524q-156 0 -251 61t-95 161q0 79 42 127.5t111 48.5q46 0 75 -26t29 -68q0 -29 -36.5 -75.5t-36.5 -89.5q0 -53 45.5 -86t119.5 -33h455q45 0 45 68q0 16 -3 30q-30 171 -145.5 274t-290.5 103q-138 0 -248 -70h-38 q125 90 286 90zM102 732l14 -34q-26 -83 -26 -178q0 -220 127.5 -362.5t327.5 -142.5q309 0 439 231l18 -10q-62 -111 -176.5 -176t-280.5 -65q-210 0 -345 149t-135 376q0 113 37 212z" />
<glyph unicode="&#x436;" horiz-adv-x="1520" d="M89 1040h342v-15h-70q-72 0 -72 -23q0 -13 23 -42l295 -373q11 -14 31.5 -25.5t36.5 -11.5h104v422q0 14 -3.5 22t-16.5 16t-42.5 11.5t-77.5 3.5h-20v15h340v-15h-15q-48 0 -77.5 -3.5t-42.5 -11.5t-16.5 -16t-3.5 -22v-422h105q16 0 36.5 11.5t31.5 25.5l295 373 q23 29 23 42q0 23 -72 23h-70v15h342v-15h-25q-34 0 -57 -3t-60.5 -21t-64.5 -53l-322 -408l313 -397q66 -83 112 -136t107 -108t117 -85.5t128.5 -49.5t155.5 -19q43 0 94.5 21.5t80.5 21.5q51 0 87.5 -33.5t36.5 -80.5q0 -63 -60.5 -108t-145.5 -45q-75 0 -148 29t-128 66 t-133.5 121t-124.5 140.5t-142 179.5q-38 49 -58 74l-286 363q-10 13 -29 24.5t-34 11.5h-105v-460q0 -17 8 -27.5t42.5 -19t99.5 -8.5h55v-15h-420v15h40q65 0 99.5 8.5t42.5 19t8 27.5v460h-104q-15 0 -34.5 -12t-28.5 -24l-285 -363q-66 -84 -104 -115t-90 -31 q-27 0 -67.5 15.5t-40.5 37.5q0 18 19 18q6 0 13 -5q45 -36 88 -36q60 0 161 128l312 397l-322 408q-27 35 -64.5 53t-60.5 21t-57 3h-25v15z" />
<glyph unicode="&#x437;" horiz-adv-x="870" d="M397 1045q162 0 261 -62t99 -164q0 -73 -57 -131.5t-163 -85.5v-2q137 -20 215 -92.5t78 -197.5q0 -142 -123 -228.5t-325 -86.5q-218 0 -321 165q-1 1 -1 4v99h20v-45q0 -19 9.5 -49.5t23.5 -46.5q94 -107 269 -107q190 0 306.5 81t116.5 214q0 233 -270 272l-52 8 q-17 3 -17 9v3q0 6 17 9l52 8q101 27 149 79.5t48 120.5q0 93 -92 149.5t-243 56.5q-64 0 -103.5 -40.5t-39.5 -107.5q0 -43 36.5 -89.5t36.5 -75.5q0 -42 -29 -68t-75 -26q-69 0 -111 48.5t-42 127.5q0 113 90 182t237 69z" />
<glyph unicode="&#x438;" horiz-adv-x="1190" d="M55 1040h420v-15h-65q-65 0 -99.5 -7.5t-42.5 -17.5t-8 -27v-846l588 718q77 93 77 140q0 40 -61 40h-64v15h335v-15h-30q-64 0 -99 -9t-43 -20t-8 -28v-892q0 -76 21 -125t48 -49q31 0 71 24t69 24q48 0 77 -25.5t29 -67.5q0 -58 -46 -94t-121 -36q-78 0 -125.5 73.5 t-47.5 194.5v919l-588 -718q-77 -93 -77 -140q0 -41 61 -41h64v-15h-335v15h30q64 0 99 9t43 20t8 28v901q0 17 -8 27t-42.5 17.5t-99.5 7.5h-30v15z" />
<glyph unicode="&#x439;" horiz-adv-x="1190" d="M595 1330q159 0 249 111l17 -12q-94 -119 -266 -119q-171 0 -266 119l17 12q91 -111 249 -111zM55 1040h420v-15h-65q-65 0 -99.5 -7.5t-42.5 -17.5t-8 -27v-846l588 718q77 93 77 140q0 40 -61 40h-64v15h335v-15h-30q-64 0 -99 -9t-43 -20t-8 -28v-892q0 -76 21 -125 t48 -49q31 0 71 24t69 24q48 0 77 -25.5t29 -67.5q0 -58 -46 -94t-121 -36q-78 0 -125.5 73.5t-47.5 194.5v919l-588 -718q-77 -93 -77 -140q0 -41 61 -41h64v-15h-335v15h30q64 0 99 9t43 20t8 28v901q0 17 -8 27t-42.5 17.5t-99.5 7.5h-30v15z" />
<glyph unicode="&#x43a;" horiz-adv-x="1050" d="M50 1040h380v-15h-15q-91 0 -120.5 -13t-29.5 -40v-412h167q16 0 36.5 11.5t31.5 25.5l287 363q21 26 21 40q0 25 -77 25h-103v15h382v-15q-29 0 -49.5 -2t-51.5 -8.5t-58 -23.5t-48 -43l-314 -398l320 -407q66 -83 112 -136t107 -108t117 -85.5t128.5 -49.5t155.5 -19 q43 0 94.5 21.5t80.5 21.5q51 0 87.5 -33.5t36.5 -80.5q0 -63 -60.5 -108t-145.5 -45q-75 0 -148 29t-128 66t-133.5 121t-124.5 140.5t-142 179.5q-38 49 -58 74l-293 373q-9 12 -28.5 24t-34.5 12h-167v-470q0 -17 8 -27.5t42.5 -19t99.5 -8.5h35v-15h-400v15h40 q65 0 99.5 8.5t42.5 19t8 27.5v902q0 27 -29.5 40t-120.5 13h-40v15z" />
<glyph unicode="&#x43b;" d="M172 1040h932v-25h-79q-58 0 -81.5 -11t-23.5 -39v-895q0 -17 8 -27.5t42.5 -19t99.5 -8.5h60v-15h-400v15h15q65 0 99.5 8.5t42.5 19t8 27.5v945h-480l-108 -634q-18 -105 -36 -189t-44.5 -176t-56.5 -161.5t-72.5 -135t-92 -107t-114 -66.5t-140.5 -25q-85 0 -145.5 45 t-60.5 108q0 47 36.5 80.5t87.5 33.5q29 0 80.5 -21.5t94.5 -21.5q61 0 113.5 18.5t91.5 50t72.5 80t57 100t43.5 119.5t33.5 129.5t26.5 138.5l108 634h-5q-4 0 -55.5 2.5t-119.5 2.5h-38v20z" />
<glyph unicode="&#x43c;" horiz-adv-x="1414" d="M78 1040h189q6 0 9 -6l422 -852q10 -22 19 -22q10 0 20 22l416 852q3 6 9 6h185v-15q-95 0 -129 -17t-34 -75l1 -23l38 -573q7 -103 24.5 -189t51 -161.5t81 -128.5t116.5 -83t154 -30q43 0 94.5 21.5t80.5 21.5q51 0 87.5 -33.5t36.5 -80.5q0 -63 -60.5 -108t-145.5 -45 q-132 0 -231 54t-162 157t-98.5 237.5t-49.5 310.5l-47 710l-416 -851q-4 -7 -6.5 -21t-2.5 -24l-1 -11h-28q-2 42 -9 56l-426 860l-61 -920v-10q0 -26 25 -39.5t104 -13.5h112v-16h-421v16h22q45 0 74.5 5.5t42 16t16.5 20t5 23.5l54 830q1 16 1 23q0 58 -33.5 74.5 t-128.5 16.5v15z" />
<glyph unicode="&#x43d;" horiz-adv-x="1190" d="M55 1040h420v-15h-65q-65 0 -99.5 -7.5t-42.5 -17.5t-8 -27v-413h670v413q0 17 -8 27t-42.5 17.5t-99.5 7.5h-65v15h420v-15h-30q-65 0 -99.5 -7.5t-42.5 -17.5t-8 -27v-897q0 -76 21 -125t48 -49q31 0 71 24t69 24q48 0 77 -25.5t29 -67.5q0 -58 -46 -94t-121 -36 q-78 0 -125.5 73.5t-47.5 194.5v545h-670v-468q0 -17 8 -28t43 -20t99 -9h65v-15h-420v15h30q64 0 99 9t43 20t8 28v901q0 17 -8 27t-42.5 17.5t-99.5 7.5h-30v15z" />
<glyph unicode="&#x43e;" horiz-adv-x="1110" d="M555 1045q169 0 272.5 -75t104.5 -197q0 -79 -36.5 -127.5t-96.5 -48.5q-49 0 -78.5 31.5t-29.5 82.5q0 26 28.5 74t28.5 81q-1 72 -53.5 115.5t-139.5 43.5q-203 0 -334 -142.5t-131 -362.5t131.5 -362.5t333.5 -142.5t333.5 142.5t131.5 362.5q0 143 -59 258l-1 50 q85 -134 85 -308q0 -228 -138.5 -376.5t-351.5 -148.5t-351.5 148.5t-138.5 376.5t138 376.5t352 148.5z" />
<glyph unicode="&#x43f;" horiz-adv-x="1155" d="M56 1040h1049v-25h-80q-58 0 -81.5 -11t-23.5 -39v-889q0 -76 21 -125t48 -49q31 0 71 24t69 24q48 0 77 -25.5t29 -67.5q0 -58 -46 -94t-121 -36q-78 0 -125.5 73.5t-47.5 194.5v1020h-630v-945q0 -17 8 -27.5t42.5 -19t99.5 -8.5h15v-15h-400v15h60q65 0 99.5 8.5 t42.5 19t8 27.5v895q0 28 -23.5 39t-81.5 11h-79v25z" />
<glyph unicode="&#x440;" horiz-adv-x="1145" d="M110 1040h25l130 3v-146q201 148 382 148q188 0 310.5 -148.5t122.5 -376.5t-125 -376.5t-318 -148.5q-141 0 -226.5 86t-85.5 226q0 79 36.5 127.5t96.5 48.5q49 0 78.5 -31.5t29.5 -82.5q0 -26 -28.5 -74t-28.5 -81q0 -90 35 -144.5t93 -54.5q182 0 300 142.5 t118 362.5t-115 362.5t-293 142.5q-180 0 -382 -153v-1282q0 -17 8 -27.5t42.5 -19t99.5 -8.5h75v-15h-440v15h40q65 0 99.5 8.5t42.5 19t8 27.5v1385q0 28 -23.5 39t-81.5 11h-25v15z" />
<glyph unicode="&#x441;" horiz-adv-x="1010" d="M555 1045q183 0 294.5 -69.5t111.5 -182.5q0 -79 -42 -127.5t-111 -48.5q-46 0 -75 26t-29 68q0 29 36.5 75.5t36.5 89.5q0 149 -225 149q-201 0 -331.5 -142.5t-130.5 -364.5q0 -221 136 -362t349 -141q99 0 195.5 33t171.5 97l13 -15q-78 -66 -178 -100.5t-202 -34.5 q-222 0 -366 147.5t-144 375.5q0 229 139 378t351 149z" />
<glyph unicode="&#x442;" horiz-adv-x="1020" d="M58 1040h891q10 0 10 -9l21 -320l-16 -2l-12 186q-5 72 -33.5 98.5t-103.5 26.5h-290v-950q0 -17 8 -27.5t42.5 -19t99.5 -8.5h35v-15h-400v15h40q65 0 99.5 8.5t42.5 19t8 27.5v950h-319q-50 0 -81 -24.5t-31 -64.5q0 -66 24 -106t63 -40q32 0 80.5 25t71.5 25 q46 0 73.5 -28t27.5 -75q0 -63 -44.5 -101.5t-117.5 -38.5q-93 0 -150 82t-57 215q0 19 8 142q0 9 10 9z" />
<glyph unicode="&#x443;" d="M742 1040h398v-15h-11q-52 0 -81.5 -17t-46.5 -57l-465 -1106q-68 -159 -171 -241.5t-254 -82.5q-85 0 -145.5 45t-60.5 108q0 47 36.5 80.5t87.5 33.5q33 0 60 -10t42.5 -21.5t47 -21.5t73.5 -10q86 0 159 32.5t104 100.5l54 117q1 2 1 7q0 19 -15 56l-352 852 q-32 78 -53.5 98t-70.5 20q-23 0 -47 -8q-4 -2 -7 -2q-19 0 -19 19q0 28 68 28q33 0 54 -6.5t38.5 -27t29 -43.5t31.5 -72l343 -827q12 -29 19 -29q6 0 19 30l375 887q9 23 9 32q0 23 -32 29.5t-118 6.5h-100v15z" />
<glyph unicode="&#x444;" horiz-adv-x="1685" d="M855 620v-200q0 -182 94.5 -293.5t249.5 -111.5q182 0 294 139t112 366t-112 366t-294 139q-155 0 -249.5 -111.5t-94.5 -293.5zM680 1520h45l130 3v-733q39 120 129 187.5t215 67.5q194 0 312.5 -144.5t118.5 -380.5t-118.5 -380.5t-312.5 -144.5q-125 0 -215 67.5 t-129 187.5v-660q0 -17 8 -27.5t42.5 -19t99.5 -8.5h35v-15h-400v15h40q65 0 99.5 8.5t42.5 19t8 27.5v660q-39 -120 -129 -187.5t-215 -67.5q-194 0 -312.5 144.5t-118.5 380.5q0 165 61 289t168 185l-11 -32q-92 -62 -142.5 -177t-50.5 -265q0 -227 112 -366t294 -139 q155 0 249.5 111.5t94.5 293.5v179q0 118 -69 190t-182 72q-33 0 -81 -28.5t-74 -28.5q-51 0 -82.5 29.5t-31.5 78.5q0 60 48.5 96.5t127.5 36.5q125 0 214.5 -67t129.5 -190v667q0 28 -23.5 39t-81.5 11h-45v15z" />
<glyph unicode="&#x445;" d="M70 1040h410v-15h-101q-63 0 -86 -7.5t-23 -26.5q0 -11 11 -26l268 -344q13 -16 18 -16q3 0 19 20l195 278q132 188 189 253q132 153 269 184q42 9 85 9q70 0 113 -33.5t43 -89.5q0 -42 -26 -68t-68 -26q-29 0 -75.5 16.5t-89.5 16.5q-72 0 -137 -23.5t-117.5 -66 t-91.5 -85.5t-78 -98l-197 -279q-8 -11 -8 -34q0 -14 15 -33l359 -461q54 -70 155 -70h19q1 -15 0 -15h-393v15h86q124 0 124 29q0 15 -13 31l-361 461q-13 16 -19 16q-8 0 -15 -13l-299 -429q-23 -32 -23 -52q0 -23 22.5 -33t77.5 -10h107v-15h-414v15h40q60 0 96 23t77 82 l299 429q11 17 11 30q0 5 -2 10t-4 7.5t-7 8t-6 7.5l-269 345q-53 68 -158 68h-27v15z" />
<glyph unicode="&#x446;" horiz-adv-x="1240" d="M50 1040h440v-15h-75q-64 0 -99 -9t-43 -20t-8 -28v-948h670v948q0 17 -8 28t-43 20t-99 9h-75v15h440v-15h-40q-64 0 -99 -9t-43 -20t-8 -28v-901q0 -32 13 -39.5t67 -7.5h147q10 0 10 -9q8 -123 8 -142q0 -157 -59.5 -252.5t-157.5 -95.5q-75 0 -121 40t-46 105 q0 49 29.5 78.5t76.5 29.5q23 0 71.5 -25t80.5 -25q44 0 70.5 51.5t26.5 135.5q0 40 -31 64.5t-81 24.5h-799h-215v15h40q65 0 99.5 7.5t42.5 17.5t8 27v901q0 17 -8 28t-43 20t-99 9h-40v15z" />
<glyph unicode="&#x447;" d="M725 1040h400v-15h-35q-91 0 -120.5 -12.5t-29.5 -39.5v-903q0 -17 8 -27.5t42.5 -19t99.5 -8.5h35v-15h-400v15h40q65 0 99.5 8.5t42.5 19t8 27.5v519q0 31 -7 31q-9 0 -19 -25q-44 -106 -150 -163t-249 -57q-162 0 -246 101t-84 259q0 83 -20.5 154t-44.5 110t-44.5 80 t-20.5 71q0 35 23.5 56.5t62.5 21.5q57 0 97 -44t40 -106q0 -35 -17 -78.5t-34 -109t-17 -152.5q0 -150 76.5 -245t228.5 -95q90 0 166 25.5t134.5 75.5t91.5 131.5t33 187.5v155q0 27 -29.5 39.5t-120.5 12.5h-40v15z" />
<glyph unicode="&#x448;" horiz-adv-x="1600" d="M50 1040h400v-15h-35q-64 0 -99 -9t-43 -20t-8 -28v-948h505v480q0 95 -18.5 180.5t-41 135t-41 98t-18.5 78.5q0 35 27 56.5t71 21.5q49 0 79 -38.5t30 -101.5q0 -34 -16 -94t-31.5 -147.5t-15.5 -188.5v-480h540v948q0 17 -8 28t-43 20t-99 9h-75v15h440v-15h-40 q-64 0 -99 -9t-43 -20t-8 -28v-901q0 -32 13 -39.5t67 -7.5h110v-20h-215h-1070h-215v15h40q65 0 99.5 7.5t42.5 17.5t8 27v901q0 17 -8 28t-43 20t-99 9h-40v15z" />
<glyph unicode="&#x449;" horiz-adv-x="1640" d="M1597 11q8 -123 8 -142q0 -157 -59.5 -252.5t-157.5 -95.5q-75 0 -121 40t-46 105q0 49 29.5 78.5t76.5 29.5q23 0 71.5 -25t80.5 -25q44 0 70.5 51.5t26.5 135.5q0 40 -31 64.5t-81 24.5h-1199h-215v15h40q65 0 99.5 7.5t42.5 17.5t8 27v901q0 17 -8 28t-43 20t-99 9 h-40v15h420v-15h-55q-64 0 -99 -9t-43 -20t-8 -28v-948h505v948q0 17 -8 28t-43 20t-99 9h-40v15h440v-15h-75q-64 0 -99 -9t-43 -20t-8 -28v-948h540v948q0 17 -8 28t-43 20t-99 9h-55v15h420v-15h-40q-64 0 -99 -9t-43 -20t-8 -28v-901q0 -32 13 -39.5t67 -7.5h147 q10 0 10 -9z" />
<glyph unicode="&#x44a;" horiz-adv-x="1320" d="M850 0h-540v15h40q65 0 99.5 8.5t42.5 19t8 27.5v950h-302q-66 0 -94.5 -25.5t-32.5 -91.5l-16 -254l-20 2l25 380q0 9 10 9h645v-15h-40q-92 0 -121 -12.5t-29 -39.5v-953h325q173 0 279 77t106 203q0 119 -92 192t-243 73q-64 0 -102.5 -33t-38.5 -86q0 -27 13 -52.5 t28.5 -42t28.5 -38.5t13 -42q0 -51 -31.5 -82.5t-82.5 -31.5q-69 0 -111 54t-42 142q0 104 89.5 168t235.5 64q162 0 261 -78.5t99 -206.5q0 -135 -113 -217.5t-297 -82.5z" />
<glyph unicode="&#x44b;" horiz-adv-x="1440" d="M640 585q162 0 261 -78.5t99 -206.5q0 -135 -112.5 -217.5t-297.5 -82.5h-540v15h40q65 0 99.5 8.5t42.5 19t8 27.5v903q0 27 -29.5 39.5t-120.5 12.5h-40v15h400v-15h-35q-91 0 -120.5 -12.5t-29.5 -39.5v-953h325q173 0 279 77t106 203q0 119 -92 192t-243 73 q-64 0 -102.5 -33t-38.5 -86q0 -27 13 -52.5t28.5 -42t28.5 -38.5t13 -42q0 -51 -31.5 -82.5t-82.5 -31.5q-69 0 -111 54t-42 142q0 104 89.5 168t235.5 64zM1390 0h-400v15h40q65 0 99.5 8.5t42.5 19t8 27.5v903q0 27 -29.5 39.5t-120.5 12.5h-40v15h400v-15h-35 q-91 0 -120.5 -12.5t-29.5 -39.5v-903q0 -17 8 -27.5t42.5 -19t99.5 -8.5h35v-15z" />
<glyph unicode="&#x44c;" horiz-adv-x="1060" d="M640 585q162 0 261 -78.5t99 -206.5q0 -135 -112.5 -217.5t-297.5 -82.5h-540v15h40q65 0 99.5 8.5t42.5 19t8 27.5v903q0 27 -29.5 39.5t-120.5 12.5h-40v15h400v-15h-35q-91 0 -120.5 -12.5t-29.5 -39.5v-953h325q173 0 279 77t106 203q0 119 -92 192t-243 73 q-64 0 -102.5 -33t-38.5 -86q0 -27 13 -52.5t28.5 -42t28.5 -38.5t13 -42q0 -51 -31.5 -82.5t-82.5 -31.5q-69 0 -111 54t-42 142q0 104 89.5 168t235.5 64z" />
<glyph unicode="&#x44d;" horiz-adv-x="1010" d="M465 1045q213 0 351.5 -149t138.5 -378t-144 -377t-366 -148q-102 0 -202 34.5t-178 100.5l13 15q75 -64 171.5 -97t195.5 -33q211 0 346.5 139.5t138.5 357.5h-487l-4 20h491q-4 217 -133.5 356t-328.5 139q-214 0 -214 -149q0 -43 36.5 -89.5t36.5 -75.5q0 -42 -29 -68 t-75 -26q-69 0 -111 48.5t-42 127.5q0 114 106.5 183t288.5 69z" />
<glyph unicode="&#x44e;" horiz-adv-x="1465" d="M485 521q1 -228 123 -367t322 -139t322.5 139t122.5 366t-122.5 366t-322.5 139q-160 0 -273 -91l-38 -4q126 115 311 115q212 0 341 -144.5t129 -380.5t-129 -380.5t-341 -144.5q-209 0 -338 141.5t-132 373.5h-195v-440q0 -17 8 -27.5t42.5 -19t99.5 -8.5h35v-15h-400 v15h40q65 0 99.5 8.5t42.5 19t8 27.5v903q0 27 -29.5 39.5t-120.5 12.5h-40v15h400v-15h-35q-91 0 -120.5 -12.5t-29.5 -39.5v-443h195q0 169 75 272.5t197 104.5q79 0 127.5 -36.5t48.5 -96.5q0 -49 -31.5 -78.5t-82.5 -29.5q-26 0 -74 28.5t-81 28.5q-70 -1 -112 -57.5 t-42 -144.5z" />
<glyph unicode="&#x44f;" horiz-adv-x="1070" d="M385 420q68 0 110 52t42 137q0 43 -36.5 89.5t-36.5 75.5q0 42 29 68t75 26q69 0 111 -48.5t42 -127.5q0 -131 -92.5 -211.5t-243.5 -80.5q-126 0 -203 88t-77 232q0 156 102.5 238t297.5 82h520v-15h-40q-92 0 -121 -12t-29 -38v-905q0 -17 8 -27.5t42.5 -19t99.5 -8.5 h40v-15h-365v15h10q49 0 79 4t42.5 13t15.5 16.5t3 21.5l-1 582q-53 -306 -229.5 -486.5t-420.5 -180.5q-63 0 -110 36q-9 6 -9 16q0 6 5 13q6 9 16 9q7 0 14 -5q5 -4 15.5 -12.5t14.5 -11.5t12.5 -8t17 -6.5t19.5 -1.5q274 0 458 229.5t197 597.5v179h-301q-184 0 -281 -77 t-97 -223q0 -135 70 -217.5t185 -82.5z" />
<glyph unicode="&#x450;" horiz-adv-x="1090" d="M663 1240l-14 -14l-293 268q-8 8 2 17q8 9 17 0zM555 1045q212 0 341 -142t129 -363q0 -10 -10 -10h-524q-156 0 -251 61t-95 161q0 79 42 127.5t111 48.5q46 0 75 -26t29 -68q0 -29 -36.5 -75.5t-36.5 -89.5q0 -53 45.5 -86t119.5 -33h455q45 0 45 68q0 16 -3 30 q-30 171 -145.5 274t-290.5 103q-138 0 -248 -70h-38q125 90 286 90zM102 732l14 -34q-26 -83 -26 -178q0 -220 127.5 -362.5t327.5 -142.5q309 0 439 231l18 -10q-62 -111 -176.5 -176t-280.5 -65q-210 0 -345 149t-135 376q0 113 37 212z" />
<glyph unicode="&#x451;" horiz-adv-x="1090" d="M270 1340q0 16 12 28t28 12t28 -12t12 -28t-12 -28t-28 -12t-28 12t-12 28zM750 1340q0 16 12 28t28 12t28 -12t12 -28t-12 -28t-28 -12t-28 12t-12 28zM555 1045q212 0 341 -142t129 -363q0 -10 -10 -10h-524q-156 0 -251 61t-95 161q0 79 42 127.5t111 48.5 q46 0 75 -26t29 -68q0 -29 -36.5 -75.5t-36.5 -89.5q0 -53 45.5 -86t119.5 -33h455q45 0 45 68q0 16 -3 30q-30 171 -145.5 274t-290.5 103q-138 0 -248 -70h-38q125 90 286 90zM102 732l14 -34q-26 -83 -26 -178q0 -220 127.5 -362.5t327.5 -142.5q309 0 439 231l18 -10 q-62 -111 -176.5 -176t-280.5 -65q-210 0 -345 149t-135 376q0 113 37 212z" />
<glyph unicode="&#x452;" horiz-adv-x="1195" d="M90 1520h45l130 3v-263h347l-4 -20h-343v-549q0 -31 7 -31q6 0 16 25q61 155 183 257.5t259 102.5q161 0 245.5 -72t84.5 -208v-745q0 -225 -86.5 -362.5t-227.5 -137.5q-84 0 -135 42t-51 111q0 47 29 75.5t75 28.5q29 0 80.5 -21.5t94.5 -21.5q88 0 142 78.5t54 207.5 v742q0 127 -77 193.5t-228 66.5q-87 0 -172 -47t-149 -123.5t-104 -180t-40 -209.5v-392q0 -17 8 -27.5t42.5 -19t99.5 -8.5h55v-15h-420v15h40q65 0 99.5 8.5t42.5 19t8 27.5v1170h-192l4 20h188v195q0 28 -23.5 39t-81.5 11h-45v15z" />
<glyph unicode="&#x453;" horiz-adv-x="940" d="M407 1240l288 271q9 9 17 0q10 -9 2 -17l-293 -268zM50 1040h827q10 0 10 -9q8 -123 8 -142q0 -142 -65 -229.5t-172 -87.5q-75 0 -121 40t-46 105q0 49 29.5 78.5t76.5 29.5q23 0 71.5 -25t80.5 -25q53 0 85 43t32 113q0 40 -31 64.5t-81 24.5h-488l-1 -949q0 -17 8 -28 t43 -19.5t99 -8.5h40v-15h-405v15h40q64 0 99 8.5t43 19.5t8 28v903q0 17 -9.5 27t-43.5 17t-97 7h-40v15z" />
<glyph unicode="&#x454;" horiz-adv-x="1010" d="M556 1045q182 0 288.5 -69t106.5 -183q0 -79 -42 -127.5t-111 -48.5q-46 0 -75 26t-29 68q0 29 36.5 75.5t36.5 89.5q0 149 -214 149q-200 0 -329.5 -139t-133.5 -356h491l-4 -20h-487q3 -218 138.5 -357.5t346.5 -139.5q99 0 195.5 33t171.5 97l13 -15 q-78 -66 -178 -100.5t-202 -34.5q-222 0 -366 148t-144 377t139 378t352 149z" />
<glyph unicode="&#x455;" horiz-adv-x="1010" d="M485 1045q188 0 314 -101q7 -6 16.5 -14.5t14 -12t8.5 -3.5q15 0 15 46q0 2 -0.5 9.5t-1 27.5t-1.5 43h16l11 -300q0 -7 -8 -7t-8 7l-1 8q-18 135 -73 180q-118 97 -302 97q-143 0 -236.5 -63.5t-93.5 -160.5q0 -50 44 -88t114 -63t154.5 -48.5t169.5 -52.5t155 -66 t114 -98t44 -141q0 -108 -123 -178.5t-312 -70.5q-202 0 -326 72t-124 190q0 79 42 127.5t111 48.5q46 0 75 -26t29 -68q0 -29 -36.5 -75.5t-36.5 -89.5q0 -71 73 -115t193 -44q179 0 294.5 64.5t115.5 164.5q0 74 -44 131t-114 91.5t-154.5 61.5t-169.5 51.5t-155 51.5 t-114 70t-44 100q0 106 100 175t255 69z" />
<glyph unicode="&#x456;" horiz-adv-x="500" d="M265 1040v-970q0 -17 8 -27.5t42.5 -19t99.5 -8.5h35v-15h-400v15h40q65 0 99.5 8.5t42.5 19t8 27.5v905q0 28 -23.5 39t-81.5 11q-68 0 -110 42t-42 110q0 125 71 201.5t188 76.5q31 0 53 -22t22 -53t-22 -53t-53 -22q-23 0 -61.5 20.5t-66.5 20.5q-50 0 -80.5 -46.5 t-30.5 -122.5q0 -61 37 -99t97 -38h128z" />
<glyph unicode="&#x457;" horiz-adv-x="500" d="M-10 1340q0 16 12 28t28 12t28 -12t12 -28t-12 -28t-28 -12t-28 12t-12 28zM430 1340q0 16 12 28t28 12t28 -12t12 -28t-12 -28t-28 -12t-28 12t-12 28zM265 70q0 -17 8 -27.5t42.5 -19t99.5 -8.5h35v-15h-400v15h40q65 0 99.5 8.5t42.5 19t8 27.5v905q0 28 -23.5 39 t-81.5 11h-25v15h25l130 3v-973z" />
<glyph unicode="&#x458;" horiz-adv-x="380" d="M50 1040h45l130 3v-1023q0 -225 -86.5 -362.5t-227.5 -137.5q-84 0 -135 42t-51 111q0 47 28.5 75.5t75.5 28.5q29 0 80.5 -21.5t94.5 -21.5q88 0 142 78.5t54 207.5v955q0 28 -23.5 39t-81.5 11h-45v15zM137 1380q0 33 23 54t52 21q33 0 54 -23t21 -52q0 -33 -23 -54 t-52 -21q-33 0 -54 23t-21 52z" />
<glyph unicode="&#x459;" horiz-adv-x="1695" d="M172 1040h913v-15h-35q-91 0 -120.5 -12.5t-29.5 -39.5v-953h325q173 0 279 77t106 203q0 119 -92 192t-243 73q-64 0 -102.5 -33t-38.5 -86q0 -34 21 -65t41.5 -58t20.5 -52q0 -51 -31.5 -82.5t-82.5 -31.5q-69 0 -111 54t-42 142q0 104 89.5 168t235.5 64 q162 0 261 -78.5t99 -206.5q0 -135 -112.5 -217.5t-297.5 -82.5h-540v15h40q65 0 99.5 8.5t42.5 19t8 27.5v945h-460l-108 -634q-18 -105 -36 -189t-44.5 -176t-56.5 -161.5t-72.5 -135t-92 -107t-114 -66.5t-140.5 -25q-85 0 -145.5 45t-60.5 108q0 47 36.5 80.5t87.5 33.5 q29 0 80.5 -21.5t94.5 -21.5q61 0 113.5 18.5t91.5 50t72.5 80t57 100t43.5 119.5t33.5 129.5t26.5 138.5l108 634q-165 5 -180 5h-38v20z" />
<glyph unicode="&#x45a;" horiz-adv-x="1730" d="M55 1040h420v-15h-65q-65 0 -99.5 -7.5t-42.5 -17.5t-8 -27v-388h650v388q0 27 -29.5 39.5t-120.5 12.5h-40v15h400v-15h-35q-91 0 -120.5 -12.5t-29.5 -39.5v-388h325q184 0 297 -82.5t113 -217.5q0 -128 -99 -206.5t-261 -78.5q-146 0 -235.5 64t-89.5 168q0 88 42 142 t111 54q51 0 82.5 -31.5t31.5 -82.5q0 -20 -13 -42t-28.5 -38.5t-28.5 -42t-13 -52.5q0 -53 38.5 -86t102.5 -33q151 0 243 73t92 192q0 126 -106 203t-279 77h-325v-565h-215v15h40q65 0 99.5 8.5t42.5 19t8 27.5v495h-650v-493q0 -17 8 -28t43 -20t99 -9h65v-15h-420v15 h30q64 0 99 9t43 20t8 28v901q0 17 -8 27t-42.5 17.5t-99.5 7.5h-30v15z" />
<glyph unicode="&#x45b;" horiz-adv-x="1250" d="M90 1520h45l130 3v-263h347l-4 -20h-343v-549q0 -31 7 -31q6 0 16 25q61 155 183 257.5t259 102.5q161 0 245.5 -72t84.5 -208v-689q0 -76 21 -125t48 -49q31 0 71 24t69 24q48 0 77 -25.5t29 -67.5q0 -58 -46 -94t-121 -36q-78 0 -125.5 73.5t-47.5 194.5v767 q0 127 -78 193.5t-227 66.5q-113 0 -221.5 -81t-176 -211.5t-67.5 -267.5v-392q0 -17 8 -27.5t42.5 -19t99.5 -8.5h55v-15h-420v15h40q65 0 99.5 8.5t42.5 19t8 27.5v1170h-192l4 20h188v195q0 28 -23.5 39t-81.5 11h-45v15z" />
<glyph unicode="&#x45c;" horiz-adv-x="1050" d="M427 1240l288 271q9 9 17 0q10 -9 2 -17l-293 -268zM50 1040h380v-15h-15q-91 0 -120.5 -13t-29.5 -40v-412h167q16 0 36.5 11.5t31.5 25.5l287 363q21 26 21 40q0 25 -77 25h-103v15h382v-15q-29 0 -49.5 -2t-51.5 -8.5t-58 -23.5t-48 -43l-314 -398l320 -407 q66 -83 112 -136t107 -108t117 -85.5t128.5 -49.5t155.5 -19q43 0 94.5 21.5t80.5 21.5q51 0 87.5 -33.5t36.5 -80.5q0 -63 -60.5 -108t-145.5 -45q-75 0 -148 29t-128 66t-133.5 121t-124.5 140.5t-142 179.5q-38 49 -58 74l-293 373q-9 12 -28.5 24t-34.5 12h-167v-470 q0 -17 8 -27.5t42.5 -19t99.5 -8.5h35v-15h-400v15h40q65 0 99.5 8.5t42.5 19t8 27.5v902q0 27 -29.5 40t-120.5 13h-40v15z" />
<glyph unicode="&#x45d;" horiz-adv-x="1190" d="M708 1240l-14 -14l-293 268q-7 8 2 17t17 0zM55 1040h420v-15h-65q-65 0 -99.5 -7.5t-42.5 -17.5t-8 -27v-846l588 718q77 93 77 140q0 40 -61 40h-64v15h335v-15h-30q-64 0 -99 -9t-43 -20t-8 -28v-892q0 -76 21 -125t48 -49q31 0 71 24t69 24q48 0 77 -25.5t29 -67.5 q0 -58 -46 -94t-121 -36q-78 0 -125.5 73.5t-47.5 194.5v919l-588 -718q-77 -93 -77 -140q0 -41 61 -41h64v-15h-335v15h30q64 0 99 9t43 20t8 28v901q0 17 -8 27t-42.5 17.5t-99.5 7.5h-30v15z" />
<glyph unicode="&#x45e;" d="M560 1330q159 0 249 111l17 -12q-94 -119 -266 -119q-171 0 -266 119l17 12q91 -111 249 -111zM742 1040h398v-15h-11q-52 0 -81.5 -17t-46.5 -57l-465 -1106q-68 -159 -171 -241.5t-254 -82.5q-85 0 -145.5 45t-60.5 108q0 47 36.5 80.5t87.5 33.5q33 0 60 -10 t42.5 -21.5t47 -21.5t73.5 -10q86 0 159 32.5t104 100.5l54 117q1 2 1 7q0 19 -15 56l-352 852q-32 78 -53.5 98t-70.5 20q-23 0 -47 -8q-4 -2 -7 -2q-19 0 -19 19q0 28 68 28q33 0 54 -6.5t38.5 -27t29 -43.5t31.5 -72l343 -827q12 -29 19 -29q6 0 19 30l375 887q9 23 9 32 q0 23 -32 29.5t-118 6.5h-100v15z" />
<glyph unicode="&#x45f;" horiz-adv-x="1200" d="M50 1040h440v-15h-75q-64 0 -99 -9t-43 -20t-8 -28v-948h670v948q0 17 -8 28t-43 20t-99 9h-75v15h440v-15h-40q-64 0 -99 -9t-43 -20t-8 -28v-901q0 -32 13 -39.5t67 -7.5h110v-20h-215h-323q0 -28 7 -130t7 -148q0 -63 -27.5 -101.5t-71.5 -38.5q-35 0 -56.5 21.5 t-21.5 56.5q0 31 21 72.5t46.5 77.5t47.5 88.5t24 101.5h-323h-215v15h40q65 0 99.5 7.5t42.5 17.5t8 27v901q0 17 -8 28t-43 20t-99 9h-40v15z" />
<glyph unicode="&#x462;" horiz-adv-x="1360" d="M150 1520h400v-15h-35q-91 0 -120.5 -12.5t-29.5 -39.5v-203h449q10 0 10 -9l14 -200l-21 -2l-5 66q-5 72 -33.5 98.5t-103.5 26.5h-310v-1210h455q198 0 326.5 110t128.5 280q0 169 -128 272t-337 103q-91 0 -146 -33t-55 -86q0 -27 13 -52.5t28.5 -42t28.5 -38.5 t13 -42q0 -51 -31.5 -82.5t-82.5 -31.5q-69 0 -111 54t-42 142q0 104 106 168t279 64q220 0 355 -108.5t135 -286.5t-135.5 -294t-344.5 -116h-670v15h40q65 0 99.5 8.5t42.5 19t8 27.5v1160h-167q-75 0 -103.5 -26.5t-33.5 -98.5l-5 -66l-21 2l14 200q0 9 10 9h306v203 q0 27 -29.5 39.5t-120.5 12.5h-40v15z" />
<glyph unicode="&#x463;" d="M690 0h-520v15h40q65 0 99.5 8.5t42.5 19t8 27.5v780h-177q-75 0 -103.5 -26.5t-33.5 -98.5l-5 -66l-21 2l14 200q0 9 10 9h316v103q0 27 -29.5 39.5t-120.5 12.5h-40v15h400v-15h-35q-91 0 -120.5 -12.5t-29.5 -39.5v-103h409q10 0 10 -9l14 -200l-21 -2l-5 66 q-5 72 -33.5 98.5t-103.5 26.5h-270v-830h305q173 0 279 77t106 203q0 119 -86.5 192t-228.5 73q-64 0 -102.5 -33t-38.5 -86q0 -27 13 -52.5t28.5 -42t28.5 -38.5t13 -42q0 -51 -31.5 -82.5t-82.5 -31.5q-69 0 -111 54t-42 142q0 104 89.5 168t235.5 64q153 0 246.5 -78.5 t93.5 -206.5q0 -135 -113 -217.5t-297 -82.5z" />
<glyph unicode="&#x464;" horiz-adv-x="1520" d="M1055 1525q183 0 294 -80.5t111 -211.5q0 -88 -42 -142t-111 -54q-51 0 -82.5 31.5t-31.5 82.5q0 25 20.5 52t41.5 58t21 65q0 80 -60.5 129.5t-160.5 49.5q-262 0 -417.5 -200.5t-157.5 -534.5h541l-4 -20h-537q2 -217 68.5 -382t197 -259t309.5 -94q230 0 396 164 l14 -14q-174 -170 -410 -170q-185 0 -321.5 98t-206.5 267.5t-72 389.5h-190v-680q0 -17 8 -27.5t42.5 -19t99.5 -8.5h35v-15h-400v15h40q65 0 99.5 8.5t42.5 19t8 27.5v1383q0 27 -29.5 39.5t-120.5 12.5h-40v15h400v-15h-35q-91 0 -120.5 -12.5t-29.5 -39.5v-683h190 q1 225 75 396t209.5 265t315.5 94z" />
<glyph unicode="&#x465;" horiz-adv-x="1395" d="M50 1040h400v-15h-35q-91 0 -120.5 -12.5t-29.5 -39.5v-443h195q4 232 136 373.5t344 141.5q182 0 288.5 -69t106.5 -183q0 -79 -42 -127.5t-111 -48.5q-46 0 -75 26t-29 68q0 29 36.5 75.5t36.5 89.5q0 149 -214 149q-200 0 -324 -136t-128 -359h471l-4 -20h-467 q2 -224 132.5 -360.5t342.5 -136.5q99 0 195.5 33t171.5 97l13 -15q-78 -66 -178 -100.5t-202 -34.5q-223 0 -360.5 142t-139.5 375h-195v-440q0 -17 8 -27.5t42.5 -19t99.5 -8.5h35v-15h-400v15h40q65 0 99.5 8.5t42.5 19t8 27.5v903q0 27 -29.5 39.5t-120.5 12.5h-40v15z " />
<glyph unicode="&#x472;" horiz-adv-x="1410" d="M705 1525q164 0 299.5 -80t221.5 -223l-36 13q-84 128 -209.5 199t-275.5 71q-176 0 -316.5 -95.5t-219.5 -266t-79 -383.5q0 -36 1 -54q18 30 51 47.5t67 17.5h778q60 0 96.5 38.5t36.5 100.5q0 21 -18.5 46.5t-40 45t-40 42.5t-18.5 41q0 51 29.5 82.5t78.5 31.5 q87 0 140 -54t53 -142q0 -114 -87.5 -184t-229.5 -70h-778q-38 0 -72 -22.5t-42 -64.5v-1q27 -286 195.5 -466t414.5 -180q176 0 316.5 95.5t219.5 266t79 383.5q0 58 -6 113l21 33q10 -67 10 -146q0 -219 -82 -394t-228.5 -273t-329.5 -98t-329.5 98t-228.5 273t-82 394 t82 394t228.5 273t329.5 98z" />
<glyph unicode="&#x473;" horiz-adv-x="1110" d="M555 1045q125 0 226 -49h-54q-79 29 -172 29q-202 0 -333.5 -142.5t-131.5 -362.5q0 -38 2 -56q18 31 51.5 49t67.5 18h426q60 0 96.5 38.5t36.5 100.5q0 21 -18.5 46.5t-40 45t-40 42.5t-18.5 41q0 51 29.5 82.5t78.5 31.5q87 0 140 -54t53 -142q0 -114 -87.5 -184 t-229.5 -70h-426q-38 0 -72 -22t-42 -63q29 -183 154.5 -296t303.5 -113q202 0 333.5 142.5t131.5 362.5q0 106 -31 199l5 56q51 -113 51 -255q0 -228 -138.5 -376.5t-351.5 -148.5t-351.5 148.5t-138.5 376.5t138.5 376.5t351.5 148.5z" />
<glyph unicode="&#x490;" horiz-adv-x="1125" d="M50 1520h924q50 0 81 24.5t31 64.5q0 66 -24 106t-63 40q-32 0 -80.5 -25t-71.5 -25q-46 0 -73.5 28t-27.5 75q0 63 44.5 101.5t117.5 38.5q93 0 150 -82t57 -215q0 -19 -8 -142q0 -9 -10 -9h-831l-1 -1429q0 -17 8 -28t43 -19.5t99 -8.5h40v-15h-405v15h40q64 0 99 8.5 t43 19.5t8 28v1383q0 17 -9.5 27t-43.5 17t-97 7h-40v15z" />
<glyph unicode="&#x491;" horiz-adv-x="900" d="M50 1040h699q50 0 81 24.5t31 64.5q0 66 -24 106t-63 40q-32 0 -80.5 -25t-71.5 -25q-46 0 -73.5 28t-27.5 75q0 63 44.5 101.5t117.5 38.5q93 0 150 -82t57 -215q0 -19 -8 -142q0 -9 -10 -9h-606l-1 -949q0 -17 8 -28t43 -19.5t99 -8.5h40v-15h-405v15h40q64 0 99 8.5 t43 19.5t8 28v903q0 17 -9.5 27t-43.5 17t-97 7h-40v15z" />
<glyph unicode="&#x4c0;" horiz-adv-x="500" d="M450 0h-400v15h40q65 0 99.5 8.5t42.5 19t8 27.5v1383q0 27 -29.5 39.5t-120.5 12.5h-40v15h400v-15h-35q-91 0 -120.5 -12.5t-29.5 -39.5v-1383q0 -17 8 -27.5t42.5 -19t99.5 -8.5h35v-15z" />
<glyph unicode="&#x4c1;" horiz-adv-x="1893" d="M972 1730q159 0 249 111l17 -12q-94 -119 -266 -119q-171 0 -266 119l17 12q91 -111 249 -111zM105 1520h382v-15h-110q-72 0 -72 -23q0 -13 23 -42l477 -603q11 -14 31.5 -25.5t36.5 -11.5h87v652q0 27 -29.5 40t-120.5 13h-40v15h420v-15h-55q-91 0 -120.5 -13 t-29.5 -40v-652h87q16 0 36.5 11.5t31.5 25.5l477 603q23 29 23 42q0 23 -72 23h-110v15h382v-15h-15q-131 0 -192 -77l-504 -638l570 -723q48 -61 86 -103t92 -86.5t109 -71t129 -44t159 -17.5q43 0 94.5 21.5t80.5 21.5q51 0 87.5 -33.5t36.5 -80.5q0 -63 -60.5 -108 t-145.5 -45q-79 0 -148.5 23t-120 52t-123 105t-118 130.5t-143.5 179.5l-10.5 13.5t-9 11.5t-10.5 13l-549 695q-10 13 -29 24.5t-34 11.5h-87v-710q0 -17 8 -27.5t42.5 -19t99.5 -8.5h55v-15h-420v15h40q65 0 99.5 8.5t42.5 19t8 27.5v710h-87q-15 0 -34.5 -12t-28.5 -24 l-482 -613q-66 -84 -104 -115t-90 -31q-47 0 -95 37q-9 6 -9 16q0 8 5.5 13.5t13.5 5.5q6 0 13 -5q18 -14 27 -20t24 -11t33 -5q61 0 161 127l509 647l-504 638q-61 77 -192 77h-15v15z" />
<glyph unicode="&#x4c2;" horiz-adv-x="1520" d="M789 1330q159 0 249 111l17 -12q-94 -119 -266 -119q-171 0 -266 119l17 12q91 -111 249 -111zM89 1040h342v-15h-70q-72 0 -72 -23q0 -13 23 -42l295 -373q11 -14 31.5 -25.5t36.5 -11.5h104v422q0 14 -3.5 22t-16.5 16t-42.5 11.5t-77.5 3.5h-20v15h340v-15h-15 q-48 0 -77.5 -3.5t-42.5 -11.5t-16.5 -16t-3.5 -22v-422h105q16 0 36.5 11.5t31.5 25.5l295 373q23 29 23 42q0 23 -72 23h-70v15h342v-15h-25q-34 0 -57 -3t-60.5 -21t-64.5 -53l-322 -408l313 -397q66 -83 112 -136t107 -108t117 -85.5t128.5 -49.5t155.5 -19 q43 0 94.5 21.5t80.5 21.5q51 0 87.5 -33.5t36.5 -80.5q0 -63 -60.5 -108t-145.5 -45q-75 0 -148 29t-128 66t-133.5 121t-124.5 140.5t-142 179.5q-38 49 -58 74l-286 363q-10 13 -29 24.5t-34 11.5h-105v-460q0 -17 8 -27.5t42.5 -19t99.5 -8.5h55v-15h-420v15h40 q65 0 99.5 8.5t42.5 19t8 27.5v460h-104q-15 0 -34.5 -12t-28.5 -24l-285 -363q-66 -84 -104 -115t-90 -31q-27 0 -67.5 15.5t-40.5 37.5q0 18 19 18q6 0 13 -5q45 -36 88 -36q60 0 161 128l312 397l-322 408q-27 35 -64.5 53t-60.5 21t-57 3h-25v15z" />
<glyph unicode="&#x4d0;" horiz-adv-x="1330" d="M689 1730q159 0 249 111l17 -12q-94 -119 -266 -119q-171 0 -266 119l17 12q91 -111 249 -111zM1132 241l-86 239h-726l-143 -397q-5 -17 -5 -25q0 -26 32.5 -34.5t114.5 -8.5h41v-15h-340v15h5q63 0 91 16t43 58l510 1424q3 7 9 7h27q10 0 10 -10q0 -35 25 -104 l428 -1194q53 -150 70 -187q87 -196 231 -253q68 -27 150 -27q43 0 94.5 21.5t80.5 21.5q51 0 87.5 -33.5t36.5 -80.5q0 -63 -60.5 -108t-145.5 -45q-79 0 -143.5 22.5t-116 70t-93 106t-80.5 144.5t-71.5 171t-73.5 199q-1 5 -2 7zM327 500h712l-322 900q-17 48 -21 67h-23 z" />
<glyph unicode="&#x4d1;" horiz-adv-x="1110" d="M520 1330q159 0 249 111l17 -12q-94 -119 -266 -119q-171 0 -266 119l17 12q91 -111 249 -111zM571 1045q144 0 236.5 -91.5t92.5 -232.5v-486l16 -95q20 -119 61 -120l107 10l2 -20l-109 -15h-1q-62 0 -85 141q-2 11 -6 36t-7 41.5t-3 20.5v22q0 27 -7 27q-6 0 -15 -21 q-54 -116 -161 -191.5t-237 -75.5q-170 0 -280 75t-110 190q0 240 389 280q10 1 59 5.5t73 7.5t71 10.5t74.5 17t60 23.5t51.5 34t27 45q5 18 5 32v6q-1 132 -85 218t-216 86q-101 0 -163 -33t-62 -86q0 -43 36.5 -89.5t36.5 -75.5q0 -42 -29 -68t-75 -26q-69 0 -111 48.5 t-42 127.5q0 100 111.5 161t294.5 61zM875 646q-16 -27 -48.5 -47.5t-64 -32t-82.5 -21t-79.5 -12.5t-81.5 -7.5t-63 -5.5q-81 -8 -143.5 -25t-114.5 -46.5t-80 -77.5t-28 -111q0 -107 103 -176t262 -69q114 0 212.5 63.5t153 162t54.5 204.5v201z" />
<glyph unicode="&#x4d2;" horiz-adv-x="1330" d="M409 1740q0 16 12 28t28 12t28 -12t12 -28t-12 -28t-28 -12t-28 12t-12 28zM889 1740q0 16 12 28t28 12t28 -12t12 -28t-12 -28t-28 -12t-28 12t-12 28zM1132 241l-86 239h-726l-143 -397q-5 -17 -5 -25q0 -26 32.5 -34.5t114.5 -8.5h41v-15h-340v15h5q63 0 91 16t43 58 l510 1424q3 7 9 7h27q10 0 10 -10q0 -35 25 -104l428 -1194q53 -150 70 -187q87 -196 231 -253q68 -27 150 -27q43 0 94.5 21.5t80.5 21.5q51 0 87.5 -33.5t36.5 -80.5q0 -63 -60.5 -108t-145.5 -45q-79 0 -143.5 22.5t-116 70t-93 106t-80.5 144.5t-71.5 171t-73.5 199 q-1 5 -2 7zM327 500h712l-322 900q-17 48 -21 67h-23z" />
<glyph unicode="&#x4d3;" horiz-adv-x="1110" d="M240 1340q0 16 12 28t28 12t28 -12t12 -28t-12 -28t-28 -12t-28 12t-12 28zM720 1340q0 16 12 28t28 12t28 -12t12 -28t-12 -28t-28 -12t-28 12t-12 28zM571 1045q144 0 236.5 -91.5t92.5 -232.5v-486l16 -95q20 -119 61 -120l107 10l2 -20l-109 -15h-1q-62 0 -85 141 q-2 11 -6 36t-7 41.5t-3 20.5v22q0 27 -7 27q-6 0 -15 -21q-54 -116 -161 -191.5t-237 -75.5q-170 0 -280 75t-110 190q0 240 389 280q10 1 59 5.5t73 7.5t71 10.5t74.5 17t60 23.5t51.5 34t27 45q5 18 5 32v6q-1 132 -85 218t-216 86q-101 0 -163 -33t-62 -86 q0 -43 36.5 -89.5t36.5 -75.5q0 -42 -29 -68t-75 -26q-69 0 -111 48.5t-42 127.5q0 100 111.5 161t294.5 61zM875 646q-16 -27 -48.5 -47.5t-64 -32t-82.5 -21t-79.5 -12.5t-81.5 -7.5t-63 -5.5q-81 -8 -143.5 -25t-114.5 -46.5t-80 -77.5t-28 -111q0 -107 103 -176t262 -69 q114 0 212.5 63.5t153 162t54.5 204.5v201z" />
<glyph unicode="&#x4d4;" horiz-adv-x="2000" d="M655 1520h1175q10 0 10 -9l25 -380l-20 -2l-16 254q-4 66 -32.5 91.5t-94.5 25.5h-626l-1 -740h315q40 0 40 270v60h20v-680h-20v60q0 270 -40 270h-315v-720h707q67 0 94.5 26t32.5 91l16 254l20 -2l-25 -380q0 -9 -10 -9h-1050v15h40q64 0 99 8.5t43 19.5t8 28v409 h-702l-170 -397q-7 -15 -7 -27q0 -25 34 -33t115 -8h40v-15h-340v15h5q62 0 89 16t45 58l579 1351q4 12 4 19q0 19 -12.5 32.5t-36.5 13.5h-38v15zM1050 500v930q0 38 -15.5 54t-54.5 16h-151q-45 0 -72 -65l-400 -935h693z" />
<glyph unicode="&#x4d5;" horiz-adv-x="1900" d="M571 1045q142 0 235.5 -90t93.5 -228v-6v-25q48 159 173 254t292 95q212 0 341 -142t129 -363q0 -10 -10 -10h-925v-10q0 -220 127.5 -362.5t327.5 -142.5q309 0 439 231l18 -10q-62 -111 -176.5 -176t-280.5 -65q-171 0 -295.5 102.5t-166.5 270.5q-39 -165 -162 -269 t-276 -104q-170 0 -280 75t-110 190q0 240 389 280q55 6 118 7.5t157 1.5t146 1v171q-1 132 -85 218t-216 86q-101 0 -163 -33t-62 -86q0 -43 36.5 -89.5t36.5 -75.5q0 -42 -29 -68t-75 -26q-69 0 -111 48.5t-42 127.5q0 100 111.5 161t294.5 61zM901 550h858q45 0 45 68 q0 16 -3 30q-30 171 -145.5 274t-290.5 103q-196 0 -325 -132.5t-139 -342.5zM875 530q-59 -1 -161.5 -2.5t-166.5 -3t-91 -4.5q-81 -8 -143.5 -25t-114.5 -46.5t-80 -77.5t-28 -111q0 -107 103 -176t262 -69q114 0 212.5 63.5t153 162t54.5 204.5v75v10z" />
<glyph unicode="&#x4d6;" horiz-adv-x="1290" d="M660 1730q159 0 249 111l17 -12q-94 -119 -266 -119q-171 0 -266 119l17 12q91 -111 249 -111zM50 1520h1070q10 0 10 -9l25 -380l-20 -2l-16 254q-4 66 -32.5 91.5t-94.5 25.5h-726l-1 -810h205q85 0 137.5 44t52.5 115q0 34 -21 65t-41.5 58t-20.5 52q0 51 31.5 82.5 t82.5 31.5q69 0 111 -54t42 -142q0 -122 -103 -197t-271 -75h-205v-650h807q67 0 94.5 26t32.5 91l16 254l20 -2l-25 -380q0 -9 -10 -9h-1150v15h40q64 0 99 8.5t43 19.5t8 28v1384q0 26 -29 38t-121 12h-40v15z" />
<glyph unicode="&#x4d7;" horiz-adv-x="1090" d="M550 1330q159 0 249 111l17 -12q-94 -119 -266 -119q-171 0 -266 119l17 12q91 -111 249 -111zM555 1045q212 0 341 -142t129 -363q0 -10 -10 -10h-524q-156 0 -251 61t-95 161q0 79 42 127.5t111 48.5q46 0 75 -26t29 -68q0 -29 -36.5 -75.5t-36.5 -89.5q0 -53 45.5 -86 t119.5 -33h455q45 0 45 68q0 16 -3 30q-30 171 -145.5 274t-290.5 103q-138 0 -248 -70h-38q125 90 286 90zM102 732l14 -34q-26 -83 -26 -178q0 -220 127.5 -362.5t327.5 -142.5q309 0 439 231l18 -10q-62 -111 -176.5 -176t-280.5 -65q-210 0 -345 149t-135 376 q0 113 37 212z" />
<glyph unicode="&#x4d8;" horiz-adv-x="1390" d="M1239 360q-82 -171 -227 -268t-327 -97q-183 0 -324.5 98.5t-218.5 272.5t-77 394q0 10 10 10h874q156 0 251 -61t95 -161q0 -79 -42 -127.5t-111 -48.5q-46 0 -75 26t-29 68q0 29 36.5 75.5t36.5 89.5q0 53 -45.5 86t-119.5 33h-805q-46 0 -46 -68q0 -6 1 -17.5t1 -12.5 q30 -285 188.5 -461t399.5 -176q168 0 304.5 88t217.5 243zM685 1525q183 0 329.5 -98t228.5 -273t82 -394q0 -62 -8 -128l-21 28q5 53 5 100q0 214 -79 384.5t-220 265.5t-317 95q-173 0 -311 -92t-218 -255l-19 15q83 165 226 258.5t322 93.5z" />
<glyph unicode="&#x4d9;" horiz-adv-x="1090" d="M535 -5q-212 0 -341 142t-129 363q0 10 10 10h524q156 0 251 -61t95 -161q0 -79 -42 -127.5t-111 -48.5q-46 0 -75 26t-29 68q0 29 36.5 75.5t36.5 89.5q0 53 -45.5 86t-119.5 33h-455q-45 0 -45 -68q0 -16 3 -30q30 -171 145.5 -274t290.5 -103q138 0 248 70h38 q-125 -90 -286 -90zM988 308l-14 34q26 83 26 178q0 220 -127.5 362.5t-327.5 142.5q-309 0 -439 -231l-18 10q62 111 176.5 176t280.5 65q210 0 345 -149t135 -376q0 -113 -37 -212z" />
<glyph unicode="&#x4da;" horiz-adv-x="1390" d="M395 1740q0 16 12 28t28 12t28 -12t12 -28t-12 -28t-28 -12t-28 12t-12 28zM875 1740q0 16 12 28t28 12t28 -12t12 -28t-12 -28t-28 -12t-28 12t-12 28zM1239 360q-82 -171 -227 -268t-327 -97q-183 0 -324.5 98.5t-218.5 272.5t-77 394q0 10 10 10h874q156 0 251 -61 t95 -161q0 -79 -42 -127.5t-111 -48.5q-46 0 -75 26t-29 68q0 29 36.5 75.5t36.5 89.5q0 53 -45.5 86t-119.5 33h-805q-46 0 -46 -68q0 -6 1 -17.5t1 -12.5q30 -285 188.5 -461t399.5 -176q168 0 304.5 88t217.5 243zM685 1525q183 0 329.5 -98t228.5 -273t82 -394 q0 -62 -8 -128l-21 28q5 53 5 100q0 214 -79 384.5t-220 265.5t-317 95q-173 0 -311 -92t-218 -255l-19 15q83 165 226 258.5t322 93.5z" />
<glyph unicode="&#x4db;" horiz-adv-x="1090" d="M255 1340q0 16 12 28t28 12t28 -12t12 -28t-12 -28t-28 -12t-28 12t-12 28zM735 1340q0 16 12 28t28 12t28 -12t12 -28t-12 -28t-28 -12t-28 12t-12 28zM535 -5q-212 0 -341 142t-129 363q0 10 10 10h524q156 0 251 -61t95 -161q0 -79 -42 -127.5t-111 -48.5 q-46 0 -75 26t-29 68q0 29 36.5 75.5t36.5 89.5q0 53 -45.5 86t-119.5 33h-455q-45 0 -45 -68q0 -16 3 -30q30 -171 145.5 -274t290.5 -103q138 0 248 70h38q-125 -90 -286 -90zM988 308l-14 34q26 83 26 178q0 220 -127.5 362.5t-327.5 142.5q-309 0 -439 -231l-18 10 q62 111 176.5 176t280.5 65q210 0 345 -149t135 -376q0 -113 -37 -212z" />
<glyph unicode="&#x4dc;" horiz-adv-x="1893" d="M692 1740q0 16 12 28t28 12t28 -12t12 -28t-12 -28t-28 -12t-28 12t-12 28zM1172 1740q0 16 12 28t28 12t28 -12t12 -28t-12 -28t-28 -12t-28 12t-12 28zM105 1520h382v-15h-110q-72 0 -72 -23q0 -13 23 -42l477 -603q11 -14 31.5 -25.5t36.5 -11.5h87v652q0 27 -29.5 40 t-120.5 13h-40v15h420v-15h-55q-91 0 -120.5 -13t-29.5 -40v-652h87q16 0 36.5 11.5t31.5 25.5l477 603q23 29 23 42q0 23 -72 23h-110v15h382v-15h-15q-131 0 -192 -77l-504 -638l570 -723q48 -61 86 -103t92 -86.5t109 -71t129 -44t159 -17.5q43 0 94.5 21.5t80.5 21.5 q51 0 87.5 -33.5t36.5 -80.5q0 -63 -60.5 -108t-145.5 -45q-79 0 -148.5 23t-120 52t-123 105t-118 130.5t-143.5 179.5l-10.5 13.5t-9 11.5t-10.5 13l-549 695q-10 13 -29 24.5t-34 11.5h-87v-710q0 -17 8 -27.5t42.5 -19t99.5 -8.5h55v-15h-420v15h40q65 0 99.5 8.5 t42.5 19t8 27.5v710h-87q-15 0 -34.5 -12t-28.5 -24l-482 -613q-66 -84 -104 -115t-90 -31q-47 0 -95 37q-9 6 -9 16q0 8 5.5 13.5t13.5 5.5q6 0 13 -5q18 -14 27 -20t24 -11t33 -5q61 0 161 127l509 647l-504 638q-61 77 -192 77h-15v15z" />
<glyph unicode="&#x4dd;" horiz-adv-x="1520" d="M509 1340q0 16 12 28t28 12t28 -12t12 -28t-12 -28t-28 -12t-28 12t-12 28zM989 1340q0 16 12 28t28 12t28 -12t12 -28t-12 -28t-28 -12t-28 12t-12 28zM89 1040h342v-15h-70q-72 0 -72 -23q0 -13 23 -42l295 -373q11 -14 31.5 -25.5t36.5 -11.5h104v422q0 14 -3.5 22 t-16.5 16t-42.5 11.5t-77.5 3.5h-20v15h340v-15h-15q-48 0 -77.5 -3.5t-42.5 -11.5t-16.5 -16t-3.5 -22v-422h105q16 0 36.5 11.5t31.5 25.5l295 373q23 29 23 42q0 23 -72 23h-70v15h342v-15h-25q-34 0 -57 -3t-60.5 -21t-64.5 -53l-322 -408l313 -397q66 -83 112 -136 t107 -108t117 -85.5t128.5 -49.5t155.5 -19q43 0 94.5 21.5t80.5 21.5q51 0 87.5 -33.5t36.5 -80.5q0 -63 -60.5 -108t-145.5 -45q-75 0 -148 29t-128 66t-133.5 121t-124.5 140.5t-142 179.5q-38 49 -58 74l-286 363q-10 13 -29 24.5t-34 11.5h-105v-460q0 -17 8 -27.5 t42.5 -19t99.5 -8.5h55v-15h-420v15h40q65 0 99.5 8.5t42.5 19t8 27.5v460h-104q-15 0 -34.5 -12t-28.5 -24l-285 -363q-66 -84 -104 -115t-90 -31q-27 0 -67.5 15.5t-40.5 37.5q0 18 19 18q6 0 13 -5q45 -36 88 -36q60 0 161 128l312 397l-322 408q-27 35 -64.5 53 t-60.5 21t-57 3h-25v15z" />
<glyph unicode="&#x4de;" horiz-adv-x="1080" d="M240 1740q0 16 12 28t28 12t28 -12t12 -28t-12 -28t-28 -12t-28 12t-12 28zM720 1740q0 16 12 28t28 12t28 -12t12 -28t-12 -28t-28 -12t-28 12t-12 28zM520 1525q184 0 297 -95t113 -250q0 -103 -78.5 -191t-221.5 -125v-4q184 -27 292 -134.5t108 -280.5 q0 -203 -146 -326.5t-384 -123.5q-80 0 -149 16.5t-113 39.5t-82.5 57t-56.5 58t-37 54q-2 4 -2 5v95h20v-22q0 -25 14 -69t33 -66q129 -148 373 -148q227 0 366 118t139 312q0 165 -100 267t-278 128h-17q-22 0 -22 10v24q0 10 22 10h17q137 35 207.5 118t70.5 178 q0 146 -106 235.5t-279 89.5q-111 0 -179 -49.5t-68 -129.5q0 -27 13 -52.5t28.5 -42t28.5 -38.5t13 -42q0 -51 -31.5 -82.5t-82.5 -31.5q-69 0 -111 54t-42 142q0 131 118.5 211.5t312.5 80.5z" />
<glyph unicode="&#x4df;" horiz-adv-x="870" d="M129 1340q0 16 12 28t28 12t28 -12t12 -28t-12 -28t-28 -12t-28 12t-12 28zM609 1340q0 16 12 28t28 12t28 -12t12 -28t-12 -28t-28 -12t-28 12t-12 28zM397 1045q162 0 261 -62t99 -164q0 -73 -57 -131.5t-163 -85.5v-2q137 -20 215 -92.5t78 -197.5q0 -142 -123 -228.5 t-325 -86.5q-218 0 -321 165q-1 1 -1 4v99h20v-45q0 -19 9.5 -49.5t23.5 -46.5q94 -107 269 -107q190 0 306.5 81t116.5 214q0 233 -270 272l-52 8q-17 3 -17 9v3q0 6 17 9l52 8q101 27 149 79.5t48 120.5q0 93 -92 149.5t-243 56.5q-64 0 -103.5 -40.5t-39.5 -107.5 q0 -43 36.5 -89.5t36.5 -75.5q0 -42 -29 -68t-75 -26q-69 0 -111 48.5t-42 127.5q0 113 90 182t237 69z" />
<glyph unicode="&#x4e0;" horiz-adv-x="1080" d="M520 1525q184 0 297 -95t113 -250q0 -103 -78.5 -191t-221.5 -125v-4q184 -27 292 -134.5t108 -280.5q0 -203 -146 -326.5t-384 -123.5q-80 0 -149 16.5t-113 39.5t-82.5 57t-56.5 58t-37 54q-2 4 -2 5v95h20v-22q0 -25 14 -69t33 -66q129 -148 373 -148q227 0 366 118 t139 312q0 165 -100 267t-278 128h-17q-22 0 -22 10v24q0 10 22 10h17q137 35 207.5 118t70.5 178q0 146 -106 235.5t-279 89.5q-111 0 -179 -49.5t-68 -129.5q0 -27 13 -52.5t28.5 -42t28.5 -38.5t13 -42q0 -51 -31.5 -82.5t-82.5 -31.5q-69 0 -111 54t-42 142 q0 131 118.5 211.5t312.5 80.5z" />
<glyph unicode="&#x4e1;" horiz-adv-x="870" d="M397 1045q162 0 261 -62t99 -164q0 -73 -57 -131.5t-163 -85.5v-2q137 -20 215 -92.5t78 -197.5q0 -142 -123 -228.5t-325 -86.5q-218 0 -321 165q-1 1 -1 4v99h20v-45q0 -19 9.5 -49.5t23.5 -46.5q94 -107 269 -107q190 0 306.5 81t116.5 214q0 233 -270 272l-52 8 q-17 3 -17 9v3q0 6 17 9l52 8q101 27 149 79.5t48 120.5q0 93 -92 149.5t-243 56.5q-64 0 -103.5 -40.5t-39.5 -107.5q0 -43 36.5 -89.5t36.5 -75.5q0 -42 -29 -68t-75 -26q-69 0 -111 48.5t-42 127.5q0 113 90 182t237 69z" />
<glyph unicode="&#x4e2;" horiz-adv-x="1400" d="M1020 1880h-640v20h640v-20zM235 970q0 95 -21.5 180.5t-48 135t-48 98t-21.5 78.5q0 44 35 71t93 27t93.5 -38.5t35.5 -101.5q0 -29 -14.5 -76.5t-32 -95t-32 -123.5t-14.5 -155v-845l798 1189q74 112 74 152q0 39 -58 39h-64v15h335v-15h-30q-64 0 -99 -9t-43 -20 t-8 -28v-1381q0 -17 8 -27t42.5 -17.5t99.5 -7.5h30v-15h-420v15h65q65 0 99.5 7.5t42.5 17.5t8 27v1328l-798 -1189q-74 -112 -74 -152q0 -39 58 -39h64v-15h-335v15h30q64 0 99 9t43 20t8 28v898z" />
<glyph unicode="&#x4e3;" horiz-adv-x="1190" d="M915 1400h-640v20h640v-20zM55 1040h420v-15h-65q-65 0 -99.5 -7.5t-42.5 -17.5t-8 -27v-846l588 718q77 93 77 140q0 40 -61 40h-64v15h335v-15h-30q-64 0 -99 -9t-43 -20t-8 -28v-892q0 -76 21 -125t48 -49q31 0 71 24t69 24q48 0 77 -25.5t29 -67.5q0 -58 -46 -94 t-121 -36q-78 0 -125.5 73.5t-47.5 194.5v919l-588 -718q-77 -93 -77 -140q0 -41 61 -41h64v-15h-335v15h30q64 0 99 9t43 20t8 28v901q0 17 -8 27t-42.5 17.5t-99.5 7.5h-30v15z" />
<glyph unicode="&#x4e4;" horiz-adv-x="1400" d="M420 1820q0 16 12 28t28 12t28 -12t12 -28t-12 -28t-28 -12t-28 12t-12 28zM900 1820q0 16 12 28t28 12t28 -12t12 -28t-12 -28t-28 -12t-28 12t-12 28zM1345 1520v-15h-30q-64 0 -99 -9t-43 -20t-8 -28v-1381q0 -17 8 -27t42.5 -17.5t99.5 -7.5h30v-15h-420v15h65 q65 0 99.5 7.5t42.5 17.5t8 27v1328l-798 -1189q-74 -112 -74 -152q0 -39 58 -39h64v-15h-335v15h30q64 0 99 9t43 20t8 28v1381q0 17 -8 27t-42.5 17.5t-99.5 7.5h-30v15h420v-15h-65q-65 0 -99.5 -7.5t-42.5 -17.5t-8 -27v-1328l798 1189q74 112 74 152q0 39 -58 39h-64 v15h335z" />
<glyph unicode="&#x4e5;" horiz-adv-x="1190" d="M315 1340q0 16 12 28t28 12t28 -12t12 -28t-12 -28t-28 -12t-28 12t-12 28zM795 1340q0 16 12 28t28 12t28 -12t12 -28t-12 -28t-28 -12t-28 12t-12 28zM55 1040h420v-15h-65q-65 0 -99.5 -7.5t-42.5 -17.5t-8 -27v-846l588 718q77 93 77 140q0 40 -61 40h-64v15h335v-15 h-30q-64 0 -99 -9t-43 -20t-8 -28v-892q0 -76 21 -125t48 -49q31 0 71 24t69 24q48 0 77 -25.5t29 -67.5q0 -58 -46 -94t-121 -36q-78 0 -125.5 73.5t-47.5 194.5v919l-588 -718q-77 -93 -77 -140q0 -41 61 -41h64v-15h-335v15h30q64 0 99 9t43 20t8 28v901q0 17 -8 27 t-42.5 17.5t-99.5 7.5h-30v15z" />
<glyph unicode="&#x4e6;" horiz-adv-x="1410" d="M425 1740q0 16 12 28t28 12t28 -12t12 -28t-12 -28t-28 -12t-28 12t-12 28zM905 1740q0 16 12 28t28 12t28 -12t12 -28t-12 -28t-28 -12t-28 12t-12 28zM705 1525q183 0 329 -98t228.5 -273t82.5 -394t-82 -394t-228.5 -273t-329.5 -98t-329.5 98t-228.5 273t-82 394 q0 327 175 542v-38q-150 -205 -150 -504q0 -213 79 -383.5t219.5 -266t316.5 -95.5t316.5 95.5t219.5 266t79 383.5t-79 383.5t-219.5 266t-316.5 95.5q-109 0 -176 -49.5t-67 -129.5q0 -34 21 -65t41.5 -58t20.5 -52q0 -51 -31.5 -82.5t-82.5 -31.5q-69 0 -111 54t-42 142 q0 131 117.5 211.5t309.5 80.5z" />
<glyph unicode="&#x4e7;" horiz-adv-x="1110" d="M240 1340q0 16 12 28t28 12t28 -12t12 -28t-12 -28t-28 -12t-28 12t-12 28zM720 1340q0 16 12 28t28 12t28 -12t12 -28t-12 -28t-28 -12t-28 12t-12 28zM555 1045q169 0 272.5 -75t104.5 -197q0 -79 -36.5 -127.5t-96.5 -48.5q-49 0 -78.5 31.5t-29.5 82.5q0 26 28.5 74 t28.5 81q-1 72 -53.5 115.5t-139.5 43.5q-203 0 -334 -142.5t-131 -362.5t131.5 -362.5t333.5 -142.5t333.5 142.5t131.5 362.5q0 143 -59 258l-1 50q85 -134 85 -308q0 -228 -138.5 -376.5t-351.5 -148.5t-351.5 148.5t-138.5 376.5t138 376.5t352 148.5z" />
<glyph unicode="&#x4e8;" horiz-adv-x="1410" d="M90 774l615 -3l615 3q-2 210 -81.5 377t-219 260.5t-314.5 93.5q-109 0 -176 -49.5t-67 -129.5q0 -34 21 -65t41.5 -58t20.5 -52q0 -51 -31.5 -82.5t-82.5 -31.5q-69 0 -111 54t-42 142q0 131 117.5 211.5t309.5 80.5q184 0 330 -98t228 -273t82 -394t-82 -394 t-228.5 -273t-329.5 -98t-329 98t-228.5 273t-82.5 394q0 327 175 542v-38q-147 -201 -150 -490zM90 749q2 -210 81.5 -378t219 -262t314.5 -94t314.5 94t219 262t81.5 378l-615 2z" />
<glyph unicode="&#x4e9;" horiz-adv-x="1110" d="M783 990q122 -64 192 -187.5t70 -282.5q0 -228 -138.5 -376.5t-351.5 -148.5t-351.5 148.5t-138.5 376.5q0 157 67.5 278t187.5 190q101 58 213 58q123 0 198 -66t75 -174q0 -51 -33 -89t-86 -38q-47 0 -76.5 30.5t-29.5 80.5q0 10 2 32.5t2 33.5q0 65 -41.5 104.5 t-109.5 39.5q-47 0 -103 -31q-109 -61 -173.5 -175t-67.5 -260l465 -3l465 3q-3 140 -63 252t-162 174zM90 509q4 -216 134.5 -355t330.5 -139t330.5 139t134.5 355l-465 2z" />
<glyph unicode="&#x4ea;" horiz-adv-x="1410" d="M425 1740q0 16 12 28t28 12t28 -12t12 -28t-12 -28t-28 -12t-28 12t-12 28zM905 1740q0 16 12 28t28 12t28 -12t12 -28t-12 -28t-28 -12t-28 12t-12 28zM705 -5q-183 0 -329.5 98t-228.5 273t-82 394t82 394t228.5 273t329.5 98t329.5 -98t228.5 -273t82 -394t-82 -394 t-228.5 -273t-329.5 -98zM90 774l615 -3l615 3q-2 157 -49 293t-128 232t-194 151t-244 55t-244 -55t-194 -151t-128 -232t-49 -293zM90 749q2 -210 81.5 -378t219 -262t314.5 -94t314.5 94t219 262t81.5 378l-615 2z" />
<glyph unicode="&#x4eb;" horiz-adv-x="1110" d="M270 1340q0 16 12 28t28 12t28 -12t12 -28t-12 -28t-28 -12t-28 12t-12 28zM750 1340q0 16 12 28t28 12t28 -12t12 -28t-12 -28t-28 -12t-28 12t-12 28zM783 990q122 -64 192 -187.5t70 -282.5q0 -228 -138.5 -376.5t-351.5 -148.5t-351.5 148.5t-138.5 376.5 q0 157 67.5 278t187.5 190q101 58 213 58q123 0 198 -66t75 -174q0 -51 -33 -89t-86 -38q-47 0 -76.5 30.5t-29.5 80.5q0 10 2 32.5t2 33.5q0 65 -41.5 104.5t-109.5 39.5q-47 0 -103 -31q-109 -61 -173.5 -175t-67.5 -260l465 -3l465 3q-3 140 -63 252t-162 174zM90 509 q4 -216 134.5 -355t330.5 -139t330.5 139t134.5 355l-465 2z" />
<glyph unicode="&#x4ec;" horiz-adv-x="1140" d="M215 1740q0 16 12 28t28 12t28 -12t12 -28t-12 -28t-28 -12t-28 12t-12 28zM695 1740q0 16 12 28t28 12t28 -12t12 -28t-12 -28t-28 -12t-28 12t-12 28zM465 1525q274 0 442 -210t168 -553q0 -222 -72 -395t-211.5 -272.5t-326.5 -99.5q-237 0 -411 170l14 14 q166 -164 397 -164q179 0 313 94t204.5 259.5t72.5 381.5h-552l-4 20h556q-2 331 -164.5 533t-425.5 202q-100 0 -161 -49.5t-61 -129.5q0 -27 13 -52.5t28.5 -42t28.5 -38.5t13 -42q0 -51 -31.5 -82.5t-82.5 -31.5q-69 0 -111 54t-42 142q0 131 111.5 211.5t294.5 80.5z " />
<glyph unicode="&#x4ed;" horiz-adv-x="1010" d="M215 1340q0 16 12 28t28 12t28 -12t12 -28t-12 -28t-28 -12t-28 12t-12 28zM695 1340q0 16 12 28t28 12t28 -12t12 -28t-12 -28t-28 -12t-28 12t-12 28zM465 1045q213 0 351.5 -149t138.5 -378t-144 -377t-366 -148q-102 0 -202 34.5t-178 100.5l13 15q75 -64 171.5 -97 t195.5 -33q211 0 346.5 139.5t138.5 357.5h-487l-4 20h491q-4 217 -133.5 356t-328.5 139q-214 0 -214 -149q0 -43 36.5 -89.5t36.5 -75.5q0 -42 -29 -68t-75 -26q-69 0 -111 48.5t-42 127.5q0 114 106.5 183t288.5 69z" />
<glyph unicode="&#x4ee;" horiz-adv-x="1230" d="M928 1800h-640v20h640v-20zM615 395q-38 -90 -61.5 -141.5t-52 -103t-50.5 -76.5t-52.5 -45.5t-63.5 -27t-79 -6.5q-82 0 -131.5 42t-49.5 111q0 51 30 82.5t79 31.5q46 0 96 -31.5t102 -31.5q72 0 120.5 49t90.5 146q2 4 2 9q0 19 -15 56l-365 912q-30 77 -52 97.5 t-72 20.5q-23 0 -47 -8q-4 -2 -7 -2q-19 0 -19 19q0 28 68 28q63 0 90.5 -29t62.5 -120l356 -887q11 -29 19 -29q6 0 19 30l400 946q9 19 9 32q0 23 -32 29.5t-118 6.5h-80v15h398v-15h-11q-62 0 -97 -17t-51 -57z" />
<glyph unicode="&#x4ef;" d="M880 1400h-640v20h640v-20zM742 1040h398v-15h-11q-52 0 -81.5 -17t-46.5 -57l-465 -1106q-68 -159 -171 -241.5t-254 -82.5q-85 0 -145.5 45t-60.5 108q0 47 36.5 80.5t87.5 33.5q33 0 60 -10t42.5 -21.5t47 -21.5t73.5 -10q86 0 159 32.5t104 100.5l54 117q1 2 1 7 q0 19 -15 56l-352 852q-32 78 -53.5 98t-70.5 20q-23 0 -47 -8q-4 -2 -7 -2q-19 0 -19 19q0 28 68 28q33 0 54 -6.5t38.5 -27t29 -43.5t31.5 -72l343 -827q12 -29 19 -29q6 0 19 30l375 887q9 23 9 32q0 23 -32 29.5t-118 6.5h-100v15z" />
<glyph unicode="&#x4f0;" horiz-adv-x="1230" d="M328 1740q0 16 12 28t28 12t28 -12t12 -28t-12 -28t-28 -12t-28 12t-12 28zM808 1740q0 16 12 28t28 12t28 -12t12 -28t-12 -28t-28 -12t-28 12t-12 28zM615 395q-38 -90 -61.5 -141.5t-52 -103t-50.5 -76.5t-52.5 -45.5t-63.5 -27t-79 -6.5q-82 0 -131.5 42t-49.5 111 q0 51 30 82.5t79 31.5q46 0 96 -31.5t102 -31.5q72 0 120.5 49t90.5 146q2 4 2 9q0 19 -15 56l-365 912q-30 77 -52 97.5t-72 20.5q-23 0 -47 -8q-4 -2 -7 -2q-19 0 -19 19q0 28 68 28q63 0 90.5 -29t62.5 -120l356 -887q11 -29 19 -29q6 0 19 30l400 946q9 19 9 32 q0 23 -32 29.5t-118 6.5h-80v15h398v-15h-11q-62 0 -97 -17t-51 -57z" />
<glyph unicode="&#x4f1;" d="M280 1340q0 16 12 28t28 12t28 -12t12 -28t-12 -28t-28 -12t-28 12t-12 28zM760 1340q0 16 12 28t28 12t28 -12t12 -28t-12 -28t-28 -12t-28 12t-12 28zM742 1040h398v-15h-11q-52 0 -81.5 -17t-46.5 -57l-465 -1106q-68 -159 -171 -241.5t-254 -82.5q-85 0 -145.5 45 t-60.5 108q0 47 36.5 80.5t87.5 33.5q33 0 60 -10t42.5 -21.5t47 -21.5t73.5 -10q86 0 159 32.5t104 100.5l54 117q1 2 1 7q0 19 -15 56l-352 852q-32 78 -53.5 98t-70.5 20q-23 0 -47 -8q-4 -2 -7 -2q-19 0 -19 19q0 28 68 28q33 0 54 -6.5t38.5 -27t29 -43.5t31.5 -72 l343 -827q12 -29 19 -29q6 0 19 30l375 887q9 23 9 32q0 23 -32 29.5t-118 6.5h-100v15z" />
<glyph unicode="&#x4f2;" horiz-adv-x="1230" d="M230 1640l317 265q9 7 17 -1q9 -9 0 -17l-321 -262zM627 1640l317 265q9 7 17 -1q9 -9 0 -17l-321 -262zM615 395q-38 -90 -61.5 -141.5t-52 -103t-50.5 -76.5t-52.5 -45.5t-63.5 -27t-79 -6.5q-82 0 -131.5 42t-49.5 111q0 51 30 82.5t79 31.5q46 0 96 -31.5t102 -31.5 q72 0 120.5 49t90.5 146q2 4 2 9q0 19 -15 56l-365 912q-30 77 -52 97.5t-72 20.5q-23 0 -47 -8q-4 -2 -7 -2q-19 0 -19 19q0 28 68 28q63 0 90.5 -29t62.5 -120l356 -887q11 -29 19 -29q6 0 19 30l400 946q9 19 9 32q0 23 -32 29.5t-118 6.5h-80v15h398v-15h-11 q-62 0 -97 -17t-51 -57z" />
<glyph unicode="&#x4f3;" d="M182 1240l317 265q9 7 17 -1q9 -9 0 -17l-321 -262zM579 1240l317 265q9 7 17 -1q9 -9 0 -17l-321 -262zM742 1040h398v-15h-11q-52 0 -81.5 -17t-46.5 -57l-465 -1106q-68 -159 -171 -241.5t-254 -82.5q-85 0 -145.5 45t-60.5 108q0 47 36.5 80.5t87.5 33.5q33 0 60 -10 t42.5 -21.5t47 -21.5t73.5 -10q86 0 159 32.5t104 100.5l54 117q1 2 1 7q0 19 -15 56l-352 852q-32 78 -53.5 98t-70.5 20q-23 0 -47 -8q-4 -2 -7 -2q-19 0 -19 19q0 28 68 28q33 0 54 -6.5t38.5 -27t29 -43.5t31.5 -72l343 -827q12 -29 19 -29q6 0 19 30l375 887q9 23 9 32 q0 23 -32 29.5t-118 6.5h-100v15z" />
<glyph unicode="&#x4f4;" horiz-adv-x="1300" d="M320 1740q0 16 12 28t28 12t28 -12t12 -28t-12 -28t-28 -12t-28 12t-12 28zM800 1740q0 16 12 28t28 12t28 -12t12 -28t-12 -28t-28 -12t-28 12t-12 28zM850 1520h400v-15h-35q-91 0 -120.5 -12.5t-29.5 -39.5v-1383q0 -17 8 -27.5t42.5 -19t99.5 -8.5h35v-15h-400v15h40 q65 0 99.5 8.5t42.5 19t8 27.5v839q0 31 -7 31q-6 0 -16 -25q-61 -155 -185 -257.5t-262 -102.5q-170 0 -290 105.5t-120 254.5v95q0 95 -20.5 179t-44.5 131.5t-44.5 94.5t-20.5 77q0 35 23.5 56.5t62.5 21.5q57 0 97 -44t40 -106q0 -34 -17 -94t-34 -147.5t-17 -188.5v-72 q0 -141 112.5 -240.5t272.5 -99.5q116 0 225 78.5t177 209.5t68 272v315q0 27 -29.5 39.5t-120.5 12.5h-40v15z" />
<glyph unicode="&#x4f5;" d="M250 1340q0 16 12 28t28 12t28 -12t12 -28t-12 -28t-28 -12t-28 12t-12 28zM730 1340q0 16 12 28t28 12t28 -12t12 -28t-12 -28t-28 -12t-28 12t-12 28zM725 1040h400v-15h-35q-91 0 -120.5 -12.5t-29.5 -39.5v-903q0 -17 8 -27.5t42.5 -19t99.5 -8.5h35v-15h-400v15h40 q65 0 99.5 8.5t42.5 19t8 27.5v519q0 31 -7 31q-9 0 -19 -25q-44 -106 -150 -163t-249 -57q-162 0 -246 101t-84 259q0 83 -20.5 154t-44.5 110t-44.5 80t-20.5 71q0 35 23.5 56.5t62.5 21.5q57 0 97 -44t40 -106q0 -35 -17 -78.5t-34 -109t-17 -152.5q0 -150 76.5 -245 t228.5 -95q90 0 166 25.5t134.5 75.5t91.5 131.5t33 187.5v155q0 27 -29.5 39.5t-120.5 12.5h-40v15z" />
<glyph unicode="&#x4f8;" horiz-adv-x="1580" d="M523 1740q0 16 12 28t28 12t28 -12t12 -28t-12 -28t-28 -12t-28 12t-12 28zM1003 1740q0 16 12 28t28 12t28 -12t12 -28t-12 -28t-28 -12t-28 12t-12 28zM50 1520h400v-15h-35q-91 0 -120.5 -12.5t-29.5 -39.5v-1433h395q198 0 326.5 110t128.5 280q0 169 -119.5 272 t-315.5 103q-82 0 -131.5 -33t-49.5 -86q0 -27 13 -52.5t28.5 -42t28.5 -38.5t13 -42q0 -51 -31.5 -82.5t-82.5 -31.5q-69 0 -111 54t-42 142q0 104 100.5 168t264.5 64q207 0 333.5 -108.5t126.5 -286.5t-135.5 -294t-344.5 -116h-610v15h40q65 0 99.5 8.5t42.5 19t8 27.5 v1383q0 27 -29.5 39.5t-120.5 12.5h-40v15zM1530 1520v-15h-35q-91 0 -120.5 -12.5t-29.5 -39.5v-1383q0 -17 8 -27.5t42.5 -19t99.5 -8.5h35v-15h-400v15h40q65 0 99.5 8.5t42.5 19t8 27.5v1383q0 27 -29.5 39.5t-120.5 12.5h-40v15h400z" />
<glyph unicode="&#x4f9;" horiz-adv-x="1440" d="M502 1340q0 16 12 28t28 12t28 -12t12 -28t-12 -28t-28 -12t-28 12t-12 28zM982 1340q0 16 12 28t28 12t28 -12t12 -28t-12 -28t-28 -12t-28 12t-12 28zM640 585q162 0 261 -78.5t99 -206.5q0 -135 -112.5 -217.5t-297.5 -82.5h-540v15h40q65 0 99.5 8.5t42.5 19t8 27.5 v903q0 27 -29.5 39.5t-120.5 12.5h-40v15h400v-15h-35q-91 0 -120.5 -12.5t-29.5 -39.5v-953h325q173 0 279 77t106 203q0 119 -92 192t-243 73q-64 0 -102.5 -33t-38.5 -86q0 -27 13 -52.5t28.5 -42t28.5 -38.5t13 -42q0 -51 -31.5 -82.5t-82.5 -31.5q-69 0 -111 54 t-42 142q0 104 89.5 168t235.5 64zM1390 0h-400v15h40q65 0 99.5 8.5t42.5 19t8 27.5v903q0 27 -29.5 39.5t-120.5 12.5h-40v15h400v-15h-35q-91 0 -120.5 -12.5t-29.5 -39.5v-903q0 -17 8 -27.5t42.5 -19t99.5 -8.5h35v-15z" />
<glyph unicode="&#x2000;" horiz-adv-x="1005" />
<glyph unicode="&#x2001;" horiz-adv-x="2010" />
<glyph unicode="&#x2002;" horiz-adv-x="1005" />
<glyph unicode="&#x2003;" horiz-adv-x="2010" />
<glyph unicode="&#x2004;" horiz-adv-x="670" />
<glyph unicode="&#x2005;" horiz-adv-x="502" />
<glyph unicode="&#x2006;" horiz-adv-x="335" />
<glyph unicode="&#x2007;" horiz-adv-x="335" />
<glyph unicode="&#x2008;" horiz-adv-x="251" />
<glyph unicode="&#x2009;" horiz-adv-x="402" />
<glyph unicode="&#x200a;" horiz-adv-x="111" />
<glyph unicode="&#x2010;" horiz-adv-x="720" d="M642 770l-4 -20h-560l4 20h560z" />
<glyph unicode="&#x2011;" horiz-adv-x="720" d="M642 770l-4 -20h-560l4 20h560z" />
<glyph unicode="&#x2012;" horiz-adv-x="720" d="M642 770l-4 -20h-560l4 20h560z" />
<glyph unicode="&#x2013;" horiz-adv-x="1040" d="M962 770l-4 -20h-880l4 20h880z" />
<glyph unicode="&#x2014;" horiz-adv-x="2000" d="M1922 770l-4 -20h-1840l4 20h1840z" />
<glyph unicode="&#x2018;" horiz-adv-x="320" d="M200 1377q0 -16 -11.5 -28t-28.5 -12q-44 0 -44 78q0 46 19 87t59 93l16 -12q-70 -92 -70 -158q0 -2 0.5 -6.5t0.5 -6.5q8 5 19 5q16 0 28 -11.5t12 -28.5z" />
<glyph unicode="&#x2019;" horiz-adv-x="320" d="M120 1545q0 16 11.5 28t28.5 12q44 0 44 -78q0 -46 -19 -87t-59 -93l-16 12q70 92 70 158q0 2 -0.5 6.5t-0.5 6.5q-8 -5 -19 -5q-16 0 -28 11.5t-12 28.5z" />
<glyph unicode="&#x201a;" horiz-adv-x="320" d="M120 35q0 16 11.5 28t28.5 12q44 0 44 -78q0 -46 -19 -87t-59 -93l-16 12q70 92 70 158q0 2 -0.5 6.5t-0.5 6.5q-8 -5 -19 -5q-16 0 -28 11.5t-12 28.5z" />
<glyph unicode="&#x201c;" horiz-adv-x="480" d="M360 1377q0 -16 -11.5 -28t-28.5 -12q-44 0 -44 78q0 46 19 87t59 93l16 -12q-70 -92 -70 -158q0 -2 0.5 -6.5t0.5 -6.5q8 5 19 5q16 0 28 -11.5t12 -28.5zM200 1377q0 -16 -11.5 -28t-28.5 -12q-44 0 -44 78q0 46 19 87t59 93l16 -12q-70 -92 -70 -158q0 -2 0.5 -6.5 t0.5 -6.5q8 5 19 5q16 0 28 -11.5t12 -28.5z" />
<glyph unicode="&#x201d;" horiz-adv-x="480" d="M280 1545q0 16 11.5 28t28.5 12q44 0 44 -78q0 -46 -19 -87t-59 -93l-16 12q70 92 70 158q0 2 -0.5 6.5t-0.5 6.5q-8 -5 -19 -5q-16 0 -28 11.5t-12 28.5zM120 1545q0 16 11.5 28t28.5 12q44 0 44 -78q0 -46 -19 -87t-59 -93l-16 12q70 92 70 158q0 2 -0.5 6.5t-0.5 6.5 q-8 -5 -19 -5q-16 0 -28 11.5t-12 28.5z" />
<glyph unicode="&#x201e;" horiz-adv-x="480" d="M280 35q0 16 11.5 28t28.5 12q44 0 44 -78q0 -46 -19 -87t-59 -93l-16 12q70 92 70 158q0 2 -0.5 6.5t-0.5 6.5q-8 -5 -19 -5q-16 0 -28 11.5t-12 28.5zM120 35q0 16 11.5 28t28.5 12q44 0 44 -78q0 -46 -19 -87t-59 -93l-16 12q70 92 70 158q0 2 -0.5 6.5t-0.5 6.5 q-8 -5 -19 -5q-16 0 -28 11.5t-12 28.5z" />
<glyph unicode="&#x2026;" horiz-adv-x="1040" d="M760 35q0 16 12 28t28 12t28 -12t12 -28t-12 -28t-28 -12t-28 12t-12 28zM440 35q0 16 12 28t28 12t28 -12t12 -28t-12 -28t-28 -12t-28 12t-12 28zM120 35q0 16 12 28t28 12t28 -12t12 -28t-12 -28t-28 -12t-28 12t-12 28z" />
<glyph unicode="&#x202f;" horiz-adv-x="402" />
<glyph unicode="&#x2039;" horiz-adv-x="440" d="M350 832l16 -14l-258 -294v-8l258 -292l-16 -14l-260 295q-10 10 -10 14v2q0 4 10 14z" />
<glyph unicode="&#x203a;" horiz-adv-x="440" d="M96 208l-16 14l258 294v8l-258 292l16 14l260 -295q10 -10 10 -14v-2q0 -4 -10 -14z" />
<glyph unicode="&#x205f;" horiz-adv-x="502" />
<glyph unicode="&#x20ac;" horiz-adv-x="1231" d="M770 1425q183 0 294.5 -80.5t111.5 -211.5q0 -88 -42 -142t-111 -54q-51 0 -82.5 31.5t-31.5 82.5q0 25 20.5 52t41.5 58t21 65q0 80 -61 129.5t-161 49.5q-229 0 -378.5 -159t-176.5 -426h663l-8 -20h-657q-3 -44 -3 -88q0 -32 4 -92h634l-8 -20h-624q28 -267 177 -426 t377 -159q231 0 397 164l14 -14q-174 -170 -411 -170t-392 164.5t-183 440.5h-155l8 20h146q-4 60 -4 92q0 44 3 88h-123l8 20h117q27 276 182 440.5t393 164.5z" />
<glyph unicode="&#x2122;" horiz-adv-x="1620" d="M711 1560h99q6 0 9 -6l305 -646l301 646q6 6 9 6h97v-15h-5q-45 0 -61 -8t-16 -32l1 -15l50 -647q1 -9 2.5 -13t16.5 -9.5t45 -5.5h16v-15h-220v15h64q55 0 55 12l-1 14l-52 670l-286 -618q-6 -12 -6 -26v-4h-22v4q-2 20 -5 26l-293 622l-39 -523q-35 -456 -327 -456 q-51 0 -87.5 27t-36.5 65q0 28 22 48.5t53 20.5q17 0 48 -13t57 -13q226 0 253 355l35 465q1 9 1 13q0 27 -18 34t-59 7h-5v15zM45 1560h582q10 0 10 -9l10 -165l-19 -2l-6 98q-2 35 -15 46.5t-49 11.5h-210v-702q0 -7 3 -11t19.5 -8t47.5 -4h23v-15h-213v15h25q70 0 70 23 v702h-212q-37 0 -49.5 -12t-14.5 -46l-6 -98l-16 2l10 165q0 9 10 9z" />
<glyph unicode="&#x25fc;" horiz-adv-x="1350" d="M0 1350h1350v-1350h-1350v1350z" />
</font>
</defs>
</svg>
